<?xml version="1.0" encoding="utf-8"?>
<!-- Generator: Adobe Adobe Illustrator 24.2.0, SVG Export Plug-In . SVG Version: 6.00 Build 0)  -->
<svg version="1.1" xmlns="http://www.w3.org/2000/svg" xmlns:xlink="http://www.w3.org/1999/xlink" x="0px" y="0px" width="570px"
	 height="620px" viewBox="0 0 570 620" style="enable-background:new 0 0 570 620;" xml:space="preserve">
<style type="text/css">
	.st0{fill:#706444;}
	.st1{fill:none;stroke:#706444;stroke-width:16;stroke-miterlimit:10;}
	.st2{opacity:0.6706;fill:#C2AB4D;}
	.st3{fill:#A08A2C;stroke:#F8E79F;stroke-miterlimit:10;}
	.st4{fill:none;stroke:#C2AB4D;stroke-miterlimit:10;}
	.st5{fill:#C2AB4D;}
	.st6{fill:#A08A2C;}
	.st7{fill:#C2AB4D;stroke:#C2AB4D;stroke-miterlimit:10;}
	.st8{opacity:0.651;}
	.st9{fill:none;stroke:#A5924A;stroke-width:6;stroke-linecap:round;stroke-miterlimit:10;stroke-dasharray:12,12,12,12,12,12;}
	.st10{fill:#B59B4E;}
	.st11{fill:#FFF9DF;}
	.st12{fill:#AB953E;}
	.st13{fill:#706444;stroke:#AB953E;stroke-width:8;stroke-miterlimit:10;}
	.st14{fill:#706444;stroke:#AB953E;stroke-width:6;stroke-miterlimit:10;}
	.st15{fill:none;}
	.st16{fill:#F5DB67;}
</style>
<g id="Layer_16">
	<ellipse class="st0" cx="284.99" cy="311.53" rx="235.19" ry="260.9"/>
	<ellipse class="st1" cx="284.35" cy="311.53" rx="268.5" ry="290.5"/>
</g>
<g id="Layer_9">
	<g>
		<path class="st2" d="M413.38,251.28c-3.61-4.2-7.34-8.59-11.14-13.05c-1.71,0.61-3.42,1.22-5.14,1.84
			c-5.96,2.14-11.91,4.31-17.84,6.55c5.3,6.33,10.83,13.22,17.3,21.4c15.18,19.22,28.17,29.66,45.13,32.88
			c16.96,3.21,39.08-7.55,39.08-7.55C445.28,299.95,436.23,277.82,413.38,251.28z"/>
		<path class="st2" d="M361.2,226.3c0.08-0.04,0.16-0.08,0.24-0.12c7.53-3.68,15.59-6.08,23.79-7.34
			c-15.53-16.96-31.92-32.13-48.09-38.07c-26.4-9.68-79.84-4.4-79.84-4.4s29.72,3.12,53.12,12.84c23.4,9.71,33,18.7,46.96,33.1
			C358.69,223.65,359.96,224.98,361.2,226.3z"/>
		<path class="st0" d="M465.09,305c-1.59,5.4-6.36,20.16-9.79,17.45c-4.17-3.32-26.45-17.43-45.29-34.31
			c-1.24-1.11-2.38-2.18-3.42-3.21c-8.96-6.85-16.55-15.88-22.82-25.58c-2.55-3.94-5.26-7.76-8.12-11.45
			c-2.93,0.6-6.28,0.88-10.1,0.72c-21.97-0.94-35.13,1.13-35.13,1.13s8.03-9.71,24.33-18.54c1.33-0.72,2.7-1.39,4.11-2.01
			c-23.94-23.04-54.18-38.79-86.13-44.19c-22.94-3.88-53.12,5.76-82.13,18.3c-5.34,2.31-13.76,6.87-18.96,9.31
			c-0.32,0.28-10.79,15.31-24.39,26.12c-14.3,11.36-31.69,18.68-32.23,18.9l8.56-6.59c13.67-10.53,25.58-23.42,35.22-38.11
			c-8.31,0.42-16.52,1.82-24.48,4.18c-7.96,2.36-15.67,5.66-22.98,9.87l-8.37,4.82l12.25-9c11.59-8.5,24.6-14.57,38.35-17.88
			l11.18-2.69c0,0,30.16-16.4,65.12-30.99c-0.45-1.9,53.83-40.43,74.22-39.96c30.48,0.71,109,24.65,109,24.65s6.33,19.95,10.7,35
			c14.43,10.38,26.71,23.57,39.61,35.99C509.24,271.02,486.3,307.01,465.09,305z"/>
		<g>
			
				<ellipse transform="matrix(0.9979 -0.0644 0.0644 0.9979 -16.6314 30.7416)" class="st3" cx="468.72" cy="273.45" rx="9.43" ry="10.2"/>
			
				<ellipse transform="matrix(0.0249 -0.9997 0.9997 0.0249 183.7026 735.2292)" class="st4" cx="468.72" cy="273.45" rx="10.2" ry="9.43"/>
			
				<ellipse transform="matrix(0.963 -0.2697 0.2697 0.963 -56.5385 136.8297)" class="st5" cx="469.72" cy="274.18" rx="2.41" ry="2.44"/>
		</g>
		<path class="st6" d="M384.21,244.3c-5.72,1.32-11.59,0.63-17.37,0.31c-4.2-0.19-8.33-1.17-12.51-1.59
			c-5.02-0.44-10.09-0.08-15.05,0.87c5.8-4.4,11.63-9.38,14.02-11.19c6.92-4.9,17.1-9.75,27.68-13.46
			c-16.41,1.92-26.68,9.43-34.88,15.92c-1.89,1.38-3.8,2.74-5.76,4.02c-3.87,2.39-7.85,4.63-11.28,7.71
			c-1.36,1.25-7.8,6.91-6.33,8.62c0.88,0.37,1.82,0.02,2.71-0.15c2.5-0.55,5.02-1.03,7.55-1.41c5.59-0.87,11.25-1.09,16.9-0.84
			c4.69,0.19,9.36-0.27,14.02-0.81c5.99-0.61,11.95-1.84,17.56-4.21c5.59-2.46,10.97-5.45,16.36-8.35
			C393.21,241.37,388.21,243.4,384.21,244.3z"/>
		<path class="st5" d="M467.94,303.16c-2.44,0.31-3.66,2.75-4.85,4.73c-2.11,3.53-4.61,9.37-5.81,11.26
			c-0.12,0.15-0.32,0.31-0.41,0.38c-0.04,0.02-0.07,0.03-0.11,0.05c-0.05,0.01-0.11,0.03-0.17,0.04c-0.06,0-0.12-0.01-0.17-0.01
			c-2.55-0.98-6.57-3.5-10.52-6.06c-13.73-9.04-27.49-18.19-39.92-29.19c-2.47-2.33-4.5-4.27-7.58-7.98
			c-3.68-4.64-6.95-9.61-10.56-14.3c-3.78-4.78-7.29-10.14-12.28-13.59c3.94,3.96,6.09,8.74,8.94,13.53
			c5.7,10.17,10.99,20.89,19.7,28.59c11.39,10.22,23.98,18.99,37.22,26.29c4.44,2.39,8.93,4.89,13.75,6.29
			c2.82,0.81,4.79-1.46,5.59-4.11c1.44-4.24,2.63-8.58,4.43-12.66c0.58-1.57,1.73-2.77,3.34-3.2c0.26-0.07,0.51-0.17,0.68-0.21
			C468.77,303.03,468.35,303.08,467.94,303.16z"/>
		<path class="st5" d="M345.14,216.07c-4.22-3.2-8.73-5.96-13.11-8.92c-8.32-5.58-16.71-11.12-25.62-15.61
			c-11.97-5.9-25-9.78-38.18-10.76c-6.29-0.42-12.59,0.06-18.85,0.68c-5.91,0.6-11.85,1.1-17.67,2.38
			c-6.91,1.56-13.57,4.13-20.17,6.76c-6.14,2.47-12.36,4.7-18.49,7.2c-9.35,3.92-18.78,8.51-25.92,16.21
			c-4.54,4.75-8.45,10.13-13.01,14.85c-8.81,8.87-18.52,14.1-29.34,21.16c-4.35,2.94-8.57,6.11-12.77,9.28
			c6.76-3.46,13.55-6.86,20.52-9.8c7.35-3.23,14.56-7.03,20.92-12.14c5.08-4.09,9.17-9.34,13.7-14.06
			c5.39-5.73,8.91-8.39,15.57-11.9c8.2-4.35,16.93-7.38,25.51-10.73c7.91-3.1,15.79-6.42,24.07-8.26c9.06-1.61,23.26-3.3,34.49-2.85
			c10.94,0.57,21.63,3.65,31.89,7.56c6.33,2.26,23.47,10.97,33.34,15.99c4.59,2.3,9.34,4.25,13.81,6.82
			c4.29,2.37,8.22,5.36,12.18,8.28C353.95,223.91,349.83,219.64,345.14,216.07z"/>
		<path class="st5" d="M139.36,213.13c-12.81,2.8-24.65,9.63-34.47,18.69c-2.03,1.84-4,3.75-5.94,5.7c2.52-1.53,5.04-3.06,7.58-4.55
			c9.46-5.63,19.66-9.64,29.75-13.78c8.04-3.04,15.99-6.12,24.49-5.96C153.86,210.85,146.36,211.56,139.36,213.13z"/>
		<path class="st6" d="M490.26,294.36c-8.08,15.45-30.08,11.58-44.13,11.38c14.52-2.97,34.79-0.9,40.23-16.49
			c3.89-11.52,2.71-22.06-3.33-33.45c-9.37-16.67-33.93-41.41-39.34-45.19c-0.47-0.33-0.93-0.67-1.39-1.02
			c-7.81-5.94-73.19-49.97-104.42-56.63c-56.24-13.51-123.06,32.57-175.71,49.44c25.13-13.48,49.17-29.69,76.4-38.29
			c45.12-61.16,120.55-23.56,179.87-14.57c2.68,14.51,5.36,29.02,8.04,43.53C455.92,212.35,509.26,251.94,490.26,294.36z"/>
		<g>
			<path class="st7" d="M424.43,173.44c-1.86-12.67-4.9-25.44-10.61-36.81c2.37,9.79,3.66,19.82,5.72,29.68
				c1.2,5.61,2.47,11.2,3.87,16.76c0.94,3.88,2.21,7.69,2.77,11.66C426.45,187.6,425.23,180.5,424.43,173.44z"/>
			<path class="st7" d="M396.54,160.05c0.78,5.42,2.03,10.8,2.44,16.28c1-9.81-0.09-24-5.8-32.08
				C395.06,149.23,395.7,154.65,396.54,160.05z"/>
			<path class="st7" d="M373.76,160.17c1.59-7.12,0.03-14.91-3.51-21.13C371.88,146.14,373.77,153.15,373.76,160.17z"/>
			<path class="st7" d="M343.38,132.85c0.22,0.47,0.44,0.94,0.65,1.41c1.07,2.23,2.31,6.19,2.56,7.3c0.53,2.25,1.47,5.43,1.4,8.08
				c0.92-5.38-0.26-11.48-3.65-15.7C344.04,133.56,343.72,133.2,343.38,132.85z"/>
			<path class="st7" d="M311.53,129.11c3.32,4.55,6.09,9.53,8.77,14.52c0.25,0.53,0.66,1.28,0.86,1.97
				C320.22,139.1,317.01,132.54,311.53,129.11z"/>
			<path class="st7" d="M287.1,131.85c4.11,4.34,7.29,9.55,11.02,14.25C296.04,140.34,292.8,134.21,287.1,131.85z"/>
			<path class="st7" d="M265.99,138.42c4.42,3.11,7.45,7.1,11.19,11.12C275,144.51,271.53,139.26,265.99,138.42z"/>
			<path class="st7" d="M258.66,155.42c-2.45-2.84-5.25-5.6-8.87-6.55C252.6,151.28,255.32,153.87,258.66,155.42z"/>
		</g>
		<g class="st8">
			<path class="st5" d="M458.18,313.24c-3.27-0.86-6.5-1.91-9.71-3.08c-0.47-0.17-0.72-0.71-0.56-1.2c0.16-0.49,0.67-0.76,1.14-0.59
				c0.05,0.02,0.1,0.04,0.14,0.07C452.12,310.15,455.13,311.73,458.18,313.24z"/>
			<path class="st5" d="M432.1,299.97c-3.03-1.68-6.01-3.47-8.92-5.39l-0.01,0c-1.37-0.9-1.79-2.81-0.94-4.26
				c0.85-1.45,2.66-1.9,4.03-0.99c0.11,0.07,0.23,0.17,0.33,0.25c2.53,2.23,5.14,4.37,7.83,6.4l0,0c1,0.76,1.23,2.22,0.52,3.28
				C434.29,300.22,433.07,300.51,432.1,299.97z"/>
			<path class="st5" d="M409.29,282.5c-2.5-2.48-4.91-5.06-7.23-7.74c-1.1-1.26-1.02-3.23,0.18-4.39c1.19-1.16,3.05-1.08,4.15,0.19
				c2.22,2.56,4.53,5.03,6.92,7.41c1.18,1.17,1.24,3.14,0.13,4.39C412.33,283.61,410.47,283.67,409.29,282.5z"/>
			<path class="st5" d="M390.8,259.92l-2.84-4.54l-1.38-2.24l-1.33-2.19l-0.04-0.06c-0.88-1.44-0.48-3.36,0.88-4.29
				c1.36-0.93,3.18-0.51,4.06,0.93l1.39,2.28l1.37,2.22l2.71,4.34l0.08,0.13c0.89,1.43,0.52,3.36-0.83,4.3
				S391.69,261.35,390.8,259.92z"/>
			<path class="st5" d="M355.58,216.2l-7.82-6.37l-0.15-0.12c-1.28-1.05-1.52-2.99-0.54-4.35c0.99-1.36,2.83-1.61,4.11-0.57
				l8.13,6.62c1.28,1.05,1.52,2.99,0.54,4.35s-2.83,1.61-4.11,0.57L355.58,216.2z"/>
			<path class="st5" d="M333.18,200.01l-8.77-4.79l-0.17-0.09c-1.44-0.79-2-2.66-1.26-4.18s2.51-2.12,3.95-1.33l9.11,4.98
				c1.44,0.79,2,2.66,1.26,4.18c-0.74,1.52-2.51,2.12-3.95,1.33v0L333.18,200.01z"/>
			<path class="st5" d="M308.42,188.36l-4.7-1.58l-4.75-1.42l-0.1-0.03c-1.56-0.47-2.47-2.18-2.03-3.83
				c0.44-1.65,2.06-2.61,3.62-2.15l4.94,1.47l4.89,1.65c1.54,0.52,2.4,2.27,1.91,3.9c-0.49,1.63-2.14,2.54-3.69,2.02L308.42,188.36z
				"/>
			<path class="st5" d="M254.99,180.36l-9.85,0.76l-0.19,0.01c-1.62,0.12-3.02-1.16-3.14-2.87c-0.12-1.71,1.1-3.2,2.71-3.32
				l10.23-0.79c1.62-0.12,3.02,1.16,3.14,2.87c0.12,1.71-1.1,3.2-2.71,3.32L254.99,180.36z"/>
			<path class="st5" d="M227.99,183.58l-9.78,1.9l-0.12,0.02c-0.95,0.18-1.86-0.48-2.03-1.48c-0.16-0.92,0.35-1.8,1.17-2.09
				l9.7-3.42c1.29-0.45,2.68,0.28,3.11,1.65c0.43,1.37-0.27,2.84-1.56,3.29c-0.11,0.04-0.21,0.07-0.32,0.09L227.99,183.58z"/>
			<path class="st5" d="M201.28,190.32l-3.7,1.35l3.44-2c0.16-0.1,0.37-0.03,0.46,0.14c0.09,0.17,0.03,0.39-0.13,0.49
				c-0.02,0.01-0.03,0.02-0.05,0.02L201.28,190.32z"/>
		</g>
		<g class="st8">
			<g>
				<path class="st5" d="M476.08,287.46c-1.24,1.6-2.92,2.91-4.84,3.82c-1.92,0.92-4.07,1.4-6.26,1.49l-0.03,0
					c-0.82,0.03-1.52-0.6-1.55-1.43c-0.03-0.82,0.6-1.52,1.43-1.55c0.11,0,0.23,0,0.34,0.02c1.81,0.34,3.7,0.35,5.58-0.01
					C472.62,289.45,474.45,288.65,476.08,287.46z"/>
				<path class="st5" d="M452.37,288.59c-1.83-1.49-3.42-3.4-4.55-5.61c-0.59-1.23-0.94-1.96-1.31-2.91
					c-0.35-0.92-0.61-1.86-0.92-2.8l-0.03-0.1c-0.61-1.85,0.38-3.84,2.23-4.46c1.8-0.6,3.74,0.34,4.41,2.1
					c0.36,0.95,0.77,1.89,1.09,2.86c0.32,0.92,0.59,2.09,0.74,2.73c0.4,1.49,1.14,2.93,2.18,4.22l0.06,0.08
					c0.96,1.19,0.78,2.93-0.41,3.9C454.82,289.43,453.36,289.4,452.37,288.59z"/>
				<path class="st5" d="M441.15,266.37l-5.17-10.58l-0.1-0.21c-0.85-1.74-0.13-3.83,1.61-4.68c1.74-0.85,3.83-0.13,4.68,1.61
					l5.37,10.99c0.85,1.74,0.13,3.83-1.61,4.68c-1.74,0.85-3.83,0.13-4.68-1.61L441.15,266.37z"/>
				<path class="st5" d="M430.13,245.58l-6.5-9.81l-0.13-0.19c-1.07-1.61-0.63-3.78,0.98-4.85s3.78-0.63,4.85,0.98l6.76,10.19
					c1.07,1.61,0.63,3.78-0.98,4.85c-1.61,1.07-3.78,0.63-4.85-0.98L430.13,245.58z"/>
				<path class="st5" d="M416.49,226.41l-7.74-8.86l-0.16-0.18c-1.27-1.45-1.12-3.66,0.33-4.94c1.45-1.27,3.66-1.12,4.94,0.33
					l8.05,9.21c1.27,1.45,1.12,3.66-0.33,4.94s-3.66,1.12-4.94-0.33l0,0L416.49,226.41z"/>
				<path class="st5" d="M400.43,209.24l-8.87-7.71l-0.19-0.16c-1.46-1.27-1.61-3.48-0.35-4.93c1.27-1.46,3.48-1.61,4.93-0.35
					l9.24,8.03c1.46,1.27,1.61,3.48,0.35,4.93s-3.48,1.61-4.93,0.35L400.43,209.24z"/>
				<path class="st5" d="M382.17,194.47c-0.81-0.55-1.64-1.06-2.46-1.6l-2.47-1.58l-4.94-3.17l-0.21-0.13
					c-1.63-1.04-2.1-3.21-1.05-4.83c1.04-1.63,3.21-2.1,4.83-1.06l5.16,3.31l2.58,1.65c0.86,0.56,1.73,1.09,2.57,1.67
					c1.6,1.09,2.01,3.27,0.91,4.86c-1.09,1.6-3.27,2.01-4.86,0.91L382.17,194.47z"/>
				<path class="st5" d="M361.97,182.5c-3.5-1.75-7.07-3.37-10.69-4.85c-1.79-0.73-2.64-2.78-1.91-4.57
					c0.73-1.79,2.78-2.64,4.57-1.91c3.78,1.55,7.5,3.24,11.16,5.06c1.73,0.86,2.43,2.96,1.57,4.69
					C365.81,182.66,363.7,183.37,361.97,182.5z"/>
				<path class="st5" d="M340.26,173.58c-3.72-1.22-7.48-2.31-11.28-3.26c-1.88-0.47-3.02-2.37-2.55-4.24
					c0.47-1.88,2.37-3.02,4.24-2.55c3.96,0.99,7.89,2.12,11.77,3.4c1.84,0.6,2.84,2.58,2.23,4.42
					C344.08,173.19,342.1,174.18,340.26,173.58z"/>
				<path class="st5" d="M317.49,167.89c-0.96-0.17-1.93-0.33-2.9-0.45c-0.97-0.11-1.95-0.2-2.91-0.39
					c-0.96-0.19-1.92-0.44-2.88-0.65l-2.89-0.61l-0.07-0.01c-1.61-0.34-2.64-1.93-2.3-3.54c0.3-1.41,1.55-2.38,2.94-2.36l3.07,0.03
					c1.02,0.03,2.05,0.03,3.07,0.1c1.02,0.08,2.03,0.28,3.03,0.47l3.02,0.52l0.01,0c1.9,0.33,3.18,2.14,2.85,4.04
					s-2.14,3.18-4.04,2.85L317.49,167.89z"/>
				<path class="st5" d="M294.18,163.84c-3.95-0.52-7.93-0.92-11.94-1.21c-0.18-0.01-0.32-0.17-0.31-0.36
					c0.01-0.16,0.13-0.28,0.27-0.31c3.98-0.72,8-1.24,12.05-1.58c0.96-0.08,1.8,0.62,1.88,1.58s-0.62,1.8-1.58,1.88
					C294.44,163.86,294.3,163.86,294.18,163.84z"/>
			</g>
		</g>
		<path class="st9" d="M458.38,255c-13.95-20.57-30.81-38.93-49.84-54.27"/>
		<g class="st8">
			<path class="st5" d="M478.32,256.88c-1.26-1.21-2.48-2.45-3.72-3.68c-1.23-1.23-2.43-2.48-3.64-3.71l-0.04-0.04
				c-0.58-0.59-0.6-1.56-0.04-2.18c0.56-0.61,1.48-0.63,2.06-0.04c0.09,0.1,0.18,0.21,0.24,0.32c0.87,1.55,1.75,3.09,2.61,4.64
				C476.64,253.77,477.5,255.31,478.32,256.88z"/>
			<path class="st5" d="M463.55,242.29l-1.9-1.74c-0.62-0.59-1.17-1.25-1.7-1.93c-1.07-1.35-2.22-2.61-3.33-3.92l-0.07-0.08
				c-1.08-1.27-0.99-3.24,0.22-4.39c1.19-1.14,3.03-1.05,4.11,0.19c1.15,1.31,2.26,2.67,3.46,3.94c0.61,0.63,1.19,1.28,1.7,2
				l1.5,2.19c0.87,1.27,0.6,3.04-0.6,3.96c-1.03,0.79-2.4,0.69-3.32-0.15L463.55,242.29z"/>
			<path class="st5" d="M449.65,227.19l-7.22-7.26l-0.07-0.07c-1.18-1.18-1.22-3.15-0.11-4.39c1.12-1.24,2.97-1.29,4.15-0.11
				l7.37,7.41c1.18,1.18,1.22,3.15,0.11,4.39s-2.97,1.29-4.15,0.11L449.65,227.19z"/>
			<path class="st5" d="M434.97,212.94l-7.68-6.71l-0.08-0.07c-1.25-1.09-1.43-3.05-0.4-4.37c1.03-1.33,11.97,6.43,11.97,6.43
				c1.25,1.09,1.43,3.05,0.4,4.37c-1.03,1.32-2.88,1.51-4.13,0.42L434.97,212.94z"/>
		</g>
	</g>
</g>
<g id="Layer_12">
	<g>
		<path class="st2" d="M390.05,199.05c-3.95-3.84-8.03-7.87-12.19-11.95c-1.65,0.77-3.31,1.54-4.96,2.31
			c-5.76,2.69-11.5,5.42-17.21,8.21c5.81,5.8,11.9,12.14,19.03,19.69c16.74,17.72,30.56,26.89,47.72,28.49
			c17.16,1.6,38.29-11.21,38.29-11.21C425.93,244.52,415.05,223.33,390.05,199.05z"/>
		<path class="st2" d="M335.98,179.09c0.08-0.05,0.15-0.1,0.23-0.14c7.19-4.38,15.02-7.53,23.08-9.56
			c-16.9-15.43-34.5-28.99-51.11-33.37c-27.11-7.15-79.89,3.15-79.89,3.15s29.86,0.31,53.99,7.77
			c24.13,7.46,34.44,15.51,49.56,28.54C333.26,176.7,334.63,177.9,335.98,179.09z"/>
		<path class="st0" d="M446.08,247.68c-1.13,5.53-4.64,20.68-8.28,18.3c-4.44-2.91-27.81-14.87-48-29.9
			c-1.32-0.99-2.55-1.94-3.68-2.88c-9.5-5.97-17.82-14.25-24.89-23.32c-2.88-3.68-5.89-7.23-9.05-10.64
			c-2.87,0.87-6.18,1.47-10,1.67c-21.96,1.14-34.89,4.44-34.89,4.44s7.18-10.43,22.67-20.77c1.27-0.84,2.57-1.64,3.92-2.39
			c-25.78-20.69-57.23-33.52-89.51-35.88c-23.18-1.7-52.42,10.75-80.26,25.98c-5.12,2.8-13.13,8.14-18.1,11.06
			c-0.29,0.31-9.46,16.27-22.1,28.32c-13.29,12.66-29.99,21.59-30.51,21.87l7.97-7.37c12.73-11.78,23.5-25.74,31.86-41.29
			c-8.24,1.2-16.3,3.37-24.03,6.47c-7.73,3.1-15.13,7.12-22.05,12l-7.93,5.59l11.45-10.12c10.83-9.56,23.28-16.84,36.69-21.42
			l10.91-3.74c0,0,28.66-19.18,62.25-37.02c-0.61-1.85,50.21-45.35,70.56-46.81c30.42-2.17,110.64,14.26,110.64,14.26
			s7.98,19.28,13.61,33.85c15.24,8.97,28.59,20.96,42.49,32.11C487.2,209.67,467.38,247.68,446.08,247.68z"/>
		<g>
			<ellipse class="st6" cx="447.04" cy="215.91" rx="9.43" ry="10.21"/>
			<ellipse class="st4" cx="447.04" cy="215.91" rx="9.43" ry="10.21"/>
			<ellipse class="st5" cx="448.1" cy="216.55" rx="2.41" ry="2.44"/>
		</g>
		<path class="st6" d="M360.41,194.85c-5.59,1.86-11.49,1.72-17.27,1.95c-4.2,0.21-8.39-0.38-12.59-0.4
			c-5.04,0.03-10.06,0.88-14.92,2.29c5.41-4.93,10.8-10.44,13.02-12.47c6.48-5.53,16.21-11.33,26.44-16.02
			c-16.18,3.47-25.78,11.91-33.4,19.15c-1.77,1.55-3.55,3.09-5.4,4.55c-3.65,2.75-7.43,5.36-10.59,8.75
			c-1.25,1.37-7.18,7.62-5.58,9.18c0.91,0.29,1.82-0.15,2.69-0.4c2.44-0.79,4.91-1.5,7.4-2.12c5.5-1.4,11.11-2.15,16.76-2.43
			c4.69-0.26,9.31-1.15,13.9-2.13c5.92-1.17,11.75-2.96,17.13-5.85c5.36-2.98,10.46-6.47,15.59-9.86
			C369.13,191.08,364.33,193.58,360.41,194.85z"/>
		<path class="st6" d="M448.77,245.58c-2.4,0.54-3.42,3.08-4.43,5.17c-1.81,3.71-3.8,9.77-4.84,11.76c-0.11,0.16-0.3,0.34-0.38,0.42
			c-0.04,0.02-0.07,0.04-0.1,0.06c-0.05,0.02-0.11,0.04-0.16,0.05c-0.06,0-0.12,0-0.17,0c-2.63-0.73-6.84-2.86-10.99-5.04
			c-14.44-7.71-28.91-15.53-42.22-25.31c-2.66-2.09-4.84-3.83-8.22-7.23c-4.05-4.27-7.73-8.91-11.72-13.24
			c-4.17-4.4-8.11-9.41-13.37-12.38c4.26,3.58,6.81,8.13,10.04,12.63c6.53,9.59,12.7,19.77,22.03,26.62
			c12.21,9.11,25.48,16.65,39.29,22.67c4.63,1.96,9.3,4.03,14.23,4.97c2.88,0.54,4.65-1.91,5.22-4.62c1.07-4.35,1.9-8.79,3.35-13.03
			c0.44-1.62,1.49-2.92,3.05-3.5c0.26-0.1,0.49-0.21,0.65-0.28C449.59,245.37,449.17,245.46,448.77,245.58z"/>
		<path class="st10" d="M319.12,170.43c-4.48-2.79-9.2-5.12-13.81-7.64c-8.76-4.77-17.58-9.5-26.83-13.13
			c-12.41-4.74-25.72-7.38-38.94-7.11c-6.3,0.18-12.53,1.25-18.72,2.46c-5.83,1.16-11.71,2.21-17.4,4.04
			c-6.75,2.21-13.17,5.39-19.52,8.64c-5.91,3.04-11.92,5.85-17.81,8.92c-8.98,4.79-17.99,10.24-24.45,18.59
			c-4.13,5.16-7.56,10.88-11.71,16.02c-8.03,9.66-17.26,15.79-27.44,23.85c-4.09,3.34-8.02,6.89-11.94,10.45
			c6.44-4.09,12.92-8.11,19.62-11.7c7.05-3.91,13.91-8.37,19.81-14.07c4.72-4.55,8.34-10.17,12.46-15.29
			c4.88-6.22,8.16-9.19,14.5-13.32c7.8-5.1,16.24-8.95,24.51-13.1c7.62-3.83,15.18-7.88,23.27-10.49
			c8.89-2.46,22.89-5.48,34.11-6.09c10.94-0.46,21.85,1.59,32.4,4.52c6.49,1.65,24.3,8.71,34.56,12.78
			c4.77,1.86,9.66,3.35,14.33,5.49c4.48,1.96,8.64,4.57,12.83,7.1C328.56,177.4,324.1,173.54,319.12,170.43z"/>
		<path class="st5" d="M113.91,186.91c-12.52,4-23.74,11.91-32.75,21.87c-1.87,2.03-3.67,4.12-5.44,6.24
			c2.38-1.76,4.76-3.52,7.17-5.24c8.94-6.5,18.77-11.46,28.47-16.53c7.75-3.79,15.41-7.61,23.89-8.25
			C128.16,183.28,120.76,184.69,113.91,186.91z"/>
		<path class="st6" d="M470.26,234.71c-6.74,16.15-28.99,14.38-42.99,15.5c14.21-4.33,34.57-4.18,38.68-20.22
			c2.9-11.84,0.84-22.23-6.13-33.01c-10.73-15.72-37.28-38.04-42.99-41.3c-0.5-0.28-0.99-0.58-1.47-0.88
			c-8.27-5.18-77.1-42.87-108.77-46.55c-57.16-8.14-119.83,44.05-170.85,65.82c23.89-15.79,46.47-34.21,72.87-45.35
			c39.79-65.18,118.09-34.85,177.93-31.49c3.89,14.2,7.78,28.4,11.67,42.6C429.14,156.26,485.61,190.66,470.26,234.71z"/>
		<g>
			<path class="st7" d="M394.5,120.48c-2.92-12.45-7.03-24.87-13.67-35.67c3.18,9.53,5.32,19.39,8.19,29.02
				c1.67,5.47,3.4,10.93,5.27,16.33c1.26,3.77,2.85,7.45,3.74,11.35C397.7,134.39,395.89,127.43,394.5,120.48z"/>
			<path class="st7" d="M365.6,109.78c1.23,5.33,2.93,10.57,3.8,15.98c0.17-9.86-2.12-23.9-8.48-31.41
				C363.21,99.14,364.31,104.48,365.6,109.78z"/>
			<path class="st7" d="M342.91,112.04c0.99-7.24-1.23-14.85-5.28-20.71C339.87,98.25,342.34,105.05,342.91,112.04z"/>
			<path class="st7" d="M310.36,87.7c0.26,0.45,0.51,0.89,0.76,1.34c1.25,2.12,2.82,5.95,3.16,7.03c0.71,2.19,1.92,5.27,2.08,7.91
				c0.46-5.45-1.22-11.41-4.95-15.29C311.08,88.35,310.72,88.02,310.36,87.7z"/>
			<path class="st7" d="M278.32,86.98c3.69,4.22,6.87,8.91,9.95,13.64c0.3,0.5,0.77,1.21,1.02,1.88
				C287.82,96.11,284.06,89.88,278.32,86.98z"/>
			<path class="st7" d="M254.22,92.02c4.46,3.93,8.07,8.82,12.17,13.15C263.83,99.63,260.09,93.83,254.22,92.02z"/>
			<path class="st7" d="M233.74,100.55c4.66,2.68,8.02,6.37,12.08,10.02C243.24,105.77,239.34,100.87,233.74,100.55z"/>
			<path class="st7" d="M227.88,118.18c-2.68-2.6-5.7-5.08-9.39-5.68C221.49,114.62,224.42,116.95,227.88,118.18z"/>
		</g>
		<g class="st8">
			<path class="st5" d="M440.51,255.88c-3.33-0.55-6.64-1.29-9.93-2.15c-0.48-0.12-0.77-0.64-0.66-1.14
				c0.12-0.51,0.6-0.82,1.08-0.69c0.05,0.01,0.1,0.03,0.15,0.05C434.22,253.38,437.34,254.67,440.51,255.88z"/>
			<path class="st5" d="M412.8,245.79c-3.16-1.38-6.28-2.89-9.34-4.53l-0.01,0c-1.44-0.77-2.02-2.63-1.3-4.16
				c0.73-1.53,2.49-2.14,3.93-1.37c0.12,0.06,0.24,0.14,0.35,0.22c2.71,1.98,5.49,3.86,8.34,5.64l0,0c1.06,0.66,1.41,2.1,0.79,3.22
				C415,245.83,413.81,246.23,412.8,245.79z"/>
			<path class="st5" d="M388.61,230.53c-2.7-2.24-5.32-4.58-7.85-7.02c-1.2-1.16-1.28-3.12-0.19-4.39c1.09-1.27,2.95-1.36,4.15-0.2
				c2.43,2.34,4.93,4.58,7.52,6.72c1.28,1.06,1.5,3.01,0.5,4.36C391.73,231.35,389.88,231.59,388.61,230.53z"/>
			<path class="st5" d="M368.29,209.79l-3.21-4.25l-1.57-2.1l-1.51-2.06l-0.04-0.06c-1-1.35-0.77-3.31,0.51-4.36
				c1.28-1.05,3.12-0.81,4.12,0.54l1.58,2.14l1.55,2.08l3.07,4.07l0.09,0.12c1.01,1.34,0.8,3.29-0.46,4.36
				S369.3,211.13,368.29,209.79z"/>
			<path class="st5" d="M329.53,169.57l-8.33-5.61l-0.16-0.11c-1.37-0.92-1.77-2.84-0.9-4.29c0.87-1.45,2.68-1.87,4.05-0.95
				l8.65,5.83c1.37,0.92,1.77,2.84,0.9,4.29c-0.87,1.45-2.68,1.87-4.05,0.95L329.53,169.57z"/>
			<path class="st5" d="M305.86,155.56l-9.14-3.94l-0.18-0.08c-1.5-0.65-2.22-2.46-1.61-4.05c0.61-1.59,2.32-2.35,3.82-1.7l9.5,4.1
				c1.5,0.65,2.22,2.46,1.61,4.05c-0.61,1.59-2.32,2.35-3.82,1.7v0L305.86,155.56z"/>
			<path class="st5" d="M280.22,146.29l-4.81-1.13l-4.85-0.96l-0.1-0.02c-1.59-0.32-2.64-1.94-2.34-3.63
				c0.3-1.69,1.83-2.8,3.43-2.48l5.04,1l5.01,1.18c1.58,0.37,2.58,2.03,2.23,3.71s-1.92,2.73-3.5,2.36L280.22,146.29z"/>
			<path class="st5" d="M226.32,143.37l-9.74,1.69l-0.19,0.03c-1.6,0.28-3.11-0.87-3.37-2.56c-0.26-1.69,0.82-3.29,2.42-3.57
				l10.12-1.75c1.6-0.28,3.11,0.87,3.37,2.56c0.26,1.69-0.82,3.29-2.42,3.57L226.32,143.37z"/>
			<path class="st5" d="M199.7,149.12l-9.58,2.82l-0.11,0.03c-0.93,0.27-1.89-0.3-2.15-1.29c-0.24-0.9,0.2-1.83,0.99-2.19l9.37-4.32
				c1.25-0.57,2.7,0.03,3.24,1.35c0.54,1.32-0.03,2.85-1.27,3.43c-0.1,0.05-0.21,0.09-0.31,0.12L199.7,149.12z"/>
			<path class="st5" d="M173.67,158.35l-3.57,1.69l3.26-2.32c0.15-0.11,0.37-0.07,0.47,0.1s0.06,0.39-0.09,0.5
				C173.71,158.33,173.69,158.34,173.67,158.35L173.67,158.35z"/>
		</g>
		<g class="st8">
			<g>
				<path class="st5" d="M455.56,229.17c-1.09,1.7-2.65,3.16-4.47,4.25c-1.82,1.1-3.92,1.79-6.08,2.09l-0.03,0
					c-0.82,0.11-1.57-0.46-1.69-1.27c-0.11-0.82,0.46-1.57,1.27-1.69c0.11-0.02,0.23-0.02,0.34-0.01c1.83,0.17,3.72-0.01,5.55-0.54
					C452.29,231.47,454.04,230.51,455.56,229.17z"/>
				<path class="st5" d="M432.04,232.53c-1.96-1.32-3.72-3.09-5.04-5.21c-0.16-0.26-0.32-0.53-0.47-0.81l-0.39-0.68
					c-0.24-0.43-0.47-0.86-0.68-1.31c-0.42-0.88-0.76-1.81-1.15-2.71l-0.04-0.09c-0.78-1.78,0.04-3.86,1.82-4.64
					c1.75-0.76,3.78,0.01,4.59,1.72c0.44,0.92,0.93,1.82,1.34,2.75c0.2,0.47,0.39,0.94,0.57,1.42c0.08,0.22,0.19,0.52,0.24,0.69
					l0.18,0.55c0.52,1.44,1.38,2.81,2.53,4l0.07,0.07c1.07,1.1,1.04,2.86-0.06,3.93C434.56,233.15,433.1,233.25,432.04,232.53z"/>
				<path class="st5" d="M418.94,211.35l-6.07-10.08l-0.12-0.2c-1-1.66-0.46-3.8,1.19-4.8c1.66-1,3.8-0.46,4.8,1.19l6.31,10.48
					c1,1.66,0.46,3.8-1.19,4.8c-1.66,1-3.8,0.46-4.8-1.19L418.94,211.35z"/>
				<path class="st5" d="M406.15,191.61l-7.35-9.19l-0.15-0.18c-1.21-1.51-0.96-3.71,0.55-4.92c1.51-1.21,3.71-0.96,4.92,0.55
					l7.64,9.55c1.21,1.51,0.96,3.71-0.55,4.92c-1.51,1.21-3.71,0.96-4.92-0.55L406.15,191.61z"/>
				<path class="st5" d="M390.85,173.75l-8.51-8.12l-0.17-0.17c-1.4-1.33-1.45-3.55-0.12-4.95c1.33-1.4,3.55-1.45,4.95-0.12
					l8.86,8.45c1.4,1.33,1.45,3.55,0.12,4.95s-3.55,1.45-4.95,0.12L390.85,173.75z"/>
				<path class="st5" d="M373.29,158.13c-3.1-2.39-6.29-4.68-9.55-6.85c-1.61-1.07-2.05-3.24-0.98-4.85
					c1.07-1.61,3.24-2.05,4.85-0.98c3.4,2.26,6.72,4.64,9.95,7.14c1.53,1.18,1.81,3.38,0.63,4.91S374.82,159.31,373.29,158.13z"/>
				<path class="st5" d="M353.73,145.14c-3.41-1.92-6.89-3.72-10.43-5.38c-1.75-0.82-2.5-2.91-1.68-4.66
					c0.82-1.75,2.91-2.5,4.66-1.68c3.7,1.74,7.33,3.61,10.89,5.62c1.68,0.95,2.28,3.08,1.33,4.77
					C357.55,145.5,355.41,146.09,353.73,145.14z"/>
				<path class="st5" d="M332.49,135.17c-3.66-1.4-7.36-2.66-11.11-3.79c-1.85-0.56-2.9-2.51-2.34-4.36
					c0.56-1.85,2.51-2.9,4.36-2.34c3.91,1.18,7.78,2.5,11.6,3.96c1.81,0.69,2.71,2.71,2.02,4.52
					C336.32,134.96,334.3,135.86,332.49,135.17z"/>
				<path class="st5" d="M310.02,128.41c-3.82-0.85-7.67-1.56-11.55-2.13c-1.91-0.28-3.23-2.06-2.95-3.97
					c0.28-1.91,2.06-3.23,3.97-2.95c4.04,0.59,8.06,1.34,12.05,2.23c1.89,0.42,3.08,2.29,2.65,4.18
					C313.77,127.64,311.9,128.83,310.02,128.41z"/>
				<path class="st5" d="M286.8,124.99c-0.98-0.07-1.95-0.12-2.93-0.13c-0.98-0.01-1.96-0.05-2.93-0.18c-1.95-0.27-3.9-0.5-5.87-0.7
					l-0.01,0c-1.6-0.16-2.77-1.59-2.61-3.19c0.14-1.4,1.26-2.48,2.61-2.61c2.04-0.2,4.08-0.37,6.13-0.5
					c1.02-0.06,2.05-0.01,3.06,0.09c1.02,0.1,2.04,0.17,3.06,0.24c1.93,0.13,3.38,1.8,3.25,3.73s-1.8,3.38-3.73,3.25L286.8,124.99z"
					/>
				<path class="st5" d="M263.2,123.19c-3.98-0.13-7.98-0.14-12.01-0.03c-0.13,0-0.24-0.1-0.24-0.23c0-0.11,0.07-0.21,0.17-0.23
					c3.88-1.11,7.83-2.04,11.83-2.79c0.9-0.17,1.76,0.42,1.93,1.32c0.17,0.9-0.42,1.76-1.32,1.93
					C263.44,123.18,263.31,123.19,263.2,123.19z"/>
			</g>
		</g>
		<path class="st9" d="M435.19,198.51c-15.62-19.18-33.96-35.87-54.22-49.35"/>
		<g class="st8">
			<path class="st5" d="M455.21,198.51c-1.36-1.09-2.68-2.21-4.01-3.31c-1.33-1.11-2.63-2.24-3.94-3.35l-0.04-0.03
				c-0.63-0.53-0.73-1.5-0.22-2.16c0.5-0.66,1.42-0.77,2.05-0.24c0.1,0.09,0.2,0.19,0.27,0.3c1,1.46,2.01,2.91,2.99,4.38
				C453.27,195.56,454.26,197.02,455.21,198.51z"/>
			<path class="st5" d="M439.27,185.37l-2.04-1.55c-0.67-0.53-1.27-1.13-1.85-1.76c-1.18-1.24-2.43-2.39-3.65-3.59l-0.08-0.08
				c-1.19-1.17-1.26-3.13-0.16-4.39c1.09-1.25,2.93-1.33,4.11-0.2c1.26,1.2,2.48,2.44,3.78,3.6c0.66,0.57,1.29,1.16,1.86,1.83
				l1.68,2.04c0.97,1.18,0.85,2.97-0.26,4c-0.96,0.88-2.34,0.92-3.32,0.16L439.27,185.37z"/>
			<path class="st5" d="M424.15,171.63l-7.8-6.55l-0.08-0.07c-1.27-1.07-1.48-3.02-0.48-4.36c1.01-1.34,2.85-1.57,4.12-0.51
				l7.97,6.68c1.27,1.07,1.48,3.02,0.48,4.36c-1.01,1.34-2.85,1.57-4.12,0.51L424.15,171.63z"/>
			<path class="st5" d="M408.33,158.83l-8.22-5.96l-0.08-0.06c-1.34-0.97-1.68-2.9-0.76-4.32c0.92-1.42,12.47,5.27,12.47,5.27
				c1.34,0.97,1.68,2.9,0.76,4.32c-0.92,1.42-2.74,1.78-4.08,0.81L408.33,158.83z"/>
		</g>
	</g>
</g>
<g id="Layer_17">
	<g>
		<path class="st11" d="M428.66,248.73c9.03,1.61,18.61,0.36,26.72-3.89c4.03-2.13,7.69-5.01,10.53-8.56
			c2.84-3.55,4.92-7.7,6.07-12.08c1.16-4.37,1.4-9.02,0.48-13.43c-0.86-4.44-3.02-8.51-5.8-12.09c-2.78-3.59-6.05-6.81-9.38-9.99
			c-3.29-3.21-6.68-6.3-10.09-9.38c-13.75-12.2-28.58-23.1-44-33.05c-15.43-9.95-31.7-18.58-48.45-26.23l0.08-0.18
			c17.21,6.6,33.73,15.03,49.44,24.73c15.66,9.8,30.34,21.14,44,33.55c3.39,3.13,6.77,6.27,10.04,9.53
			c3.29,3.22,6.58,6.51,9.4,10.24c2.81,3.7,5.05,8.01,5.89,12.65c0.91,4.62,0.6,9.42-0.64,13.92c-1.24,4.5-3.45,8.73-6.41,12.33
			c-2.97,3.6-6.75,6.48-10.88,8.58c-8.3,4.19-17.98,5.3-27.03,3.55L428.66,248.73z"/>
	</g>
	<g>
		<path class="st11" d="M445.06,248.94c-0.77,1.06-1.21,2.34-1.42,3.63c-0.22,1.3-0.25,2.63-0.3,3.96c-0.04,2.63-0.44,5.5-2.24,7.68
			c-0.88,1.09-2.29,1.8-3.73,1.8c-1.45,0-2.76-0.59-3.95-1.2l-7.05-3.78c-9.36-5.09-18.67-10.31-27.63-16.14
			c-8.95-5.81-17.64-12.2-25.23-19.8c-3.75-3.83-7.33-7.85-10.52-12.15c-1.56-2.18-3.1-4.37-4.49-6.66
			c-1.4-2.28-2.68-4.63-3.85-7.03l0.18-0.1c1.44,2.24,2.85,4.49,4.44,6.62c1.52,2.17,3.16,4.25,4.83,6.3
			c3.38,4.07,6.98,7.95,10.82,11.58c7.65,7.29,15.93,13.93,24.72,19.89c8.79,5.96,17.97,11.34,27.23,16.6l6.93,3.95
			c1.14,0.62,2.34,1.18,3.58,1.21c1.23,0.02,2.44-0.52,3.27-1.49c0.84-0.95,1.4-2.16,1.75-3.41c0.37-1.25,0.46-2.57,0.54-3.9
			c0.08-1.33,0.15-2.67,0.41-3.99c0.24-1.32,0.73-2.62,1.55-3.7L445.06,248.94z"/>
	</g>
	<g>
		<path class="st11" d="M366.9,191.5c-1.04,1-2.17,1.9-3.37,2.7c-1.21,0.78-2.49,1.46-3.81,2.05c-2.65,1.15-5.46,1.9-8.31,2.38
			c-5.71,0.96-11.52,0.72-17.23,0.54c-5.71-0.17-11.45-0.29-16.96,0.93c-2.75,0.61-5.42,1.51-7.89,2.8
			c-1.22,0.66-2.39,1.41-3.48,2.26c-1.07,0.87-2.06,1.83-2.94,2.87l-1.4-1.14c2.66-3.48,5.33-6.97,8.2-10.33
			c2.89-3.33,5.95-6.56,9.36-9.41c3.4-2.85,7.07-5.43,11.08-7.36c3.98-1.96,8.27-3.33,12.66-3.78l0.03,0.2
			c-4.28,0.92-8.34,2.57-12.1,4.7c-3.75,2.16-7.25,4.72-10.45,7.63c-3.19,2.92-6.17,6.07-9.01,9.36c-2.86,3.28-5.6,6.68-8.35,10.09
			l-1.4-1.14c1-1.12,2.1-2.14,3.28-3.05c1.2-0.89,2.47-1.66,3.78-2.33c2.64-1.32,5.46-2.2,8.32-2.78c5.75-1.15,11.58-0.9,17.3-0.62
			c5.72,0.27,11.44,0.69,17.09-0.11c5.6-0.77,11.24-2.7,15.45-6.62L366.9,191.5z"/>
	</g>
	<g>
		<path class="st11" d="M130.72,51.41c0.97-0.05,1.94-0.05,2.91-0.07c0.97-0.01,1.94,0,2.9,0.03c0.97,0.02,1.95-0.13,2.89,0.13
			c0.94,0.24,1.87,0.56,2.77,1.22l-0.02,0.2c-1.02,0.44-2,0.54-2.97,0.57c-0.97,0.04-1.9-0.33-2.85-0.53
			c-0.95-0.19-1.89-0.4-2.84-0.63c-0.94-0.24-1.89-0.46-2.82-0.72L130.72,51.41z"/>
	</g>
	<g>
		<path class="st11" d="M323.45,171.45c-9.9-4.96-19.81-9.91-30-14.2c-10.19-4.28-20.68-7.92-31.51-10.09
			c-5.4-1.1-10.88-1.86-16.37-2.15c-5.5-0.31-11.02-0.15-16.46,0.55c-10.93,1.34-21.39,5.17-31.29,9.95
			c-9.91,4.83-19.36,10.61-28.84,16.3c-9.41,5.7-18.65,11.92-25.29,20.64c-3.4,4.29-6.44,8.94-9.99,13.28
			c-1.76,2.17-3.69,4.24-5.75,6.14c-1.01,0.98-2.1,1.85-3.17,2.76c-1.12,0.84-2.21,1.72-3.36,2.51c-4.56,3.24-9.45,5.93-14.43,8.38
			c-5,2.41-10.11,4.57-15.2,6.74l-0.08-0.18c5-2.39,10-4.76,14.87-7.37c4.88-2.58,9.64-5.38,14.02-8.69
			c4.4-3.28,8.4-7.05,11.76-11.36c3.4-4.3,6.35-8.99,9.76-13.43c3.4-4.46,7.49-8.44,11.91-11.86c4.43-3.44,9.17-6.39,13.94-9.24
			c9.56-5.59,19.1-11.28,29.17-16.05c10.04-4.73,20.7-8.53,31.83-9.8c5.54-0.67,11.14-0.78,16.69-0.41
			c5.56,0.34,11.08,1.16,16.51,2.31c10.88,2.32,21.38,6.1,31.54,10.51c10.17,4.43,20.02,9.5,29.86,14.58L323.45,171.45z"/>
	</g>
	<g>
		<path class="st11" d="M109.75,215.82c4.12-3.95,7.76-8.38,10.84-13.15c3.07-4.78,5.64-9.87,7.55-15.21l1,0.79
			c-3.82,2.68-8.34,3.8-12.59,5.02c-4.27,1.19-8.38,2.72-12.37,4.58c-3.99,1.83-7.85,3.98-11.52,6.42c-3.7,2.41-7.16,5.19-10.5,8.15
			l-0.14-0.14c2.86-3.45,6.15-6.55,9.72-9.3c1.79-1.37,3.65-2.65,5.59-3.81c1.92-1.2,3.94-2.22,5.97-3.2
			c2.04-0.98,4.17-1.76,6.29-2.52c2.14-0.72,4.33-1.33,6.5-1.86c4.32-1.05,8.67-2.06,12.28-4.45l1.77-1.17l-0.77,1.96
			c-2.1,5.37-4.82,10.49-8.12,15.2c-3.29,4.71-7.12,9.03-11.39,12.84L109.75,215.82z"/>
	</g>
	<g>
		<path class="st11" d="M96.73,193.79c4.22-4.31,9.61-7.26,15.1-9.63c5.51-2.38,11.21-4.27,16.66-6.65
			c10.96-4.72,20.41-12.19,30.41-18.78c9.96-6.67,20.11-13.08,30.64-18.82c10.55-5.69,21.29-11.05,32.37-15.63l0.09,0.18
			c-10.58,5.61-21.14,11.21-31.47,17.2c-10.36,5.94-20.69,11.94-30.74,18.41c-5.03,3.22-9.96,6.61-15.02,9.84
			c-5.06,3.22-10.31,6.23-15.88,8.52c-5.57,2.29-11.29,4.04-16.82,6.29c-5.51,2.23-10.9,5.03-15.19,9.22L96.73,193.79z"/>
	</g>
	<g>
		<path class="st11" d="M245.28,117.52c6.67-3.55,13.73-6.37,21.03-8.43c7.3-2.03,14.82-3.31,22.4-3.82
			c7.57-0.52,15.24-0.38,22.76,0.89l5.6,1.12c1.84,0.49,3.68,0.96,5.51,1.48l5.4,1.82c1.75,0.74,3.51,1.44,5.24,2.21l-0.07,0.19
			c-1.83-0.48-3.63-1.02-5.44-1.53l-5.47-1.34c-1.85-0.34-3.68-0.73-5.51-1.1l-5.54-0.87c-7.4-0.99-14.88-1.57-22.37-1.27
			c-7.48,0.3-14.95,1.37-22.23,3.19c-7.29,1.79-14.42,4.34-21.19,7.65L245.28,117.52z"/>
	</g>
	<g>
		<path class="st11" d="M454.67,221.45c-0.35,1.5-1.37,2.82-2.68,3.67c-1.33,0.86-2.93,1.23-4.51,1.2
			c-3.19-0.07-6.24-1.76-8.21-4.29c-1.01-1.26-1.75-2.75-2.15-4.36c-0.18-0.81-0.25-1.64-0.24-2.47c0.05-0.83,0.18-1.65,0.42-2.43
			c0.96-3.12,3.41-5.79,6.43-6.61l0.09,0.18c-2.42,1.79-3.98,4.29-4.58,6.95c-0.29,1.33-0.38,2.68-0.17,4.01
			c0.2,1.33,0.71,2.65,1.5,3.79c1.56,2.3,4.14,3.99,6.98,4.24c1.41,0.15,2.88-0.05,4.15-0.72c1.26-0.67,2.33-1.8,2.8-3.2
			L454.67,221.45z"/>
	</g>
	<g>
		<path class="st11" d="M449.16,218.71c-0.42,0.17-0.91,0.16-1.39,0.06c-0.48-0.12-0.93-0.36-1.31-0.7c-0.38-0.32-0.88-0.71-0.9-1.3
			c-0.02-0.55,0.19-1.19,0.83-1.48l0.19,0.04c0.46,0.49,0.71,0.68,0.9,0.9c0.2,0.18,0.08,0.52,0.21,0.82
			c0.12,0.28,0.3,0.56,0.53,0.82c0.23,0.27,0.54,0.47,0.93,0.62L449.16,218.71z"/>
	</g>
	<g>
		<path class="st11" d="M470.33,283.6c-2.07,0.73-4.44,0.56-6.53-0.28c-2.08-0.87-3.95-2.44-5.02-4.56
			c-1.06-2.1-1.41-4.66-0.61-6.92c0.76-2.23,2.42-4.21,4.57-4.97l0.11,0.17c-1.45,1.64-2.34,3.45-2.76,5.35
			c-0.38,1.87-0.58,3.87,0.15,5.71c0.71,1.81,2.18,3.36,3.99,4.32c1.79,0.99,3.96,1.4,6.05,0.99L470.33,283.6z"/>
	</g>
	<g>
		<path class="st11" d="M474.1,231.5c4.84,7.62,9.08,15.65,12.65,23.97c1.76,4.17,3.36,8.41,4.78,12.71c0.72,2.15,1.38,4.32,2,6.49
			c0.63,2.17,1.22,4.4,1.51,6.72c0.28,2.3,0.23,4.77-0.58,7.06c-0.77,2.29-2.17,4.37-3.92,5.98c-3.55,3.25-7.98,5-12.31,6.36
			c-8.78,2.38-17.48,4.6-26.33,6.51l-0.05-0.19c2.13-0.76,4.28-1.45,6.42-2.17l6.45-2.06c4.28-1.38,8.68-2.59,12.9-3.99
			c2.11-0.69,4.19-1.47,6.15-2.44c1.97-0.95,3.84-2.07,5.43-3.48c1.6-1.4,2.85-3.15,3.57-5.11c0.76-1.95,0.88-4.13,0.68-6.29
			c-0.22-2.17-0.74-4.34-1.31-6.51c-0.57-2.17-1.18-4.34-1.84-6.48c-1.32-4.3-2.81-8.55-4.47-12.73
			c-3.3-8.37-7.28-16.49-11.89-24.24L474.1,231.5z"/>
	</g>
	<g>
		<path class="st11" d="M461.25,312.99c0.69,1.07,0.9,2.42,0.64,3.67c-0.25,1.25-0.89,2.4-1.72,3.36c-1.65,1.91-4.18,3.18-6.77,3
			c-2.57-0.08-5-1.06-7.18-2.3c-2.19-1.24-4.19-2.76-6.19-4.22l-23.99-17.67c-7.97-5.87-16.23-11.66-22.9-19.27
			c-3.29-3.81-6.22-7.98-8.38-12.53c-1.07-2.28-1.98-4.64-2.64-7.06c-0.63-2.43-1.08-4.91-1.18-7.41l0.2-0.02
			c0.41,2.45,1.01,4.85,1.85,7.16c0.81,2.32,1.83,4.56,3.02,6.7c2.36,4.29,5.28,8.26,8.63,11.83c6.65,7.21,14.5,13.27,22.37,19.33
			l23.63,18.15c1.97,1.52,3.9,3.06,6,4.33c2.09,1.26,4.38,2.24,6.8,2.39c2.41,0.24,4.81-0.89,6.45-2.67
			c0.82-0.89,1.45-1.97,1.72-3.15c0.27-1.17,0.12-2.45-0.52-3.5L461.25,312.99z"/>
	</g>
	<g>
		<path class="st11" d="M385.39,242.03c-0.48,1.32-1.16,2.56-2.01,3.68c-0.87,1.11-1.92,2.07-3.05,2.9
			c-2.29,1.65-4.95,2.72-7.7,3.35c-1.38,0.31-2.78,0.49-4.19,0.58c-1.41,0.06-2.82,0.02-4.22-0.09c-2.8-0.23-5.57-0.75-8.29-1.33
			c-5.45-1.15-10.84-2.61-16.3-2.5c-2.72,0.05-5.43,0.42-7.95,1.31c-1.25,0.46-2.46,1.02-3.57,1.73c-1.1,0.73-2.1,1.58-2.97,2.54
			l-1.47-1.14c2.15-3.34,4.66-6.46,7.48-9.26c2.83-2.79,5.95-5.3,9.31-7.41c3.35-2.13,6.89-3.95,10.61-5.3
			c3.7-1.39,7.55-2.36,11.44-2.86l0.04,0.2c-3.79,0.95-7.48,2.22-11.01,3.8c-3.52,1.61-6.91,3.48-10.08,5.68
			c-3.15,2.21-6.13,4.66-8.85,7.38c-2.73,2.7-5.22,5.65-7.39,8.82l-1.47-1.14c1.02-1.07,2.18-2,3.43-2.77
			c1.26-0.75,2.6-1.34,3.97-1.8c2.76-0.88,5.63-1.22,8.47-1.21c5.73,0.01,11.17,1.63,16.55,2.88c2.7,0.63,5.4,1.2,8.14,1.51
			c1.37,0.14,2.74,0.22,4.11,0.2c1.37-0.05,2.73-0.18,4.08-0.45c2.69-0.53,5.31-1.51,7.59-3.05c1.12-0.78,2.17-1.69,3.05-2.75
			c0.86-1.07,1.56-2.27,2.07-3.55L385.39,242.03z"/>
	</g>
	<g>
		<path class="st11" d="M352.65,223.47c-2.1-1.41-4.22-2.78-6.39-4.06c-2.15-1.31-4.35-2.54-6.57-3.69
			c-2.22-1.17-4.56-2.1-6.75-3.33c-2.2-1.21-4.4-2.42-6.53-3.88l0.07-0.19c2.55,0.44,4.98,1.28,7.33,2.27
			c2.36,0.98,4.5,2.4,6.67,3.74c2.16,1.35,4.27,2.77,6.33,4.25c2.04,1.51,4.04,3.07,5.96,4.74L352.65,223.47z"/>
	</g>
	<g>
		<path class="st11" d="M303.82,193.63c-16.99-3.73-34.14-7.23-51.52-7.76c-8.67-0.28-17.37,0.22-25.89,1.75
			c-8.51,1.53-16.84,4.13-24.54,8.03c-7.7,3.9-14.66,9.11-21.2,14.77c-3.29,2.82-6.48,5.76-9.67,8.72c-3.2,2.94-6.39,5.92-9.63,8.84
			c-6.54,5.78-13.34,11.37-20.87,15.89c-3.76,2.25-7.69,4.25-11.78,5.83c-4.1,1.55-8.35,2.73-12.68,3.3l-0.03-0.2
			c4.26-0.86,8.41-2.19,12.36-3.94c3.97-1.72,7.76-3.82,11.39-6.17c7.26-4.7,13.91-10.29,20.27-16.19c3.21-2.92,6.37-5.91,9.56-8.88
			c3.2-2.96,6.45-5.88,9.8-8.7c6.7-5.62,13.86-10.83,21.77-14.69c7.9-3.89,16.39-6.42,25.03-7.88c8.64-1.46,17.43-1.85,26.15-1.47
			c17.49,0.8,34.6,4.58,51.53,8.56L303.82,193.63z"/>
	</g>
	<g>
		<path class="st11" d="M136.93,235.94c2.93-3.41,5.45-7.16,7.51-11.13c2.07-3.96,3.71-8.14,4.82-12.45l0.67,0.96
			c-2.53-0.14-5.07,0.01-7.55,0.43c-2.49,0.43-4.93,1.06-7.31,1.86c-4.78,1.6-9.28,4.02-13.43,7.14l-0.14-0.15
			c3.37-4,7.92-7.03,12.89-8.9c2.49-0.93,5.09-1.54,7.73-1.83c2.64-0.29,5.3-0.32,7.93-0.07l0.94,0.09l-0.27,0.87
			c-1.33,4.37-3.16,8.57-5.46,12.49c-2.31,3.91-5.06,7.55-8.19,10.8L136.93,235.94z"/>
	</g>
	<g>
		<path class="st11" d="M141.66,201.68c10.1-0.21,20.05-2.35,29.54-5.65c9.51-3.28,18.6-7.67,27.45-12.46
			c8.85-4.8,17.42-10.12,26.26-15.02c8.86-4.84,17.82-9.63,27.28-13.24l0.08,0.18c-8.97,4.64-17.7,9.64-26.37,14.79
			c-8.69,5.11-17.51,10.06-26.5,14.7c-8.99,4.64-18.23,8.88-27.88,11.99c-9.64,3.08-19.73,4.97-29.85,4.91L141.66,201.68z"/>
	</g>
</g>
<g id="Layer_14">
	<path class="st12" d="M319.53,264.83c37.11,8.33,18.3,63.46,7.79,80.39c-21.89,35.23-74.14,83.28-120.15,112.33
		c-32.07,19.13-85.41-5.66-64.88-45.41C169.01,360.39,257.63,254.71,319.53,264.83z"/>
	<path class="st12" d="M178.43,391.2c0.28,1.4,2.98,15.18,4.39,29.04c0.43,4.21,5.9,5.24,7.74,1.47
		c5.84-12.01,2.89-29.34,2.98-44.02c0.09-16.2,6.99-31.59,19.97-39.27c2.86-1.69,6.43,0.63,6.15,4.03
		c-1.23,15.37-6.25,23.91-0.38,48.32c0.65,2.69,3.59,4.09,5.92,2.75c10.47-6.03,16.53-19.86,13.2-31.97
		c-5.96-21.64,1.63-46.19,17.66-61.01c2.99-2.76,7.66,0.2,6.69,4.23c-3.3,13.67-4.48,27.91-3.48,42c0.25,3.53,4.37,5.2,6.87,2.8
		l23.16-22.24c1.39-1.33,1.68-3.48,0.73-5.2c-7.14-13.03-6.67-30.1,0.78-42.79c1.79-3.04,6.25-2.44,7.34,0.96l8.91,27.62
		c0.61,1.88,2.4,3.13,4.3,2.9c12.19-1.48,22.25-14.92,19.59-27.56c-2.89-13.78-20.28-20.8-32.04-15.76
		C227.32,298.13,194.09,341.22,156.44,394c-2.95,4.13-4.28,10.09-4.2,16.29c0.08,5.48,8.04,5.51,8.17,0.03
		c0.28-11.9,3.04-23.67,9.18-32.43c2.19-3.13,6.97-1.85,7.4,2.01c0.56,5.05,1.27,10.21,1.39,11.06
		C178.4,391.04,178.41,391.12,178.43,391.2z"/>
	<g>
		<g>
			<path class="st0" d="M178.68,445.36c-10.36-20.47-7.42-42.62-5.88-66.07c-17.12,22.91-13.2,73.05,19.75,75.91
				C187.81,452.7,181.28,449.86,178.68,445.36z"/>
			<path class="st0" d="M213.54,406.97c-8.58-22.74-2.44-41.28,1.95-66.07c-19.22,19.53-28.07,81.58,16.3,87.25
				C224.58,423.22,216.94,415.19,213.54,406.97z"/>
			<path class="st0" d="M258.32,301.85c-24.39,31.7-28.83,69.49,9.07,87.67c-10.59-19.08-18.94-35.67-18.12-52.38
				C249.97,326.65,254.65,317.36,258.32,301.85z"/>
			<path class="st0" d="M299.9,317.57c-5.28-10.11-4.54-22.73-5.24-34.69c-6.53,12.67-14.12,40.2,20.3,54.07
				C309.38,329.75,304.02,325.71,299.9,317.57z"/>
		</g>
		<g>
			<g>
				<path class="st0" d="M182.19,444.07c-10.36-20.47-10.38-42.64-8.84-66.1c-9.78,22.68-13.74,74.36,19.21,77.21
					C187.81,452.7,184.78,448.57,182.19,444.07z"/>
				<path class="st0" d="M217.05,405.69c-8.58-22.74-5.95-39.99-1.56-64.78c-15.68,26.35-20.69,79.74,17.24,87.45
					C225.52,423.43,220.45,413.9,217.05,405.69z"/>
				<path class="st0" d="M258.32,301.85c-17.06,26.39-20.96,69.15,9.07,87.67c-10.59-19.08-15.43-36.95-14.62-53.67
					C253.47,325.36,254.65,317.36,258.32,301.85z"/>
				<path class="st0" d="M302.79,315.17c-5.28-10.11-7.44-20.32-8.13-32.29c-5.58,20.18,2.53,44.03,20.74,54.33
					C309.82,330.01,306.92,323.31,302.79,315.17z"/>
			</g>
		</g>
	</g>
</g>
<g id="Layer_13">
	<path class="st13" d="M438.23,351c38.68,8.64,19.46,63.93,8.62,80.87c-22.56,35.26-76.63,83.19-124.34,112.06
		c-33.26,19-88.94-6.3-67.83-46.11C282.17,445.99,373.73,340.39,438.23,351z"/>
	<path class="st12" d="M292.17,477.03c0.3,1.41,3.2,15.29,4.76,29.22c0.47,4.24,6.18,5.31,8.06,1.53c6-12.03,2.82-29.48,2.81-44.23
		c-0.01-16.28,7.07-31.71,20.53-39.34c2.97-1.68,6.69,0.67,6.43,4.1c-1.18,15.44-6.35,24-0.08,48.57c0.69,2.7,3.76,4.14,6.18,2.81
		c10.86-5.99,17.08-19.85,13.53-32.04c-6.35-21.8,1.39-46.42,17.98-61.21c3.09-2.76,7.97,0.25,6.99,4.3
		c-3.34,13.72-4.48,28.02-3.35,42.19c0.28,3.55,4.58,5.26,7.17,2.87l23.97-22.2c1.44-1.33,1.72-3.49,0.73-5.22
		c-7.52-13.15-7.14-30.3,0.53-43.01c1.84-3.05,6.49-2.41,7.65,1.01l9.45,27.83c0.64,1.9,2.52,3.16,4.5,2.94
		c12.68-1.4,23.06-14.84,20.21-27.57c-3.1-13.88-25.9-22.24-38.11-17.26c-74.32,30.3-103.96,74.56-142.81,127.35
		c-3.04,4.13-4.39,10.11-4.26,16.34c0.12,5.51,8.4,5.6,8.5,0.09c0.21-11.96,3.01-23.78,9.35-32.53c2.26-3.13,7.25-1.81,7.72,2.07
		c0.62,5.08,1.39,10.27,1.52,11.13C292.14,476.87,292.15,476.94,292.17,477.03z"/>
	<g>
		<g>
			<path class="st0" d="M292.79,531.47c-10.92-20.65-8-42.9-6.55-66.47c-17.68,22.91-13.26,73.35,21.05,76.45
				C302.33,538.92,295.52,536.02,292.79,531.47z"/>
			<path class="st0" d="M328.83,493.13c-9.08-22.92-2.81-41.51,1.6-66.4c-19.88,19.5-28.69,81.81,17.53,87.82
				C340.42,509.55,332.42,501.42,328.83,493.13z"/>
			<path class="st0" d="M374.75,387.78c-25.18,31.69-29.56,69.65,10.01,88.2c-11.15-19.26-19.94-35.99-19.2-52.79
				C366.22,412.65,371.04,403.34,374.75,387.78z"/>
			<path class="st0" d="M418.13,403.88c-5.57-10.21-4.87-22.88-5.68-34.91c-6.72,12.69-14.43,40.31,21.48,54.5
				C428.08,416.19,422.48,412.1,418.13,403.88z"/>
		</g>
		<g>
			<g>
				<path class="st10" d="M296.43,530.21c-10.92-20.65-11.08-42.94-9.63-66.51c-10.04,22.73-13.82,74.65,20.5,77.76
					C302.33,538.92,299.16,534.75,296.43,530.21z"/>
				<path class="st10" d="M332.47,491.87c-9.08-22.92-6.45-40.25-2.04-65.14c-16.15,26.38-21.02,80.01,18.51,88.03
					C341.4,509.76,336.06,500.15,332.47,491.87z"/>
				<path class="st10" d="M374.75,387.78c-17.59,26.4-21.37,69.36,10.01,88.2c-11.15-19.26-16.3-37.26-15.56-54.06
					C369.86,411.38,371.04,403.34,374.75,387.78z"/>
				<path class="st10" d="M421.13,401.48c-5.57-10.21-7.87-20.48-8.68-32.52c-5.67,20.25,2.92,44.28,21.94,54.77
					C428.55,416.45,425.48,409.7,421.13,401.48z"/>
			</g>
		</g>
	</g>
</g>
<g id="Layer_8">
	<g id="Layer_10">
		<path class="st14" d="M370.61,301.61c43.97,9.2,22.86,73.17,10.78,92.87c-25.14,40.99-85.86,97.16-139.6,131.29
			c-37.47,22.5-100.92-5.55-77.47-51.75C194.85,413.86,297.35,290.63,370.61,301.61z"/>
		<g id="Layer_11">
			<path class="st12" d="M206.56,449.38c0.36,1.62,3.81,17.52,5.75,33.53c0.59,4.87,7.07,5.99,9.16,1.61
				c6.66-13.95,2.84-33.96,2.64-50.93c-0.21-18.73,7.63-36.61,22.79-45.65c3.35-1.99,7.6,0.65,7.34,4.59
				c-1.15,17.78-6.9,27.73,0.51,55.88c0.82,3.1,4.32,4.69,7.04,3.11c12.24-7.1,19.12-23.16,14.95-37.12
				c-7.47-24.96,1.01-53.43,19.64-70.75c3.47-3.23,9.04,0.14,7.97,4.81c-3.62,15.85-4.74,32.32-3.28,48.6
				c0.37,4.08,5.26,5.97,8.17,3.16l26.9-25.99c1.61-1.56,1.91-4.04,0.76-6.02c-8.69-14.99-8.47-34.72,0.07-49.49
				c2.05-3.54,7.33-2.89,8.69,1.02l11.06,31.83c0.75,2.17,2.89,3.59,5.13,3.3c14.36-1.85,25.96-17.51,22.58-32.1
				c-3.69-15.91-23.37-24.46-37.83-20.39c-76.37,21.52-122.55,86.48-165.95,147.94c-3.4,4.81-4.86,14.26-4.63,21.43
				c0.2,6.34,9.6,6.28,9.64-0.06c0.09-13.76,3.12-27.41,10.2-37.6c2.53-3.65,8.19-2.22,8.78,2.24c0.76,5.83,1.7,11.79,1.86,12.78
				C206.53,449.19,206.54,449.28,206.56,449.38z"/>
		</g>
	</g>
	<g>
		<g>
			<path class="st0" d="M207.94,512c-12.63-23.55-9.6-49.19-8.25-76.34c-19.76,26.69-14.13,84.63,24.81,87.54
				C218.85,520.38,211.09,517.17,207.94,512z"/>
			<path class="st0" d="M248.32,467.2c-10.58-26.2-3.7-47.7,0.99-76.42c-22.3,22.81-31.52,94.66,20.96,100.7
				C261.67,485.87,252.5,476.66,248.32,467.2z"/>
			<path class="st0" d="M299.09,345.13c-28.16,36.94-32.66,80.69,12.44,101.27c-12.88-21.94-23.06-41.02-22.42-60.36
				C289.73,373.9,295.07,363.1,299.09,345.13z"/>
			<path class="st0" d="M348.48,362.82c-6.44-11.63-5.81-26.23-6.87-40.06c-7.46,14.72-15.87,46.65,25.02,62.29
				C359.91,376.79,353.51,372.19,348.48,362.82z"/>
		</g>
		<g>
			<g>
				<path class="st10" d="M212.05,510.47c-12.63-23.55-13.1-49.18-11.74-76.32c-11.1,26.34-14.75,86.15,24.2,89.06
					C218.85,520.38,215.2,515.64,212.05,510.47z"/>
				<path class="st10" d="M252.43,465.68c-10.58-26.2-7.81-46.18-3.12-74.89c-17.99,30.65-22.85,92.44,22.07,100.92
					C262.78,486.09,256.61,475.13,252.43,465.68z"/>
				<path class="st10" d="M299.09,345.13c-19.62,30.71-23.38,80.2,12.44,101.27c-12.88-21.94-18.94-42.55-18.31-61.89
					C293.84,372.37,295.07,363.1,299.09,345.13z"/>
				<path class="st10" d="M351.85,360.01c-6.44-11.63-9.18-23.41-10.24-37.24c-6.18,23.4,3.86,50.88,25.55,62.58
					C360.44,377.08,356.88,369.38,351.85,360.01z"/>
				<path class="st15" d="M395.22,315.15L395.22,315.15c0,0.01,0.01,0.02,0.01,0.03l0.02,0.07l0.07,0.23l0.14,0.43l0.15,0.46
					l0.15,0.5l0.17,0.61l0.2,0.77l0.2,0.91l0.2,1.04l0.19,1.1l0.18,1.16l0.17,1.22l0.15,1.21l0.14,1.25l0.12,1.35l0.1,1.4l0.08,1.43
					l0.06,1.48l0.03,1.54l0.01,1.58l-0.01,1.58l-0.03,1.57l-0.05,1.56l-0.06,1.5l-0.07,1.45l-0.08,1.4l-0.09,1.36l-0.1,1.32
					l-0.13,1.34l-0.16,1.36l-0.17,1.33l-0.2,1.34l-0.25,1.4l-0.3,1.47l-0.35,1.52l-0.38,1.52l-0.39,1.47l-0.39,1.42l-0.39,1.38
					l-0.4,1.35l-0.41,1.32l-0.41,1.28l-0.42,1.25l-0.45,1.28l-0.48,1.3l-0.51,1.31l-0.53,1.31l-0.52,1.27l-0.62,1.39l-0.73,1.52
					l-0.76,1.52l-0.81,1.55l-0.86,1.6l-0.93,1.65l-0.95,1.64l-0.96,1.63l-1.01,1.66l-1.02,1.65l-1.02,1.61l-1,1.56l-0.97,1.5
					l-0.94,1.43l-0.91,1.37l-0.91,1.35l-0.95,1.36l-0.97,1.35l-0.98,1.33l-0.98,1.31l-0.98,1.28l-0.96,1.24l-0.94,1.2l-0.91,1.15
					l-0.89,1.11l-0.85,1.06l-0.82,1.01l-0.79,0.96l-0.75,0.91l-0.72,0.87l-0.68,0.82l-0.65,0.77l-0.61,0.73l-0.58,0.69l-0.55,0.65
					l-0.52,0.61l-0.48,0.57l-0.46,0.53l-0.43,0.5"/>
			</g>
		</g>
	</g>
</g>
<g id="Layer_15">
	<path class="st13" d="M277.72,227.9c42.49,6.32,25.11,59.69,14.42,76.28c-22.26,34.54-77.89,82.62-127.82,112.32
		c-34.87,19.64-96.84-1.66-76.44-40.44C114.44,325.56,207.11,220.96,277.72,227.9z"/>
	<path class="st12" d="M127.23,354.51c0.41,1.32,4.42,14.34,6.99,27.49c0.78,4,7.03,4.74,8.84,1.06c5.75-11.7,1.21-28.09,0.28-42.08
		c-1.03-15.44,5.68-30.42,19.8-38.31c3.11-1.74,7.3,0.32,7.23,3.57c-0.31,14.7-5.38,23.07,2.96,46.07c0.92,2.53,4.34,3.74,6.87,2.36
		c11.4-6.21,17.28-19.65,12.67-31.05c-8.25-20.37-1.4-44.09,15.67-58.92c3.18-2.77,8.66-0.15,7.85,3.74
		c-2.77,13.18-3.1,26.8-0.99,40.18c0.53,3.36,5.3,4.77,7.96,2.37l24.6-22.21c1.48-1.33,1.65-3.39,0.47-4.99
		c-8.98-12.11-9.64-28.39-2.12-40.82c1.8-2.98,6.89-2.6,8.36,0.59l11.99,25.93c0.82,1.77,2.93,2.87,5.06,2.57
		c13.66-1.94,24.08-15.19,20.19-27.13c-4.23-13.01-23.89-17.92-37.28-13.62c-75.35,24.2-113.19,74.87-152.01,126.82
		c-3.04,4.07-4.13,9.8-3.6,15.71c0.47,5.22,9.46,4.9,9.22-0.33c-0.52-11.35,1.78-22.7,8.1-31.31c2.26-3.08,7.75-2.07,8.5,1.59
		c0.99,4.78,2.15,9.67,2.34,10.48C127.18,354.37,127.2,354.44,127.23,354.51z"/>
	<g>
		<g>
			<path class="st0" d="M131.31,406.12c-13.13-19.05-11.36-40.29-11.27-62.72c-17.73,22.58-9.79,70.21,27.62,71.48
				C142.13,412.72,134.55,410.3,131.31,406.12z"/>
			<path class="st0" d="M167.98,368.01c-11.28-21.3-5.65-39.23-2.43-63.05c-20.34,19.46-25.99,78.98,24.51,82.44
				C181.58,383.02,172.4,375.69,167.98,368.01z"/>
			<path class="st0" d="M211.19,265.86c-25.32,31.28-27.69,67.49,16.38,83.16c-13.3-17.72-23.88-33.17-24.13-49.13
				C203.49,289.86,208.13,280.8,211.19,265.86z"/>
			<path class="st0" d="M259.24,279.02c-6.67-9.41-6.72-21.46-8.34-32.84c-6.49,12.36-13.13,38.93,26.7,50.65
				C270.8,290.21,264.47,286.6,259.24,279.02z"/>
		</g>
		<g>
			<g>
				<path class="st10" d="M135.18,404.74c-13.13-19.05-14.71-40.18-14.61-62.61c-9.46,22.05-10.31,71.47,27.1,72.75
					C142.13,412.72,138.42,408.92,135.18,404.74z"/>
				<path class="st10" d="M171.85,366.63c-11.28-21.3-9.52-37.86-6.3-61.68c-15.86,25.8-17.78,76.9,25.59,82.59
					C182.66,383.17,176.27,374.31,171.85,366.63z"/>
				<path class="st10" d="M211.19,265.86c-17.42,25.9-18.83,66.82,16.38,83.16c-13.3-17.72-20.01-34.54-20.26-50.51
					C207.36,288.48,208.13,280.8,211.19,265.86z"/>
				<path class="st10" d="M262.34,276.61c-6.67-9.41-9.82-19.05-11.45-30.42c-4.88,19.48,5.94,41.85,27.22,50.87
					C271.32,290.44,267.57,284.19,262.34,276.61z"/>
				<path class="st15" d="M301.88,238.36L301.88,238.36c0,0.01,0.01,0.01,0.01,0.02l0.03,0.06l0.08,0.19l0.15,0.35l0.16,0.38
					l0.17,0.41l0.19,0.5l0.22,0.63l0.24,0.74l0.24,0.85l0.23,0.9l0.22,0.95l0.21,1l0.2,0.99l0.19,1.03l0.17,1.11l0.16,1.15
					l0.14,1.18l0.12,1.22l0.1,1.27l0.08,1.3l0.06,1.3l0.04,1.29l0.02,1.29l0.01,1.24l0,1.2l-0.02,1.16l-0.03,1.13l-0.04,1.09
					l-0.07,1.11l-0.09,1.12l-0.11,1.1l-0.13,1.11l-0.18,1.17l-0.23,1.22l-0.27,1.27l-0.3,1.27l-0.3,1.23l-0.31,1.18l-0.31,1.15
					l-0.32,1.13l-0.33,1.1l-0.34,1.07l-0.34,1.05l-0.38,1.07l-0.41,1.09l-0.43,1.09l-0.45,1.09l-0.45,1.06l-0.53,1.16l-0.63,1.27
					l-0.66,1.28l-0.7,1.31l-0.76,1.35l-0.82,1.39l-0.83,1.38l-0.85,1.38l-0.89,1.4l-0.91,1.39l-0.91,1.36l-0.89,1.31l-0.87,1.26
					l-0.84,1.21l-0.81,1.16l-0.81,1.14l-0.85,1.15l-0.87,1.14l-0.88,1.13l-0.88,1.11l-0.88,1.08l-0.86,1.05l-0.85,1.02l-0.82,0.98
					l-0.8,0.94l-0.77,0.9l-0.74,0.86l-0.71,0.82l-0.68,0.78l-0.65,0.74l-0.62,0.7l-0.59,0.66l-0.55,0.62l-0.52,0.58l-0.49,0.55
					L272.3,325l-0.44,0.48l-0.41,0.45l-0.39,0.42"/>
			</g>
		</g>
	</g>
</g>
<g id="Layer_18">
	<g>
		<path class="st16" d="M309.56,375.08c0.29-4.71,0.6-9.41,0.94-14.11c0.16-2.35,0.27-4.71,0.55-7.05c0.31-2.34,0.59-4.68,1.09-7
			l0.1,0.01c0.07,2.37-0.07,4.73-0.2,7.08c-0.15,2.35-0.48,4.69-0.75,7.03c-0.52,4.68-1.07,9.37-1.64,14.05L309.56,375.08z"/>
	</g>
	<g>
		<path class="st16" d="M318.03,364.75c-0.02-3.02-0.01-6.04,0.02-9.06c0.01-1.51-0.04-3.02,0.09-4.52c0.13-1.5,0.3-3.01,0.64-4.5
			l0.1,0c0.21,1.52,0.26,3.03,0.26,4.54c0,1.51-0.17,3.01-0.29,4.52c-0.21,3.01-0.45,6.02-0.72,9.03L318.03,364.75z"/>
	</g>
	<g>
		<path class="st16" d="M361.75,348.49c-1.52-4.61-3.01-9.22-4.47-13.85c-0.74-2.31-1.54-4.6-2.16-6.95c-0.6-2.35-1.22-4.7-1.63-7.1
			l0.1-0.03c0.96,2.24,1.72,4.55,2.5,6.85c0.75,2.31,1.33,4.66,1.97,7c1.29,4.67,2.56,9.36,3.8,14.05L361.75,348.49z"/>
	</g>
	<g>
		<path class="st16" d="M265.84,419.77c-0.25-4.39-0.46-8.78-0.65-13.16c-0.1-2.19-0.27-4.39-0.25-6.58c0.04-2.2,0.06-4.39,0.3-6.6
			l0.1,0c0.34,2.19,0.46,4.38,0.6,6.58c0.12,2.19,0.05,4.39,0.05,6.59c0.01,4.39,0,8.79-0.05,13.18L265.84,419.77z"/>
	</g>
	<g>
		<path class="st16" d="M260.95,411.76c-0.15-2.37-0.27-4.74-0.36-7.1c-0.05-1.18-0.18-2.37-0.1-3.55c0.07-1.18,0.17-2.37,0.45-3.55
			l0.1,0c0.28,1.18,0.39,2.37,0.45,3.55c0.07,1.18-0.05,2.37-0.1,3.55c-0.09,2.37-0.2,4.74-0.34,7.1L260.95,411.76z"/>
	</g>
	<g>
		<path class="st16" d="M218.48,447.4c-0.4-3.69-0.77-7.39-1.11-11.08c-0.18-1.85-0.42-3.69-0.48-5.55
			c-0.06-1.86-0.08-3.71,0.07-5.58l0.1-0.01c0.4,1.83,0.63,3.68,0.83,5.52c0.19,1.85,0.21,3.71,0.28,5.56
			c0.17,3.71,0.3,7.42,0.42,11.13L218.48,447.4z"/>
	</g>
	<g>
		<path class="st16" d="M211.93,442.75c0.03-1.61,0.08-3.21,0.17-4.82c0.04-0.8,0-1.61,0.16-2.4c0.15-0.79,0.35-1.57,0.71-2.34
			l0.1,0.01c0.19,0.83,0.21,1.63,0.19,2.44c-0.01,0.8-0.23,1.59-0.36,2.38c-0.26,1.58-0.55,3.16-0.86,4.74L211.93,442.75z"/>
	</g>
	<g>
		<path class="st16" d="M220.49,287.95c0.47-3.48,0.59-7.01,0.81-10.52c0.22-3.52,0.46-7.03,0.85-10.55
			c0.39-3.51,0.85-7.04,1.91-10.45c0.56-1.69,1.2-3.38,2.14-4.92c0.47-0.77,1.02-1.49,1.65-2.14c0.65-0.63,1.41-1.14,2.24-1.48
			l0.04,0.09c-1.51,0.91-2.57,2.33-3.33,3.86c-0.77,1.54-1.35,3.18-1.79,4.86c-0.91,3.35-1.58,6.79-2.08,10.27
			c-0.49,3.48-0.83,6.98-1.15,10.48c-0.35,3.5-0.61,7.02-1.21,10.5L220.49,287.95z"/>
	</g>
	<g>
		<path class="st16" d="M230.26,274.54c-0.67-4.09-0.73-8.3-0.19-12.44c0.26-2.07,0.61-4.15,1.27-6.13c0.66-1.98,1.5-3.91,2.62-5.68
			l0.09,0.04c-0.61,1.99-1.23,3.94-1.75,5.93c-0.52,1.98-1.08,3.95-1.44,5.97c-0.71,4.04-0.89,8.19-0.5,12.31L230.26,274.54z"/>
	</g>
	<g>
		<path class="st16" d="M268.45,254.78c-0.91-3.45-2.09-6.82-3.51-10.06c-0.72-1.62-1.56-3.18-2.31-4.78
			c-0.75-1.61-1.53-3.2-2.24-4.85l0.08-0.05c1.18,1.37,2.17,2.88,3.05,4.45c0.88,1.57,1.53,3.26,2.16,4.94
			c1.28,3.36,2.24,6.83,2.87,10.34L268.45,254.78z"/>
	</g>
	<g>
		<path class="st16" d="M272.43,245.69c-1-1.69-1.97-3.39-2.91-5.1c-0.47-0.86-1.02-1.67-1.39-2.58c-0.37-0.91-0.71-1.83-0.9-2.83
			l0.09-0.04c0.68,0.75,1.21,1.58,1.7,2.43c0.5,0.84,0.82,1.78,1.21,2.67c0.79,1.79,1.55,3.59,2.29,5.41L272.43,245.69z"/>
	</g>
	<g>
		<path class="st16" d="M278.46,239.92c-0.89-0.83-1.75-1.68-2.6-2.54c-0.42-0.43-0.91-0.81-1.24-1.32
			c-0.34-0.5-0.64-1.04-0.82-1.67l0.08-0.06c0.6,0.28,1.07,0.68,1.51,1.09c0.44,0.41,0.73,0.96,1.09,1.45
			c0.71,0.98,1.4,1.98,2.06,2.99L278.46,239.92z"/>
	</g>
	<g>
		<path class="st16" d="M180.07,321.76c-0.13-7.49,0.39-15,1.56-22.42c0.57-3.71,1.24-7.42,2.24-11.04
			c1.02-3.62,2.17-7.2,3.67-10.65l0.09,0.03c-0.95,3.63-1.96,7.22-2.79,10.86c-0.86,3.63-1.74,7.26-2.42,10.93
			c-1.33,7.35-2.09,14.81-2.25,22.29L180.07,321.76z"/>
	</g>
	<g>
		<path class="st16" d="M176.35,303.35c0.56-2.52,1.15-5.04,1.77-7.55c0.3-1.26,0.54-2.53,0.96-3.75c0.42-1.22,0.87-2.44,1.49-3.6
			l0.1,0.03c-0.09,1.32-0.34,2.59-0.62,3.85c-0.29,1.26-0.75,2.47-1.15,3.7c-0.79,2.46-1.6,4.91-2.44,7.36L176.35,303.35z"/>
	</g>
	<g>
		<path class="st16" d="M136.03,350.01c-0.09-5.36-0.17-10.71-0.22-16.07c-0.02-2.68-0.1-5.36-0.08-8.03
			c0.03-2.68,0.15-5.36,0.33-8.03l0.03-0.38l0.31,0.16c0.7,0.37,1.4,0.72,2.09,1.11l-0.04,0.09c-0.75-0.24-1.49-0.5-2.24-0.76
			l0.34-0.22c0.14,2.68,0.22,5.36,0.22,8.04c-0.02,2.68-0.13,5.36-0.19,8.03c-0.12,5.36-0.27,10.71-0.44,16.07L136.03,350.01z"/>
	</g>
	<g>
		<path class="st16" d="M130.66,337.17c0.19-2.02,0.41-4.03,0.66-6.03c0.12-1,0.16-2.02,0.4-3c0.23-0.98,0.51-1.96,0.95-2.91
			l0.1,0.02c0.1,1.04,0.04,2.06-0.06,3.06c-0.1,1.01-0.39,1.98-0.6,2.97c-0.42,1.98-0.87,3.95-1.35,5.92L130.66,337.17z"/>
	</g>
</g>
</svg>
