<svg width="375" height="596" viewBox="0 0 375 596" fill="none" xmlns="http://www.w3.org/2000/svg">
<path d="M311.35 352.05C312.47 321.434 306.389 305.034 298.757 296.913C300.531 293.181 301.983 289.949 302.739 287.898L302.811 287.702C305.787 279.627 307.864 273.989 302.739 257.759C298.605 244.67 289.535 228.768 285.517 222.453C285.517 221.305 285 217.114 282.933 209.537C280.867 201.959 275.47 195.472 273.03 193.175C273.605 191.453 274.839 187.32 275.183 184.564C275.528 181.809 274.753 180.259 274.322 179.828C274.609 179.111 275.269 176.987 275.614 174.231C275.958 171.475 273.748 170.212 272.6 169.925C273.174 168.921 274.15 166.309 273.461 163.898C272.772 161.487 270.304 160.884 269.155 160.884C269.299 160.31 269.155 158.817 267.433 157.439C265.711 156.062 262.41 156.578 260.975 157.009C264.85 151.699 273.375 135.567 276.475 113.523C279.057 95.1589 274.449 76.9146 270.515 66.6052C275.374 61.8149 280.27 57.9022 285.086 55.3976C301.933 46.6372 379.378 38.1754 374.642 219.009C371.524 338.054 360.569 377.238 349.516 416.772C343.779 437.291 338.016 457.905 333.308 489.828C332.772 493.464 332.305 496.986 331.903 500.398C325.99 492.976 314.794 480.022 305.206 471.282C305.725 449.059 307.189 425.493 308.605 402.703C309.704 385.021 310.773 367.807 311.35 352.05Z" fill="#FFE36F"/>
<path d="M316.79 564.889C331.858 594.775 345.781 597.695 350.961 595.314C345.297 593.142 337.376 584.333 333.036 564.889H316.79Z" fill="#FFE36F"/>
<path d="M157 194H208L226.5 165.5L205.5 150.5C212.667 134.5 224.8 96.4 216 72C205 41.5 157 42.5 147 47.5C137 52.5 115 67 115 100.5C115 127.3 133.667 141.667 143 145.5C143 148.5 143.4 157.2 145 168C146.6 178.8 153.667 189.833 157 194Z" fill="#F8E79F"/>
<path d="M226.5 218C226.5 237.2 231.167 242.667 233.5 243C236.5 243 243.5 233 253 221C262.5 209 266.5 196 268.5 190C270.1 185.2 269.167 181.667 268.5 180.5C269 179.667 270 177.4 270 175C270 172.6 268 172 267 172C267 171.5 267.2 169.8 268 167C268.8 164.2 265.667 163.5 264 163.5C263.5 161.833 261.7 159 258.5 161C255.3 163 250.833 172.167 249 176.5C245.5 172.833 237.7 166.1 234.5 168.5C230.5 171.5 226.5 194 226.5 218Z" fill="#F8E79F"/>
<path d="M28 200C32.8 218 38.6667 226.167 41 228C41 228.5 45.5 211.5 50 200C54.5 188.5 54.5 181.5 55 175C55.5 168.5 55.5 158 55 154.5C54.5 151 52.5 150 49 151.5C46.2 152.7 45.5 164.333 45.5 170C45.1667 169.833 44.3 169.1 43.5 167.5C42.5 165.5 40 159 39 154.5C38 150 36.5 140 35 137.5C33.8 135.5 32.1667 137.333 31.5 138.5C31.3333 138.167 30.7 137.7 29.5 138.5C28.3 139.3 27.6667 141.5 27.5 142.5C27.3333 142.667 26.8 143.1 26 143.5C25.2 143.9 24.6667 146.667 24.5 148C23.5 148.833 21.5 151.4 21.5 155C21.5 159.5 22 177.5 28 200Z" fill="#F8E79F"/>
<path d="M26.7527 156.292C26.0638 148.025 25.0305 147.394 24.5999 148.111C24.7434 146.963 25.2888 144.494 26.3221 143.806C27.3555 143.117 27.6138 142.083 27.6138 141.653C28.0443 141.509 29.4213 141.114 30.1971 142.083C31.9193 144.236 31.5749 151.986 33.6416 160.597C36.2249 171.361 39.6693 171.792 38.8082 172.653C37.9471 173.514 35.7943 173.944 35.7943 173.083C35.7943 172.222 34.5027 168.778 32.7805 164.903C31.0582 161.028 30.1971 151.125 30.1971 148.111C30.1971 145.097 28.0443 142.514 27.1832 143.375C26.3221 144.236 27.6138 147.681 28.0443 153.278C28.4749 158.875 31.4888 170.931 32.3499 173.944C33.211 176.958 36.2249 174.806 35.3638 176.097C34.5027 177.389 30.1971 180.403 28.9055 179.972C27.6138 179.542 30.6277 178.25 30.6277 176.958C30.6277 175.667 27.6138 166.625 26.7527 156.292Z" fill="#C3AA4B"/>
<path fill-rule="evenodd" clip-rule="evenodd" d="M265.388 338.54C265.57 344.685 265.831 353.469 264.85 372.431C263.259 403.2 256.384 422.298 253.375 430.655C253.161 431.251 252.966 431.791 252.794 432.278C250.728 438.133 249.924 442.181 249.781 443.472C261.549 446.773 290.77 460.092 313.503 486.958C336.236 513.825 351.679 543.218 356.558 554.556C355.984 556.565 350.186 560.497 331.586 560.153C312.986 559.808 282.216 561.444 269.156 562.306L147.739 393.528C148.17 387.931 148.514 373.206 146.447 359.083C145.06 349.605 145.108 344.533 145.145 340.502C145.178 337.026 145.203 334.323 144.295 330.236C143.294 325.735 140.615 323.686 137.482 321.291C135.25 319.584 132.787 317.701 130.537 314.628C129.765 316.218 129.036 317.697 128.364 319.042C124.776 318.898 115.275 318.267 105.975 316.889C96.6749 315.511 92.3407 314.019 91.336 313.444C87.8916 316.458 79.7971 323.089 74.9749 325.5C73.1222 326.426 71.7983 327.231 70.7782 327.85C68.4791 329.247 67.7226 329.707 65.9333 328.514C63.3499 326.792 45.2666 285.458 40.5305 273.403C35.7944 261.347 38.8082 237.667 42.2527 223.028C45.0082 211.317 49.4286 200.352 51.2943 196.333L107.267 226.472C111.807 227.257 117.64 228.559 123.629 230.352C125.681 212.1 129.087 197.902 131.808 192.458C176.155 196.764 216.976 194.134 219.211 192.458C220.785 191.278 222.014 199.762 223.52 210.155C224.594 217.571 225.81 225.96 227.392 232.5C229.413 240.86 234.793 245.276 235.142 242.833C241.026 236.088 254.086 220.358 259.253 211.403C264.42 202.447 266.572 196.764 267.003 195.042C269.586 197.338 275.097 203.136 276.475 207.958C277.853 212.781 279.345 220.014 279.919 223.028C284.369 230.204 293.956 247.57 296.711 259.625C300.156 274.695 299.725 282.445 296.711 287.611C294.3 291.745 293.41 295.074 293.267 296.222L267.433 330.236L265.281 333.25C265.281 334.908 265.331 336.592 265.388 338.54ZM64.4286 227.985C73.8183 241.115 82.3919 254.813 90.0863 268.988C83.3731 246.395 70.2673 224.959 53.023 207.525C54.8652 214.657 59.2671 220.791 63.5847 226.808C63.8666 227.201 64.1481 227.593 64.4286 227.985ZM275.218 311.191C290.539 286.368 291.253 247.445 269.656 223.905C293.638 234.582 293.142 285.382 275.218 311.191ZM278.584 277.46C283.568 260.691 272.745 241.402 260.995 229.549C261.384 230.001 261.631 230.569 261.767 231.181C263.074 236.928 265.726 242.296 269.131 247.119C275.524 256.178 279.983 265.087 278.584 277.46ZM190.463 425.183C191.969 390.408 191.405 355.545 188.777 320.833C188.682 329.488 188.438 338.071 188.196 346.601C187.444 373.117 186.707 399.122 190.463 425.183ZM209.281 397.893C211.343 390.259 213.404 382.626 215.464 374.993L216.181 372.336C218.756 362.798 221.331 353.26 223.907 343.722C224.188 342.681 224.537 342.121 224.778 341.734C224.98 341.41 225.107 341.207 225.054 340.943C224.942 340.36 224.073 340.224 223.597 340.584C222.104 345.723 220.634 350.885 219.16 356.058L219.158 356.067L219.157 356.069C212.961 377.817 206.715 399.74 198.624 420.908C204.613 414.773 207.057 406.141 209.281 397.893ZM203.632 434.767C223.859 416.789 238.203 393.055 248.351 368.078C248.258 367.995 248.603 364.32 248.948 360.643L248.948 360.641C236.945 387.047 221.692 412 203.632 434.767ZM223.509 471.33C231.869 449.714 239.651 427.874 246.84 405.845C245.415 412.605 243.991 419.365 242.567 426.125L242.544 426.233C241.126 432.961 239.709 439.688 238.291 446.416L238.289 446.424C236.725 453.834 235.152 461.292 232.287 468.314C232.977 460.216 234.555 452.191 236.989 444.429C235.409 447.64 233.774 450.824 232.071 454.141L232.07 454.142C229.401 459.34 226.564 464.866 223.509 471.33ZM175.876 370.416C178.019 378.793 180.163 387.17 182.307 395.547C172.733 381.834 170.809 364.434 169.444 345.286C171.529 353.427 173.612 361.568 175.695 369.71L175.876 370.416ZM164.849 345.912C166.107 363.385 166.457 380.921 165.894 398.428C161.384 397.604 163.063 373.971 164.178 358.282L164.179 358.279C164.577 352.676 164.903 348.087 164.849 345.912ZM251.523 236.199C265.653 254.682 265.629 279.781 260.218 301.475C262.943 279.728 262.273 255.8 251.523 236.199ZM89.7608 282.468C89.6232 282.496 89.4857 282.523 89.3482 282.549C89.4868 282.526 89.6243 282.498 89.7608 282.468ZM89.3482 282.549C70.4481 286.141 51.9023 269.204 54.0965 250.194C57.5013 260.485 77.3366 284.605 89.3482 282.549ZM110.344 258.546C108.387 265.203 106.096 272.996 100.078 276.857C105.975 267.278 106.996 254.906 102.74 244.506C107.156 247.901 111.693 253.118 110.726 257.252C110.601 257.673 110.475 258.1 110.348 258.532L110.344 258.546Z" fill="#C3AA4B"/>
<path d="M163.669 122.708C194.669 96.0139 189.503 83.0972 187.35 58.9861L199.406 70.1806L202.85 80.0833L194.669 141.653L218.781 173.944L206.294 194.611H183.475C182.183 191.454 178.911 182.814 176.156 175.236C173.4 167.658 170.271 142.657 169.697 139.069C163.669 142.944 159.364 147.681 143.003 145.097C134.392 141.222 128.364 137.778 123.628 129.597C117.896 119.697 118.892 122.278 119.753 120.556C119.753 120.556 138.069 144.753 163.669 122.708Z" fill="#C3AA4B"/>
<path d="M46.1277 200.208C42.3388 207.786 37.373 223.171 35.3638 229.917C37.086 233.361 40.7027 238.183 41.3916 229.917C42.2527 219.583 46.9888 206.667 50.4332 199.347C53.8777 192.028 53.8777 186.861 54.3082 182.556C54.7388 178.25 55.1693 164.472 55.1693 161.889V153.278C54.1647 155.144 52.0693 160.597 51.7249 167.486C51.2943 176.097 50.8638 190.736 46.1277 200.208Z" fill="#C3AA4B"/>
<path fill-rule="evenodd" clip-rule="evenodd" d="M27.0605 143.833C26.0992 144.466 25.2522 146.101 25.8679 148.004C25.9917 148.387 25.7817 148.798 25.3989 148.922C25.016 149.046 24.6052 148.836 24.4813 148.453C23.664 145.926 24.7503 143.609 26.2592 142.616C27.017 142.117 27.9849 141.898 28.8653 142.342C29.7388 142.783 30.2804 143.756 30.4762 145.092L30.4774 145.1L30.4784 145.108C30.6831 146.762 30.854 148.426 31.0252 150.093C31.3339 153.099 31.6438 156.116 32.1549 159.108C32.9444 163.73 34.1996 168.172 36.6147 172.137C36.824 172.481 36.7151 172.929 36.3714 173.139C36.0277 173.348 35.5794 173.239 35.3701 172.896C32.8208 168.71 31.5234 164.066 30.7184 159.353C30.2003 156.32 29.8802 153.208 29.5672 150.166C29.3973 148.514 29.2295 146.882 29.0332 145.295C28.8713 144.201 28.4839 143.782 28.2084 143.643C27.939 143.507 27.5376 143.519 27.0605 143.833Z" fill="#2F1B14"/>
<path fill-rule="evenodd" clip-rule="evenodd" d="M29.9825 139.159C28.9509 139.65 28.085 141.056 28.5997 142.579C28.7286 142.961 28.524 143.374 28.1428 143.503C27.7615 143.632 27.348 143.427 27.2192 143.046C26.4369 140.731 27.7496 138.608 29.3557 137.843C30.1764 137.452 31.1719 137.372 32.025 137.92C32.8655 138.46 33.3798 139.492 33.529 140.915C34.9004 150.275 37.5583 161.706 41.241 169.46C41.4137 169.823 41.259 170.258 40.8955 170.43C40.532 170.603 40.0973 170.448 39.9247 170.085C36.1482 162.133 33.4636 150.528 32.0849 141.111L32.0827 141.096L32.0811 141.08C31.9585 139.886 31.5646 139.357 31.2369 139.146C30.9187 138.941 30.4806 138.921 29.9825 139.159Z" fill="#2F1B14"/>
<path fill-rule="evenodd" clip-rule="evenodd" d="M33.6515 137.459C33.3554 137.493 32.8044 137.797 31.9637 138.859L30.821 137.955C31.6841 136.864 32.5591 136.116 33.4884 136.011C34.5365 135.893 35.2727 136.601 35.7709 137.431C36.2775 138.275 36.6876 139.474 37.057 140.87C37.4299 142.279 37.7771 143.954 38.1362 145.785C38.2514 146.372 38.368 146.976 38.4872 147.593C39.8663 154.735 41.5942 163.684 45.5703 169.965L44.339 170.745C40.2058 164.215 38.4282 154.991 37.0628 147.906C36.9411 147.274 36.8227 146.66 36.7062 146.065C36.3473 144.236 36.0078 142.602 35.6482 141.242C35.2849 139.87 34.9164 138.839 34.5213 138.181C34.1177 137.508 33.829 137.439 33.6515 137.459Z" fill="#2F1B14"/>
<path fill-rule="evenodd" clip-rule="evenodd" d="M37.1782 221.277C38.5721 223.509 39.9501 225.027 41.2647 225.789C42.699 217.744 45.308 209.178 49.3919 199.812C51.6585 194.608 53.0765 189.074 53.5698 183.431C53.9491 179.103 54.0956 174.739 54.2055 170.36C54.2259 169.546 54.245 168.731 54.2642 167.916L54.2643 167.91C54.348 164.348 54.432 160.777 54.6222 157.23L54.6248 157.182L54.6336 157.135C55.097 154.658 54.0638 152.425 52.7455 151.552C52.1121 151.132 51.4407 151.034 50.7897 151.304C50.1115 151.585 49.3253 152.319 48.6289 153.841L48.6269 153.846C47.4494 156.376 46.8884 159.11 46.5495 161.96C46.38 163.384 46.267 164.828 46.1579 166.286L46.128 166.687C46.0295 168.009 45.9301 169.343 45.791 170.665C44.9701 178.45 42.6651 186.078 39.0379 193.027C38.8517 193.384 38.4116 193.522 38.0549 193.336C37.6981 193.15 37.5599 192.71 37.746 192.353C41.2887 185.565 43.5401 178.115 44.3417 170.512C44.4784 169.214 44.5761 167.903 44.6749 166.577L44.7047 166.177C44.8138 164.72 44.9288 163.247 45.1024 161.788C45.4495 158.87 46.0347 155.963 47.3047 153.233C48.0872 151.524 49.09 150.431 50.2318 149.957C51.4012 149.473 52.5811 149.694 53.5507 150.337C55.4281 151.581 56.6049 154.422 56.0749 157.355C55.8877 160.862 55.8048 164.39 55.7214 167.935C55.7022 168.755 55.6829 169.575 55.6623 170.396C55.5523 174.78 55.405 179.182 55.0216 183.558C54.5143 189.36 53.0566 195.047 50.7279 200.394C46.5388 210.001 43.9226 218.743 42.5451 226.935C42.5424 226.957 42.5387 226.979 42.534 227.001C40.2538 240.622 41.3975 252.723 44.4255 264.753C46.8582 274.418 50.5093 284.045 54.6045 294.404C55.1772 295.853 55.7585 297.316 56.3462 298.795C59.9289 307.81 63.7506 317.428 67.3084 328.086C67.4513 328.162 67.5952 328.215 67.7447 328.243C68.3378 328.352 68.9888 328.054 69.8076 327.584L69.8092 327.584C81.1516 321.112 91.7346 313.334 101.282 304.459L102.275 305.526C92.6452 314.477 81.9721 322.321 70.5331 328.848C69.7789 329.281 68.672 329.897 67.478 329.676L67.4761 329.676C67.0498 329.596 66.6716 329.419 66.3373 329.202C66.31 329.186 66.2837 329.169 66.2586 329.149C65.8157 328.847 65.4529 328.477 65.16 328.176C34.1891 296.462 21.9514 248.389 28.8573 204.854C26.7627 197.899 24.9784 190.085 23.6476 182.537C21.876 172.488 20.8993 162.857 21.0777 156.307C21.1659 153.068 21.5374 150.449 22.3246 148.926C22.7232 148.155 23.3095 147.511 24.1592 147.37C24.9923 147.231 25.815 147.621 26.5805 148.263L26.813 148.458L26.8382 148.761C26.8857 149.331 26.9325 149.902 26.9793 150.473C27.7161 159.453 28.4567 168.48 31.9149 176.833C32.0688 177.205 31.8922 177.631 31.5204 177.785C31.1486 177.939 30.7224 177.762 30.5684 177.391C27.0195 168.819 26.2625 159.575 25.5312 150.645C25.4916 150.162 25.452 149.679 25.4121 149.197C24.9073 148.827 24.5823 148.777 24.3989 148.807C24.2055 148.839 23.924 149.005 23.6192 149.595C22.9998 150.794 22.6227 153.107 22.5344 156.347C22.3599 162.756 23.3186 172.277 25.0827 182.284C26.8459 192.285 29.4046 202.721 32.4095 210.956C33.9128 215.076 35.5186 218.62 37.1782 221.277Z" fill="#2F1B14"/>
<path d="M214.469 236.981C196.185 270.848 170.902 300.985 140.634 324.971C143.131 319.385 147.964 315.227 152.54 311.137C175.317 290.779 195.316 267.38 214.469 236.981Z" fill="#C3AA4B"/>
<path d="M174.827 273.525C171.378 280.326 167.322 287.694 160.137 290.39C163.79 284.061 169.148 278.708 174.827 273.525Z" fill="#C3AA4B"/>
<path d="M139.216 296.943C154.133 278.776 181.001 269.789 191.401 248.465C178.397 260.992 164.475 272.583 149.791 283.123C144.438 286.966 138.57 291.255 137.151 297.652C138.137 297.487 139.046 296.89 139.216 296.943Z" fill="#C3AA4B"/>
<path d="M207.989 216.444C200.747 229.098 192.1 240.979 180.238 249.358C192.775 234.761 203.044 218.251 210.573 200.588C211.288 198.917 212.172 197.047 213.915 196.503C213.915 196.547 213.911 196.591 213.911 196.63C213.537 203.605 211.467 210.372 207.989 216.444Z" fill="#C3AA4B"/>
<path d="M231.063 323.801C220.269 321.931 211.433 314.513 203.171 307.377C202.097 306.45 200.912 305.119 201.446 303.807C210.486 311.064 220.25 317.442 231.063 323.801Z" fill="#C3AA4B"/>
<path d="M127.503 112.806C130.947 114.528 131.378 118.833 131.378 118.833C127.072 111.084 122.767 116.25 121.044 114.958C119.955 114.141 123.197 110.653 127.503 112.806Z" fill="#C3AA4B"/>
<path d="M227.599 312.745C223.854 311.39 220.881 308.101 219.944 304.259C223.271 306.445 226.186 309.238 227.599 312.745Z" fill="#C3AA4B"/>
<path d="M149.572 67.2823C150.529 67.3552 151.054 66.2331 151.306 65.3199C150.393 62.279 148.091 58.5727 144.588 56.3771C141.091 54.1863 137.55 54.0309 134.149 56.3722C139.08 55.7164 143.014 57.9752 145.579 62.2013C145.851 62.65 146.098 63.1189 146.345 63.5876C146.973 64.7779 147.6 65.9669 148.625 66.8208C148.897 67.0491 149.213 67.2532 149.572 67.2823Z" fill="#2F1B14"/>
<path d="M171.004 77.5755C168.016 75.4527 164.771 73.364 161.104 73.092C160.565 74.4812 160.065 76.1765 160.856 77.5221C161.493 78.6053 162.785 79.1008 163.97 79.5428C166.01 80.3006 168.036 81.1167 169.959 82.1319C173.899 84.2061 177.396 87.1109 180.155 90.5938C181.535 92.3328 182.764 94.3195 182.939 96.5249C183.556 92.6437 182.098 88.6556 179.747 85.4885C177.401 82.3213 174.224 79.8683 171.004 77.5755Z" fill="#2F1B14"/>
<path d="M127.611 70.6048C135.208 64.4114 143.918 70.7408 144.564 77.0605C144.564 77.0605 143.021 73.1529 139.756 70.7559C140.135 73.6632 135.934 76.6315 133.071 73.1064C131.767 71.6942 132.029 70.1345 132.978 69.0401C132.927 69.0479 132.875 69.0562 132.823 69.0649C127.116 70.0275 130.901 72.8237 132.085 73.6985C132.425 73.9494 132.551 74.0422 132.177 73.8885C131.876 73.8205 127.29 70.5659 127.611 70.6048Z" fill="#2F1B14"/>
<path fill-rule="evenodd" clip-rule="evenodd" d="M155.241 84.2351C159.093 83.2927 163.324 84.308 166.496 86.6687C169.668 89.0295 171.796 92.6484 172.597 96.5005C172.621 96.6268 172.514 96.8454 172.514 96.8454C172.514 96.8454 171.164 97.1562 168.342 96.0633C162.362 93.7414 158.019 89.7096 158.019 89.7096C158.019 89.7096 159.063 90.3205 160.544 91.1011C158.755 89.5794 158.113 86.791 161.141 84.7232C157.947 83.9112 155.241 84.2351 155.241 84.2351ZM170.124 92.4007C171.53 95.9515 166.521 94.0537 162.522 92.1056C164.375 92.5249 166.456 91.6704 167.38 88.4515C167.405 88.3634 167.417 88.2743 167.418 88.1858C168.492 89.2753 169.432 90.655 170.124 92.4007Z" fill="#2F1B14"/>
<path d="M124.361 106.886C123.642 112.127 131.22 116.091 134.149 113.415C125.817 113.415 124.574 107.82 124.389 106.989C124.374 106.919 124.365 106.882 124.361 106.886Z" fill="#2F1B14"/>
<path d="M126.848 101.178C126.848 101.178 127.209 101.132 127.738 101.078C127.206 101.126 126.848 101.178 126.848 101.178Z" fill="#2F1B14"/>
<path d="M127.738 101.078C128.998 100.949 131.212 100.779 131.759 101.101C132.371 101.457 132.561 101.882 132.752 102.307C132.921 102.683 133.089 103.058 133.547 103.384C133.957 103.676 134.232 103.719 134.516 103.764C134.91 103.826 135.322 103.891 136.136 104.618C137.19 105.555 138.477 112.278 138.244 112.04C137.197 111.003 136.29 110.08 135.48 109.257C131.81 105.527 130.141 103.832 126.596 102.713C126.28 102.611 130.312 103.16 136.058 107.843C137.01 108.62 136.826 104.963 133.644 103.69C132.816 103.358 132.592 102.83 132.381 102.335C132.167 101.831 131.968 101.362 131.162 101.169C130.146 100.921 128.673 100.993 127.738 101.078Z" fill="#2F1B14"/>
<path d="M134.936 96.136C138.949 100.114 142.582 94.1056 142.582 94.1056C136.413 100.221 132.182 94.057 135.543 89.6949C139.109 85.0705 152.244 68.0884 152.244 68.0884C152.244 68.0884 149.3 71.6393 142.388 80.4169C140.899 82.307 139.52 83.9275 138.313 85.3465C133.912 90.5177 131.788 93.0143 134.936 96.136Z" fill="#2F1B14"/>
<path fill-rule="evenodd" clip-rule="evenodd" d="M151.719 65.196C151.742 65.2737 151.743 65.3564 151.721 65.4346C151.589 65.9124 151.378 66.4787 151.051 66.9252C150.721 67.3759 150.223 67.7637 149.539 67.7116L149.537 67.7115C149.041 67.6712 148.639 67.3944 148.349 67.1512C147.259 66.2426 146.598 64.9893 145.983 63.8234L145.964 63.7884C145.716 63.3179 145.475 62.8605 145.211 62.4247C142.721 58.3218 138.942 56.1691 134.206 56.799C134.009 56.8253 133.819 56.7128 133.747 56.527C133.676 56.3411 133.741 56.1305 133.905 56.0176C135.669 54.8028 137.49 54.2234 139.337 54.2446C141.181 54.2657 143.017 54.8847 144.817 56.0122C148.423 58.2731 150.781 62.0747 151.719 65.196ZM145.579 62.2013C145.851 62.65 146.098 63.1189 146.345 63.5876C146.973 64.7779 147.6 65.9669 148.625 66.8208C148.897 67.0491 149.213 67.2532 149.572 67.2823C150.529 67.3552 151.054 66.2331 151.306 65.3199C150.393 62.279 148.091 58.5727 144.588 56.3771C141.371 54.3617 138.116 54.0688 134.968 55.8577C134.695 56.0134 134.421 56.1848 134.149 56.3722C134.469 56.3297 134.784 56.2994 135.096 56.2812C139.584 56.0176 143.181 58.2492 145.579 62.2013ZM160.703 72.9362C160.771 72.7596 160.947 72.6486 161.136 72.6626C164.937 72.9445 168.271 75.1054 171.253 77.2245C174.477 79.5193 177.703 82.0058 180.093 85.2318C182.489 88.4601 184.005 92.5629 183.364 96.5925C183.33 96.8079 183.14 96.9637 182.922 96.9551C182.704 96.9465 182.527 96.7764 182.51 96.5589C182.345 94.4864 181.185 92.5844 179.818 90.8614C177.096 87.4254 173.645 84.5591 169.759 82.5129C167.86 81.5107 165.854 80.702 163.82 79.9464C163.232 79.727 162.579 79.4813 161.994 79.1468C161.405 78.8103 160.855 78.369 160.485 77.7404C160.026 76.9598 159.953 76.0951 160.054 75.2712C160.154 74.4507 160.43 73.639 160.703 72.9362ZM160.856 77.5221C161.493 78.6053 162.785 79.1008 163.97 79.5428C166.01 80.3006 168.036 81.1167 169.959 82.1319C173.899 84.2061 177.396 87.1109 180.155 90.5938C181.206 91.9185 182.17 93.387 182.647 94.9864C182.796 95.4865 182.897 95.9995 182.939 96.5249C183.023 95.9943 183.069 95.4616 183.079 94.9294C183.141 91.5685 181.777 88.2226 179.747 85.4885C177.401 82.3213 174.224 79.8683 171.004 77.5755C168.016 75.4527 164.771 73.364 161.104 73.092C160.565 74.4812 160.065 76.1765 160.856 77.5221ZM144.163 77.2186C144.185 77.2721 144.216 77.3194 144.253 77.3587C143.569 78.2235 142.835 79.1533 142.049 80.1506C140.567 82.0334 139.193 83.6482 137.985 85.0675L137.979 85.0749C136.883 86.3618 135.919 87.4949 135.143 88.5142C134.367 89.5338 133.761 90.4632 133.396 91.3451C133.028 92.2345 132.897 93.0941 133.097 93.9577C133.296 94.8161 133.81 95.626 134.633 96.4418C135.702 97.502 136.787 97.9321 137.825 97.9277C138.85 97.9233 139.767 97.4958 140.514 96.9633C141.262 96.4298 141.87 95.7707 142.287 95.2522C142.497 94.9917 142.661 94.7634 142.773 94.5993C142.83 94.5171 142.873 94.4509 142.903 94.4045C142.908 94.3968 142.912 94.3897 142.916 94.3831C142.925 94.3698 142.932 94.3587 142.937 94.3501L142.946 94.335L142.949 94.3306L142.95 94.3292C142.95 94.3292 142.95 94.3284 142.582 94.1056L142.95 94.3292C143.062 94.1432 143.019 93.9017 142.848 93.7673C142.678 93.6328 142.433 93.6468 142.279 93.7998C140.776 95.29 139.43 95.992 138.332 96.1859C137.246 96.3777 136.383 96.0781 135.783 95.5154C134.57 94.3769 134.309 92.0025 135.884 89.9578C137.667 87.6459 141.842 82.2445 145.571 77.4209C147.436 75.0091 149.189 72.7418 150.476 71.0775L152.584 68.3526C152.584 68.3526 152.584 68.3518 152.244 68.0884L152.584 68.3526C152.727 68.1668 152.696 67.8992 152.513 67.7524C152.33 67.6055 152.062 67.6328 151.912 67.8136L151.877 67.8563L151.771 67.9846C151.677 68.0992 151.535 68.2726 151.342 68.508C150.958 68.9788 150.373 69.6977 149.573 70.6909C148.457 72.0748 146.922 73.9914 144.924 76.5113C144.402 73.3612 142.038 70.3252 138.886 68.7548C135.552 67.094 131.316 67.0606 127.392 70.228C127.351 70.2503 127.308 70.2823 127.269 70.3277C127.21 70.3974 127.179 70.4769 127.169 70.5497C127.151 70.6768 127.194 70.7732 127.207 70.8022C127.226 70.8425 127.247 70.8731 127.26 70.8904C127.305 70.9517 127.369 71.011 127.416 71.0526C127.523 71.1492 127.688 71.2815 127.884 71.4327C128.279 71.7381 128.837 72.1469 129.411 72.5569C129.985 72.9672 130.58 73.3816 131.051 73.6986C131.287 73.8568 131.494 73.9926 131.654 74.092C131.734 74.1414 131.805 74.1843 131.865 74.2171C131.895 74.2334 131.925 74.2495 131.955 74.2633C131.97 74.2705 131.998 74.2832 132.033 74.2946C132.116 74.3285 132.198 74.3599 132.262 74.3763C132.281 74.3811 132.313 74.3884 132.35 74.3918L132.352 74.392C132.374 74.394 132.476 74.4038 132.588 74.3505C132.658 74.3166 132.743 74.2517 132.794 74.1421C132.844 74.0362 132.839 73.9371 132.827 73.8744C132.807 73.7699 132.753 73.7001 132.741 73.6836L132.74 73.6827C132.704 73.6362 132.662 73.5998 132.643 73.5833C132.617 73.5611 132.588 73.5378 132.559 73.5152C132.502 73.4706 132.427 73.4155 132.345 73.3551L132.341 73.3521C132.044 73.1328 131.603 72.8068 131.191 72.4248C130.77 72.035 130.422 71.6258 130.268 71.2512C130.194 71.0705 130.174 70.9191 130.194 70.7912C130.214 70.6689 130.276 70.5318 130.431 70.3829C130.69 70.1351 131.187 69.8748 132.062 69.6595C131.875 70.0578 131.763 70.4896 131.749 70.9412C131.725 71.7661 132.033 72.612 132.745 73.3883C133.512 74.3283 134.39 74.861 135.285 75.0558C136.181 75.2507 137.061 75.1 137.818 74.7301C139.028 74.1391 139.974 72.9564 140.172 71.6376C141.411 72.7029 142.356 73.969 143.019 75.0344C143.406 75.6577 143.694 76.2075 143.884 76.6002C143.98 76.7965 144.05 76.9531 144.097 77.0598C144.12 77.1131 144.137 77.1539 144.148 77.1808L144.16 77.2106L144.163 77.2174L144.163 77.2186ZM139.774 71.3102C139.786 71.1263 139.78 70.941 139.756 70.7559C139.911 70.87 140.063 70.9876 140.211 71.1079C141.905 72.4893 143.088 74.2444 143.789 75.4901C144.215 76.2473 144.462 76.8162 144.539 76.9985C144.556 77.0391 144.564 77.0605 144.564 77.0605C144.561 77.0329 144.558 77.0052 144.555 76.9776C144.492 76.4207 144.366 75.8642 144.185 75.3166C142.316 69.6771 134.506 64.9842 127.611 70.6048C127.591 70.6023 127.59 70.6133 127.607 70.636C127.628 70.6637 127.675 70.7089 127.745 70.7686C127.79 70.8079 127.845 70.8534 127.908 70.9043C127.911 70.9065 127.914 70.9088 127.917 70.9111C128.367 71.2725 129.222 71.8979 130.05 72.4827C130.865 73.0585 131.654 73.595 132.004 73.8008L132.008 73.8031C132.093 73.8527 132.151 73.8826 132.177 73.8885C132.498 74.0205 132.451 73.9707 132.216 73.7951C132.211 73.7914 132.206 73.7877 132.201 73.784C132.166 73.758 132.127 73.7294 132.085 73.6985C132.08 73.6949 132.076 73.6913 132.071 73.6877C131.637 73.3676 130.874 72.8012 130.343 72.163C129.446 71.0846 129.211 69.8009 132.349 69.1534C132.499 69.1224 132.657 69.0929 132.823 69.0649C132.875 69.0562 132.927 69.0479 132.978 69.0401C132.932 69.0926 132.888 69.1462 132.846 69.2007C132.762 69.31 132.684 69.4233 132.613 69.54C131.986 70.5806 131.955 71.8976 133.071 73.1064C135.751 76.4071 139.605 74.0148 139.774 71.3102ZM127.559 71.0322C127.565 71.0329 127.57 71.0334 127.575 71.0338C127.568 71.0333 127.563 71.0326 127.559 71.0322ZM138.793 84.7816C138.63 84.9734 138.47 85.1617 138.313 85.3465C133.912 90.5177 131.788 93.0143 134.936 96.136C137.404 98.5831 139.729 97.2516 141.153 95.864C142.044 94.9958 142.582 94.1056 142.582 94.1056C141.995 94.6875 141.426 95.1582 140.879 95.5299C135.677 99.0645 132.502 93.642 135.543 89.6949C136.343 88.6583 137.623 87.0008 139.128 85.0528C140.198 83.6675 141.382 82.1353 142.589 80.5751C147.253 74.5415 152.244 68.0884 152.244 68.0884C152.244 68.0884 150.046 70.7392 144.99 77.1216C144.901 77.2337 144.812 77.347 144.721 77.4613C144 78.3722 143.223 79.3564 142.388 80.4169C141.093 82.0608 139.881 83.5008 138.793 84.7816ZM154.817 84.312C154.777 84.0879 154.917 83.871 155.139 83.8169C159.127 82.8412 163.488 83.8934 166.753 86.3233C170.019 88.7538 172.198 92.4693 173.019 96.4128L173.02 96.4192C173.04 96.5233 173.029 96.6188 173.019 96.6809C173.007 96.7479 172.989 96.8095 172.973 96.8575C172.956 96.9065 172.939 96.9489 172.926 96.979C172.922 96.9887 172.918 96.9973 172.915 97.0047C172.913 97.009 172.911 97.0128 172.91 97.0162L172.904 97.0279L172.903 97.0318L172.901 97.0342C172.901 97.0342 172.901 97.0344 172.514 96.8454C172.514 96.8454 172.621 96.6268 172.597 96.5005C171.796 92.6484 169.668 89.0295 166.496 86.6687C164.456 85.1504 161.978 84.1886 159.444 83.9463C158.038 83.8118 156.615 83.8988 155.241 84.2351C155.241 84.2351 157.019 84.0223 159.393 84.374C159.777 84.4309 160.177 84.5025 160.587 84.5921C160.77 84.6321 160.955 84.6757 161.141 84.7232C160.981 84.8325 160.831 84.9439 160.691 85.057C158.665 86.6938 158.711 88.6914 159.698 90.1582C159.932 90.5064 160.219 90.8246 160.544 91.1011C160.391 91.0204 160.243 90.9415 160.1 90.865C159.85 90.7311 159.616 90.6042 159.402 90.487C158.554 90.0227 158.019 89.7096 158.019 89.7096L157.727 90.0251C157.566 89.8757 157.543 89.6291 157.674 89.4528C157.805 89.2766 158.047 89.2271 158.237 89.338L158.248 89.3446L158.283 89.3649C158.314 89.3828 158.36 89.4094 158.42 89.4438C158.54 89.5127 158.716 89.6127 158.937 89.7371C158.952 89.7453 158.967 89.7536 158.982 89.762C158.746 89.251 158.609 88.6958 158.606 88.1191C158.6 87.024 159.078 85.9158 160.161 84.9433C158.944 84.7028 157.837 84.6214 156.985 84.6051C156.46 84.5951 156.033 84.6099 155.739 84.627C155.592 84.6355 155.478 84.6447 155.402 84.6516C155.364 84.655 155.336 84.6579 155.317 84.6598L155.297 84.662L155.293 84.6625M154.817 84.312C154.858 84.5359 155.067 84.6894 155.293 84.6625L154.817 84.312ZM159.866 91.2283C158.69 90.3319 158.019 89.7096 158.019 89.7096C157.726 90.0251 157.727 90.0251 157.727 90.0251L157.728 90.0263L157.741 90.0386L157.781 90.0747C157.816 90.1061 157.867 90.1518 157.933 90.2106C158.067 90.328 158.263 90.4974 158.517 90.7075C159.025 91.1276 159.763 91.7109 160.689 92.3671C162.541 93.6782 165.153 95.2869 168.186 96.4646C169.632 97.0245 170.715 97.2305 171.45 97.2932C171.817 97.3245 172.096 97.32 172.29 97.3063C172.386 97.2995 172.461 97.2904 172.515 97.2824C172.542 97.2784 172.563 97.2746 172.579 97.2716L172.599 97.2676L172.606 97.2661L172.61 97.2652C172.61 97.2652 172.611 97.2649 172.514 96.8454L172.611 97.2649C172.738 97.2358 172.844 97.1509 172.901 97.0342L172.514 96.8454C172.514 96.8454 171.164 97.1562 168.342 96.0633C164.711 94.6536 161.684 92.6136 159.866 91.2283ZM163.626 92.6285C167.374 94.3523 171.403 95.6306 170.124 92.4007C169.514 90.8601 168.709 89.6044 167.791 88.5818C167.785 88.5762 167.78 88.5705 167.775 88.5649C167.658 88.4351 167.538 88.3083 167.418 88.1858C167.417 88.2743 167.405 88.3634 167.38 88.4515C167.357 88.5332 167.332 88.6134 167.307 88.6922C166.557 91.0628 165.149 92.0665 163.706 92.1912C163.31 92.2255 162.911 92.1936 162.522 92.1056C162.884 92.2817 163.253 92.4573 163.626 92.6285ZM164.402 92.5064C165.88 93.1602 167.333 93.7014 168.424 93.8911C168.797 93.956 169.108 93.9758 169.351 93.9528C169.597 93.9295 169.735 93.8662 169.809 93.8017C169.915 93.7102 170.068 93.4278 169.724 92.5593M164.402 92.5064C164.79 92.4046 165.171 92.24 165.534 92.0039C166.412 91.4336 167.148 90.4717 167.639 89.0611C168.454 90.0102 169.17 91.1616 169.724 92.5593M134.551 113.259C134.615 113.424 134.571 113.613 134.44 113.732C133.595 114.504 132.442 114.773 131.253 114.69C130.063 114.608 128.799 114.173 127.665 113.488C125.413 112.128 123.543 109.684 123.935 106.827C123.948 106.727 123.997 106.635 124.072 106.567C124.159 106.488 124.304 106.426 124.47 106.469C124.598 106.502 124.669 106.582 124.692 106.609C124.739 106.664 124.761 106.72 124.765 106.73L124.765 106.731C124.778 106.762 124.785 106.792 124.788 106.801C124.794 106.826 124.801 106.86 124.808 106.89L124.809 106.895C124.897 107.289 125.234 108.805 126.531 110.223C127.817 111.627 130.091 112.984 134.149 112.984C134.327 112.984 134.486 113.093 134.551 113.259ZM126.422 101.237C126.39 101.003 126.552 100.787 126.786 100.752L126.848 101.178C126.848 101.178 127.209 101.132 127.738 101.078C128.673 100.993 130.146 100.921 131.162 101.169C131.343 101.212 131.493 101.27 131.62 101.338L131.621 101.339C132.058 101.575 132.215 101.945 132.381 102.335C132.398 102.373 132.414 102.412 132.431 102.451C132.608 102.859 132.825 103.278 133.407 103.581C133.48 103.619 133.559 103.656 133.644 103.69C133.943 103.809 134.215 103.95 134.462 104.106C134.522 104.143 134.581 104.182 134.638 104.221C136.854 105.755 136.9 108.53 136.058 107.843C134.039 106.197 132.231 105.062 130.75 104.287C128.954 103.347 127.638 102.934 127.003 102.781C126.786 102.728 126.649 102.706 126.599 102.703C126.573 102.702 126.572 102.706 126.596 102.713C126.729 102.755 126.859 102.798 126.987 102.842C128.363 103.311 129.457 103.883 130.524 104.654C132.002 105.722 133.428 107.172 135.48 109.257C136.174 109.962 136.939 110.74 137.803 111.601C137.851 111.65 137.9 111.698 137.949 111.747C138.046 111.844 138.145 111.941 138.244 112.04C138.258 112.054 138.266 112.045 138.27 112.015C138.277 111.956 138.266 111.816 138.239 111.616C138.231 111.549 138.22 111.476 138.208 111.397C137.951 109.727 136.971 105.36 136.136 104.618C135.519 104.067 135.133 103.896 134.812 103.819C134.708 103.794 134.612 103.779 134.516 103.764C134.274 103.725 134.039 103.688 133.721 103.498C133.666 103.465 133.608 103.427 133.547 103.384C133.089 103.058 132.921 102.683 132.752 102.307C132.736 102.271 132.719 102.234 132.703 102.198C132.526 101.81 132.318 101.426 131.759 101.101C131.644 101.033 131.453 100.987 131.214 100.958C130.318 100.849 128.731 100.976 127.738 101.078C127.206 101.126 126.848 101.178 126.848 101.178L126.786 100.752L126.791 100.752L126.793 100.751L126.805 100.75L126.855 100.743C126.898 100.737 126.961 100.729 127.041 100.719C127.2 100.699 127.426 100.674 127.696 100.649C128.33 100.585 129.211 100.509 130.006 100.49C130.403 100.481 130.789 100.485 131.116 100.515C131.42 100.542 131.749 100.595 131.977 100.729C132.707 101.154 132.945 101.686 133.142 102.124L133.145 102.131C133.311 102.502 133.441 102.78 133.797 103.033C134.124 103.266 134.322 103.297 134.576 103.337L134.59 103.339C134.79 103.371 135.039 103.41 135.346 103.549C135.652 103.687 135.995 103.914 136.423 104.296C136.619 104.471 136.784 104.74 136.925 105.024C137.071 105.319 137.214 105.676 137.349 106.064C137.621 106.842 137.878 107.778 138.092 108.669C138.306 109.561 138.48 110.418 138.586 111.04C138.639 111.349 138.676 111.609 138.693 111.789C138.7 111.871 138.706 111.965 138.7 112.043C138.698 112.065 138.694 112.096 138.686 112.131C138.679 112.158 138.66 112.23 138.605 112.302C138.537 112.392 138.396 112.498 138.2 112.473C138.056 112.455 137.968 112.373 137.939 112.344C136.891 111.306 135.983 110.382 135.173 109.56C131.495 105.821 129.895 104.206 126.466 103.124L126.464 103.123C126.452 103.119 126.431 103.112 126.408 103.102C126.397 103.097 126.378 103.088 126.356 103.074C126.34 103.065 126.29 103.034 126.243 102.976C126.197 102.918 126.092 102.745 126.184 102.533C126.256 102.368 126.398 102.313 126.424 102.302C126.497 102.274 126.562 102.273 126.572 102.273C126.632 102.271 126.702 102.281 126.743 102.287C126.852 102.304 127.021 102.339 127.242 102.397C127.686 102.512 128.359 102.725 129.221 103.087C130.905 103.796 133.311 105.081 136.131 107.348C136.123 107.179 136.085 106.948 135.993 106.671C135.701 105.795 134.939 104.671 133.484 104.09C133.004 103.897 132.678 103.637 132.443 103.34C132.221 103.059 132.093 102.758 131.992 102.519L131.985 102.503C131.874 102.241 131.794 102.062 131.668 101.918C131.557 101.789 131.388 101.666 131.061 101.587L131.06 101.587C130.123 101.358 128.716 101.422 127.779 101.507C127.518 101.533 127.299 101.558 127.145 101.576C127.068 101.585 127.007 101.593 126.966 101.598L126.919 101.604L126.904 101.605M124.38 108.407C125.055 112.546 130.66 115.41 133.557 113.836C133.77 113.72 133.968 113.58 134.149 113.415C133.91 113.415 133.677 113.41 133.449 113.401C127.677 113.174 125.569 110.14 124.799 108.294C124.633 107.895 124.529 107.552 124.465 107.304C124.429 107.168 124.405 107.06 124.389 106.989L124.444 106.977M124.389 106.989C124.377 106.935 124.37 106.901 124.365 106.89C124.364 106.888 124.363 106.886 124.363 106.886L124.361 106.886C124.356 106.923 124.351 106.961 124.347 106.998C124.335 107.104 124.326 107.21 124.321 107.314C124.301 107.687 124.322 108.052 124.38 108.407M126.422 101.237C126.454 101.471 126.67 101.636 126.904 101.605L126.422 101.237Z" fill="#2F1B14"/>
<path fill-rule="evenodd" clip-rule="evenodd" d="M245.771 169.795C261.966 151.137 270.817 127.523 270.817 102.534C270.817 75.1515 260.203 49.4112 240.928 30.0441C221.644 10.6672 196.006 0 168.726 0C141.445 0 115.807 10.6769 96.5226 30.0489C77.2478 49.4112 66.634 75.1563 66.634 102.538C66.634 129.921 77.2478 155.661 96.5226 175.028C102.335 180.865 108.726 185.902 115.564 190.107C107.376 199.279 99.2148 208.474 91.0799 217.691L91.439 218.008L91.1104 218.178C99.1815 233.754 109.089 248.392 120.559 261.707C120.552 261.754 120.55 261.803 120.553 261.852C125.522 335.746 140.469 403.936 156.669 473.084C159.433 484.892 162.571 498.28 169.95 509.52C175.832 518.478 184.158 525.638 192.212 532.56C200.751 539.895 209.578 547.482 215.348 557.154L215.722 557.79C216.927 559.835 218.171 561.943 220.284 563.192C222.105 564.265 224.238 564.474 226.2 564.474C226.846 564.474 227.483 564.45 228.075 564.425L329.249 560.763C331.478 560.68 333.562 560.69 335.578 560.7C343.647 560.734 350.02 560.758 357.087 555.06C357.249 554.93 357.337 554.744 357.344 554.553L357.443 554.507C346.238 530.199 332.556 506.754 314.577 486.766C311.263 483.081 307.838 479.526 304.296 476.126L302.688 474.6C287.599 460.455 270.394 449.109 250.518 442.305C262.717 407.475 268.034 370.28 265.925 333.43C269.241 328.851 272.901 324.446 276.564 320.037L276.566 320.034C277.951 318.367 279.336 316.7 280.704 315.022C285.356 309.311 289.709 303.187 293.267 296.653C296.508 290.4 299.705 282.451 300.237 275.397C300.504 271.862 299.507 266.384 297.614 260.062C295.712 253.714 292.88 246.433 289.41 239.257C286.742 233.741 283.692 228.276 280.391 223.341C280.398 223.28 280.398 223.217 280.389 223.153C280.363 222.965 280.335 222.763 280.305 222.547L280.305 222.543C279.589 217.326 277.757 203.979 268.328 194.635C268.223 194.531 268.094 194.466 267.96 194.439C268.988 190.935 269.582 188.224 269.856 186.166C270.025 184.902 270.074 183.869 270.025 183.042C269.976 182.222 269.827 181.559 269.563 181.067C269.42 180.798 269.236 180.573 269.015 180.407C269.722 179.026 270.244 177.511 270.391 176.143C270.559 174.577 270.241 173.06 268.947 172.284C268.308 171.9 267.643 171.856 266.962 172.155C267.958 169.478 268.395 167.488 268.293 166.109C268.235 165.317 267.995 164.675 267.527 164.233C267.058 163.791 266.426 163.611 265.711 163.611C265.127 163.611 264.575 163.687 264.039 163.882C264.054 163.4 264.024 162.824 263.905 162.244C263.726 161.372 263.333 160.428 262.525 159.822C261.96 159.398 261.19 159.294 260.318 159.56C259.453 159.823 258.466 160.452 257.388 161.531C255.269 163.649 252.716 167.584 249.967 174.266C248.852 172.602 247.426 171.14 245.771 169.795ZM264.823 102.538C264.823 49.2752 221.712 5.94081 168.726 5.94081C115.734 5.94081 72.6283 49.2752 72.6283 102.538C72.6283 137.785 91.512 168.679 119.638 185.548C127.481 176.78 135.348 168.034 143.238 159.31C142.947 157.538 142.699 155.614 142.572 153.708C142.228 148.542 142.142 146.102 142.142 145.528C139.128 144.38 131.378 140.103 124.489 132.181C115.878 122.278 114.156 107.639 114.156 100.75C114.156 95.2389 114.443 92.713 114.586 92.1389L114.59 92.1625C116.278 77.0964 124.064 62.7014 136.112 53.3482C148.332 43.8658 164.823 39.8498 179.998 43.1224C186.236 44.4676 192.196 46.9789 197.595 50.3371C213.002 59.9166 223.621 76.6882 225.618 94.6079C227.668 113.007 221.018 131.357 211.588 147.164C211.582 147.174 211.576 147.184 211.569 147.194C211.564 147.202 211.558 147.21 211.552 147.218C217.167 152.831 223.283 156.694 229.044 159.911C230.689 160.83 232.317 161.702 233.899 162.549L233.9 162.55L233.903 162.551L233.905 162.552C236.337 163.855 238.66 165.1 240.773 166.367C255.726 149.332 264.823 126.99 264.823 102.538ZM156.541 193.213C150.996 182.855 146.962 171.78 145.025 160.769C144.417 155.803 144.25 150.543 144.266 146.959C144.287 145.781 144.809 145.724 146.447 145.958C158.989 147.751 167.278 142.26 170.175 139.073L169.219 138.204C167.592 139.994 163.816 142.711 158.313 144.116C154.663 145.17 150.374 145.572 145.586 144.667C132.953 142.277 121.132 127.161 117.209 111.129C115.774 105.453 115.326 99.3623 115.974 92.9351C117.475 78.0236 125.118 63.7279 137.006 54.4994C139.336 52.691 141.826 51.0871 144.435 49.701C155.857 53.9902 167.94 55.4146 180.063 54.0141C181.653 58.7659 184.593 63.0197 188.077 67.0034C190.621 69.9132 193.482 72.7073 196.344 75.456C195.654 78.0347 195.69 80.1642 196.157 82.0365C192.552 92.6112 190.993 99.7326 191.156 108.402C184.256 119.87 182.897 134.449 187.565 146.973C192.201 159.4 202.663 169.532 215.287 173.852C214.915 174.595 214.556 175.333 214.21 176.06C211.474 181.801 208.616 187.484 205.638 193.105C186.319 193.851 171.613 193.881 156.541 193.213ZM157.767 195.447C164.896 208.133 174.276 219.633 184.798 228.466C191.818 217.703 198.377 206.645 204.451 195.331C194.813 195.688 186.305 195.868 178.305 195.868C171.207 195.868 164.508 195.729 157.767 195.447ZM237.654 192.112C237.789 194.144 238.177 196.688 238.793 200.537C240.207 209.37 236.449 214.374 234.199 215.821C233.899 216.014 233.5 215.927 233.307 215.627C233.114 215.327 233.201 214.927 233.501 214.734C235.269 213.598 238.86 209.13 237.518 200.741C236.66 195.381 236.215 192.403 236.326 189.794C236.438 187.161 237.115 184.927 238.404 181.06C239.678 177.237 239.849 174.054 239.314 172.303C239.045 171.423 238.658 171.075 238.32 170.993C237.965 170.907 237.347 171.031 236.432 171.844C236.062 172.173 235.616 172.884 235.133 174.019C234.66 175.13 234.182 176.567 233.712 178.261C232.772 181.648 231.875 186.01 231.097 190.733C229.539 200.184 228.468 211.019 228.468 218.292C228.468 225.632 228.469 229.459 228.787 232.211C228.939 233.531 229.164 234.601 229.504 235.699C229.652 235.853 229.731 236.071 229.701 236.3L229.701 236.303C230.032 237.271 230.456 238.298 230.999 239.565C231.324 240.322 232.279 240.959 233.403 241.314C233.945 241.485 234.474 241.572 234.899 241.58C235.112 241.583 235.284 241.567 235.411 241.539L235.423 241.536L235.436 241.533C235.532 241.384 235.676 241.264 235.848 241.191C239.932 236.788 246.177 229.467 252.024 221.39C258.033 213.087 263.578 204.043 265.957 196.568C267.458 191.851 268.253 188.419 268.576 185.995C268.737 184.784 268.778 183.838 268.735 183.119C268.692 182.391 268.564 181.937 268.425 181.676C268.295 181.434 268.182 181.4 268.125 181.391C268.035 181.377 267.856 181.398 267.579 181.57C267.025 181.915 266.367 182.689 265.858 183.705C265.371 184.679 265.044 185.538 264.699 186.442L264.626 186.634C264.254 187.608 263.853 188.632 263.216 189.851C261.941 192.289 259.683 196.568 254.993 200.645C254.752 200.908 254.343 200.925 254.08 200.684C253.817 200.443 253.799 200.035 254.041 199.772C258.921 195.343 260.649 192.001 261.835 189.707L261.836 189.705L261.956 189.473L261.997 189.395L262.071 189.253C262.672 188.104 263.051 187.137 263.419 186.173L263.495 185.974C263.837 185.076 264.186 184.161 264.703 183.128C265.271 181.992 266.066 180.99 266.897 180.473C267.281 180.235 267.733 180.063 268.204 180.1C268.899 178.764 269.399 177.316 269.535 176.051C269.69 174.603 269.362 173.537 268.503 173.022C268.09 172.774 267.705 172.753 267.255 172.967C266.768 173.2 266.2 173.714 265.511 174.588C264.138 176.33 262.434 179.308 260.061 183.624C256.252 190.549 252.401 194.616 250.911 195.808C250.725 195.957 250.454 195.927 250.305 195.741C250.157 195.556 250.187 195.285 250.373 195.136C251.753 194.032 255.537 190.062 259.306 183.209C261.668 178.914 263.409 175.865 264.835 174.055C265.133 173.676 265.425 173.342 265.712 173.06C265.714 173.014 265.724 172.968 265.742 172.923C267.032 169.698 267.534 167.519 267.434 166.172C267.385 165.511 267.195 165.104 266.936 164.859C266.678 164.616 266.288 164.472 265.711 164.472C265.013 164.472 264.416 164.596 263.842 164.916C263.261 165.239 262.672 165.78 262.021 166.665C260.711 168.447 259.222 171.521 257.067 176.693C255.325 180.873 252.897 184.532 250.706 187.219C249.61 188.563 248.57 189.669 247.699 190.478C247.263 190.883 246.867 191.217 246.524 191.47C246.188 191.718 245.879 191.908 245.622 192.002C245.399 192.083 245.152 191.968 245.07 191.744C244.989 191.521 245.104 191.274 245.328 191.193C245.466 191.143 245.694 191.012 246.012 190.778C246.322 190.548 246.694 190.237 247.113 189.848C247.95 189.069 248.964 187.993 250.039 186.675C252.189 184.038 254.569 180.449 256.272 176.362C258.422 171.202 259.947 168.033 261.328 166.155C261.932 165.332 262.522 164.739 263.142 164.333C263.2 163.867 263.21 163.141 263.061 162.417C262.903 161.645 262.578 160.938 262.008 160.511C261.712 160.289 261.244 160.178 260.569 160.384C259.886 160.591 259.017 161.119 257.996 162.14C255.956 164.18 253.399 168.102 250.61 174.968C246.415 185.294 240.622 190.472 237.654 192.112ZM267.188 196.96C267.303 196.596 267.415 196.24 267.522 195.891C275.377 203.833 277.655 214.722 278.569 220.708C278.166 220.146 277.759 219.591 277.35 219.047C272.991 213.252 268.255 208.485 263.402 205.79C264.995 202.724 266.302 199.743 267.188 196.96ZM253.07 222.147C256.607 217.261 260.014 212.079 262.719 207.078C267.305 209.632 271.887 214.208 276.185 219.923C280.589 225.778 284.658 232.778 288.098 239.892C291.537 247.004 294.34 254.213 296.218 260.48C298.103 266.774 299.03 272.035 298.784 275.287C297.69 289.79 288.944 302.6 279.574 314.101C278.224 315.758 276.849 317.412 275.47 319.072L275.467 319.075L275.465 319.076C271.771 323.522 268.04 328.01 264.651 332.707C264.608 332.752 264.571 332.804 264.541 332.859C262.574 335.593 260.723 338.398 259.064 341.307C243.472 309.712 235.759 276.543 237.179 241.994C237.183 241.892 237.167 241.794 237.135 241.702C241.252 237.232 247.35 230.05 253.07 222.147ZM245.242 335.287C223.192 332.201 201.933 323.691 183.904 310.73C179.976 314.869 176.016 318.978 172.025 323.057C164.187 331.069 155.301 339.245 145.558 345.592C147.699 360.9 148.833 376.346 148.955 391.801C170.388 421.057 198.14 458.952 221.967 491.49C236.135 510.837 248.914 528.291 258.152 540.908L273.085 561.303C273.085 561.303 273.085 561.303 272.912 561.431L273.086 561.304C273.113 561.342 273.137 561.381 273.156 561.422L329.2 559.393C331.459 559.31 333.557 559.32 335.588 559.33C343.204 559.363 349.256 559.387 355.768 554.356C344.666 530.401 331.156 507.376 313.493 487.74C295.818 468.086 275.042 452.237 250.033 443.679C244.417 459.451 237.387 474.728 228.993 489.259C228.791 489.608 228.346 489.727 227.997 489.526C227.649 489.325 227.53 488.879 227.731 488.53C254.423 442.323 267.255 388.518 264.569 335.343C261.069 340.385 258.034 345.662 255.902 351.403L255.4 352.756L254.61 351.548C251.181 346.305 248.056 340.873 245.242 335.287ZM124.797 294.498C123.696 284.238 122.771 273.883 122.045 263.415C124.138 265.796 126.282 268.133 128.474 270.424C130.095 272.121 132.549 274.688 135.145 277.062C137.352 279.081 139.721 281.017 141.799 282.14C136.548 286.811 130.918 291.006 124.797 294.498ZM231.267 242.833L230.406 258.333L229.155 257.852C226.327 256.765 223.906 254.827 222.225 252.306C225.362 250.024 228.11 247.252 230.365 244.096L231.267 242.833Z" fill="#2F1B14"/>
<path d="M184.767 244.986C162.722 278.742 140.563 294.069 132.239 297.514C150.753 289.853 169.326 278.265 189.503 248C211.03 215.708 218.493 189.014 219.642 177.819C217.202 186.144 206.811 211.231 184.767 244.986Z" fill="#F8E79F"/>
<path d="M141.711 170.931C142.572 177.245 146.878 193.233 157.211 206.667C166.567 218.83 172.159 223.675 174.304 224.908C174.497 225.004 174.684 225.095 174.864 225.181C174.715 225.126 174.528 225.037 174.304 224.908C167.741 221.653 154.096 212.877 147.739 201.5C141.194 189.789 140.993 176.241 141.711 170.931Z" fill="#F8E79F"/>
<path d="M101.561 320.843L91.7666 317.75C85.0213 323.491 70.6694 334.714 67.225 333.68C62.9194 332.389 38.3778 303.111 30.1972 269.528C22.8287 239.278 24.1932 223.7 24.8513 216.186C24.9238 215.357 24.9878 214.627 25.0305 213.986C25.375 208.819 26.0351 205.231 26.3221 204.083C24.1694 196.19 19.7777 177.217 19.4333 164.472C19.0649 150.843 20.2723 148.559 20.8984 147.375C21.0042 147.175 21.0933 147.006 21.1555 146.819C21.4999 145.786 22.4472 145.528 22.8777 145.528C23.0212 144.81 23.4805 143.117 24.1694 142.083C24.8583 141.05 25.8916 140.505 26.3221 140.361C26.3222 139.213 26.7527 136.831 28.4749 136.486C30.1972 136.142 30.9148 136.343 31.0583 136.486C31.6323 135.912 33.0388 134.764 34.0722 134.764C35.3638 134.764 37.0861 135.625 39.2388 145.958C40.8284 153.588 42.6527 160.044 43.4985 162.207C43.6417 160.71 43.801 159.149 43.9749 157.583C44.836 149.833 48.711 145.958 52.1555 146.819C55.5999 147.681 58.1832 149.403 58.1832 155.431C58.1832 157.44 58.1354 159.066 58.0876 160.693C57.9919 163.946 57.8962 167.199 58.1832 173.514C58.5277 181.092 56.6045 190.449 55.5999 194.181L91.5308 212.537L110.391 189.676C103.551 185.803 69.7263 163.875 63.3499 114.528C60.8577 95.2402 63.3499 79.2222 71.0999 62.4306C67.7618 60.9102 63.9515 59.4987 60.8577 58.8099C43.0492 54.8453 -31.4263 65.6134 15.0174 229.308C45.5921 337.07 64.9516 370.17 84.4844 403.567C94.6224 420.901 104.807 438.314 116.631 466.288C144.315 531.785 133.484 560.485 124.609 566.648C130.147 567.605 142.992 561.294 150.063 528.398C156.929 496.453 137.401 436.177 119.52 380.981L119.519 380.979C114.383 365.126 109.383 349.691 105.183 335.468C103.625 330.193 102.434 325.327 101.561 320.843Z" fill="#FFE36F"/>
<path d="M168.726 5.94081C221.712 5.94081 264.823 49.2752 264.823 102.538C264.823 126.99 255.726 149.332 240.773 166.367C238.66 165.1 236.337 163.855 233.905 162.552L233.899 162.549C232.317 161.702 230.689 160.83 229.044 159.911C223.283 156.694 217.167 152.831 211.552 147.218C211.558 147.21 211.564 147.202 211.569 147.194C211.576 147.184 211.582 147.174 211.588 147.164C221.018 131.357 227.668 113.007 225.618 94.6079C223.621 76.6882 213.002 59.9166 197.595 50.3371C192.196 46.9789 186.236 44.4676 179.998 43.1224C164.823 39.8498 148.332 43.8658 136.112 53.3482C124.064 62.7014 116.278 77.0964 114.59 92.1625L114.586 92.1389C114.443 92.713 114.156 95.2389 114.156 100.75C114.156 107.639 115.878 122.278 124.489 132.181C131.378 140.103 139.128 144.38 142.142 145.528C142.142 146.102 142.228 148.542 142.572 153.708C142.699 155.614 142.947 157.538 143.238 159.31C135.348 168.034 127.481 176.78 119.638 185.548C91.512 168.679 72.6283 137.785 72.6283 102.538C72.6283 49.2752 115.734 5.94081 168.726 5.94081Z" fill="#F8E79F"/>
</svg>
