<svg width="65" height="66" viewBox="0 0 65 66" fill="none" xmlns="http://www.w3.org/2000/svg">
<path d="M32.2818 53.4166C46.7707 53.4166 58.5107 41.6766 58.5107 27.1877C58.5107 12.6987 46.7707 0.95874 32.2818 0.95874C17.7928 0.95874 6.05283 12.6987 6.05283 27.1877C6.05283 41.6766 17.7928 53.4166 32.2818 53.4166ZM29.4823 13.2409V11.1224C29.4823 9.96232 30.4155 9.02918 31.5756 9.02918H32.9753C34.1354 9.02918 35.0686 9.96232 35.0686 11.1224V13.2662C37.0231 13.367 38.9146 14.0354 40.4909 15.2081C41.1971 15.7251 41.2727 16.7591 40.6422 17.3644L38.5868 19.319C38.1076 19.7856 37.3888 19.7982 36.8214 19.4451C36.1404 19.0163 35.3838 18.802 34.5768 18.802H29.6715C28.5366 18.802 27.616 19.836 27.616 21.1096C27.616 22.1436 28.2465 23.0642 29.1418 23.329L36.9979 25.6871C40.2387 26.658 42.5085 29.7727 42.5085 33.2657C42.5085 37.5531 39.1795 41.0209 35.056 41.1344V43.2529C35.056 44.413 34.1228 45.3462 32.9627 45.3462H31.563C30.4029 45.3462 29.4697 44.413 29.4697 43.2529V41.1092C27.5152 41.0083 25.6236 40.34 24.0474 39.1672C23.3412 38.6502 23.2656 37.6162 23.8961 37.0109L25.9515 35.0563C26.4307 34.5898 27.1495 34.5772 27.7169 34.9302C28.3979 35.359 29.1545 35.5734 29.9615 35.5734H34.8668C36.0017 35.5734 36.9223 34.5393 36.9223 33.2657C36.9223 32.2317 36.2918 31.3112 35.3964 31.0463L27.5404 28.6883C24.2996 27.7173 22.0298 24.6026 22.0298 21.1096C22.0424 16.8222 25.3588 13.3544 29.4823 13.2409ZM60.5283 45.3462H56.43C53.9584 48.6248 50.8059 51.3611 47.2247 53.4166H55.2699C55.9382 53.4166 56.4805 53.8706 56.4805 54.4254V56.443C56.4805 56.9978 55.9382 57.4518 55.2699 57.4518H9.281C8.61267 57.4518 8.07044 56.9978 8.07044 56.443V54.4254C8.07044 53.8706 8.61267 53.4166 9.281 53.4166H17.3262C13.745 51.3611 10.6051 48.6248 8.12088 45.3462H4.03522C1.80324 45.3462 0 47.1494 0 49.3814V61.487C0 63.719 1.80324 65.5222 4.03522 65.5222H60.5283C62.7603 65.5222 64.5635 63.719 64.5635 61.487V49.3814C64.5635 47.1494 62.7603 45.3462 60.5283 45.3462Z" fill="#FFF9DF"/>
</svg>
