<svg width="559" height="552" viewBox="0 0 559 552" fill="none" xmlns="http://www.w3.org/2000/svg">
<path d="M349.459 231.101C350.717 230.687 352.068 230.63 353.357 230.936C354.647 231.241 355.825 231.897 356.757 232.829C357.688 233.761 358.337 234.931 358.63 236.208C360.02 240.353 360.02 244.83 358.63 248.976C356.043 257.894 353.341 266.736 350.908 275.654C342.839 305.267 334.924 334.88 326.816 364.455C321.921 380.387 315.75 395.909 308.362 410.875C306.419 415.535 303.244 419.596 299.17 422.633C295.095 425.669 290.27 427.571 285.197 428.14C268.059 430.636 250.561 428.895 234.273 423.071C230.633 421.894 227.395 419.741 224.921 416.854C222.447 413.968 220.832 410.459 220.258 406.721C215.432 385.454 209.873 364.341 205.819 342.884C203.773 332.06 200.49 321.503 199.101 310.564C197.861 297.784 198.88 284.889 202.112 272.453C202.799 268.91 204.533 265.647 207.096 263.076C209.659 260.506 212.936 258.742 216.514 258.008C227.508 254.972 238.655 252.504 249.909 250.614C258.547 249.599 267.285 251.378 274.812 255.684C284.205 261.039 293.233 266.997 301.837 273.52C305.891 276.416 309.984 279.35 313.845 282.438C316.739 284.565 319.037 287.386 320.523 290.632C321.53 292.69 321.862 295.007 321.475 297.261C321.087 299.514 319.999 301.593 318.361 303.209C316.897 304.711 314.996 305.727 312.921 306.116C310.846 306.505 308.7 306.248 306.779 305.381C302.842 303.888 299.216 301.692 296.085 298.902C289.174 293.186 282.881 286.82 276.24 280.837C273.533 278.027 270.227 275.844 266.562 274.447C262.896 273.05 258.962 272.473 255.044 272.758C253.26 272.93 251.492 273.235 249.755 273.672C239.408 276.149 229.524 280.113 219.486 283.467C217.837 283.973 216.451 285.094 215.625 286.592C223.347 285.83 229.177 282.705 236.319 281.447C228.984 289.184 221.108 295.472 217.016 304.695C220.812 300.193 224.983 296.011 229.485 292.194C242.805 330.84 252.574 369.219 250.875 410.875C252.264 408.18 252.891 405.165 252.689 402.147C253.848 381.186 250.373 360.644 246.512 340.14C243.341 323.981 238.941 308.081 233.347 292.576C232.811 291.666 232.652 290.586 232.904 289.563C233.156 288.541 233.798 287.654 234.697 287.088C237.709 284.725 240.412 281.79 243.308 279.465C250.373 273.71 264.272 274.892 271.414 280.837C274.927 283.772 278.171 287.012 281.491 290.137C286.019 294.619 290.871 298.771 296.008 302.561C299.875 305.713 304.395 307.99 309.25 309.23C311.373 309.612 311.798 310.564 311.142 312.546C310.62 314.63 309.445 316.498 307.783 317.882C299.701 324.111 293.109 332.023 288.479 341.054C280.491 356.249 273.464 371.918 267.438 387.97C264.85 394.143 263.537 400.765 263.576 407.445C264.696 407.941 264.696 407.254 264.696 406.797C266.73 395.757 270.398 385.073 275.584 375.088C279.908 365.789 284.309 356.566 288.672 347.267C292.867 338.525 298.532 330.548 305.428 323.675C308.097 320.563 311.512 318.159 315.362 316.682C319.212 315.204 323.375 314.699 327.473 315.214C327.96 315.348 328.472 315.377 328.972 315.298C329.471 315.219 329.947 315.034 330.368 314.757C326.855 311.518 326.469 311.517 313.651 313.499C313.381 310.946 314.887 309.802 316.933 308.659C325.465 303.743 327.589 297.911 323.998 288.879C323.56 288.022 323.332 287.076 323.332 286.116C323.332 285.156 323.56 284.209 323.998 283.353C325.528 280.366 326.895 277.3 328.091 274.168C328.94 271.881 329.983 270.89 332.492 271.881C333.828 272.331 335.216 272.614 336.623 272.72C339.771 273.276 343.016 272.756 345.824 271.245C348.632 269.735 350.834 267.324 352.066 264.411C353.532 261.354 353.906 257.897 353.128 254.603C352.35 251.309 350.466 248.371 347.781 246.27C347.002 245.655 346.19 245.083 345.349 244.555C339.943 241.163 339.944 240.82 343.805 235.865C344.534 234.93 345.347 234.062 346.236 233.273C347.084 232.266 348.2 231.514 349.459 231.101Z" fill="#C2AB4D"/>
<path d="M302.416 257.322C305.382 257.837 308.209 258.953 310.717 260.6C315.195 263.115 319.52 265.936 323.998 268.489C325.504 269.518 326.237 270.433 325.504 272.3C323.966 276.058 322.657 279.892 320.968 284.555C316.816 280.498 312.314 276.805 307.513 273.52C306.817 273.107 306.217 272.554 305.751 271.897C305.286 271.241 304.965 270.496 304.811 269.709C304.27 265.745 302.03 262.048 302.416 257.322Z" fill="#C2AB4D"/>
<path d="M243.114 227.823C255.143 225.385 267.524 225.153 279.638 227.138C294.502 228.967 308.323 234.455 322.338 239.219C328.747 241.391 335.156 243.793 341.333 246.575C348.282 249.662 350.753 254.311 349.557 260.6C349.372 262.03 348.893 263.409 348.147 264.649C347.402 265.89 346.407 266.966 345.225 267.812C344.042 268.659 342.695 269.257 341.269 269.57C339.843 269.883 338.366 269.905 336.932 269.633C332.958 269.039 329.163 267.595 325.812 265.402C321.218 262.582 316.74 259.571 311.991 257.018C302.476 251.285 291.288 248.869 280.217 250.157C275.38 250.849 270.446 250.405 265.815 248.861C258.257 246.761 250.276 246.63 242.651 248.48L220.454 253.181C221.194 247.194 223.753 241.568 227.793 237.043C231.839 232.512 237.181 229.297 243.114 227.823Z" fill="#C2AB4D"/>
<path d="M279.994 254.283C285.923 253.058 292.071 253.341 297.86 255.111C298.442 255.241 298.967 255.552 299.356 255.998C299.746 256.444 299.979 257.002 300.022 257.589C300.563 261.171 301.181 264.602 301.953 269.022L279.994 254.283Z" fill="#C2AB4D"/>
<path d="M299.173 204.651C297.682 211.781 297.305 219.094 298.054 226.337C291.336 225.346 285.429 223.212 278.981 222.831C284.773 215.847 291.532 209.701 299.058 204.575L299.173 204.651Z" fill="#C2AB4D"/>
<path d="M335.143 143.217C336.96 143.153 338.761 143.567 340.363 144.416C341.965 145.265 343.31 146.519 344.261 148.049C345.211 149.579 345.733 151.33 345.773 153.124C345.903 155.488 345.542 157.854 344.712 160.076C343.882 162.298 342.601 164.329 340.947 166.044C338.325 169.049 335.156 171.544 331.604 173.399C319.277 180.808 307.984 189.777 298.015 200.078C290.911 206.748 283.614 213.189 276.472 219.82C275.91 220.508 275.198 221.06 274.389 221.437C273.579 221.813 272.694 222.003 271.8 221.992C262.385 221.293 252.92 221.741 243.616 223.326C243.307 223.364 242.96 223.06 242.149 222.717L242.265 222.755C244.623 218.35 247.717 214.369 251.415 210.979C258.731 204.225 266.581 198.056 274.889 192.532C282.442 187.341 289.568 181.568 296.2 175.268C305.698 166.045 316.508 158.384 325.272 148.589C326.62 147.057 328.227 145.768 330.021 144.778C331.559 143.82 333.326 143.28 335.143 143.217Z" fill="#C2AB4D"/>
<path d="M284.116 128.352C285.995 127.931 287.958 128.069 289.758 128.747C291.558 129.425 293.114 130.614 294.231 132.163C296.282 134.825 297.515 138.013 297.783 141.348C298.542 149.153 298.607 157.009 297.977 164.825C298.03 165.518 297.938 166.214 297.705 166.87C297.473 167.526 297.105 168.127 296.625 168.636C290.306 174.955 283.518 180.799 276.316 186.119C276.312 181.445 276.049 177.365 276.24 173.285C277.012 163.332 277.243 153.346 276.935 143.368C276.823 140.82 276.966 138.266 277.359 135.745C277.543 133.964 278.298 132.287 279.513 130.957C280.728 129.628 282.34 128.715 284.116 128.352Z" fill="#C2AB4D"/>
<path fill-rule="evenodd" clip-rule="evenodd" d="M279.095 43.3799C408.952 43.38 514.185 147.156 514.185 275.125C514.184 403.094 408.952 506.869 279.095 506.869C149.238 506.869 44.004 403.094 44.0039 275.125C44.0039 147.156 149.238 43.3799 279.095 43.3799ZM287.953 124.439C285.929 124.153 283.865 124.369 281.947 125.069C280.03 125.77 278.32 126.932 276.973 128.45C275.625 129.968 274.683 131.795 274.232 133.764C273.321 136.998 272.981 140.363 273.229 143.711C274.503 157.088 273.692 170.389 274.078 183.767C274.259 185.096 274.049 186.449 273.475 187.665C272.9 188.881 271.984 189.909 270.835 190.626C264.69 195.049 258.919 199.956 253.577 205.3C248.001 210.107 243.526 216.031 240.45 222.679C240.211 223.317 239.83 223.894 239.336 224.369C238.842 224.844 238.247 225.204 237.594 225.423C232.528 227.6 228.102 231.006 224.728 235.323C221.353 239.641 219.138 244.73 218.289 250.119C218.14 251.366 217.62 252.542 216.796 253.498C215.972 254.454 214.879 255.148 213.656 255.493C210.133 256.685 206.982 258.758 204.513 261.51C202.043 264.262 200.338 267.599 199.564 271.195C196.432 283.647 195.337 296.513 196.321 309.307C197.635 318.447 199.414 327.516 201.649 336.48C206.051 359.424 212.151 381.986 217.093 404.854C217.938 410.447 220.513 415.646 224.466 419.739C228.419 423.833 233.557 426.62 239.177 427.721C252.518 431.405 266.391 432.848 280.217 431.989C296.162 430.77 307.203 423.985 313.458 409.122C321.274 391.279 327.967 372.975 333.496 354.317C340.832 328.211 347.935 302.027 355.271 275.921C357.587 267.575 360.097 259.304 362.259 250.92C363.994 245.429 363.804 239.521 361.719 234.15C361.133 232.39 360.089 230.811 358.691 229.573C357.294 228.335 355.592 227.48 353.756 227.095C351.919 226.709 350.012 226.806 348.226 227.375C346.439 227.944 344.834 228.966 343.572 230.339C341.409 232.127 339.692 234.384 338.554 236.933C337.395 240.058 335.658 240.019 332.955 238.876C323.893 235.162 314.64 231.917 305.234 229.157C303.893 228.866 302.706 228.101 301.896 227.006C301.085 225.911 300.707 224.562 300.833 223.212C300.524 217.571 301.142 211.816 301.374 206.138C301.387 204.59 301.739 203.063 302.405 201.662C303.072 200.261 304.037 199.019 305.234 198.021C313.199 190.512 321.978 183.891 331.411 178.278C335.594 175.949 339.383 172.992 342.646 169.513C346.741 165.378 349.029 159.822 349.017 154.039C349.148 151.728 348.667 149.423 347.62 147.353C346.573 145.282 344.997 143.516 343.048 142.23C341.098 140.945 338.843 140.184 336.504 140.022C334.165 139.861 331.824 140.305 329.712 141.31C325.796 142.881 322.316 145.351 319.559 148.513C313.959 154.22 307.889 159.459 301.412 164.177L301.567 151.409C301.833 146.498 301.416 141.574 300.331 136.774C299.419 132.7 296.995 129.111 293.536 126.713C291.896 125.508 289.977 124.726 287.953 124.439Z" fill="#C2AB4D"/>
<path fill-rule="evenodd" clip-rule="evenodd" d="M279.095 2.60059C431.81 2.60067 555.573 124.634 555.573 275.125C555.573 425.616 431.81 547.649 279.095 547.649C126.38 547.649 2.61623 425.616 2.61621 275.125C2.61621 124.634 126.38 2.60059 279.095 2.60059ZM279.095 40.3799C147.621 40.3799 41.0039 145.459 41.0039 275.125C41.004 404.791 147.621 509.869 279.095 509.869C410.568 509.869 517.184 404.791 517.185 275.125C517.185 145.459 410.568 40.38 279.095 40.3799Z" fill="#C2AB4D"/>
<path d="M555.573 275.125C555.573 124.634 431.81 2.60067 279.095 2.60059C126.38 2.60059 2.61621 124.634 2.61621 275.125C2.61623 425.616 126.38 547.649 279.095 547.649C431.81 547.649 555.573 425.616 555.573 275.125ZM516.185 275.125C516.185 146.529 410.857 42.198 280.628 41.3848L279.095 41.3799C148.16 41.3799 42.0039 146.025 42.0039 275.125C42.004 404.225 148.16 508.869 279.095 508.869V509.869C147.621 509.869 41.004 404.791 41.0039 275.125C41.0039 145.459 147.621 40.3799 279.095 40.3799C410.568 40.38 517.185 145.459 517.185 275.125C517.184 404.791 410.568 509.869 279.095 509.869V508.869C409.518 508.869 515.355 405.041 516.18 276.637L516.185 275.125ZM514.185 275.125C514.185 147.156 408.952 43.38 279.095 43.3799C149.238 43.3799 44.0039 147.156 44.0039 275.125C44.004 403.094 149.238 506.869 279.095 506.869C408.952 506.869 514.184 403.094 514.185 275.125ZM281.947 125.069C283.865 124.369 285.929 124.153 287.953 124.439C289.977 124.726 291.896 125.508 293.536 126.713C296.995 129.111 299.419 132.7 300.331 136.774C301.416 141.574 301.833 146.498 301.567 151.409L301.412 164.177C307.889 159.459 313.959 154.22 319.559 148.513C322.316 145.351 325.796 142.881 329.712 141.31C331.824 140.305 334.165 139.861 336.504 140.022C338.843 140.184 341.098 140.945 343.048 142.23C344.997 143.516 346.573 145.282 347.62 147.353C348.667 149.423 349.148 151.728 349.017 154.039C349.029 159.822 346.741 165.378 342.646 169.513C339.383 172.992 335.594 175.949 331.411 178.278C321.978 183.891 313.199 190.512 305.234 198.021C304.037 199.019 303.072 200.261 302.405 201.662C301.739 203.063 301.387 204.59 301.374 206.138C301.142 211.816 300.524 217.571 300.833 223.212C300.707 224.562 301.085 225.911 301.896 227.006C302.706 228.101 303.893 228.866 305.234 229.157C314.64 231.917 323.893 235.162 332.955 238.876C335.658 240.019 337.395 240.058 338.554 236.933C339.692 234.384 341.409 232.127 343.572 230.339C344.834 228.966 346.439 227.944 348.226 227.375C350.012 226.806 351.919 226.709 353.756 227.095C355.592 227.48 357.294 228.335 358.691 229.573C360.089 230.811 361.133 232.39 361.719 234.15C363.804 239.521 363.994 245.429 362.259 250.92C360.097 259.304 357.587 267.575 355.271 275.921C347.935 302.027 340.832 328.211 333.496 354.317C327.967 372.975 321.274 391.279 313.458 409.122C307.203 423.985 296.162 430.77 280.217 431.989C266.391 432.848 252.518 431.405 239.177 427.721C233.557 426.62 228.419 423.833 224.466 419.739C220.513 415.646 217.938 410.447 217.093 404.854C212.151 381.986 206.051 359.424 201.649 336.48C199.414 327.516 197.635 318.447 196.321 309.307C195.337 296.513 196.432 283.647 199.564 271.195C200.338 267.599 202.043 264.262 204.513 261.51C206.982 258.758 210.133 256.685 213.656 255.493C214.879 255.148 215.972 254.454 216.796 253.498C217.62 252.542 218.14 251.366 218.289 250.119C219.138 244.73 221.353 239.641 224.728 235.323C228.102 231.006 232.528 227.6 237.594 225.423C238.247 225.204 238.842 224.844 239.336 224.369C239.83 223.894 240.211 223.317 240.45 222.679C243.526 216.031 248.001 210.107 253.577 205.3C258.919 199.956 264.69 195.049 270.835 190.626C271.984 189.909 272.9 188.881 273.475 187.665C274.049 186.449 274.259 185.096 274.078 183.767C273.692 170.389 274.503 157.088 273.229 143.711C272.981 140.363 273.321 136.998 274.232 133.764C274.683 131.795 275.625 129.968 276.973 128.45C278.32 126.932 280.03 125.77 281.947 125.069ZM287.812 125.43C285.951 125.166 284.053 125.365 282.29 126.009C280.528 126.653 278.957 127.721 277.721 129.114C276.484 130.508 275.62 132.183 275.207 133.987L275.201 134.011L275.195 134.035C274.315 137.157 273.987 140.406 274.226 143.638C275.498 157.023 274.698 170.476 275.077 183.699C275.268 185.2 275.026 186.723 274.379 188.093C273.727 189.471 272.692 190.634 271.398 191.451C265.305 195.839 259.582 200.707 254.284 206.007L254.258 206.033L254.23 206.058C250.572 209.211 247.398 212.856 244.794 216.874C246.55 214.481 248.539 212.258 250.739 210.241C258.094 203.453 265.984 197.252 274.335 191.699C281.838 186.542 288.916 180.808 295.504 174.55L296.403 173.685C300.919 169.38 305.703 165.394 310.359 161.385C315.34 157.096 320.192 152.767 324.527 147.922C325.945 146.312 327.633 144.957 329.516 143.915C331.196 142.873 333.125 142.287 335.107 142.218C337.099 142.148 339.074 142.601 340.831 143.532C342.588 144.463 344.066 145.84 345.11 147.521C346.155 149.202 346.729 151.128 346.773 153.102C346.906 155.593 346.523 158.085 345.648 160.426C344.774 162.767 343.426 164.907 341.688 166.716C338.994 169.8 335.741 172.361 332.098 174.27C319.853 181.631 308.636 190.541 298.733 200.773L298.717 200.791L298.699 200.808C291.626 207.449 284.271 213.944 277.186 220.521C276.537 221.294 275.728 221.917 274.811 222.344C273.865 222.783 272.832 223.005 271.788 222.992H271.757L271.726 222.989C262.392 222.296 253.008 222.74 243.784 224.312L243.762 224.315L243.738 224.318C243.24 224.38 242.812 224.154 242.621 224.058C242.356 223.924 242.124 223.792 241.76 223.638L242.12 222.678L241.67 222.437C241.567 222.651 241.464 222.867 241.364 223.083C241.071 223.841 240.616 224.527 240.028 225.091C239.443 225.653 238.741 226.08 237.973 226.348C233.067 228.459 228.783 231.759 225.516 235.939C222.245 240.124 220.099 245.055 219.277 250.274C219.099 251.706 218.499 253.055 217.554 254.151C216.608 255.248 215.359 256.044 213.962 256.445C210.606 257.583 207.608 259.558 205.257 262.178C202.903 264.801 201.279 267.98 200.542 271.405L200.538 271.423L200.534 271.439C197.431 283.774 196.344 296.519 197.315 309.192C198.542 317.72 200.174 326.187 202.207 334.562L202.62 336.238L202.626 336.265L202.632 336.292C206.759 357.808 212.357 378.879 217.128 400.344L218.07 404.643L218.077 404.673L218.082 404.704C218.896 410.091 221.376 415.1 225.186 419.045C228.876 422.866 233.641 425.508 238.862 426.635L239.369 426.739L239.406 426.747L239.443 426.757C252.674 430.41 266.433 431.842 280.146 430.991C287.994 430.39 294.561 428.426 299.915 424.841C305.096 421.372 309.209 416.341 312.246 409.411L312.542 408.721C320.341 390.915 327.019 372.651 332.537 354.033C336.203 340.987 339.81 327.921 343.419 314.853C347.029 301.781 350.639 288.706 354.308 275.65C356.633 267.271 359.13 259.045 361.29 250.67L361.297 250.645L361.306 250.618C362.972 245.345 362.789 239.671 360.786 234.513L360.777 234.489L360.77 234.466C360.239 232.873 359.295 231.443 358.028 230.321C356.762 229.199 355.217 228.423 353.55 228.073C351.883 227.723 350.151 227.811 348.529 228.328C346.907 228.845 345.452 229.772 344.309 231.016L344.262 231.066L344.209 231.109C342.169 232.796 340.55 234.922 339.475 237.322C338.849 238.99 337.954 240.117 336.585 240.473C335.312 240.803 333.919 240.37 332.565 239.797C323.543 236.099 314.331 232.87 304.967 230.121C303.413 229.77 302.036 228.877 301.092 227.601C300.151 226.33 299.703 224.766 299.831 223.194C299.528 217.514 300.148 211.66 300.375 206.097C300.394 204.414 300.778 202.755 301.502 201.232C302.226 199.71 303.274 198.36 304.57 197.272C312.583 189.722 321.413 183.064 330.899 177.419L330.912 177.412L330.925 177.404C335.017 175.125 338.725 172.232 341.916 168.829L341.926 168.818L341.935 168.809C345.845 164.86 348.028 159.557 348.017 154.041V154.012L348.019 153.982C348.14 151.848 347.695 149.718 346.728 147.804C345.76 145.889 344.302 144.256 342.497 143.065C340.692 141.875 338.602 141.17 336.435 141.021C334.267 140.871 332.098 141.282 330.142 142.213L330.113 142.226L330.084 142.237C326.315 143.751 322.966 146.128 320.312 149.17L320.293 149.192L320.272 149.213C314.634 154.959 308.522 160.235 302.001 164.985L300.388 166.16L300.567 151.397V151.376L300.568 151.355C300.829 146.537 300.421 141.705 299.355 136.995V136.993C298.499 133.166 296.221 129.791 292.967 127.535L292.955 127.527L292.944 127.519C291.438 126.412 289.673 125.694 287.812 125.43ZM349.147 230.15C350.581 229.68 352.119 229.615 353.588 229.963C355.057 230.311 356.4 231.058 357.464 232.122L357.659 232.324C358.605 233.338 359.27 234.579 359.59 235.927C361.037 240.268 361.033 244.955 359.578 249.294C356.989 258.217 354.299 267.022 351.873 275.917C343.807 305.52 335.888 335.147 327.781 364.72L327.776 364.734L327.772 364.749C322.864 380.722 316.678 396.284 309.272 411.289C307.259 416.104 303.976 420.298 299.768 423.435C295.55 426.578 290.557 428.546 285.309 429.134L285.308 429.133C268.019 431.646 250.368 429.888 233.937 424.013C230.134 422.777 226.75 420.525 224.162 417.505C221.58 414.492 219.89 410.833 219.279 406.931C214.465 385.715 208.894 364.544 204.837 343.069C203.819 337.685 202.495 332.374 201.24 326.994C199.989 321.629 198.81 316.213 198.108 310.69L198.106 310.676L198.105 310.661C196.855 297.769 197.882 284.76 201.141 272.215C201.871 268.494 203.697 265.069 206.388 262.37C209.079 259.671 212.516 257.817 216.267 257.038C227.287 253.996 238.462 251.523 249.743 249.628L249.768 249.624L249.792 249.621C258.641 248.581 267.594 250.404 275.306 254.814C284.734 260.189 293.795 266.169 302.431 272.715C306.467 275.599 310.566 278.538 314.438 281.632L314.998 282.058C317.759 284.225 319.962 287.013 321.422 290.192L321.619 290.617C322.562 292.755 322.856 295.123 322.46 297.43C322.038 299.884 320.854 302.147 319.076 303.906L319.077 303.907C317.468 305.557 315.381 306.672 313.105 307.099C310.85 307.522 308.518 307.247 306.425 306.316L305.669 306.02C301.92 304.5 298.462 302.354 295.447 299.673C288.523 293.945 282.147 287.505 275.571 281.58L275.545 281.557L275.521 281.53C272.916 278.827 269.733 276.727 266.205 275.382C262.68 274.038 258.896 273.482 255.127 273.754C253.397 273.921 251.683 274.218 249.999 274.642L249.987 274.645C239.696 277.108 229.916 281.036 219.803 284.415L219.792 284.419L219.779 284.423C219.182 284.606 218.626 284.885 218.131 285.241C220.85 284.772 223.372 284.037 225.892 283.251C229.176 282.227 232.495 281.106 236.146 280.463L239.129 279.938L237.045 282.136C235.199 284.083 233.318 285.938 231.488 287.756C229.654 289.578 227.869 291.364 226.188 293.191C225.258 294.201 224.364 295.222 223.514 296.264C225.233 294.595 227.008 292.983 228.839 291.432L229.954 290.486L230.431 291.868C241.827 324.934 250.65 357.875 251.91 392.87C251.808 375.218 248.82 357.801 245.53 340.332C242.375 324.248 237.996 308.422 232.432 292.987C231.808 291.873 231.628 290.566 231.934 289.324C232.242 288.072 233.019 286.985 234.103 286.281C235.561 285.135 236.954 283.847 238.363 282.531C239.768 281.22 241.195 279.879 242.676 278.689C246.469 275.6 251.992 274.437 257.393 274.766C262.632 275.084 267.939 276.815 271.695 279.777L272.054 280.068L272.055 280.069C274.712 282.289 277.226 284.69 279.705 287.059L282.177 289.408L282.194 289.426C286.407 293.596 290.902 297.479 295.648 301.047L296.602 301.756L296.621 301.771L296.64 301.785C300.389 304.842 304.771 307.051 309.479 308.257C310.59 308.463 311.608 308.872 312.117 309.812C312.612 310.725 312.435 311.801 312.104 312.817C311.527 315.096 310.239 317.138 308.423 318.65L308.409 318.662L308.394 318.674C300.427 324.813 293.931 332.611 289.368 341.51L289.363 341.519C281.395 356.677 274.386 372.308 268.374 388.321L268.367 388.339L268.359 388.356C266.752 392.193 265.646 396.206 265.062 400.298C267.226 391.411 270.453 382.802 274.682 374.654C279.004 365.359 283.41 356.127 287.767 346.842L287.771 346.834C292.01 338 297.733 329.938 304.697 322.991C307.471 319.768 311.014 317.28 315.004 315.748C318.757 314.307 322.797 313.756 326.798 314.134L327.598 314.222L327.669 314.23L327.738 314.25C327.946 314.307 328.159 314.333 328.373 314.337C328.094 314.115 327.836 313.931 327.574 313.779C326.991 313.44 326.363 313.236 325.426 313.167C324.458 313.096 323.176 313.17 321.296 313.396C319.423 313.622 317.013 313.991 313.804 314.487L312.768 314.647L312.657 313.604C312.496 312.084 312.869 310.893 313.643 309.926C314.373 309.012 315.415 308.361 316.444 307.786C320.601 305.389 323.035 302.86 324.07 299.975C325.103 297.096 324.817 293.655 323.075 289.266C322.588 288.286 322.332 287.209 322.332 286.116C322.332 284.998 322.598 283.895 323.107 282.897L323.108 282.896C324.622 279.942 325.973 276.909 327.156 273.812C327.59 272.646 328.16 271.537 329.153 270.938C330.211 270.302 331.453 270.404 332.82 270.937C333.917 271.306 335.052 271.555 336.203 271.678L336.698 271.723L336.748 271.727L336.797 271.735C339.724 272.252 342.741 271.768 345.351 270.364C347.959 268.961 350.003 266.722 351.146 264.021L351.154 264L351.165 263.979C352.532 261.127 352.88 257.903 352.154 254.832C351.429 251.761 349.672 249.02 347.165 247.057L347.162 247.055C346.412 246.463 345.629 245.91 344.817 245.401C343.479 244.561 342.404 243.868 341.642 243.229C340.886 242.596 340.274 241.885 340.116 240.965C339.959 240.045 340.3 239.172 340.794 238.33C341.292 237.48 342.061 236.475 343.016 235.25C343.769 234.284 344.608 233.386 345.524 232.568C346.486 231.449 347.739 230.613 349.147 230.15ZM302.587 256.337C305.675 256.873 308.619 258.033 311.233 259.743C313.48 261.006 315.686 262.343 317.877 263.676C320.081 265.017 322.269 266.352 324.493 267.62L324.528 267.641L324.562 267.664C325.332 268.19 326.092 268.803 326.494 269.652C326.929 270.57 326.866 271.567 326.435 272.665L326.432 272.672L326.43 272.679C324.902 276.412 323.606 280.209 321.908 284.896L321.379 286.354L320.269 285.27C316.161 281.256 311.708 277.603 306.959 274.353C306.162 273.872 305.473 273.233 304.936 272.476C304.389 271.704 304.011 270.828 303.829 269.902L303.823 269.873L303.819 269.844C303.562 267.958 302.91 266.177 302.305 264.078C301.714 262.029 301.211 259.785 301.419 257.241L301.509 256.149L302.587 256.337ZM302.416 257.322C302.03 262.048 304.27 265.745 304.811 269.709C304.965 270.496 305.286 271.241 305.751 271.897C306.217 272.554 306.817 273.107 307.513 273.52C312.314 276.805 316.816 280.498 320.968 284.555C322.657 279.892 323.966 276.058 325.504 272.3C326.237 270.433 325.504 269.518 323.998 268.489C319.52 265.936 315.195 263.115 310.717 260.6C308.209 258.953 305.382 257.837 302.416 257.322ZM279.792 253.304C285.877 252.046 292.189 252.336 298.133 254.149C298.9 254.332 299.593 254.748 300.11 255.341C300.624 255.93 300.937 256.664 301.011 257.439C301.549 261.007 302.165 264.422 302.938 268.851L303.342 271.158L277.459 253.786L279.792 253.304ZM242.916 226.843C255.063 224.381 267.566 224.146 279.8 226.15C294.781 228.001 308.725 233.535 322.66 238.271C329.088 240.45 335.528 242.864 341.744 245.663C345.34 247.261 347.892 249.314 349.367 251.89C350.841 254.463 351.165 257.433 350.549 260.728L350.507 261.021C350.279 262.483 349.77 263.89 349.005 265.164C348.189 266.522 347.1 267.701 345.807 268.626C344.513 269.551 343.04 270.205 341.482 270.547C339.938 270.886 338.339 270.911 336.784 270.622L336.015 270.496C332.188 269.818 328.537 268.376 325.289 266.255L323.559 265.182C319.826 262.849 316.201 260.482 312.398 258.379L311.496 257.887L311.476 257.874C302.156 252.26 291.197 249.89 280.352 251.147C275.38 251.857 270.309 251.404 265.548 249.825L264.854 249.638C257.666 247.764 250.114 247.698 242.888 249.452L242.873 249.456L242.858 249.459L219.29 254.449L219.462 253.058C220.227 246.868 222.872 241.053 227.047 236.377C231.227 231.695 236.746 228.375 242.873 226.853L242.916 226.843ZM279.638 227.138C267.524 225.153 255.143 225.385 243.114 227.823C237.181 229.297 231.839 232.512 227.793 237.043C223.753 241.568 221.194 247.194 220.454 253.181L242.651 248.48C250.276 246.63 258.257 246.761 265.815 248.861C270.446 250.405 275.38 250.849 280.217 250.157C291.288 248.869 302.476 251.285 311.991 257.018C316.74 259.571 321.218 262.582 325.812 265.402C329.163 267.595 332.958 269.039 336.932 269.633C338.366 269.905 339.843 269.883 341.269 269.57C342.695 269.257 344.042 268.659 345.225 267.812C346.407 266.966 347.402 265.89 348.147 264.649C348.893 263.409 349.372 262.03 349.557 260.6C350.753 254.311 348.282 249.662 341.333 246.575C335.156 243.793 328.747 241.391 322.338 239.219C308.323 234.455 294.502 228.967 279.638 227.138ZM297.86 255.111C292.071 253.341 285.923 253.058 279.994 254.283L301.953 269.022C301.181 264.602 300.563 261.171 300.022 257.589C299.979 257.002 299.746 256.444 299.356 255.998C298.967 255.552 298.442 255.241 297.86 255.111ZM300.291 204.191L300.151 204.856C298.682 211.885 298.311 219.095 299.049 226.234L299.181 227.514L297.908 227.326C294.501 226.824 291.292 226.03 288.196 225.331C285.081 224.628 282.06 224.015 278.923 223.829L276.951 223.713L278.212 222.192C284.064 215.136 290.892 208.928 298.495 203.749L299.049 203.371L300.291 204.191ZM299.058 204.575C291.532 209.701 284.773 215.847 278.981 222.831C285.429 223.212 291.336 225.346 298.054 226.337C297.305 219.094 297.682 211.781 299.173 204.651L299.058 204.575ZM335.143 143.217C333.326 143.28 331.559 143.82 330.021 144.778C328.227 145.768 326.62 147.057 325.272 148.589C316.508 158.384 305.698 166.045 296.2 175.268C289.568 181.568 282.442 187.341 274.889 192.532C266.581 198.056 258.731 204.225 251.415 210.979C247.717 214.369 244.623 218.35 242.265 222.755L242.149 222.717C242.96 223.06 243.307 223.364 243.616 223.326C252.92 221.741 262.385 221.293 271.8 221.992C272.694 222.003 273.579 221.813 274.389 221.437C275.198 221.06 275.91 220.508 276.472 219.82C283.614 213.189 290.911 206.748 298.015 200.078C307.984 189.777 319.277 180.808 331.604 173.399C335.156 171.544 338.325 169.049 340.947 166.044C342.601 164.329 343.882 162.298 344.712 160.076C345.542 157.854 345.903 155.488 345.773 153.124C345.733 151.33 345.211 149.579 344.261 148.049C343.31 146.519 341.965 145.265 340.363 144.416C338.761 143.567 336.96 143.153 335.143 143.217ZM283.916 127.372C285.979 126.914 288.134 127.067 290.11 127.812C292.083 128.555 293.792 129.856 295.023 131.553C297.188 134.363 298.492 137.729 298.778 141.251L298.914 142.726C299.547 150.083 299.568 157.48 298.978 164.842C299.027 165.643 298.916 166.446 298.647 167.204C298.368 167.992 297.927 168.713 297.353 169.322L297.332 169.343C290.978 175.698 284.151 181.574 276.91 186.924L275.318 188.1L275.316 186.12C275.312 181.539 275.049 177.34 275.241 173.238L275.242 173.223L275.243 173.208C276.012 163.291 276.242 153.341 275.935 143.399C275.822 140.789 275.968 138.173 276.371 135.591C276.586 133.614 277.428 131.756 278.774 130.282C280.048 128.889 281.711 127.907 283.546 127.455L283.916 127.372ZM289.758 128.747C287.958 128.069 285.995 127.931 284.116 128.352C282.34 128.715 280.728 129.628 279.513 130.957C278.298 132.287 277.543 133.964 277.359 135.745C276.966 138.266 276.823 140.82 276.935 143.368C277.243 153.346 277.012 163.332 276.24 173.285C276.049 177.365 276.312 181.445 276.316 186.119C283.518 180.799 290.306 174.955 296.625 168.636C297.105 168.127 297.473 167.526 297.705 166.87C297.938 166.214 298.03 165.518 297.977 164.825C298.607 157.009 298.542 149.153 297.783 141.348C297.515 138.013 296.282 134.825 294.231 132.163C293.114 130.614 291.558 129.425 289.758 128.747ZM323.332 286.116C323.332 287.076 323.56 288.022 323.998 288.879C327.589 297.911 325.465 303.743 316.933 308.659C314.887 309.802 313.381 310.946 313.651 313.499C326.469 311.517 326.855 311.518 330.368 314.757C329.947 315.034 329.471 315.219 328.972 315.298C328.472 315.377 327.96 315.348 327.473 315.214C323.375 314.699 319.212 315.204 315.362 316.682C311.512 318.159 308.097 320.563 305.428 323.675C298.532 330.548 292.867 338.525 288.672 347.267C284.309 356.566 279.908 365.789 275.584 375.088C270.398 385.073 266.73 395.757 264.696 406.797C264.696 407.254 264.696 407.941 263.576 407.445C263.537 400.765 264.85 394.143 267.438 387.97C273.464 371.918 280.491 356.249 288.479 341.054C293.109 332.023 299.701 324.111 307.783 317.882C309.445 316.498 310.62 314.63 311.142 312.546C311.798 310.564 311.373 309.612 309.25 309.23C304.395 307.99 299.875 305.713 296.008 302.561C290.871 298.771 286.019 294.619 281.491 290.137C278.171 287.012 274.927 283.772 271.414 280.837C264.272 274.892 250.373 273.71 243.308 279.465C240.412 281.79 237.709 284.725 234.697 287.088C233.798 287.654 233.156 288.541 232.904 289.563C232.652 290.586 232.811 291.666 233.347 292.576C238.941 308.081 243.341 323.981 246.512 340.14C250.373 360.644 253.848 381.186 252.689 402.147C252.891 405.165 252.264 408.18 250.875 410.875C252.574 369.219 242.805 330.84 229.485 292.194C224.983 296.011 220.812 300.193 217.016 304.695C221.108 295.472 228.984 289.184 236.319 281.447C229.177 282.705 223.347 285.83 215.625 286.592C216.451 285.094 217.837 283.973 219.486 283.467C229.524 280.113 239.408 276.149 249.755 273.672C251.492 273.235 253.26 272.93 255.044 272.758C258.962 272.473 262.896 273.05 266.562 274.447C270.227 275.844 273.533 278.027 276.24 280.837C282.881 286.82 289.174 293.186 296.085 298.902C299.216 301.692 302.842 303.888 306.779 305.381C308.7 306.248 310.846 306.505 312.921 306.116C314.996 305.727 316.897 304.711 318.361 303.209C319.999 301.593 321.087 299.514 321.475 297.261C321.862 295.007 321.53 292.69 320.523 290.632C319.037 287.386 316.739 284.565 313.845 282.438C309.984 279.35 305.891 276.416 301.837 273.52C293.233 266.997 284.205 261.039 274.812 255.684C267.285 251.378 258.547 249.599 249.909 250.614C238.655 252.504 227.508 254.972 216.514 258.008C212.936 258.742 209.659 260.506 207.096 263.076C204.533 265.647 202.799 268.91 202.112 272.453C198.88 284.889 197.861 297.784 199.101 310.564C200.49 321.503 203.773 332.06 205.819 342.884C209.873 364.341 215.432 385.454 220.258 406.721C220.832 410.459 222.447 413.968 224.921 416.854C227.395 419.741 230.633 421.894 234.273 423.071C250.561 428.895 268.059 430.636 285.197 428.14C290.27 427.571 295.095 425.669 299.17 422.633C303.244 419.596 306.419 415.535 308.362 410.875C315.75 395.909 321.921 380.387 326.816 364.455C334.924 334.88 342.839 305.267 350.908 275.654C353.341 266.736 356.043 257.894 358.63 248.976C360.02 244.83 360.02 240.353 358.63 236.208C358.337 234.931 357.688 233.761 356.757 232.829C355.825 231.897 354.647 231.241 353.357 230.936C352.068 230.63 350.717 230.687 349.459 231.101C348.2 231.514 347.084 232.266 346.236 233.273C345.347 234.062 344.534 234.93 343.805 235.865C339.944 240.82 339.943 241.163 345.349 244.555C346.19 245.083 347.002 245.655 347.781 246.27C350.466 248.371 352.35 251.309 353.128 254.603C353.906 257.897 353.532 261.354 352.066 264.411C350.834 267.324 348.632 269.735 345.824 271.245C343.016 272.756 339.771 273.276 336.623 272.72C335.216 272.614 333.828 272.331 332.492 271.881C329.983 270.89 328.94 271.881 328.091 274.168C326.895 277.3 325.528 280.366 323.998 283.353C323.56 284.209 323.332 285.156 323.332 286.116ZM515.18 276.63C514.362 403.97 409.806 507.057 280.622 507.864L279.095 507.869C148.699 507.869 43.004 403.66 43.0039 275.125C43.0039 146.59 148.699 42.3799 279.095 42.3799C409.49 42.38 515.185 146.59 515.185 275.125L515.18 276.63ZM556.573 275.125C556.573 425.591 433.317 547.692 280.89 548.644L279.095 548.649C126.439 548.649 2.58718 427.136 1.62207 276.894L1.61621 275.125C1.61621 124.068 125.841 1.60059 279.095 1.60059L280.89 1.60645C433.317 2.55831 556.573 124.659 556.573 275.125Z" fill="#C2AB4D"/>
<path d="M555.957 275.524C555.957 125.034 432.194 3.00008 279.479 3C126.763 3 3 125.034 3 275.524C3.00002 426.015 126.763 548.049 279.479 548.049C432.194 548.049 555.957 426.015 555.957 275.524ZM514.568 275.524C514.568 147.556 409.335 43.7795 279.479 43.7793C149.621 43.7793 44.3877 147.555 44.3877 275.524C44.3878 403.493 149.621 507.269 279.479 507.269C409.335 507.268 514.568 403.493 514.568 275.524ZM517.568 275.524C517.568 405.19 410.952 510.268 279.479 510.269C148.005 510.269 41.3878 405.19 41.3877 275.524C41.3877 145.858 148.005 40.7793 279.479 40.7793C410.952 40.7795 517.568 145.859 517.568 275.524ZM558.957 275.524C558.957 427.712 433.81 551.049 279.479 551.049C125.147 551.049 1.67307e-05 427.713 0 275.524C0 123.336 125.147 0 279.479 0C433.81 8.13178e-05 558.957 123.336 558.957 275.524Z" fill="#706444"/>
<path d="M301.796 164.576C308.273 159.859 314.342 154.619 319.942 148.912C322.7 145.75 326.18 143.281 330.096 141.709C332.208 140.704 334.549 140.26 336.888 140.422C339.227 140.584 341.482 141.345 343.432 142.63C345.381 143.916 346.957 145.681 348.004 147.752C349.051 149.823 349.532 152.128 349.4 154.438C349.412 160.221 347.125 165.777 343.03 169.912C339.768 173.391 335.977 176.348 331.795 178.678C322.362 184.29 313.584 190.911 305.619 198.42C304.421 199.418 303.456 200.661 302.789 202.062C302.123 203.463 301.771 204.99 301.758 206.537C301.526 212.216 300.908 217.971 301.217 223.612C301.091 224.962 301.469 226.311 302.279 227.406C303.09 228.501 304.277 229.266 305.619 229.557C315.024 232.317 324.277 235.561 333.339 239.276C336.042 240.419 337.779 240.457 338.937 237.332C340.075 234.783 341.793 232.527 343.956 230.738C345.218 229.366 346.822 228.344 348.609 227.774C350.396 227.205 352.303 227.109 354.139 227.494C355.976 227.88 357.678 228.735 359.075 229.973C360.472 231.211 361.516 232.789 362.102 234.55C364.188 239.92 364.378 245.828 362.643 251.319C360.481 259.703 357.971 267.974 355.655 276.32C348.319 302.427 341.215 328.61 333.88 354.716C328.35 373.375 321.658 391.678 313.842 409.521C307.588 424.385 296.546 431.169 280.6 432.388C266.775 433.247 252.901 431.804 239.56 428.12C233.941 427.019 228.803 424.232 224.85 420.138C220.897 416.045 218.322 410.846 217.476 405.253C212.534 382.386 206.434 359.823 202.033 336.88C199.797 327.916 198.019 318.847 196.705 309.706C195.721 296.913 196.816 284.046 199.948 271.594C200.722 267.998 202.426 264.661 204.896 261.909C207.366 259.157 210.517 257.084 214.04 255.892C215.263 255.548 216.356 254.853 217.18 253.897C218.004 252.941 218.524 251.765 218.673 250.518C219.522 245.13 221.736 240.04 225.111 235.722C228.486 231.405 232.912 227.999 237.977 225.822C238.63 225.603 239.226 225.244 239.72 224.769C240.214 224.294 240.595 223.716 240.834 223.078C243.91 216.43 248.385 210.506 253.961 205.699C259.302 200.356 265.074 195.448 271.219 191.026C272.368 190.309 273.284 189.281 273.859 188.065C274.433 186.849 274.643 185.496 274.462 184.166C274.076 170.788 274.886 157.487 273.612 144.11C273.365 140.762 273.705 137.397 274.616 134.163C275.067 132.194 276.009 130.368 277.356 128.85C278.703 127.332 280.413 126.169 282.331 125.469C284.249 124.769 286.313 124.552 288.337 124.839C290.361 125.126 292.28 125.907 293.92 127.112C297.379 129.51 299.804 133.099 300.715 137.174C301.801 141.974 302.216 146.898 301.951 151.809L301.796 164.576ZM216.009 286.992C216.835 285.494 218.22 284.373 219.87 283.866C229.908 280.513 239.792 276.549 250.139 274.072C251.876 273.635 253.644 273.329 255.428 273.157C259.346 272.872 263.28 273.45 266.945 274.847C270.61 276.244 273.916 278.426 276.624 281.237C283.264 287.22 289.558 293.585 296.468 299.302C299.6 302.092 303.225 304.288 307.163 305.781C309.084 306.648 311.23 306.905 313.305 306.515C315.379 306.126 317.281 305.11 318.745 303.608C320.383 301.993 321.471 299.914 321.859 297.66C322.246 295.407 321.913 293.09 320.907 291.031C319.421 287.785 317.123 284.965 314.228 282.837C310.367 279.75 306.275 276.816 302.221 273.919C293.617 267.397 284.589 261.438 275.195 256.083C267.669 251.778 258.931 249.999 250.293 251.014C239.039 252.904 227.891 255.372 216.897 258.408C213.32 259.142 210.043 260.905 207.48 263.476C204.917 266.047 203.183 269.309 202.496 272.852C199.264 285.288 198.245 298.184 199.485 310.964C200.875 321.902 204.156 332.459 206.203 343.283C210.257 364.74 215.816 385.854 220.642 407.12C221.216 410.859 222.83 414.367 225.305 417.254C227.779 420.14 231.017 422.292 234.657 423.47C250.945 429.294 268.443 431.036 285.581 428.539C290.654 427.97 295.479 426.069 299.554 423.032C303.628 419.995 306.803 415.935 308.746 411.274C316.134 396.308 322.305 380.786 327.2 364.854C335.308 335.279 343.223 305.666 351.292 276.053C353.724 267.135 356.427 258.293 359.013 249.375C360.404 245.23 360.404 240.753 359.013 236.608C358.721 235.331 358.072 234.16 357.141 233.228C356.209 232.296 355.031 231.64 353.742 231.335C352.452 231.03 351.101 231.087 349.843 231.5C348.584 231.913 347.468 232.666 346.62 233.673C345.731 234.462 344.917 235.329 344.188 236.265C340.327 241.219 340.327 241.562 345.732 244.954C346.574 245.482 347.386 246.055 348.165 246.669C350.849 248.771 352.734 251.708 353.512 255.002C354.29 258.296 353.916 261.753 352.45 264.81C351.218 267.723 349.016 270.134 346.208 271.644C343.4 273.155 340.155 273.675 337.007 273.119C335.6 273.013 334.211 272.731 332.876 272.28C330.366 271.289 329.324 272.28 328.475 274.567C327.278 277.699 325.912 280.765 324.382 283.752C323.944 284.609 323.716 285.555 323.716 286.515C323.716 287.475 323.944 288.421 324.382 289.278C327.973 298.311 325.849 304.142 317.317 309.058C315.271 310.202 313.765 311.345 314.035 313.899C326.853 311.917 327.239 311.917 330.752 315.156C330.332 315.434 329.855 315.618 329.355 315.697C328.856 315.776 328.344 315.748 327.857 315.614C323.759 315.099 319.596 315.603 315.746 317.081C311.896 318.558 308.481 320.962 305.812 324.074C298.916 330.947 293.251 338.924 289.056 347.666C284.693 356.965 280.292 366.188 275.967 375.487C270.782 385.472 267.113 396.157 265.08 407.196C265.08 407.654 265.08 408.34 263.96 407.844C263.922 401.164 265.234 394.543 267.821 388.369C273.848 372.317 280.875 356.649 288.863 341.453C293.493 332.422 300.084 324.51 308.167 318.281C309.828 316.897 311.004 315.03 311.526 312.946C312.182 310.964 311.757 310.011 309.634 309.63C304.779 308.39 300.258 306.113 296.391 302.96C291.254 299.171 286.403 295.019 281.875 290.536C278.554 287.411 275.311 284.171 271.798 281.237C264.655 275.291 250.756 274.11 243.691 279.865C240.796 282.189 238.093 285.124 235.082 287.487C234.182 288.053 233.539 288.94 233.288 289.963C233.036 290.986 233.194 292.065 233.73 292.975C239.324 308.48 243.725 324.38 246.896 340.539C250.756 361.043 254.231 381.585 253.073 402.547C253.274 405.564 252.648 408.579 251.258 411.274C252.957 369.618 243.189 331.239 229.869 292.594C225.367 296.41 221.196 300.592 217.399 305.095C221.491 295.872 229.368 289.583 236.703 281.846C229.561 283.104 223.731 286.229 216.009 286.992ZM220.719 253.606L243.035 248.88C250.66 247.029 258.641 247.16 266.2 249.261C270.83 250.804 275.764 251.248 280.6 250.557C291.671 249.269 302.86 251.684 312.375 257.417C317.124 259.97 321.602 262.981 326.197 265.801C329.547 267.994 333.342 269.438 337.316 270.032C338.751 270.304 340.227 270.283 341.653 269.97C343.079 269.657 344.425 269.058 345.608 268.212C346.791 267.366 347.786 266.289 348.531 265.049C349.276 263.808 349.756 262.43 349.941 260.999C351.137 254.711 348.667 250.061 341.717 246.974C335.54 244.192 329.131 241.791 322.722 239.618C308.707 234.855 294.885 229.366 280.021 227.537C267.907 225.553 255.527 225.785 243.498 228.223C237.564 229.697 232.222 232.911 228.177 237.443C224.131 241.974 221.571 247.609 220.835 253.606H220.719ZM242.533 223.116C243.344 223.459 243.691 223.764 244 223.726C253.303 222.14 262.769 221.692 272.184 222.392C273.078 222.403 273.964 222.213 274.773 221.836C275.582 221.46 276.294 220.907 276.855 220.22C283.998 213.588 291.295 207.147 298.399 200.478C308.368 190.177 319.661 181.208 331.988 173.799C335.539 171.944 338.708 169.449 341.331 166.444C342.985 164.728 344.266 162.697 345.096 160.476C345.925 158.254 346.287 155.888 346.157 153.524C346.117 151.729 345.595 149.978 344.644 148.448C343.694 146.918 342.349 145.665 340.747 144.816C339.145 143.967 337.343 143.553 335.526 143.617C333.709 143.68 331.942 144.219 330.405 145.177C328.611 146.167 327.004 147.456 325.656 148.988C316.892 158.783 306.082 166.444 296.584 175.667C289.952 181.967 282.826 187.74 275.273 192.931C266.965 198.456 259.115 204.624 251.799 211.378C248.101 214.768 245.007 218.749 242.649 223.154L242.533 223.116ZM276.585 186.605C283.829 181.262 290.656 175.389 297.009 169.035C297.489 168.527 297.856 167.925 298.089 167.269C298.322 166.613 298.414 165.917 298.36 165.224C298.991 157.408 298.926 149.552 298.167 141.747C297.899 138.413 296.666 135.225 294.615 132.562C293.498 131.013 291.941 129.825 290.141 129.147C288.342 128.468 286.379 128.331 284.5 128.751C282.724 129.115 281.111 130.027 279.896 131.357C278.681 132.686 277.927 134.363 277.743 136.145C277.35 138.666 277.208 141.219 277.319 143.767C277.628 153.745 277.396 163.732 276.624 173.685C276.431 177.801 276.701 181.917 276.701 186.643L276.585 186.605ZM321.332 285.01C323.031 280.322 324.343 276.473 325.888 272.7C326.621 270.832 325.888 269.917 324.382 268.888C319.904 266.335 315.579 263.515 311.101 260.999C308.593 259.353 305.767 258.237 302.8 257.722C302.414 262.447 304.653 266.144 305.194 270.108C305.349 270.895 305.669 271.641 306.135 272.297C306.6 272.954 307.2 273.506 307.896 273.919C312.735 277.23 317.269 280.954 321.448 285.048L321.332 285.01ZM299.441 204.975C291.915 210.101 285.157 216.246 279.365 223.23C285.813 223.611 291.72 225.746 298.437 226.737C297.689 219.494 298.066 212.181 299.557 205.051L299.441 204.975ZM280.137 254.52L302.337 269.422C301.565 265.001 300.947 261.571 300.406 257.988C300.363 257.401 300.129 256.843 299.74 256.397C299.351 255.951 298.826 255.64 298.244 255.511C292.352 253.709 286.086 253.447 280.06 254.749L280.137 254.52Z" fill="#706444"/>
</svg>
