<svg width="30" height="30" viewBox="0 0 52 42"  xmlns="http://www.w3.org/2000/svg">
<path fill = "#FFF9DF" d="M51.0148 14.5226C51.4109 14.1916 52 14.5013 52 15.0244V36.8591C52 39.6885 49.8164 41.9841 47.125 41.9841H4.875C2.18359 41.9841 0 39.6885 0 36.8591V15.0351C0 14.5013 0.578906 14.2023 0.985156 14.5333C3.26016 16.3911 6.27656 18.7507 16.6359 26.6625C18.7789 28.3067 22.3945 31.7661 26 31.7447C29.6258 31.7768 33.3125 28.2427 35.3742 26.6625C45.7336 18.7507 48.7398 16.3804 51.0148 14.5226ZM26 28.3174C28.3563 28.3601 31.7484 25.1997 33.4547 23.8971C46.932 13.6151 47.9578 12.7182 51.0656 10.1557C51.6547 9.67521 52 8.92782 52 8.13772V6.10907C52 3.27964 49.8164 0.98407 47.125 0.98407H4.875C2.18359 0.98407 0 3.27964 0 6.10907V8.13772C0 8.92782 0.345312 9.66454 0.934375 10.1557C4.04219 12.7075 5.06797 13.6151 18.5453 23.8971C20.2516 25.1997 23.6437 28.3601 26 28.3174Z" />
</svg>
