<svg width="2048" height="1202" viewBox="0 0 2048 1202" fill="none" xmlns="http://www.w3.org/2000/svg">
<path d="M410.263 160.495L451.684 169.666L493.105 151.324L529.348 132.982L560.414 155.91L632.9 137.567L731.275 160.495L767.518 123.811L829.65 128.396L865.893 77.9548L886.604 64.1981L891.781 27.5135L943.557 0L1031.58 22.9279L1073 77.9548H1205.67L1268 123.811L1331.88 110.054L1378.48 128.396L1397 148L1425 128.396L1450.96 123.811L1476.85 132.982L1554.52 114.639L1606.29 174.252L1658.07 197.18L1701 180L1740 174.252L1778 197.18L1828 151.324H1896L1942 174.252L2048 165.081V1202H0V258L13 215L66 186L124 160.495L174 155L195 176L232 186L263 176L289 145L342.954 132.982L410.263 160.495Z" fill="#A08A2C"/>
<path d="M1010.87 105.468L969.446 77.9548L948.735 73.3692L917.67 82.5404L964.268 91.7116L969.446 105.468H1010.87Z" fill="#F8E79F"/>
<path d="M1005.69 82.5404V68.7837L990.156 59.6125V41.2702L979.801 27.5135L959.091 36.6846L974.623 50.4414L943.558 45.8558L1005.69 82.5404Z" fill="#F8E79F"/>
<path d="M1026.4 36.6846L995.334 22.9279L1021.22 41.2702L1010.87 55.0269H1031.58L1047.11 73.3692L1026.4 87.126L1073 96.2971L1083.35 119.225L1088.53 96.2971L1098.89 87.126L1062.64 82.5404L1047.11 55.0269L1026.4 36.6846Z" fill="#F8E79F"/>
<path d="M938.38 64.1981L917.67 41.2702L928.025 27.5135L948.735 13.7567L902.137 27.5135L907.314 41.2702L896.959 50.4414L902.137 68.7837L907.314 55.0269L938.38 64.1981Z" fill="#F8E79F"/>
<path d="M1098.89 123.811L1124.77 151.324L1114.65 110.964L1145.48 110.054L1176.55 91.7116L1124.77 87.126L1109.24 96.2971L1098.89 123.811Z" fill="#F8E79F"/>
<path d="M482.75 206.351L477.572 174.252L524.171 151.324L498.283 160.495H487.927L456.862 174.252H399.908L425.796 183.423H456.862L482.75 206.351Z" fill="#F8E79F"/>
<path d="M498.283 188.009L513.815 165.081V178.838L555.236 192.594H508.638V215.522L498.283 188.009Z" fill="#F8E79F"/>
<path d="M524.171 169.666L534.526 151.324L607.013 188.009L596.657 192.594L607.013 215.522L550.059 169.666H524.171Z" fill="#F8E79F"/>
<path d="M1575.23 169.666L1580.4 165.081L1564.87 155.91H1580.4L1549.34 128.396L1497.56 137.567L1549.34 142.153L1528.63 174.252L1549.34 165.081L1575.23 169.666Z" fill="#F8E79F"/>
<path d="M1570.05 188.009L1590.76 174.252L1601.12 183.423L1621.83 188.009L1632.18 215.522L1611.47 192.594V224.693L1590.76 188.009H1570.05Z" fill="#F8E79F"/>
</svg>
