<svg width="415" height="941" viewBox="0 0 415 941" fill="none" xmlns="http://www.w3.org/2000/svg">
<path d="M179.366 864.561C179.366 864.561 185.967 881.071 177.842 882.783C169.716 884.494 135.387 884.034 126.657 885.659C117.927 887.284 87.3947 892.764 86.388 882.308C85.3813 871.852 92.8598 870.99 97.8934 869.753C102.927 868.516 147.395 842.715 154.601 822.566C161.806 802.417 182.947 836.2 179.366 864.561Z" fill="#7C6F4E"/>
<path d="M221.332 865.841C221.332 865.841 215.105 881.258 223.36 882.437C231.615 883.617 266.333 881.56 275.134 882.667C283.936 883.775 315.029 887.298 315.734 877.691C316.439 868.084 308.874 867.624 303.783 866.761C298.692 865.898 253.03 844.426 245.192 826.305C237.353 808.184 216.917 840.025 221.332 865.841Z" fill="#7C6F4E"/>
<path d="M300.516 191.134L281.337 217.287L139.24 219.902L123.548 198.98L112.215 176.314L107.856 144.93L112.215 108.316L132.266 70.8305L165.393 44.6776L195.904 36.8318H229.031L267.389 53.3953L297.901 88.2658L310.105 125.752V158.007L300.516 191.134Z" fill="#F8E79F"/>
<path d="M256.928 141.443L270.876 229.491L259.543 245.183L242.108 270.464L224.673 297.489H191.546L177.597 264.362L149.701 226.004L162.777 141.443H256.928Z" fill="#C2AB4D"/>
<path d="M362.345 309.21C352.048 292.714 340.772 276.937 329.008 261.52C327.948 260.314 327.154 258.897 326.678 257.363C326.242 255.624 325.709 253.91 325.082 252.229C318.941 242.306 313.073 233.015 306.832 227.636C305.946 227.144 305.144 226.513 304.459 225.767C299.394 222.278 294.147 219.061 288.739 216.131C305.884 195.549 315.206 169.571 315.058 142.784C315.058 81.5321 267.713 31.6993 209.51 31.6993C151.307 31.6993 103.963 81.4746 103.963 142.726C103.776 169.513 113.085 195.499 130.238 216.073C122.3 220.775 114.83 226.227 107.932 232.354C106.503 234.02 105.159 235.758 103.905 237.56C99.7375 243.401 96.47 249.834 94.2117 256.644C92.4859 262.109 88.646 265.935 85.4964 270.293C72.1213 288.773 58.7895 307.254 47.7011 327.331C41.9484 337.686 41.7902 348.659 42.5381 359.848C43.3639 372.367 45.6469 384.747 49.3407 396.737C53.0224 408.588 57.7108 419.892 67.1596 428.377C72.1501 432.878 78.3199 434.748 84.5759 436.388C87.5386 437.164 90.5444 437.739 93.5645 438.257C93.9375 438.318 94.3004 438.429 94.6432 438.588C100.108 438.947 103.718 438.947 103.718 438.947L103.43 444.297L90.6307 853.214C101.029 864.633 127.75 859.427 136.997 860.275C156.183 862.044 156.082 878.065 198.566 877.174C242.631 876.239 232.32 869.005 254.166 865.668C276.011 862.332 272.157 866.215 288.509 864.043C304.861 861.872 306.544 854.767 315.504 852.538C315.504 852.538 318.97 853.084 319.027 853.084C319.401 703.859 319.027 444.312 319.027 441.551H326.434C326.434 441.551 330.676 441.076 336.918 439.997C338.802 439.552 340.672 439.019 342.556 438.459C349.157 436.459 353.27 431.785 356.549 426.105C363.625 413.894 366.789 400.318 369.234 386.569C371.694 372.412 373.007 358.08 373.16 343.711C373.448 330.912 368.946 319.795 362.345 309.21ZM77.5864 296.726C70.6688 307.642 63.7943 318.601 57.6965 330.034C54.5156 336.14 52.788 342.898 52.6485 349.781C52.0157 366.018 54.5468 381.895 57.9697 397.686C58.3292 399.326 58.6744 400.965 59.034 402.619C56.0956 396.434 53.8202 389.954 52.2458 383.29C48.751 369.671 46.9101 355.965 48.6072 341.799C49.3752 336.702 51.2238 331.828 54.0291 327.503C62.6582 313.121 73.1281 299.977 83.8569 287.047C81.6852 290.269 79.5711 293.476 77.5145 296.726H77.5864ZM122.314 448.195C120.444 451.56 117.999 451.531 116.201 448.065C113.455 442.759 112.505 436.891 111.657 431.052C108.291 407.926 107.946 384.613 107.774 361.286C107.774 361.128 107.961 360.97 108.104 360.739C109.048 361.477 109.802 362.43 110.302 363.518C110.803 364.607 111.035 365.799 110.981 366.996C111.153 387.13 111.743 407.38 115.295 427.399C115.814 431.004 116.836 434.518 118.33 437.84C118.977 439.178 119.768 440.788 121.364 440.831C122.961 440.875 123.896 439.12 124.629 437.696C125.056 436.736 125.536 435.799 126.067 434.892C125.704 439.53 124.429 444.051 122.314 448.195ZM129.03 376.372C128.307 378.445 127.994 380.638 128.11 382.83C127.045 385.375 126.945 388.209 125.607 390.668C124.874 392.02 124.169 393.544 122.515 393.544C120.861 393.544 120.358 392.005 119.782 390.769C117.194 385.174 116.432 379.091 115.468 373.079C115.152 371.209 114.979 369.325 114.648 366.794C119.567 370.462 124.155 368.462 128.728 367.456C129.426 368.83 129.815 370.34 129.867 371.881C129.919 373.421 129.634 374.954 129.03 376.372ZM161.878 252.1C162.841 251.294 163.863 252.315 164.754 252.876C167.386 254.617 168.436 257.493 169.543 260.269C172.898 269.305 176.852 278.107 181.38 286.616C184.989 293.073 188.987 299.257 194.697 304.075C203.254 311.266 211.955 312.158 221.663 306.492C230.953 301.055 237.483 292.699 243.624 284.056C245.522 281.381 247.262 278.577 249.089 275.83C244.573 287.335 238.935 298.15 230.508 307.239C229.274 308.564 227.953 309.803 226.553 310.95C215.795 319.881 204.836 319.751 194.093 310.691C188.415 305.676 183.562 299.799 179.711 293.275C172.212 281.252 166.296 268.312 162.108 254.775C161.835 253.912 161.087 252.747 161.878 252.1ZM169.4 174.237C169.4 171.677 169.4 169.103 169.601 166.471C171.442 172.626 170.78 179.544 175.052 184.923C177.205 190.854 178.569 197.044 179.107 203.331C179.251 204.51 179.107 205.805 180.646 206.136C182.616 206.581 182.415 207.718 181.423 208.897C180.703 209.618 180.286 210.587 180.257 211.605C180.227 212.624 180.588 213.615 181.264 214.376C183.091 217.138 182.055 220.043 180.589 222.56C179.947 223.414 179.556 224.431 179.459 225.495C179.363 226.559 179.564 227.629 180.042 228.586C180.847 230.024 180.128 231.778 180.761 233.26C181.897 238.638 181.25 244.089 181.667 249.482C178.144 247.627 177.353 243.873 175.411 240.494L173.685 244.909H173.211C172.808 240.35 172.405 235.805 171.959 230.8L168.795 233.49C169.284 230.757 169.572 228.6 170.061 226.5C170.708 223.753 171.413 221.064 168.896 218.82C168.606 218.498 168.451 218.075 168.465 217.641C168.652 213.398 166.451 209.343 167.544 204.999C167.717 204.28 168.637 202.756 166.437 202.986C165.761 202.986 165.919 201.85 166.092 201.361C167.53 197.535 166.422 193.192 167.889 189.654C170.061 184.477 169.543 179.4 169.4 174.237ZM188.858 158.316C188.168 158.23 187.262 157.957 187.204 157.108C187.147 156.26 188.125 156.073 188.772 155.915C189.937 155.627 189.505 156.49 189.405 157.195C189.333 157.497 190.124 158.417 188.858 158.288V158.316ZM187.247 241.529C188.8 238.149 188.527 234.626 188.585 231.088C188.685 225.666 188.973 220.618 191.979 215.469C195.617 209.228 196.509 201.677 197.271 194.386C197.271 193.882 197.372 193.365 197.43 192.746C199.012 193.48 198.652 195.033 199.012 196.14C200.306 200.225 200.55 200.34 203.571 197.377C205.009 199.793 204.836 202.785 206.044 205.028C210.862 201.663 214.156 206.049 218.082 207.257C218.484 206.049 218.873 204.841 219.275 203.604C222.152 205.546 222.152 205.546 224.683 198.628C225.149 203.131 225.952 207.592 227.085 211.975C228.077 215.34 228.652 218.835 230.997 221.682C231.684 222.643 232.079 223.782 232.133 224.961C232.852 233.59 232.435 242.335 232.363 251.122C230.925 250.431 232.363 248.087 230.134 248.662C228.336 249.137 229.242 250.575 229.343 251.611C229.616 254.358 230.033 257.105 230.364 259.607C229.788 260.456 228.509 257.22 228.695 260.225C228.739 262.373 228.922 264.516 229.242 266.64C229.63 268.754 229.242 270.192 227.085 271.084C226.797 270.077 226.495 269.07 226.193 268.078H225.589C225.244 271.654 224.894 275.24 224.539 278.835C223.101 278.936 222.957 277.397 222.123 276.98C221.289 276.563 220.685 274.104 219.103 276.606C218.542 277.512 218.858 275.398 218.01 275.427L216.413 278.303C215.766 274.722 214.271 276.549 213.149 277.397C212.444 277.929 212.113 278.936 211.524 279.655C210.934 280.374 210.819 281.237 209.913 280.863C209.438 280.676 209.093 279.928 208.906 279.353C208.489 278.145 208.216 276.894 207.856 275.571C206.548 277.009 207.281 278.922 206.246 280.504C204.894 277.843 204.807 280.331 204.074 281.165C203.7 280.015 203.384 279.08 202.923 277.656C202.506 278.634 202.262 279.181 202.003 279.799C201.802 279.648 201.614 279.479 201.442 279.296C198.896 276.017 198.12 271.99 196.883 268.164C195.071 262.555 193.144 256.946 192.741 251.007C192.54 247.958 189.635 247.526 188.254 245.642C187.233 244.118 186.629 242.838 187.247 241.5V241.529ZM201.428 188.619C201.404 188.24 201.519 187.866 201.752 187.566C201.986 187.267 202.32 187.063 202.693 186.994C204.774 186.571 206.931 186.74 208.921 187.482C210.057 187.871 210.963 188.23 212.099 187.252C212.641 186.661 213.386 186.296 214.186 186.23C214.985 186.163 215.781 186.4 216.413 186.893C216.658 187.08 217.089 187.296 217.276 187.195C221.72 185.009 220.857 188.921 221.749 190.805C220.584 191.898 219.405 187.554 218.427 191.121C217.616 190.733 216.892 190.185 216.298 189.51C215.234 188.072 214.342 187.928 213.077 189.381C212.829 189.765 212.49 190.083 212.09 190.306C211.69 190.528 211.242 190.649 210.784 190.658C210.327 190.666 209.874 190.562 209.466 190.355C209.059 190.147 208.708 189.842 208.446 189.467C206.792 187.727 204.922 188.964 203.139 189.136C202.478 189.223 201.571 189.855 201.428 188.619ZM231.37 155.756C232.133 155.943 233.111 156.13 233.255 156.821C233.485 157.957 232.305 158.072 231.572 158.259C230.838 158.446 230.464 158.072 230.853 157.41C231.241 156.749 230.019 155.929 231.37 155.785V155.756ZM242.315 226.227C242.631 221.682 242.675 217.095 244.688 212.866C245.111 211.877 245.211 210.78 244.976 209.731C244.455 206.354 244.756 202.9 245.853 199.664C246.832 196.06 247.316 192.339 247.291 188.604C247.377 186.274 246.888 183.916 247.492 181.6C250.081 173.144 252.679 164.687 255.287 156.231C256.51 164.587 253.375 173.072 257.344 181.068C255.575 181.629 255.661 179.803 254.396 179.918C253.648 182.492 253.921 185.253 253.691 187.943C253.59 189.18 254.424 190.531 252.742 191.596C251.879 192.128 252.742 193.192 253.792 193.163C256.539 193.063 256.38 194.774 255.877 196.586C254.957 199.88 253.935 203.159 253.001 206.438C252.066 209.717 250.728 213.14 250.815 216.764C250.815 217.195 250.815 217.929 250.685 218.001C247.219 219.281 249.391 221.783 249.923 223.351C251.692 228.686 250.771 233.936 250.196 239.257C249.463 245.959 248.758 252.661 247.981 259.837C246.237 258.053 245.217 255.686 245.119 253.193L242.114 262.282L241.826 262.21C242.42 256.4 243.001 250.585 243.566 244.765C241.452 247.929 242.2 252.359 238.72 254.832C238.115 247.701 239.405 240.537 242.459 234.065C243.811 231.304 241.653 228.888 242.315 226.213V226.227ZM190.886 328.122C182.027 320.514 175.541 311.022 169.745 300.983C167.142 296.482 164.783 291.865 162.309 287.306L162.885 286.961C165.43 290.83 167.889 294.756 170.521 298.553C176.677 307.469 183.379 315.926 192.094 322.383C207.756 333.975 222.713 331.746 234.865 316.343C244.343 304.334 250.211 290.456 255.158 276.146C257.387 269.764 259.259 263.263 260.767 256.673C260.92 255.45 261.364 254.281 262.062 253.265C262.761 252.249 263.692 251.416 264.779 250.834C265.47 250.489 266.333 249.813 267.109 250.532C267.886 251.251 267.239 251.97 267.109 252.675C265.505 259.757 263.444 266.727 260.939 273.543C255.417 288.931 248.873 303.745 239.28 317.076C236.409 321.063 233.1 324.715 229.415 327.963C217.089 338.707 203.283 338.721 190.886 328.122ZM281.491 257.392C277.022 278.303 268.26 298.058 255.762 315.408C246.755 328.392 234.962 339.202 221.246 347.048C220.714 347.35 220.167 347.609 219.621 347.882C234.794 337.767 247.336 324.179 256.208 308.246C263.56 294.776 268.983 280.339 272.315 265.36C272.761 263.49 273.178 261.592 273.753 259.78C274.362 257.588 275.801 255.72 277.766 254.573C278.917 253.969 280.254 253.452 281.333 254.3C282.411 255.149 281.649 256.314 281.433 257.32L281.491 257.392ZM283.245 210.896L267.138 138.225C266.692 136.384 266.261 134.543 265.8 132.702C264.966 129.265 265.973 126.101 266.347 122.865C268.49 104.644 261.515 92.4047 244.774 85.4727C242.165 84.2896 239.462 83.3274 236.692 82.5964C216.715 78.0805 196.826 77.7641 177.295 84.8112C161.231 90.5926 153.076 102.328 154.514 119.327C154.919 124.533 154.736 129.767 153.968 134.932C153.968 135.133 153.968 135.449 153.838 135.838C153.292 139.404 152.559 142.942 151.696 146.494C150.948 149.572 150.257 152.65 149.481 155.742C146.36 169.304 142.29 186.562 139.414 198.585C138.838 201.059 138.258 203.528 137.673 205.992C137.648 206.14 137.604 206.285 137.544 206.423C137.041 208.494 136.652 210.163 136.365 211.313C120.218 192.121 111.434 167.807 111.585 142.726C111.585 85.746 155.507 39.3792 209.51 39.3792C263.514 39.3792 307.436 85.746 307.436 142.726C307.582 167.566 299 191.667 283.188 210.824L283.245 210.896ZM319.2 353.275C319.018 353.774 318.678 354.199 318.231 354.485C317.784 354.771 317.255 354.902 316.726 354.857C313.182 355.059 309.628 355.059 306.084 354.857C305.553 354.898 305.024 354.765 304.578 354.476C304.131 354.188 303.791 353.761 303.61 353.261C302.688 351.923 302.257 350.307 302.388 348.688C301.247 328.419 300.125 308.155 299.022 287.896C298.821 284.243 298.706 280.59 298.303 276.966C298.071 275.799 298.27 274.588 298.862 273.557C299.455 272.526 300.4 271.744 301.525 271.357C304.673 269.952 308.086 269.236 311.534 269.259C314.982 269.281 318.385 270.04 321.515 271.486C323.802 272.507 324.607 274.363 324.464 276.937C323.025 301.07 321.645 325.197 320.322 349.32C320.284 350.692 319.855 352.025 319.085 353.16L319.2 353.275ZM334.89 427.097C332.388 431.311 328.749 431.181 326.261 426.91C323.773 422.639 322.767 418.281 321.055 413.506C331.971 412.974 331.971 412.974 339.751 403.698C338.932 412.068 338.917 419.978 334.775 426.982L334.89 427.097Z" fill="#7C6F4E"/>
<path d="M303.078 273.184C309.334 271.645 315.446 271.429 321.4 274.291C317.143 269.66 306.86 269.027 303.078 273.184Z" fill="#7C6F4E"/>
<path d="M315.59 415.002C315.59 413.362 314.986 412.816 313.404 412.629C310.043 412.289 306.705 411.747 303.409 411.004L303.078 896.992C304.812 897.542 306.611 897.861 308.428 897.941C316.05 898.487 314.425 893.626 314.425 893.626L315.59 415.002Z" fill="#7C6F4E"/>
<path d="M189.635 131.882C203.211 128.186 216.788 127.568 230.35 131.882C233.962 134.752 236.907 138.374 238.979 142.496C240.676 146.12 240.633 146.135 236.793 146.609C231.04 147.702 225.417 148.839 219.707 149.874C218.691 149.966 217.736 150.4 217 151.106C216.263 151.811 215.787 152.746 215.651 153.757C214.516 159.215 213.88 164.766 213.753 170.339C213.753 173.216 214.673 175.258 217.406 176.452C218.844 177.056 220.541 177.76 220.282 179.802C220.023 181.845 218.211 181.873 216.831 182.679C211.826 185.397 206.965 184.692 202.075 182.406C200.91 181.859 199.601 181.442 199.357 180.004C199.084 178.307 200.378 177.458 201.658 176.926C205.225 175.488 206.346 172.698 206.116 168.973C205.896 164.048 205.29 159.148 204.304 154.318C204.171 153.22 203.673 152.198 202.891 151.416C202.109 150.634 201.088 150.137 199.99 150.003C192.411 148.81 184.99 146.437 177.195 146.667C177.156 146.568 177.142 146.461 177.151 146.355C177.161 146.25 177.195 146.148 177.251 146.057C177.307 145.967 177.382 145.89 177.472 145.834C177.562 145.778 177.664 145.743 177.77 145.732C181.006 145.732 182.358 143.776 183.523 141.015C184.918 137.592 188.225 135.406 189.635 131.882Z" fill="#F8E79F"/>
<path d="M126.902 288.687C127.031 287.551 126.772 286.745 125.463 286.903C123.306 287.162 122.314 286.271 122.587 284.027C122.774 282.215 121.897 282.014 120.473 282.589C117.626 283.748 114.931 285.25 112.448 287.062C111.226 288.011 110.449 288.226 109.974 286.515C109.675 285.232 109.114 284.025 108.327 282.968C107.54 281.912 106.544 281.029 105.401 280.374C103.157 279.08 103.359 276.793 105.401 275.082C106.537 274.147 107.831 273.399 109.054 272.565C110.204 274.233 109.054 275.01 107.932 275.801C109.226 275.686 109.715 274.636 110.132 273.557C110.995 271.342 112.534 271.127 114.447 271.903C115.324 272.263 116.202 272.651 117.05 273.054C117.698 273.417 118.371 273.734 119.064 274.003C119.696 274.319 119.366 273.5 119.351 274.003C118.33 273.744 117.237 273.557 117.323 272.09C117.523 272.055 117.728 272.055 117.927 272.09C121.983 273.528 121.983 273.528 123.019 269.559C123.968 270.465 123.781 271.716 124.054 273.111C124.428 270.235 126.657 270.839 127.793 270.494C128.929 270.149 128.196 269.847 128.383 270.235C128.757 271.069 124.644 270.379 123.148 269.343C124.255 267.905 126.183 269.76 127.261 268.265C127.27 265.797 126.614 263.373 125.363 261.246C124.241 258.96 124.155 257.219 126.801 256.069C128.901 255.177 128.872 253.049 129.174 251.165C131.13 248.907 132.741 250.273 133.675 251.999C134.183 252.98 134.903 253.836 135.784 254.503C136.665 255.17 137.684 255.631 138.767 255.853C140.722 256.357 141.442 257.205 139.888 259.175C138.229 261.412 136.893 263.872 135.919 266.481C135.315 267.919 135.286 269.041 137.357 268.811C139.428 268.581 140.233 269.76 139.975 271.687C139.701 273.974 140.895 273.615 142.233 273.039C144.975 271.917 147.573 270.468 149.97 268.725C151.135 267.833 151.94 267.287 152.444 269.171C153.144 271.843 154.863 274.135 157.233 275.556C159.361 276.994 159.189 279.209 157.06 280.547C154.78 281.928 153.14 284.157 152.501 286.745C152.098 288.27 151.336 288.183 150.2 287.349C147.709 285.543 145.027 284.014 142.204 282.79C140.593 282.014 139.745 282.359 139.96 284.228C140.205 286.371 139.256 287.105 137.242 286.932C135.488 286.745 135.229 287.651 135.804 289.089C136.887 291.996 138.373 294.737 140.219 297.229C141.413 298.668 140.881 299.228 139.543 299.732C138.516 299.998 137.522 300.379 136.581 300.868C135.013 301.932 132.928 302.968 135.027 305.427C135.703 306.218 135.933 307.556 135.372 308.131C132.87 310.72 133.747 313.884 133.546 316.889C133.546 317.68 134.049 319.377 132.51 318.903C131.216 318.514 129.016 319.277 128.728 316.918C128.656 315.74 128.656 314.558 128.728 313.38C128.728 311.942 128.973 310.504 127.434 309.368C126.975 308.981 126.675 308.437 126.593 307.842C126.51 307.248 126.651 306.643 126.988 306.146C129.03 304.42 127.678 302.781 127.362 301.084C128.8 300.681 128.886 302.148 129.39 302.695C129.222 301.779 128.812 300.925 128.202 300.222C127.593 299.519 126.806 298.992 125.924 298.696C124.399 298.179 124.27 296.956 124.903 295.547C125.815 293.613 126.579 291.613 127.189 289.564C127.362 289.19 128.254 288.385 126.902 288.687Z" fill="#C2AB4D"/>
<path d="M316.697 409.379C312.686 409.117 308.708 408.477 304.818 407.466C301.208 406.617 302.517 403.439 302.344 401.08C302.172 398.722 303.61 398.204 305.796 398.204C310.326 398.405 314.885 398.405 319.43 398.348C320.321 398.348 321.99 399.009 322.033 397.542C322.033 396.306 320.48 396.449 319.444 396.435L304.214 396.291C303.45 396.219 302.709 395.986 302.042 395.607C301.374 395.227 300.795 394.711 300.342 394.091C299.89 393.471 299.574 392.762 299.416 392.01C299.257 391.259 299.26 390.483 299.425 389.733C299.842 388.295 300.863 388.813 301.755 388.813C306.833 388.983 311.917 388.743 316.956 388.094C317.691 388.082 318.415 387.916 319.082 387.607C319.748 387.297 320.342 386.85 320.825 386.296C317.231 385.924 313.609 385.895 310.01 386.21C307.133 386.497 304.113 386.569 301.151 386.655C298.188 386.742 298.447 384.239 298.274 382.341C298.102 380.442 298.504 379.148 300.935 378.961C306.306 378.651 311.652 378.003 316.942 377.02C317.819 376.833 318.941 377.092 319.214 375.768C313.315 374.905 307.322 374.905 301.424 375.768C299.986 375.927 298.547 376.66 297.109 375.768C296.767 374.914 296.7 373.975 296.916 373.08C297.133 372.186 297.623 371.381 298.317 370.778C304.919 365.241 312.009 361.113 321.069 362.983C323.111 364.522 323.946 366.909 325.24 368.995C328.869 374.831 331.594 381.183 333.323 387.835C335.652 397.269 332.834 402.029 326.132 408.314C323.586 410.702 319.904 409.292 316.697 409.379Z" fill="#F8E79F"/>
<path d="M122.342 343.467C121.724 345.193 123.176 344.804 123.91 344.905C129.123 345.883 134.436 346.211 139.73 345.883C141.916 345.883 142.606 346.386 142.045 348.587C141.182 352.499 140.607 353.088 136.609 353.088C131.964 353.088 127.318 353.088 122.673 353.088C121.738 353.088 120.473 353.088 120.545 354.34C120.616 355.591 121.983 355.03 122.644 355.03C127.189 355.03 131.734 355.03 136.264 354.9C138.781 354.8 139.816 355.749 139.442 358.266C138.608 360.063 136.71 360.135 135.228 360.811C131.216 362.652 127.203 364.579 122.731 365.126C120.461 365.421 118.158 364.943 116.193 363.769C114.228 362.595 112.716 360.793 111.901 358.654C107.414 346.919 109.269 336.175 116.906 326.367C117.602 325.363 118.537 324.549 119.627 323.996C120.717 323.444 121.926 323.171 123.148 323.203C128.498 323.203 133.92 322.786 138.968 325.432C140.938 326.64 143.009 327.705 144.174 329.876C144.605 333.788 144.303 334.076 140.679 333.644C136.278 333.126 131.863 332.738 127.433 332.537C126.179 332.264 124.867 332.48 123.766 333.141C122.903 334.867 124.485 334.464 125.104 334.579C129.663 335.226 134.236 335.859 138.824 336.334C143.886 336.866 144.001 336.938 142.894 342.273C139.5 343.999 135.904 343.064 132.381 343.007C128.857 342.949 125.593 341.942 122.342 343.467Z" fill="#F8E79F"/>
<path d="M229.098 187.44C228.16 184.965 226.754 182.694 224.956 180.752C222.554 177.703 219.879 174.999 217.449 172.008C214.846 168.858 216.356 164.184 216.111 159.611C219.98 162.991 222.785 167.363 228.192 166.888C230.824 166.644 232.42 164.731 234.204 162.372C230.508 162.545 227.099 162.689 223.806 159.64C228.595 159.927 232.55 158.805 236.936 157.626C232.823 154.261 228.307 154.75 223.072 155.368C229.012 152.291 234.045 152.78 238.187 156.289C238.921 156.893 239.741 157.382 240.532 157.914C242.545 158.101 242.473 159.74 242.344 161.035C241.51 169.405 239.899 177.574 234.621 184.391C233.183 186.332 232.694 189.266 229.889 190.071C228.911 189.395 229.774 188.187 229.098 187.44Z" fill="#F8E79F"/>
<path d="M189.635 131.882C190.771 132.184 190.9 132.544 190.052 133.551C188.168 135.794 186.471 138.196 184.702 140.526C184.5 140.785 184.127 140.986 184.098 141.245C183.522 145.416 180.589 146.379 177.123 146.624C175.109 147.141 172.305 147.343 172.29 149.86C172.22 151.462 172.584 153.053 173.343 154.466C174.103 155.878 175.23 157.06 176.605 157.885C180.143 158.23 179.985 158.244 180.574 162.199C181.889 170.547 184.851 178.55 189.29 185.742C189.822 186.634 191.274 187.41 189.764 188.618C187.319 189.956 185.191 189.337 183.005 187.784C176.734 183.297 173.412 177.401 173.987 169.476C174.106 165.052 172.883 160.695 170.478 156.979C169.509 155.32 169.226 153.349 169.687 151.485C170.642 147.767 171.977 144.157 173.671 140.713C176.763 133.464 183.422 133.177 189.635 131.882Z" fill="#F8E79F"/>
<path d="M189.764 188.619C189.764 186.001 187.333 184.822 186.499 182.578C184.889 178.264 182.185 174.352 181.178 169.807C180.632 167.362 179.639 164.802 179.74 162.458C179.912 159.582 179.28 158.144 176.49 157.856C177.431 158.01 178.396 157.932 179.301 157.629C180.206 157.325 181.023 156.806 181.681 156.116C185.593 152.693 190.929 152.29 196.581 155.397C191.288 154.663 186.83 154.289 182.703 157.525C187.017 158.805 191.13 160.114 196.149 159.424C194.814 160.695 193.189 161.622 191.415 162.123C189.64 162.624 187.77 162.685 185.967 162.3C188.844 169.333 195.387 168.412 202.938 160.028C204.922 165.507 203.081 170.943 199.155 174.942C195.89 178.237 193.241 182.089 191.332 186.317C190.972 187.18 191.403 188.619 189.764 188.619Z" fill="#F8E79F"/>
<path d="M229.098 187.439L230.047 189.697C230.896 187.971 233.341 187.295 232.391 184.764C233.027 184.541 233.61 184.189 234.105 183.732C234.6 183.274 234.995 182.72 235.268 182.104C239.082 175.314 241.212 167.709 241.481 159.927C241.505 159.531 241.423 159.135 241.244 158.781C241.064 158.427 240.794 158.128 240.46 157.913C241.431 157.87 242.384 157.632 243.262 157.216C244.141 156.799 244.927 156.211 245.575 155.486C246.224 154.762 246.721 153.915 247.038 152.996C247.354 152.076 247.485 151.103 247.42 150.133C247.219 148.048 245.522 147.458 243.882 146.969C241.509 146.25 239.05 146.969 236.692 146.681L239.367 145.847C237.993 141.856 235.72 138.234 232.722 135.262C231.728 134.314 230.914 133.193 230.32 131.954C234.549 132.271 238.547 133.709 242.66 134.529C243.667 134.73 244.098 135.694 244.731 136.441C246.968 139.309 248.776 142.487 250.095 145.876C251.545 149.096 251.745 152.741 250.656 156.101C247.694 165.363 245.292 174.798 240.043 183.168C238.515 185.734 236.571 188.028 234.29 189.956C233.283 190.776 232.506 192.171 230.795 191.48C228.897 190.689 229.04 189.064 229.098 187.439Z" fill="#C2AB4D"/>
<path d="M316.697 409.378C317.512 409.18 318.347 409.078 319.185 409.076C323.917 409.537 326.98 407.092 329.67 403.482C331.247 401.529 332.354 399.24 332.908 396.792C333.461 394.343 333.446 391.8 332.862 389.359C330.892 380.859 326.923 373.223 322.493 365.816C321.961 364.91 321.558 363.932 321.055 362.94C322.255 362.667 323.511 362.802 324.626 363.323C325.74 363.844 326.65 364.721 327.21 365.816C331.627 372.923 335.144 380.551 337.68 388.525C340.039 396.766 337.162 403.194 331.41 408.659C330.792 409.241 330.026 409.639 329.195 409.81C325.052 410.643 320.772 410.495 316.697 409.378Z" fill="#C2AB4D"/>
<path d="M138.838 325.475C133.704 324.138 128.469 324.195 123.22 324.138C122.012 324.096 120.815 324.37 119.745 324.932C118.676 325.495 117.772 326.326 117.122 327.345C113.759 331.584 111.551 336.621 110.712 341.966C109.873 347.312 110.431 352.783 112.333 357.849C113.857 362.35 118.373 366.032 125.708 363.831C130.454 362.393 134.725 359.934 139.37 358.352C139.687 359.69 138.896 360.38 137.932 360.797C133.042 362.782 128.268 365.111 123.062 366.089C118.517 366.938 111.901 362.983 110.506 358.481C108.392 351.693 107.213 344.761 108.593 337.628C109.809 332.079 112.469 326.949 116.302 322.757C118.833 319.809 123.018 320.715 126.499 320.643C131.087 320.557 135.142 322.685 138.838 325.475Z" fill="#C2AB4D"/>
<path d="M247.449 181.586C247.823 184.548 249.218 187.842 248.355 190.359C247.061 194.155 248.355 198.297 245.954 201.864C244.616 203.834 245.594 206.653 245.853 209.055C246.069 210.968 247.147 213.039 244.602 214.304C244.357 214.419 244.285 215.067 244.285 215.484C244.106 219.108 243.443 222.692 242.315 226.14C241.452 220.388 239.439 214.937 239.798 209.055C239.72 208.461 239.575 207.877 239.367 207.315C238.475 203 237.742 198.93 240.805 194.702C243.681 190.805 245.292 185.987 247.449 181.586Z" fill="#C2AB4D"/>
<path d="M180.761 233.202C179.941 231.03 179.107 228.888 178.316 226.673C178.154 226.051 178.147 225.399 178.298 224.774C178.448 224.149 178.751 223.571 179.179 223.092C181.236 219.913 182.746 216.764 179.481 213.355C178.431 212.248 179.007 210.896 179.697 209.789C180.427 208.743 181.209 207.735 182.041 206.768C177.727 208.322 178.388 205.819 178.201 203.403C177.739 198.31 176.834 193.267 175.497 188.331C175.128 187.215 174.977 186.038 175.052 184.865C176.691 187.382 180.114 189.079 178.705 193.034C178.518 193.58 178.776 194.184 179.467 194.098C181.667 193.81 180.632 195.536 181.135 196.385C182.573 198.671 181.682 200.527 181.135 202.626C180.919 203.432 181.221 204.611 182.185 204.683C185.148 204.928 184.73 207.07 184.601 208.998C184.4 212.09 182.904 215.282 185.766 218.029C186.14 218.389 185.766 219.683 185.593 220.489C184.847 224.055 183.48 227.463 181.552 230.556C180.964 231.307 180.682 232.252 180.761 233.202Z" fill="#C2AB4D"/>
<path d="M303.495 353.146C308.615 354.404 313.964 354.404 319.085 353.146C318.912 359.057 318.912 359.114 313.246 359.56C310.639 359.887 308.13 360.759 305.882 362.12C304.185 363.026 303.48 363.012 303.567 360.797C303.667 358.323 303.538 355.706 303.495 353.146Z" fill="#7C6F4E"/>
<path d="M128.11 382.772C126.973 381.492 126.211 379.738 127.16 378.458C129.706 374.963 128.599 371.152 128.599 367.441C133.575 365.14 133.56 365.14 133.603 370.461C133.603 373.151 133.373 375.754 135.142 378.314C136.58 380.486 135.142 382.743 132.439 382.902C131.044 383.017 129.577 382.873 128.11 382.772Z" fill="#C2AB4D"/>
<path d="M147.856 323.649C147.856 327.129 146.72 327.963 143.541 326.669C141.483 325.79 139.624 324.503 138.076 322.887C137.585 322.468 137.256 321.89 137.148 321.254C137.04 320.617 137.16 319.963 137.486 319.406C138.508 317.364 139.486 315.005 141.945 314.833C144.404 314.66 145.641 317.004 146.705 318.989C147.469 320.423 147.865 322.024 147.856 323.649Z" fill="#F8E79F"/>
<path d="M297.455 366.952C294.794 369.642 293.14 372.346 293.931 375.999C292.276 375.903 290.675 375.378 289.286 374.474C287.776 373.726 285.92 372.835 286.093 370.936C286.266 369.038 288.15 368.391 289.717 367.715C292.145 366.626 294.861 366.359 297.455 366.952Z" fill="#F8E79F"/>
<path d="M123.637 333.184C123.898 332.687 124.306 332.282 124.805 332.025C125.304 331.767 125.87 331.67 126.427 331.746C131.428 331.782 136.417 332.239 141.341 333.112C144.217 333.659 144.102 331.818 144.045 329.92C145.368 333.817 144.375 335.097 140.636 334.709C134.97 334.119 129.303 333.688 123.637 333.184Z" fill="#C2AB4D"/>
<path d="M122.342 343.467C122.914 342.703 123.703 342.128 124.606 341.818C125.509 341.508 126.484 341.476 127.405 341.727C132.525 342.575 137.645 342.129 142.764 342.288C142.592 344.632 140.78 344.172 139.428 344.143C133.733 343.942 128.038 343.697 122.342 343.467Z" fill="#C2AB4D"/>
<path d="M297.138 375.768C304.228 373.726 311.376 374.33 318.538 375.222C318.783 375.222 318.998 375.61 319.214 375.811C312.829 375.15 306.573 376.344 300.302 377.25C298.792 377.422 297.555 377.695 297.138 375.768Z" fill="#C2AB4D"/>
<path d="M215.263 193.465C213.939 194.788 212.144 195.531 210.272 195.531C208.401 195.531 206.606 194.788 205.282 193.465H215.263Z" fill="#C2AB4D"/>
<path d="M227.401 188.906C225.891 187.942 224.367 186.993 222.885 186.03C222.439 185.728 221.447 185.785 221.807 184.85C222.086 184.284 222.495 183.791 223 183.412C223.734 182.808 224.137 183.513 224.439 184.002C225.575 185.44 226.668 187.051 227.775 188.575L227.401 188.906Z" fill="#7C6F4E"/>
<path d="M192.324 187.727C195.272 182.823 196.164 182.492 198.077 185.397L192.324 187.727Z" fill="#7C6F4E"/>
<path d="M111.527 268.624C110.693 269.904 109.873 271.199 109.039 272.493C108.795 270.882 109.73 269.617 110.305 268.293C110.779 267.2 111.369 267.502 111.527 268.624Z" fill="#C2AB4D"/>
<path d="M127.951 266.352C127.604 264.269 126.93 262.255 125.952 260.383C124.859 258.543 124.96 257.421 127.391 256.788C129.821 256.155 130.353 253.739 129.303 251.122C127.865 253.581 126.096 255.724 123.033 256.256C121.451 256.529 121.595 257.507 122.443 258.571C124.51 261.547 126.156 264.795 127.333 268.221C128.052 267.804 128.138 267.186 127.951 266.352Z" fill="#F8E79F"/>
<path d="M126.729 298.179C125.291 297.978 125.017 297.215 125.78 295.691C126.783 293.581 127.536 291.361 128.023 289.075C128.527 286.976 127.434 288.371 126.901 288.687C126.053 290.413 125.262 292.153 124.356 293.85C121.479 299.186 121.479 299.186 127.434 301.041C128.57 301.501 128.512 303.241 130.051 303.601C129.706 301.156 130.065 298.639 126.729 298.179Z" fill="#F8E79F"/>
<path d="M117.323 272.032C115.199 271.267 113.245 270.095 111.571 268.581C109.615 269.127 110.132 271.27 109.083 272.45V272.579C109.715 275.34 106.508 274.981 105.688 276.894C108.09 276.793 110.377 276.707 110.923 273.916C111.412 271.5 112.664 272.004 114.145 272.622C116.552 273.817 119.144 274.595 121.81 274.923C120.099 273.471 118.201 273.586 117.323 272.032Z" fill="#F8E79F"/>
<path d="M123.019 269.516C123.407 270.954 122.673 272.752 124.112 274.305C124.529 271.011 127.304 271.112 129.864 270.235L123.22 269.3L123.019 269.516Z" fill="#F8E79F"/>
</svg>
