<svg width="240" height="178" viewBox="0 0 240 178" fill="none" xmlns="http://www.w3.org/2000/svg">
<path d="M234 103.2C232.82 103.2 231.62 103.2 229.68 103.2L232.06 101.66C235 99.66 235.14 97.6596 232.56 95.0996C232.368 94.8548 232.128 94.651 231.854 94.5008C231.582 94.3506 231.282 94.2568 230.972 94.225C230.662 94.1934 230.35 94.2244 230.052 94.3162C229.754 94.408 229.478 94.5588 229.24 94.7596C228.038 95.8462 226.64 96.6946 225.12 97.2596C226.16 95.6796 226.94 94.6396 227.56 93.5196C227.806 93.1848 227.984 92.805 228.082 92.4016C228.18 91.9982 228.2 91.5792 228.136 91.1686C228.074 90.7582 227.93 90.364 227.714 90.009C227.498 89.654 227.214 89.345 226.88 89.0996C224.76 87.3596 222.88 87.0996 221.28 89.8996C219.908 92.4416 217.822 94.5272 215.28 95.8996C215.502 95.1396 215.824 94.413 216.24 93.7396C217.496 91.6048 218.56 89.3626 219.42 87.0396C220.3 84.3396 219.72 82.8796 217.18 81.7796C214.64 80.6796 214.58 80.6196 213.98 83.3396C212.914 88.351 210 92.7776 205.82 95.7396C205.44 96.0196 205.02 96.8396 204.26 96.0196C206.688 92.9396 208.842 89.6538 210.7 86.1996C211.394 85.0442 211.924 83.7994 212.28 82.4996C212.7 80.4996 211.82 79.3796 209.74 79.0996C208.926 78.945 208.086 79.0558 207.34 79.416C206.594 79.776 205.984 80.3664 205.6 81.0996C204.83 82.7934 203.862 84.391 202.72 85.8596C202.28 85.1196 202.72 84.5596 202.84 83.9796C203.38 82.3086 203.696 80.5736 203.78 78.8196C203.66 76.8196 202.68 75.9196 200.58 75.8196C198.48 75.7196 197.52 76.4396 197.26 78.5396C197.08 79.9796 197.06 81.4396 196.78 82.8396C196.342 85.6654 194.994 88.2708 192.94 90.2596C193.4 88.2596 193.78 86.6996 194.04 85.1796C194.542 83.396 194.798 81.5524 194.8 79.6996C194.79 78.7524 194.418 77.8448 193.76 77.1638C193.1 76.483 192.206 76.0806 191.26 76.0396C190.02 75.8996 189.26 76.2396 189.26 77.6796C189.26 79.1196 189.38 80.9796 189.26 82.6196C189.19 84.846 188.614 87.0272 187.58 88.9996C187.218 87.9044 187.128 86.7372 187.32 85.5996C187.32 83.7596 187.32 81.8996 187.18 80.0596C187.154 79.0102 186.782 77.9988 186.118 77.1844C185.456 76.37 184.542 75.7986 183.52 75.5596C182.624 75.2716 181.65 75.3444 180.806 75.7626C179.962 76.1808 179.314 76.9116 179 77.7996C175.34 74.4396 173.12 74.6396 171.36 78.4196C170.538 77.6188 169.504 77.0704 168.38 76.8396C167.664 76.6984 166.924 76.7126 166.214 76.8818C165.502 77.0508 164.836 77.3706 164.26 77.8196C162.96 78.8796 165.04 79.8196 164.48 81.1196C164.044 80.1556 163.242 79.4038 162.254 79.029C161.264 78.6542 160.166 78.6868 159.2 79.1196C158.876 79.2106 158.574 79.3688 158.316 79.5838C158.056 79.7988 157.846 80.0658 157.698 80.3676C157.548 80.6694 157.464 80.9992 157.45 81.3354C157.438 81.6716 157.496 82.007 157.62 82.3196C157.04 82.3196 156.84 81.8396 156.54 81.4196C155.954 80.496 155.062 79.8088 154.018 79.4794C152.976 79.1502 151.85 79.1998 150.84 79.6196C149.4 80.0596 148.84 80.7796 149.22 82.3396C150.004 85.433 150.494 88.5938 150.68 91.7796C150.68 92.3996 151 93.1596 150.02 93.4796L148.02 82.8796C147.78 81.6196 147.32 80.2396 146.02 80.1396C144.02 79.9796 144.02 78.7796 143.8 77.4396C143.66 76.4196 143.52 75.4396 143.28 74.3796C141.388 64.959 138.12 55.868 133.58 47.3996C132.44 45.5614 131.732 43.4894 131.506 41.3386C131.282 39.1878 131.546 37.0138 132.28 34.9796C134.318 28.5786 136.998 22.4006 140.28 16.5396C141.56 14.5362 142.614 12.3964 143.42 10.1596C143.69 9.53682 143.832 8.86522 143.834 8.18602C143.838 7.50682 143.702 6.83402 143.436 6.20902C143.17 5.58382 142.78 5.01942 142.29 4.55022C141.798 4.08102 141.216 3.71662 140.58 3.47962C138.602 2.55842 136.488 1.96402 134.32 1.71962C126.364 0.657219 118.316 0.476026 110.32 1.17963C106.894 1.24663 103.508 1.92383 100.32 3.17963C96.94 4.69963 95.84 7.01962 97.14 10.4596C97.992 12.5336 99.002 14.5394 100.16 16.4596C103.26 22.0634 105.818 27.95 107.8 34.0396C108.66 36.248 108.994 38.6256 108.78 40.9854C108.564 43.3452 107.804 45.623 106.56 47.6396C104.272 51.5724 102.42 55.744 101.04 60.0796C98.97 65.935 97.404 71.957 96.36 78.0796C96.24 78.8996 96.36 79.7596 95.1 79.8396C93 79.9996 92.4 81.5396 92.08 83.2396C91.56 85.9596 91.12 88.7196 90.62 91.4596C90.5 92.1196 90.62 92.9396 89.68 93.3396C89.39 92.1572 89.39 90.9222 89.68 89.7396C90.12 87.1996 90.5 84.6596 91.08 82.1396C91.42 80.6996 90.94 80.1396 89.64 79.6196C85.98 78.3796 83.2 80.3196 83.02 83.7796C82.9 86.2396 82.66 88.6996 82.66 91.1796C82.66 91.9396 83 92.7996 82.32 93.4996C81.08 92.9396 81.32 91.7996 81.26 90.8396C81.224 88.6644 81.534 86.4972 82.18 84.4196C82.462 83.5394 82.616 82.6236 82.64 81.6996C82.682 81.3382 82.648 80.9718 82.538 80.6248C82.428 80.2776 82.248 79.9576 82.006 79.6856C81.764 79.4136 81.468 79.1958 81.136 79.0466C80.804 78.8974 80.444 78.82 80.08 78.8196C79.058 78.8542 78.042 79.0154 77.06 79.2996C75.88 79.2996 76.54 77.2996 75.06 77.1196C73.876 76.7568 72.63 76.6412 71.4 76.7796C70.22 77.0396 69.52 78.0396 68.44 78.3996C67.44 74.5196 64.82 74.2596 60.96 77.7796C60.864 77.3536 60.684 76.9512 60.428 76.5968C60.174 76.2424 59.85 75.943 59.476 75.717C59.102 75.491 58.686 75.3428 58.254 75.2814C57.822 75.22 57.382 75.2466 56.96 75.3596C56.024 75.4886 55.154 75.9072 54.468 76.5564C53.784 77.2056 53.318 78.053 53.14 78.9796C52.644 81.0884 52.514 83.267 52.76 85.4196C52.988 86.518 53.036 87.646 52.9 88.7596C52.644 88.6486 52.418 88.4784 52.24 88.2628C52.062 88.0472 51.94 87.7924 51.88 87.5196C50.864 84.587 50.514 81.4642 50.86 78.3796C51.12 76.0196 50.24 75.3796 48.02 76.1596C47.31 76.3442 46.68 76.7576 46.228 77.336C45.776 77.9144 45.528 78.6256 45.52 79.3596C45.516 81.0058 45.684 82.648 46.02 84.2596C46.58 85.9078 46.858 87.639 46.84 89.3796C45.902 88.8604 45.19 88.0126 44.84 86.9996C43.572 84.3962 42.922 81.5354 42.94 78.6396C42.94 76.3596 41.78 75.5596 39.5 75.6996C37.22 75.8396 36.22 76.9196 36.3 79.0396C36.402 80.0652 36.582 81.0816 36.84 82.0796C37.334 83.211 37.514 84.4546 37.36 85.6796C36.498 84.5954 35.766 83.4142 35.18 82.1596C34.736 81.3482 34.222 80.5784 33.64 79.8596C33.012 79.3114 32.236 78.9634 31.408 78.86C30.582 78.7568 29.744 78.9028 29 79.2796C27.78 79.9596 27.36 81.2796 28.12 83.0796C29.188 86.0902 30.824 88.8674 32.94 91.2596C32.94 89.5596 31.6 88.5596 30.94 87.2596C30.28 85.9596 29.62 84.4596 28.94 83.0396C28.52 82.0596 28.16 81.0396 29.38 80.3196C29.908 79.9648 30.546 79.8156 31.178 79.9004C31.808 79.9852 32.384 80.298 32.8 80.7796C33.406 81.6162 33.936 82.5066 34.38 83.4396C36.898 88.207 40.142 92.5526 44 96.3196C44.48 96.7796 44.86 97.4996 46 97.3196C44.56 95.6596 43.28 94.1196 42 92.6396C40.724 91.2864 39.822 89.6256 39.38 87.8196C38.74 85.2196 38.02 82.6196 37.38 79.9996C37.14 78.9196 37 77.6996 38.4 77.0996C40.26 76.2996 41.66 77.0996 41.66 79.2196C41.66 86.6196 45.54 91.7796 51.42 95.8596C47.64 91.8596 47.42 86.4996 46.3 81.5396C46.124 80.9944 46.066 80.4176 46.132 79.8484C46.196 79.279 46.384 78.7304 46.68 78.2396C46.886 77.8748 47.202 77.5838 47.582 77.408C47.962 77.2322 48.388 77.1802 48.8 77.2596C49.82 77.4996 49.5 78.3996 49.44 79.0596C49.004 84.2462 50.422 89.4194 53.44 93.6596C53.78 94.1796 54.14 94.6796 54.52 95.1796C54.9 95.6796 55.34 95.8996 55.84 95.4396C56.34 94.9796 55.84 94.7196 55.66 94.3596L55.44 93.8396C55.662 93.9006 55.89 93.9408 56.12 93.9596L55.1 93.0996C53.586 89.0762 53.072 84.7456 53.6 80.4796C53.8 77.7596 55.34 76.4796 57.48 76.4796C58.78 76.4796 59.48 77.1796 59.24 78.4796C59 79.7796 58.62 81.0796 58.3 82.4796C57.762 84.5358 57.708 86.6882 58.138 88.7694C58.568 90.8508 59.472 92.8048 60.78 94.4796C61.14 94.9596 61.44 95.5596 62.3 95.5596C62.72 94.5596 61.96 93.8396 61.62 93.0796C59.62 88.4196 60.3 83.7796 61.62 79.0796C61.77 78.5238 62.058 78.0146 62.456 77.5988C62.854 77.183 63.352 76.8738 63.9 76.6996C64.334 76.5134 64.814 76.4616 65.276 76.5506C65.74 76.6398 66.166 76.8658 66.5 77.1996C67.1 77.8796 66.68 78.6196 66.36 79.1996C64.988 81.9964 64.414 85.1176 64.7 88.2196C64.884 90.7032 65.772 93.0828 67.26 95.0796C67.44 95.3442 67.702 95.5422 68.006 95.6434C68.308 95.7446 68.638 95.7432 68.94 95.6396C67.72 92.4142 67.342 88.9316 67.84 85.5196C67.854 83.661 68.22 81.8218 68.92 80.0996C69.216 79.252 69.83 78.5528 70.632 78.1498C71.436 77.7466 72.362 77.6714 73.22 77.9396C74.12 78.1996 74.64 78.5596 74.12 79.6996C72.75 83.2776 72.25 87.1302 72.66 90.9396C72.66 93.0596 73 93.1996 75.34 94.0196C76.04 93.3396 75.34 92.6596 75.34 92.0196C74.95 88.731 75.23 85.3978 76.16 82.2196C76.254 81.6526 76.522 81.1288 76.928 80.7204C77.332 80.312 77.854 80.0394 78.42 79.9396C80.16 79.6196 81.28 80.5196 81.04 82.2796C80.8 84.0396 80.36 85.9396 79.98 87.7396C79.708 89.0562 79.674 90.411 79.88 91.7396C80.26 94.0996 80.78 94.4996 83.5 94.8596C83.5 92.5196 83.5 90.1796 83.5 87.8396C83.53 86.1896 83.69 84.5444 83.98 82.9196C84.036 82.5072 84.174 82.1104 84.388 81.753C84.6 81.3956 84.884 81.0852 85.22 80.8402C85.556 80.5954 85.938 80.4212 86.344 80.3284C86.75 80.2354 87.17 80.2256 87.58 80.2996C89.26 80.4396 89.58 80.9796 89.36 82.6996C88.9 85.3396 88.48 87.9796 88.04 90.6996C87.764 92.1338 87.976 93.619 88.64 94.9196C88.756 95.2084 88.958 95.454 89.22 95.6224C89.482 95.7908 89.79 95.8736 90.1 95.8596C90.96 95.8596 90.88 95.0596 90.96 94.4596C91.52 91.1196 92.06 87.7596 92.62 84.4596C92.67 83.9442 92.77 83.4352 92.92 82.9396C93.22 82.0596 93.62 80.9396 94.74 81.1396C96.16 81.3396 95.5 82.5996 95.5 83.3996C95.26 91.871 96.478 100.32 99.1 108.38C99.36 108.834 99.432 109.372 99.3 109.88C98.53 110.182 97.692 110.258 96.88 110.1C66.88 109.56 36.98 109.9 7.03999 109.62C6.91999 109.62 6.81998 109.62 6.71998 109.62C5.51998 109.24 3.42 110.62 3.24 108.5C3.218 107.35 3.65199 106.238 4.44599 105.406C5.23999 104.576 6.32999 104.092 7.47999 104.06C8.59999 104.06 9.73999 104.36 10.86 104.52L17.78 105.56C17.06 104.06 15.62 103.9 14.46 103.44C12.29 102.738 10.198 101.814 8.21998 100.68C6.21998 99.34 6.01998 98.3 7.59998 96.3996C8.75998 95.0196 9.20002 94.8996 10.7 96.0196C13.586 98.224 16.738 100.058 20.08 101.48C20.92 101.84 21.8 102.1 22.7 102.42C22.96 101.54 22.3 101.56 21.9 101.4C17.9 99.78 15.54 96.5196 13.28 93.1796C13.038 92.9344 12.858 92.6354 12.754 92.3074C12.652 91.9792 12.626 91.6312 12.684 91.2918C12.74 90.9524 12.876 90.6312 13.08 90.3544C13.284 90.0776 13.552 89.8532 13.86 89.6996C15.46 88.4596 16.52 88.5796 17.66 90.3796C20.726 94.8536 25.038 98.33 30.06 100.38C30.52 100.58 30.96 100.92 31.64 100.58C26.24 97.6996 23.86 92.5796 21.64 87.4196C20.38 84.4796 20.88 83.6796 24.48 82.3596C25.74 86.3596 26.88 90.3596 30.04 93.4796C32.954 96.314 36.392 98.556 40.16 100.08C37.848 97.011 35.328 94.1044 32.62 91.3796C33.14 93.4796 35.24 94.6796 36.1 96.9996C33.204 95.333 30.73 93.0236 28.868 90.2494C27.006 87.4754 25.806 84.3108 25.36 80.9996C19.9 82.1796 19.12 84.6796 21.36 89.2196C21.9 90.3196 22.44 91.4396 23 92.5396C23.56 93.6396 24.08 94.5396 24.64 95.6396C22.006 94.3092 19.832 92.219 18.4 89.6396C18.216 89.1744 17.914 88.764 17.528 88.4472C17.14 88.1306 16.678 87.9182 16.184 87.83C15.692 87.742 15.186 87.781 14.712 87.9438C14.238 88.1064 13.814 88.3872 13.48 88.7596C13.034 88.982 12.646 89.3036 12.344 89.6996C12.042 90.0958 11.834 90.5556 11.738 91.0442C11.642 91.5328 11.658 92.037 11.786 92.518C11.916 92.9992 12.152 93.4444 12.48 93.8196C13.18 94.9796 14 96.0396 14.78 97.1596C13.376 96.6188 12.062 95.8704 10.88 94.9396C10.28 94.5196 9.64001 93.9796 8.88001 94.2196C8.10801 94.5266 7.41401 95.0044 6.85401 95.6176C6.29201 96.2308 5.87802 96.963 5.64002 97.7596C5.06002 99.1 5.88003 100.08 6.84003 100.98C7.80004 101.88 9.02 101.96 9.74 103.2C8.34 103.2 7.20001 103.2 6.06001 103.2C5.01201 103.152 3.97801 103.448 3.11201 104.038C2.24601 104.63 1.59602 105.486 1.26002 106.48C-0.539983 110.48 0.420034 111.96 4.84003 111.96H32.84C54.36 111.96 75.88 112.12 97.4 111.56C97.78 111.56 98.26 111.42 98.34 112.02C94.176 115.022 90.7 118.876 88.142 123.326C85.584 127.778 84.004 132.722 83.506 137.83C83.008 142.94 83.604 148.096 85.256 152.956C86.906 157.818 89.574 162.27 93.08 166.02C99.654 172.96 108.682 177.052 118.232 177.426C127.784 177.8 137.104 174.424 144.2 168.02C147.83 164.836 150.75 160.928 152.776 156.546C154.802 152.164 155.886 147.406 155.96 142.58C156.28 129.86 150.9 119.72 140.44 111.78H148L235.04 112.06C235.972 112.066 236.902 111.992 237.82 111.84C238.134 111.82 238.432 111.696 238.664 111.484C238.896 111.274 239.05 110.99 239.1 110.68C239.62 107.26 237.52 102.98 234 103.2ZM59.78 84.9796C59.702 84.8578 59.646 84.722 59.62 84.5796C59.6 84.4002 59.6 84.219 59.62 84.0396L59.8 84.4196C59.74 84.5996 59.72 84.7796 59.68 84.9796H59.78ZM66.72 90.4196C66.24 87.4396 65.68 84.4196 67.28 81.5996C67.54 84.5796 66.58 87.4396 66.62 90.4196H66.72ZM74.7 85.5396C74.444 84.8886 74.39 84.175 74.546 83.493C74.704 82.811 75.064 82.1926 75.58 81.7196L74.7 85.5396ZM173.56 90.2396C172.88 87.2196 173.12 84.1196 172.62 81.0396C173.4 82.4266 173.884 83.9592 174.046 85.5418C174.208 87.1246 174.042 88.7236 173.56 90.2396ZM157.56 82.5596C158 84.8596 158.48 87.1596 158.84 89.4596C159.042 90.21 159.068 90.9966 158.92 91.7592C158.77 92.5218 158.448 93.2402 157.98 93.8596C157.242 90.1378 157.128 86.3192 157.64 82.5596H157.56ZM97.96 82.9596C98.2 75.7596 100.42 68.9596 102.52 62.1796C103.948 57.533 105.886 53.0592 108.3 48.8396C109.724 46.4472 110.574 43.757 110.782 40.9806C110.99 38.2044 110.55 35.4178 109.5 32.8396C107.53 27.1816 105.08 21.7018 102.18 16.4596C100.978 14.5452 99.928 12.539 99.04 10.4596C97.96 7.57962 98.52 6.31962 101.38 5.11962C103.016 4.43822 104.74 3.98722 106.5 3.77962C115.486 2.66962 124.574 2.66962 133.56 3.77962C135.658 3.95482 137.7 4.55362 139.56 5.53962C139.944 5.67642 140.296 5.89242 140.592 6.17342C140.888 6.45442 141.122 6.79443 141.278 7.17123C141.434 7.54823 141.51 7.95363 141.5 8.36163C141.49 8.76943 141.394 9.17082 141.22 9.53962C140.472 11.6564 139.466 13.672 138.22 15.5396C134.928 21.2418 132.246 27.275 130.22 33.5396C129.354 35.8626 129.008 38.3476 129.21 40.8186C129.41 43.2898 130.15 45.6866 131.38 47.8396C135.952 56.1828 139.184 65.1928 140.96 74.5396C143.308 86.3574 142.16 98.604 137.66 109.78C136.56 112.56 135.34 115.3 134.08 118C132.182 121.938 131.722 126.418 132.78 130.66C133.976 134.83 134.484 139.166 134.28 143.5C134.186 147.15 132.764 150.642 130.28 153.32C125.532 157.378 122.106 162.76 120.44 168.78C119.18 168.04 119.2 166.88 118.86 165.96C117.658 162.19 115.494 158.798 112.58 156.12C105.86 150.4 104.32 143.04 106.58 135.08C108.562 128.094 107.72 120.612 104.24 114.24C99.49 104.528 97.34 93.7504 98 82.9596H97.96ZM141.06 115.18C145.228 118.584 148.516 122.942 150.65 127.882C152.782 132.824 153.698 138.206 153.316 143.574C152.936 148.942 151.272 154.142 148.464 158.732C145.656 163.324 141.784 167.172 137.178 169.956C132.572 172.74 127.364 174.376 121.994 174.728C116.624 175.078 111.248 174.134 106.318 171.976C101.388 169.816 97.05 166.502 93.666 162.316C90.284 158.13 87.956 153.192 86.88 147.92C84.48 134.98 88.58 124.14 98.52 115.46C99.06 114.98 99.66 114.58 100.26 114.14C100.86 113.7 101.38 113.7 101.76 114.44C104.42 119.64 106.88 124.84 105.18 130.96C104.088 134.626 103.548 138.434 103.58 142.26C103.514 144.804 104.01 147.332 105.028 149.666C106.048 151.998 107.568 154.078 109.48 155.76C114.606 160.354 118.236 166.38 119.9 173.06C120.94 170.44 121.9 167.88 123.08 165.38C124.342 162.296 126.316 159.554 128.84 157.38C136 151.62 137.32 144.06 135.82 135.62C135.58 134.3 135.3 132.98 134.94 131.62C133.632 127.21 134.106 122.464 136.26 118.4C137.02 116.84 137.76 115.26 138.46 113.78C139.84 113.82 140.44 114.62 141.14 115.18H141.06ZM233.2 109.6C211.146 109.68 189.094 109.752 167.04 109.82C159.24 109.82 151.44 109.98 143.64 110.06C142.62 110.204 141.582 110.156 140.58 109.92C140.486 109.734 140.438 109.528 140.438 109.32C140.438 109.112 140.486 108.906 140.58 108.72C143.314 100.582 144.566 92.0196 144.28 83.4396C144.28 82.6396 143.68 81.3396 145.02 81.1596C146.36 80.9796 146.72 82.1396 146.92 83.1596C147.52 86.3996 148.08 89.6396 148.62 92.8996C148.74 93.4996 148.72 94.1196 148.8 94.7396C148.88 95.3596 149.04 95.7796 149.64 95.8596C149.9 95.887 150.164 95.8418 150.4 95.7288C150.636 95.6158 150.838 95.4396 150.98 95.2196C151.572 94.3668 151.848 93.334 151.76 92.2996C151.684 89.4098 151.316 86.535 150.66 83.7196C150.46 82.5596 149.42 81.0396 151.58 80.4796C152 80.341 152.444 80.288 152.884 80.3242C153.326 80.3604 153.754 80.4848 154.146 80.69C154.538 80.8952 154.884 81.177 155.164 81.5188C155.446 81.8606 155.654 82.2554 155.78 82.6796C156.026 83.681 156.154 84.7082 156.16 85.7396C156.306 88.8264 156.252 91.9196 156 94.9996C159.2 94.4996 159.7 94.0396 160 91.4196C160.13 88.7166 159.798 86.0114 159.02 83.4196C158.7 82.1196 158.16 80.7396 160.04 80.0796C161.92 79.4196 163.18 80.2796 163.72 82.3596C164.816 85.5754 165.064 89.0198 164.44 92.3596C164.346 92.8618 164.286 93.3696 164.26 93.8796C166.74 93.4196 167.22 92.9996 167.3 90.5996C167.624 86.9882 167.124 83.3504 165.84 79.9596C165.22 78.4996 165.84 78.0796 167.04 77.8596C167.876 77.6894 168.744 77.8316 169.48 78.2592C170.218 78.6868 170.772 79.3702 171.04 80.1796C171.678 81.9222 172.004 83.7638 172 85.6196C172.206 87.365 172.254 89.1256 172.14 90.8796C172.138 92.4782 171.686 94.0438 170.84 95.3996C172.06 96.0596 172.44 95.3996 172.84 94.7796C174.128 92.781 174.934 90.5102 175.196 88.1464C175.456 85.7826 175.162 83.3908 174.34 81.1596C174.102 80.4764 173.82 79.8084 173.5 79.1596C173.22 78.4996 172.78 77.8196 173.4 77.1596C173.698 76.8626 174.074 76.6546 174.482 76.5592C174.892 76.4638 175.322 76.4846 175.72 76.6196C176.43 76.801 177.072 77.1882 177.562 77.7326C178.054 78.277 178.372 78.9544 178.48 79.6796C179.68 84.4596 180.26 89.2396 177.86 93.8596C177.62 94.3196 177.32 94.7596 177.56 95.3196C178.684 94.5836 179.636 93.6156 180.354 92.4804C181.07 91.3454 181.536 90.0698 181.72 88.7396C182.168 86.2924 182.052 83.7752 181.38 81.3796C181.22 80.8996 181.1 80.3996 180.96 79.8996C180.64 78.7196 179.98 77.4396 181.56 76.6596C182.296 76.4168 183.092 76.4308 183.818 76.6996C184.546 76.9686 185.16 77.4762 185.56 78.1396C185.904 78.7552 186.116 79.4368 186.18 80.1396C186.824 85.3222 185.978 90.5812 183.74 95.2996C185.14 95.8596 185.48 94.8996 185.9 94.2796C188.962 90.3236 190.584 85.4418 190.5 80.4396C190.46 80.034 190.46 79.6254 190.5 79.2196C190.5 78.4796 190.04 77.4596 191.2 77.2196C192.36 76.9796 193.4 77.9396 193.6 79.2196C193.72 80.0352 193.72 80.864 193.6 81.6796C193.124 84.845 192.374 87.9634 191.36 90.9996C190.898 92.8486 189.764 94.4598 188.18 95.5196C189.1 96.1796 189.46 95.5196 189.84 95.1796C194.82 91.1796 198.14 86.2796 198.24 79.6396C198.24 77.2996 198.86 76.7796 200.58 76.9196C202.3 77.0596 202.86 77.8996 202.46 80.2996C201.42 86.6396 199.5 92.5196 194.28 96.8196C194.034 96.958 193.826 97.154 193.672 97.391C193.518 97.6278 193.426 97.8986 193.4 98.18C194.544 97.6962 195.554 96.941 196.34 95.9796C199.944 92.4084 202.992 88.3162 205.38 83.8396C205.76 83.0996 206.12 82.3596 206.56 81.6596C206.722 81.2974 206.956 80.9724 207.25 80.7052C207.542 80.4378 207.888 80.234 208.262 80.1062C208.638 79.9786 209.036 79.9298 209.432 79.9632C209.826 79.9964 210.21 80.111 210.56 80.2996C212.12 81.1996 211.34 82.5196 210.9 83.5796C209.042 87.9466 206.51 91.9956 203.4 95.5796C201.388 98.258 198.874 100.52 196 102.24C196.12 102.344 196.26 102.424 196.412 102.472C196.564 102.52 196.726 102.538 196.884 102.524C197.044 102.508 197.198 102.462 197.338 102.386C197.478 102.308 197.602 102.204 197.7 102.08C200.202 100.25 202.814 98.572 205.52 97.0596C209.918 94.412 213.138 90.1834 214.52 85.2396C214.61 84.3106 214.94 83.4214 215.48 82.6596C218.6 83.2996 219.48 84.2996 218.42 86.9196C216.994 91.149 214.668 95.0184 211.6 98.26C210.582 99.148 209.452 99.902 208.24 100.5C209.02 101.04 209.54 100.5 210.08 100.3C215.004 98.27 219.224 94.8422 222.22 90.4396C223.38 88.6196 224.22 88.4396 225.74 89.5596C227.26 90.6796 227.74 91.6596 226.5 93.4396C224.354 97.0598 221.188 99.968 217.4 101.8C218.76 102.38 219.66 101.6 220.54 101.22C223.568 99.852 226.432 98.148 229.08 96.1396C230.74 94.8996 231.3 95.0596 232.58 96.8396C233.86 98.62 233.74 99.22 232.08 100.42C230.15 101.642 228.074 102.616 225.9 103.32C224.37 103.676 222.978 104.476 221.9 105.62C225.3 105.12 228.28 104.66 231.28 104.24C231.906 104.086 232.558 104.072 233.192 104.198C233.824 104.324 234.422 104.586 234.942 104.968C235.462 105.348 235.892 105.84 236.204 106.404C236.514 106.97 236.698 107.596 236.74 108.24C236.74 109.16 236.38 109.6 235.46 109.6H233.2ZM165.5 85.0196C165.5 84.7596 165.8 84.7796 165.82 85.0196C165.84 85.2596 165.82 85.9796 165.82 86.4596C165.82 86.4596 165.82 86.6396 165.62 86.8996C165.554 86.7254 165.506 86.5442 165.48 86.3596C165.486 85.9114 165.52 85.4638 165.58 85.0196H165.5ZM180.52 85.2796C180.52 84.9396 180.66 84.9196 180.72 85.2796C180.76 85.4708 180.76 85.6684 180.72 85.8596C180.72 85.8596 180.72 85.8596 180.56 85.8596C180.554 85.6654 180.566 85.471 180.6 85.2796H180.52Z" fill="#706444"/>
<path d="M126.42 5.46046C124.42 11.1805 121.52 30.8605 122.14 33.2805C124.152 24.1067 125.582 14.8147 126.42 5.46046Z" fill="#706444"/>
<path d="M115.14 29.6595C114.748 21.6097 113.466 13.6279 111.32 5.85954C112.48 15.1129 113.646 24.3863 114.82 33.6795C115.134 32.3641 115.24 31.0081 115.14 29.6595Z" fill="#706444"/>
<path d="M129.2 25.4997C131.848 19.8887 133.99 14.0523 135.6 8.05971C132.916 13.6561 130.774 19.4961 129.2 25.4997Z" fill="#706444"/>
<path d="M118 7.8C117.47 15.0304 117.47 22.2898 118 29.52C118.5 22.2886 118.5 15.0314 118 7.8Z" fill="#706444"/>
<path d="M108.7 19.8595C108.274 14.9517 106.838 10.1851 104.48 5.85954C105.532 10.6259 106.942 15.3059 108.7 19.8595Z" fill="#706444"/>
<path d="M124.7 148.62C124.7 149.32 125.08 149.7 125.94 149.74C126.314 149.652 126.654 149.452 126.912 149.166C127.17 148.88 127.332 148.522 127.38 148.14C127.396 148.014 127.382 147.886 127.338 147.766C127.294 147.648 127.222 147.542 127.128 147.456C127.032 147.372 126.918 147.312 126.796 147.28C126.672 147.25 126.544 147.25 126.42 147.28C125.6 147.38 124.76 147.6 124.7 148.62Z" fill="#706444"/>
<path d="M112 148.9C112.58 148.9 112.92 148.6 113.12 148.1C113.132 147.848 113.048 147.6 112.884 147.406C112.722 147.214 112.49 147.09 112.24 147.06C112.114 147.04 111.986 147.046 111.864 147.076C111.742 147.108 111.626 147.164 111.526 147.24C111.424 147.316 111.34 147.412 111.278 147.522C111.214 147.632 111.174 147.754 111.16 147.88C111.06 148.48 111.52 148.82 112 148.9Z" fill="#706444"/>
</svg>
