<svg width="87" height="162" viewBox="0 0 87 162" fill="none" xmlns="http://www.w3.org/2000/svg">
<path d="M54.622 20.9174C57.976 18.4418 61.12 15.6924 64.022 12.6974C65.45 11.038 67.252 9.74242 69.282 8.91742C70.376 8.39002 71.588 8.15722 72.8 8.24202C74.012 8.32682 75.18 8.72622 76.19 9.40082C77.2 10.0756 78.016 11.002 78.558 12.0888C79.1 13.1754 79.35 14.3848 79.282 15.5974C79.288 18.632 78.102 21.5478 75.982 23.7174C74.292 25.5432 72.328 27.095 70.162 28.3174C65.274 31.2628 60.728 34.737 56.602 38.6774C55.98 39.2016 55.48 39.8536 55.136 40.589C54.79 41.3242 54.608 42.1252 54.602 42.9376C54.482 45.9174 54.162 48.9374 54.322 51.8974C54.256 52.606 54.452 53.314 54.872 53.8886C55.292 54.463 55.906 54.8646 56.602 55.0174C61.474 56.466 66.266 58.1682 70.962 60.1174C72.362 60.7174 73.262 60.7374 73.862 59.0974C74.45 57.7598 75.34 56.576 76.462 55.6374C77.114 54.9172 77.946 54.3808 78.872 54.082C79.798 53.7834 80.786 53.7326 81.736 53.935C82.688 54.1374 83.57 54.586 84.294 55.2356C85.016 55.8852 85.558 56.7134 85.862 57.6374C86.942 60.4558 87.04 63.5562 86.142 66.4376C85.022 70.8376 83.722 75.1774 82.522 79.5574C78.722 93.258 75.042 106.998 71.242 120.698C68.376 130.488 64.91 140.094 60.862 149.458C57.622 157.258 51.902 160.818 43.642 161.458C36.48 161.908 29.292 161.15 22.382 159.218C19.47 158.64 16.808 157.178 14.762 155.03C12.714 152.882 11.38 150.152 10.942 147.218C8.38201 135.218 5.22201 123.378 2.94201 111.338C1.78401 106.634 0.862026 101.874 0.182026 97.078C-0.327974 90.364 0.238019 83.612 1.86202 77.0774C2.26202 75.1902 3.14603 73.439 4.42403 71.9948C5.70403 70.5506 7.33601 69.4628 9.16201 68.8374C9.79401 68.6566 10.36 68.2924 10.788 67.7906C11.216 67.2888 11.484 66.6718 11.562 66.0174C12 63.1896 13.148 60.5186 14.896 58.2528C16.644 55.987 18.938 54.2 21.562 53.0574C21.9 52.9428 22.208 52.754 22.464 52.5048C22.72 52.2556 22.918 51.9526 23.042 51.6174C24.634 48.129 26.952 45.02 29.842 42.4974C32.608 39.6934 35.598 37.1184 38.782 34.7974C39.376 34.421 39.852 33.8818 40.148 33.2436C40.446 32.6056 40.556 31.8954 40.462 31.1974C40.262 24.1774 40.682 17.1974 40.022 10.1774C39.894 8.42062 40.07 6.65462 40.542 4.95742C40.774 3.92442 41.262 2.96602 41.96 2.16922C42.658 1.37262 43.544 0.762826 44.538 0.395226C45.532 0.0276258 46.6 -0.0859787 47.648 0.0646213C48.698 0.215221 49.692 0.625224 50.542 1.25742C52.334 2.51582 53.59 4.39942 54.062 6.53742C54.624 9.05642 54.838 11.6402 54.702 14.2174L54.622 20.9174ZM10.182 85.1576C10.61 84.3714 11.326 83.7832 12.182 83.5174C17.382 81.7574 22.502 79.6774 27.862 78.3774C28.762 78.1482 29.678 77.9876 30.602 77.8974C32.632 77.7482 34.668 78.051 36.568 78.7842C38.466 79.5174 40.178 80.6626 41.582 82.1374C45.022 85.2774 48.282 88.618 51.862 91.618C53.484 93.082 55.362 94.234 57.402 95.018C58.396 95.472 59.508 95.608 60.582 95.404C61.658 95.198 62.642 94.666 63.402 93.878C64.25 93.03 64.814 91.938 65.014 90.756C65.214 89.574 65.042 88.358 64.522 87.2774C63.752 85.5738 62.56 84.0942 61.062 82.9774C59.062 81.3574 56.942 79.8174 54.842 78.2974C50.384 74.8746 45.708 71.748 40.842 68.9376C36.942 66.6782 32.416 65.7448 27.942 66.2774C22.112 67.2694 16.336 68.5644 10.642 70.1576C8.78802 70.5426 7.09001 71.4682 5.76201 72.8172C4.43601 74.1662 3.53603 75.8784 3.18203 77.7374C1.50603 84.2634 0.980028 91.03 1.62203 97.738C2.34203 103.478 4.04201 109.018 5.10201 114.698C7.20201 125.958 10.082 137.038 12.582 148.198C12.878 150.16 13.714 152 14.996 153.516C16.278 155.03 17.956 156.16 19.842 156.778C28.28 159.834 37.344 160.748 46.222 159.438C48.85 159.14 51.348 158.142 53.46 156.548C55.57 154.954 57.214 152.824 58.222 150.378C62.048 142.524 65.246 134.378 67.782 126.018C71.982 110.498 76.082 94.958 80.262 79.4174C81.522 74.7374 82.922 70.0974 84.262 65.4174C84.982 63.2422 84.982 60.8928 84.262 58.7174C84.11 58.0474 83.774 57.433 83.292 56.944C82.808 56.455 82.198 56.1108 81.53 55.9506C80.862 55.7904 80.162 55.8204 79.51 56.0372C78.858 56.254 78.28 56.649 77.842 57.1774C77.38 57.5914 76.96 58.0466 76.582 58.5374C74.582 61.1374 74.582 61.3174 77.382 63.0974C77.818 63.3746 78.238 63.675 78.642 63.9974C80.032 65.1006 81.008 66.6418 81.412 68.3704C81.814 70.099 81.62 71.9132 80.862 73.5174C80.222 75.046 79.082 76.311 77.628 77.1036C76.174 77.8964 74.492 78.1694 72.862 77.8774C72.132 77.8218 71.414 77.674 70.722 77.4376C69.422 76.9176 68.882 77.4374 68.442 78.6374C67.822 80.281 67.114 81.89 66.322 83.4574C66.094 83.9072 65.976 84.4038 65.976 84.9076C65.976 85.4112 66.094 85.9078 66.322 86.3574C68.182 91.098 67.082 94.158 62.662 96.738C61.602 97.338 60.822 97.938 60.962 99.278C67.602 98.238 67.802 98.238 69.622 99.938C69.404 100.084 69.156 100.18 68.898 100.222C68.638 100.262 68.374 100.248 68.122 100.178C65.998 99.908 63.842 100.172 61.848 100.948C59.854 101.722 58.084 102.984 56.702 104.618C53.13 108.224 50.194 112.41 48.022 116.998C45.762 121.878 43.482 126.718 41.242 131.598C38.556 136.838 36.654 142.444 35.602 148.238C35.602 148.478 35.602 148.838 35.022 148.578C35.002 145.072 35.682 141.598 37.022 138.358C40.144 129.934 43.784 121.712 47.922 113.738C50.32 108.998 53.734 104.846 57.922 101.578C58.782 100.852 59.392 99.87 59.662 98.778C60.002 97.738 59.782 97.238 58.682 97.038C56.166 96.386 53.824 95.192 51.822 93.538C49.16 91.548 46.646 89.37 44.302 87.0174C42.582 85.3774 40.902 83.6774 39.082 82.1374C35.382 79.0174 28.182 78.3974 24.522 81.4174C23.022 82.6374 21.622 84.1774 20.062 85.4174C19.596 85.7144 19.262 86.18 19.132 86.7168C19.002 87.2534 19.084 87.8198 19.362 88.298C22.26 96.434 24.54 104.778 26.182 113.258C28.182 124.018 29.982 134.798 29.382 145.798C29.486 147.38 29.16 148.964 28.442 150.378C29.322 128.518 24.262 108.378 17.362 88.098C15.028 90.1 12.868 92.294 10.902 94.658C13.022 89.818 17.102 86.5174 20.902 82.4574C17.202 83.1174 14.182 84.7574 10.182 85.1576ZM12.622 67.6374L24.182 65.1576C28.132 64.1862 32.266 64.2552 36.182 65.3574C38.58 66.1676 41.136 66.4004 43.642 66.0374C49.376 65.3616 55.172 66.6292 60.102 69.6374C62.562 70.9774 64.882 72.5574 67.262 74.0374C68.996 75.188 70.962 75.9456 73.022 76.2574C73.764 76.4002 74.53 76.389 75.268 76.2248C76.006 76.0606 76.704 75.7468 77.316 75.3026C77.93 74.8584 78.446 74.2934 78.832 73.6424C79.218 72.9914 79.466 72.2682 79.562 71.5174C80.182 68.2174 78.902 65.7776 75.302 64.1576C72.102 62.6976 68.782 61.4374 65.462 60.2974C58.202 57.7974 51.042 54.9174 43.342 53.9574C37.066 52.9162 30.652 53.0382 24.422 54.3174C21.348 55.091 18.58 56.7778 16.484 59.1558C14.388 61.5336 13.062 64.4908 12.682 67.6374H12.622ZM23.922 51.6374C24.342 51.8174 24.522 51.9774 24.682 51.9574C29.5 51.1254 34.404 50.8902 39.282 51.2574C39.744 51.263 40.204 51.1634 40.622 50.966C41.042 50.7684 41.41 50.4784 41.702 50.1174C45.402 46.6374 49.182 43.2574 52.862 39.7574C58.026 34.3518 63.876 29.6452 70.262 25.7574C72.102 24.7838 73.742 23.4746 75.102 21.8974C75.958 20.9974 76.622 19.9316 77.052 18.7656C77.482 17.5998 77.668 16.3584 77.602 15.1174C77.58 14.1758 77.31 13.2566 76.818 12.4538C76.326 11.651 75.628 10.9932 74.798 10.5478C73.968 10.1024 73.036 9.88522 72.094 9.91862C71.154 9.95182 70.238 10.2344 69.442 10.7374C68.512 11.2568 67.68 11.9334 66.982 12.7374C62.442 17.8774 56.842 21.8974 51.922 26.7374C48.486 30.0438 44.794 33.0732 40.882 35.7974C36.578 38.6964 32.512 41.9334 28.722 45.4774C26.806 47.2566 25.204 49.346 23.982 51.6576L23.922 51.6374ZM41.562 32.4774C45.314 29.6736 48.85 26.5916 52.142 23.2574C52.39 22.9906 52.58 22.675 52.7 22.3308C52.822 21.9866 52.87 21.6212 52.842 21.2574C53.168 17.1558 53.134 13.0334 52.742 8.93742C52.602 7.18782 51.964 5.51462 50.902 4.11742C50.322 3.30462 49.516 2.68102 48.584 2.32502C47.652 1.96922 46.634 1.89702 45.662 2.11742C44.742 2.30822 43.906 2.78723 43.276 3.48482C42.648 4.18262 42.256 5.06282 42.162 5.99742C41.958 7.32042 41.884 8.66022 41.942 9.99742C42.102 15.2334 41.982 20.4744 41.582 25.6974C41.482 27.8574 41.622 30.0174 41.622 32.4974L41.562 32.4774ZM64.742 84.1174C65.622 81.6574 66.302 79.6376 67.102 77.6576C67.482 76.6774 67.102 76.1976 66.322 75.6576C64.002 74.3176 61.762 72.8374 59.442 71.5174C58.142 70.6534 56.678 70.0678 55.142 69.7974C54.942 72.2774 56.102 74.2174 56.382 76.2974C56.462 76.7104 56.628 77.1018 56.868 77.4464C57.11 77.791 57.42 78.0808 57.782 78.2974C60.288 80.035 62.636 81.9892 64.802 84.1374L64.742 84.1174ZM53.402 42.1174C49.502 44.8074 46.002 48.0324 43.002 51.6974C46.342 51.8974 49.402 53.0174 52.882 53.5374C52.494 49.7368 52.69 45.8992 53.462 42.1576L53.402 42.1174ZM43.402 68.1174L54.902 75.9376C54.502 73.6176 54.182 71.8174 53.902 69.9376C53.878 69.6294 53.758 69.3366 53.556 69.1024C53.354 68.8684 53.082 68.7054 52.782 68.6374C49.728 67.692 46.484 67.554 43.362 68.2374L43.402 68.1174Z" fill="#706444"/>
</svg>
