<svg width="339" height="407" viewBox="0 0 339 407" fill="none" xmlns="http://www.w3.org/2000/svg">
<path d="M335.68 406.24C335.24 391.5 334.7 376.76 334.38 362.02C333.922 349.376 332.794 336.764 331 324.24C330.3 316.54 329.158 308.888 327.58 301.32C326.372 296.092 324.89 290.932 323.14 285.86C321.136 280.282 317.6 275.382 312.94 271.72C305.18 265.536 296.374 260.796 286.94 257.72C270.12 252.02 253.4 246.1 237.18 238.86C233.532 237.354 230.02 235.542 226.68 233.44C226.3 233.18 225.92 232.74 225.2 233.1C225.444 235.11 226.126 237.042 227.2 238.76C226.28 239.5 225.84 238.76 225.44 238.2C224.224 236.646 223.444 234.796 223.18 232.84C220.9 219.62 218.72 206.4 219.82 192.84C220.14 188.84 219.82 184.64 219.82 180.36C218.82 180.82 218.68 181.68 218.36 182.36C214.276 191.206 208.602 199.224 201.62 206.02C193.904 213.254 186.56 220.878 179.62 228.86C179.434 229.11 179.218 229.338 178.98 229.54C177.42 230.92 176.72 230.84 175.62 228.98C173.468 225.618 171.544 222.118 169.86 218.5C168.74 218.5 168.52 219.2 168.1 219.74C166.28 222.12 164.46 224.5 162.68 226.92C161.94 227.94 160.68 228.76 161.42 230.42C161.72 231.08 160.88 231.48 160.22 231.38C159.194 231.17 158.25 230.67 157.5 229.94C145.5 219.28 133.98 208.34 126.1 194.18C123.64 189.78 121.1 185.4 118.5 180.86C117.56 181.58 117.92 182.58 117.94 183.38C117.94 189.56 118.12 195.76 118.24 201.94C118.216 209.574 117.466 217.188 116 224.68C115.638 227.85 115.084 230.996 114.34 234.1C114.184 235.188 113.772 236.224 113.14 237.124C112.506 238.024 111.672 238.764 110.7 239.28C111.2 236.9 112.94 235.28 112.7 233.04C112.5 233.04 112.24 232.84 112.14 232.9C106.556 236.292 100.67 239.164 94.5599 241.48C80.9199 247.36 66.92 252.28 52.84 257C44.152 259.802 35.9139 263.844 28.3799 269C21.2839 273.778 16.1039 280.912 13.7599 289.14C10.7559 299.008 8.70595 309.14 7.63995 319.4C6.91995 326.78 5.83996 334.12 5.01996 341.4C4.59996 345.18 4.25993 349 4.11993 352.8C3.58593 369.4 3.09991 385.994 2.65991 402.58C2.65991 403.72 2.65991 404.84 2.65991 405.98H0.159912C0.159912 395.46 0.759959 384.96 1.01996 374.44C1.21996 366.7 1.47995 358.98 1.75995 351.24C2.15995 340.82 4.09996 330.54 5.07996 320.18C5.97196 310.112 7.88993 300.16 10.7999 290.48C11.3999 288.48 12.0199 286.48 12.7999 284.6C14.9079 278.722 18.622 273.554 23.52 269.68C31.234 263.498 39.974 258.718 49.34 255.56C64.44 250.34 79.5999 245.22 94.2599 238.86L111.66 231.24C112.52 230.86 113.26 230.58 113.36 229.36C113.98 222.28 115.72 215.36 116.04 208.2C116.366 202.744 116.334 197.272 115.94 191.82C115.932 190.892 115.72 189.978 115.32 189.14C112.76 184.54 110.44 179.82 107.54 175.4C101.1 165.64 94.6 155.96 87.2 146.86C78.28 135.9 74.0999 123.14 72.5999 109.32C71.4299 99.5831 71.51 89.7363 72.84 80.0199C74.724 68.8731 79.0619 58.2843 85.5399 49.0199C93.5879 36.4223 103.934 25.4513 116.04 16.6799C119.18 14.4599 122.2 12.0999 125.34 9.87986C136.16 2.19986 148.36 -0.12014 161.34 0.55986C164.1 0.71986 166.5 2.85986 168.96 2.79986C171.42 2.73986 173.64 0.799861 176.28 0.579861C189.2 -0.220139 201.34 2.09986 212.1 9.63986C216.62 12.7799 221.08 15.9999 225.36 19.4199C240.838 31.4201 253.086 47.0843 261 64.9999C264.04 72.2539 265.786 79.9839 266.16 87.8399C267.15 101.14 265.686 114.509 261.84 127.28C259.432 134.449 255.768 141.133 251.02 147.02C247.02 152.38 242.66 157.56 239.02 163.18C233.48 171.54 227.6 179.68 223.24 188.74C222.66 189.708 222.306 190.796 222.2 191.92C222.2 196.26 222.2 200.6 222.04 204.92C222.04 206.26 222.44 206.66 223.9 206.92C233.4 209.16 241.1 214.06 245.9 222.74C246.152 223.392 246.598 223.952 247.176 224.346C247.756 224.74 248.44 224.946 249.14 224.94C251.958 225.136 254.69 225.986 257.12 227.422C259.55 228.86 261.612 230.846 263.14 233.22C266.37 237.9 269.162 242.868 271.48 248.06C271.748 248.714 272.16 249.298 272.686 249.77C273.214 250.242 273.84 250.586 274.52 250.78C279.94 252.6 285.34 254.42 290.7 256.4C299.208 259.464 307.17 263.874 314.28 269.46C319.64 273.6 323.65 279.238 325.8 285.66C329.234 295.722 331.548 306.13 332.7 316.7C333.7 326.22 335.04 335.72 335.96 345.26C336.52 351.02 336.68 356.8 336.88 362.56C337.34 376.38 337.7 390.2 338.12 404C338.12 404.72 338.24 405.44 338.28 406.16L335.68 406.24ZM203.92 166.78C200.126 164.17 196.752 160.992 193.92 157.36C195.22 157.736 196.372 158.504 197.22 159.56C198.46 160.76 199.34 160.52 200.66 159.56C206.756 154.918 212.34 149.642 217.32 143.82C224.302 136.186 230.124 127.567 234.6 118.24C236.724 114.337 237.772 109.941 237.64 105.5C237.36 99.9399 237.5 94.3599 237.64 88.7999C237.7 86.8535 237.366 84.9151 236.66 83.0999C234.02 76.2599 231.44 69.4199 228.96 62.5199C228.474 61.0697 227.586 59.7867 226.4 58.8199C216.94 51.0799 207.4 43.4199 198.2 35.3799C194.66 32.2999 191.2 30.5999 186.48 31.5599C184.492 31.8253 182.486 31.9391 180.48 31.8999C186.8 41.2999 186.8 41.2999 186.16 43.6199C185.02 41.4999 184.32 39.3799 182.46 38.1799C180.6 36.9799 178.74 35.8999 176.86 34.7599C178.028 37.1271 179.544 39.3049 181.36 41.2199C182.84 42.8279 184.178 44.5611 185.36 46.3999C185.756 47.0331 186.092 47.7029 186.36 48.3999C186.452 48.5899 186.474 48.8061 186.424 49.0107C186.372 49.2155 186.25 49.3957 186.08 49.5199C185.992 49.5735 185.892 49.6067 185.79 49.6173C185.686 49.6277 185.582 49.6155 185.486 49.5809C185.388 49.5465 185.298 49.4909 185.226 49.4181C185.152 49.3453 185.096 49.2571 185.06 49.1599C183.16 45.1599 179.34 42.9999 175.92 40.5399C173.578 39.0069 171.388 37.2521 169.38 35.2999C168.18 34.0199 167.38 32.1999 165.92 31.2999C164.46 30.3999 162.34 31.7199 160.48 31.7399C156.32 31.7399 152.16 31.7399 148.02 31.2999C147.252 31.1967 146.47 31.2593 145.73 31.4835C144.988 31.7077 144.302 32.0885 143.72 32.5999C132.974 41.5467 122.206 50.4667 111.42 59.3599C110.682 59.9121 110.114 60.6605 109.78 61.5199C107.08 68.9799 104.3 76.4199 101.54 83.8599C101.092 84.7887 100.822 85.7923 100.74 86.8199C100.74 92.5999 100.86 98.3599 100.94 104.12C100.878 105.05 100.98 105.984 101.24 106.88C103.24 111.86 104.78 116.98 106.98 121.88C110.952 130.07 115.944 137.724 121.84 144.66C125.978 149.844 130.764 154.476 136.08 158.44C139.14 160.7 139.14 160.7 142.28 158.66C142.468 158.59 142.662 158.542 142.86 158.52C142.264 160.296 141.05 161.8 139.44 162.76C136.516 165.054 133.836 167.64 131.44 170.48C131.28 170.68 131.06 170.6 130.86 170.22C132.86 167.06 136.06 164.84 138.32 161.62C133.776 158.888 129.586 155.61 125.84 151.86C122.25 148.124 118.96 144.112 116 139.86C112.874 135.616 110.06 131.151 107.58 126.5C105.2 121.96 103.44 117.16 101.34 112.5C101.22 112.918 101.22 113.362 101.34 113.78C103.64 122.86 105.98 131.94 108.28 141.04C108.864 144.036 109.606 147 110.5 149.92C113.46 157.92 116.38 165.76 119.1 173.78C120.458 177.786 122.242 181.634 124.42 185.26C126.06 188.02 127.64 190.8 129.24 193.58C133.93 201.908 139.768 209.536 146.58 216.24C150.086 219.614 153.606 222.946 157.14 226.24C157.846 227.222 158.87 227.93 160.04 228.24C162.68 224.6 165.32 220.92 168.04 217.26C170.04 214.68 170.78 214.74 172.4 217.62C173.62 219.78 174.72 222.02 175.94 224.16C176.606 225.574 177.576 226.824 178.78 227.82C185.002 219.612 191.858 211.902 199.28 204.76C208.992 194.674 216.402 182.604 221 169.38C225 158.4 227.96 147.18 231 135.92C231.98 132.26 233 128.6 234 124.94L233.44 124.62C230.54 131.98 225.6 137.82 220.36 143.52C215.198 149.396 209.544 154.822 203.46 159.74C210.98 169.4 213.86 176.22 212.38 180.78C212.236 180.496 212.116 180.202 212.02 179.9C210.96 173.2 207.5 167.56 203.88 162.02C202.66 160.16 202.54 160.24 200.32 161.88C201.48 163.54 203.32 164.7 204.16 166.62L203.92 166.78ZM263.92 87.3199C263.316 79.0923 261.286 71.0325 257.92 63.4999C252.816 52.6235 246.018 42.6259 237.78 33.8799C236.04 31.8799 234.54 30.1599 231.58 31.2799C230.866 31.4011 230.136 31.4011 229.42 31.2799C219.22 31.2799 209.04 31.2799 198.86 31.4599C198.3 31.4599 197.56 31.1599 197.34 32.1599L263.92 87.3199ZM141 32.2399L140.64 31.5599C133.88 31.5599 127.16 31.0999 120.4 31.3599C115.112 31.6571 109.808 31.5233 104.54 30.9599C103.32 30.7999 102.82 31.4399 102.22 32.1199C97.0799 37.5011 92.3979 43.3013 88.2199 49.4599C82.5799 58.2799 77.7399 67.4599 75.8199 77.9199C75.0439 80.8803 74.7399 83.9447 74.9199 86.9999L141 32.2399ZM104.6 29.8399C106.28 29.8399 107.42 29.8399 108.6 29.8399C124.506 29.0667 140.406 29.0667 156.3 29.8399C158.794 29.9813 161.294 29.7997 163.74 29.2999C165.002 29.1587 166.158 28.5291 166.962 27.5461C167.766 26.5631 168.152 25.3047 168.04 24.0399C168.04 19.4999 168.16 14.9599 168.04 10.4199C167.9 4.55986 166.8 3.17986 160.78 2.87986C149.64 2.31986 138.9 4.13986 129.44 10.2599C121.946 15.0941 114.796 20.4401 108.04 26.2599C106.728 27.2817 105.568 28.4875 104.6 29.8399ZM233.82 29.6999C232.542 28.1379 231.108 26.7105 229.54 25.4399C224.6 21.1599 219.06 17.6599 214 13.5399C205.54 6.67986 195.62 3.77986 185 2.79986C181.078 2.22726 177.076 2.55566 173.3 3.75986C172.608 3.92466 171.986 4.30646 171.524 4.84966C171.064 5.39306 170.79 6.06926 170.74 6.77986C169.92 12.7799 170.52 18.7799 170.44 24.6599C170.44 27.1399 172.12 28.6599 174.78 29.2199C176.908 29.7185 179.098 29.9003 181.28 29.7599C189.16 29.0999 197.06 29.3999 204.94 29.3599C212 29.3599 219.06 29.1399 226.12 29.6599C228.56 29.8399 231 29.6999 233.82 29.6999ZM106.68 63.9999C105.552 64.2639 104.536 64.8803 103.78 65.7599C94.34 73.3599 85.32 81.4199 75.58 88.6599C75.082 89.0069 74.6839 89.4813 74.4319 90.0335C74.1779 90.5857 74.078 91.1957 74.14 91.7999C74.004 97.3627 74.238 102.928 74.84 108.46C75.58 115.741 77.2199 122.902 79.7199 129.78C80.0799 130.76 80.22 131.96 81.52 132.64C89.24 109.5 98.3599 86.9999 106.68 63.9999ZM257 132.84C257.746 132.157 258.28 131.276 258.54 130.3C263.28 117.76 264.54 104.7 264.34 91.4399C264.34 90.8787 264.198 90.3265 263.93 89.8339C263.66 89.3413 263.272 88.9239 262.8 88.6199C259.9 86.4399 257.06 84.2199 254.26 81.9199C247.78 76.5999 241.34 71.2399 234.86 65.9199C234.038 65.0191 232.966 64.3851 231.78 64.0999C240.18 87.1599 249.18 109.6 257 132.84ZM239.7 93.2199C239.38 114.9 240.06 136.5 239.22 158.06C239.466 158.108 239.722 158.072 239.946 157.96C240.17 157.848 240.35 157.666 240.46 157.44C243.28 153.76 246.12 150.06 248.92 146.36C251.374 143.17 253.624 139.831 255.66 136.36C256.008 135.924 256.232 135.402 256.308 134.85C256.386 134.298 256.314 133.735 256.1 133.22C250.6 120.66 245.9 107.78 241.04 94.9799C240.8 94.3399 240.86 93.4799 239.68 93.2199H239.7ZM98.9999 158.06C98.3199 136.52 98.9999 115.06 98.7199 93.4599C98.3739 93.5953 98.0699 93.8173 97.8359 94.1045C97.5999 94.3917 97.4439 94.7345 97.3799 95.0999C92.5799 107.94 87.84 120.8 82.34 133.36C82.152 133.772 82.0799 134.228 82.1279 134.678C82.1779 135.129 82.3479 135.558 82.6199 135.92C86.9999 143.96 93.2399 150.78 98.9999 158.06ZM116.14 187.1C116.14 182.86 116.14 179.26 116.46 175.68C116.52 174.966 116.418 174.248 116.16 173.58C114.28 168.88 113.12 163.98 111.62 159.18C110.66 156.14 109.48 153.18 108.32 149.98C107.242 150.726 105.99 151.184 104.686 151.314C103.38 151.442 102.064 151.238 100.86 150.72C100.592 152.936 100.446 155.166 100.42 157.4C100.24 159.662 100.848 161.916 102.14 163.78C106.848 170.908 111.142 178.3 115 185.92C115.326 186.342 115.688 186.738 116.08 187.1H116.14ZM222.14 187.1C223 186.48 223.24 186.4 223.32 186.24C227.32 177.94 232.42 170.24 237.2 162.42C237.73 161.774 238.062 160.99 238.16 160.16C238.06 157.02 237.92 153.88 237.78 150.46C236.684 151.124 235.414 151.444 234.136 151.38C232.856 151.314 231.624 150.87 230.6 150.1C230.358 150.192 230.148 150.35 229.988 150.554C229.83 150.758 229.73 151.002 229.7 151.26C227.87 158.57 225.544 165.746 222.74 172.74C222.398 173.49 222.196 174.296 222.14 175.12V187.1ZM251 238.58C252.3 239.4 253.54 240.3 253.86 241.4C254.58 243.84 256.58 244.26 258.44 245C260.3 245.74 262.28 246.5 264.26 247.1C265.756 247.828 267.366 248.296 269.02 248.48C266.02 242.62 263.58 236.8 259.46 232C258.042 230.304 256.268 228.942 254.262 228.012C252.256 227.082 250.07 226.606 247.86 226.62C247.68 227.606 247.742 228.622 248.04 229.58C248.416 232.022 248.384 234.51 247.94 236.94C247.76 238.04 246.8 239.16 247.32 240.16C247.84 241.16 249.42 241.32 250.52 241.84C251.208 242.252 251.998 242.46 252.8 242.44C252.36 241.04 250.72 240.44 251 238.58ZM246.34 234.12C246.396 230.472 245.57 226.862 243.928 223.604C242.288 220.344 239.884 217.528 236.92 215.4C233.444 212.76 229.596 210.65 225.5 209.14C224.58 208.78 223.1 207.24 222.36 208.84C221.62 210.44 223.62 210.66 224.62 211.22C231.886 215.128 237.506 221.516 240.46 229.22C241.324 231.218 241.722 233.386 241.62 235.56C241.4 238.16 241.42 238.12 243.72 239C244.9 239.48 245.72 239.44 245.96 237.98C246.262 236.718 246.37 235.416 246.28 234.12H246.34ZM239.94 237.36C240.344 235.944 240.244 234.432 239.66 233.08C238.646 229.93 237.14 226.96 235.2 224.28C231.66 219.834 227.782 215.668 223.6 211.82C223.482 211.67 223.31 211.57 223.122 211.54C222.932 211.51 222.74 211.554 222.58 211.66C222.44 213.2 222.32 214.72 224.28 215.66C225.09 216.12 225.814 216.714 226.42 217.42C230.07 221.37 233.062 225.88 235.28 230.78C235.614 231.294 235.818 231.88 235.874 232.49C235.93 233.1 235.836 233.714 235.6 234.28C232.174 228.066 228.156 222.2 223.6 216.76C223.354 218.478 223.462 220.226 223.92 221.9C223.932 222.342 224.036 222.778 224.22 223.18C224.406 223.582 224.672 223.942 225 224.24C227.576 226.372 229.564 229.126 230.78 232.24C230.92 232.674 231.146 233.074 231.446 233.418C231.744 233.762 232.11 234.04 232.52 234.24C235 235.16 237.26 236.24 239.88 237.36H239.94ZM237.64 120.72C237.02 121.2 236.9 121.26 236.88 121.34C234.64 129.34 232.406 137.34 230.18 145.34C229.986 145.82 229.986 146.358 230.18 146.84C230.764 147.624 231.534 148.252 232.422 148.664C233.308 149.076 234.284 149.26 235.26 149.2C237 148.7 237.66 147.62 237.66 145.2C237.66 139.2 237.66 133.06 237.66 126.98L237.64 120.72ZM101.54 122.72L100.96 122.9V146.58C101.014 147.012 101.154 147.43 101.374 147.806C101.592 148.182 101.886 148.51 102.236 148.77C102.584 149.03 102.984 149.216 103.408 149.318C103.83 149.42 104.27 149.434 104.7 149.36C105.128 149.334 105.542 149.204 105.91 148.984C106.278 148.764 106.586 148.458 106.812 148.094C107.038 147.73 107.172 147.318 107.204 146.89C107.238 146.462 107.168 146.034 107 145.64C106.34 143.06 105.6 140.48 105 137.88C103.84 132.82 102.68 127.76 101.48 122.68L101.54 122.72ZM169.16 28.3799C168.74 28.7599 168.32 29.2199 167.84 29.5999C167.36 29.9799 167.02 30.6999 167.64 31.3999C170.418 34.5357 173.712 37.1737 177.38 39.1999C176.38 37.3799 174.92 35.8599 174.14 34.0399C173.122 31.6435 171.354 29.6429 169.1 28.3399L169.16 28.3799ZM230.38 233.06C228.804 230.086 226.884 227.308 224.66 224.78C224.8 231.78 223.84 230.4 230.32 233.02L230.38 233.06ZM177 31.7199C177.72 33.7199 177.72 33.7199 180.16 34.6599C179.436 33.3767 178.332 32.3493 177 31.7199Z" fill="#706444"/>
<path d="M278.88 406.241C278.94 405.737 278.94 405.225 278.88 404.721C275.634 392.995 273.506 380.987 272.52 368.861C271.5 369.041 271.6 369.881 271.42 370.521C270.51 373.803 269.408 377.029 268.12 380.181C267.074 382.961 265.298 385.407 262.978 387.261C260.658 389.115 257.882 390.311 254.94 390.721C246.448 392.247 237.848 393.095 229.22 393.261C221.532 393.137 213.842 393.405 206.18 394.061C200.392 394.749 194.532 394.457 188.84 393.201C186.84 392.781 185.04 392.161 183.16 391.601C180.516 390.817 178.116 389.369 176.19 387.395C174.264 385.419 172.878 382.985 172.16 380.321C171.14 376.647 170.344 372.913 169.78 369.141C169.78 368.741 169.62 368.341 169.48 367.641C168.562 369.665 168.034 371.843 167.92 374.061C167.452 376.491 166.83 378.889 166.06 381.241C165.282 383.609 163.962 385.763 162.206 387.529C160.448 389.297 158.304 390.629 155.94 391.421C148.964 393.957 141.512 394.919 134.12 394.241C127.814 393.605 121.478 393.297 115.14 393.321C104.742 393.395 94.3559 392.565 84.0999 390.841C80.8899 390.459 77.854 389.167 75.356 387.115C72.856 385.063 70.9979 382.337 69.9999 379.261C68.7199 375.801 67.5999 372.281 66.2199 368.781C64.9739 381.447 62.626 393.983 59.2 406.241H56.7C60.878 391.553 63.42 376.447 64.28 361.201C64.388 357.179 64.072 353.157 63.34 349.201C62.04 339.483 61.2599 329.703 60.9999 319.901C60.9999 318.501 60.7399 317.021 62.0599 315.901C63.4199 316.921 63.3 318.441 63.34 319.901C63.62 327.121 63.96 334.341 64.84 341.501C66.26 352.861 67.1599 364.301 71.0599 375.201C71.6399 376.861 72.2999 378.481 73.0599 380.101C73.9439 382.219 75.346 384.077 77.14 385.507C78.934 386.937 81.0599 387.891 83.3199 388.281C87.6039 389.123 91.93 389.737 96.28 390.121C103.006 390.795 109.762 391.087 116.52 391.001C122.24 391.001 127.96 391.301 133.66 391.861C140.286 392.615 146.996 392.045 153.4 390.181C156.334 389.495 159.02 388.009 161.162 385.893C163.304 383.775 164.82 381.105 165.54 378.181C166.66 374.001 167.54 369.781 168.54 365.561C168.558 365.171 168.664 364.789 168.846 364.443C169.03 364.097 169.288 363.795 169.6 363.561C170.26 366.521 170.92 369.401 171.6 372.261C172.222 375.081 173.018 377.859 173.98 380.581C174.654 382.549 175.758 384.341 177.21 385.829C178.664 387.317 180.43 388.461 182.38 389.181C187.644 391.495 193.38 392.529 199.12 392.201C213.32 390.961 227.6 391.561 241.8 390.201C246.04 389.821 250.26 389.241 254.46 388.501C257.094 388.135 259.578 387.055 261.642 385.377C263.704 383.699 265.268 381.487 266.16 378.981C268.726 372.549 270.518 365.835 271.5 358.981C273.566 345.837 274.836 332.579 275.3 319.281C275.3 317.901 275.3 317.901 276.44 316.161C277.92 316.961 277.74 318.361 277.68 319.641C277.38 326.861 277.02 334.061 276.2 341.241C275.62 346.461 274.88 351.681 274.2 356.901C274.064 359.165 274.158 361.437 274.48 363.681C275.32 377.383 277.6 390.957 281.28 404.181C281.552 404.853 281.628 405.587 281.5 406.301L278.88 406.241Z" fill="#706444"/>
<path d="M122.3 247.26C122.594 247.216 122.896 247.258 123.168 247.378C123.44 247.498 123.674 247.694 123.84 247.94C128.646 253.328 135.09 256.982 142.18 258.34C148.18 259.72 154.18 260.86 160.18 262.14C165 263.16 166.5 263.98 169.34 267.2C171.34 263.76 174.92 262.88 178.46 262.12C184.34 260.86 190.26 259.72 196.12 258.38C203.316 257.02 209.862 253.322 214.74 247.86C214.954 247.648 215.196 247.466 215.46 247.32C215.46 247.32 215.68 247.32 215.96 247.32C216.2 249.1 214.94 250.16 213.96 251.18C209.946 255.116 205.02 257.996 199.62 259.56C193.908 261.106 188.122 262.356 182.28 263.3C180.04 263.7 177.78 264.1 175.58 264.7C174.504 264.876 173.496 265.34 172.664 266.044C171.834 266.75 171.21 267.668 170.86 268.7C170.66 269.4 170.36 270 169.4 270.02C169.044 270.072 168.68 269.986 168.386 269.778C168.09 269.568 167.888 269.254 167.82 268.9C167.438 267.702 166.71 266.642 165.728 265.856C164.746 265.068 163.554 264.59 162.3 264.48C158.04 263.58 153.76 262.82 149.48 262C145.906 261.362 142.366 260.536 138.88 259.52C133.628 257.94 128.828 255.128 124.88 251.32C124.202 250.848 123.626 250.246 123.184 249.548C122.74 248.852 122.44 248.074 122.3 247.26Z" fill="#706444"/>
<path d="M286.08 314.24C287.04 314.7 287.46 315.64 288.08 316.38C290.53 319.334 293.568 321.744 297 323.46C300.3 325.278 304.134 325.874 307.83 325.142C311.524 324.41 314.842 322.398 317.2 319.46C319.348 316.944 320.992 314.038 322.04 310.9C322.34 309.98 322.48 308.34 323.64 308.62C324.8 308.9 324.42 310.62 324.12 311.52C322.592 317.052 319.092 321.832 314.28 324.96C312.458 326.17 310.398 326.974 308.238 327.32C306.078 327.664 303.868 327.542 301.76 326.96C298.54 326.164 295.508 324.74 292.838 322.77C290.168 320.8 287.912 318.322 286.2 315.48C286.052 315.218 285.944 314.934 285.88 314.64C285.88 314.64 285.98 314.42 286.08 314.24Z" fill="#706444"/>
<path d="M14.6001 308.34C16.0801 308.62 16.0402 309.94 16.4002 310.94C17.5542 314.37 19.4302 317.514 21.9002 320.16C24.2682 322.818 27.4621 324.6 30.9661 325.222C34.4721 325.842 38.0841 325.264 41.2201 323.58C44.6681 321.88 47.7261 319.484 50.2001 316.54L52.5202 313.74C52.6562 314.078 52.6861 314.45 52.6081 314.808C52.5301 315.164 52.3462 315.49 52.0802 315.74C50.1082 318.982 47.4162 321.728 44.2102 323.76C41.0042 325.792 37.3741 327.058 33.6001 327.46C30.3661 327.756 27.1261 326.938 24.4201 325.14C19.4661 322.03 15.8561 317.178 14.3001 311.54C14.0001 310.46 13.4601 309.3 14.6001 308.34Z" fill="#706444"/>
<path d="M105 250.62C107.658 254.698 111.504 257.862 116.02 259.68C124.108 263.89 132.614 267.24 141.4 269.68C143.918 270.298 146.35 271.226 148.64 272.44C149.52 272.9 150.64 273.14 151.04 274.16C150.62 274.52 150.22 274.32 149.86 274.16C145.764 272.166 141.456 270.636 137.02 269.6C128.68 267.1 120.608 263.784 112.92 259.7C110.638 258.646 108.594 257.136 106.92 255.26C105.754 253.988 105.074 252.344 105 250.62Z" fill="#706444"/>
<path d="M233.22 251.14C233.244 251.826 233.13 252.508 232.882 253.148C232.634 253.788 232.26 254.37 231.78 254.86C230.04 256.93 227.87 258.596 225.42 259.74C217.466 263.974 209.094 267.374 200.44 269.88C196.408 270.842 192.492 272.238 188.76 274.04C188.562 274.176 188.33 274.248 188.09 274.248C187.85 274.248 187.616 274.176 187.42 274.04C187.84 273.2 188.7 272.92 189.42 272.54C192.572 270.97 195.894 269.762 199.32 268.94C208.156 266.322 216.696 262.79 224.8 258.4C228.22 256.798 231.132 254.286 233.22 251.14Z" fill="#706444"/>
<path d="M271.12 276.54C268 288.54 266.98 299.98 273.42 311.22C272.94 311.76 272.5 310.98 272.2 310.68C270.25 308.674 268.922 306.146 268.38 303.4C266.818 297.096 266.6 290.534 267.74 284.14C268.152 281.346 269.322 278.718 271.12 276.54Z" fill="#706444"/>
<path d="M65.0001 311.24C69.9601 303.94 69.9801 295.82 69.5201 287.62C69.2501 284.05 68.5801 280.52 67.5201 277.1C69.1521 278.706 70.1821 280.824 70.4401 283.1C72.0221 290.288 71.7601 297.76 69.6801 304.82C69.4101 306.166 68.8521 307.436 68.0441 308.544C67.2361 309.652 66.1981 310.572 65.0001 311.24Z" fill="#706444"/>
<path d="M194.06 157.48C190.988 155.82 188.122 153.806 185.52 151.48C183.498 149.744 181.028 148.614 178.392 148.218C175.756 147.82 173.064 148.176 170.62 149.24C170.34 149.338 170.096 149.522 169.928 149.766C169.758 150.01 169.672 150.302 169.68 150.6C169.526 151.642 169.78 152.702 170.386 153.562C170.992 154.422 171.908 155.016 172.94 155.22C177.1 156.8 181.3 158.24 185.3 160.2C186.88 160.98 188.52 161.66 188.96 163.62C187.12 163.2 185.58 161.62 183.4 162.54C182.22 163.06 181.28 163.38 181.24 165.02C181.006 167.488 180.13 169.854 178.7 171.88C178.158 172.858 177.398 173.7 176.478 174.338C175.56 174.976 174.506 175.394 173.4 175.56C174.28 177.14 176.48 176.96 177.28 178.84C175.18 178.84 173.8 177.34 172.02 177C170.116 176.59 168.144 176.59 166.24 177C164.46 177.36 163.02 178.56 160.7 179.16C161.86 177.16 163.64 177 164.92 175.8C159.54 173.8 157.68 169.56 157.02 164.46C156.8 162.66 153.44 161.62 151.44 162.68C149.792 163.574 148.328 164.768 147.12 166.2C146.28 167.2 145.38 168.2 144.38 169.3C143.96 168.12 144.74 167.74 145.14 167.3C148.386 163.118 152.756 159.946 157.74 158.16C160.1 157.34 162.42 156.46 164.76 155.58C165.52 155.28 166.28 154.94 167.02 154.56C168.72 153.68 168.56 151.96 168.7 150.56C168.84 149.16 167.24 149.32 166.42 148.98C161.24 146.84 156.82 148.64 152.74 151.82C150.628 153.61 148.304 155.136 145.82 156.36C147.062 154.2 148.942 152.474 151.2 151.42C153.36 150.02 155.64 148.82 158.22 147.32C154.48 146.36 154.68 143.7 154.74 141.1C154.74 138.14 157.28 137.34 159.26 136.12C159.368 136.012 159.516 135.951 159.67 135.951C159.824 135.951 159.972 136.012 160.08 136.12C160.42 136.56 160.08 136.8 159.78 137.1C158.896 137.968 157.968 138.789 157 139.56C155.38 140.68 155.66 142.2 155.96 143.72C156.26 145.24 157.5 145.72 158.98 145.82C160.236 146.042 161.474 146.364 162.68 146.78C161.432 143.848 161.058 140.62 161.6 137.48C162.27 138.49 162.592 139.691 162.52 140.9C162.52 142.13 162.802 143.344 163.346 144.446C163.892 145.55 164.682 146.512 165.66 147.26C166.482 147.77 167.406 148.092 168.368 148.202C169.33 148.31 170.304 148.204 171.218 147.89C172.134 147.576 172.968 147.062 173.66 146.386C174.352 145.71 174.884 144.888 175.22 143.98C175.688 142.7 175.912 141.343 175.88 139.98C175.782 139.641 175.816 139.277 175.976 138.962C176.136 138.646 176.408 138.403 176.74 138.28C177.28 141.063 176.908 143.946 175.68 146.5C177.198 146.338 178.698 146.036 180.16 145.6C180.718 145.448 181.228 145.156 181.642 144.752C182.056 144.35 182.362 143.848 182.53 143.294C182.698 142.74 182.722 142.154 182.602 141.588C182.48 141.023 182.218 140.497 181.84 140.06C180.538 138.603 179.06 137.314 177.44 136.22C178.67 136.136 179.896 136.432 180.952 137.069C182.008 137.706 182.842 138.653 183.34 139.78C183.56 141.313 183.56 142.868 183.34 144.4C183.24 146.2 181.5 146.4 180.28 147.32C185.4 150.24 190.68 152.66 194.06 157.48ZM180.28 163.62C172.936 164.99 165.404 164.99 158.06 163.62C158.336 166.246 159.168 168.782 160.5 171.06C160.996 172.138 161.788 173.052 162.782 173.7C163.776 174.348 164.934 174.702 166.12 174.72C168.12 174.88 170.26 174.72 172.34 174.72C173.224 174.758 174.106 174.59 174.914 174.228C175.724 173.868 176.438 173.324 177 172.64C179.01 170.05 180.156 166.896 180.28 163.62ZM184.28 161.04C181.88 160.18 179.46 159.38 177.08 158.46C176.35 158.078 175.526 157.912 174.704 157.978C173.884 158.046 173.098 158.344 172.44 158.84C171.602 159.534 170.556 159.928 169.468 159.956C168.38 159.986 167.314 159.648 166.44 159C165.71 158.428 164.83 158.082 163.906 158.004C162.982 157.926 162.056 158.118 161.24 158.56C159.4 159.26 157.52 159.82 155.66 160.56C155.14 160.74 154.44 160.82 154.5 161.72C164.246 164.62 174.656 164.382 184.26 161.04H184.28ZM173.34 156.68C168.8 154.06 168.8 154.06 165.34 156.88C169.22 159.14 169.22 159.14 173.32 156.68H173.34Z" fill="#706444"/>
<path d="M230.88 96.5195C229.64 93.4795 228.42 90.5195 227.16 87.4195C226.52 85.8995 225.8 84.4195 225.16 82.9395C223.836 79.8171 221.6 77.1671 218.746 75.3363C215.892 73.5057 212.55 72.5797 209.16 72.6795C200.86 72.4795 192.56 72.4195 184.26 72.9595C183.022 73.0667 181.776 72.9925 180.56 72.7395C180.096 72.6843 179.664 72.4679 179.344 72.1281C179.022 71.7883 178.83 71.3465 178.8 70.8795C178.804 70.4611 178.94 70.0547 179.188 69.7175C179.436 69.3803 179.782 69.1291 180.18 68.9995C181.036 68.6239 181.948 68.3939 182.88 68.3195C187.63 67.8431 192.408 67.6759 197.18 67.8195C200.6 67.9595 204.04 68.0195 207.46 68.1395C208.9 68.1395 210.36 68.2795 211.8 68.4795C214.284 68.7911 216.66 69.6761 218.744 71.0645C220.826 72.4531 222.558 74.3069 223.8 76.4795C225.24 78.6255 226.39 80.9523 227.22 83.3995C228.46 87.7195 230.44 91.9195 230.88 96.5195Z" fill="#706444"/>
<path d="M107.5 97.0802C107.34 96.2202 107.22 96.0002 107.28 95.8202C108.874 89.3254 111.23 83.042 114.3 77.1002C115.75 74.3798 117.926 72.1127 120.582 70.5493C123.24 68.9859 126.278 68.187 129.36 68.2402C137.86 68.0802 146.38 67.2202 154.88 68.2402C155.92 68.2784 156.95 68.4602 157.94 68.7802C158.98 69.2002 159.78 69.8001 159.66 71.0401C159.54 72.2801 158.7 72.5002 157.66 72.7402C156.228 72.94 154.774 72.94 153.34 72.7402C144.318 72.2234 135.272 72.297 126.26 72.9602C123.734 73.2144 121.312 74.0981 119.214 75.5307C117.118 76.9633 115.414 78.8988 114.26 81.1602C111.95 85.4206 109.99 89.8618 108.4 94.4402L107.5 97.0802Z" fill="#706444"/>
<path d="M218.7 100.24C215.44 98.5202 213.04 95.4602 209.28 94.2402C208.96 95.9802 209.58 97.5802 209.06 99.2402C208.714 100.817 207.948 102.271 206.842 103.447C205.736 104.623 204.332 105.478 202.78 105.92C201.114 106.369 199.356 106.362 197.692 105.901C196.028 105.441 194.518 104.542 193.32 103.3C192.194 102.069 191.592 100.448 191.64 98.7802C191.64 97.2402 191.64 95.7202 191.64 93.9202C188 95.1802 185.36 97.6802 182.04 98.8402C181.5 98.0402 182.04 97.6002 182.56 97.3402C184.178 96.2392 185.924 95.3394 187.76 94.6602C188.654 94.3768 189.454 93.8588 190.08 93.1602C192.64 90.6002 195.98 90.3602 199.26 90.1402C203.124 89.9972 206.952 90.9468 210.3 92.8802C212.984 94.4484 215.522 96.2558 217.88 98.2802C218.38 98.7402 219.1 99.2002 218.7 100.24ZM196.22 91.7802C194.76 92.1002 193.56 92.5202 193 94.0002C192.478 95.6284 192.438 97.3726 192.886 99.0228C193.332 100.673 194.248 102.159 195.52 103.3C196.628 104.248 197.998 104.836 199.45 104.987C200.9 105.137 202.362 104.841 203.64 104.14C206.98 101.94 208.86 99.7002 207.86 95.7602C207 92.4002 206.6 91.8602 202.5 92.0202C203.568 94.1592 203.798 96.6212 203.14 98.9202C203.048 99.5474 202.776 100.134 202.356 100.609C201.936 101.084 201.388 101.426 200.776 101.593C200.166 101.761 199.518 101.747 198.916 101.553C198.312 101.359 197.778 100.993 197.38 100.5C196.432 99.6874 195.776 98.5866 195.512 97.366C195.25 96.1452 195.392 94.872 195.92 93.7402C196.14 93.1602 196.68 92.7002 196.22 91.7602V91.7802ZM201.54 98.0602C201.54 97.1602 201.18 96.2802 200.14 96.3802C199.1 96.4802 198.96 97.4202 198.96 98.2802C198.95 98.4616 198.974 98.6432 199.034 98.8148C199.094 98.9864 199.186 99.1446 199.308 99.2802C199.428 99.4158 199.574 99.5262 199.738 99.6052C199.902 99.6842 200.078 99.73 200.26 99.7402C201.48 99.8002 201.4 98.8002 201.54 98.0402V98.0602Z" fill="#706444"/>
<path d="M129.1 94.2398C125.3 95.6198 122.86 98.4398 119.56 100.24C119.496 99.857 119.546 99.464 119.702 99.109C119.86 98.7538 120.116 98.4518 120.44 98.2398C123.84 95.1934 127.746 92.7636 131.98 91.0598C136.046 89.8154 140.376 89.7048 144.5 90.7398C144.916 90.789 145.316 90.9402 145.66 91.1798C148.66 93.7598 152.4 95.0798 155.66 97.1798C156.2 97.5198 156.76 97.8598 156.16 98.8798L146.6 93.5798V99.1198C146.626 100.1 146.404 101.071 145.952 101.942C145.5 102.813 144.836 103.555 144.02 104.1C142.694 105.198 141.086 105.904 139.378 106.138C137.672 106.371 135.934 106.122 134.36 105.42C132.746 104.693 131.384 103.506 130.44 102.009C129.498 100.511 129.018 98.7688 129.06 96.9998C129 96.2398 129.1 95.4598 129.1 94.2398ZM141.98 91.6598C141.8 92.6998 142.4 93.2198 142.6 93.8798C143.024 94.9946 143.104 96.2102 142.834 97.3714C142.564 98.5328 141.952 99.587 141.08 100.4C140.74 100.834 140.294 101.174 139.784 101.386C139.274 101.599 138.718 101.676 138.17 101.612C137.622 101.548 137.1 101.344 136.654 101.019C136.206 100.695 135.85 100.261 135.62 99.7598C134.758 97.978 134.588 95.94 135.14 94.0396C135.4 93.3396 135.94 92.6398 135.64 91.7998C131.52 91.9798 131.08 92.3998 130.44 96.4598C130.356 97.5064 130.484 98.5592 130.814 99.5556C131.146 100.552 131.674 101.471 132.368 102.259C133.062 103.047 133.908 103.686 134.856 104.14C135.802 104.594 136.832 104.852 137.88 104.9C139.96 104.901 141.96 104.091 143.454 102.642C144.948 101.193 145.818 99.2196 145.88 97.1398C146.1 94.2398 145.1 92.7198 141.98 91.6998V91.6598ZM139.56 98.0598C139.34 97.3798 139.28 96.3798 138.26 96.2998C137.24 96.2198 136.92 97.1598 136.94 98.0198C136.96 98.8798 136.94 99.6198 137.92 99.6998C138.9 99.7798 139.36 99.1396 139.56 98.0996V98.0598Z" fill="#706444"/>
<path d="M219.16 95.76C217.712 94.2172 216.344 92.6018 215.06 90.92C209.9 83.64 198.34 79.94 189.54 86.54L188.08 87.62C189.388 85.5356 191.384 83.9726 193.72 83.2C194.13 83.171 194.538 83.1108 194.94 83.02C202.82 80.42 209.08 83.3402 214.58 88.7202C215.676 89.8156 216.712 90.9706 217.68 92.18C218.62 93.136 219.15 94.4198 219.16 95.76Z" fill="#706444"/>
<path d="M149 86.2397C147.696 85.9565 146.458 85.4197 145.36 84.6597C141.384 82.8369 136.848 82.6571 132.74 84.1597C127.22 85.8797 124.06 89.8797 120.74 93.9397L119.54 95.3397C119.54 95.3397 119.38 95.3397 119.14 95.4397C119.138 94.9293 119.24 94.4239 119.444 93.9557C119.648 93.4875 119.946 93.0665 120.32 92.7197C123.778 87.4839 129.098 83.7587 135.2 82.2997C136.498 81.9181 137.866 81.8361 139.2 82.0597C142.3 82.7597 145.6 82.9197 148.18 85.1197C148.56 85.4397 149.08 85.6797 148.98 86.2997L149 86.2397Z" fill="#706444"/>
<path d="M181.72 102.6C184.6 104.6 187.06 107.08 189.72 109.3C192.578 111.587 196.162 112.772 199.82 112.64C201.978 112.776 204.142 112.539 206.22 111.94C205.164 112.727 203.964 113.295 202.686 113.611C201.408 113.927 200.08 113.984 198.78 113.78C194.82 113.547 191.072 111.917 188.2 109.18C185.82 107.215 183.648 105.01 181.72 102.6Z" fill="#706444"/>
<path d="M133.48 112.701C136.54 112.401 139.48 112.961 142.3 112.301C144.432 111.88 146.442 110.984 148.18 109.681C151.28 107.281 154.18 104.561 157.08 101.981C156.016 104.008 154.496 105.76 152.64 107.101C150.984 108.639 149.22 110.056 147.36 111.341C143.686 113.529 139.32 114.244 135.14 113.341C134.564 113.19 134.008 112.975 133.48 112.701Z" fill="#706444"/>
<path d="M172.62 93.6808V134.121H172.4V93.7208L172.62 93.6808Z" fill="#706444"/>
<path d="M165.56 94.7007C165.92 97.5207 165.92 131.161 165.56 134.061V94.7007Z" fill="#706444"/>
<path d="M159.44 133.9C158.94 124.98 159.16 116.06 159.44 107.12V133.9Z" fill="#706444"/>
<path d="M179.42 107.141V133.881C179 124.961 179.12 116.061 179.42 107.141Z" fill="#706444"/>
<path d="M121.98 102.441C124.358 104.065 126.324 106.223 127.72 108.741C125.334 107.126 123.366 104.966 121.98 102.441Z" fill="#706444"/>
<path d="M216.1 102.6C215.25 104.613 213.868 106.355 212.1 107.64C212.83 105.558 214.238 103.783 216.1 102.6Z" fill="#706444"/>
<path d="M149 86.2397C150.36 86.2397 151 87.4405 151.8 88.2405C151.208 88.1557 150.644 87.9297 150.156 87.5817C149.67 87.2337 149.272 86.7729 149 86.2397Z" fill="#706444"/>
<path d="M146 156.24C145.686 156.884 145.232 157.45 144.672 157.896C144.11 158.342 143.458 158.658 142.76 158.82C143.1 158.194 143.56 157.644 144.118 157.2C144.674 156.758 145.314 156.43 146 156.24Z" fill="#706444"/>
<path d="M154.3 90.9802C154.094 90.7242 153.914 90.4498 153.76 90.1602C153.64 89.9202 153.76 89.8402 154.02 89.9802C154.242 90.1358 154.456 90.3026 154.66 90.4802C154.86 90.6602 154.82 90.8202 154.3 90.9802Z" fill="#706444"/>
<path d="M185.52 182.1C189.82 189.32 192.86 196.92 191.86 205.6C190.606 197.56 188.48 189.68 185.52 182.1Z" fill="#706444"/>
<path d="M182.5 188.84C186.212 196.126 187.252 204.484 185.44 212.46C184.62 211.32 185.3 210.08 185.24 208.88C185.18 207.68 185.24 206.2 185.24 204.88C185.24 203.56 184.96 202.02 184.74 200.6C184.52 199.18 184.34 197.96 184.06 196.6C183.78 195.24 183.4 194 183.12 192.6C182.582 191.424 182.368 190.126 182.5 188.84Z" fill="#706444"/>
<path d="M177 191.52C178.798 198.278 179.672 205.248 179.6 212.24C177.86 205.472 176.986 198.508 177 191.52Z" fill="#706444"/>
<path d="M196.04 198.24C195.28 190.6 191.38 184.1 188.48 177C192.58 180.44 197 192.66 196.04 198.24Z" fill="#706444"/>
<path d="M174.2 199.22C175.36 205.22 175.64 211.42 177.34 217.36C174.278 211.84 173.172 205.448 174.2 199.22Z" fill="#706444"/>
<path d="M144.88 208.421C145.24 200.861 149.7 195.241 154.64 189.901C152.64 192.821 150.74 195.741 148.88 198.721C147.12 201.761 145.774 205.023 144.88 208.421Z" fill="#706444"/>
<path d="M181 194.24C182.606 199.426 183.482 204.812 183.6 210.24C181.854 205.088 180.976 199.68 181 194.24Z" fill="#706444"/>
<path d="M132.38 191.4C134.58 185.3 139.42 181.4 143.92 177.14C140.34 182.12 135.46 186.04 132.38 191.4Z" fill="#706444"/>
<path d="M151.94 185.02C148.74 189.92 143.94 193.76 141.94 199.4C142.24 195.24 147.48 187.66 151.94 185.02Z" fill="#706444"/>
<path d="M196.8 175.32C200.614 180.364 202.786 186.46 203.02 192.78C201.602 186.746 199.516 180.89 196.8 175.32Z" fill="#706444"/>
<path d="M209 159.52C213 162.38 216.3 168.24 216.06 172.04C214.56 167.38 211.42 163.64 209 159.52Z" fill="#706444"/>
<path d="M123.32 174.62C125.964 170.762 129.158 167.314 132.8 164.38C132.32 166.24 125.46 173.5 123.32 174.62Z" fill="#706444"/>
<path d="M208 162.54C211.29 166.19 213.536 170.66 214.5 175.48C212.26 171.2 210.1 166.9 208 162.54Z" fill="#706444"/>
<path d="M194.2 198.541C192.22 194.053 190.568 189.429 189.26 184.701C191.816 188.937 193.496 193.643 194.2 198.541Z" fill="#706444"/>
<path d="M213 156.02C216.284 158.83 218.56 162.636 219.48 166.86C217.34 163.2 215.1 159.64 213 156.02Z" fill="#706444"/>
<path d="M186.7 193.321C188.456 197.367 189.368 201.729 189.38 206.141L188.62 206.261L186.7 193.321Z" fill="#706444"/>
<path d="M137.84 171.661C135.84 174.541 133.08 176.721 131.2 179.661C130.58 180.641 130.16 181.821 128.92 182.321C130.538 177.819 133.688 174.031 137.82 171.621L137.84 171.661Z" fill="#706444"/>
<path d="M162.76 197.02C161.86 199.41 160.838 201.754 159.7 204.04C158.828 206.442 157.832 208.798 156.72 211.1C158.16 206.18 159.22 201.1 162.82 197.1L162.76 197.02Z" fill="#706444"/>
<path d="M161 196.441L153.98 209.261L153.34 208.921C155.56 204.581 157.94 200.341 160.36 196.081L161 196.441Z" fill="#706444"/>
<path d="M129.82 160.02C128.36 161.58 126.88 163.1 125.44 164.66C124 166.12 122.756 167.76 121.74 169.54C122.44 164.86 126.22 162.44 129.18 159.42L129.82 160.02Z" fill="#706444"/>
<path d="M198.7 193.84C197.18 190.644 196.02 187.29 195.24 183.84C197.524 186.668 198.748 190.204 198.7 193.84Z" fill="#706444"/>
<path d="M217.52 148.38C220.366 150.364 222.358 153.35 223.1 156.74C221 154.1 219.52 151.08 217.52 148.38Z" fill="#706444"/>
<path d="M202.3 177.701C203.448 178.741 204.354 180.019 204.96 181.445C205.564 182.873 205.85 184.413 205.8 185.961C204.64 183.201 203.48 180.441 202.3 177.701Z" fill="#706444"/>
<path d="M123.9 157C122.46 160 119.32 161.74 118.36 165C118.62 161.28 121.44 159.24 123.9 157Z" fill="#706444"/>
<path d="M144.6 183.941C146.34 181.341 148.16 178.821 151.42 177.941C148.66 179.441 147.26 182.361 144.84 184.201L144.6 183.941Z" fill="#706444"/>
<path d="M112.5 151.98C112.448 150.482 112.804 149 113.53 147.69C114.254 146.378 115.324 145.29 116.62 144.54C114.754 146.712 113.352 149.244 112.5 151.98Z" fill="#706444"/>
<path d="M150.86 190.06L145.96 197.38C146.708 194.452 148.438 191.868 150.86 190.06Z" fill="#706444"/>
<path d="M189 163.66C192.12 164.72 193.24 167.66 195 169.92C192.774 168.04 190.762 165.922 189 163.6V163.66Z" fill="#706444"/>
<path d="M118.28 158.5C119.324 156.166 121.044 154.202 123.22 152.86C122.016 155.086 120.328 157.012 118.28 158.5Z" fill="#706444"/>
<path d="M162.18 205.08C161.84 207.9 159.92 210 158.72 212.44C159.356 209.78 160.526 207.276 162.16 205.08H162.18Z" fill="#706444"/>
<path d="M165.28 206.941C164.596 209.673 163.7 212.349 162.6 214.941C163.06 212.121 163.14 209.161 165.34 206.941H165.28Z" fill="#706444"/>
<path d="M162.16 205.08C162.818 202.614 163.922 200.288 165.42 198.22C164.84 200.712 163.736 203.05 162.18 205.08H162.16Z" fill="#706444"/>
<path d="M153.4 196.4C152.672 198.876 151.492 201.194 149.92 203.24C150.88 200.88 151.44 198.28 153.48 196.46L153.4 196.4Z" fill="#706444"/>
<path d="M217.64 152.5C219.25 153.874 220.32 155.772 220.66 157.86L217.1 152.88L217.64 152.5Z" fill="#706444"/>
<path d="M215.7 155.52C216.652 156.066 217.466 156.824 218.076 157.738C218.688 158.65 219.078 159.692 219.22 160.78L215.7 155.52Z" fill="#706444"/>
<path d="M135.22 178.241C134.36 179.841 133.52 181.441 132.64 183.021C132.428 183.371 132.094 183.629 131.7 183.741C132.226 181.565 133.464 179.629 135.22 178.241Z" fill="#706444"/>
<path d="M137.76 179.64C138.742 177.642 140.34 176.016 142.32 175C140.74 176.5 139.8 178.54 137.94 179.8L137.76 179.64Z" fill="#706444"/>
<path d="M217 167.201L213.94 162.201C215.76 162.901 216.64 164.241 217 167.201Z" fill="#706444"/>
<path d="M167.96 209.561L169.76 204.941C169.64 206.681 170.04 208.601 167.96 209.561Z" fill="#706444"/>
<path d="M137.94 179.8C137.016 181.53 135.782 183.076 134.3 184.36C135.012 182.506 136.206 180.876 137.76 179.64L137.94 179.8Z" fill="#706444"/>
<path d="M204.06 166.621C205.65 167.491 206.866 168.915 207.48 170.621C206.052 169.611 204.842 168.327 203.92 166.841L204.06 166.621Z" fill="#706444"/>
<path d="M144.84 184.24C143.906 185.94 142.576 187.388 140.96 188.46C141.778 186.696 143.048 185.178 144.64 184.06L144.84 184.24Z" fill="#706444"/>
<path d="M143.44 190.241C142.706 191.893 141.764 193.445 140.64 194.861C141.16 193.061 141.48 191.161 143.48 190.281L143.44 190.241Z" fill="#706444"/>
<path d="M123.78 160.92C123.306 162.388 122.318 163.638 121 164.44C121.204 163.696 121.554 163.002 122.032 162.398C122.51 161.792 123.104 161.29 123.78 160.92Z" fill="#706444"/>
<path d="M155.3 193.301C155.52 191.521 157.02 190.741 158.36 189.861C157.57 191.197 156.538 192.377 155.32 193.341L155.3 193.301Z" fill="#706444"/>
<path d="M141 188.38C140.58 189.94 139.18 190.74 138.2 191.86C138.406 191.12 138.756 190.43 139.23 189.826C139.704 189.222 140.292 188.716 140.96 188.34L141 188.38Z" fill="#706444"/>
<path d="M143.48 190.24C143.74 188.52 145.08 187.68 146.34 186.76C145.75 188.176 144.736 189.378 143.44 190.2L143.48 190.24Z" fill="#706444"/>
<path d="M165.34 206.981C165.1 205.401 166.2 204.321 166.86 202.981C166.888 203.699 166.76 204.417 166.488 205.083C166.216 205.747 165.804 206.347 165.28 206.841L165.34 206.981Z" fill="#706444"/>
<path d="M111.36 142.08C111.646 140.952 112.186 139.905 112.94 139.02C112.86 140.6 112.86 140.6 111.36 142.08Z" fill="#706444"/>
<path d="M124.86 168.7L122.86 172.08C122.86 170.08 122.86 170.08 124.56 168.46L124.86 168.7Z" fill="#706444"/>
<path d="M136.72 189.901C136.732 189.317 136.89 188.745 137.176 188.237C137.462 187.727 137.868 187.295 138.36 186.981C138.168 188.115 137.588 189.147 136.72 189.901Z" fill="#706444"/>
<path d="M116.26 151.541C116.604 150.327 117.388 149.287 118.46 148.621C118.43 149.273 118.204 149.901 117.812 150.421C117.418 150.943 116.878 151.333 116.26 151.541Z" fill="#706444"/>
<path d="M152.8 203.84C152.48 205.22 152.26 206.66 150.8 207.42C151.12 206.04 151.34 204.6 152.8 203.84Z" fill="#706444"/>
<path d="M119 152.901C119 151.841 119.52 151.181 121 150.441L119 152.901Z" fill="#706444"/>
<path d="M221.28 148.481C221.77 148.737 222.192 149.111 222.506 149.567C222.818 150.025 223.016 150.551 223.08 151.101C222.17 150.487 221.528 149.551 221.28 148.481Z" fill="#706444"/>
<path d="M110.76 137.28L110.08 139.86C109.48 138.88 109.6 138.12 110.76 137.28Z" fill="#706444"/>
<path d="M152.86 203.9C152.7 202.58 153.56 201.9 154.44 201.06C154.374 201.612 154.196 202.144 153.912 202.622C153.63 203.102 153.252 203.516 152.8 203.84L152.86 203.9Z" fill="#706444"/>
<path d="M223.82 148.12C223.04 147.24 222.36 146.52 223.22 145.3C223.612 145.642 223.882 146.102 223.99 146.61C224.098 147.118 224.04 147.648 223.82 148.12Z" fill="#706444"/>
<path d="M141 184.86C141.448 183.902 142.21 183.126 143.16 182.66C142.8 183.56 142.2 184.12 141 184.86Z" fill="#706444"/>
<path d="M153.48 196.46C153.462 195.816 153.622 195.18 153.942 194.622C154.264 194.064 154.734 193.607 155.3 193.301C155.246 193.937 155.034 194.548 154.686 195.082C154.336 195.616 153.86 196.054 153.3 196.36L153.48 196.46Z" fill="#706444"/>
<path d="M159 195.08C158.866 195.484 158.65 195.856 158.368 196.176C158.088 196.496 157.744 196.756 157.36 196.94C157.54 196.154 157.976 195.452 158.6 194.94C158.66 194.74 158.8 194.8 159 195.08Z" fill="#706444"/>
<path d="M150.8 207.42C151.22 208.5 150.58 209.26 149.7 210.68C149.716 209.514 150.124 208.386 150.86 207.48L150.8 207.42Z" fill="#706444"/>
<path d="M137.82 171.64C138.08 170.6 138.98 170.36 139.96 169.88C139.824 170.354 139.55 170.776 139.172 171.094C138.794 171.41 138.33 171.609 137.84 171.661L137.82 171.64Z" fill="#706444"/>
<path d="M124.62 168.461C124.88 167.581 125.54 167.121 126.86 166.361C126.506 167.361 125.792 168.194 124.86 168.7L124.62 168.461Z" fill="#706444"/>
<path d="M115.54 157.02C115.722 156.22 116.184 155.512 116.84 155.02C116.78 155.9 116.78 155.9 115.54 157.02Z" fill="#706444"/>
<path d="M162.82 197.081C162.82 196.141 163.42 195.741 164.58 195.281C163.92 196.181 163.68 196.921 162.76 197.021L162.82 197.081Z" fill="#706444"/>
<path d="M213.42 41.2405C217.42 42.5005 252.58 70.5405 256.24 75.2405C255.22 75.7605 254.7 74.9405 254.12 74.5205C246.52 68.9405 239.2 63.0205 231.86 57.1205C227.12 53.3005 222.42 49.4005 217.7 45.5005C216.124 44.2389 214.688 42.8107 213.42 41.2405Z" fill="#706444"/>
<path d="M251 66.8403C241.43 57.4595 231.204 48.7711 220.4 40.8403C227.1 42.5403 247.74 60.2403 251 66.8403Z" fill="#706444"/>
<path d="M234.14 41.3196C242.024 45.2538 248.398 51.6694 252.28 59.5796C246.788 52.9668 240.716 46.856 234.14 41.3196Z" fill="#706444"/>
<path d="M248.38 59.6796C242.308 54.5404 236.768 48.805 231.84 42.5596C235.32 44.3396 245.5 54.7396 248.38 59.6796Z" fill="#706444"/>
<path d="M123.64 37.9598C111.52 48.1998 99.06 57.9598 85.92 67.7998C86.32 66.8998 86.08 67.4598 85.92 67.0598C85.92 67.0598 85.92 66.8198 85.92 66.7798C95.92 57.7398 106.74 49.7798 117.26 41.4198C119.1 39.9598 121.06 38.6398 122.96 37.2598L123.64 37.9598Z" fill="#706444"/>
<path d="M129.9 36.2405C127.76 39.5005 97.2801 65.4005 93.6201 67.3005C95.5201 64.3405 125.94 38.1205 129.9 36.2405Z" fill="#706444"/>
<path d="M116.72 38.0405C114.72 41.5005 95.2201 56.8005 91.7601 57.8805C91.3801 56.9605 92.22 56.6005 92.68 56.1405C97.14 51.8005 113.78 39.1605 116.72 38.0405Z" fill="#706444"/>
<path d="M109.12 39.6204C104.922 43.8186 100.22 47.48 95.1201 50.5204C96.6601 47.7604 104.24 41.7404 109.12 39.6204Z" fill="#706444"/>
<path d="M97.6 44.2408C98.386 42.7406 99.466 41.4137 100.776 40.3385C102.084 39.2631 103.596 38.4615 105.22 37.9809C103.028 40.4589 100.456 42.5718 97.6 44.2408Z" fill="#706444"/>
<path d="M124.28 21.8802C136.742 20.717 149.276 20.5834 161.76 21.4802C149.296 22.5934 136.764 22.7272 124.28 21.8802Z" fill="#706444"/>
<path d="M162.38 25.2207C159.48 26.6207 139.1 27.0007 133.44 25.9407C133.34 25.2407 133.82 25.0607 134.34 25.0407C143.128 24.4375 151.942 24.3439 160.74 24.7607C161.3 24.8595 161.85 25.0135 162.38 25.2207Z" fill="#706444"/>
<path d="M161 17.7599C158.64 19.0599 142.64 19.4599 137.46 18.5399C137.32 17.8199 137.84 17.6599 138.36 17.6199C145.898 17.0367 153.47 17.0835 161 17.7599Z" fill="#706444"/>
<path d="M140.4 14.54C145.692 13.6028 151.108 13.6028 156.4 14.54C151.122 15.6176 145.68 15.6176 140.4 14.54Z" fill="#706444"/>
<path d="M161.56 10.5805C156.9 10.5805 152.22 11.0605 147.56 10.9005C150.84 8.90047 158.46 8.68047 161.56 10.5805Z" fill="#706444"/>
<path d="M213.64 18.5006C212.9 19.5606 211.78 19.2606 210.78 19.2806C201.04 19.6206 191.32 19.0206 181.6 18.6406C180.378 18.7168 179.166 18.3786 178.16 17.6806C178.36 16.6206 179.14 16.5806 179.82 16.5206C180.852 16.4504 181.888 16.4504 182.92 16.5206C192.24 16.7206 201.56 16.9006 210.92 17.7006C211.84 17.6806 213 17.5206 213.64 18.5006Z" fill="#706444"/>
<path d="M179.84 25.7208C183.02 24.4008 221.14 25.4008 224.58 26.8008C224.02 27.7008 223.12 27.4608 222.38 27.4808C218.22 27.4808 214.06 27.6008 209.9 27.4808C201.7 27.1608 193.5 26.8808 185.28 26.8608C183.39 27.0858 181.48 26.6854 179.84 25.7208Z" fill="#706444"/>
<path d="M179.56 21.6011C184.78 20.4811 214.62 21.6011 218.62 22.8411C215 23.9811 183.86 23.1411 179.56 21.6011Z" fill="#706444"/>
<path d="M195.22 13.7211C192.02 14.7811 180.78 14.4811 177.74 13.2411C179.7 12.0611 190.64 12.3611 195.22 13.7211Z" fill="#706444"/>
<path d="M187.88 10.4195C184.934 10.7903 181.96 10.8641 179 10.6395C180.7 8.41953 184.62 8.23953 187.88 10.4195Z" fill="#706444"/>
<path d="M95.82 78.1001C95.82 81.9801 84.18 114.1 82.16 116.42C81.96 113.54 93.34 81.2401 95.82 78.1001Z" fill="#706444"/>
<path d="M88.44 86.5804C86.852 92.6036 84.682 98.4578 81.96 104.06C81.62 100.8 86.1 88.9404 88.44 86.5804Z" fill="#706444"/>
<path d="M83.7001 85.8002C83.1801 90.8202 80.9801 95.2602 79.2401 99.8002C79.4941 94.827 81.0301 90.004 83.7001 85.8002Z" fill="#706444"/>
<path d="M254.16 114.241C248.846 102.576 244.374 90.545 240.78 78.2406C243.4 81.0206 253.88 109.261 254.16 114.241Z" fill="#706444"/>
<path d="M258.54 111.761C253.604 103.006 249.41 93.8542 246 84.4008C249 87.1408 257.58 106.081 258.54 111.761Z" fill="#706444"/>
<path d="M252.84 89.1606C255.5 93.1606 256.48 97.4606 258.54 101.681C256.14 100.241 253.24 93.6806 252.84 89.1606Z" fill="#706444"/>
<path d="M261.12 98.2397C260.14 97.4781 259.336 96.5136 258.762 95.4124C258.19 94.3114 257.862 93.0994 257.8 91.8596C259.532 93.5968 260.692 95.8237 261.12 98.2397Z" fill="#706444"/>
<path d="M243.98 141.72C242.18 133.72 242.16 125.38 241.58 117.16C241.58 116.42 241.22 115.5 242.6 114.8C243.706 123.728 244.166 132.725 243.98 141.72Z" fill="#706444"/>
<path d="M247 139.301C245.982 133.675 245.62 127.95 245.92 122.241C247.44 124.241 248.16 135.781 247 139.301Z" fill="#706444"/>
<path d="M250.68 137.2C249.604 134.197 249.196 130.997 249.48 127.82C251.28 129.28 251.82 133.3 250.68 137.2Z" fill="#706444"/>
<path d="M94.3001 111.72C95.2001 116.44 93.8201 139.72 92.3001 143.18C91.9321 140.528 91.886 137.842 92.16 135.18C92.26 132.5 92.4401 129.82 92.5801 127.18C92.7201 124.54 92.5801 122.02 93.0001 119.46C93.0181 116.827 93.4561 114.214 94.3001 111.72Z" fill="#706444"/>
<path d="M90.78 124.08C90.62 129.14 91.46 134.22 90.78 139.28C90.32 134.24 89 129.14 90.78 124.08Z" fill="#706444"/>
<path d="M87.9001 138.481C86.9841 135.914 86.8101 133.141 87.4001 130.481C88.2761 133.055 88.4501 135.817 87.9001 138.481Z" fill="#706444"/>
<path d="M264.26 246.72C260.348 240.024 254.958 234.312 248.5 230.02C255.74 230.84 264.3 240 264.26 246.72Z" fill="#706444"/>
<path d="M258.52 243.48C255.29 240.614 252.25 237.542 249.42 234.28C251.532 235.03 253.446 236.246 255.022 237.838C256.598 239.432 257.794 241.36 258.52 243.48Z" fill="#706444"/>
<path d="M237.12 218.6C239.058 219.918 240.658 221.672 241.794 223.722C242.93 225.772 243.568 228.058 243.66 230.4C241.964 226.218 239.768 222.254 237.12 218.6Z" fill="#706444"/>
</svg>
