<svg width="1436" height="125" viewBox="0 0 1436 125" fill="none" xmlns="http://www.w3.org/2000/svg">
<path d="M624 56.2404C624 56.2404 664 14.2404 730 26.2404C796 38.2404 828 66.2404 888 66.2404C948 66.2404 982 60.2404 982 60.2404C982 60.2404 918 110.24 806 78.2404C694 46.2404 624 56.2404 624 56.2404Z" fill="#706444"/>
<path d="M218 92.1563C218 92.1563 258 50.1563 324 62.1563C390 74.1563 422 102.156 482 102.156C542 102.156 576 96.1563 576 96.1563C576 96.1563 512 146.156 400 114.156C288 82.1563 218 92.1563 218 92.1563Z" fill="#706444"/>
<path d="M972 46.2402C972 46.2402 1096 15.6602 1148 56.5002C1224 116.24 1312 92.2402 1312 92.2402C1312 92.2402 1268 102.24 1170 36.2402C1119.54 2.24021 1050 12.2402 972 46.2402Z" fill="#706444"/>
<path d="M896 112.24C896 112.24 970 98.2396 1012 70.2396C1054 42.2396 1128 64.2396 1128 64.2396C1128 64.2396 1074 63.6996 1036 96.2396C994 132.24 896 112.24 896 112.24Z" fill="#706444"/>
<path d="M650 20.2402C650 20.2402 644 32.2402 604 52.2402C564 72.2402 522 56.2402 478 56.2402C434 56.2402 416 70.2402 416 70.2402C416 70.2402 458 36.2402 494 36.2402C530 36.2402 616 42.2402 650 20.2402Z" fill="#706444"/>
<path d="M274 44.24C281.02 42.56 234 74.24 166 74.24C98 74.24 78 54.24 44 58.24C10 62.24 0 74.24 0 74.24C0 74.24 30 32.24 94 34.24C158 36.24 174 68.24 274 44.24Z" fill="#706444"/>
<path d="M574.586 74.9318C574.586 74.9318 553.666 90.3398 519.502 89.0278C485.338 87.7138 436.888 85.4278 436.888 85.4278C436.888 85.4278 487.708 58.7958 574.586 74.9318Z" fill="#706444"/>
<path d="M1170 0.240234C1170 0.240234 1194 44.2402 1284 62.2402C1374 80.2402 1436 36.2402 1436 36.2402C1436 36.2402 1318 86.2402 1170 0.240234Z" fill="#706444"/>
</svg>
