<svg width="1297" height="81" viewBox="0 0 1297 81" fill="none" xmlns="http://www.w3.org/2000/svg">
<path d="M596 39.2407C596 39.2407 632 19.2407 662 27.2407C692 35.2407 714 61.2407 736 59.2407C758 57.2407 702 73.2407 662 55.2407C622 37.2407 596 39.2407 596 39.2407Z" fill="#706444"/>
<path d="M346 49.2407C346 49.2407 238 99.2407 162 73.2407C86.0001 47.2407 48.0001 39.2407 6.00006 47.2407C6.00006 47.2407 6.00006 29.2407 88.0001 27.2407C170 25.2407 218 89.2407 346 49.2407Z" fill="#706444"/>
<path d="M782 63.2404C782 63.2404 836 59.2404 902 31.2404C968 3.24045 1024 51.2404 1024 51.2404C1024 51.2404 1006.34 12.5605 940 4.38046C882 -2.75954 852 51.2404 782 63.2404Z" fill="#706444"/>
<path d="M98 65.24C98 65.24 82 75.24 58 71.24C34 67.24 0 61.24 0 61.24C0 61.24 38 45.24 98 65.24Z" fill="#706444"/>
<path d="M1004 15.2406C1004 15.2406 1044 -6.75941 1102 3.24059C1160 13.2406 1156 35.2406 1228 33.2406C1300 31.2406 1296 27.2406 1296 27.2406C1296 27.2406 1252 57.2406 1182 55.2406C1112 53.2406 1076 1.24059 1004 15.2406Z" fill="#706444"/>
</svg>
