<svg width="956" height="68" viewBox="0 0 956 68" fill="none" xmlns="http://www.w3.org/2000/svg">
<path d="M806 43.2399C806 43.2399 843.06 25.8998 868 33.2398C902 43.2398 946 41.2398 956 35.2398C957.12 53.9198 848 69.2399 806 43.2399Z" fill="#706444"/>
<path d="M336 35.2398C336 35.2398 382 15.2398 430 21.2398C478 27.2398 486 41.2398 522 51.2398C558 61.2398 582 59.2398 582 59.2398C582 59.2398 528 71.2398 458 53.2398C388 35.2398 390 31.2398 336 35.2398Z" fill="#706444"/>
<path d="M434 57.24C434 57.24 396 75.24 354 63.24C312 51.24 262 35.24 240 33.24C218 31.24 210 37.24 210 37.24C210 37.24 254 7.23996 306 27.24C358 47.24 366 69.24 434 57.24Z" fill="#706444"/>
<path d="M884 25.2397C884 25.2397 806 -0.760286 746 1.23971C686 3.23971 624 47.2397 570 45.2397C516 43.2397 640 63.2397 700 41.2397C760 19.2397 830 9.23971 884 25.2397Z" fill="#706444"/>
<path d="M454 15.2402C454 15.2402 490 -2.75984 532 1.24016C574 5.24016 582 21.2402 616 21.2402C650 21.2402 658 15.2402 658 15.2402C630.206 31.3302 597.594 37.0002 566 31.2402C514 21.2402 494 11.2402 454 15.2402Z" fill="#706444"/>
<path d="M202 27.2403C202 27.2403 166 11.2403 128 13.2403C90 15.2403 76 37.2403 40 37.2403C4 37.2403 0 33.2403 0 33.2403C0 33.2403 12 51.2403 64 51.2403C116 51.2403 132 15.2403 202 27.2403Z" fill="#706444"/>
</svg>
