<svg width="46" height="45" viewBox="0 0 46 45" fill="none" xmlns="http://www.w3.org/2000/svg">
<path d="M23.4943 1.14265C28.9729 1.14273 33.9864 3.03901 37.8712 6.1739L41.047 3.65535L41.6857 3.14851L41.8478 3.94734L44.2452 15.7511L44.4152 16.5909L43.6007 16.3262L31.3448 12.3438L30.4581 12.0557L31.1886 11.4766L34.7579 8.64265C31.6403 6.3031 27.7327 4.91616 23.4943 4.91609C13.3748 4.91609 5.0929 12.8485 5.0929 22.7227C5.09294 32.5969 13.3749 40.5294 23.4943 40.5294C28.8426 40.5293 33.6654 38.3219 37.0372 34.7764C37.767 34.0091 39.0106 33.939 39.8322 34.6065C40.6763 35.2927 40.7672 36.5067 40.0157 37.297C35.9295 41.5938 30.0438 44.3027 23.4943 44.3028C11.0785 44.3028 1.09294 34.6001 1.0929 22.7227C1.0929 10.8454 11.0785 1.14265 23.4943 1.14265Z" fill="#BFD5DF" stroke="#BFD5DF"/>
<path d="M30.5774 25.985C30.5774 26.505 30.476 27.0089 30.2732 27.4964C30.083 27.984 29.8105 28.4119 29.4556 28.7803C29.0881 29.1595 28.6064 29.4575 28.0107 29.6742C27.415 29.8909 26.7622 29.9992 26.0524 29.9992C25.3046 29.9992 24.6645 29.9126 24.1322 29.7392C23.6125 29.555 23.1942 29.3112 22.8773 29.0079C22.5858 28.737 22.3767 28.4336 22.2499 28.0977C22.1232 27.7619 22.0598 27.3122 22.0598 26.7488H24.6265C24.6392 27.0955 24.6708 27.3501 24.7215 27.5127C24.7722 27.6644 24.8483 27.7944 24.9497 27.9027C25.0511 27.9894 25.1905 28.0707 25.368 28.1465C25.5581 28.2115 25.7862 28.244 26.0524 28.244C26.5594 28.244 27.0157 28.049 27.4213 27.6589C27.8396 27.2581 28.0677 26.6946 28.1057 25.9687C28.1057 25.232 27.9156 24.6848 27.5354 24.3273C27.1551 23.9589 26.7115 23.7747 26.2045 23.7747C25.9003 23.7747 25.6151 23.8451 25.3489 23.986C25.0828 24.1268 24.8546 24.3814 24.6645 24.7498H22.383L22.7633 17.4851H29.8549V19.3704H25.0447L24.8356 22.377C25.3046 22.1387 25.8243 22.0195 26.3946 22.0195C27.8269 22.0195 28.8789 22.3933 29.5507 23.1409C30.2351 23.8776 30.5774 24.8257 30.5774 25.985Z" fill="#BFD5DF"/>
<path d="M18.3524 29.8855H15.9378V19.8579L13.5232 21.1094V18.9966L16.4131 17.3714H18.3524V29.8855Z" fill="#BFD5DF"/>
</svg>
