<svg width="46" height="49" viewBox="0 0 46 49" fill="none" xmlns="http://www.w3.org/2000/svg">
<path d="M22.4245 1.40001C16.9415 1.40009 11.9281 3.44959 8.04654 6.83165L4.88638 4.12071L4.22916 3.55724L4.06998 4.40782L1.67252 17.1754L1.51236 18.026L2.32974 17.7389L14.5856 13.4313L15.403 13.1441L14.7458 12.5807L11.1227 9.47032C14.2496 6.91313 18.1724 5.40009 22.4245 5.40001C32.5069 5.40001 40.8257 13.9591 40.8258 24.6998C40.8258 35.4406 32.507 43.9996 22.4245 43.9996C17.0899 43.9995 12.2702 41.6196 8.8942 37.7799C8.16485 36.9504 6.9015 36.869 6.07193 37.5983C5.24236 38.3276 5.16095 39.591 5.89029 40.4205C9.97229 45.0632 15.861 47.9995 22.4245 47.9996C34.8771 47.9996 44.8258 37.4854 44.8258 24.6998C44.8257 11.9143 34.8771 1.40001 22.4245 1.40001Z" fill="#BFD5DF" stroke="#BFD5DF"/>
<path d="M30.8106 28.2285C30.8106 28.791 30.7168 29.336 30.5293 29.8633C30.3536 30.3906 30.1016 30.8535 29.7735 31.252C29.4336 31.6621 28.9883 31.9844 28.4375 32.2188C27.8868 32.4531 27.2832 32.5703 26.627 32.5703C25.9356 32.5703 25.3438 32.4766 24.8516 32.2891C24.3711 32.0899 23.9844 31.8262 23.6915 31.4981C23.4219 31.2051 23.2286 30.877 23.1114 30.5137C22.9942 30.1504 22.9356 29.6641 22.9356 29.0547H25.3086C25.3204 29.4297 25.3497 29.7051 25.3965 29.8809C25.4434 30.0449 25.5137 30.1856 25.6075 30.3027C25.7012 30.3965 25.8301 30.4844 25.9942 30.5664C26.17 30.6367 26.3809 30.6719 26.627 30.6719C27.0957 30.6719 27.5176 30.461 27.8926 30.0391C28.2793 29.6055 28.4903 28.9961 28.5254 28.211C28.5254 27.4141 28.3497 26.8223 27.9981 26.4356C27.6465 26.0371 27.2364 25.8379 26.7676 25.8379C26.4864 25.8379 26.2227 25.9141 25.9766 26.0664C25.7305 26.2188 25.5196 26.4942 25.3438 26.8926H23.2344L23.586 19.0352H30.1426V21.0742H25.6954L25.502 24.3262C25.9356 24.0684 26.4161 23.9395 26.9434 23.9395C28.2676 23.9395 29.2403 24.3438 29.8614 25.1524C30.4942 25.9492 30.8106 26.9746 30.8106 28.2285Z" fill="#BFD5DF"/>
<path d="M19.5079 32.4473H17.2754V21.6016L15.043 22.9551V20.6699L17.7149 18.9121H19.5079V32.4473Z" fill="#BFD5DF"/>
</svg>
