<svg width="100" height="100" viewBox="0 0 100 100" fill="none" xmlns="http://www.w3.org/2000/svg">
<path d="M2.65454e-05 87.0001V35C2.65454e-05 32.2386 2.23853 30 4.99993 30C7.76133 30 9.99983 32.2386 9.99983 35V87.0001C9.99983 88.4828 10.0038 89.2939 10.0514 89.8764C10.0533 89.8998 10.0553 89.9219 10.0573 89.9428C10.0773 89.9446 10.0984 89.9467 10.1207 89.9485C10.7026 89.9961 11.5123 90.0001 12.9922 90.0001H64.9998C67.7612 90.0001 69.9998 92.2386 69.9998 95C69.9998 97.7614 67.7612 100 64.9998 100H12.9922C11.6773 100 10.3898 100.004 9.30609 99.9153C8.16433 99.822 6.816 99.6018 5.4593 98.9104L5.45901 98.9103C3.5743 97.9497 2.0467 96.4172 1.08971 94.5387L1.08986 94.5386C0.398657 93.1819 0.178107 91.8339 0.0846937 90.6909C-0.00392672 89.6065 2.64393e-05 88.3177 2.65454e-05 87.0001ZM90 58.999V20.9989C90 18.1162 89.9963 16.2548 89.8805 14.8382C89.7695 13.4799 89.5811 12.9762 89.4551 12.7291L89.4548 12.7285C88.9773 11.791 88.2123 11.0258 87.2686 10.545V10.5448C87.0213 10.4188 86.5179 10.2306 85.1602 10.1196C83.744 10.0039 81.883 9.99992 79.0002 9.99992H41.0006C38.1179 9.99992 36.2559 10.0038 34.8387 10.1196C33.4795 10.2306 32.9756 10.4192 32.7287 10.545H32.7286C31.7878 11.0243 31.024 11.788 30.5447 12.7288V12.7289C30.4189 12.9758 30.2303 13.4798 30.1193 14.839C30.0035 16.2563 29.9997 18.1183 29.9997 21.0009V59.001C29.9997 61.8838 30.0035 63.7448 30.1193 65.1611C30.2233 66.4341 30.3954 66.956 30.5203 67.22L30.5447 67.2695L30.5905 67.3574C31.0579 68.2316 31.7721 68.9456 32.6408 69.4101L32.7281 69.4558L32.7289 69.4561C32.9749 69.5814 33.4775 69.7696 34.834 69.8804C36.2486 69.996 38.1069 70 40.9841 70H79.0172C81.8945 70 83.7516 69.9962 85.1651 69.8806C86.5198 69.7698 87.0219 69.5817 87.2684 69.4561L87.269 69.4558C88.2089 68.9769 88.9756 68.2103 89.455 67.2693L89.4551 67.2689C89.581 67.0218 89.7695 66.5182 89.8805 65.1598C89.9963 63.7431 90 61.8817 90 58.999ZM54.9994 54.9999V45H44.9996C42.2382 45 39.9995 42.7614 39.9995 39.9999C39.9996 37.2385 42.2382 35 44.9996 35H54.9994V24.9999C54.9994 22.2385 57.2381 20 59.9995 20C62.7608 20 64.9993 22.2385 64.9994 24.9999V35H74.9993C77.7607 35 79.9992 37.2386 79.9992 39.9999C79.9992 42.7613 77.7607 45 74.9993 45H64.9994V54.9999C64.9994 57.7614 62.7608 60 59.9995 60C57.2381 60 54.9994 57.7614 54.9994 54.9999ZM100 58.999C100 61.7167 100.004 64.0559 99.8472 65.9743C99.6857 67.9508 99.329 69.9167 98.3651 71.8085L98.3652 71.8086C96.9277 74.6305 94.6315 76.9276 91.8087 78.3658C89.9183 79.3292 87.9544 79.6858 85.9801 79.8472C84.0645 80.0039 81.7294 80 79.0172 80H40.9841C38.2718 80 35.9358 80.0039 34.0194 79.8472C32.0448 79.6858 30.0794 79.3296 28.1885 78.366V78.3658C25.3631 76.9264 23.0711 74.6285 21.6347 71.8095V71.8096C20.6708 69.9179 20.3141 67.9522 20.1526 65.9756C19.9958 64.0575 19.9998 61.7187 19.9998 59.001V21.0009C19.9998 18.2831 19.9958 15.9437 20.1526 14.0249C20.314 12.048 20.6705 10.0811 21.6347 8.18893C23.0728 5.36647 25.3665 3.07283 28.1889 1.63478V1.63492C30.081 0.670846 32.0478 0.314257 34.0245 0.152792C35.9433 -0.00393259 38.2828 9.17371e-06 41.0006 9.17371e-06H79.0002C81.7179 9.17371e-06 84.0566 -0.00395272 85.9747 0.152792C87.9513 0.314324 89.917 0.67098 91.8087 1.63492L91.9404 1.70289C94.6993 3.14314 96.948 5.40755 98.365 8.18893L98.4536 8.36647C99.3511 10.2037 99.6907 12.1087 99.8472 14.0237C100.004 15.9421 100 18.2811 100 20.9989V58.999Z" fill="#B5CBD5"/>
</svg>
