<svg width="51" height="46" viewBox="0 0 51 46" fill="none" xmlns="http://www.w3.org/2000/svg">
<path d="M25.5001 25.0481C25.5001 25.0481 20.1529 27.5371 18.3641 31.7777C16.5945 36.0183 16.6907 40.4616 16.6907 40.4616L1.5916 40.2404C1.5916 40.2404 -1.71674 37.6407 1.38002 30.2474C4.47677 22.854 15.9982 21.3975 25.5001 25.0481ZM45.6578 27.4265C45.6578 27.4265 53.5824 20.0516 48.1583 13.3219C42.7342 6.59232 39.1373 8.23324 38.5218 6.81357C37.8871 5.3939 38.0217 3.88204 36.2137 3.99266C34.4056 4.10329 34.4826 5.5414 34.521 7.45888C34.5787 9.37636 34.7326 30.0446 34.7326 30.0446C34.7326 30.0446 22.1725 28.1087 22.1533 38.7101C22.134 49.33 37.9255 46.3431 37.8871 37.6407C37.8486 28.9199 38.0986 14.8338 38.0986 14.8338C38.0986 14.8338 45.9271 13.5432 46.0617 18.9638C46.2156 24.3843 44.0998 27.2605 45.6578 27.4265ZM17.1138 0.508015C17.1138 0.508015 23.9805 1.66956 24.4614 7.90137C24.9423 14.1332 21.2685 17.8575 16.6907 17.876C12.1321 17.8944 8.72759 15.221 8.51601 8.98917C8.30443 2.73893 13.6324 0.342079 17.1138 0.508015Z" fill="#EDF2F5"/>
</svg>
