<svg width="54" height="70" viewBox="0 0 54 70" fill="none" xmlns="http://www.w3.org/2000/svg">
<path d="M24.0155 1.66038C25.1667 1.66043 26.2679 1.61827 27.3632 1.68278C27.7618 1.70626 28.2466 1.87883 28.5225 2.16155C32.0346 5.75998 35.5238 9.38277 38.9898 13.029C39.2639 13.3174 39.4597 13.8252 39.4616 14.2321C39.49 20.5848 39.4841 26.9376 39.4765 33.2904C39.4752 34.4254 38.8422 34.9722 37.7559 34.8281C29.1216 33.6832 21.0509 39.2818 18.8579 48.0077C18.5093 49.3948 18.4045 50.8567 18.2789 52.2926C18.1796 53.428 17.787 53.9168 16.699 53.9186C13.7339 53.9236 10.7687 53.9332 7.80368 53.917C4.59946 53.8995 2.3554 51.551 2.35424 48.2152C2.34952 34.5866 2.34992 20.9579 2.35423 7.32929C2.35527 4.03255 4.6554 1.66443 7.84692 1.66173C13.219 1.65718 18.5911 1.66042 24.0155 1.66038ZM14.3311 31.9382C13.4274 31.915 12.5545 32.0601 11.7516 32.5085C10.9235 32.971 10.3189 33.6236 10.3137 34.6676C10.3086 35.7145 10.8986 36.4081 11.7429 36.8262C13.4286 37.661 15.1553 37.6653 16.8385 36.8167C17.7887 36.3376 18.2789 35.5315 18.27 34.3761C18.243 30.9014 18.2602 27.4263 18.2602 23.9513C18.2602 23.7598 18.2602 23.5683 18.2602 23.3709C20.9362 22.6769 23.5485 21.9995 26.1778 21.3176C26.1778 24.0136 26.1778 26.6446 26.1778 29.2997C25.8112 29.2591 25.4834 29.2081 25.1539 29.1891C24.0687 29.1265 23.0318 29.3116 22.096 29.9159C21.5643 30.2593 21.1497 30.7187 20.9888 31.3699C20.7279 32.4255 21.1893 33.4291 22.2451 34.0212C23.603 34.7826 25.047 34.8534 26.5111 34.4505C28.2232 33.9794 28.8552 33.0885 28.8549 31.2565C28.8542 27.4377 28.8551 23.6188 28.8523 19.8C28.8513 18.4638 28.1745 17.9199 26.9303 18.2438C23.6008 19.1105 20.2716 19.9785 16.9414 20.842C15.9015 21.1116 15.6194 21.47 15.6188 22.5822C15.6174 25.4237 15.6195 28.2652 15.6201 31.1067C15.6202 31.4112 15.6201 31.7157 15.6201 32.0421C15.1891 32.0065 14.8106 31.9751 14.3311 31.9382ZM29.0194 10.8377C29.3942 11.8205 30.0623 12.5168 31.0815 12.5999C32.2913 12.6985 33.5138 12.6294 34.7309 12.6287C34.7464 12.6287 34.762 12.5726 34.7188 12.6557C32.7456 10.6071 30.7981 8.58517 28.7899 6.50022C28.8559 7.93224 28.921 9.34508 29.0194 10.8377Z" fill="#BFD5DF"/>
<path d="M30.0834 66.604C22.6975 63.5729 18.9969 54.698 21.8774 47.1107C24.8583 39.2589 33.3055 35.3804 40.8219 38.486C48.4312 41.6301 52.0544 50.4597 49.0063 58.2434C45.9902 65.9453 37.4635 69.7275 30.0834 66.604ZM36.8083 48.4119C36.8057 47.0189 36.8168 45.6257 36.7941 44.2331C36.7837 43.5936 36.3499 43.094 35.7716 42.9581C35.2273 42.8301 34.5954 43.0957 34.3541 43.6291C34.2268 43.9106 34.1747 44.2531 34.1738 44.5683C34.1623 48.6389 34.1661 52.7095 34.166 56.7802C34.166 56.9668 34.166 57.1535 34.166 57.4474C33.9503 57.2355 33.8237 57.1165 33.7028 56.9915C32.8508 56.1104 32.0077 55.2198 31.1452 54.3499C30.76 53.9613 30.2989 53.7959 29.7551 53.9936C29.2418 54.1803 28.952 54.5626 28.862 55.097C28.7691 55.6486 29.0328 56.0674 29.395 56.4421C31.025 58.1278 32.6503 59.8183 34.2773 61.5071C35.1597 62.4229 35.7971 62.4227 36.6882 61.4996C38.3291 59.7999 39.9636 58.0936 41.61 56.3997C42.2253 55.7666 42.3063 54.9802 41.7815 54.3911C41.2394 53.7828 40.4237 53.7897 39.7932 54.4306C38.959 55.2784 38.1389 56.1413 37.3117 56.9966C37.1826 57.1301 37.048 57.258 36.8086 57.4946C36.8086 54.3993 36.8086 51.4599 36.8083 48.4119Z" fill="#BFD5DF"/>
</svg>
