<svg width="100" height="108" viewBox="0 0 100 108" fill="none" xmlns="http://www.w3.org/2000/svg">
<path fill-rule="evenodd" clip-rule="evenodd" d="M77.4121 12.2695V19.0635H87.9416H87.9503V19.0811C91.2758 19.0898 94.2904 20.4609 96.4671 22.6846C98.6266 24.8906 99.9741 27.9404 99.9827 31.3154H100V31.333V95.7305V95.7393H99.9827C99.9741 99.1143 98.6266 102.182 96.4412 104.405C94.2731 106.603 91.2758 107.974 87.9589 107.982V108H87.9416H34.6463H34.6376V107.982C31.3207 107.974 28.2975 106.603 26.1208 104.379C23.9613 102.173 22.6138 99.123 22.6052 95.748H22.5879V95.7305V81.3076H12.0584H12.0498V81.29C8.73283 81.2812 5.7096 79.9102 3.53287 77.6865C1.37341 75.4805 0.0259135 72.4307 0.0172756 69.0557H0V69.0381V12.2695V12.2607H0.0172756C0.0259135 8.87695 1.38205 5.80957 3.55878 3.59473C5.72687 1.39746 8.72419 0.0263672 12.0411 0.0175781V0H12.0584H65.3537H65.3624V0.0175781C68.6879 0.0263672 71.7025 1.39746 73.8792 3.62109C76.0387 5.82715 77.3862 8.87695 77.3948 12.252H77.4121V12.2695ZM68.2733 19.0635V12.2695V12.252H68.2906C68.2906 11.4521 67.9537 10.7139 67.4182 10.1689C66.8913 9.63281 66.157 9.29004 65.371 9.29004V9.30762H65.3624H12.067H12.0498V9.29004C11.2637 9.29004 10.5381 9.63281 10.0026 10.1777C9.47569 10.7139 9.13881 11.4609 9.13881 12.2607H9.15609V12.2695V69.0381V69.0557H9.13881C9.13881 69.8555 9.47569 70.5938 10.0112 71.1387C10.5381 71.6748 11.2724 72.0176 12.0584 72.0176V72H12.067H22.5965V31.333V31.3242H22.6138C22.6224 27.9404 23.9786 24.873 26.1553 22.6582C28.3234 20.4609 31.3207 19.0898 34.6376 19.0811V19.0635H34.6549H68.2733ZM90.8526 95.7305V31.333V31.3154H90.8698C90.8698 30.5156 90.533 29.7773 89.9974 29.2324C89.4705 28.6963 88.7363 28.3535 87.9503 28.3535V28.3711H87.9416H34.6463H34.629V28.3535C33.843 28.3535 33.1174 28.6963 32.5818 29.2412C32.0549 29.7773 31.7181 30.5244 31.7181 31.3242H31.7353V31.333V95.7305V95.748H31.7181C31.7181 96.5479 32.0549 97.2861 32.5905 97.8311C33.1174 98.3672 33.8516 98.71 34.6376 98.71V98.6924H34.6463H87.9416H87.9589V98.71C88.7449 98.71 89.4705 98.3672 90.006 97.8223C90.533 97.2861 90.8698 96.5391 90.8698 95.7393H90.8526V95.7305Z" fill="#B5CBD5"/>
</svg>
