<svg width="25" height="36" viewBox="0 0 25 36" fill="none" xmlns="http://www.w3.org/2000/svg">
<path d="M12.5551 8.63624C12.6526 8.48646 12.7666 8.31109 12.5461 8.11809C12.3278 8.30909 12.4372 8.48011 12.5339 8.63124C12.538 8.6376 12.5421 8.64393 12.5461 8.65022C12.5491 8.64559 12.5521 8.64093 12.5551 8.63624Z" fill="#2C475C"/>
<path d="M3.242 17.9405C3.09222 17.8431 2.91684 17.729 2.72383 17.9495C2.91484 18.1678 3.08587 18.0584 3.237 17.9617C3.24336 17.9576 3.24969 17.9535 3.25598 17.9495L3.242 17.9405Z" fill="#2C475C"/>
<path d="M22.3779 17.9495C22.1849 17.729 22.0095 17.8431 21.8597 17.9405C21.855 17.9435 21.8504 17.9465 21.8457 17.9495C21.852 17.9535 21.8584 17.9576 21.8647 17.9617C22.0159 18.0584 22.1869 18.1678 22.3779 17.9495Z" fill="#2C475C"/>
<path d="M13.5353 12.6545C13.643 12.7672 13.8065 13.0483 13.6479 13.2863C13.8976 13.1463 14.0371 12.8808 14.1536 12.6442C14.0683 12.6246 14.0301 12.6281 14.0542 12.6898L13.7308 12.6856C13.7786 12.5532 13.8492 12.5252 13.9157 12.4987C13.9418 12.4884 13.9672 12.4782 13.9905 12.4621C14.0958 12.3892 14.2304 12.0467 14.2283 11.9478C14.2249 11.7957 14.1467 11.6122 14.0422 11.4338C14.04 11.4356 14.0378 11.4375 14.0355 11.4395C13.9836 11.4841 13.8993 11.5326 13.8003 11.5898C13.6274 11.6894 13.4094 11.8151 13.2386 11.9914C13.0213 12.2156 12.8562 12.417 12.834 12.7952C12.8222 12.9963 13.0323 13.0168 13.0493 13.0168C13.0664 13.0168 13.2465 13.011 13.2859 12.7781C13.3114 12.6274 13.1538 12.4051 13.1538 12.4051C13.1538 12.4051 13.4287 12.543 13.5353 12.6545Z" fill="#2C475C"/>
<path d="M13.9104 11.2288C13.8576 11.2551 13.8053 11.2785 13.7525 11.3022C13.5593 11.3886 13.3585 11.4784 13.0983 11.7295C12.7629 12.0532 12.6026 12.2429 12.5509 12.5567C12.4991 12.2429 12.3388 12.0532 12.0034 11.7295C11.7432 11.4784 11.5424 11.3886 11.3492 11.3022C11.2964 11.2785 11.2441 11.2551 11.1913 11.2288C11.3906 10.9424 11.6107 10.7114 11.6155 10.7125C11.8003 10.5249 11.9426 10.3123 12.0455 10.0759C12.1181 10.1381 12.1676 10.2057 12.2378 10.3016C12.2524 10.3216 12.2679 10.3428 12.2847 10.3654C12.4446 10.5807 12.4552 10.7917 12.4552 10.7917C12.4552 10.7917 12.3039 11.0347 12.3103 11.2947C12.3162 11.5343 12.5147 11.7851 12.5484 11.826V11.8318C12.5484 11.8318 12.5493 11.8308 12.5509 11.8289C12.5524 11.8308 12.5533 11.8318 12.5533 11.8318V11.826C12.587 11.7851 12.7855 11.5343 12.7914 11.2947C12.7978 11.0347 12.6465 10.7917 12.6465 10.7917C12.6465 10.7917 12.6571 10.5807 12.817 10.3654C12.8338 10.3428 12.8493 10.3216 12.864 10.3016C12.9341 10.2057 12.9836 10.1381 13.0562 10.0759C13.1591 10.3123 13.3015 10.5249 13.4862 10.7125C13.491 10.7114 13.7111 10.9424 13.9104 11.2288Z" fill="#2C475C"/>
<path d="M11.0662 11.4395C11.064 11.4375 11.0617 11.4356 11.0595 11.4338C10.955 11.6122 10.8768 11.7957 10.8735 11.9478C10.8713 12.0467 11.0059 12.3892 11.1113 12.4621C11.1345 12.4782 11.16 12.4884 11.1861 12.4987C11.2526 12.5252 11.3231 12.5532 11.3709 12.6856L11.0476 12.6898C11.0716 12.6281 11.0334 12.6246 10.9481 12.6442C11.0646 12.8808 11.2042 13.1463 11.4539 13.2863C11.2952 13.0483 11.4587 12.7672 11.5664 12.6545C11.6731 12.543 11.948 12.4051 11.948 12.4051C11.948 12.4051 11.7903 12.6274 11.8158 12.7781C11.8552 13.011 12.0353 13.0168 12.0524 13.0168C12.0694 13.0168 12.2795 12.9963 12.2677 12.7952C12.2455 12.417 12.0804 12.2156 11.8631 11.9914C11.6923 11.8151 11.4743 11.6894 11.3015 11.5898C11.2024 11.5326 11.1181 11.4841 11.0662 11.4395Z" fill="#2C475C"/>
<path d="M12.5493 24.0587L12.5509 24.0606L12.5522 24.059L12.5526 24.0584L12.5533 24.0577V24.0635C12.587 24.1044 12.7855 24.3551 12.7914 24.5948C12.7978 24.8548 12.6465 25.0978 12.6465 25.0978C12.6465 25.0978 12.6571 25.3088 12.817 25.5241C12.8222 25.531 12.8272 25.5378 12.8321 25.5445L12.8399 25.555L12.8495 25.5681L12.8639 25.5879C12.9341 25.6838 12.9836 25.7514 13.0562 25.8136C13.1591 25.5772 13.3015 25.3646 13.4862 25.177C13.491 25.1781 13.7111 24.9471 13.9104 24.6607C13.8577 24.6344 13.8054 24.611 13.7525 24.5873C13.5594 24.5009 13.3585 24.4111 13.0983 24.16C12.7629 23.8363 12.6026 23.6466 12.5509 23.3328C12.4991 23.6466 12.3388 23.8363 12.0034 24.16C11.7432 24.4111 11.5424 24.5009 11.3493 24.5873C11.2964 24.6109 11.244 24.6344 11.1913 24.6607C11.3906 24.9471 11.6107 25.1781 11.6155 25.177C11.8003 25.3646 11.9426 25.5772 12.0455 25.8136C12.1181 25.7514 12.1676 25.6838 12.2378 25.5879L12.2604 25.557L12.2692 25.545C12.2743 25.5382 12.2794 25.5312 12.2847 25.5241C12.4446 25.3088 12.4552 25.0978 12.4552 25.0978C12.4552 25.0978 12.3039 24.8548 12.3103 24.5948C12.3162 24.3551 12.5147 24.1044 12.5484 24.0635V24.0577L12.5493 24.0587Z" fill="#2C475C"/>
<path fill-rule="evenodd" clip-rule="evenodd" d="M13.1836 22.1736C12.7792 22.3045 12.6047 22.4996 12.5509 22.8064C12.497 22.4996 12.3225 22.3045 11.9181 22.1736C11.2925 21.9711 11.4639 21.3234 11.4667 21.3137C11.8812 21.1732 12.2303 20.9073 12.5148 20.6194C12.5188 20.6194 12.5227 20.6194 12.5267 20.6194C12.5466 20.6194 12.5665 20.6192 12.5863 20.6188C12.8709 20.9069 13.2203 21.1731 13.6351 21.3137C13.6378 21.3234 13.8092 21.9711 13.1836 22.1736ZM12.7458 22.1902C12.7556 22.3145 12.635 22.3738 12.5444 22.4163C12.4537 22.3738 12.3332 22.3145 12.3429 22.1902C12.3481 22.1242 12.3754 22.108 12.4003 22.0933C12.4094 22.0879 12.4181 22.0828 12.4253 22.0754C12.4293 22.0714 12.435 22.0672 12.4416 22.0624C12.4701 22.0415 12.5157 22.0081 12.5141 21.917C12.5128 21.8381 12.4631 21.7871 12.4295 21.7526C12.4241 21.747 12.4191 21.7419 12.4148 21.7372C12.4105 21.7324 12.4046 21.728 12.3977 21.7228C12.3662 21.6989 12.3144 21.6598 12.3074 21.5117C12.2986 21.325 12.5435 21.0151 12.5444 21.0151C12.5452 21.0151 12.7901 21.325 12.7813 21.5117C12.7743 21.6598 12.7225 21.6989 12.691 21.7228C12.6841 21.728 12.6782 21.7325 12.6739 21.7372C12.6696 21.7419 12.6646 21.747 12.6592 21.7526C12.6256 21.7871 12.5759 21.8381 12.5746 21.917C12.573 22.0081 12.6186 22.0415 12.6471 22.0624C12.6537 22.0672 12.6594 22.0714 12.6634 22.0754C12.6706 22.0828 12.6793 22.0879 12.6884 22.0933C12.7133 22.108 12.7406 22.1242 12.7458 22.1902Z" fill="#2C475C"/>
<path d="M10.5966 25.4388C10.5966 25.4388 10.5584 25.0885 10.9792 24.787C11.1382 25.0235 11.2914 25.1746 11.2963 25.1687C11.3496 25.2378 11.4047 25.3026 11.4599 25.3674C11.6025 25.5352 11.7449 25.7026 11.8529 25.9397C11.8411 25.946 11.8287 25.9524 11.8158 25.9589L11.7975 25.9681C11.5437 26.0961 11.4225 26.1573 11.219 26.0612C10.7953 25.8611 10.9632 25.3024 10.9632 25.3024L10.5966 25.4388Z" fill="#2C475C"/>
<path d="M11.0616 24.4539L11.0595 24.4557C10.955 24.2773 10.8768 24.0938 10.8735 23.9417C10.8713 23.8428 11.0059 23.5003 11.1113 23.4273C11.1345 23.4113 11.16 23.4011 11.1861 23.3908C11.2526 23.3643 11.3231 23.3363 11.3709 23.2039L11.0476 23.1997C11.0716 23.2614 11.0334 23.2649 10.9481 23.2453C11.0646 23.0087 11.2042 22.7432 11.4539 22.6032C11.2952 22.8412 11.4587 23.1223 11.5664 23.235C11.6731 23.3465 11.948 23.4844 11.948 23.4844C11.948 23.4844 11.7903 23.2621 11.8158 23.1114C11.8552 22.8785 12.0353 22.8727 12.0524 22.8727C12.0694 22.8727 12.2795 22.8932 12.2677 23.0943C12.2455 23.4725 12.0804 23.6739 11.8631 23.8981C11.6923 24.0744 11.4743 24.2001 11.3015 24.2997C11.2024 24.3569 11.1181 24.4054 11.0662 24.45C11.0647 24.4514 11.0631 24.4527 11.0616 24.4539Z" fill="#2C475C"/>
<path d="M14.0422 24.4557C14.1467 24.2773 14.2249 24.0938 14.2283 23.9417C14.2304 23.8428 14.0958 23.5003 13.9905 23.4273C13.9672 23.4113 13.9418 23.4011 13.9157 23.3908C13.8492 23.3643 13.7786 23.3363 13.7308 23.2039L14.0542 23.1997C14.0301 23.2614 14.0683 23.2649 14.1536 23.2453C14.0371 23.0087 13.8976 22.7432 13.6479 22.6032C13.8065 22.8412 13.643 23.1223 13.5353 23.235C13.4287 23.3465 13.1538 23.4844 13.1538 23.4844C13.1538 23.4844 13.3114 23.2621 13.2859 23.1114C13.2465 22.8785 13.0664 22.8727 13.0493 22.8727C13.0323 22.8727 12.8222 22.8932 12.834 23.0943C12.8562 23.4725 13.0213 23.6739 13.2386 23.8981C13.4094 24.0744 13.6274 24.2001 13.8003 24.2997C13.8993 24.3569 13.9836 24.4054 14.0355 24.45C14.0365 24.4509 14.0375 24.4517 14.0384 24.4525L14.0399 24.4537L14.0422 24.4557Z" fill="#2C475C"/>
<path d="M14.1225 24.787C13.9635 25.0235 13.8103 25.1746 13.8054 25.1687C13.7521 25.2378 13.697 25.3026 13.6419 25.3674C13.4992 25.5352 13.3569 25.7026 13.2488 25.9397C13.2607 25.946 13.273 25.9524 13.2859 25.9589L13.3042 25.9681C13.558 26.0961 13.6792 26.1573 13.8827 26.0612C14.3064 25.8611 14.1385 25.3024 14.1385 25.3024L14.5051 25.4388C14.5051 25.4388 14.5433 25.0885 14.1225 24.787Z" fill="#2C475C"/>
<path d="M11.2963 10.7208C11.2914 10.7149 11.1382 10.866 10.9792 11.1025C10.5584 10.801 10.5966 10.4507 10.5966 10.4507L10.9632 10.5871C10.9632 10.5871 10.7953 10.0284 11.219 9.82833C11.4225 9.73224 11.5437 9.79337 11.7975 9.92141L11.8158 9.93064C11.8287 9.93713 11.8411 9.94351 11.8529 9.9498C11.7449 10.1869 11.6026 10.3542 11.4599 10.522C11.4048 10.5868 11.3496 10.6517 11.2963 10.7208Z" fill="#2C475C"/>
<path fill-rule="evenodd" clip-rule="evenodd" d="M12.5267 15.2701C12.5227 15.2701 12.5188 15.2701 12.5148 15.2701C12.2303 14.9822 11.8812 14.7163 11.4667 14.5758C11.4639 14.5661 11.2925 13.9184 11.9181 13.7159C12.3225 13.585 12.497 13.3899 12.5509 13.0831C12.6047 13.3899 12.7792 13.585 13.1836 13.7159C13.8092 13.9184 13.6378 14.5661 13.6351 14.5758C13.2203 14.7164 12.8709 14.9826 12.5863 15.2707C12.5664 15.2703 12.5466 15.2701 12.5267 15.2701ZM12.7458 13.6993C12.7556 13.575 12.635 13.5157 12.5444 13.4732C12.4537 13.5157 12.3332 13.575 12.3429 13.6993C12.3481 13.7653 12.3754 13.7815 12.4003 13.7962C12.4094 13.8015 12.4181 13.8067 12.4253 13.8141C12.4293 13.8181 12.435 13.8223 12.4416 13.8271C12.4701 13.848 12.5157 13.8814 12.5141 13.9725C12.5128 14.0514 12.4631 14.1024 12.4295 14.1369C12.4241 14.1425 12.4191 14.1476 12.4148 14.1523C12.4105 14.1571 12.4046 14.1615 12.3977 14.1667C12.3662 14.1906 12.3144 14.2297 12.3074 14.3778C12.2986 14.5645 12.5435 14.8744 12.5444 14.8744C12.5452 14.8744 12.7901 14.5645 12.7813 14.3778C12.7743 14.2297 12.7225 14.1906 12.691 14.1667C12.6841 14.1615 12.6782 14.1571 12.6739 14.1523C12.6721 14.1503 12.6701 14.1482 12.668 14.1461C12.6653 14.1432 12.6623 14.1401 12.6592 14.1369C12.6256 14.1024 12.5759 14.0514 12.5746 13.9725C12.573 13.8814 12.6186 13.848 12.6471 13.8271C12.6537 13.8223 12.6594 13.8181 12.6634 13.8141C12.6706 13.8067 12.6793 13.8015 12.6884 13.7962C12.7133 13.7815 12.7406 13.7653 12.7458 13.6993Z" fill="#2C475C"/>
<path d="M14.1225 11.1025C14.5433 10.801 14.5051 10.4507 14.5051 10.4507L14.1385 10.5871C14.1385 10.5871 14.3064 10.0284 13.8827 9.82833C13.6792 9.73224 13.558 9.79337 13.3042 9.92141L13.2859 9.93064C13.273 9.93713 13.2607 9.94351 13.2488 9.9498C13.3569 10.1869 13.4991 10.3542 13.6418 10.522C13.6969 10.5868 13.7521 10.6517 13.8054 10.7208C13.8103 10.7149 13.9635 10.866 14.1225 11.1025Z" fill="#2C475C"/>
<path d="M7.26042 16.9604C7.37307 16.8526 7.65427 16.6891 7.89222 16.8478C7.75223 16.5981 7.48674 16.4586 7.25009 16.342C7.23053 16.4273 7.23403 16.4656 7.29569 16.4415L7.29154 16.7648C7.15911 16.717 7.13106 16.6465 7.10463 16.58C7.09426 16.5539 7.08413 16.5284 7.06805 16.5052C6.99514 16.3999 6.65262 16.2652 6.55365 16.2674C6.40155 16.2708 6.2181 16.349 6.03965 16.4534C6.04078 16.4548 6.04192 16.4562 6.04308 16.4575C6.04382 16.4584 6.04457 16.4593 6.04532 16.4601C6.08992 16.5121 6.13849 16.5963 6.19562 16.6954C6.29528 16.8682 6.42102 17.0863 6.59725 17.257C6.8215 17.4743 7.02289 17.6394 7.4011 17.6616C7.60224 17.6734 7.62277 17.4634 7.62277 17.4463C7.62277 17.4293 7.61691 17.2492 7.38405 17.2097C7.2333 17.1842 7.01105 17.3419 7.01105 17.3419C7.01105 17.3419 7.14892 17.067 7.26042 16.9604Z" fill="#2C475C"/>
<path d="M18.664 17.9472C18.664 17.9472 18.665 17.9463 18.6669 17.9447C18.665 17.9432 18.664 17.9423 18.664 17.9423H18.6698C18.7107 17.9086 18.9615 17.7101 19.2011 17.7042C19.4612 17.6978 19.7042 17.8491 19.7042 17.8491C19.7042 17.8491 19.9152 17.8385 20.1305 17.6786C20.1527 17.6621 20.1735 17.6469 20.1932 17.6325L20.1936 17.6322L20.1943 17.6317C20.2902 17.5615 20.3578 17.512 20.42 17.4394C20.1836 17.3365 19.971 17.1942 19.7834 17.0094C19.7845 17.0047 19.5534 16.7845 19.2671 16.5852C19.2407 16.638 19.2173 16.6903 19.1937 16.7431C19.1073 16.9363 19.0174 17.1371 18.7663 17.3973C18.4426 17.7327 18.2529 17.893 17.9391 17.9447C18.2529 17.9965 18.4426 18.1568 18.7663 18.4922C19.0174 18.7524 19.1073 18.9532 19.1937 19.1463C19.2173 19.1992 19.2407 19.2515 19.2671 19.3043C19.5534 19.105 19.7845 18.8848 19.7834 18.8801C19.971 18.6953 20.1836 18.553 20.42 18.4501C20.3578 18.3775 20.2902 18.328 20.1943 18.2578C20.1743 18.2432 20.1531 18.2277 20.1305 18.2109C19.9152 18.051 19.7042 18.0404 19.7042 18.0404C19.7042 18.0404 19.4612 18.1917 19.2011 18.1853C18.9615 18.1794 18.7107 17.9809 18.6698 17.9472H18.664Z" fill="#2C475C"/>
<path fill-rule="evenodd" clip-rule="evenodd" d="M16.7798 17.312C16.9107 17.7164 17.1059 17.8909 17.4126 17.9447C17.1059 17.9986 16.9107 18.1731 16.7798 18.5775C16.5774 19.203 15.9297 19.0317 15.9199 19.0289C15.7853 18.6317 15.5355 18.2946 15.2616 18.0168C15.2622 17.9928 15.2625 17.9688 15.2625 17.9447C15.2625 17.9207 15.2622 17.8967 15.2616 17.8727C15.5355 17.5949 15.7853 17.2578 15.9199 16.8606C15.9297 16.8578 16.5774 16.6865 16.7798 17.312ZM17.0225 17.9513C16.98 17.8606 16.9208 17.7401 16.7965 17.7498C16.7304 17.755 16.7143 17.7823 16.6996 17.8072C16.6942 17.8163 16.689 17.825 16.6817 17.8323C16.6776 17.8362 16.6735 17.8419 16.6686 17.8485C16.6477 17.8771 16.6144 17.9226 16.5233 17.921C16.4443 17.9197 16.3933 17.87 16.3589 17.8365C16.3533 17.831 16.3482 17.826 16.3434 17.8217C16.3387 17.8174 16.3342 17.8115 16.329 17.8046C16.3052 17.7731 16.266 17.7213 16.1179 17.7143C15.9312 17.7055 15.6214 17.9504 15.6214 17.9513C15.6214 17.9521 15.9312 18.197 16.1179 18.1882C16.266 18.1812 16.3052 18.1294 16.329 18.0979C16.3342 18.091 16.3387 18.0851 16.3434 18.0808C16.3481 18.0765 16.3532 18.0716 16.3587 18.0662C16.3931 18.0327 16.4443 17.9828 16.5233 17.9815C16.6144 17.9799 16.6477 18.0255 16.6686 18.054C16.6735 18.0606 16.6776 18.0663 16.6817 18.0703C16.689 18.0775 16.6942 18.0862 16.6996 18.0953C16.7143 18.1202 16.7304 18.1475 16.7965 18.1527C16.9208 18.1625 16.98 18.0419 17.0225 17.9513Z" fill="#2C475C"/>
<path d="M12.4555 16.5244C12.4498 16.3019 12.4441 16.0808 12.5225 16.0374C12.6008 16.0808 12.5951 16.3019 12.5894 16.5245C12.5865 16.6395 12.5835 16.755 12.5921 16.8465C12.8243 16.5209 12.9796 16.3223 13.105 16.3223C13.1465 16.3589 13.119 16.3864 13.0681 16.4372C13.0392 16.4661 13.0027 16.5025 12.9671 16.5525C12.8096 16.7731 12.5802 17.1398 12.5225 17.4998C12.4647 17.1398 12.2354 16.7731 12.0779 16.5525C12.0423 16.5025 12.0058 16.4661 11.9768 16.4372C11.9259 16.3864 11.8984 16.3589 11.94 16.3223C12.0653 16.3223 12.2207 16.5209 12.4528 16.8465C12.4615 16.755 12.4585 16.6395 12.4555 16.5244Z" fill="#2C475C"/>
<path d="M11.0986 18.0152C11.2137 18.0123 11.3291 18.0093 11.4206 18.0179C11.0951 18.2501 10.8964 18.4054 10.8964 18.5308C10.9331 18.5723 10.9605 18.5448 11.0113 18.4939C11.0402 18.465 11.0767 18.4285 11.1266 18.3928C11.3472 18.2354 11.714 18.006 12.074 17.9483C11.714 17.8905 11.3472 17.6612 11.1266 17.5037C11.0767 17.4681 11.0402 17.4316 11.0113 17.4027C10.9605 17.3518 10.9331 17.3243 10.8964 17.3658C10.8964 17.4912 11.0951 17.6465 11.4206 17.8786C11.3292 17.8873 11.2137 17.8843 11.0987 17.8814C10.8761 17.8756 10.6549 17.87 10.6115 17.9483C10.6549 18.0266 10.8761 18.0209 11.0986 18.0152Z" fill="#2C475C"/>
<path d="M12.4528 19.0501C12.4615 19.1416 12.4585 19.2571 12.4555 19.3721C12.4498 19.5947 12.4441 19.8158 12.5225 19.8592C12.6008 19.8158 12.5951 19.5947 12.5894 19.3721C12.5865 19.2571 12.5835 19.1416 12.5921 19.0501C12.8243 19.3757 12.9796 19.5743 13.105 19.5743C13.1465 19.5377 13.119 19.5102 13.0681 19.4594C13.0392 19.4305 13.0027 19.3941 12.9671 19.3441C12.8096 19.1235 12.5802 18.7568 12.5225 18.3967C12.4647 18.7568 12.2354 19.1235 12.0779 19.3441C12.0423 19.3941 12.0058 19.4305 11.9768 19.4594C11.9259 19.5102 11.8984 19.5377 11.94 19.5743C12.0653 19.5743 12.2207 19.3757 12.4528 19.0501Z" fill="#2C475C"/>
<path d="M13.9464 18.0152C14.169 18.0209 14.3901 18.0266 14.4335 17.9483C14.3901 17.87 14.169 17.8756 13.9464 17.8813C13.8313 17.8843 13.7158 17.8873 13.6243 17.8786C13.9499 17.6465 14.1486 17.4912 14.1486 17.3658C14.1119 17.3243 14.0844 17.3518 14.0336 17.4027C14.0047 17.4316 13.9683 17.4681 13.9184 17.5037C13.6977 17.6612 13.331 17.8905 12.971 17.9483C13.331 18.006 13.6977 18.2354 13.9184 18.3928C13.9683 18.4285 14.0047 18.465 14.0336 18.4939C14.0844 18.5448 14.1119 18.5723 14.1486 18.5308C14.1486 18.4054 13.9499 18.2501 13.6243 18.0179C13.7158 18.0093 13.8313 18.0123 13.9464 18.0152Z" fill="#2C475C"/>
<path fill-rule="evenodd" clip-rule="evenodd" d="M14.9932 17.9267C14.7725 17.7398 14.5504 17.6625 14.3178 17.6261C14.3529 17.3985 14.325 17.1374 14.1323 16.9224C13.7233 17.4101 13.3814 17.7044 12.7108 17.7687C12.7106 17.769 12.7102 17.7693 12.7095 17.7696C12.7087 17.7699 12.7077 17.7702 12.7064 17.7704C12.7065 17.7687 12.7066 17.7671 12.7067 17.7658C12.7069 17.7628 12.7071 17.761 12.7072 17.7607C12.7715 17.0901 13.0658 16.7482 13.5535 16.3392C13.3385 16.1465 13.0775 16.1186 12.8498 16.1538C12.8161 15.938 12.7471 15.7313 12.5882 15.5264C12.5677 15.5259 12.5472 15.5257 12.5267 15.5257C12.507 15.5257 12.4872 15.5259 12.4675 15.5264C12.3101 15.7236 12.2416 15.9294 12.208 16.1442C11.9804 16.1091 11.7193 16.137 11.5043 16.3297C11.9921 16.7387 12.2863 17.0806 12.3506 17.7512C12.3505 17.7514 12.3504 17.7522 12.3504 17.7536C12.3503 17.7543 12.3503 17.7552 12.3502 17.7563L12.3502 17.7576L12.3501 17.7591L12.3501 17.7608C12.35 17.7621 12.35 17.7635 12.35 17.7649C12.3455 17.7647 12.343 17.7644 12.3426 17.7642C11.672 17.6999 11.3301 17.4057 10.9211 16.918C10.7284 17.1329 10.7005 17.394 10.7356 17.6216C10.5147 17.6562 10.3033 17.7277 10.0936 17.8948C10.105 17.9095 10.1106 17.9272 10.1104 17.9447C10.1106 17.9617 10.1054 17.9787 10.0948 17.9931C10.2961 18.1582 10.5064 18.2291 10.7261 18.2634C10.691 18.491 10.7189 18.7521 10.9116 18.9671C11.3206 18.4794 11.6625 18.1851 12.3331 18.1208C12.3336 18.1211 12.3385 18.1213 12.3469 18.1215C12.3468 18.126 12.3467 18.1297 12.3466 18.1324L12.3466 18.1332L12.3465 18.1348C12.3464 18.1371 12.3463 18.1383 12.3462 18.1383C12.2819 18.8089 11.9876 19.1508 11.4999 19.5598C11.7149 19.7525 11.9759 19.7804 12.2036 19.7453C12.2372 19.96 12.3057 20.1658 12.463 20.363C12.4842 20.3635 12.5054 20.3638 12.5267 20.3638C12.5457 20.3638 12.5647 20.3636 12.5837 20.3632C12.7427 20.1583 12.8116 19.9516 12.8454 19.7357C13.073 19.7708 13.3341 19.743 13.5491 19.5503C13.0614 19.1413 12.7671 18.7994 12.7028 18.1288C12.7021 18.1286 12.7016 18.1271 12.7011 18.1245C12.7133 18.1247 12.7203 18.125 12.7203 18.1253C13.3909 18.1896 13.7328 18.4838 14.1418 18.9715C14.3345 18.7566 14.3624 18.4955 14.3273 18.2679C14.56 18.2315 14.7821 18.1541 14.9943 17.9672C14.9922 17.9598 14.9912 17.9523 14.9913 17.9448C14.9913 17.9387 14.9919 17.9326 14.9932 17.9267ZM12.6507 17.7117C12.6174 17.7119 12.5731 17.7112 12.5282 17.7101C12.4847 17.7091 12.4412 17.7076 12.4076 17.7063C12.3715 17.3814 12.2805 17.1299 12.1377 16.9091C12.0015 16.6985 11.8198 16.5185 11.6002 16.3306C11.7858 16.1943 12.0021 16.1745 12.1987 16.2048C12.232 16.2099 12.2633 16.1871 12.2685 16.1537C12.3018 15.941 12.3698 15.7408 12.528 15.549C12.6878 15.7491 12.756 15.9502 12.7893 16.1632C12.7945 16.1966 12.8258 16.2194 12.8592 16.2143C13.0557 16.184 13.2721 16.2038 13.4576 16.3401C13.238 16.528 13.0563 16.708 12.9201 16.9186C12.7779 17.1384 12.6871 17.3888 12.6507 17.7117ZM12.2879 17.8201C12.2876 17.8558 12.2873 17.901 12.2871 17.9461L12.287 17.9515C12.2869 17.9742 12.2868 17.9968 12.2866 18.0179C12.2865 18.0343 12.2864 18.0499 12.2863 18.0641C11.9623 18.1003 11.7114 18.1912 11.491 18.3337C11.2804 18.4699 11.1004 18.6516 10.9125 18.8712C10.7762 18.6856 10.7564 18.4693 10.7867 18.2728C10.7918 18.2394 10.769 18.2081 10.7356 18.2029C10.5229 18.1696 10.3227 18.1017 10.1309 17.9434C10.3309 17.7837 10.5321 17.7155 10.7451 17.6821C10.7785 17.6769 10.8013 17.6457 10.7962 17.6123C10.7659 17.4157 10.7857 17.1994 10.922 17.0139C11.1099 17.2335 11.29 17.4152 11.5005 17.5513C11.7191 17.6927 11.9678 17.7833 12.2879 17.8201ZM12.4096 17.9525C12.4093 17.991 12.4091 18.0293 12.4089 18.061C12.4433 18.0613 12.486 18.0616 12.5287 18.0618L12.6372 18.0625C12.6371 18.0283 12.6378 17.9856 12.6388 17.9433C12.6398 17.9047 12.641 17.8662 12.6422 17.8342C12.6084 17.8343 12.5666 17.8336 12.5252 17.8326C12.4843 17.8316 12.4434 17.8303 12.4104 17.829C12.4102 17.8463 12.4101 17.8654 12.41 17.8856L12.4096 17.9525ZM12.1333 18.9804C12.276 18.7597 12.367 18.5083 12.4031 18.1835C12.4386 18.1838 12.4834 18.1841 12.528 18.1844L12.5333 18.1844C12.5742 18.1846 12.6145 18.1849 12.6471 18.1851C12.6841 18.5045 12.7746 18.7527 12.9157 18.9709C13.0519 19.1815 13.2336 19.3615 13.4532 19.5494C13.2676 19.6857 13.0513 19.7055 12.8547 19.6752C12.8214 19.67 12.7901 19.6929 12.7849 19.7263C12.7515 19.9393 12.6833 20.1404 12.5236 20.3405C12.3653 20.1487 12.2974 19.9485 12.2641 19.7358C12.2589 19.7024 12.2276 19.6796 12.1942 19.6847C11.9977 19.715 11.7814 19.6952 11.5958 19.5589C11.8154 19.371 11.9971 19.191 12.1333 18.9804ZM13.5624 18.3382C13.3404 18.1946 13.0873 18.1034 12.7598 18.0677C12.7596 18.0345 12.7602 17.9907 12.7613 17.9462C12.7624 17.9023 12.7638 17.8583 12.7652 17.8246C13.0855 17.7878 13.3343 17.6972 13.5529 17.5558C13.7635 17.4196 13.9435 17.2379 14.1314 17.0183C14.2677 17.2039 14.2875 17.4202 14.2572 17.6167C14.2521 17.6501 14.2749 17.6814 14.3083 17.6866C14.5213 17.7199 14.7225 17.7881 14.9225 17.9479C14.7307 18.1061 14.5305 18.1741 14.3178 18.2074C14.2844 18.2126 14.2616 18.2438 14.2667 18.2772C14.297 18.4738 14.2772 18.6901 14.1409 18.8756C13.953 18.656 13.773 18.4743 13.5624 18.3382Z" fill="#2C475C"/>
<path fill-rule="evenodd" clip-rule="evenodd" d="M15.0051 18.0385C14.8093 18.2015 14.6053 18.2787 14.3955 18.3183C14.4188 18.5435 14.3792 18.7985 14.1875 19.0124C14.1756 19.0256 14.1586 19.0331 14.1408 19.0328C14.1231 19.0325 14.1063 19.0245 14.0949 19.0109C13.8914 18.7683 13.7084 18.5785 13.4959 18.4411C13.2971 18.3125 13.0697 18.228 12.7714 18.1924C12.8079 18.4846 12.8918 18.7083 13.0186 18.9044C13.156 19.1169 13.3458 19.2999 13.5884 19.5034C13.602 19.5148 13.61 19.5316 13.6103 19.5493C13.6106 19.5671 13.6032 19.5841 13.5899 19.5959C13.3761 19.7877 13.121 19.8273 12.8958 19.804C12.8601 19.9931 12.794 20.1776 12.6624 20.3602C13.2717 20.3276 13.8487 20.0769 14.2816 19.6542C14.7237 19.2225 14.981 18.6451 15.0051 18.0385ZM13.6722 19.2686C13.4552 19.1222 13.2175 18.8604 13.1394 18.6815C13.0613 18.5027 13.1719 18.4736 13.3873 18.6162C13.6027 18.7588 13.8427 19.02 13.9253 19.2018C14.008 19.3837 13.9025 19.4184 13.6889 19.2796L13.6722 19.2686Z" fill="#2C475C"/>
<path fill-rule="evenodd" clip-rule="evenodd" d="M12.3834 20.3598C12.2538 20.1834 12.1885 20.0008 12.1532 19.8135C11.928 19.8368 11.6729 19.7972 11.459 19.6055C11.4458 19.5936 11.4384 19.5766 11.4387 19.5588C11.4389 19.5411 11.4469 19.5243 11.4605 19.5129C11.7032 19.3094 11.8929 19.1264 12.0304 18.9139C12.1591 18.7148 12.2437 18.4871 12.2792 18.1883C11.9823 18.2241 11.7557 18.3084 11.5575 18.4366C11.345 18.5741 11.162 18.7638 10.9585 19.0064C10.9471 19.02 10.9303 19.028 10.9126 19.0283C10.8948 19.0286 10.8778 19.0212 10.8659 19.008C10.6742 18.7941 10.6346 18.539 10.6579 18.3138C10.4486 18.2744 10.245 18.1974 10.0497 18.0352L10.0482 18.0366C10.0719 18.6439 10.3293 19.222 10.7718 19.6542C11.2029 20.0752 11.7769 20.3256 12.3834 20.3598ZM11.2034 19.0783C11.3497 18.8613 11.6116 18.6236 11.7904 18.5455C11.9693 18.4674 11.9984 18.578 11.8558 18.7934C11.7132 19.0088 11.452 19.2488 11.2701 19.3314C11.0883 19.4141 11.0536 19.3086 11.1923 19.095L11.2034 19.0783Z" fill="#2C475C"/>
<path fill-rule="evenodd" clip-rule="evenodd" d="M12.667 15.5296C12.7985 15.7121 12.8646 15.8965 12.9002 16.0855C13.1254 16.0622 13.3805 16.1018 13.5944 16.2936C13.6076 16.3054 13.615 16.3224 13.6148 16.3402C13.6145 16.3579 13.6065 16.3747 13.5929 16.3861C13.3502 16.5896 13.1605 16.7726 13.023 16.9851C12.8958 17.1818 12.8118 17.4064 12.7755 17.6999C13.0671 17.6634 13.2906 17.5795 13.4864 17.4529C13.6989 17.3154 13.8819 17.1257 14.0854 16.8831C14.0968 16.8695 14.1136 16.8615 14.1313 16.8612C14.1491 16.8609 14.1661 16.8683 14.178 16.8815C14.3697 17.0954 14.4093 17.3505 14.386 17.5757C14.597 17.6155 14.8021 17.6931 15.0053 17.8572C14.9827 17.2484 14.7252 16.6685 14.2816 16.2353C13.8498 15.8136 13.2746 15.5631 12.667 15.5296ZM13.7909 16.5503C13.6121 16.6284 13.3502 16.8661 13.2038 17.0831L13.1928 17.0997C13.054 17.3134 13.0887 17.4189 13.2706 17.3362C13.4524 17.2535 13.7137 17.0136 13.8563 16.7982C13.9989 16.5828 13.9697 16.4722 13.7909 16.5503Z" fill="#2C475C"/>
<path fill-rule="evenodd" clip-rule="evenodd" d="M12.388 15.5295C12.2583 15.7059 12.193 15.8887 12.1576 16.076C11.9324 16.0527 11.6773 16.0923 11.4635 16.284C11.4502 16.2959 11.4428 16.3129 11.4431 16.3307C11.4434 16.3484 11.4514 16.3652 11.465 16.3766C11.7076 16.5801 11.8974 16.7631 12.0348 16.9756C12.1628 17.1735 12.2472 17.3998 12.2831 17.6961C11.9889 17.6599 11.764 17.5758 11.567 17.4484C11.3545 17.311 11.1715 17.1212 10.968 16.8786C10.9566 16.865 10.9398 16.857 10.9221 16.8567C10.9043 16.8564 10.8873 16.8639 10.8754 16.8771C10.6837 17.091 10.6441 17.346 10.6674 17.5712C10.4565 17.611 10.2514 17.6887 10.0483 17.8526C10.072 17.2455 10.3293 16.6674 10.7718 16.2353C11.204 15.8132 11.7799 15.5627 12.388 15.5295ZM11.6669 17.254C11.4498 17.1076 11.2122 16.8458 11.1341 16.6669C11.0559 16.4881 11.1665 16.4589 11.3819 16.6015C11.5973 16.7441 11.8373 17.0054 11.92 17.1872C12.0026 17.369 11.8972 17.4037 11.6835 17.265L11.6669 17.254Z" fill="#2C475C"/>
<path d="M20.0452 19.8989C20.0452 19.8989 19.6949 19.9371 19.3934 19.5164C19.6299 19.3574 19.781 19.2042 19.7751 19.1993C19.8442 19.146 19.909 19.0908 19.9739 19.0357C20.1417 18.893 20.309 18.7507 20.5461 18.6427C20.5524 18.6545 20.5588 18.6669 20.5653 18.6798L20.5745 18.6981C20.7025 18.9519 20.7637 19.0731 20.6676 19.2766C20.4675 19.7002 19.9088 19.5323 19.9088 19.5323L20.0452 19.8989Z" fill="#2C475C"/>
<path d="M19.0564 19.4294C19.0583 19.4316 19.0602 19.4338 19.0621 19.4361C18.8836 19.5405 18.7002 19.6187 18.5481 19.6221C18.4491 19.6243 18.1066 19.4896 18.0337 19.3843C18.0176 19.3611 18.0075 19.3356 17.9971 19.3095C17.9707 19.243 17.9426 19.1724 17.8102 19.1247L17.806 19.448C17.8677 19.4239 17.8712 19.4622 17.8516 19.5475C17.615 19.4309 17.3495 19.2914 17.2095 19.0417C17.4474 19.2004 17.7286 19.0369 17.8413 18.9291C17.9528 18.8225 18.0907 18.5476 18.0907 18.5476C18.0907 18.5476 17.8684 18.7053 17.7177 18.6798C17.4848 18.6403 17.4789 18.4602 17.4789 18.4432C17.4789 18.4261 17.4995 18.2161 17.7006 18.2279C18.0788 18.2501 18.2802 18.4152 18.5045 18.6325C18.6807 18.8032 18.8064 19.0213 18.9061 19.1941C18.9632 19.2932 19.0118 19.3774 19.0564 19.4294Z" fill="#2C475C"/>
<path d="M19.0621 16.4534C18.8836 16.349 18.7002 16.2708 18.5481 16.2674C18.4491 16.2652 18.1066 16.3999 18.0337 16.5052C18.0176 16.5284 18.0075 16.5539 17.9971 16.58C17.9706 16.6465 17.9426 16.717 17.8102 16.7648L17.806 16.4415C17.8677 16.4656 17.8712 16.4273 17.8516 16.342C17.615 16.4586 17.3495 16.5981 17.2095 16.8478C17.4474 16.6891 17.7286 16.8526 17.8413 16.9604C17.9528 17.067 18.0907 17.3419 18.0907 17.3419C18.0907 17.3419 17.8684 17.1842 17.7177 17.2097C17.4848 17.2492 17.4789 17.4293 17.4789 17.4463C17.4789 17.4634 17.4995 17.6734 17.7006 17.6616C18.0788 17.6394 18.2802 17.4743 18.5045 17.257C18.6807 17.0863 18.8064 16.8682 18.9061 16.6954C18.9632 16.5963 19.0118 16.5121 19.0564 16.4601C19.0583 16.4579 19.0602 16.4557 19.0621 16.4534Z" fill="#2C475C"/>
<path d="M19.3934 16.3731C19.6299 16.5321 19.781 16.6853 19.7751 16.6902C19.8441 16.7435 19.909 16.7986 19.9737 16.8537C20.1415 16.9964 20.309 17.1388 20.5461 17.2468C20.5524 17.235 20.5588 17.2226 20.5653 17.2097L20.5745 17.1914C20.7025 16.9376 20.7637 16.8164 20.6676 16.6129C20.4675 16.1893 19.9088 16.3572 19.9088 16.3572L20.0452 15.9906C20.0452 15.9906 19.6949 15.9524 19.3934 16.3731Z" fill="#2C475C"/>
<path fill-rule="evenodd" clip-rule="evenodd" d="M9.18182 19.0289C9.30879 18.6544 9.53814 18.3331 9.79362 18.0648C9.79179 18.0249 9.79086 17.9849 9.79086 17.9447C9.79086 17.9046 9.79179 17.8646 9.79362 17.8247C9.53814 17.5564 9.30879 17.2351 9.18182 16.8606C9.17205 16.8578 8.52437 16.6865 8.32188 17.312C8.19097 17.7164 7.99585 17.8909 7.68909 17.9447C7.99585 17.9986 8.19097 18.1731 8.32188 18.5775C8.52437 19.203 9.17205 19.0317 9.18182 19.0289ZM8.3052 17.7498C8.18092 17.7401 8.12169 17.8606 8.07918 17.9513C8.12169 18.0419 8.18092 18.1625 8.3052 18.1527C8.37127 18.1475 8.38743 18.1202 8.40213 18.0953C8.4075 18.0862 8.41268 18.0775 8.42003 18.0703C8.42409 18.0663 8.42825 18.0606 8.43308 18.054C8.45399 18.0255 8.48735 17.9799 8.57844 17.9815C8.6574 17.9828 8.70841 18.0325 8.74286 18.0661C8.74542 18.0686 8.74789 18.071 8.75027 18.0732C8.75307 18.0759 8.75574 18.0785 8.75831 18.0808C8.76302 18.0851 8.7675 18.091 8.7727 18.0979C8.79653 18.1294 8.83568 18.1812 8.98378 18.1882C9.17051 18.197 9.48035 17.9521 9.48035 17.9513C9.48035 17.9504 9.17051 17.7055 8.98378 17.7143C8.83568 17.7213 8.79653 17.7731 8.7727 17.8046C8.7675 17.8115 8.76302 17.8174 8.75831 17.8217C8.75358 17.826 8.74847 17.831 8.74293 17.8364C8.70847 17.8699 8.65741 17.9197 8.57844 17.921C8.48735 17.9226 8.45399 17.8771 8.43308 17.8485C8.42825 17.8419 8.42409 17.8362 8.42003 17.8323C8.41268 17.825 8.4075 17.8163 8.40213 17.8072C8.38743 17.7823 8.37127 17.755 8.3052 17.7498Z" fill="#2C475C"/>
<path d="M6.33538 17.3973C6.65907 17.7327 6.8488 17.893 7.1626 17.9447C6.8488 17.9965 6.65907 18.1568 6.33538 18.4922C6.08431 18.7524 5.99446 18.9532 5.90805 19.1463C5.88441 19.1992 5.86097 19.2515 5.83461 19.3043C5.54829 19.105 5.3172 18.8848 5.3183 18.8801C5.13069 18.6953 4.91812 18.553 4.68169 18.4501C4.74395 18.3775 4.81152 18.328 4.90745 18.2578C4.92742 18.2432 4.94862 18.2277 4.97126 18.2109C5.18654 18.051 5.39755 18.0404 5.39755 18.0404C5.39755 18.0404 5.64053 18.1917 5.90057 18.1853C6.14021 18.1794 6.39099 17.9809 6.4319 17.9472H6.43769L6.43656 17.9462L6.43482 17.9447C6.43671 17.9432 6.43769 17.9423 6.43769 17.9423H6.4319C6.39099 17.9086 6.14021 17.7101 5.90057 17.7042C5.64053 17.6978 5.39755 17.8491 5.39755 17.8491C5.39755 17.8491 5.18654 17.8385 4.97126 17.6786C4.94862 17.6618 4.92742 17.6463 4.90745 17.6317C4.81152 17.5615 4.74396 17.512 4.68169 17.4394C4.91812 17.3365 5.13069 17.1942 5.3183 17.0094C5.3172 17.0047 5.54829 16.7845 5.83461 16.5852C5.86097 16.638 5.88435 16.6902 5.90798 16.743C5.99439 16.9362 6.08431 17.1371 6.33538 17.3973Z" fill="#2C475C"/>
<path d="M6.55365 19.6221C6.40155 19.6187 6.2181 19.5405 6.03965 19.4361C6.0415 19.4338 6.04339 19.4316 6.04532 19.4294C6.08992 19.3774 6.13849 19.2932 6.19562 19.1941C6.29529 19.0213 6.42102 18.8032 6.59725 18.6325C6.8215 18.4152 7.02289 18.2501 7.4011 18.2279C7.60224 18.2161 7.62277 18.4261 7.62277 18.4432C7.62277 18.4602 7.61691 18.6403 7.38405 18.6798C7.2333 18.7053 7.01105 18.5476 7.01105 18.5476C7.01105 18.5476 7.14892 18.8225 7.26042 18.9291C7.37307 19.0369 7.65427 19.2004 7.89222 19.0417C7.75223 19.2914 7.48674 19.4309 7.25009 19.5475C7.23053 19.4622 7.23403 19.4239 7.29569 19.448L7.29154 19.1247C7.15911 19.1724 7.13106 19.243 7.10463 19.3095C7.09426 19.3356 7.08413 19.3611 7.06805 19.3843C6.99514 19.4896 6.65262 19.6243 6.55365 19.6221Z" fill="#2C475C"/>
<path d="M5.32659 19.1993C5.32072 19.2042 5.4718 19.3574 5.70833 19.5164C5.40686 19.9371 5.05652 19.8989 5.05652 19.8989L5.19293 19.5323C5.19293 19.5323 4.63423 19.7002 4.43414 19.2766C4.33804 19.0731 4.39918 18.9519 4.52722 18.6981L4.53645 18.6798C4.54294 18.6669 4.54932 18.6545 4.55561 18.6427C4.79274 18.7507 4.96003 18.893 5.12781 19.0356C5.19261 19.0907 5.2576 19.146 5.32659 19.1993Z" fill="#2C475C"/>
<path d="M4.55561 17.2468C4.54932 17.235 4.54294 17.2226 4.53645 17.2097L4.52722 17.1914C4.39918 16.9376 4.33804 16.8164 4.43414 16.6129C4.63423 16.1893 5.19293 16.3572 5.19293 16.3572L5.05652 15.9906C5.05652 15.9906 5.40686 15.9524 5.70833 16.3731C5.4718 16.5321 5.32072 16.6853 5.32659 16.6902C5.25755 16.7435 5.19264 16.7987 5.1278 16.8539C4.96003 16.9965 4.79273 17.1388 4.55561 17.2468Z" fill="#2C475C"/>
<path d="M12.5461 27.7714C12.7666 27.5784 12.6526 27.403 12.5551 27.2533L12.5461 27.2393C12.5421 27.2456 12.538 27.2519 12.5339 27.2583C12.4372 27.4094 12.3278 27.5804 12.5461 27.7714Z" fill="#2C475C"/>
<path fill-rule="evenodd" clip-rule="evenodd" d="M15.3868 20.8081L18.9103 20.8087L21.6755 23.126L21.6755 19.8362C21.7098 19.7577 22.6714 19.2147 23.6251 18.6762C24.0867 18.4156 24.5465 18.156 24.8984 17.9506C24.5371 17.7394 24.0614 17.4713 23.5867 17.2037C22.6454 16.6732 21.7081 16.1448 21.6742 16.0674L21.6758 12.7776L18.917 15.0902L15.3867 15.0903L15.3868 11.5667L17.7043 8.80161L14.4143 8.80322C14.336 8.76894 13.7954 7.81112 13.2581 6.85916C12.9962 6.39515 12.735 5.93236 12.5286 5.57879C12.3175 5.94009 12.0493 6.41577 11.7817 6.89046C11.2512 7.83165 10.7228 8.76895 10.6454 8.80285L7.35542 8.80124L9.66225 11.5561L9.66855 15.0902L6.145 15.0904L3.37985 12.7731L3.37986 16.0629C3.3455 16.1414 2.3839 16.6844 1.43016 17.2229C0.968585 17.4835 0.508802 17.7431 0.156906 17.9485C0.518166 18.1596 0.99379 18.4277 1.46843 18.6953C2.40966 19.2258 3.34719 19.7543 3.38109 19.8317L3.37948 23.1215L6.1383 20.8089L9.66866 20.8088L9.66848 24.3324L7.35106 27.0975L10.641 27.0959C10.7193 27.1302 11.26 28.088 11.7973 29.04C12.0592 29.5041 12.3203 29.9667 12.5267 30.3203C12.7378 29.959 13.006 29.4833 13.2736 29.0086C13.8041 28.0674 14.3325 27.1301 14.41 27.0962L17.6999 27.0978L15.3931 24.3429L15.3868 20.8081ZM12.2353 7.62812C12.2739 7.41707 12.3948 7.24925 12.5548 7.15327C12.7148 7.24925 12.8358 7.41707 12.8743 7.62812C12.897 7.75191 12.7808 7.81133 12.6777 7.86409L12.6692 7.86847C12.6692 7.86847 13.0106 7.98123 13.0092 8.34919C13.0079 8.68794 12.6182 9.01162 12.5616 9.05857C12.5574 9.06208 12.555 9.06405 12.5548 9.06435C12.5546 9.06405 12.5523 9.06208 12.5481 9.05857C12.4915 9.01163 12.1018 8.68794 12.1005 8.34919C12.099 7.98123 12.4405 7.86847 12.4405 7.86847L12.432 7.8641C12.3289 7.81133 12.2127 7.75191 12.2353 7.62812ZM2.23384 18.2603C2.02279 18.2217 1.85496 18.1008 1.75897 17.9408C1.85496 17.7808 2.02279 17.6598 2.23384 17.6213C2.35763 17.5986 2.41706 17.7148 2.46983 17.8179L2.47421 17.8265C2.47421 17.8265 2.58696 17.485 2.95494 17.4864C3.29371 17.4878 3.6174 17.8775 3.66435 17.934C3.66786 17.9382 3.66982 17.9406 3.67013 17.9408C3.66982 17.941 3.66786 17.9433 3.66435 17.9476C3.61739 18.0041 3.2937 18.3938 2.95494 18.3951C2.58696 18.3965 2.47421 18.0551 2.47421 18.0551L2.46983 18.0636C2.41706 18.1667 2.35763 18.2829 2.23384 18.2603ZM23.3427 17.9408C23.2468 18.1008 23.0789 18.2217 22.8679 18.2603C22.7441 18.2829 22.6847 18.1667 22.6319 18.0636L22.6275 18.0551C22.6275 18.0551 22.5148 18.3965 22.1468 18.3951C21.808 18.3938 21.4843 18.0041 21.4374 17.9476C21.4339 17.9433 21.4319 17.941 21.4316 17.9408C21.4319 17.9406 21.4339 17.9382 21.4374 17.934C21.4843 17.8775 21.808 17.4878 22.1468 17.4864C22.5148 17.485 22.6275 17.8265 22.6275 17.8265L22.6319 17.8179C22.6847 17.7148 22.7441 17.5986 22.8679 17.6213C23.0789 17.6598 23.2468 17.7808 23.3427 17.9408ZM10.6247 12.155C10.6089 11.8597 10.7141 11.5664 10.8457 11.3227C10.8418 11.3206 10.8384 11.3184 10.8356 11.3161C10.5911 11.1168 10.4815 10.9622 10.3664 10.6766C10.2513 10.391 10.3835 10.1779 10.3835 10.1779C10.3835 10.1779 10.0957 10.2887 9.8293 10.2802C9.56848 10.2718 9.42084 10.0158 9.40302 9.81981C9.39023 9.67914 9.58419 9.51076 9.7611 9.51289C9.938 9.51502 10.1107 9.82833 10.1107 9.82833H9.84635C9.84635 9.82833 9.80799 9.77079 9.75257 9.78144C9.69731 9.79207 9.63653 9.82431 9.65026 9.91359C9.65879 9.969 9.70142 10.1118 9.88046 10.0926C10.0848 10.0707 10.2748 10.0202 10.4602 9.84539C10.7123 9.60775 10.9022 9.60143 11.246 9.59L11.2574 9.58962C11.3853 9.58536 11.683 9.61824 11.8584 9.70898C11.8671 9.71347 11.8945 9.73043 11.9288 9.75237C11.9538 9.67375 11.9754 9.58807 11.9927 9.49374C12.019 9.35086 11.8849 9.20286 11.7399 9.19113C11.5989 9.17973 11.4248 9.36523 11.4248 9.36523C11.3795 9.38222 11.4178 8.91098 11.7399 8.90096C11.9441 8.8946 12.2723 9.06204 12.2249 9.41497C12.2029 9.57847 12.168 9.73397 12.1196 9.88123L12.1211 9.88246L12.1227 9.88375C12.2955 10.0239 12.524 10.3839 12.5509 10.4494C12.5777 10.3839 12.8062 10.0239 12.979 9.88375C12.98 9.88295 12.981 9.88211 12.9822 9.88123C12.9337 9.73397 12.8988 9.57847 12.8768 9.41497C12.8294 9.06204 13.1576 8.8946 13.3619 8.90096C13.6839 8.91098 13.7222 9.38222 13.6769 9.36523C13.6769 9.36523 13.5028 9.17973 13.3619 9.19113C13.2168 9.20286 13.0827 9.35086 13.109 9.49374C13.1264 9.58807 13.1479 9.67375 13.1729 9.75237C13.2072 9.73043 13.2346 9.71347 13.2433 9.70898C13.4187 9.61824 13.7165 9.58536 13.8443 9.58962L13.8557 9.59C14.1995 9.60143 14.3894 9.60775 14.6415 9.84539C14.8269 10.0202 15.0169 10.0707 15.2213 10.0926C15.4003 10.1118 15.4429 9.969 15.4515 9.91359C15.4652 9.82431 15.4044 9.79207 15.3491 9.78144C15.2937 9.77079 15.2554 9.82833 15.2554 9.82833H14.9911C14.9911 9.82833 15.1637 9.51502 15.3406 9.51289C15.5175 9.51076 15.7115 9.67914 15.6987 9.81981C15.6809 10.0158 15.5332 10.2718 15.2724 10.2802C15.006 10.2887 14.7182 10.1779 14.7182 10.1779C14.7182 10.1779 14.8504 10.391 14.7353 10.6766C14.6202 10.9622 14.5107 11.1168 14.2661 11.3161C14.2633 11.3184 14.2599 11.3206 14.256 11.3227C14.3876 11.5664 14.4928 11.8597 14.477 12.155C14.4447 12.7575 14.1684 13.1207 13.8085 13.4519C13.8094 13.4531 13.8127 13.4565 13.818 13.462C13.8678 13.5135 14.0916 13.7449 14.0916 13.9909C14.0916 14.1877 14.0156 14.359 13.9846 14.429C13.975 14.4507 13.9696 14.4627 13.9723 14.4627L13.9821 14.4614C14.0173 14.4568 14.0444 14.4533 14.0714 14.4513C14.1898 14.4426 14.3213 14.4718 14.4045 14.584C14.4429 14.6359 14.464 14.6895 14.4721 14.741C14.4802 14.7925 14.4761 14.8412 14.4619 14.884C14.4429 14.9414 14.4111 14.9903 14.3831 15.0334C14.3696 15.0543 14.3568 15.074 14.3469 15.0924C14.2996 15.1808 14.242 15.2382 14.1735 15.2694C14.1049 15.3006 14.0355 15.3039 13.9731 15.3013C13.8938 15.298 13.8283 15.2596 13.7855 15.2132C13.7426 15.1669 13.71 15.1074 13.707 15.0506C13.7045 15.0026 13.733 14.963 13.7536 14.9372C13.7742 14.9115 13.7907 14.8964 13.8163 14.8778C13.842 14.8593 13.8685 14.8434 13.8955 14.8319C13.9224 14.8204 13.9535 14.8155 14.0012 14.8265C14.0431 14.8362 14.059 14.8556 14.074 14.8738L14.0743 14.8742L14.0749 14.8749L14.077 14.8775C14.0781 14.8788 14.0792 14.8801 14.0803 14.8814C14.0977 14.9016 14.113 14.9229 14.1262 14.9439C14.1355 14.9586 14.139 14.9653 14.143 14.9731C14.1448 14.9765 14.1468 14.9803 14.1492 14.9848C14.1855 14.9697 14.2206 14.951 14.2424 14.9363C14.2459 14.9339 14.2522 14.9257 14.2589 14.917C14.2657 14.908 14.273 14.8985 14.2781 14.8942C14.2787 14.8932 14.2792 14.8922 14.2798 14.8912L14.281 14.8889C14.2832 14.8852 14.2854 14.8813 14.2878 14.8773C14.2965 14.8623 14.3062 14.8458 14.31 14.8342C14.3264 14.7849 14.3297 14.7499 14.2769 14.6785C14.2308 14.6163 14.1736 14.6041 14.0829 14.6108C14.0119 14.6161 13.9286 14.6375 13.8438 14.6592C13.8201 14.6653 13.7963 14.6714 13.7727 14.6772C13.4052 14.7672 13.0774 15.0124 12.7986 15.2834C13.4235 15.3444 14.0115 15.6143 14.4602 16.0524C14.9047 16.4865 15.181 17.055 15.2471 17.6608C15.504 17.39 15.7324 17.0746 15.8185 16.7229C15.8243 16.6994 15.8304 16.6757 15.8364 16.6521C15.8582 16.5673 15.8797 16.4837 15.8849 16.4128C15.8916 16.3221 15.8794 16.2648 15.8173 16.2188C15.7459 16.166 15.7108 16.1693 15.6615 16.1856C15.65 16.1895 15.6338 16.1989 15.6188 16.2077C15.6128 16.2112 15.6068 16.2147 15.6016 16.2175C15.5972 16.2227 15.5877 16.23 15.5788 16.2368C15.57 16.2435 15.5618 16.2497 15.5594 16.2533C15.5447 16.2751 15.526 16.3101 15.5109 16.3464C15.5142 16.3482 15.5169 16.3497 15.5195 16.351L15.5225 16.3526C15.5304 16.3567 15.5371 16.3601 15.5518 16.3694C15.5728 16.3827 15.5941 16.398 15.6143 16.4154C15.6162 16.417 15.6181 16.4186 15.6201 16.4202L15.6219 16.4217C15.6402 16.4367 15.6595 16.4526 15.6692 16.4945C15.6802 16.5422 15.6754 16.5732 15.6639 16.6002C15.6523 16.6272 15.6365 16.6537 15.6179 16.6793C15.5994 16.705 15.5842 16.7215 15.5585 16.7421C15.5327 16.7627 15.4932 16.7911 15.4451 16.7886C15.3883 16.7856 15.3288 16.753 15.2825 16.7102C15.2361 16.6673 15.1977 16.6018 15.1944 16.5226C15.1918 16.4602 15.1951 16.3908 15.2263 16.3222C15.2575 16.2536 15.3149 16.1961 15.4033 16.1487C15.4218 16.1388 15.4413 16.1261 15.4623 16.1125C15.5054 16.0846 15.5543 16.0528 15.6118 16.0338C15.6545 16.0196 15.7032 16.0154 15.7547 16.0236C15.8062 16.0317 15.8598 16.0527 15.9117 16.0912C16.024 16.1743 16.0532 16.3059 16.0444 16.4243C16.0424 16.4513 16.0389 16.4783 16.0343 16.5135L16.033 16.5234C16.033 16.526 16.045 16.5207 16.0667 16.5111C16.1367 16.48 16.308 16.4041 16.5049 16.4041C16.7508 16.4041 16.9822 16.6278 17.0337 16.6776L17.0373 16.681C17.0388 16.6825 17.0401 16.6837 17.0411 16.6847L17.0416 16.6851C17.0427 16.6861 17.0434 16.6868 17.0439 16.6871C17.3751 16.3273 17.7383 16.051 18.3408 16.0187C18.6362 16.0029 18.9294 16.1081 19.1731 16.2397C19.1753 16.2357 19.1774 16.2323 19.1797 16.2295C19.3791 15.985 19.5337 15.8755 19.8193 15.7604C20.1049 15.6453 20.318 15.7774 20.318 15.7774C20.318 15.7774 20.2072 15.4897 20.2157 15.2233C20.2241 14.9625 20.4801 14.8148 20.6761 14.797C20.8168 14.7842 20.9852 14.9782 20.983 15.1551C20.9809 15.332 20.6676 15.5046 20.6676 15.5046V15.2403C20.6676 15.2403 20.7251 15.202 20.7145 15.1466C20.7038 15.0913 20.6716 15.0305 20.5823 15.0443C20.5269 15.0528 20.3841 15.0954 20.4033 15.2744C20.4252 15.4788 20.4757 15.6687 20.6505 15.8542C20.8882 16.1063 20.8945 16.2961 20.9059 16.6399L20.9063 16.6513C20.9106 16.7792 20.8777 17.0769 20.7869 17.2523C20.7824 17.261 20.7655 17.2884 20.7435 17.3227C20.8222 17.3477 20.9079 17.3693 21.0022 17.3866C21.1451 17.413 21.2931 17.2788 21.3048 17.1338C21.3162 16.9928 21.1307 16.8187 21.1307 16.8187C21.1137 16.7734 21.585 16.8117 21.595 17.1338C21.6013 17.3381 21.4339 17.6662 21.0809 17.6188C20.9174 17.5968 20.7619 17.5619 20.6147 17.5135C20.6138 17.5146 20.613 17.5157 20.6122 17.5166C20.472 17.6894 20.112 17.9179 20.0465 17.9447C20.112 17.9716 20.472 18.2001 20.6122 18.3729L20.6134 18.3744L20.6147 18.376C20.7619 18.3276 20.9174 18.2927 21.0809 18.2707C21.4339 18.2233 21.6013 18.5514 21.595 18.7557C21.585 19.0778 21.1137 19.1161 21.1307 19.0708C21.1307 19.0708 21.3162 18.8967 21.3048 18.7557C21.2931 18.6107 21.1451 18.4765 21.0022 18.5029C20.9079 18.5202 20.8222 18.5418 20.7435 18.5668C20.7655 18.6011 20.7824 18.6285 20.7869 18.6372C20.8777 18.8126 20.9106 19.1103 20.9063 19.2382L20.9059 19.2496C20.8945 19.5934 20.8882 19.7832 20.6505 20.0353C20.4757 20.2207 20.4252 20.4107 20.4033 20.615C20.3841 20.7941 20.5269 20.8367 20.5823 20.8452C20.6716 20.859 20.7038 20.7982 20.7145 20.7429C20.7251 20.6875 20.6676 20.6492 20.6676 20.6492V20.3849C20.6676 20.3849 20.9809 20.5575 20.983 20.7344C20.9852 20.9113 20.8168 21.1053 20.6761 21.0925C20.4801 21.0747 20.2241 20.927 20.2157 20.6662C20.2072 20.3998 20.318 20.1121 20.318 20.1121C20.318 20.1121 20.1049 20.2442 19.8193 20.1291C19.5337 20.014 19.3791 19.9045 19.1797 19.66C19.1774 19.6572 19.1753 19.6538 19.1731 19.6498C18.9294 19.7814 18.6362 19.8866 18.3408 19.8708C17.7383 19.8385 17.3751 19.5622 17.0439 19.2024C17.0427 19.2032 17.0393 19.2065 17.0337 19.2119C16.9822 19.2617 16.7508 19.4854 16.5049 19.4854C16.308 19.4854 16.1368 19.4095 16.0667 19.3784C16.045 19.3688 16.033 19.3635 16.033 19.3661L16.0343 19.376C16.0389 19.4112 16.0424 19.4382 16.0444 19.4652C16.0532 19.5836 16.024 19.7152 15.9117 19.7983C15.8598 19.8368 15.8062 19.8578 15.7547 19.8659C15.7032 19.8741 15.6545 19.8699 15.6118 19.8557C15.5543 19.8367 15.5054 19.805 15.4623 19.777C15.4415 19.7635 15.4217 19.7506 15.4033 19.7408C15.3149 19.6934 15.2575 19.6359 15.2263 19.5673C15.1951 19.4987 15.1918 19.4293 15.1944 19.3669C15.1977 19.2877 15.2361 19.2222 15.2825 19.1793C15.3288 19.1365 15.3883 19.1039 15.4451 19.1009C15.4932 19.0984 15.5327 19.1268 15.5585 19.1474C15.5842 19.168 15.5994 19.1845 15.6179 19.2102C15.6365 19.2358 15.6523 19.2623 15.6639 19.2893C15.6754 19.3163 15.6802 19.3473 15.6692 19.395C15.6595 19.4369 15.6402 19.4528 15.6219 19.4678C15.6204 19.469 15.6188 19.4704 15.6173 19.4716C15.6163 19.4724 15.6153 19.4733 15.6143 19.4741C15.5941 19.4915 15.5728 19.5068 15.5518 19.5201C15.5371 19.5294 15.5304 19.5328 15.5225 19.5369C15.5191 19.5387 15.5155 19.5406 15.5109 19.5431C15.526 19.5794 15.5447 19.6144 15.5594 19.6362C15.5618 19.6398 15.57 19.646 15.5788 19.6527C15.5877 19.6595 15.5972 19.6668 15.6016 19.672C15.6069 19.6749 15.6127 19.6783 15.6188 19.6818C15.6338 19.6906 15.65 19.7 15.6615 19.7039C15.7108 19.7202 15.7459 19.7235 15.8173 19.6707C15.8794 19.6247 15.8916 19.5674 15.8849 19.4767C15.8797 19.4058 15.8583 19.3224 15.8365 19.2376C15.8304 19.214 15.8243 19.1902 15.8185 19.1666C15.7324 18.8149 15.504 18.4995 15.2471 18.2287C15.181 18.8345 14.9047 19.403 14.4602 19.8371C14.0115 20.2752 13.4235 20.5451 12.7986 20.6061C13.0774 20.8771 13.4052 21.1223 13.7727 21.2123C13.7963 21.2181 13.8201 21.2242 13.8438 21.2303C13.9286 21.252 14.0119 21.2734 14.0829 21.2787C14.1736 21.2854 14.2308 21.2732 14.2769 21.211C14.3297 21.1396 14.3264 21.1046 14.31 21.0553C14.3062 21.0437 14.2967 21.0275 14.288 21.0125C14.2844 21.0065 14.281 21.0006 14.2781 20.9953C14.273 20.991 14.2657 20.9815 14.2588 20.9725C14.2522 20.9638 14.2459 20.9556 14.2424 20.9532C14.2206 20.9385 14.1855 20.9198 14.1492 20.9047C14.1467 20.9093 14.1448 20.9129 14.1431 20.9163C14.139 20.9241 14.1355 20.9309 14.1262 20.9456C14.113 20.9666 14.0977 20.9879 14.0803 21.0081L14.0794 21.0092L14.0783 21.0104C14.0769 21.0121 14.0756 21.0138 14.0742 21.0154C14.0592 21.0337 14.0431 21.0533 14.0012 21.063C13.9535 21.074 13.9224 21.0691 13.8955 21.0576C13.8685 21.0461 13.842 21.0302 13.8163 21.0117C13.7907 20.9931 13.7742 20.978 13.7536 20.9523C13.733 20.9265 13.7045 20.8869 13.707 20.8389C13.71 20.7821 13.7426 20.7226 13.7855 20.6763C13.8283 20.6299 13.8938 20.5915 13.9731 20.5882C14.0355 20.5856 14.1049 20.5889 14.1735 20.6201C14.242 20.6513 14.2996 20.7087 14.3469 20.7971C14.3569 20.8156 14.3696 20.8351 14.3831 20.8561C14.4111 20.8992 14.4429 20.9481 14.4619 21.0055C14.4761 21.0482 14.4802 21.097 14.4721 21.1485C14.464 21.2 14.4429 21.2536 14.4045 21.3055C14.3213 21.4177 14.1898 21.4469 14.0714 21.4382C14.0444 21.4362 14.0174 21.4327 13.9822 21.4281L13.9723 21.4268C13.9697 21.4268 13.975 21.4388 13.9846 21.4605C14.0156 21.5305 14.0916 21.7018 14.0916 21.8986C14.0916 22.1446 13.8678 22.376 13.818 22.4275C13.8149 22.4307 13.8124 22.4333 13.8108 22.4351C13.8096 22.4363 13.8089 22.4371 13.8085 22.4376C14.1684 22.7688 14.4447 23.132 14.477 23.7345C14.4928 24.0298 14.3876 24.3231 14.256 24.5668C14.2572 24.5674 14.2584 24.5681 14.2595 24.5688C14.262 24.5703 14.2642 24.5718 14.2661 24.5734C14.5107 24.7727 14.6202 24.9273 14.7353 25.2129C14.8504 25.4985 14.7182 25.7116 14.7182 25.7116C14.7182 25.7116 15.006 25.6008 15.2724 25.6093C15.5332 25.6177 15.6809 25.8737 15.6987 26.0697C15.7115 26.2104 15.5175 26.3787 15.3406 26.3766C15.1637 26.3745 14.9911 26.0612 14.9911 26.0612H15.2554C15.2554 26.0612 15.2937 26.1187 15.3491 26.1081C15.4044 26.0974 15.4652 26.0652 15.4515 25.9759C15.4429 25.9205 15.4003 25.7777 15.2213 25.7969C15.0169 25.8188 14.8269 25.8693 14.6415 26.0441C14.3894 26.2818 14.1995 26.2881 13.8557 26.2995L13.8443 26.2999C13.7165 26.3041 13.4187 26.2713 13.2433 26.1805C13.2346 26.176 13.2072 26.1591 13.1729 26.1371C13.1479 26.2157 13.1264 26.3014 13.109 26.3958C13.0827 26.5386 13.2168 26.6866 13.3619 26.6984C13.5028 26.7098 13.6769 26.5243 13.6769 26.5243C13.7222 26.5073 13.6839 26.9785 13.3619 26.9885C13.1576 26.9949 12.8294 26.8275 12.8768 26.4745C12.8988 26.311 12.9337 26.1555 12.9822 26.0083C12.981 26.0074 12.98 26.0065 12.979 26.0057C12.8062 25.8656 12.5777 25.5056 12.5509 25.4401C12.524 25.5056 12.2955 25.8656 12.1227 26.0057C12.1217 26.0065 12.1207 26.0074 12.1196 26.0083C12.168 26.1555 12.2029 26.311 12.2249 26.4745C12.2723 26.8275 11.9441 26.9949 11.7399 26.9885C11.4178 26.9785 11.3795 26.5073 11.4248 26.5243C11.4248 26.5243 11.5989 26.7098 11.7399 26.6984C11.8849 26.6866 12.019 26.5386 11.9927 26.3958C11.9754 26.3014 11.9538 26.2157 11.9288 26.1371C11.8945 26.1591 11.8671 26.176 11.8584 26.1805C11.683 26.2713 11.3853 26.3041 11.2574 26.2999L11.246 26.2995C10.9022 26.2881 10.7123 26.2818 10.4602 26.0441C10.2748 25.8693 10.0848 25.8188 9.88046 25.7969C9.70142 25.7777 9.65879 25.9205 9.65026 25.9759C9.63653 26.0652 9.69731 26.0974 9.75257 26.1081C9.80799 26.1187 9.84635 26.0612 9.84635 26.0612H10.1107C10.1107 26.0612 9.938 26.3745 9.7611 26.3766C9.58419 26.3787 9.39023 26.2104 9.40302 26.0697C9.42084 25.8737 9.56848 25.6177 9.8293 25.6093C10.0957 25.6008 10.3835 25.7116 10.3835 25.7116C10.3835 25.7116 10.2513 25.4985 10.3664 25.2129C10.4815 24.9273 10.5911 24.7727 10.8356 24.5734C10.8384 24.5711 10.8418 24.5689 10.8457 24.5668C10.7141 24.3231 10.6089 24.0298 10.6247 23.7345C10.657 23.132 10.9333 22.7688 11.2932 22.4376C11.2928 22.437 11.2918 22.4359 11.2902 22.4343C11.2896 22.4336 11.2889 22.4328 11.288 22.432C11.2874 22.4313 11.2867 22.4306 11.2859 22.4298L11.2837 22.4275C11.2339 22.376 11.0101 22.1446 11.0101 21.8986C11.0101 21.7018 11.0861 21.5305 11.1171 21.4605C11.1267 21.4388 11.1321 21.4268 11.1295 21.4268L11.1196 21.4281C11.0844 21.4327 11.0574 21.4362 11.0303 21.4382C10.912 21.4469 10.7804 21.4177 10.6972 21.3055C10.6588 21.2536 10.6377 21.2 10.6296 21.1485C10.6215 21.097 10.6256 21.0482 10.6398 21.0055C10.6588 20.9481 10.6906 20.8992 10.7186 20.8561C10.7322 20.8351 10.7449 20.8156 10.7548 20.7971C10.8021 20.7087 10.8597 20.6513 10.9282 20.6201C10.9968 20.5889 11.0662 20.5856 11.1286 20.5882C11.2079 20.5915 11.2734 20.6299 11.3162 20.6763C11.3591 20.7226 11.3917 20.7821 11.3947 20.8389C11.3972 20.8869 11.3688 20.9265 11.3482 20.9523C11.3275 20.978 11.311 20.9931 11.2854 21.0117C11.2597 21.0302 11.2332 21.0461 11.2062 21.0576C11.1793 21.0691 11.1482 21.074 11.1005 21.063C11.0587 21.0533 11.0427 21.0339 11.0277 21.0157C11.0257 21.0132 11.0235 21.0106 11.0214 21.0081C11.004 20.9879 10.9888 20.9666 10.9755 20.9456C10.9662 20.9309 10.9627 20.9242 10.9587 20.9164C10.9569 20.913 10.955 20.9093 10.9525 20.9047C10.9162 20.9198 10.8811 20.9385 10.8593 20.9532C10.8558 20.9556 10.8496 20.9637 10.843 20.9724C10.8361 20.9814 10.8288 20.991 10.8236 20.9953C10.8207 21.0006 10.8173 21.0065 10.8137 21.0125C10.805 21.0276 10.7955 21.0437 10.7917 21.0553C10.7753 21.1046 10.772 21.1396 10.8249 21.211C10.8709 21.2732 10.9281 21.2854 11.0189 21.2787C11.0898 21.2734 11.1731 21.252 11.258 21.2303C11.2816 21.2242 11.3054 21.2181 11.329 21.2123C11.6947 21.1227 12.0211 20.8794 12.299 20.6101C11.6576 20.5578 11.0525 20.2855 10.5932 19.8371C10.16 19.414 9.88654 18.8632 9.81174 18.2746C9.57254 18.5349 9.36453 18.8346 9.28319 19.1666C9.2774 19.1902 9.2713 19.214 9.26522 19.2376C9.24345 19.3224 9.22205 19.4058 9.21682 19.4767C9.21012 19.5674 9.22231 19.6247 9.28446 19.6707C9.35584 19.7235 9.39088 19.7202 9.44017 19.7039C9.45174 19.7 9.46788 19.6906 9.48289 19.6818C9.48498 19.6806 9.48713 19.6794 9.48917 19.6782C9.493 19.676 9.4967 19.6739 9.50016 19.672C9.50449 19.6668 9.514 19.6595 9.52295 19.6527C9.53167 19.646 9.53988 19.6398 9.54228 19.6362C9.557 19.6144 9.57573 19.5794 9.59078 19.5431C9.58623 19.5406 9.58263 19.5387 9.57926 19.5369C9.57139 19.5329 9.56465 19.5294 9.54993 19.5201C9.52888 19.5068 9.50762 19.4915 9.4874 19.4741C9.48491 19.472 9.48237 19.4699 9.47981 19.4678C9.46155 19.4528 9.44218 19.4369 9.43251 19.395C9.42151 19.3473 9.42635 19.3163 9.43786 19.2893C9.44937 19.2623 9.46526 19.2358 9.48381 19.2102C9.50236 19.1845 9.51748 19.168 9.54323 19.1474C9.56897 19.1268 9.60856 19.0984 9.65657 19.1009C9.71344 19.1039 9.77287 19.1365 9.81924 19.1793C9.8656 19.2222 9.904 19.2877 9.9073 19.3669C9.90991 19.4293 9.90659 19.4987 9.87539 19.5673C9.8442 19.6359 9.78683 19.6934 9.69845 19.7408C9.67994 19.7507 9.66036 19.7634 9.63943 19.777C9.59633 19.805 9.54743 19.8367 9.48995 19.8557C9.44724 19.8699 9.39847 19.8741 9.347 19.8659C9.29553 19.8578 9.24193 19.8368 9.19001 19.7983C9.07774 19.7152 9.04853 19.5836 9.05728 19.4652C9.05927 19.4382 9.06279 19.4112 9.06739 19.3759L9.06868 19.3661C9.06869 19.3635 9.05671 19.3688 9.035 19.3784C8.96497 19.4095 8.79369 19.4854 8.59684 19.4854C8.35086 19.4854 8.11948 19.2617 8.06798 19.2119C8.06249 19.2066 8.059 19.2032 8.05782 19.2024C7.7266 19.5622 7.36346 19.8385 6.76092 19.8708C6.46555 19.8866 6.17227 19.7814 5.9286 19.6498C5.92646 19.6538 5.92428 19.6572 5.922 19.66C5.72267 19.9045 5.56806 20.014 5.28245 20.1291C4.99684 20.2442 4.7837 20.1121 4.7837 20.1121C4.7837 20.1121 4.89453 20.3998 4.886 20.6662C4.87766 20.927 4.62164 21.0747 4.42561 21.0925C4.28494 21.1053 4.11656 20.9113 4.11869 20.7344C4.12082 20.5575 4.43414 20.3849 4.43414 20.3849V20.6492C4.43414 20.6492 4.37659 20.6875 4.38725 20.7429C4.39787 20.7982 4.43012 20.859 4.5194 20.8452C4.57481 20.8367 4.71762 20.7941 4.69844 20.615C4.67654 20.4107 4.62597 20.2207 4.45119 20.0353C4.21354 19.7832 4.20723 19.5934 4.1958 19.2496L4.19542 19.2382C4.19116 19.1103 4.22404 18.8126 4.31478 18.6372C4.31927 18.6285 4.33624 18.6011 4.35818 18.5668C4.27955 18.5418 4.19386 18.5202 4.09953 18.5029C3.95665 18.4765 3.80864 18.6107 3.79691 18.7557C3.78551 18.8967 3.97102 19.0708 3.97102 19.0708C3.98801 19.1161 3.51675 19.0778 3.50673 18.7557C3.50037 18.5514 3.66782 18.2233 4.02077 18.2707C4.18427 18.2927 4.33977 18.3276 4.48703 18.376L4.48849 18.3742L4.48956 18.3729C4.62969 18.2001 4.98971 17.9716 5.05522 17.9447C4.98971 17.9179 4.62969 17.6894 4.48956 17.5166C4.48876 17.5157 4.48792 17.5146 4.48703 17.5135C4.33977 17.5619 4.18427 17.5968 4.02077 17.6188C3.66782 17.6662 3.50037 17.3381 3.50673 17.1338C3.51675 16.8117 3.98801 16.7734 3.97102 16.8187C3.97102 16.8187 3.78551 16.9928 3.79691 17.1338C3.80864 17.2788 3.95665 17.413 4.09953 17.3866C4.19386 17.3693 4.27955 17.3477 4.35818 17.3227C4.33624 17.2884 4.31927 17.261 4.31478 17.2523C4.22404 17.0769 4.19116 16.7792 4.19542 16.6513L4.1958 16.6399C4.20723 16.2961 4.21354 16.1063 4.45119 15.8542C4.62597 15.6687 4.67654 15.4788 4.69844 15.2744C4.71762 15.0954 4.57481 15.0528 4.5194 15.0443C4.43012 15.0305 4.39787 15.0913 4.38725 15.1466C4.37659 15.202 4.43414 15.2403 4.43414 15.2403V15.5046C4.43414 15.5046 4.12082 15.332 4.11869 15.1551C4.11656 14.9782 4.28494 14.7842 4.42561 14.797C4.62164 14.8148 4.87766 14.9625 4.886 15.2233C4.89453 15.4897 4.7837 15.7774 4.7837 15.7774C4.7837 15.7774 4.99684 15.6453 5.28245 15.7604C5.56806 15.8755 5.72267 15.985 5.922 16.2295C5.92428 16.2323 5.92646 16.2357 5.9286 16.2397C6.17227 16.1081 6.46555 16.0029 6.76092 16.0187C7.36346 16.051 7.7266 16.3273 8.05782 16.6871C8.05901 16.6863 8.06246 16.683 8.06798 16.6776C8.11948 16.6278 8.35086 16.4041 8.59684 16.4041C8.79369 16.4041 8.96497 16.48 9.035 16.5111C9.05671 16.5207 9.06869 16.526 9.06868 16.5234L9.06739 16.5135C9.06279 16.4783 9.05927 16.4513 9.05728 16.4243C9.04853 16.3059 9.07774 16.1743 9.19001 16.0912C9.24193 16.0527 9.29553 16.0317 9.347 16.0236C9.39847 16.0154 9.44724 16.0196 9.48995 16.0338C9.54744 16.0528 9.59635 16.0846 9.63944 16.1125C9.66038 16.1261 9.67994 16.1388 9.69845 16.1487C9.78683 16.1961 9.8442 16.2536 9.87539 16.3222C9.90659 16.3908 9.90991 16.4602 9.9073 16.5226C9.904 16.6018 9.8656 16.6673 9.81924 16.7102C9.77287 16.753 9.71344 16.7856 9.65657 16.7886C9.60856 16.7911 9.56897 16.7627 9.54323 16.7421C9.51748 16.7215 9.50236 16.705 9.48381 16.6793C9.46526 16.6537 9.44937 16.6272 9.43786 16.6002C9.42635 16.5732 9.42151 16.5422 9.43251 16.4945C9.44218 16.4526 9.46155 16.4367 9.47981 16.4217C9.48237 16.4196 9.48491 16.4175 9.4874 16.4154C9.50762 16.398 9.52888 16.3827 9.54993 16.3694C9.56464 16.3601 9.57135 16.3567 9.57921 16.3526C9.58113 16.3516 9.58311 16.3506 9.5853 16.3494C9.58698 16.3485 9.58879 16.3475 9.59078 16.3464C9.57573 16.3101 9.557 16.2751 9.54228 16.2533C9.53988 16.2497 9.53166 16.2435 9.52294 16.2368C9.51399 16.23 9.50449 16.2227 9.50016 16.2175C9.4977 16.2162 9.49512 16.2147 9.49246 16.2132L9.48992 16.2117L9.48767 16.2104L9.48343 16.208L9.48296 16.2077C9.46793 16.1989 9.45176 16.1895 9.44017 16.1856C9.39088 16.1693 9.35584 16.166 9.28446 16.2188C9.22231 16.2648 9.21012 16.3221 9.21682 16.4128C9.22205 16.4837 9.24345 16.5671 9.26523 16.6519L9.26544 16.6527C9.2714 16.676 9.2775 16.6997 9.28319 16.7229C9.36453 17.0549 9.57254 17.3546 9.81174 17.6149C9.88654 17.0263 10.16 16.4755 10.5932 16.0524C11.0525 15.604 11.6577 15.3317 12.299 15.2794C12.0211 15.0101 11.6947 14.7668 11.329 14.6772C11.3054 14.6714 11.2817 14.6653 11.2581 14.6593C11.1733 14.6375 11.0898 14.6161 11.0189 14.6108C10.9281 14.6041 10.8709 14.6163 10.8249 14.6785C10.772 14.7499 10.7753 14.7849 10.7917 14.8342C10.7955 14.8458 10.805 14.8619 10.8137 14.877L10.8141 14.8776C10.8154 14.8798 10.8167 14.882 10.8179 14.8842L10.8193 14.8866L10.8202 14.8882C10.8214 14.8903 10.8225 14.8922 10.8236 14.8942C10.8288 14.8985 10.836 14.908 10.8428 14.917C10.8495 14.9257 10.8558 14.9339 10.8593 14.9363C10.8811 14.951 10.9162 14.9697 10.9525 14.9848C10.9541 14.9819 10.9554 14.9795 10.9566 14.9772L10.9587 14.9731C10.9627 14.9653 10.9662 14.9586 10.9755 14.9439C10.9888 14.9229 11.004 14.9016 11.0214 14.8814C11.0225 14.8801 11.0237 14.8788 11.0248 14.8774C11.0258 14.8762 11.0267 14.875 11.0277 14.8738C11.0427 14.8556 11.0587 14.8362 11.1005 14.8265C11.1482 14.8155 11.1793 14.8204 11.2062 14.8319C11.2332 14.8434 11.2597 14.8593 11.2854 14.8778C11.311 14.8964 11.3275 14.9115 11.3482 14.9372C11.3688 14.963 11.3972 15.0026 11.3947 15.0506C11.3917 15.1074 11.3591 15.1669 11.3162 15.2132C11.2734 15.2596 11.2079 15.298 11.1286 15.3013C11.0662 15.3039 10.9968 15.3006 10.9282 15.2694C10.8597 15.2382 10.8021 15.1808 10.7548 15.0924C10.7449 15.074 10.7322 15.0544 10.7186 15.0336C10.6907 14.9905 10.6588 14.9414 10.6398 14.884C10.6256 14.8412 10.6215 14.7925 10.6296 14.741C10.6377 14.6895 10.6588 14.6359 10.6972 14.584C10.7804 14.4718 10.912 14.4426 11.0303 14.4513C11.0574 14.4533 11.0844 14.4568 11.1196 14.4614L11.1295 14.4627C11.1321 14.4627 11.1268 14.4507 11.1171 14.429C11.0861 14.359 11.0101 14.1877 11.0101 13.9909C11.0101 13.7449 11.2339 13.5135 11.2837 13.462C11.289 13.4565 11.2924 13.4531 11.2932 13.4519C10.9333 13.1207 10.657 12.7575 10.6247 12.155ZM12.5548 28.7362C12.3948 28.6402 12.2739 28.4724 12.2353 28.2614C12.2127 28.1376 12.3288 28.0782 12.432 28.0254L12.4405 28.021C12.4405 28.021 12.099 27.9083 12.1005 27.5403C12.1018 27.2016 12.4915 26.8779 12.5481 26.8309C12.5506 26.8288 12.5525 26.8273 12.5536 26.8263C12.554 26.826 12.5543 26.8257 12.5545 26.8255C12.5545 26.8255 12.5547 26.8253 12.5545 26.8255C12.5547 26.8258 12.5574 26.8274 12.5616 26.8309C12.6182 26.8779 13.0079 27.2016 13.0092 27.5403C13.0106 27.9083 12.6692 28.021 12.6692 28.021L12.6777 28.0254C12.7808 28.0782 12.897 28.1376 12.8743 28.2614C12.8358 28.4724 12.7148 28.6402 12.5548 28.7362Z" fill="#2C475C"/>
</svg>
