<svg width="70" height="64" viewBox="0 0 70 64" fill="none" xmlns="http://www.w3.org/2000/svg">
<path fill-rule="evenodd" clip-rule="evenodd" d="M5.07377 29.3841C6.17171 32.6771 7.06357 36.0251 7.74931 39.4278C9.90095 46.1683 13.1896 52.636 17.6154 58.8304C18.7603 60.2746 20.2653 61.5301 22.1304 62.5968C23.6912 63.3576 25.2517 63.3576 26.8125 62.5968C27.9647 61.536 28.8008 60.3566 29.3209 59.0587C30.1158 55.0426 30.3386 51.0098 29.9898 46.9606C28.9891 38.3739 26.8711 29.9281 23.6353 21.6231C21.6892 16.3049 18.9023 11.2069 15.2743 6.32926C14.4677 5.32126 13.4087 4.44625 12.0971 3.70421C11.0782 3.20796 9.96339 3.05577 8.75264 3.24768C6.25201 4.87446 4.85849 6.8908 4.5721 9.29672C3.8368 16.0016 4.00402 22.6975 5.07377 29.3841ZM16.2776 19.3405C15.6793 18.9458 14.9547 18.7936 14.1037 18.8839C13.3555 19.468 12.8538 20.1528 12.5987 20.9383C11.585 28.4795 13.0343 35.784 16.9465 42.8518C17.8598 44.42 19.1418 45.8277 20.7926 47.0748C21.4417 47.2444 22.0548 47.2062 22.632 46.9606C23.3658 46.2635 23.9233 45.5025 24.3042 44.678C24.4447 37.2456 22.7725 30.0174 19.2876 22.9927C18.4687 21.6875 17.4653 20.4701 16.2776 19.3405Z" fill="#BFD5DF"/>
<path fill-rule="evenodd" clip-rule="evenodd" d="M5.0738 29.3841C6.17174 32.6771 7.0636 36.025 7.74934 39.4278C6.50599 38.7165 5.50266 37.8797 4.73936 36.9169C4.40157 36.1344 4.06713 35.3736 3.73603 34.6342C3.47085 32.7871 3.9168 31.037 5.0738 29.3841Z" fill="#678399"/>
<path fill-rule="evenodd" clip-rule="evenodd" d="M4.73934 36.9169C4.40155 36.1344 4.06711 35.3736 3.73601 34.6342C-0.0640949 38.2479 -0.84445 42.1284 1.39491 46.2758C2.48857 46.667 3.32468 46.515 3.90323 45.8193C4.28667 42.8575 4.56536 39.8901 4.73934 36.9169ZM2.0638 40.5691C2.61282 41.8986 2.72429 43.2682 2.39824 44.6779C2.06517 43.3168 1.95367 41.9472 2.0638 40.5691Z" fill="#678399"/>
<path fill-rule="evenodd" clip-rule="evenodd" d="M64.0113 27.5634C63.1951 27.6984 62.5398 28.0794 62.0455 28.706C60.9514 30.8157 60.602 33.0248 60.997 35.333C61.147 36.0659 61.6274 36.4468 62.4386 36.4756C61.5459 37.2864 60.4974 37.934 59.2933 38.418C58.7961 38.6717 58.3157 38.7096 57.8517 38.5323C56.8216 36.0874 56.6468 33.5737 57.3275 30.9912C57.7411 28.57 58.8331 26.4372 60.6039 24.5926C60.8531 24.4039 61.1152 24.3659 61.3902 24.4784C61.9624 25.0154 62.5739 25.5106 63.225 25.9637C63.7038 26.4178 63.9659 26.9512 64.0113 27.5634Z" fill="#678399"/>
<path fill-rule="evenodd" clip-rule="evenodd" d="M67.9429 34.1905C67.1737 33.4048 66.3438 32.6432 65.4529 31.9053C65.3879 30.7483 65.2131 29.6057 64.9287 28.4775C64.7557 28.0607 64.4498 27.756 64.0113 27.5634C63.966 26.9512 63.7039 26.4178 63.225 25.9638C62.5739 25.5106 61.9624 25.0154 61.3902 24.4784C61.1153 24.3659 60.8532 24.4039 60.6039 24.5926C58.8331 26.4373 57.7412 28.57 57.3275 30.9912C56.6469 33.5737 56.8217 36.0874 57.8518 38.5323C58.3157 38.7097 58.7961 38.6717 59.2934 38.4181C60.4975 37.9341 61.5459 37.2864 62.4387 36.4757C63.333 35.9937 63.9882 35.3082 64.4045 34.419C64.9371 35.5122 65.1557 36.6548 65.0597 37.8468C63.5015 42.4121 61.4484 46.8303 58.9002 51.1009C57.3973 53.1734 55.6063 55.0397 53.527 56.6996C53.3697 56.7968 53.2103 56.8877 53.0486 56.9725C51.9172 57.5659 50.6788 57.8558 49.3332 57.8422C51.0456 58.1069 52.6182 57.802 54.0512 56.9282C56.7569 54.9503 58.9849 52.627 60.735 49.9583C62.1731 46.9172 63.5275 43.8701 64.7976 40.8175C64.8634 41.6742 65.038 42.512 65.3219 43.3312C63.5141 48.5408 60.6747 53.2634 56.8033 57.4995C54.5938 59.8921 51.7541 60.9965 48.2848 60.813C46.4946 60.3982 45.053 59.5221 43.96 58.185C41.7552 54.6256 40.4446 50.8171 40.0284 46.759C38.8216 33.7551 41.53 21.4151 48.1537 9.73887C50.1654 6.08045 53.1797 3.22396 57.1965 1.16939C60.4309 0.332183 63.0958 1.05584 65.1908 3.34032C67.5988 6.93622 68.9966 10.821 69.3845 14.9948C69.9017 21.4868 69.4212 27.8854 67.9429 34.1905ZM57.4586 3.79735C58.4237 3.75958 59.3846 3.79767 60.3418 3.91161C58.9838 3.91278 57.7605 4.25556 56.6723 4.93995C53.2531 7.73342 50.5885 11.0089 48.678 14.7663C47.2073 17.8639 45.8094 20.9871 44.4842 24.1356C45.4126 17.5031 48.3396 11.6377 53.2649 6.53959C54.5869 5.50956 55.9848 4.59548 57.4586 3.79735ZM57.7207 8.82479C58.5118 8.78717 59.2981 8.82525 60.0797 8.93905C57.4439 9.55756 55.3908 10.8906 53.9201 12.9381C50.9604 17.4261 48.6014 22.1489 46.8432 27.1064C47.5137 21.8214 49.5233 16.9463 52.8717 12.4811C54.3065 11.0369 55.9229 9.81818 57.7207 8.82479ZM58.507 14.7663C58.9524 14.7297 59.3893 14.7678 59.8176 14.8806C58.5212 15.2737 57.429 15.9212 56.5412 16.823C53.29 20.9793 51.1059 25.5497 49.9885 30.5341C50.1932 27.1018 51.1541 23.8262 52.8717 20.7078C54.1377 18.2724 56.0162 16.2919 58.507 14.7663ZM60.3418 41.5031C60.0105 43.4473 58.9621 45.1233 57.1965 46.5305C56.9289 46.4158 56.8851 46.2636 57.0654 46.0735C58.4918 44.7282 59.584 43.2049 60.3418 41.5031ZM62.7008 39.4464C62.0253 43.5223 60.147 47.1786 57.0654 50.4154L55.3617 51.9007C55.0317 52.1251 54.6823 52.2012 54.3133 52.1292C56.0409 50.624 57.5697 48.9864 58.9002 47.2161C60.3963 44.7126 61.6631 42.1228 62.7008 39.4464Z" fill="#BFD5DF"/>
<path d="M67.4187 36.9327C67.2751 37.4185 67.1003 37.8756 66.8945 38.3038C66.8772 37.3762 66.8334 36.4622 66.7634 35.5616C67.1993 35.9405 67.4177 36.3975 67.4187 36.9327Z" fill="#BFD5DF"/>
<path fill-rule="evenodd" clip-rule="evenodd" d="M67.4187 36.9327C68.5182 38.7826 68.431 40.6107 67.1566 42.4172C66.9752 42.2972 66.8442 42.1448 66.7634 41.9601C66.6038 40.735 66.6476 39.5161 66.8945 38.3038C67.1002 37.8756 67.2751 37.4185 67.4187 36.9327ZM64.0113 27.5634C64.4498 27.756 64.7557 28.0606 64.9287 28.4775C65.2131 29.6057 65.3879 30.7483 65.4529 31.9053C66.3438 32.6431 67.1736 33.4048 67.9429 34.1905C69.9921 37.0275 70.298 39.9983 68.8603 43.1027C67.7788 44.2421 66.5993 44.3184 65.3218 43.3312C65.038 42.512 64.8634 41.6742 64.7976 40.8175C64.9095 39.8294 64.9971 38.839 65.0597 37.8468C65.1557 36.6548 64.9371 35.5122 64.4044 34.419C63.9882 35.3081 63.3329 35.9937 62.4386 36.4756C61.6274 36.4469 61.147 36.0659 60.997 35.333C60.602 33.0248 60.9514 30.8157 62.0455 28.706C62.5398 28.0794 63.1951 27.6984 64.0113 27.5634Z" fill="#678399"/>
</svg>
