<svg version="1.2" xmlns="http://www.w3.org/2000/svg" viewBox="0 0 394 579" width="394" height="579">
	<title>deaf</title>
	<style>
		.s0 { fill: #869da8 } 
		.s1 { fill: #657c85 } 
		.s2 { fill: #a2b7c2 } 
		.s3 { fill: #677b85 } 
		.s4 { fill: #d4dee2 } 
		.s5 { fill: #829ba6 } 
		.s6 { fill: #8ea6b3 } 
		.s7 { fill: #77919c } 
		.s8 { fill: none;stroke: #829ba6;stroke-miterlimit:10;stroke-width: 15 } 
		.s9 { fill: #d9e1e2;stroke: #bdcbd0;stroke-miterlimit:10 } 
		.s10 { fill: #b9d0d7 } 
		.s11 { fill: #b8d0d6 } 
	</style>
	<g id="Cymbal">
		<g>
			<path fill-rule="evenodd" class="s0" d="m384.06 342.25c-22.87 96.98-118.28 157.24-213.44 134.8-95.17-22.44-153.61-118.97-130.74-215.96 22.87-96.98 118.28-157.24 213.44-134.8 95.17 22.44 153.61 118.97 130.74 215.96z"/>
			<g>
				<path class="s1" d="m38.8 265.92c4.73-22.88 13.81-44.88 26.76-64.35 12.91-19.49 29.58-36.5 48.92-49.71 9.67-6.6 19.95-12.31 30.72-16.95 10.77-4.63 22-8.19 33.49-10.59 22.97-4.83 46.95-4.92 70.04-0.32 23.08 4.59 45.26 13.87 64.74 27.21 19.49 13.31 36.28 30.6 49.05 50.5 12.78 19.89 21.67 42.31 25.92 65.6 4.26 23.3 3.9 47.41-0.86 70.6-4.85 23.18-14.12 45.44-27.28 65.12-13.15 19.7-30.21 36.73-49.83 49.93-19.61 13.22-41.88 22.44-65.04 26.96-23.16 4.55-47.21 4.32-70.23-0.59-23.02-4.9-45.02-14.45-64.21-27.97-9.6-6.75-18.51-14.47-26.57-22.98-8.06-8.51-15.23-17.84-21.49-27.73-12.52-19.79-21.06-42.03-25.16-65.05-4.15-23.01-3.73-46.8 1.03-69.68zm0 0c-4.7 22.89-5.05 46.67-0.85 69.65 4.19 22.98 12.96 45.08 25.56 64.7 12.6 19.63 29.16 36.67 48.37 49.79 19.2 13.15 41.06 22.28 63.82 26.81 22.76 4.53 46.39 4.44 69.04-0.32 11.32-2.37 22.4-5.88 33.02-10.45 10.62-4.57 20.76-10.2 30.29-16.71 19.07-13.02 35.5-29.81 48.24-49.03 12.77-19.2 21.72-40.89 26.4-63.47 4.7-22.57 5.11-46.04 1.02-68.73-4.04-22.7-12.47-44.63-24.81-64.15-6.17-9.75-13.24-18.95-21.19-27.35-7.94-8.39-16.73-16-26.19-22.65-18.92-13.33-40.59-22.75-63.29-27.58-22.7-4.84-46.39-5.07-69.22-0.59-22.83 4.45-44.79 13.55-64.13 26.58-19.35 13.02-36.18 29.82-49.15 49.24-12.99 19.43-22.13 41.39-26.93 64.26z"/>
			</g>
		</g>
		<g>
			<path fill-rule="evenodd" class="s2" d="m245.41 300.53c-4.78 27.81-29 46.78-54.18 42.45-25.19-4.33-41.68-30.3-36.9-58.11 4.78-27.8 29-46.78 54.18-42.45 25.19 4.33 41.68 30.31 36.9 58.11z"/>
			<path class="s3" d="m154.31 285.07c2.12-12.54 8.36-24.46 18.06-32.97 4.83-4.24 10.48-7.67 16.71-9.71 6.2-2.08 12.94-2.83 19.56-1.98 6.62 0.82 13.12 3.2 18.78 6.92 5.65 3.73 10.52 8.69 14.2 14.41 3.69 5.72 6.22 12.18 7.52 18.88 1.31 6.7 1.35 13.62 0.26 20.34-1.17 6.71-3.46 13.24-6.88 19.15-3.4 5.91-7.91 11.19-13.26 15.4-5.34 4.22-11.56 7.32-18.12 9.02-6.57 1.68-13.49 1.82-20.02 0.45-6.54-1.34-12.68-4.24-17.87-8.23-5.22-3.96-9.46-9.04-12.64-14.63-6.39-11.2-8.39-24.5-6.3-37.05zm0 0c-1.01 6.29-0.97 12.74 0.25 18.98 1.21 6.23 3.58 12.22 7 17.51 3.41 5.29 7.91 9.83 13.09 13.22 5.19 3.38 11.11 5.52 17.14 6.24 6.04 0.75 12.14 0.04 17.79-1.88 5.66-1.88 10.83-5.04 15.27-8.95 8.91-7.86 14.69-18.89 16.68-30.55 1.94-11.67 0.08-23.99-5.78-34.32-2.91-5.15-6.78-9.81-11.53-13.43-4.71-3.65-10.27-6.3-16.22-7.55-5.94-1.27-12.23-1.17-18.24 0.35-6 1.53-11.73 4.36-16.68 8.26-4.96 3.88-9.15 8.78-12.32 14.28-3.21 5.48-5.35 11.57-6.45 17.84z"/>
		</g>
		<g id="Layer_13">
			<path class="s4" d="m203.78 301.66c0.57-3.05 0.54-20.59 0.54-20.6-49.15 36.26-88.39 79.97-93.63 145.63q0 0.08-0.06 0.14c-47.34 55.86-85.17 277.97-62.96 346.05 23.54 46.5 67.44 12.75 76.54-24.81 27.12-105.35-24.09-205.9-8.23-314.27v-0.01c30.28-44.25 78.05-76.59 87.8-132.13zm-92.92 239.03c6 69.34 27.28 137.66 7.87 202.23-6.98 29.13-44.42 61.52-65.9 23.32q0-0.01-0.01-0.02c-13.36-28.67-4.71-65.11-1.25-100.13 11.28-76.94 12.97-154.16 57.29-221.64-2.69 34.1-0.91 68.97 2 96.24zm80.65-215.81c-19.25 33.07-49.96 60.06-72.86 90.9 0.56-46.48 70.21-116.88 84.23-132.37 0-0.01-4.5 29.33-11.37 41.47z"/>
		</g>
		<g>
			<path class="s5" d="m257.12 249.87c-3.59-5.79-7.56-11.31-12.05-16.27 25.19 37.11 26.1 84.13-0.55 120.42 26.77-24.73 31.4-73.04 12.6-104.15z"/>
			<path class="s5" d="m274.12 255.99c-2.91-9.73-6.04-19.48-10.55-28.46 14.96 43.68 19.29 101.3-14.08 138.77 31.19-25.13 35.28-73.7 24.63-110.31z"/>
			<path class="s5" d="m274.77 224.05c-6.65-12.41-13.84-24.69-23.16-34.86 35.14 54.57 58.35 133.92 5.52 191.21q0-0.05 0-0.11c45.24-34.68 43.97-109.49 17.64-156.24z"/>
			<path class="s5" d="m288.28 222.06c-4.33-8.21-9.09-16.15-14.3-23.71 12.42 25.19 23.55 52.86 28.36 80.82q-0.06-0.31-0.21-1.1c3.08 23.26 3.78 47.38-7.91 67.03 24.76-35.36 12.54-87.53-5.94-123.04z"/>
			<path class="s5" d="m316.99 278.68q-1.78-15.03-4.5-29.88c4.33 51.35 7.01 107.17-28.01 148.03 33.27-27.61 38.17-77.64 32.51-118.15z"/>
			<path class="s5" d="m323.52 258.91q-1.13-4.6-2.39-9.18c2 28.69 12.06 57.75 4.45 86.05 10.89-23.93 3.04-52.36-2.06-76.87z"/>
		</g>
		<g>
			<path fill-rule="evenodd" class="s2" d="m355.12 342.25c-22.87 96.98-118.28 157.24-213.45 134.8-95.16-22.44-153.6-118.98-130.73-215.96 22.87-96.99 118.28-157.24 213.44-134.8 95.17 22.44 153.61 118.97 130.74 215.96z"/>
			<g>
				<path class="s1" d="m9.86 265.92c4.73-22.88 13.81-44.88 26.75-64.35 12.92-19.49 29.66-36.44 49-49.6 9.68-6.57 19.97-12.25 30.73-16.85 10.76-4.6 22-8.12 33.47-10.49 22.95-4.76 46.87-4.79 69.87-0.14 23.01 4.64 45.09 13.94 64.45 27.28 19.38 13.31 36.05 30.57 48.71 50.4 12.68 19.83 21.44 42.15 25.65 65.32 4.24 23.17 3.89 47.14-0.84 70.22-4.83 23.06-14.05 45.19-27.15 64.76-13.07 19.58-29.97 36.59-49.47 49.77-19.49 13.2-41.63 22.45-64.69 27.01-23.06 4.59-47.02 4.43-69.99-0.41-22.97-4.82-44.94-14.29-64.13-27.74-9.6-6.71-18.52-14.39-26.59-22.87-8.07-8.48-15.26-17.78-21.54-27.65-12.54-19.75-21.18-41.96-25.29-64.97-4.13-23.02-3.71-46.81 1.06-69.69zm0 0c-4.7 22.89-5.04 46.67-0.84 69.65 4.18 22.98 12.86 45.11 25.44 64.78 12.56 19.68 29.09 36.79 48.3 49.98 19.2 13.22 41.08 22.44 63.9 27.04 22.81 4.61 46.52 4.58 69.27-0.14 11.37-2.35 22.51-5.84 33.18-10.4 10.67-4.56 20.88-10.19 30.47-16.71 19.19-13.05 35.78-29.86 48.6-49.19 12.84-19.31 21.84-41.13 26.54-63.83 4.73-22.69 5.15-46.29 1.04-69.11-4.08-22.83-12.63-44.85-25.08-64.44-6.23-9.79-13.35-19.01-21.36-27.42-8-8.41-16.84-16.02-26.36-22.68-19.03-13.33-40.81-22.72-63.58-27.5-22.77-4.79-46.53-4.96-69.39-0.4-22.86 4.52-44.82 13.7-64.14 26.78-19.34 13.07-36.1 29.93-49.07 49.36-12.98 19.4-22.12 41.36-26.92 64.23z"/>
			</g>
		</g>
		<g>
			<path fill-rule="evenodd" class="s6" d="m216.47 300.53c-4.78 27.8-29 46.78-54.19 42.45-25.18-4.33-41.67-30.31-36.89-58.11 4.78-27.81 28.99-46.78 54.18-42.45 25.18 4.33 41.68 30.3 36.9 58.11z"/>
			<g>
				<path class="s7" d="m125.36 285.07c2.12-12.54 8.36-24.46 18.06-32.97 4.83-4.24 10.48-7.67 16.71-9.71 6.2-2.08 12.94-2.83 19.56-1.98 6.62 0.82 13.12 3.2 18.78 6.92 5.65 3.73 10.52 8.69 14.2 14.41 3.69 5.72 6.22 12.18 7.52 18.88 1.31 6.7 1.35 13.62 0.26 20.34-1.17 6.71-3.46 13.24-6.88 19.15-3.4 5.91-7.91 11.19-13.26 15.4-5.34 4.22-11.56 7.32-18.12 9.02-6.57 1.68-13.49 1.82-20.02 0.45-6.54-1.34-12.68-4.24-17.87-8.23-5.22-3.96-9.46-9.04-12.64-14.63-6.38-11.2-8.39-24.5-6.3-37.05zm0 0c-1.01 6.29-0.97 12.74 0.25 18.98 1.21 6.23 3.58 12.22 7 17.51 3.41 5.29 7.91 9.83 13.09 13.22 5.19 3.38 11.11 5.52 17.14 6.24 6.04 0.75 12.14 0.04 17.79-1.88 5.66-1.88 10.83-5.04 15.27-8.95 8.91-7.86 14.69-18.89 16.68-30.55 1.94-11.67 0.08-23.99-5.78-34.32-2.91-5.15-6.78-9.81-11.53-13.43-4.71-3.65-10.27-6.3-16.22-7.55-5.94-1.27-12.23-1.17-18.24 0.35-6 1.53-11.73 4.36-16.68 8.26-4.96 3.88-9.15 8.78-12.32 14.28-3.2 5.48-5.35 11.57-6.45 17.84z"/>
			</g>
		</g>
		<path fill-rule="evenodd" class="s8" d="m271.17 321.67c-15.68 56.46-71.08 90.23-123.94 75.56-52.86-14.68-82.92-72.18-67.24-128.63 15.67-56.46 71.07-90.23 123.93-75.56 52.86 14.68 82.92 72.18 67.25 128.63z"/>
		<path class="s9" d="m174.84 301.66c-0.63 1.3 3.14-22.43-2.16-18.59-107.66 67.18-182.11 368.67-153.96 489.81 23.54 46.5 67.44 12.75 76.55-24.81 27.12-105.35-24.09-205.91-8.23-314.28 30.28-44.25 78.04-76.59 87.8-132.13zm-92.93 239.03c6 69.34 27.28 137.66 7.87 202.23-6.98 29.14-44.45 61.53-65.91 23.29-13.36-28.67-4.7-65.11-1.25-100.13 11.28-76.94 12.97-154.16 57.29-221.64-2.68 34.11-0.9 68.98 2 96.25zm72.21-202.63c-19.02 27.3-44.63 51.07-64.42 77.71-10.56-22.39 97.46-168.48 78.43-106.23-3.1 10.19-7.92 19.78-14.01 28.52z"/>
		<g>
			<path class="s10" d="m290.04 249.02c-3.03-5.82-6.39-11.37-10.18-16.37 21.27 37.32 22.05 84.61-0.46 121.11 22.61-24.86 26.52-73.45 10.64-104.74z"/>
			<path class="s10" d="m304.39 255.18c-2.46-9.79-5.1-19.59-8.91-28.62 12.64 43.94 16.29 101.89-11.89 139.57 26.35-25.28 29.8-74.13 20.8-110.95z"/>
			<path class="s10" d="m304.94 223.05c-5.61-12.48-11.69-24.83-19.56-35.06 29.68 54.88 49.29 134.7 4.66 192.32q0-0.06 0-0.11c38.22-34.88 37.15-110.12 14.9-157.15z"/>
			<path class="s10" d="m316.36 221.06c-3.66-8.26-7.68-16.24-12.08-23.84 10.49 25.34 19.89 53.17 23.96 81.29q-0.04-0.31-0.18-1.1c2.6 23.39 3.19 47.66-6.68 67.41 20.91-35.58 10.59-88.05-5.02-123.76z"/>
			<path class="s10" d="m340.61 278q-1.5-15.11-3.81-30.06c3.66 51.64 5.92 107.79-23.66 148.88 28.11-27.76 32.25-78.07 27.47-118.82z"/>
			<path class="s10" d="m346.12 258.12q-0.96-4.64-2.02-9.23c1.69 28.86 10.18 58.09 3.76 86.54 9.2-24.07 2.57-52.67-1.74-77.31z"/>
		</g>
		<g>
			<path class="s11" d="m61.1 273.2c-0.79 5.97-1.23 11.86-1.1 17.47 3.83-39.05 26.53-77.78 59.81-98.2-27.63 10.93-54.16 48.8-58.71 80.73z"/>
			<path class="s11" d="m54.34 262.31c-3.13 8.96-6.14 18-7.98 26.91 12.97-40.88 38.94-89.46 76.67-108.51-30.39 9.73-56.74 48-68.69 81.6z"/>
			<path class="s11" d="m38.18 288.18c-2.3 12.44-4.23 24.97-3.88 36.5 6.72-56.76 32.56-129.64 91.29-158.15q-0.03 0.04-0.06 0.09c-43.19 12.67-79.42 74.23-87.35 121.56z"/>
			<path class="s11" d="m29.42 285.12c-1.56 8.21-2.74 16.34-3.48 24.32 5.29-24.89 12.55-51.35 23.59-75.87q-0.12 0.27-0.42 0.97c9.72-20.07 21.23-40.02 37.67-52.02-31.73 20.33-50.46 67.19-57.36 102.6z"/>
			<path class="s11" d="m40.86 228.91q-6.4 12.89-12.17 25.98c22.88-43.45 48.91-89.99 89.27-111.24-32.81 11.03-60.35 50.2-77.1 85.26z"/>
			<path class="s11" d="m27.33 242.8q-1.63 4.16-3.16 8.33c13.03-24.14 21.59-51.37 39.95-71.85-18.1 15.78-27.62 41.74-36.79 63.52z"/>
		</g>
	</g>
</svg>