<svg version="1.2" xmlns="http://www.w3.org/2000/svg" viewBox="0 0 919 79" width="919" height="79">
	<title>edge</title>
	<style>
		.s0 { fill: #80919c } 
		.s1 { fill: #677b85 } 
		.s2 { fill: #95abb5 } 
	</style>
	<g id="Edge">
		<g id="Layer_2">
			<path fill-rule="evenodd" class="s0" d="m0.2 45.02l16.45-44.46 887.55-0.34 15.54 44.8z"/>
			<path fill-rule="evenodd" class="s1" d="m0.2 45.02l16.45 33.94 887.55 0.26 15.54-34.2z"/>
		</g>
		<path class="s2" d="m459.31 34.1c-145.15-0.85-290.59-3.37-435.55 4.42 155.19-3.4 310.78-3.68 466-2.76-10.13-0.88-20.29-1.5-30.45-1.66z"/>
		<path class="s2" d="m250.45 24.55c-74.66-1.19-149.44 3.04-223.95 6.29 78.47 0.48 156.99-5.04 235.48-5.66q-5.77-0.39-11.53-0.63z"/>
		<path class="s2" d="m171.88 18.56c-47.85 1.42-96.07 0.37-143.74 4.6 50.24-0.72 100.7-0.34 150.82-4.44q-3.53-0.09-7.08-0.16z"/>
		<path class="s2" d="m30.34 13.84c22.78-0.16 46.54 0.05 68.82-1.54-22.92-1.24-46.02-1.44-68.82 1.54z"/>
		<path class="s2" d="m860.44 6.5c-78.3 1.32-156.75-1.87-234.98 2.08 84.16-0.22 168.8 2.44 252.84-1.91q-8.92-0.25-17.86-0.17z"/>
		<path class="s2" d="m866.91 11.76c-46.97 1.46-94.09 1.7-140.99 4.32 49.35 0.9 98.91-0.04 148.09-4.23q-3.54-0.07-7.1-0.09z"/>
		<path class="s2" d="m807.52 20.23c-13.16 0.9-26.33 1.68-39.42 3.36 31.72-0.18 63.46-2.49 95.02-5.54-18.55-0.22-37.1 0.79-55.6 2.18z"/>
		<path class="s2" d="m837.22 26.3c-11.07-0.09-22.03 1.4-33.01 2.65 26.79-0.82 55.45 0.23 81.74-2.87-16.25-0.22-32.49 0.11-48.73 0.22z"/>
		<path class="s2" d="m891.83 37.57c-32.84-1.31-65.95-2.18-98.7 1.03 33.73-0.07 67.52 0.76 101.21-0.87q-1.26-0.08-2.51-0.16z"/>
	</g>
</svg>