<svg width="91" height="92" viewBox="0 0 91 92" fill="none" xmlns="http://www.w3.org/2000/svg">
<path d="M82.5422 7.83482C77.652 2.79858 71.2273 -2.87284e-05 64.5561 2.2118e-10C60.9987 0.00284977 57.4783 0.802336 54.2058 2.3506C50.9333 3.89887 47.9759 6.16408 45.5106 9.01063L45.4997 8.99859L45.489 9.01051C43.0238 6.16401 40.0664 3.89885 36.7939 2.35065C33.5215 0.80244 30.0012 0.00301077 26.4438 0.000214623C19.4305 0.000303442 12.7045 3.09254 7.74533 8.59668C2.78616 14.1008 8.00251e-05 21.566 0 29.3499C0.0025193 33.2982 0.722797 37.2054 2.11772 40.8375C3.51264 44.4695 5.55351 47.7519 8.11818 50.488L8.10732 50.5001L45.4983 92L82.8924 50.4967L82.89 50.494C85.4542 47.7559 87.4941 44.4716 88.8877 40.8378C90.2812 37.204 90.9997 33.2955 91 29.3462C91.0001 25.3072 90.249 21.3117 88.7938 17.6097C87.3386 13.9077 85.2106 10.5789 82.543 7.83169L82.5422 7.83482Z" fill="#B5CBD5"/>
</svg>
