<svg width="951" height="1322" viewBox="0 0 951 1322" fill="none" xmlns="http://www.w3.org/2000/svg">
<g style="mix-blend-mode:plus-darker">
<path d="M418.426 0.468948C318.826 10.3356 237.626 43.5356 163.093 104.869C151.626 114.202 119.893 145.669 108.56 159.002C75.2263 197.802 41.3596 251.669 26.1596 290.336C-0.373699 357.269 -6.64037 441.269 7.09297 546.202C8.95963 560.869 16.293 589.002 22.4263 605.669C44.5596 665.002 92.9596 736.602 152.026 797.002L168.426 813.669L160.693 820.336C144.693 834.202 129.76 849.669 122.56 859.536C100.56 890.202 79.7596 928.602 65.093 966.336C45.2263 1016.87 20.9596 1095.8 12.4263 1137.67C4.8263 1174.34 -2.50703 1246.47 0.8263 1249.8C4.69297 1253.54 72.8263 1275 111.76 1284.87C252.026 1320.07 420.426 1330.07 605.76 1314.2C711.493 1305.27 832.56 1283.8 930.16 1256.74L950.026 1251.27L949.226 1244.47C948.826 1240.74 946.96 1219.94 945.093 1198.34C936.96 1104.6 930.426 1069.4 903.76 978.336C898.96 961.802 898.826 961.002 896.56 899.002C895.226 866.069 894.16 861.936 885.36 859.536C882.56 858.869 867.893 858.069 852.96 857.802L825.626 857.402L820.826 850.202C814.026 840.069 770.826 797.269 761.36 791.402C760.293 790.736 765.226 784.869 775.226 774.736C803.626 745.936 821.36 724.069 842.026 692.336C879.493 635.002 900.026 581.002 908.693 517.002C912.56 488.336 912.826 424.202 909.36 395.669C901.893 336.069 890.56 295.936 869.093 253.002C831.893 178.736 784.026 121.536 722.293 77.5356C668.56 39.1356 599.626 13.5356 521.093 2.86895C507.093 0.868948 431.626 -0.864386 418.426 0.468948ZM475.626 22.7356C475.36 24.4689 475.76 24.7356 476.96 23.6689C477.893 23.0023 479.093 22.7356 479.493 23.2689C480.026 23.6689 480.426 23.4023 480.426 22.6023C480.426 20.6023 517.493 22.3356 529.093 25.0023C532.026 25.6689 536.426 26.3356 538.826 26.3356C541.093 26.3356 543.093 26.8689 543.093 27.5356C543.093 28.8689 550.826 30.6023 558.826 31.0023C567.093 31.4023 568.293 33.1356 564.693 39.9356C561.093 46.7356 553.893 57.2689 549.76 61.6689C546.96 64.6023 546.96 65.669 547.093 88.469C547.226 101.669 547.226 125.669 547.226 141.936L547.093 171.669H543.893C542.16 171.669 537.76 170.736 534.293 169.802C513.093 163.402 506.826 162.069 492.693 160.869C484.16 160.202 471.893 159.002 465.626 158.336C448.96 156.602 422.426 159.669 399.093 166.202C374.826 172.869 376.426 172.602 377.226 168.602C377.493 167.002 378.16 142.469 378.693 114.069L379.493 62.6023L374.693 55.4023C372.16 51.5356 366.96 45.5356 363.226 41.9356C359.493 38.4689 356.426 34.8689 356.426 33.9356C356.426 31.8023 371.36 28.2023 387.093 26.3356C392.56 25.8023 399.493 24.6023 402.426 23.8023C405.36 23.0023 410.826 22.3356 414.426 22.3356C418.16 22.3356 422.026 21.6689 423.093 21.0023C424.293 20.2023 435.493 19.8023 450.426 20.0689C473.76 20.3356 475.76 20.4689 475.626 22.7356ZM598.426 39.9356C602.16 41.4023 610.56 44.3356 617.226 46.3356C623.893 48.469 632.56 51.8023 636.56 53.8023C645.36 58.3356 645.626 58.4689 658.16 63.6689C663.76 65.9356 668.426 68.469 668.426 69.1356C668.426 69.8023 669.36 70.3356 670.426 70.3356C673.226 70.3356 682.026 74.8689 689.893 80.4689C693.493 83.0023 696.826 85.0023 697.36 85.0023C698.026 85.0023 701.493 87.4023 705.36 90.3356C709.226 93.1356 714.16 96.469 716.426 97.669C718.56 98.7356 720.426 100.202 720.426 100.736C720.426 101.402 722.96 103.269 726.026 105.002C729.093 106.736 735.093 111.136 739.226 114.869C743.36 118.602 750.56 124.736 755.226 128.602C759.893 132.469 767.093 139.002 771.093 143.136C775.093 147.269 780.293 152.602 782.56 154.869C784.826 157.136 792.826 166.336 800.293 175.269C807.76 184.336 814.426 191.669 815.226 191.669C815.893 191.669 817.626 194.336 818.96 197.536C820.426 200.736 823.093 204.869 824.96 206.736C826.826 208.602 828.426 210.736 828.426 211.536C828.426 213.536 838.96 229.002 840.426 229.002C841.093 229.002 842.026 230.336 842.426 231.936C844.426 238.869 847.493 243.802 850.826 245.536C853.626 247.002 855.093 249.536 857.76 257.802C859.493 263.669 861.76 269.802 862.56 271.669C863.493 273.536 864.56 277.536 865.093 280.736L866.026 286.469L852.16 300.469C844.693 308.202 837.226 315.136 835.76 316.069C833.893 317.136 818.026 317.536 779.093 317.136C749.36 317.002 723.76 316.469 722.026 316.069C720.026 315.669 717.76 313.002 715.493 308.469C713.626 304.736 710.826 300.202 709.226 298.336C707.626 296.469 703.893 291.136 701.093 286.336C686.826 262.469 661.36 235.936 635.626 218.336C634.026 217.269 629.226 213.936 624.96 210.869C620.56 207.936 614.426 204.069 611.093 202.202C607.76 200.469 602.426 197.136 599.093 195.002C592.693 190.736 576.026 182.336 573.893 182.336C571.493 182.336 563.36 176.869 562.56 174.736C561.76 172.602 561.76 159.269 562.426 105.002C563.093 62.2023 562.56 66.4689 568.293 56.8689C571.093 52.2023 576.026 45.5356 579.226 42.069C585.76 35.269 586.16 35.1356 598.426 39.9356ZM344.56 41.8023C346.293 43.669 349.093 45.8023 350.693 46.4689C352.293 47.0023 354.693 49.5356 355.893 51.9356C357.093 54.3356 360.826 59.8023 364.16 64.069L370.293 71.8023L368.693 89.4023C367.76 99.1356 366.693 121.936 366.426 140.336C366.026 158.602 365.36 174.736 364.96 176.069C363.626 180.202 361.093 177.669 360.293 171.536C359.626 166.469 358.826 127.402 358.56 83.0023C358.426 66.869 356.826 62.8689 349.093 57.9356C343.093 54.0689 332.426 42.469 332.426 39.8023C332.426 36.7356 341.226 38.2023 344.56 41.8023ZM335.493 65.4023L345.76 76.8689L346.96 107.269C348.56 155.002 348.16 183.802 345.76 185.136C344.693 185.669 340.826 187.669 337.093 189.402C324.426 195.269 307.76 204.069 305.76 205.669C304.693 206.602 300.56 209.136 296.826 211.269C292.96 213.402 288.16 216.469 286.16 218.069C273.093 228.602 267.093 233.002 266.026 233.002C264.56 233.002 245.493 250.336 231.76 264.336C220.426 275.936 204.426 295.936 196.026 309.002L192.96 313.669L179.76 314.469C172.426 315.002 149.626 315.402 129.226 315.536C108.693 315.536 88.5596 315.936 84.5596 316.469C78.0263 317.136 76.293 316.736 70.693 313.669C67.2263 311.669 63.893 309.002 63.2263 307.802C62.4263 306.469 59.493 302.602 56.5596 299.002C53.493 295.402 51.093 291.402 51.093 290.069C51.093 287.402 67.093 256.336 72.693 248.069C74.693 245.002 76.4263 242.202 76.4263 241.802C76.4263 241.402 79.7596 236.069 83.7596 230.069C95.3596 212.602 96.8263 210.469 101.36 204.602C103.626 201.536 107.626 195.936 110.293 192.336C112.826 188.602 117.626 183.002 120.96 179.936C124.426 176.736 128.826 171.936 130.826 169.269C135.093 163.402 154.56 142.736 163.093 135.002C166.293 132.069 172.96 125.936 177.893 121.269C182.693 116.736 187.36 113.002 188.16 113.002C189.093 113.002 189.76 112.469 189.76 111.802C189.76 111.136 191.493 109.536 193.626 108.069C195.76 106.736 201.226 103.002 205.893 99.669C216.826 91.9356 238.96 78.2023 248.426 73.4023C252.426 71.4023 256.426 69.0023 257.093 68.069C257.893 67.1356 263.893 64.3356 270.426 61.8023C277.093 59.269 287.493 55.0023 293.76 52.3356C300.026 49.6689 307.093 46.8689 309.493 46.3356C312.026 45.6689 314.293 44.8689 314.693 44.4689C315.626 43.6689 318.56 46.7356 335.493 65.4023ZM424.026 198.336C421.493 200.469 418.56 202.336 417.493 202.336C416.426 202.336 414.426 203.669 412.96 205.136C409.493 209.136 396.026 218.069 389.36 221.002C378.56 225.669 353.626 226.069 349.226 221.536C348.16 220.469 346.16 219.669 344.826 219.536C340.293 219.269 348.826 217.269 355.093 217.136C360.56 217.002 366.693 215.936 384.426 211.669C394.826 209.269 410.16 203.402 417.76 198.869C426.96 193.269 429.893 193.136 424.026 198.336ZM506.293 195.669C508.16 196.336 516.426 197.536 524.826 198.202C547.226 200.202 557.493 203.269 549.626 205.669C546.426 206.736 526.16 205.402 518.426 203.669C504.826 200.736 495.093 197.936 495.093 197.136C495.093 194.202 500.56 193.402 506.293 195.669ZM399.093 199.669C399.093 200.336 397.36 201.002 395.226 201.002C392.96 201.002 390.826 201.536 390.426 202.336C389.36 203.936 384.426 204.069 384.426 202.469C384.426 201.269 392.293 198.736 396.826 198.469C398.026 198.336 399.093 198.869 399.093 199.669ZM432.426 204.869C432.426 207.936 414.16 223.269 404.693 228.202C392.826 234.336 376.16 238.869 365.76 238.602C358.826 238.469 335.626 234.336 326.426 231.536C322.426 230.202 321.76 229.669 323.76 229.269C326.96 228.602 349.226 229.802 363.76 231.536C378.026 233.136 386.426 231.536 399.626 224.202C414.426 216.069 414.826 215.802 422.426 209.269C428.826 203.936 432.426 202.336 432.426 204.869ZM374.426 206.336C374.026 207.002 371.093 207.669 368.026 207.536C363.626 207.536 362.96 207.269 365.093 206.336C368.826 204.736 375.493 204.736 374.426 206.336ZM523.093 210.202C532.293 211.536 548.96 213.269 560.026 213.936C578.826 215.002 585.36 216.469 582.693 219.136C581.093 220.736 542.826 219.669 530.426 217.802C515.226 215.402 501.76 211.669 497.626 208.602L494.426 206.336L500.426 206.869C503.76 207.269 513.893 208.736 523.093 210.202ZM490.426 212.336C510.96 221.402 528.426 224.469 568.293 226.336C596.826 227.536 605.226 228.869 607.626 232.869C609.226 235.402 602.293 235.936 572.16 235.269C541.226 234.602 536.293 233.936 513.093 226.736C507.226 224.869 499.36 221.669 495.626 219.536C491.893 217.402 487.626 215.669 486.16 215.669C482.826 215.669 476.16 210.602 477.226 208.869C478.16 207.402 481.093 208.202 490.426 212.336ZM502.16 228.736C512.026 233.402 517.093 235.002 527.76 237.002C532.16 237.802 538.293 239.002 541.493 239.669C544.56 240.469 561.76 241.402 579.493 241.669C612.293 242.469 624.56 243.936 627.36 247.402C628.826 249.002 628.16 249.136 622.426 248.469C618.693 247.936 600.826 247.269 582.426 247.002C546.426 246.336 529.493 244.336 512.693 238.869C500.16 234.736 492.693 231.136 487.76 226.869L483.76 223.536L488.826 224.202C491.626 224.602 497.626 226.602 502.16 228.736ZM459.093 226.202C459.093 229.802 488.56 254.202 493.226 254.336C493.893 254.336 495.893 255.536 497.76 257.002C499.626 258.469 502.56 259.669 504.426 259.669C508.026 259.669 517.093 262.602 518.56 264.069C519.093 264.602 521.76 265.002 524.56 265.002C530.56 265.002 550.16 269.536 560.026 273.269C564.96 275.136 568.16 277.269 570.16 280.336C571.76 282.736 577.76 290.202 583.493 296.736C589.093 303.402 593.76 309.136 593.76 309.669C593.76 310.202 595.626 312.869 597.76 315.669C600.026 318.469 601.76 322.336 601.76 324.336C601.76 326.469 604.426 331.936 607.893 337.136C611.226 342.336 614.826 349.536 615.76 353.136C616.826 356.869 618.56 362.069 619.76 364.469C623.493 372.469 618.826 374.202 611.093 367.669C608.56 365.402 606.026 363.669 605.226 363.669C604.56 363.669 603.36 362.869 602.56 361.802C600.293 359.002 581.76 353.269 564.56 350.202C538.026 345.402 504.96 348.469 494.293 356.469C491.36 358.736 488.026 363.669 484.96 370.202C477.76 385.269 473.626 393.136 470.16 398.202C467.226 402.602 467.093 403.669 467.093 431.002C467.093 446.469 466.693 466.469 466.293 475.136L465.36 491.136L469.626 495.936C475.493 502.602 475.226 507.536 468.826 512.869C463.893 517.002 458.426 518.069 451.626 516.202C445.893 514.736 444.026 504.202 447.76 495.269C449.36 491.269 449.493 488.202 448.426 477.402C447.626 470.202 447.093 450.202 447.36 433.002C447.626 402.869 447.626 401.402 444.56 393.669C436.96 374.336 435.226 369.269 433.226 362.069C430.96 354.336 426.826 349.536 421.226 348.336C380.426 340.069 363.226 340.202 337.093 348.602C331.226 350.469 325.493 353.136 324.426 354.469C321.626 357.669 311.893 360.869 309.226 359.402C307.626 358.469 307.093 358.736 307.093 360.736C307.093 362.069 306.293 364.336 305.226 365.669C300.693 371.936 308.426 375.802 315.226 370.602C316.96 369.269 321.893 366.736 326.026 365.136C330.293 363.402 334.293 361.269 335.093 360.336C338.426 356.336 375.76 354.469 379.36 358.069C380.56 359.269 380.293 359.669 378.026 359.669C376.426 359.669 374.026 360.869 372.826 362.336C371.36 364.069 368.826 365.002 366.026 365.002C360.693 365.002 353.626 367.802 349.893 371.536C348.426 373.002 343.893 376.069 339.893 378.202C335.893 380.336 328.96 384.869 324.56 388.202C320.026 391.669 316.426 394.202 316.426 393.802C316.426 393.269 314.293 395.269 311.76 398.202C309.226 401.002 307.093 404.202 307.093 405.402C307.093 409.936 310.026 408.869 315.893 402.469C324.426 393.002 347.626 381.536 362.026 379.669C378.693 377.669 386.026 379.936 403.76 392.869C408.826 396.602 413.493 399.669 414.026 399.669C415.36 399.669 420.426 409.669 420.426 412.202C420.426 413.269 419.76 414.602 419.093 415.002C417.493 415.936 416.826 415.536 404.293 405.802C376.426 384.202 352.826 385.536 322.56 410.602C318.293 414.202 313.093 417.536 310.96 417.936C308.293 418.469 307.093 419.536 307.093 421.136C307.093 423.269 308.16 423.669 313.226 423.669C320.56 423.669 322.693 424.736 333.493 433.936C338.16 437.802 344.426 442.336 347.493 443.936C355.093 447.802 369.493 448.602 378.826 445.936C386.026 443.802 403.093 432.336 403.093 429.669C403.093 426.869 408.56 424.736 413.76 425.669C420.16 426.736 423.893 431.536 421.76 435.669C420.96 437.136 420.826 438.336 421.493 438.336C422.16 438.336 422.16 441.802 421.626 446.202C420.96 450.602 420.293 467.802 420.026 484.469L419.626 514.736L424.693 519.536C427.493 522.202 429.76 525.136 429.76 525.936C429.76 526.869 427.76 528.469 425.493 529.536C423.093 530.469 418.56 533.802 415.493 536.869C412.426 539.802 409.493 542.336 408.96 542.336C406.826 542.336 392.426 554.202 382.16 564.336C364.16 582.202 359.36 586.336 357.36 586.336C356.426 586.336 353.493 583.802 350.96 580.602C348.56 577.536 343.226 572.069 339.36 568.469C335.493 564.869 330.826 559.002 329.093 555.536C327.226 552.069 325.226 548.869 324.426 548.336C323.76 547.936 323.093 546.602 323.093 545.402C323.093 544.202 322.293 542.602 321.226 541.802C319.626 540.469 312.56 527.136 307.626 516.336C306.693 514.069 305.493 508.869 305.093 504.736C304.56 500.469 303.626 496.736 302.96 496.336C302.293 495.802 301.76 494.202 301.76 492.469C301.76 490.736 300.96 487.669 299.893 485.536C297.36 480.336 292.426 454.069 291.093 438.069C290.426 430.869 289.493 424.336 288.96 423.536C288.16 422.202 290.16 410.336 292.16 405.002C293.36 401.669 293.626 400.602 294.56 395.002C295.093 392.069 296.293 387.936 297.36 385.936C298.693 383.402 298.96 380.336 298.293 376.202C297.76 371.936 298.026 369.536 299.493 367.136C300.693 365.402 301.893 362.202 302.16 360.202C302.426 357.802 303.493 356.469 304.56 356.602C305.626 356.736 307.626 354.469 309.093 351.669C314.426 341.136 324.96 323.002 326.16 322.202C326.826 321.669 326.693 321.002 325.893 320.469C323.493 319.002 324.16 317.269 329.093 311.802C331.626 309.002 334.16 304.736 334.56 302.469C335.093 299.802 337.226 296.869 339.893 294.736C342.426 292.869 344.426 290.602 344.426 289.669C344.426 288.602 346.56 286.069 349.226 283.936C357.626 277.002 370.693 271.536 387.093 268.202C388.96 267.802 391.626 267.002 393.093 266.336C394.56 265.802 400.426 263.669 406.16 261.669C411.76 259.669 418.426 256.602 420.826 254.869C423.093 253.136 426.293 251.136 427.76 250.469C430.426 249.136 434.96 244.869 446.826 231.936C450.826 227.802 454.56 225.002 456.293 225.002C457.76 225.002 459.093 225.536 459.093 226.202ZM334.426 242.469C336.026 243.002 329.226 243.536 318.56 243.536C300.426 243.669 297.093 243.002 306.026 241.136C311.226 240.069 330.693 240.869 334.426 242.469ZM634.16 251.269C633.226 251.536 631.626 251.536 630.826 251.269C629.893 250.869 630.56 250.602 632.426 250.602C634.293 250.602 634.96 250.869 634.16 251.269ZM623.493 255.669C627.626 257.136 632.16 258.336 633.626 258.336C636.026 258.336 640.026 261.802 638.826 263.002C638.56 263.402 634.026 262.736 628.96 261.536C623.893 260.469 617.36 259.269 614.426 258.869C611.493 258.469 608.16 257.802 607.093 257.402C606.026 256.869 603.893 256.736 602.426 256.736C600.96 256.869 600.56 256.602 601.493 256.202C602.293 255.802 602.826 254.869 602.293 254.202C600.96 251.936 615.76 253.002 623.493 255.669ZM289.093 286.336C287.76 287.802 286.426 288.736 286.026 288.336C285.093 287.536 288.426 283.669 290.16 283.669C290.826 283.669 290.426 284.869 289.093 286.336ZM612.16 290.469C613.36 292.869 615.493 295.669 616.826 296.869C618.026 297.936 619.093 299.536 619.093 300.336C619.093 301.136 621.493 304.069 624.293 306.869C627.226 309.669 632.16 317.136 635.226 323.269C638.693 330.202 642.026 335.002 643.76 335.669C646.293 336.602 653.76 346.202 653.76 348.469C653.76 349.002 656.026 351.402 658.826 353.802C661.893 356.602 662.96 358.202 661.76 358.336C659.493 358.336 650.293 348.336 640.826 335.402C637.36 330.869 633.626 326.202 632.426 325.002C631.093 323.936 626.56 317.269 622.293 310.336C618.026 303.402 613.76 297.136 612.826 296.602C611.893 296.069 611.093 294.736 611.093 293.936C611.093 293.002 609.893 291.402 608.426 290.336C605.226 288.069 604.96 286.336 607.76 286.336C608.96 286.336 610.96 288.202 612.16 290.469ZM638.826 306.069C642.293 310.069 646.426 315.269 647.893 317.802C653.093 326.336 675.893 350.469 681.76 353.669C684.16 355.002 694.426 364.469 697.093 367.936C697.893 368.869 702.693 374.736 708.026 381.002C713.226 387.269 718.426 394.602 719.493 397.269C721.493 402.069 721.493 402.336 719.226 402.336C717.893 402.336 715.226 400.336 713.226 397.802C711.36 395.269 698.56 381.802 684.826 367.802C670.96 353.936 656.693 338.736 652.826 334.069C642.96 321.936 624.56 293.936 625.36 292.469C625.893 291.802 627.626 293.002 629.36 295.136C631.093 297.269 635.226 302.202 638.826 306.069ZM870.693 298.069C871.626 298.602 872.693 301.002 873.226 303.136C873.893 306.602 873.36 307.536 870.16 309.669C868.16 311.002 861.36 317.136 855.226 323.402C848.96 329.536 842.16 335.402 840.026 336.602C836.826 338.202 830.426 338.602 804.56 338.469C787.226 338.336 763.226 337.936 751.093 337.536C730.693 337.002 728.96 336.736 726.693 334.069C725.36 332.469 724.426 329.669 724.693 327.802L725.093 324.336L783.626 324.202C835.893 324.069 842.16 323.802 843.226 321.936C844.826 319.269 867.093 297.002 868.293 297.002C868.693 297.002 869.893 297.536 870.693 298.069ZM651.093 307.136C651.093 307.536 650.16 307.269 649.093 306.336C648.026 305.402 647.093 304.069 647.093 303.402C647.093 302.736 648.026 303.002 649.093 304.202C650.16 305.269 651.093 306.602 651.093 307.136ZM273.226 310.336C271.493 312.202 268.56 316.202 266.56 319.269C263.093 324.869 260.426 326.602 260.426 323.269C260.426 322.469 263.493 317.536 267.226 312.469C272.293 305.669 274.293 303.802 275.226 305.136C275.893 306.336 275.226 308.069 273.226 310.336ZM288.16 307.936C286.293 311.136 284.16 313.136 283.36 312.336C283.093 312.069 284.16 310.069 285.893 307.802C289.36 303.136 290.826 303.136 288.16 307.936ZM52.9596 312.336C56.5596 316.336 61.7596 321.136 64.4263 323.002L69.493 326.469L114.56 324.602C172.16 322.069 186.693 321.936 187.626 323.536C188.16 324.336 187.226 327.136 185.76 329.936C184.293 332.736 183.093 335.669 183.093 336.602C183.093 337.402 182.693 338.336 182.026 338.602C181.493 338.736 178.693 346.202 175.893 355.002C173.093 363.802 170.293 372.469 169.626 374.336C165.626 385.669 160.426 412.069 159.226 426.336C155.093 474.069 154.96 479.002 156.426 488.602C157.226 493.936 157.626 498.869 157.093 499.669C156.56 500.469 137.76 501.002 103.36 501.002C74.293 501.002 48.1596 501.536 45.3596 502.202C40.4263 503.402 36.8263 506.602 29.093 516.202C25.2263 521.136 22.293 520.069 21.2263 513.402C18.0263 492.336 17.6263 441.936 20.293 413.002C21.2263 403.136 23.3596 387.669 25.2263 378.602C26.9596 369.536 28.4263 361.136 28.4263 359.936C28.4263 357.936 30.9596 348.869 39.3596 321.669C41.493 314.336 43.6263 307.536 43.893 306.602C44.693 303.802 46.293 304.736 52.9596 312.336ZM256.426 313.802C256.426 314.869 255.76 315.402 255.093 315.002C254.293 314.469 254.026 313.536 254.426 312.869C255.626 311.002 256.426 311.402 256.426 313.802ZM665.893 321.936C669.36 325.536 675.36 331.002 679.36 334.336C687.76 341.402 701.493 355.402 703.226 358.602C703.893 359.936 703.893 361.136 703.226 361.536C701.226 362.869 697.893 360.869 696.96 357.936C696.426 356.336 694.56 353.936 692.56 352.336C687.76 348.602 674.16 336.602 668.026 330.602C663.093 325.936 656.693 315.669 658.56 315.669C659.093 315.669 662.293 318.469 665.893 321.936ZM253.093 318.202C253.493 318.869 253.226 319.802 252.426 320.336C251.76 320.736 251.093 320.202 251.093 319.136C251.093 316.736 251.893 316.336 253.093 318.202ZM881.493 331.669C885.093 343.269 889.093 361.002 891.226 373.936C894.16 392.736 898.16 441.402 898.16 459.002C898.16 471.802 894.826 507.536 892.426 519.669C888.826 537.936 886.693 547.136 885.626 549.269C884.96 550.602 884.426 552.469 884.426 553.536C884.426 558.069 881.093 556.736 873.893 549.402C869.76 545.136 864.56 539.269 862.426 536.336C857.093 529.136 856.826 529.002 848.426 529.936C841.226 530.602 775.36 528.469 752.693 526.869L741.493 525.936L742.293 521.802C745.226 507.002 748.293 467.136 748.293 441.402C748.426 422.736 746.426 405.002 742.56 391.002C741.493 387.269 740.026 380.069 739.093 375.002C738.16 369.802 735.893 361.669 734.16 356.736C732.56 351.802 731.093 346.869 731.093 345.669C731.093 343.936 736.96 343.802 780.16 344.336C807.093 344.736 832.96 345.269 837.626 345.669C844.693 346.202 846.426 345.802 848.293 343.802C853.76 337.402 874.293 320.869 876.16 321.269C877.493 321.536 879.493 325.402 881.493 331.669ZM249.76 323.402C249.76 325.002 246.026 329.802 245.36 329.002C244.293 327.936 246.826 322.336 248.426 322.336C249.093 322.336 249.76 322.869 249.76 323.402ZM243.093 331.936C243.093 332.869 241.226 335.536 239.093 337.936C236.826 340.336 235.093 342.736 235.093 343.269C235.093 343.936 232.96 346.602 230.293 349.136L225.36 353.669L230.293 346.736C232.96 342.869 235.093 339.402 235.093 339.002C235.093 337.536 240.96 330.336 242.026 330.336C242.56 330.336 243.093 331.136 243.093 331.936ZM225.76 355.402C225.76 355.936 222.96 359.136 219.493 362.336L213.226 368.336L218.16 362.469C220.826 359.136 223.093 356.069 223.093 355.402C223.093 354.869 223.76 354.336 224.426 354.336C225.226 354.336 225.76 354.869 225.76 355.402ZM573.093 362.336C591.36 367.802 600.16 371.402 606.826 375.936C610.293 378.336 614.293 380.069 616.026 379.936C618.426 379.802 618.96 380.469 619.36 384.069C619.626 387.136 620.426 388.336 622.16 388.202C624.56 387.936 624.693 389.802 624.826 429.669C624.826 437.669 623.493 456.736 622.426 464.336C622.16 466.469 621.493 472.069 621.093 476.602C620.693 481.136 619.093 488.336 617.626 492.602C616.16 496.869 614.026 504.469 612.96 509.536C611.76 515.536 609.493 520.869 606.693 524.869C604.293 528.202 600.56 535.269 598.56 540.602C596.426 545.802 592.96 552.069 590.826 554.336C588.293 557.269 587.226 559.402 587.76 561.136C588.426 563.269 587.093 564.469 585.226 563.269C584.16 562.602 579.226 569.936 578.56 573.402C578.16 575.402 577.493 578.469 577.093 580.336C575.76 586.602 574.426 585.802 550.293 563.136C544.96 558.069 538.16 552.336 535.226 550.469C532.426 548.602 523.093 542.336 514.56 536.736C506.16 531.002 497.226 525.536 494.96 524.336C491.493 522.469 490.96 521.669 491.76 518.602C492.293 516.602 493.093 514.736 493.76 514.336C497.093 512.336 497.626 505.802 496.16 486.202C494.96 471.669 494.026 465.536 492.56 464.069C491.093 462.469 490.56 458.602 490.56 446.869C490.56 432.069 490.693 431.669 494.16 428.869C496.16 427.402 497.626 425.136 497.493 423.936C496.693 419.536 502.426 422.469 508.96 429.802C513.626 435.002 518.426 438.602 525.893 442.469C536.026 447.536 536.826 447.669 549.893 447.669C562.293 447.669 564.16 447.269 571.76 443.536C576.426 441.269 583.093 436.336 587.226 432.202C593.626 425.669 594.96 425.002 600.026 425.002C609.36 425.002 607.76 421.402 594.16 412.336C572.16 397.802 563.626 394.336 548.293 394.336C534.96 394.336 524.16 398.336 507.093 409.669C504.56 411.402 500.826 413.269 498.826 413.669C495.76 414.469 495.093 414.202 495.093 412.202C495.093 409.802 504.293 401.002 506.693 401.002C507.36 401.002 509.893 399.269 512.426 397.269C520.293 391.002 527.36 387.402 537.093 384.869C553.226 380.602 565.493 381.936 575.76 389.002C578.693 391.002 584.16 394.202 587.76 396.202C591.493 398.069 597.226 401.802 600.826 404.336C606.826 408.869 607.093 408.869 607.093 406.069C607.093 402.336 597.226 393.136 592.16 392.069C590.16 391.669 588.16 390.202 587.626 388.736C587.226 387.269 584.693 385.269 582.16 384.069C579.493 383.002 576.56 381.269 575.493 380.336C574.426 379.269 571.093 377.669 568.026 376.736C564.16 375.669 560.293 372.869 555.493 367.802C551.626 363.669 548.426 360.336 548.426 360.336C548.426 359.536 569.36 361.269 573.093 362.336ZM530.426 363.669C530.96 364.469 529.493 365.002 527.226 365.002C524.96 365.002 523.093 364.336 523.093 363.669C523.093 362.869 524.56 362.336 526.293 362.336C528.16 362.336 530.026 362.869 530.426 363.669ZM709.226 365.936C711.893 369.536 711.36 370.602 708.426 367.669C706.96 366.202 705.76 364.736 705.76 364.336C705.76 362.869 707.493 363.802 709.226 365.936ZM548.426 365.536C548.426 365.802 547.226 366.336 545.76 366.736C544.293 367.136 543.093 366.869 543.093 366.202C543.093 365.536 544.293 365.002 545.76 365.002C547.226 365.002 548.426 365.269 548.426 365.536ZM686.826 379.536C695.093 387.536 701.76 394.736 701.76 395.536C701.76 396.336 703.493 397.802 705.626 398.869C707.626 399.936 710.426 402.869 711.626 405.269C712.96 407.669 715.36 411.669 717.226 414.202C718.96 416.736 720.426 419.536 720.426 420.602C720.426 424.736 715.626 421.136 707.493 411.002C702.826 405.136 695.76 397.002 691.893 393.002C687.893 389.002 684.426 385.002 684.293 384.202C684.026 383.269 680.56 379.269 676.826 375.136C670.16 367.936 668.426 365.002 670.826 365.002C671.493 365.002 678.693 371.536 686.826 379.536ZM384.426 411.136C384.426 411.536 383.76 413.002 383.093 414.469C381.36 417.669 376.96 417.802 375.226 414.602C373.76 411.936 374.693 409.802 377.76 408.736C379.76 408.069 384.426 409.802 384.426 411.136ZM255.893 412.602C254.56 413.936 253.36 411.936 254.56 410.202C255.36 408.736 255.626 408.736 256.16 410.202C256.426 411.136 256.293 412.202 255.893 412.602ZM569.493 412.869C570.16 417.136 566.426 420.069 562.96 418.202C561.493 417.536 560.426 415.802 560.426 414.602C560.426 408.602 568.693 407.136 569.493 412.869ZM339.626 413.936C342.026 418.736 349.226 425.402 354.693 428.202C360.026 430.869 369.76 431.002 375.76 428.336C378.426 427.269 383.76 423.402 387.76 419.536C394.693 413.002 395.36 412.736 398.426 414.336C403.76 417.136 402.693 421.269 394.826 428.336C386.56 435.669 380.16 439.136 371.226 441.136C358.826 443.802 342.96 437.402 332.693 425.669C327.893 420.336 327.36 416.469 330.693 412.736C333.76 409.269 337.36 409.802 339.626 413.936ZM656.56 416.469C657.226 421.402 661.626 437.002 664.693 445.669C666.826 451.669 667.493 457.002 666.293 457.002C664.693 456.869 660.426 447.402 660.426 443.936C660.426 442.469 659.893 440.869 659.36 440.469C658.693 440.069 657.493 436.336 656.56 432.069C655.626 427.802 654.426 422.469 653.626 420.202C651.893 414.469 652.026 410.069 654.16 410.602C654.96 411.002 656.16 413.536 656.56 416.469ZM525.36 421.536C533.093 429.402 543.626 433.802 551.493 432.602C562.16 431.002 569.76 427.802 573.36 423.669C580.96 414.469 581.226 414.469 585.893 418.202C590.026 421.536 588.826 423.536 578.293 431.936C568.826 439.536 560.426 442.336 547.893 442.336C540.293 442.336 536.826 441.536 530.426 438.469C516.426 431.802 506.16 419.802 510.693 415.269C513.36 412.469 518.826 414.736 525.36 421.536ZM668.426 422.869C668.426 423.536 669.226 425.136 670.293 426.202C671.36 427.402 672.96 431.402 673.893 435.002C674.826 438.736 676.56 444.069 677.76 447.002C679.093 449.936 680.56 453.802 680.96 455.669C681.493 457.536 682.426 460.202 683.093 461.669C688.96 475.669 696.426 499.536 696.426 504.336C696.426 505.402 696.96 506.336 697.626 506.336C698.293 506.336 699.36 508.336 699.76 510.602C700.293 513.002 701.893 517.402 703.226 520.202C704.693 523.136 705.76 526.869 705.76 528.736C705.76 530.469 706.293 532.869 706.96 534.202C707.626 535.402 707.76 537.269 707.226 538.069C705.76 540.469 701.093 530.736 692.693 508.336C690.426 502.469 688.293 496.202 687.76 494.336C687.226 492.469 686.026 489.136 684.96 487.002C682.693 481.936 679.36 472.469 677.626 466.336C672.426 448.602 669.226 438.069 666.96 432.336C665.626 428.602 664.426 423.536 664.426 421.002C664.56 416.602 664.56 416.469 666.426 418.869C667.493 420.336 668.426 422.069 668.426 422.869ZM250.56 426.469C248.693 430.736 248.56 430.736 248.426 427.536C248.426 425.669 249.093 423.536 250.026 422.602C252.426 420.202 252.693 421.536 250.56 426.469ZM237.76 433.002C237.76 433.669 236.56 437.802 235.226 441.936C233.893 446.202 231.626 454.202 230.426 459.536C229.093 465.002 227.626 470.469 227.093 471.536C225.36 475.269 221.493 486.869 220.426 491.669C219.893 494.202 218.826 497.802 218.026 499.669C216.56 503.002 216.56 503.002 216.56 498.736C216.426 496.469 216.96 494.202 217.626 493.802C218.293 493.402 219.226 489.136 219.76 484.469C220.56 476.869 224.96 461.002 228.293 453.669C228.96 452.202 229.893 448.202 230.426 444.736C230.826 441.402 232.16 437.802 233.093 437.002C234.16 436.069 235.093 434.469 235.093 433.536C235.093 432.469 235.76 431.669 236.426 431.669C237.226 431.669 237.76 432.202 237.76 433.002ZM247.226 438.602C246.16 440.202 244.96 443.136 244.293 445.002L243.36 448.336L243.226 445.136C243.093 440.069 246.026 432.736 247.626 434.336C248.56 435.269 248.426 436.602 247.226 438.602ZM686.426 446.336C688.96 449.402 693.76 463.936 693.626 468.469C693.493 472.336 693.493 472.336 690.96 467.002C689.626 464.069 688.426 459.669 688.426 457.269C688.426 455.002 687.893 453.002 687.226 453.002C685.76 453.002 683.093 445.536 683.226 441.802C683.36 439.136 683.493 439.136 684.026 441.669C684.426 443.136 685.493 445.269 686.426 446.336ZM676.426 485.136C676.426 485.936 675.893 486.069 675.093 485.669C674.426 485.269 673.76 484.202 673.76 483.536C673.76 482.736 674.426 482.602 675.093 483.002C675.893 483.402 676.426 484.469 676.426 485.136ZM265.893 492.869C267.76 493.136 271.093 503.002 271.093 508.069C271.093 511.269 271.76 514.469 272.56 515.269C273.36 516.069 273.626 517.536 273.093 518.336C271.76 520.469 258.693 519.402 255.893 517.136C252.96 514.736 253.226 506.602 256.426 499.402C259.493 492.336 260.026 491.802 262.826 492.336C264.026 492.602 265.493 492.869 265.893 492.869ZM489.226 496.336C492.16 500.869 490.96 508.736 486.826 511.936C485.093 513.269 483.226 514.069 482.426 513.802C481.093 513.402 481.36 496.202 482.693 493.936C483.893 491.936 487.093 493.136 489.226 496.336ZM434.426 495.936C436.293 496.736 437.76 498.469 437.76 499.669C437.76 501.002 438.16 504.736 438.56 508.202C439.493 514.336 439.493 514.336 435.493 514.336C429.893 514.336 426.426 510.069 426.56 503.536C426.693 500.736 427.493 497.402 428.426 496.336C430.426 493.936 430.16 493.936 434.426 495.936ZM659.626 514.336C661.76 521.669 661.493 522.736 655.893 524.736C648.293 527.536 648.026 527.269 649.093 516.602C649.626 511.402 650.693 505.802 651.36 504.469C652.693 502.069 652.826 502.069 655.226 505.136C656.693 506.869 658.56 511.002 659.626 514.336ZM153.493 510.336C159.626 510.336 160.693 510.736 162.026 513.536C162.826 515.402 163.093 517.802 162.56 519.136C161.76 521.136 157.36 521.269 105.36 520.869L49.093 520.336L38.9596 530.869C32.8263 537.402 28.293 541.002 27.3596 540.469C24.293 538.602 25.7596 535.136 32.1596 529.002C35.6263 525.536 40.9596 519.936 44.0263 516.602L49.6263 510.336L80.0263 510.202C96.693 510.069 116.693 509.669 124.426 509.136C132.16 508.736 140.16 508.736 142.426 509.269C144.56 509.936 149.626 510.336 153.493 510.336ZM213.893 513.402C212.826 514.469 212.426 514.336 212.426 512.869C212.426 510.202 214.16 508.336 214.826 510.336C215.226 511.269 214.693 512.602 213.893 513.402ZM708.426 512.336C708.426 513.402 707.893 514.336 707.093 514.336C706.426 514.336 706.16 513.402 706.56 512.336C707.093 511.269 707.626 510.336 707.893 510.336C708.16 510.336 708.426 511.269 708.426 512.336ZM696.56 536.202C701.76 551.536 701.893 566.336 696.826 551.936C694.693 545.936 689.76 526.469 689.76 523.669C689.76 519.536 692.826 525.136 696.56 536.202ZM165.36 531.136C167.493 531.536 168.826 533.402 170.293 538.069C173.493 548.336 181.893 570.869 183.093 572.336C184.16 573.802 192.96 589.936 199.626 603.002C201.893 607.402 204.826 612.069 206.16 613.536C207.36 615.002 208.426 617.269 208.426 618.602C208.426 619.936 208.96 621.002 209.626 621.002C211.36 621.002 217.76 631.269 217.76 634.202C217.76 635.669 218.293 637.002 218.96 637.269C219.626 637.402 220.56 640.336 220.96 643.669C221.226 647.002 221.626 649.936 221.626 650.202C221.76 650.469 222.56 649.936 223.493 649.136C224.56 648.336 225.76 648.069 226.16 648.602C227.626 649.936 227.226 659.669 225.893 659.669C224.293 659.669 222.693 654.736 223.76 653.002C224.16 652.336 224.026 651.669 223.36 651.669C221.626 651.669 220.56 656.736 221.226 662.069C221.76 667.002 219.093 669.136 215.76 666.336C214.16 665.002 214.026 664.336 215.626 662.069C219.093 657.269 215.36 651.936 211.36 655.936C210.16 657.136 208.826 656.869 205.76 654.602C203.626 653.002 201.226 651.669 200.56 651.669C199.893 651.669 199.093 650.336 198.826 648.736C198.293 645.136 193.76 643.669 193.76 647.002C193.76 649.536 196.826 653.002 198.96 653.002C199.76 653.002 200.426 654.469 200.426 656.469C200.426 659.002 201.493 660.202 205.093 661.802C209.093 663.402 209.76 664.336 209.493 667.402C209.226 669.802 209.76 671.002 211.093 671.136C215.76 671.536 216.426 671.802 216.426 673.536C216.426 674.602 215.093 675.669 213.493 675.936C210.693 676.336 210.693 676.469 212.96 678.736C216.426 682.069 219.493 681.002 221.093 675.936C222.426 671.269 226.16 670.069 227.626 673.802C228.693 676.469 227.36 681.002 225.76 681.002C223.226 681.002 221.626 686.202 223.093 689.136C224.026 690.602 224.96 693.402 225.226 695.269C225.626 697.269 227.093 700.202 228.426 702.069C231.893 706.336 231.76 707.669 227.893 707.669C226.16 707.669 223.893 706.336 222.693 704.602C218.16 698.069 211.626 692.069 209.76 692.736C208.693 693.002 206.426 694.602 204.826 696.069C202.16 698.469 201.76 698.469 200.96 696.469C199.893 693.802 195.626 693.669 194.56 696.336C192.693 701.269 187.226 696.736 186.96 690.069C186.96 688.336 185.893 685.136 184.56 683.002C182.293 679.269 181.76 679.002 172.693 678.602C167.36 678.336 163.093 677.802 163.093 677.136C163.093 675.269 170.56 669.002 172.693 669.002C174.026 669.002 175.093 670.336 175.36 671.936C175.626 673.669 176.826 675.136 178.16 675.402C179.893 675.802 180.426 674.869 180.426 671.402C180.426 667.802 179.626 666.469 176.56 664.602C171.36 661.536 164.96 661.669 162.16 665.002C159.36 668.202 157.893 668.336 153.76 665.402C149.893 662.736 144.826 661.936 143.626 663.936C142.96 664.869 143.493 665.136 144.826 664.602C146.293 664.069 147.093 664.469 147.093 665.802C147.093 666.869 147.626 667.536 148.293 667.002C149.093 666.602 150.293 667.536 151.093 669.002C152.426 671.536 152.16 671.669 145.626 671.669H138.826L139.36 667.669C139.893 664.202 139.626 663.669 136.826 663.669C134.96 663.669 132.426 664.336 130.96 665.136C128.826 666.202 128.56 666.869 129.893 668.469C130.693 669.536 132.16 670.336 133.093 670.336C134.026 670.336 135.226 671.269 135.626 672.469C136.026 673.536 135.893 674.202 135.36 673.802C134.693 673.402 133.226 674.336 132.026 675.669C127.76 680.736 119.093 680.869 119.093 675.802C119.093 674.469 118.16 673.002 117.093 672.469C115.626 671.936 115.093 672.602 115.093 675.002C115.093 679.136 111.626 679.536 110.426 675.536C109.76 673.402 108.826 673.002 105.76 673.669C103.36 674.202 100.426 673.669 97.893 672.469C94.9596 670.869 92.9596 670.736 90.5596 671.669C87.3596 672.869 87.093 672.602 87.093 669.136C87.093 667.136 85.893 664.336 84.4263 663.002C82.9596 661.669 81.7596 659.802 81.7596 658.736C81.7596 656.869 80.1596 656.469 78.693 657.802C78.293 658.336 79.7596 661.669 81.893 665.536C84.1596 669.269 86.5596 673.936 87.2263 675.802C88.293 678.602 89.2263 679.136 91.7596 678.602C93.6263 678.336 95.093 677.536 95.093 677.002C95.093 675.402 98.9596 674.336 99.7596 675.669C100.16 676.202 99.3596 677.802 98.1596 679.002C96.0263 681.269 96.0263 681.536 98.5596 683.536C100.56 685.136 101.093 686.469 100.293 688.336C99.6263 690.202 99.2263 690.336 99.093 689.002C98.9596 687.669 98.5596 687.802 97.893 689.669C96.9596 691.936 96.8263 691.936 95.893 688.602C95.493 686.602 94.1596 685.002 93.093 685.002C92.0263 685.002 91.093 684.336 91.093 683.669C91.093 682.869 90.0263 682.336 88.5596 682.336C86.1596 682.336 76.4263 668.736 74.4263 662.469C73.893 660.869 72.1596 658.069 70.293 656.336C68.5596 654.602 67.093 652.069 67.093 650.602C67.093 649.269 66.5596 647.669 65.893 647.002C65.093 646.202 62.4263 641.136 59.6263 635.669C56.9596 630.202 52.5596 621.802 49.7596 617.002C46.9596 612.202 43.893 605.002 43.093 601.002C42.1596 597.002 40.293 591.536 38.9596 589.002C37.6263 586.469 36.1596 582.202 35.7596 579.669C35.3596 577.136 34.0263 572.469 32.9596 569.269C29.7596 559.802 30.4263 557.269 38.1596 549.136C53.7596 532.602 55.3596 531.536 66.0263 530.336C75.6263 529.269 159.626 529.936 165.36 531.136ZM851.36 539.802C855.093 540.736 857.626 542.736 861.093 547.402C863.626 550.869 869.093 557.136 873.226 561.269C881.36 569.536 881.493 569.802 876.96 583.402C875.893 586.469 875.093 589.936 875.093 590.869C875.093 591.802 873.76 594.602 872.026 597.136C870.426 599.669 868.16 604.336 867.226 607.669C866.293 611.002 863.893 616.602 862.026 620.336C860.16 623.936 857.36 629.936 855.76 633.669C852.693 641.002 836.026 670.869 828.56 682.336C815.093 703.269 786.293 738.469 772.96 750.602C767.493 755.536 762.693 760.069 748.96 773.002C746.293 775.536 746.293 775.536 742.026 771.936C738.96 769.269 738.16 767.802 739.093 766.336C741.76 762.202 740.693 760.869 736.426 763.002C734.16 764.202 731.76 764.736 731.093 764.336C729.36 763.269 729.36 757.402 731.226 756.736C732.826 756.202 731.36 751.669 729.493 751.669C728.826 751.669 727.893 752.869 727.493 754.336C726.426 758.202 724.56 757.536 724.693 753.269C724.826 747.536 722.96 738.202 720.426 732.336C714.693 718.869 709.76 709.269 707.893 707.802C706.693 706.736 705.76 705.269 705.76 704.469C705.76 703.536 702.426 700.869 698.426 698.469C692.293 694.736 691.093 693.402 691.093 690.202C691.093 688.069 691.626 686.336 692.293 686.336C692.826 686.336 694.026 683.536 694.826 679.936C697.893 666.736 700.826 654.869 701.76 652.336C702.293 650.869 703.626 646.602 704.826 643.002C705.893 639.269 708.826 631.536 711.093 625.669C713.36 619.802 716.693 609.536 718.426 603.002C721.226 591.802 726.026 577.269 732.293 561.536C733.76 557.802 735.36 551.402 735.893 547.536C736.426 543.536 737.36 539.669 737.893 538.869C739.36 537.002 843.893 537.936 851.36 539.802ZM710.693 555.936C710.426 557.669 710.16 556.602 710.16 553.669C710.026 550.736 710.293 549.402 710.693 550.602C710.96 551.936 710.96 554.336 710.693 555.936ZM703.093 566.336C703.093 568.469 702.56 570.469 701.893 571.002C700.16 571.936 698.693 567.002 699.76 563.669C700.96 559.936 703.093 561.669 703.093 566.336ZM668.026 567.936C667.626 568.869 667.36 568.202 667.36 566.336C667.36 564.469 667.626 563.802 668.026 564.602C668.293 565.536 668.293 567.136 668.026 567.936ZM483.093 578.736C483.093 584.336 470.56 589.802 461.493 588.336C450.56 586.469 445.226 583.002 446.826 578.602C447.626 576.202 483.093 576.336 483.093 578.736ZM516.426 585.002C522.56 588.202 531.093 596.202 531.093 599.002C531.093 600.469 530.026 600.736 526.96 600.069L522.826 599.269L524.96 602.602C527.36 606.336 526.56 608.202 523.226 606.069C521.626 605.136 518.693 605.269 513.093 606.469C502.693 608.736 503.093 608.736 500.96 605.669C499.493 603.402 499.626 602.202 501.36 598.336C503.893 593.002 504.026 592.336 504.293 589.669C504.426 587.802 508.96 582.336 510.426 582.336C510.826 582.336 513.493 583.536 516.426 585.002ZM666.293 590.336C666.026 592.202 665.226 599.669 664.426 607.002C661.226 636.602 660.026 645.936 658.693 651.002C658.026 653.936 657.226 659.269 656.96 663.002C656.56 671.936 654.56 684.736 653.36 685.802C651.893 687.269 652.293 667.802 653.76 665.002C654.56 663.669 655.36 656.869 655.626 650.069C655.893 643.269 656.56 636.736 656.96 635.536C657.493 634.336 658.693 625.136 659.626 614.869C660.693 604.736 661.893 594.869 662.426 593.002C662.96 591.136 663.626 587.936 664.16 585.669C664.693 582.202 664.96 582.069 665.76 584.336C666.293 585.802 666.56 588.469 666.293 590.336ZM266.826 605.269C268.826 629.936 268.826 637.936 267.226 636.202C265.493 634.469 263.493 619.536 263.226 605.802C263.093 599.269 262.56 593.269 262.293 592.736C261.226 591.136 262.826 585.002 264.16 585.002C264.826 585.002 266.026 594.202 266.826 605.269ZM431.76 595.269L441.093 603.936L437.093 607.269C434.826 609.136 431.36 611.669 429.226 613.002C425.36 615.402 425.36 615.402 421.093 612.202C418.693 610.469 416.426 609.002 415.76 609.002C414.426 609.002 409.76 614.336 409.76 615.936C409.76 616.469 409.226 617.002 408.426 617.002C407.76 617.002 407.493 615.269 408.026 613.002C408.56 609.802 408.026 608.202 405.76 605.802C403.493 603.269 403.093 602.069 404.16 600.069C406.426 595.802 417.493 586.336 420.026 586.336C421.36 586.469 426.56 590.336 431.76 595.269ZM252.026 595.936C251.76 597.669 251.493 596.336 251.493 593.002C251.493 589.669 251.76 588.336 252.026 589.936C252.293 591.669 252.293 594.336 252.026 595.936ZM529.76 610.336C529.76 611.002 529.493 611.669 529.226 611.669C528.826 611.669 528.16 611.002 527.76 610.336C527.36 609.536 527.626 609.002 528.293 609.002C529.093 609.002 529.76 609.536 529.76 610.336ZM476.56 619.002C486.826 622.602 488.426 623.669 486.96 626.602C486.026 628.469 486.16 630.736 487.626 634.736C488.693 637.802 490.026 642.069 490.56 644.336C490.96 646.469 491.76 647.536 492.026 646.602C492.96 644.069 494.826 644.736 495.893 647.936C496.293 649.669 497.493 651.936 498.426 653.002C500.026 654.869 500.96 659.269 500.56 663.269C500.426 664.202 499.493 665.002 498.426 665.002C497.226 665.002 496.426 666.202 496.426 667.936C496.293 672.202 493.093 677.802 491.893 675.802C490.293 673.269 484.826 674.202 482.693 677.269L480.56 680.336V676.602C480.426 672.602 477.76 671.536 477.76 675.536C477.76 679.802 475.093 680.202 474.826 676.069C474.56 669.269 475.093 667.002 478.16 664.736C480.96 662.602 481.226 662.602 482.826 665.802C485.226 670.469 487.493 669.802 486.56 664.602C482.826 643.136 480.426 637.536 480.426 650.202C480.426 656.736 478.426 660.202 475.093 659.402C474.16 659.136 472.56 661.536 471.493 664.602C470.16 668.602 468.826 670.336 467.093 670.336C465.76 670.336 464.426 671.402 464.16 672.602C463.893 674.336 462.826 673.269 461.093 669.402C458.026 663.002 455.093 661.936 455.093 667.269C455.093 671.136 453.093 670.202 452.026 665.669C451.626 663.936 451.36 664.336 451.226 667.136C451.226 669.402 450.293 672.069 449.226 672.869C447.76 674.069 447.36 673.136 446.56 668.202C446.16 664.736 445.76 659.802 445.76 657.136C445.626 653.269 445.36 652.736 444.293 654.602C443.626 655.936 442.16 657.002 441.226 657.002C440.16 657.002 439.093 658.602 438.693 660.602C437.76 665.136 434.293 670.069 433.093 668.736C430.16 665.802 435.093 642.602 439.626 637.002C441.893 634.336 445.226 625.936 444.693 624.336C444.426 623.536 444.56 623.402 445.093 623.802C445.493 624.336 447.493 623.269 449.226 621.669C454.56 616.736 466.693 615.536 476.56 619.002ZM650.693 631.936C650.293 632.869 650.026 632.202 650.026 630.336C650.026 628.469 650.293 627.802 650.693 628.602C650.96 629.536 650.96 631.136 650.693 631.936ZM648.026 644.602C647.626 645.936 647.36 645.136 647.36 643.002C647.36 640.736 647.626 639.802 648.026 640.602C648.293 641.536 648.293 643.402 648.026 644.602ZM615.093 659.269C615.093 663.536 614.56 673.936 613.893 682.336C613.226 690.736 612.16 706.602 611.76 717.669C611.226 728.602 610.56 738.069 610.293 738.469C610.026 739.002 609.226 767.136 608.426 801.136C607.493 848.202 606.693 863.136 605.493 863.936C604.56 864.602 596.56 864.736 587.76 864.336C578.96 863.936 552.426 864.069 528.826 864.602C493.226 865.536 485.493 866.069 483.893 867.669C482.693 868.869 481.493 873.536 480.96 879.402C480.16 887.936 479.626 889.136 477.093 889.802C473.226 890.736 434.426 889.402 422.426 887.802C417.36 887.136 409.76 885.402 405.76 883.936C401.76 882.469 393.626 880.869 387.76 880.336C377.36 879.536 369.093 878.602 350.693 875.802C342.16 874.469 333.76 871.002 333.76 868.736C333.76 867.269 338.96 864.202 346.426 861.669C352.96 859.269 371.093 846.869 371.093 844.736C371.093 844.069 373.76 842.469 376.96 841.002C382.56 838.736 393.76 828.736 393.76 826.202C393.76 825.669 397.76 821.802 402.826 817.536C407.76 813.402 412.426 808.869 413.093 807.536C415.093 803.936 439.093 782.602 443.226 780.736C445.093 779.936 447.626 777.669 448.693 775.669C449.893 773.669 457.226 767.669 465.093 762.202C473.76 756.336 480.56 750.736 482.16 748.069C483.493 745.669 485.226 743.669 486.026 743.669C488.426 743.669 495.093 749.136 495.093 751.136C495.093 752.202 496.293 753.002 497.893 753.002C501.493 753.002 514.16 747.669 515.493 745.536C516.026 744.602 520.426 741.002 525.493 737.536C530.426 733.936 536.826 728.869 539.76 726.202C542.693 723.536 546.026 720.869 547.226 720.202C552.96 717.136 587.893 684.069 591.36 678.469C592.826 676.069 597.36 670.336 601.36 665.802C605.36 661.402 609.226 656.336 609.893 654.602C610.426 653.002 611.893 651.669 613.093 651.669C614.693 651.669 615.093 653.402 615.093 659.269ZM234.693 674.602C234.293 675.669 233.893 675.269 233.893 673.802C233.76 672.336 234.16 671.536 234.56 672.069C234.96 672.469 235.093 673.669 234.693 674.602ZM111.093 682.469C112.026 684.202 113.36 684.869 114.693 684.469C117.493 683.269 121.76 684.736 121.76 686.869C121.76 687.802 120.293 689.269 118.426 690.069C116.426 691.002 115.093 691.136 115.093 690.336C115.093 689.536 114.293 689.002 113.36 689.002C111.493 689.002 104.426 682.336 104.426 680.602C104.426 678.469 109.76 679.936 111.093 682.469ZM653.36 695.269C652.96 696.602 652.693 695.802 652.693 693.669C652.693 691.402 652.96 690.469 653.36 691.269C653.626 692.202 653.626 694.069 653.36 695.269ZM220.426 710.736C220.426 711.002 219.226 711.136 217.76 711.136C216.293 711.136 215.093 710.336 215.093 709.402C215.093 707.936 215.76 707.936 217.76 709.002C219.226 709.802 220.426 710.602 220.426 710.736ZM643.093 710.869C643.093 711.269 642.56 711.936 641.76 712.336C641.093 712.736 640.426 712.469 640.426 711.802C640.426 711.002 641.093 710.336 641.76 710.336C642.56 710.336 643.093 710.602 643.093 710.869ZM221.093 715.536C220.693 716.336 219.626 717.002 218.96 717.002C218.293 717.002 218.426 716.202 219.36 715.136C221.226 713.002 222.56 713.402 221.093 715.536ZM258.693 749.269C258.293 750.336 257.893 749.936 257.893 748.469C257.76 747.002 258.16 746.202 258.56 746.736C258.96 747.136 259.093 748.336 258.693 749.269ZM254.426 750.336C254.826 751.002 254.293 751.669 253.093 751.669C251.893 751.669 251.36 751.002 251.76 750.336C252.16 749.536 252.826 749.002 253.093 749.002C253.36 749.002 254.026 749.536 254.426 750.336ZM877.626 876.469C881.226 881.002 881.226 884.602 877.626 885.669C875.093 886.469 875.093 886.736 877.226 888.336C879.493 889.936 879.36 890.069 876.693 891.536C872.693 893.669 844.426 893.402 841.493 891.136C840.16 890.202 839.093 889.136 839.093 888.869C839.093 888.469 843.76 888.469 849.493 888.602C861.76 889.002 873.76 887.802 873.76 886.202C873.76 885.536 865.093 885.136 854.56 885.269C835.893 885.536 831.093 884.602 831.093 880.869C831.093 878.869 836.826 878.069 839.893 879.802C842.293 881.002 843.893 881.002 846.16 880.069C847.893 879.269 853.493 878.736 858.56 878.869C863.626 879.002 869.626 878.736 871.76 878.202C874.693 877.536 873.226 877.136 865.76 876.869C846.693 876.202 844.426 875.802 851.093 874.336C853.626 873.802 860.026 873.269 865.36 873.136C874.16 873.002 875.093 873.269 877.626 876.469ZM515.093 875.669C515.093 876.336 513.493 877.802 511.493 878.869C508.293 880.469 507.36 880.469 504.026 878.869C502.026 877.802 500.693 876.336 501.093 875.669C502.16 873.936 515.093 873.936 515.093 875.669ZM529.093 875.669C528.026 877.402 523.093 877.402 520.426 875.669C518.96 874.736 520.026 874.336 524.16 874.336C527.626 874.336 529.626 874.869 529.093 875.669ZM690.693 875.136C689.76 876.069 676.426 876.069 675.36 875.136C674.96 874.736 678.426 874.336 683.093 874.336C687.76 874.336 691.226 874.736 690.693 875.136ZM725.76 876.469C725.76 877.669 726.96 878.869 728.426 879.269C733.76 880.602 730.96 881.936 720.826 882.869C705.093 884.202 693.093 883.802 691.36 882.069C690.293 881.002 689.76 881.002 689.76 881.936C689.76 883.802 633.093 882.869 629.493 880.869C625.893 879.002 626.56 877.402 631.36 876.469C634.293 875.936 636.16 876.202 637.093 877.269C638.16 878.602 647.76 879.002 679.76 878.869C726.693 878.736 725.36 878.736 723.76 877.136C722.96 876.336 718.56 875.536 713.76 875.269L705.093 874.869L715.493 874.602C724.16 874.336 725.76 874.736 725.76 876.469ZM807.093 877.002C807.093 877.669 806.56 878.336 805.76 878.336C805.093 878.336 804.426 877.669 804.426 877.002C804.426 876.202 805.093 875.669 805.76 875.669C806.56 875.669 807.093 876.202 807.093 877.002ZM830.693 877.802C830.293 878.202 829.093 878.336 828.16 877.936C827.093 877.536 827.493 877.136 828.96 877.136C830.426 877.002 831.226 877.402 830.693 877.802ZM536.693 881.269C535.493 882.469 534.693 882.469 533.493 881.269C532.293 880.069 532.56 879.669 535.093 879.669C537.626 879.669 537.893 880.069 536.693 881.269ZM812.426 881.002C812.426 881.669 812.16 882.336 811.893 882.336C811.493 882.336 810.826 881.669 810.426 881.002C810.026 880.202 810.293 879.669 810.96 879.669C811.76 879.669 812.426 880.202 812.426 881.002ZM352.16 888.469C361.226 890.202 368.96 891.669 369.226 891.669C369.493 891.669 369.76 892.202 369.76 893.002C369.76 893.669 368.293 894.336 366.56 894.336C364.693 894.336 362.56 895.669 361.226 897.669C360.026 899.536 357.76 901.002 356.026 901.136C354.426 901.136 353.893 901.536 354.826 901.936C358.16 903.269 356.293 905.002 351.093 905.002C347.76 905.002 344.16 906.202 340.96 908.336C338.16 910.202 333.76 912.069 330.96 912.469C328.16 913.002 325.626 914.069 325.226 915.136C324.293 917.536 316.293 921.402 314.96 920.069C314.293 919.402 313.626 911.536 313.493 902.602C313.226 889.269 313.493 886.069 315.093 884.869C317.76 883.136 331.893 884.469 352.16 888.469ZM545.893 889.136C550.826 891.669 548.293 892.336 534.426 892.069C512.693 891.802 512.56 888.469 534.293 887.936C539.226 887.802 544.56 888.336 545.893 889.136ZM687.36 890.469C688.693 891.269 689.76 891.136 690.026 890.069C690.426 889.002 697.093 888.602 712.56 888.736C739.76 888.869 738.026 888.736 737.493 890.469C737.093 891.536 723.226 892.202 690.026 892.736C651.493 893.269 642.693 893.002 640.826 891.536C638.96 889.936 639.493 889.536 645.893 889.002C655.626 887.936 684.56 889.136 687.36 890.469ZM625.093 890.336C625.493 891.002 625.226 891.669 624.56 891.669C623.76 891.669 623.093 891.002 623.093 890.336C623.093 889.536 623.36 889.002 623.626 889.002C624.026 889.002 624.693 889.536 625.093 890.336ZM825.093 890.469C826.693 893.002 824.426 893.536 822.16 891.269C820.026 889.136 820.026 889.002 822.026 889.002C823.226 889.002 824.693 889.669 825.093 890.469ZM402.16 894.469C405.226 898.336 404.96 903.269 401.493 906.469C399.76 907.936 394.426 913.002 389.493 917.669C384.693 922.336 378.693 927.136 376.16 928.336C373.76 929.669 370.56 931.802 369.093 933.136C367.626 934.602 363.76 937.536 360.426 939.669C349.893 946.469 316.426 976.736 316.426 979.536C316.426 980.069 314.293 982.069 311.76 983.802C309.226 985.536 306.826 988.469 306.426 990.336C304.693 997.936 291.36 1007 285.36 1004.6C281.093 1003 286.426 989.936 295.76 979.002C298.826 975.269 302.56 970.336 304.026 967.936C305.626 965.402 308.026 962.602 309.626 961.536C311.093 960.469 312.426 959.002 312.426 958.202C312.426 954.869 335.493 935.269 359.093 918.469C363.226 915.669 367.36 912.336 368.293 911.136C369.226 909.936 370.826 909.002 371.76 909.002C373.76 909.002 381.36 900.602 383.36 896.202C386.16 890.069 397.493 889.002 402.16 894.469ZM459.093 900.869C463.893 901.536 469.626 902.602 471.76 903.269C475.493 904.469 475.626 904.602 472.826 905.536C470.56 906.336 469.893 907.802 469.226 914.069C468.826 918.202 468.426 923.136 468.426 925.002C468.426 926.869 467.76 932.336 467.093 937.269C466.16 943.002 466.293 951.802 467.093 962.602C468.693 982.336 469.093 1023 467.76 1027.67C466.426 1031.94 465.76 1098.2 467.093 1101.54C467.493 1102.87 467.226 1108.2 466.16 1113.27C464.56 1121.8 464.693 1122.74 467.093 1127.4C470.026 1132.74 470.426 1135.8 468.56 1137.8C466.16 1140.2 466.826 1208.34 469.36 1226.34C470.293 1232.2 470.026 1278.47 469.093 1290.34C468.56 1297.54 466.026 1299.67 461.226 1297C458.293 1295.54 457.493 1295.54 455.493 1297.27C454.16 1298.47 450.56 1299.4 447.493 1299.4C442.96 1299.54 441.226 1298.87 439.093 1296.07C437.626 1294.07 436.56 1291.8 436.826 1291C437.226 1290.2 436.96 1284.2 436.293 1277.67C435.76 1271 435.093 1256.34 435.093 1245C434.96 1225.4 431.226 1139.27 428.426 1089C427.76 1076.2 426.16 1043.27 424.826 1016.07C423.626 988.736 422.426 966.602 422.16 966.869C421.893 967.002 421.36 979.802 420.96 995.136C419.893 1030.87 419.893 1031.27 418.693 1032.47C418.16 1033 416.56 1032.2 415.226 1030.74C410.56 1025.8 402.693 1021.8 398.426 1022.07C396.293 1022.34 393.36 1021.67 391.893 1020.6C389.893 1019.14 389.626 1018.34 390.96 1015.94C393.493 1011.27 392.693 1010.47 384.426 1008.87C379.493 1007.94 375.093 1006.07 373.093 1004.2C371.226 1002.47 368.026 1000.74 366.026 1000.2C364.026 999.802 361.76 999.269 360.96 999.002C358.96 998.469 357.36 983.536 358.826 979.536C359.493 977.802 359.76 975.669 359.493 974.869C359.226 974.069 359.626 971.802 360.293 969.936C361.893 965.669 365.093 965.002 363.76 969.136C363.093 971.002 363.76 972.869 365.893 975.136C368.826 978.336 368.96 978.602 366.826 982.736C360.826 994.602 365.626 994.202 377.36 981.669C381.893 976.869 386.16 973.002 386.826 973.002C387.626 973.002 388.426 972.069 388.96 971.002C389.36 969.669 388.56 968.736 386.293 968.202C383.76 967.536 383.093 966.602 383.493 964.869C384.026 963.002 383.093 961.669 380.293 960.336C375.093 957.536 375.36 955.002 381.893 949.269C384.96 946.602 390.56 941.136 394.293 937.269C400.293 930.869 401.226 930.469 402.693 932.469C403.626 933.669 404.026 935.269 403.626 935.802C403.226 936.469 403.626 937.002 404.293 937.002C406.426 937.002 406.026 943.269 403.893 944.069C402.96 944.469 401.76 946.736 401.226 949.269C400.693 951.669 399.893 953.002 399.36 952.336C398.56 951.136 396.16 950.869 391.093 951.536C388.026 951.936 389.893 955.669 393.093 955.669C395.093 955.669 396.426 956.469 396.426 957.536C396.426 959.936 392.826 961.269 389.36 960.202C386.826 959.402 386.693 959.536 388.693 961.536C389.893 962.602 391.093 964.336 391.493 965.269C392.426 967.936 398.826 961.269 401.76 954.736C403.093 951.536 404.96 949.002 405.626 949.002C406.426 949.002 407.093 947.802 407.093 946.469C407.093 945.002 407.76 943.402 408.426 943.002C411.226 941.269 414.026 934.069 412.56 932.602C411.493 931.536 410.693 931.536 409.493 932.736C406.826 935.402 405.76 934.602 405.76 929.802C405.76 924.869 410.693 915.802 413.493 915.669C415.36 915.669 415.626 921.802 413.76 923.002C411.626 924.336 412.293 928.736 414.826 930.602C416.693 931.936 417.76 935.669 419.093 945.002C422.026 965.936 422.826 965.402 422.96 942.736C423.093 928.736 422.56 920.869 421.626 920.336C420.693 919.669 420.56 917.402 421.226 913.802C421.76 910.869 422.026 906.736 421.893 904.602C421.76 901.936 422.56 900.602 424.693 899.669C427.76 898.336 442.826 898.869 459.093 900.869ZM511.893 902.469C512.293 903.269 512.026 904.602 511.226 905.402C510.026 906.602 509.36 906.469 508.426 905.002C507.76 903.936 507.093 902.602 507.093 901.936C507.093 900.469 510.826 900.869 511.893 902.469ZM495.093 905.536C495.093 905.936 494.56 906.602 493.76 907.002C493.093 907.402 492.426 907.136 492.426 906.469C492.426 905.669 493.093 905.002 493.76 905.002C494.56 905.002 495.093 905.269 495.093 905.536ZM880.16 907.936C882.426 910.202 882.293 932.202 879.893 934.202C878.96 935.002 874.96 935.402 870.293 935.136C866.026 934.869 859.093 934.602 855.093 934.469C845.36 934.336 844.16 932.469 845.36 919.002L846.16 909.002L852.96 908.869C856.693 908.736 861.226 908.202 863.093 907.669C868.293 906.069 878.426 906.202 880.16 907.936ZM515.093 923.002V935.002L512.426 931.669C509.493 927.936 509.093 926.336 511.093 926.336C511.893 926.336 512.426 924.869 512.426 923.002C512.426 921.136 511.893 919.669 511.093 919.669C510.426 919.669 509.76 920.869 509.76 922.336C509.76 923.802 509.226 925.002 508.56 925.002C506.693 925.002 505.36 920.069 506.693 918.069C507.226 917.136 507.493 915.269 507.36 913.936C506.693 909.936 509.493 907.536 512.56 909.402C514.693 910.736 515.093 912.602 515.093 923.002ZM566.293 910.202C567.76 911.936 568.826 915.936 569.36 922.069C570.293 933.802 570.026 933.936 550.826 934.202L536.426 934.336V923.536C536.426 908.069 536.56 907.936 551.493 907.802C562.16 907.669 564.426 908.069 566.293 910.202ZM504.426 912.602C504.426 913.269 503.893 914.469 503.226 915.402C502.293 916.869 502.026 916.869 501.36 915.269C500.96 914.202 500.96 912.869 501.36 912.469C502.56 911.402 504.426 911.536 504.426 912.602ZM751.76 917.936C754.293 921.536 756.426 925.536 756.426 927.136C756.426 929.536 755.493 930.069 748.693 930.736C740.826 931.536 735.626 930.869 732.826 928.736C730.826 927.136 733.76 919.269 738.026 914.736C742.56 909.802 746.426 910.736 751.76 917.936ZM686.693 915.936C688.426 917.536 689.76 919.402 689.76 920.069C689.76 920.869 690.693 922.602 692.026 923.936C693.36 925.402 693.626 926.336 692.56 926.336C691.76 926.336 691.093 927.402 691.36 928.602C691.626 930.469 690.826 931.002 688.16 930.869C676.56 930.602 672.693 930.202 670.693 928.602C668.693 927.136 669.093 926.336 674.826 920.069C678.293 916.202 681.626 913.002 682.293 913.002C683.093 913.002 684.96 914.336 686.693 915.936ZM810.026 917.936C818.826 926.602 816.026 931.136 803.093 929.669C796.426 928.869 794.693 928.202 793.893 925.802C792.426 922.069 794.693 917.269 798.96 915.002C803.893 912.336 804.426 912.469 810.026 917.936ZM628.96 920.202C634.56 926.869 634.693 928.069 631.093 931.936C628.826 934.469 628.026 934.602 625.226 933.136C622.96 931.802 621.36 931.802 619.493 932.736C616.693 934.202 611.626 933.536 608.826 931.269C605.626 928.869 606.96 924.069 612.426 919.136C619.626 912.602 623.093 912.869 628.96 920.202ZM714.96 950.602C715.626 952.336 717.76 955.136 719.626 956.869C721.493 958.736 723.093 960.869 723.093 961.669C723.093 962.469 725.76 966.736 729.093 971.136C742.026 988.336 746.826 995.402 757.36 1012.74C760.56 1017.8 766.026 1025.54 769.493 1029.8C773.093 1034.2 780.16 1043.94 785.226 1051.67C790.16 1059.4 798.426 1071.4 803.626 1078.47C808.826 1085.54 815.893 1095.27 819.36 1100.07L825.76 1108.74L824.56 1120.07C823.76 1128.6 822.693 1132.47 820.426 1135.27C816.693 1139.94 806.293 1152.07 795.226 1164.2C790.56 1169.4 784.426 1177.27 781.626 1181.67C778.693 1186.07 773.893 1192.34 770.693 1195.67C765.093 1201.67 758.96 1209 751.093 1219C748.693 1221.94 746.426 1224.6 745.893 1225C745.36 1225.4 743.626 1227.54 742.026 1229.94C738.026 1235.67 734.293 1236.6 730.56 1233.14C728.693 1231.4 726.693 1230.74 724.693 1231.27C719.493 1232.6 721.226 1228.07 729.093 1219.94C740.293 1208.34 742.293 1206.07 745.626 1201C747.36 1198.47 749.493 1195.67 750.293 1195C751.226 1194.2 756.026 1188.2 761.093 1181.67C766.16 1175 772.96 1167.27 776.026 1164.2C779.226 1161.14 781.76 1158.2 781.76 1157.67C781.76 1157 782.96 1155.27 784.293 1153.8C785.76 1152.2 788.293 1149.14 790.026 1146.74C796.56 1137.54 806.293 1125.67 807.36 1125.14C809.893 1124.2 811.093 1118.34 809.493 1114.6C808.16 1111.8 798.56 1097.8 792.16 1089.67C781.093 1075.4 761.893 1049 749.226 1030.47C744.026 1022.87 736.426 1011.8 732.293 1005.8C728.16 999.936 722.56 991.669 719.893 987.669C717.093 983.669 713.893 979.802 712.826 979.136C709.893 977.536 704.56 981.936 699.76 989.936C695.893 996.336 686.293 1008.74 676.293 1020.2C673.626 1023.14 669.36 1029 666.693 1033C664.026 1037 660.293 1042.47 658.426 1045C654.96 1049.67 651.893 1053.94 644.826 1064.34C642.826 1067.27 638.96 1072.34 636.426 1075.67C633.76 1079 628.693 1086.07 625.36 1091.27C621.893 1096.6 618.56 1101 617.893 1101C617.226 1101 616.293 1102.07 615.893 1103.27C615.493 1104.6 612.693 1108.34 609.76 1111.54C606.826 1114.74 604.426 1118.07 604.426 1119.14C604.426 1120.07 607.493 1124.47 611.093 1128.87C614.826 1133.27 617.76 1137.27 617.76 1137.67C617.76 1138.2 619.493 1139.94 621.626 1141.8C623.893 1143.67 627.093 1148.34 628.96 1152.34C630.826 1156.34 634.16 1161.54 636.293 1163.94C638.56 1166.34 640.826 1169.4 641.226 1170.6C641.626 1171.94 642.56 1173 643.226 1173C643.893 1173 644.426 1173.67 644.426 1174.47C644.426 1175.27 647.626 1179.14 651.493 1183C661.626 1193.27 667.093 1199.94 667.893 1203.14C668.293 1204.74 670.026 1206.6 671.893 1207.54C675.76 1209.27 676.16 1213 672.426 1213C670.026 1213 669.893 1213.4 671.093 1215.67C672.426 1218.07 672.16 1218.34 668.56 1218.34C665.893 1218.34 663.76 1217.27 662.026 1215C660.56 1213.14 658.693 1211.67 657.893 1211.67C657.093 1211.67 656.426 1211.27 656.426 1210.6C656.426 1210.07 654.693 1207.8 652.693 1205.54C644.96 1196.6 638.293 1188.6 636.426 1185.8C635.36 1184.2 632.826 1181.27 630.826 1179.14C628.693 1177 627.093 1174.47 627.093 1173.54C627.093 1172.47 626.16 1171.67 625.093 1171.67C624.026 1171.67 623.093 1171.14 623.093 1170.34C623.093 1169.14 606.56 1146.47 602.693 1142.34C597.093 1136.34 588.293 1124.6 585.76 1119.67C582.693 1113.54 582.293 1114.6 590.693 1103.4C597.493 1094.47 611.626 1076.34 613.093 1074.87C613.76 1074.07 615.893 1071.4 617.76 1069C619.626 1066.6 623.76 1061.14 627.093 1056.87C630.426 1052.6 635.76 1045.27 639.093 1040.34C642.426 1035.54 646.56 1029.94 648.293 1027.94C655.226 1020.34 671.893 999.269 675.76 993.536C682.56 983.269 702.826 956.069 704.426 955.002C705.226 954.469 706.426 952.602 707.093 950.869C708.693 946.736 713.36 946.602 714.96 950.602ZM681.493 953.669C684.16 956.202 679.493 965.936 672.693 972.202C669.76 975.002 666.293 979.402 665.093 981.936C663.893 984.469 661.493 987.136 659.76 987.936C657.893 988.736 655.893 991.402 655.093 993.802C654.16 996.336 652.693 998.336 651.626 998.336C650.693 998.336 649.493 999.802 648.96 1001.54C648.56 1003.27 645.893 1007 642.96 1009.8C640.16 1012.6 637.76 1015.54 637.76 1016.34C637.76 1017.14 636.026 1019.67 633.76 1022.07C631.626 1024.47 629.76 1027.27 629.76 1028.07C629.76 1029 627.36 1032.07 624.56 1035.14C621.626 1038.07 616.96 1044.07 614.16 1048.47C608.16 1057.67 604.96 1061.4 600.56 1063.67C596.426 1065.8 594.96 1063.54 596.56 1057.94C597.093 1055.8 597.226 1053 596.56 1051.8C596.026 1050.6 595.36 1041.8 595.226 1032.34C595.093 1022.74 594.693 1012.6 594.293 1009.67C593.893 1006.74 593.493 994.336 593.226 982.069C593.093 967.002 592.426 959.269 591.36 957.936C588.96 955.002 592.96 951.269 597.626 952.202C599.493 952.602 603.76 952.336 607.093 951.802C616.693 950.069 679.36 951.669 681.493 953.669ZM822.293 954.202C823.76 955.536 824.293 957.136 823.76 959.269C823.36 961.002 823.626 962.336 824.426 962.336C825.226 962.336 825.626 962.736 825.36 963.269C823.36 966.469 822.293 1007.14 823.76 1019.67C824.16 1023 823.76 1029.54 822.693 1034.2C821.493 1040.2 821.226 1045 822.026 1050.34C823.36 1059 821.893 1066.74 818.96 1067.4C817.893 1067.54 813.626 1062.47 808.426 1054.74C803.626 1047.54 798.293 1039.94 796.293 1037.67C794.426 1035.54 792.56 1032.74 792.16 1031.67C791.093 1028.87 774.16 1003.8 770.293 999.402C768.56 997.402 767.093 994.736 767.093 993.669C767.093 991.802 766.426 990.736 760.56 984.069C759.226 982.602 757.626 979.936 757.093 978.469C756.693 976.869 754.426 973.669 752.293 971.269C750.16 969.002 748.026 965.669 747.626 964.202C747.226 962.602 745.493 960.736 743.76 959.936C741.626 958.869 740.96 957.669 741.36 955.402L741.893 952.336H780.96C812.826 952.336 820.426 952.736 822.293 954.202ZM568.426 983.402C568.426 1003 565.76 1005.4 554.826 995.669C547.226 989.002 546.293 985.936 550.693 982.069C552.426 980.336 556.16 976.736 558.693 973.936C561.36 971.269 564.56 969.002 566.026 969.002C568.16 969.002 568.426 970.336 568.426 983.402ZM856.293 971.002C858.426 972.069 860.426 973.802 860.826 975.002C861.36 976.069 862.56 977.002 863.626 977.002C865.76 977.002 868.826 982.069 870.293 987.802C870.96 990.736 870.16 992.202 865.893 996.069C860.16 1001.27 853.76 1005 850.56 1005C849.36 1005 847.493 1003.14 846.293 1000.87C842.693 993.669 845.893 969.002 850.693 969.002C851.76 969.002 854.293 969.936 856.293 971.002ZM347.893 986.602C347.76 991.136 347.093 995.002 346.293 995.269C345.626 995.536 343.893 993.269 342.56 990.202C340.16 984.869 340.16 984.736 343.226 981.536C344.826 979.802 346.693 978.336 347.226 978.336C347.76 978.336 348.16 982.069 347.893 986.602ZM711.76 993.936C712.56 996.069 714.026 1010.74 714.026 1017.67C714.293 1040.74 712.16 1096.34 710.96 1098.47C709.093 1102.2 710.56 1107.67 713.493 1107.67C714.693 1107.67 719.626 1103.4 724.293 1098.34L732.693 1088.87L754.293 1089.8C766.026 1090.34 777.093 1091.27 778.693 1091.8C780.293 1092.34 782.693 1094.87 783.893 1097.27C785.093 1099.67 788.426 1105.14 791.226 1109.4C796.96 1118.07 797.626 1120.74 794.16 1121.8C792.826 1122.2 790.693 1123.14 789.226 1123.94C787.76 1124.6 786.426 1124.74 785.893 1124.07C785.493 1123.4 776.693 1122.74 766.426 1122.6C756.16 1122.34 745.36 1121.67 742.56 1121C736.693 1119.67 720.693 1120.74 719.626 1122.47C718.826 1123.8 725.893 1133 727.626 1133C728.293 1133 731.093 1135.4 733.893 1138.47C738.16 1143.14 738.693 1144.47 737.76 1147.14C737.093 1148.87 735.893 1150.34 735.36 1150.34C734.026 1150.34 721.493 1138.34 718.826 1134.47C717.76 1133 715.893 1131.67 714.426 1131.4C711.893 1131 711.76 1131.94 711.626 1163.67C711.493 1181.67 710.96 1201.4 710.56 1207.67C710.16 1213.94 709.76 1221 709.76 1223.27C709.893 1231.8 705.76 1229.14 689.36 1209.94L679.493 1198.34L678.426 1173.8C677.893 1158.2 678.026 1148.34 678.826 1146.87C679.626 1145.4 683.893 1139.8 688.293 1134.34C692.826 1128.87 696.426 1123.94 696.426 1123.4C696.426 1122.87 679.493 1122.34 658.826 1122.34C638.026 1122.34 619.76 1121.94 618.16 1121.54C614.16 1120.47 614.293 1117.67 618.56 1113.27C620.426 1111.27 624.56 1105.67 627.76 1100.87C631.093 1095.94 634.426 1091.4 635.36 1090.74C636.293 1089.94 645.76 1089 656.426 1088.47C670.56 1087.8 676.293 1087 677.76 1085.54C679.226 1084.07 679.626 1080.2 679.36 1066.6C678.826 1043 680.16 1029.94 683.093 1026.07C696.826 1008.87 701.893 1002.07 704.96 997.269C708.826 991.136 710.293 990.469 711.76 993.936ZM332.96 1011.14C348.293 1015 365.36 1021.4 383.893 1030.34C391.226 1033.8 399.76 1037.14 402.693 1037.67C409.493 1038.74 412.826 1042.2 411.76 1046.74C411.093 1049 409.76 1050.34 406.826 1050.87C404.693 1051.27 402.16 1051.27 401.493 1050.87C400.693 1050.34 398.293 1049.54 395.893 1049C391.36 1047.8 370.693 1040.47 366.426 1038.47C355.226 1033.27 347.893 1030.47 342.96 1029.67C339.76 1029.14 335.493 1027.94 333.626 1026.87C331.226 1025.67 324.16 1025 312.96 1024.74C294.426 1024.47 292.426 1024.87 267.36 1034.2C261.226 1036.47 255.626 1038.34 254.96 1038.34C252.96 1038.34 253.626 1033.54 256.16 1031.27C265.36 1022.6 270.026 1019.8 279.76 1016.6C304.16 1008.87 318.293 1007.4 332.96 1011.14ZM722.16 1017C722.96 1018.07 722.16 1017.67 720.56 1016.2C718.426 1014.2 717.76 1012.6 718.56 1011.54C719.493 1010.07 719.76 1010.34 720.16 1012.34C720.426 1013.8 721.36 1015.94 722.16 1017ZM508.826 1025.8C513.36 1031.27 512.826 1033.27 508.293 1028.74C502.693 1023.27 501.093 1021 503.226 1021C504.293 1021 506.826 1023.14 508.826 1025.8ZM721.76 1033.4C721.76 1035.94 719.36 1041.4 718.96 1039.67C718.96 1039.27 718.56 1037.54 718.293 1035.67C718.026 1033.94 718.026 1031.67 718.426 1030.6C719.36 1028.07 721.76 1029.94 721.76 1033.4ZM333.493 1041.4C341.626 1044.74 355.093 1053 366.96 1061.94C370.693 1064.74 374.293 1066.34 376.96 1066.34C382.16 1066.34 387.093 1069.67 387.093 1073C387.093 1076.07 382.293 1079.67 378.026 1079.67C376.293 1079.67 370.026 1077.54 364.026 1075C358.16 1072.47 352.693 1070.34 352.16 1070.34C351.493 1070.34 348.693 1068.6 346.026 1066.34C326.426 1050.47 320.693 1047.94 303.36 1046.87C289.76 1046.07 281.493 1047.8 260.026 1055.67C253.893 1057.8 251.76 1058.07 250.293 1056.87C246.96 1054.2 248.293 1052.07 254.826 1049.8C258.293 1048.47 263.093 1046.6 265.493 1045.54C267.893 1044.47 270.693 1043.67 271.76 1043.67C272.96 1043.67 274.826 1043.14 276.16 1042.47C282.426 1039 295.093 1037.27 309.76 1037.54C322.56 1037.94 326.426 1038.6 333.493 1041.4ZM508.16 1041.94C510.56 1046.6 511.36 1054.34 509.493 1055C508.426 1055.4 507.76 1058.2 507.626 1062.34C507.493 1069.4 504.56 1075.14 504.293 1068.87C503.093 1047.94 503.36 1039.67 505.093 1039.67C506.16 1039.67 507.493 1040.74 508.16 1041.94ZM856.293 1060.2C858.293 1062.07 860.693 1063.67 861.76 1063.94C864.026 1064.34 868.426 1070.74 868.426 1073.54C868.426 1075.67 859.226 1083.14 854.293 1085C849.093 1087 847.226 1084.47 846.16 1073.94C845.36 1064.2 847.226 1057 850.826 1057C852.026 1057 854.426 1058.47 856.293 1060.2ZM312.693 1063.14C320.96 1067.4 332.826 1075.94 335.36 1079.54C336.426 1081 340.56 1083.27 344.56 1084.6C350.56 1086.6 351.893 1087.54 352.16 1090.34C352.426 1093.14 351.626 1094.2 347.76 1096.07C343.226 1098.2 342.693 1098.2 336.693 1095.54C324.293 1090.2 318.96 1086.74 311.36 1079.27C299.626 1067.94 292.426 1067 272.56 1074.34C266.826 1076.34 266.426 1076.87 266.693 1081C266.826 1083.4 268.16 1087.14 269.626 1089.14C271.36 1091.54 273.226 1097.4 274.426 1104.34C275.493 1110.6 277.226 1117.94 278.293 1120.74C279.226 1123.4 282.026 1131 284.426 1137.67C293.76 1163.4 295.76 1172.47 294.693 1183.94C293.626 1194.6 288.293 1211.67 284.56 1216.34C283.093 1218.34 282.026 1220.47 282.426 1221C282.826 1221.54 278.96 1222.07 273.893 1222.2C266.026 1222.34 264.426 1221.94 263.893 1219.94C263.36 1218.6 262.826 1209.94 262.56 1200.6C262.16 1191.4 261.626 1183.14 261.226 1182.47C260.426 1181.14 258.026 1157.27 256.826 1137.8C256.56 1131.94 255.36 1125.94 254.426 1124.47C253.36 1122.74 252.426 1114.87 251.893 1103.14C251.226 1085.4 251.093 1084.34 247.76 1081.4C242.16 1076.07 241.493 1076.47 269.76 1064.2C278.693 1060.34 281.226 1059.94 292.826 1059.8C304.426 1059.67 306.56 1060.07 312.693 1063.14ZM566.826 1078.6C566.56 1088.6 566.026 1091 564.426 1090.87C561.36 1090.74 547.093 1079.54 547.093 1077.4C547.093 1075.27 553.36 1069.54 560.293 1065.54C566.693 1061.94 567.226 1063.14 566.826 1078.6ZM419.493 1067.67C419.093 1069.14 418.293 1070.07 417.76 1069.67C417.093 1069.27 416.96 1067.8 417.36 1066.34C417.76 1064.87 418.56 1063.94 419.093 1064.34C419.76 1064.74 419.893 1066.2 419.493 1067.67ZM512.026 1095.94C511.76 1100.6 511.626 1096.87 511.626 1087.67C511.626 1078.47 511.76 1074.74 512.026 1079.27C512.293 1083.94 512.293 1091.4 512.026 1095.94ZM506.426 1079.94C506.293 1082.34 506.026 1087 505.893 1090.34L505.493 1096.34L504.16 1089C502.96 1081.54 503.626 1075.67 505.626 1075.67C506.16 1075.67 506.56 1077.67 506.426 1079.94ZM420.826 1085.67C422.426 1087.27 422.826 1092.07 423.093 1109.14C423.093 1121 423.493 1131.14 423.76 1131.67C424.826 1133.4 426.96 1191.4 427.76 1239.67C428.293 1265.67 428.96 1288.2 429.226 1289.8C430.16 1293.54 426.426 1302.34 423.893 1302.34C422.826 1302.34 421.76 1303.67 421.493 1305.27C420.96 1309.14 415.893 1310.07 412.826 1306.87C410.16 1304.2 398.826 1304.87 392.16 1308.2C389.626 1309.54 384.56 1310.34 378.96 1310.34C371.093 1310.34 369.36 1309.8 365.76 1306.74L361.493 1303.14L362.293 1281.8C363.093 1262.34 363.493 1259.54 366.826 1252.34C368.826 1247.94 370.693 1244.07 371.093 1243.67C373.36 1241.4 377.626 1234.2 379.493 1229.4C380.693 1226.34 384.426 1219.8 387.76 1215C391.093 1210.2 394.293 1205.14 395.093 1203.8C397.626 1199 400.56 1180.74 400.826 1167.94C401.093 1157.4 401.76 1153.94 403.76 1150.87C409.626 1142.34 411.626 1135.27 413.226 1119.27C414.026 1111.54 413.76 1110.34 411.893 1110.34C410.693 1110.34 409.76 1109.67 409.76 1109C409.76 1108.2 410.96 1107.67 412.293 1107.67C415.893 1107.67 416.826 1103.54 414.426 1098.87C409.626 1089.54 414.56 1079.27 420.826 1085.67ZM295.36 1089.94C299.226 1091.94 302.693 1093.94 303.093 1094.34C303.493 1094.74 307.093 1097.14 311.093 1099.8C320.16 1105.67 326.96 1108.34 336.96 1110.2C349.226 1112.47 350.16 1114.2 346.56 1128.07C343.893 1138.34 342.026 1140.74 334.826 1143.14C330.693 1144.47 327.093 1147 323.893 1150.74C321.226 1153.8 318.16 1157.4 317.093 1158.74C315.893 1160.07 314.426 1162.6 313.76 1164.34C313.093 1166.2 311.893 1167.67 311.093 1167.67C310.426 1167.67 309.76 1169.14 309.76 1170.87C309.76 1174.6 308.293 1176.07 305.36 1175C304.026 1174.34 303.226 1170.74 302.693 1161.4C302.026 1151.94 301.226 1147.8 299.36 1145.8C293.493 1138.87 290.826 1133.94 291.493 1130.87C291.76 1129.14 291.493 1127.67 290.826 1127.67C290.16 1127.67 290.026 1127 290.426 1126.34C290.826 1125.54 290.693 1125 290.026 1125C289.093 1125 285.76 1103.94 285.626 1097.67C285.626 1096.6 286.693 1087.8 286.96 1086.6C287.226 1085.94 288.426 1086.47 295.36 1089.94ZM392.426 1093.14C392.426 1093.67 391.893 1094.6 391.093 1095C390.426 1095.4 389.76 1099.14 389.76 1103C389.76 1108.74 388.56 1112.87 384.426 1121.94C379.36 1132.87 379.093 1133.94 380.293 1139.94C381.893 1147.14 381.893 1147.14 372.16 1168.34C368.56 1176.34 364.026 1186.2 362.293 1189.94C360.56 1193.8 357.36 1199.4 355.093 1202.47C352.96 1205.54 351.093 1208.87 351.093 1209.67C351.093 1211.54 341.093 1221 339.36 1221C338.693 1221 335.226 1223.94 331.626 1227.54C324.693 1234.47 318.826 1237 315.226 1234.74C309.493 1231.14 306.426 1209.67 309.493 1193.8C312.96 1176.07 326.026 1157 338.426 1151.67C342.426 1149.94 347.893 1145.8 352.426 1141.14C360.56 1132.6 362.026 1129 365.76 1107C367.626 1095.4 367.893 1095 371.893 1093.67C376.96 1092.07 392.426 1091.67 392.426 1093.14ZM512.026 1118.6C511.626 1119.67 511.226 1119.27 511.226 1117.8C511.093 1116.34 511.493 1115.54 511.893 1116.07C512.293 1116.47 512.426 1117.67 512.026 1118.6ZM506.826 1140.2C507.093 1141.54 506.826 1144.2 506.293 1146.07L505.36 1149.67L504.426 1146.34C502.693 1140.87 502.96 1136.74 504.826 1137.27C505.626 1137.67 506.693 1139 506.826 1140.2ZM857.76 1149.14C861.493 1154.47 864.96 1159.4 865.226 1160.34C865.626 1161.27 863.226 1163.54 859.76 1165.54C856.426 1167.54 852.96 1170.34 852.026 1171.8C849.893 1175.14 847.493 1175 845.626 1171.4C842.693 1165.94 846.026 1139.67 849.626 1139.67C850.16 1139.67 853.893 1143.94 857.76 1149.14ZM568.426 1156.87C568.426 1165.14 566.16 1170.74 562.693 1171.4C559.226 1172.07 548.426 1160.6 549.36 1157.14C549.76 1155.67 551.226 1154.07 552.56 1153.67C553.893 1153.14 555.093 1151.94 555.093 1150.87C555.093 1149.8 557.093 1147.8 559.493 1146.34L563.76 1143.67L566.16 1146.47C567.76 1148.47 568.426 1151.54 568.426 1156.87ZM226.293 1146.6C226.693 1147.54 227.226 1159.14 227.626 1172.34C228.56 1200.2 230.56 1232.34 232.426 1250.34C233.226 1257.27 234.16 1271 234.693 1280.6L235.493 1298.34H232.293C226.826 1298.34 185.626 1291.54 158.96 1286.34C122.56 1279.14 86.8263 1270.07 55.493 1260.34C54.4263 1259.94 54.1596 1257.14 54.693 1250.6C55.2263 1244.47 54.9596 1241.14 54.0263 1240.47C53.093 1239.94 49.093 1242.87 44.8263 1247C40.5596 1251 36.5596 1254.2 35.7596 1253.94C35.093 1253.54 30.0263 1251.94 24.8263 1250.2C14.293 1246.87 12.5596 1244.47 17.7596 1240.07C19.2263 1238.74 20.4263 1237.27 20.4263 1236.6C20.4263 1236.07 21.893 1233.94 23.7596 1231.94C25.6263 1229.94 27.093 1227.67 27.093 1226.74C27.093 1224.07 42.8263 1209 45.493 1209C46.8263 1209 48.8263 1207.8 50.0263 1206.47C53.493 1202.47 63.493 1197.14 71.2263 1195.14C81.2263 1192.6 108.693 1187.94 119.893 1186.87C133.226 1185.67 157.76 1185.94 162.426 1187.4C168.293 1189.14 167.493 1194.47 159.893 1202.2C156.56 1205.54 151.093 1211.8 147.493 1215.94C128.026 1238.74 110.56 1258.34 109.626 1258.34C107.226 1258.34 108.426 1264.87 110.96 1266.34C115.226 1268.6 116.96 1267.94 120.426 1262.74C124.16 1257.14 145.626 1232.6 147.36 1231.94C147.893 1231.67 148.426 1230.87 148.426 1230.2C148.426 1229.4 150.826 1226.2 153.893 1223C156.826 1219.8 160.56 1215.54 162.16 1213.4C163.76 1211.4 169.36 1205.14 174.56 1199.67C179.76 1194.2 187.626 1185.4 192.026 1180.34C196.426 1175.14 202.293 1168.6 205.093 1165.67C207.76 1162.74 211.626 1158.2 213.493 1155.67C221.226 1145.27 225.093 1142.47 226.293 1146.6ZM601.093 1165.94C604.426 1169.54 606.96 1173 607.093 1173.94C607.093 1174.87 608.426 1177 610.16 1178.87C616.693 1185.94 623.76 1194.47 624.96 1196.74C625.626 1197.94 626.56 1199.27 627.093 1199.67C628.16 1200.47 631.093 1205.8 631.093 1206.87C631.093 1207.27 630.026 1207.67 628.693 1207.67C627.226 1207.67 624.426 1204.87 621.76 1200.6C613.493 1187.8 609.626 1183.67 605.76 1183.67C601.493 1183.67 600.426 1186.74 600.293 1200.87C600.293 1205.67 599.893 1208.87 599.493 1208.07C599.093 1206.74 598.426 1206.74 596.96 1208.2C595.493 1209.67 595.36 1211 596.426 1213.67C597.093 1215.54 597.76 1218.07 597.76 1219.14C597.76 1221.27 594.293 1221.67 593.093 1219.67C592.16 1218.2 591.093 1163.8 592.026 1161.4C593.226 1158.47 595.093 1159.4 601.093 1165.94ZM505.76 1176.47C505.76 1179.67 505.226 1181 504.16 1180.74C502.16 1180.07 501.226 1175.14 502.293 1172.2C503.626 1168.87 505.76 1171.54 505.76 1176.47ZM811.76 1195.27C811.76 1213.14 811.626 1213.67 808.826 1214.07C806.693 1214.34 805.36 1213.4 803.76 1210.47C802.56 1208.07 800.693 1206.34 799.226 1206.34C795.76 1206.34 787.093 1210.07 787.093 1211.67C787.093 1212.34 785.893 1213.54 784.56 1214.2C782.56 1215.27 781.893 1215.14 781.226 1213.54C780.693 1212.2 782.026 1209.8 784.96 1206.87C787.36 1204.47 789.093 1202.2 788.826 1201.8C788.426 1201.4 788.56 1200.6 788.96 1199.8C789.626 1198.87 790.693 1198.87 792.426 1199.94C795.626 1201.94 797.093 1200.6 795.226 1197.27C794.293 1195.4 794.293 1193.67 795.493 1191.27C797.36 1187.4 802.96 1185.67 804.026 1188.6C804.693 1190.2 804.96 1190.2 805.893 1188.87C806.426 1187.8 806.026 1186.6 804.96 1185.67C803.493 1184.74 803.226 1183.14 803.76 1180.6C804.56 1177.8 805.493 1177 808.293 1177H811.893L811.76 1195.27ZM779.626 1220.74C778.56 1221.8 776.826 1222.2 775.626 1221.8C773.893 1221.14 773.893 1220.6 775.893 1217.67C777.893 1214.6 778.293 1214.47 779.76 1216.6C781.093 1218.47 781.093 1219.27 779.626 1220.74ZM684.426 1221C684.426 1221.67 683.893 1222.34 683.093 1222.34C682.426 1222.34 681.76 1221.67 681.76 1221C681.76 1220.2 682.426 1219.67 683.093 1219.67C683.893 1219.67 684.426 1220.2 684.426 1221ZM566.56 1231C567.626 1235.27 565.493 1249.4 563.76 1249.8C563.093 1249.94 560.426 1247.8 557.893 1244.87C553.76 1239.94 553.493 1239.4 555.093 1235.67C556.56 1232.07 561.76 1227.94 564.693 1227.67C565.226 1227.67 566.026 1229.14 566.56 1231ZM639.36 1238.07C644.56 1242.6 655.093 1245.27 696.426 1252.34C707.226 1254.34 715.093 1256.6 723.76 1260.34C726.026 1261.27 730.293 1262.74 733.493 1263.54C736.56 1264.47 739.093 1265.67 739.093 1266.34C739.093 1267 741.493 1268.87 744.426 1270.47C748.293 1272.74 749.36 1273.94 748.293 1275.14C747.36 1276.34 748.026 1277.54 750.56 1279.54C755.226 1283.14 753.893 1285.8 746.826 1286.87C703.226 1294.07 690.026 1294.87 699.893 1290.07C704.293 1288.07 705.493 1284.47 702.96 1281.4C699.093 1276.87 678.693 1268.87 665.093 1266.74C656.693 1265.4 650.56 1263.67 648.56 1262.2C646.826 1260.74 644.026 1259.67 642.16 1259.67C640.426 1259.67 638.693 1258.74 638.293 1257.67C637.76 1256.6 636.56 1255.67 635.36 1255.67C629.893 1255.67 621.76 1251.14 619.093 1246.74C615.76 1241.14 615.76 1241.54 619.893 1237.67C625.093 1232.87 633.493 1233 639.36 1238.07ZM352.426 1278.87C352.426 1286.34 352.026 1296.34 351.626 1300.87L350.693 1309H341.76L341.493 1298.6C341.093 1283.27 341.76 1275.4 343.893 1271.4C345.626 1268.07 349.093 1265.14 351.493 1265C352.026 1265 352.426 1271.27 352.426 1278.87ZM307.626 1280.47C309.36 1281.14 309.76 1283.67 309.76 1293.94V1306.74L298.16 1305.8C277.893 1304.2 276.426 1303.8 276.426 1299.94C276.426 1295.54 281.36 1290.34 285.626 1290.34C287.36 1290.34 290.16 1289.14 291.626 1287.8C293.893 1285.8 304.16 1279.67 305.36 1279.67C305.493 1279.67 306.426 1280.07 307.626 1280.47ZM539.626 1298.47C539.226 1299.14 538.293 1299.4 537.626 1298.87C536.96 1298.47 536.693 1297.54 537.226 1296.87C537.626 1296.2 538.56 1295.94 539.226 1296.47C539.893 1296.87 540.16 1297.8 539.626 1298.47ZM565.76 1300.74V1304.34L563.893 1301C562.16 1297.54 562.426 1295.14 564.56 1296.34C565.226 1296.87 565.76 1298.74 565.76 1300.74ZM512.026 1306.6C511.626 1307.67 511.226 1307.27 511.226 1305.8C511.093 1304.34 511.493 1303.54 511.893 1304.07C512.293 1304.47 512.426 1305.67 512.026 1306.6Z" fill="url(#paint0_linear_1028_3466)"/>
<path d="M539.76 76.869C539.36 77.5356 539.626 78.469 540.426 79.0023C541.093 79.4023 541.76 78.869 541.76 77.8023C541.76 75.4023 540.96 75.0023 539.76 76.869Z" fill="url(#paint1_linear_1028_3466)"/>
<path d="M52.9596 610.602C52.4263 611.402 53.093 612.869 54.5596 613.936C57.2263 615.936 58.5596 614.469 57.2263 611.002C56.4263 608.602 54.293 608.469 52.9596 610.602Z" fill="url(#paint2_linear_1028_3466)"/>
<path d="M60.4263 624.336C60.4263 626.869 61.093 629.002 61.7596 629.002C62.5596 629.002 63.093 626.869 63.093 624.336C63.093 621.802 62.5596 619.669 61.7596 619.669C61.093 619.669 60.4263 621.802 60.4263 624.336Z" fill="url(#paint3_linear_1028_3466)"/>
<path d="M134.426 652.869C134.026 653.536 134.426 654.602 135.093 655.002C137.226 656.336 143.36 654.469 142.426 653.002C141.36 651.269 135.493 651.269 134.426 652.869Z" fill="url(#paint4_linear_1028_3466)"/>
<path d="M187.093 669.536C187.093 671.136 188.426 671.669 191.893 671.669C197.893 671.669 197.493 668.469 191.36 667.936C188.16 667.669 187.093 668.069 187.093 669.536Z" fill="url(#paint5_linear_1028_3466)"/>
<path d="M492.426 659.536C492.426 660.336 493.093 661.269 493.76 661.669C494.56 662.069 495.093 661.536 495.093 660.469C495.093 659.269 494.56 658.336 493.76 658.336C493.093 658.336 492.426 658.869 492.426 659.536Z" fill="url(#paint6_linear_1028_3466)"/>
<path d="M857.493 911.802C853.226 913.402 852.426 915.269 853.626 921.136C854.56 925.669 854.56 925.669 862.96 926.069C872.426 926.469 873.76 925.669 873.76 918.736C873.76 915.669 872.96 913.936 870.96 912.869C866.826 910.736 861.626 910.336 857.493 911.802Z" fill="url(#paint7_linear_1028_3466)"/>
<path d="M546.16 913.269C540.426 920.469 541.493 926.736 548.693 928.469C554.16 929.802 557.626 929.269 561.493 926.869C565.626 924.202 565.626 916.602 561.493 913.802C557.893 911.269 547.893 911.002 546.16 913.269Z" fill="url(#paint8_linear_1028_3466)"/>
<path d="M594.026 1117.27C594.693 1119.27 597.76 1120.34 597.76 1118.6C597.76 1117.94 596.826 1116.87 595.626 1116.47C594.293 1115.94 593.76 1116.34 594.026 1117.27Z" fill="url(#paint9_linear_1028_3466)"/>
<path d="M817.093 1122.34C817.493 1123 817.093 1123.67 816.026 1123.67C813.493 1123.67 812.026 1127.27 814.026 1128.47C815.626 1129.54 819.093 1125.54 819.093 1122.74C819.093 1121.8 818.426 1121 817.626 1121C816.96 1121 816.693 1121.54 817.093 1122.34Z" fill="url(#paint10_linear_1028_3466)"/>
<path d="M599.093 1124.2C599.093 1125.27 600.026 1126.34 601.093 1126.87C602.293 1127.27 603.093 1126.87 603.093 1125.8C603.093 1124.74 602.16 1123.67 601.093 1123.14C599.893 1122.74 599.093 1123.14 599.093 1124.2Z" fill="url(#paint11_linear_1028_3466)"/>
<path d="M798.026 1145.4C794.826 1148.74 794.16 1152.2 796.693 1151.4C798.826 1150.6 803.76 1142.34 802.16 1142.34C801.493 1142.34 799.626 1143.67 798.026 1145.4Z" fill="url(#paint12_linear_1028_3466)"/>
<path d="M791.76 1154.34C791.36 1155 791.626 1155.67 792.293 1155.67C793.093 1155.67 793.76 1155 793.76 1154.34C793.76 1153.54 793.493 1153 793.226 1153C792.826 1153 792.16 1153.54 791.76 1154.34Z" fill="url(#paint13_linear_1028_3466)"/>
<path d="M783.36 1160.47C780.56 1162.47 779.226 1167.67 781.626 1167.67C783.226 1167.67 789.76 1161.4 789.76 1159.67C789.76 1157.67 786.826 1158.07 783.36 1160.47Z" fill="url(#paint14_linear_1028_3466)"/>
<path d="M774.826 1173.94C775.76 1174.34 776.96 1174.2 777.36 1173.8C777.893 1173.4 777.093 1173 775.626 1173.14C774.16 1173.14 773.76 1173.54 774.826 1173.94Z" fill="url(#paint15_linear_1028_3466)"/>
<path d="M768.026 1180.74C766.693 1182.07 765.76 1183.8 765.76 1184.6C765.76 1185.27 764.293 1186.6 762.426 1187.4C758.96 1189 758.16 1190.87 760.293 1192.2C760.96 1192.6 762.426 1191.67 763.493 1189.94C764.56 1188.34 766.693 1185.54 768.293 1183.8C770.826 1181 771.893 1178.34 770.693 1178.34C770.426 1178.34 769.226 1179.4 768.026 1180.74Z" fill="url(#paint16_linear_1028_3466)"/>
<path d="M648.56 1187.14C648.56 1188.6 648.96 1189 649.36 1187.94C649.76 1187 649.626 1185.8 649.226 1185.4C648.826 1184.87 648.426 1185.67 648.56 1187.14Z" fill="url(#paint17_linear_1028_3466)"/>
<path d="M751.093 1201.8C751.093 1202.87 751.76 1203.4 752.426 1203C753.226 1202.6 753.76 1201.67 753.76 1200.87C753.76 1200.2 753.226 1199.67 752.426 1199.67C751.76 1199.67 751.093 1200.6 751.093 1201.8Z" fill="url(#paint18_linear_1028_3466)"/>
<path d="M745.76 1208.47C745.76 1210.74 748.693 1210.34 749.493 1207.94C749.76 1207 749.093 1206.34 747.893 1206.34C746.693 1206.34 745.76 1207.27 745.76 1208.47Z" fill="url(#paint19_linear_1028_3466)"/>
<path d="M607.76 963.269C603.893 965.402 604.16 963.269 604.293 997.536C604.293 1020.07 606.293 1040.34 608.426 1041.67C608.96 1042.07 610.826 1040.2 612.56 1037.67C614.293 1035.14 616.56 1033 617.626 1033C618.693 1033 619.093 1032.07 618.693 1030.47C618.293 1028.87 619.093 1026.87 620.693 1025.4C623.626 1022.74 631.093 1012.07 631.093 1010.47C631.093 1009.94 632.96 1008.2 635.093 1006.6C637.36 1004.87 639.093 1003 639.093 1002.2C639.093 1000.87 641.36 997.669 648.426 989.002C649.893 987.136 652.693 983.802 654.426 981.669C656.16 979.402 659.226 975.802 661.093 973.669C665.093 969.002 665.626 962.469 662.16 962.069C660.826 962.069 648.826 961.802 635.493 961.802C617.626 961.669 610.293 962.069 607.76 963.269Z" fill="url(#paint20_linear_1028_3466)"/>
<path d="M764.16 960.336C760.293 962.469 759.493 964.202 761.76 965.669C762.56 966.069 763.093 967.402 763.093 968.602C763.093 969.669 765.226 973.536 767.76 977.002C770.293 980.469 772.426 984.202 772.426 985.269C772.426 986.336 773.626 988.336 775.226 989.802C776.693 991.136 779.226 994.736 780.693 997.669C788.16 1012.6 802.026 1033.67 805.76 1035.67C807.76 1036.74 808.56 1036.47 809.626 1034.74C810.826 1032.6 810.293 973.269 809.093 966.869C808.16 962.869 803.093 961.269 787.76 960.469C780.426 960.069 772.96 959.402 771.093 959.002C769.226 958.602 766.16 959.269 764.16 960.336Z" fill="url(#paint21_linear_1028_3466)"/>
<path d="M376.026 1145.54C375.226 1147.54 376.16 1149 378.026 1149C379.493 1149 379.36 1145.4 377.893 1144.47C377.226 1144.07 376.426 1144.47 376.026 1145.54Z" fill="url(#paint22_linear_1028_3466)"/>
</g>
<defs>
<linearGradient id="paint0_linear_1028_3466" x1="705" y1="538" x2="729" y2="1260" gradientUnits="userSpaceOnUse">
<stop stop-color="#AFC1CF"/>
<stop offset="0.5" stop-color="#AFC1CF" stop-opacity="0.5"/>
<stop offset="1" stop-color="#AFC1CF" stop-opacity="0"/>
</linearGradient>
<linearGradient id="paint1_linear_1028_3466" x1="705" y1="538" x2="729" y2="1260" gradientUnits="userSpaceOnUse">
<stop stop-color="#AFC1CF"/>
<stop offset="0.5" stop-color="#AFC1CF" stop-opacity="0.5"/>
<stop offset="1" stop-color="#AFC1CF" stop-opacity="0"/>
</linearGradient>
<linearGradient id="paint2_linear_1028_3466" x1="705" y1="538" x2="729" y2="1260" gradientUnits="userSpaceOnUse">
<stop stop-color="#AFC1CF"/>
<stop offset="0.5" stop-color="#AFC1CF" stop-opacity="0.5"/>
<stop offset="1" stop-color="#AFC1CF" stop-opacity="0"/>
</linearGradient>
<linearGradient id="paint3_linear_1028_3466" x1="705" y1="538" x2="729" y2="1260" gradientUnits="userSpaceOnUse">
<stop stop-color="#AFC1CF"/>
<stop offset="0.5" stop-color="#AFC1CF" stop-opacity="0.5"/>
<stop offset="1" stop-color="#AFC1CF" stop-opacity="0"/>
</linearGradient>
<linearGradient id="paint4_linear_1028_3466" x1="705" y1="538" x2="729" y2="1260" gradientUnits="userSpaceOnUse">
<stop stop-color="#AFC1CF"/>
<stop offset="0.5" stop-color="#AFC1CF" stop-opacity="0.5"/>
<stop offset="1" stop-color="#AFC1CF" stop-opacity="0"/>
</linearGradient>
<linearGradient id="paint5_linear_1028_3466" x1="705" y1="538" x2="729" y2="1260" gradientUnits="userSpaceOnUse">
<stop stop-color="#AFC1CF"/>
<stop offset="0.5" stop-color="#AFC1CF" stop-opacity="0.5"/>
<stop offset="1" stop-color="#AFC1CF" stop-opacity="0"/>
</linearGradient>
<linearGradient id="paint6_linear_1028_3466" x1="705" y1="538" x2="729" y2="1260" gradientUnits="userSpaceOnUse">
<stop stop-color="#AFC1CF"/>
<stop offset="0.5" stop-color="#AFC1CF" stop-opacity="0.5"/>
<stop offset="1" stop-color="#AFC1CF" stop-opacity="0"/>
</linearGradient>
<linearGradient id="paint7_linear_1028_3466" x1="705" y1="538" x2="729" y2="1260" gradientUnits="userSpaceOnUse">
<stop stop-color="#AFC1CF"/>
<stop offset="0.5" stop-color="#AFC1CF" stop-opacity="0.5"/>
<stop offset="1" stop-color="#AFC1CF" stop-opacity="0"/>
</linearGradient>
<linearGradient id="paint8_linear_1028_3466" x1="705" y1="538" x2="729" y2="1260" gradientUnits="userSpaceOnUse">
<stop stop-color="#AFC1CF"/>
<stop offset="0.5" stop-color="#AFC1CF" stop-opacity="0.5"/>
<stop offset="1" stop-color="#AFC1CF" stop-opacity="0"/>
</linearGradient>
<linearGradient id="paint9_linear_1028_3466" x1="705" y1="538" x2="729" y2="1260" gradientUnits="userSpaceOnUse">
<stop stop-color="#AFC1CF"/>
<stop offset="0.5" stop-color="#AFC1CF" stop-opacity="0.5"/>
<stop offset="1" stop-color="#AFC1CF" stop-opacity="0"/>
</linearGradient>
<linearGradient id="paint10_linear_1028_3466" x1="705" y1="538" x2="729" y2="1260" gradientUnits="userSpaceOnUse">
<stop stop-color="#AFC1CF"/>
<stop offset="0.5" stop-color="#AFC1CF" stop-opacity="0.5"/>
<stop offset="1" stop-color="#AFC1CF" stop-opacity="0"/>
</linearGradient>
<linearGradient id="paint11_linear_1028_3466" x1="705" y1="538" x2="729" y2="1260" gradientUnits="userSpaceOnUse">
<stop stop-color="#AFC1CF"/>
<stop offset="0.5" stop-color="#AFC1CF" stop-opacity="0.5"/>
<stop offset="1" stop-color="#AFC1CF" stop-opacity="0"/>
</linearGradient>
<linearGradient id="paint12_linear_1028_3466" x1="705" y1="538" x2="729" y2="1260" gradientUnits="userSpaceOnUse">
<stop stop-color="#AFC1CF"/>
<stop offset="0.5" stop-color="#AFC1CF" stop-opacity="0.5"/>
<stop offset="1" stop-color="#AFC1CF" stop-opacity="0"/>
</linearGradient>
<linearGradient id="paint13_linear_1028_3466" x1="705" y1="538" x2="729" y2="1260" gradientUnits="userSpaceOnUse">
<stop stop-color="#AFC1CF"/>
<stop offset="0.5" stop-color="#AFC1CF" stop-opacity="0.5"/>
<stop offset="1" stop-color="#AFC1CF" stop-opacity="0"/>
</linearGradient>
<linearGradient id="paint14_linear_1028_3466" x1="705" y1="538" x2="729" y2="1260" gradientUnits="userSpaceOnUse">
<stop stop-color="#AFC1CF"/>
<stop offset="0.5" stop-color="#AFC1CF" stop-opacity="0.5"/>
<stop offset="1" stop-color="#AFC1CF" stop-opacity="0"/>
</linearGradient>
<linearGradient id="paint15_linear_1028_3466" x1="705" y1="538" x2="729" y2="1260" gradientUnits="userSpaceOnUse">
<stop stop-color="#AFC1CF"/>
<stop offset="0.5" stop-color="#AFC1CF" stop-opacity="0.5"/>
<stop offset="1" stop-color="#AFC1CF" stop-opacity="0"/>
</linearGradient>
<linearGradient id="paint16_linear_1028_3466" x1="705" y1="538" x2="729" y2="1260" gradientUnits="userSpaceOnUse">
<stop stop-color="#AFC1CF"/>
<stop offset="0.5" stop-color="#AFC1CF" stop-opacity="0.5"/>
<stop offset="1" stop-color="#AFC1CF" stop-opacity="0"/>
</linearGradient>
<linearGradient id="paint17_linear_1028_3466" x1="705" y1="538" x2="729" y2="1260" gradientUnits="userSpaceOnUse">
<stop stop-color="#AFC1CF"/>
<stop offset="0.5" stop-color="#AFC1CF" stop-opacity="0.5"/>
<stop offset="1" stop-color="#AFC1CF" stop-opacity="0"/>
</linearGradient>
<linearGradient id="paint18_linear_1028_3466" x1="705" y1="538" x2="729" y2="1260" gradientUnits="userSpaceOnUse">
<stop stop-color="#AFC1CF"/>
<stop offset="0.5" stop-color="#AFC1CF" stop-opacity="0.5"/>
<stop offset="1" stop-color="#AFC1CF" stop-opacity="0"/>
</linearGradient>
<linearGradient id="paint19_linear_1028_3466" x1="705" y1="538" x2="729" y2="1260" gradientUnits="userSpaceOnUse">
<stop stop-color="#AFC1CF"/>
<stop offset="0.5" stop-color="#AFC1CF" stop-opacity="0.5"/>
<stop offset="1" stop-color="#AFC1CF" stop-opacity="0"/>
</linearGradient>
<linearGradient id="paint20_linear_1028_3466" x1="705" y1="538" x2="729" y2="1260" gradientUnits="userSpaceOnUse">
<stop stop-color="#AFC1CF"/>
<stop offset="0.5" stop-color="#AFC1CF" stop-opacity="0.5"/>
<stop offset="1" stop-color="#AFC1CF" stop-opacity="0"/>
</linearGradient>
<linearGradient id="paint21_linear_1028_3466" x1="705" y1="538" x2="729" y2="1260" gradientUnits="userSpaceOnUse">
<stop stop-color="#AFC1CF"/>
<stop offset="0.5" stop-color="#AFC1CF" stop-opacity="0.5"/>
<stop offset="1" stop-color="#AFC1CF" stop-opacity="0"/>
</linearGradient>
<linearGradient id="paint22_linear_1028_3466" x1="705" y1="538" x2="729" y2="1260" gradientUnits="userSpaceOnUse">
<stop stop-color="#AFC1CF"/>
<stop offset="0.5" stop-color="#AFC1CF" stop-opacity="0.5"/>
<stop offset="1" stop-color="#AFC1CF" stop-opacity="0"/>
</linearGradient>
</defs>
</svg>
