<?xml version="1.0" encoding="utf-8"?>
<!-- Generator: Adobe Adobe Illustrator 24.2.0, SVG Export Plug-In . SVG Version: 6.00 Build 0)  -->
<svg version="1.1" xmlns="http://www.w3.org/2000/svg" xmlns:xlink="http://www.w3.org/1999/xlink" x="0px" y="0px" width="501px"
	 height="524.73px" viewBox="0 0 501 524.73" style="enable-background:new 0 0 501 524.73;" xml:space="preserve">
<style type="text/css">
	.st0{fill:none;stroke:#25475B;stroke-width:60;stroke-linejoin:round;stroke-miterlimit:10;}
	.st1{fill:#ECEDED;}
	.st2{fill:#22475B;}
	.st3{fill:#B0CBD2;}
	.st4{fill:#B2CBD2;}
	.st5{fill:#608198;}
	.st6{fill:#ECEFEF;}
	.st7{fill:#638299;}
	.st8{fill:#92AEBF;}
	.st9{fill:none;stroke:#B3CBD3;stroke-miterlimit:10;}
	.st10{fill:#25475B;}
	.st11{fill:#ECEEEE;}
	.st12{fill:#B1CBD2;}
	.st13{fill:#1F475A;}
	.st14{fill:none;stroke:#25475B;stroke-width:60;stroke-miterlimit:10;}
	.st15{fill:#B3CBD3;}
	.st16{fill:#76979E;}
	.st17{fill:#77979E;}
	.st18{fill:#618198;}
	.st19{fill:#7F9DB5;}
	.st20{fill:#809DB5;}
	.st21{display:none;}
	.st22{display:inline;fill:none;stroke:#112636;stroke-width:2;stroke-miterlimit:10;}
	.st23{display:inline;}
	.st24{fill:#91AFBF;}
	.st25{fill:#1C475A;}
	.st26{display:inline;fill:#B0CBD2;}
	.st27{fill:#91AEBF;}
</style>
<g id="Layer_13">
	<path class="st0" d="M30.85,275.06c0-120.95,98.5-219,220-219s220,98.05,220,219"/>
</g>
<g id="LeftArm">
	<g>
		<path class="st1" d="M332.55,372.89c0.35,25.81,2.94,61.86,6.37,99.34c0.03-0.02,0.07-0.03,0.1-0.05
			c14.27-7.01,29.28-15.4,41.47-25.75c-1.68,1.38-3.8,2.93-0.65,0.45c0.65-0.51,1.3-1.03,1.94-1.55c1.72-1.38,3.43-2.78,5.12-4.2
			c0.29-0.24,0.57-0.49,0.85-0.73c-1.88-2.26-3.75-4.52-5.64-6.76c2.27,1.84,4.44,3.86,6.53,5.99c2.35-2,4.68-4.02,6.98-6.08
			c4.45-3.98,8.82-8.03,13.11-12.18c-2.06-13.97-3.84-27.55-3.25-36.74c0.49-22.08-1.95-52.43-25.87-73.3
			c0.02-0.01,0.04-0.02,0.07-0.03c0,0,0-0.01-0.02-0.01c-0.82-1.29-1.74-2.1-3.23-2.91c-0.12-0.06-0.35-0.04-0.67,0.07
			c-0.14-0.1-0.26-0.19-0.4-0.29c-0.07-0.04-0.18-0.07-0.3-0.07c-0.28-0.23-0.58-0.44-0.89-0.66c-0.05-0.03-0.25,0.01-0.58,0.13
			c-0.07-0.06-0.12-0.13-0.18-0.2h-0.02c-0.12,0-1.19,0.48-2.63,1.18c-1.11-0.92-2.49-1.3-4.46-0.6c-0.46,0.16-0.91,0.34-1.35,0.53
			c0.63-0.44,1.23-0.91,1.81-1.42c-0.84,0.61-2.11,1.14-3.32,1.62c0.04-0.66,0.23-1.12,0.68-1.85c-0.19,0.31-0.82,0.67-1.61,1.02
			c0.44-0.34,0.89-0.64,1.4-0.91c-1.39,0.66-2.77,1.33-4.16,1.99c-0.4,0.16-0.74,0.29-0.93,0.38c-2.23,1.07-4.47,2.1-6.65,3.24
			c-0.05,0.03-0.12,0.06-0.18,0.1c-0.02,0-0.04,0-0.04,0.01c-3.56,1.94-5.51,5.65-6.93,9.06c-1.18,0.48-2.09,1.04-2.49,1.75
			c-1.82,3.36-3.42,6.73-4.81,10.19c0,0.03-0.02,0.06-0.04,0.09c-0.74,1.64-1.37,3.32-1.86,5.07c0.56-0.28,1.14-0.54,1.7-0.82
			c-0.21,0.8-0.4,1.61-0.6,2.42c0.95-0.45,1.89-0.92,2.84-1.37c0,0.07-0.02,0.13-0.04,0.2c1.28-0.63,2.58-1.24,3.86-1.85
			c-0.09,0.31-0.18,0.61-0.26,0.92c-0.07,0.07-0.12,0.16-0.16,0.23c-1.77,3.71-2.77,7.51-3.42,11.36c-0.98,0.47-1.63,0.89-1.63,1.23
			v0.45c-1.33,0.54-2.28,1.1-2.32,1.67c-0.04,0.44-0.05,0.88-0.11,1.31c-1.42,0.55-2.44,1.14-2.51,1.78
			c-0.61,5.87-1.21,11.74-1.82,17.63C331.44,373.61,331.88,373.25,332.55,372.89z"/>
		<path class="st1" d="M350.09,420.13c-0.01,0-0.02,0.01-0.03,0.01c0-0.08,0-0.15,0-0.23C350.07,419.98,350.08,420.05,350.09,420.13
			z"/>
	</g>
	<g>
		<path class="st2" d="M335.22,337.64c-1.54,3.98-2.36,11.53-2.62,21.72c2.04-14.84,5.47-27.58,10.71-37.26
			C340.42,326.28,337.64,331.38,335.22,337.64z"/>
		<path class="st2" d="M367.78,304.06c0.93-0.2,1.93-0.03,2.7,0.46c32.49,20.58,35.57,55.5,35.01,80.13
			c-0.6,9.18,1.19,22.76,3.25,36.74c0.52-0.51,1.05-1.01,1.57-1.52c-2.04-13.67-3.76-26.74-3.06-35.19
			c0.59-25.09-2.68-60.86-36.32-81.71c-0.7-0.43-1.6-0.62-2.46-0.49c-11.08,1.73-19.26,8.74-25.16,19.63
			C352.77,308.49,363.55,304.95,367.78,304.06z"/>
		<path class="st2" d="M382.12,433.65c1.89,2.24,3.76,4.5,5.64,6.76c0.3-0.25,0.6-0.51,0.89-0.76
			C386.55,437.51,384.38,435.49,382.12,433.65z"/>
		<path class="st2" d="M334.65,474.26c1.43-0.66,2.86-1.33,4.27-2.02c-4.08-44.6-6.98-87.16-6.32-112.87
			C328.23,391.2,330.28,432.68,334.65,474.26z"/>
	</g>
	<g id="Layer_21">
		<path class="st3" d="M396.52,432.76c0.63-0.56,1.25-1.13,1.88-1.7c-6.63-18.89-13.36-37.76-19.1-56.86
			c-0.89-3.3-0.23,0.45-0.12,1.93C381.11,395.72,387.06,414.91,396.52,432.76z"/>
		<path class="st3" d="M390.94,376.48c0.44,9.47,2.58,18.77,5.95,27.77C395.54,394.11,393.47,385.83,390.94,376.48z"/>
	</g>
</g>
<g id="Body_1_">
	<path class="st4" d="M229.66,262.27c9.24-16.2,13.86-34.76,13.24-53.18c-0.06-1.84,3.17-2.65,4.07-1.02
		c11.9,21.43,18.99,45.25,20.66,69.42c0.18,2.54-2.61,4.86-5.24,4.37C249.39,279.43,237.36,272.63,229.66,262.27z"/>
	<g id="Layer_11">
		<path class="st5" d="M202.11,271.46c4.53-2.89,9.36-5.32,14.45-7.21c-2.36-4.63-3.29-10.16-3.47-15.8
			c-8.69,3.78-13.72,14.04-11,22.77C202.11,271.29,202.12,271.38,202.11,271.46z"/>
		<path class="st6" d="M227.71,262.53c-4.89,1-9.62,2.52-14.12,4.46c20.42,25.75,57,39.06,89.22,29.36c2.7-4.9,5.27-9.88,7.71-14.92
			C284.1,290.08,242.13,274.3,227.71,262.53z"/>
		<path class="st6" d="M171.33,418.79c11.07-4.51,21.78-9.8,32.04-15.79c10.87-6.35,21.23-13.49,30.97-21.32
			c9.68-7.78,18.76-16.24,27.13-25.3c8.39-9.07,16.06-18.73,22.91-28.9c4.02-5.96,7.74-12.09,11.18-18.36
			c-0.07,0.01-0.13,0.02-0.2,0.03c0.56-0.91,1.1-1.82,1.65-2.73c1.42-2.68,2.79-5.39,4.1-8.13c-32.38,8.74-68.64-4.88-88.92-30.7
			c-10.04,4.47-17.62,8.16-26.76,18.71c-27.03,31.61-15.7,82.04-14.12,124.15C171.32,413.29,171.33,416.06,171.33,418.79z"/>
		<path class="st6" d="M272.01,502.96c12.17-1.86,24.19-4.58,35.95-8.21c-0.05-5.67-0.14-11.34-0.29-17
			c-0.47-17.61-1.42-35.21-2.82-52.77c-7.56,9.59-15.67,18.79-24.35,27.49c-16.19,16.23-34.23,30.78-53.68,43.37
			c-3.78,2.45-7.63,4.8-11.52,7.1C234.14,505.07,253.17,505.11,272.01,502.96z"/>
		<path class="st7" d="M170.7,492.07c0.88,0.3,1.75,0.61,2.63,0.9c13.55,4.48,27.45,7.77,41.56,9.91c0.11,0.01,0.22,0.02,0.33,0.04
			c34.28-20.8,63.75-50.22,89.6-79.47c1.63,23.78,2.4,47.76,2.44,71.52c1.6-0.49,3.19-0.98,4.78-1.5c3.52-1.15,7.01-2.39,10.48-3.69
			c1.81-0.68,3.6-1.41,5.4-2.11c6.57-2.96,13.07-6.06,19.41-9.51c6.51-3.54,12.87-7.37,19.04-11.46c2.88-1.91,5.72-3.89,8.53-5.92
			c-0.16-46.21-1.23-90.65-4.37-127.86c0,0,17.57-25.89,16.79-26.66c-4.07-2.47-66.22-46.73-66.22-46.73
			c-8,21-21.28,44.34-30.8,58.71c-20.22,31.33-77,94.53-118.97,102.1C171.41,441.68,171.54,461.49,170.7,492.07z"/>
		<path class="st5" d="M239.8,201.38c-30.73,21.01-27.86,49.84-22.14,63.05c0.11,0.24,0.39,0.38,0.66,0.31
			c3.1-0.82,11.05-3.37,14.05-7.71c10.64-15.37,13.15-28.83,13.15-38.72c0-5.82-0.7-10.72-1.89-13.76
			C241.77,199.8,239.8,201.37,239.8,201.38z"/>
	</g>
	<g id="Layer_26">
		<path class="st8" d="M320.55,245.21c0,0-58.02-12.21-76.68-39.87c1.09,4.27,1.63,8.66,1.61,13.05
			c4.53,19.61,8.41,36.74,13.44,58.26c17.14,6.55,35.17,7.71,52.36,4.61C324.87,258.27,320.55,245.21,320.55,245.21z"/>
	</g>
	<g id="Layer_18">
		<path class="st9" d="M317.02,344.42c14.15-15.08,25.75-32.31,34.23-50.83c-9.74,18.32-20.86,35.98-33.26,52.78
			C318.89,344.93,319.78,343.49,317.02,344.42z"/>
		<path class="st9" d="M323.49,311.13c3.72,3.37,8.73,5.04,13.43,6.99s9.52,4.5,11.93,8.8c-2.58-1.42-5.15-2.84-7.73-4.26
			c-6.47-3.57-13.08-7.24-17.91-12.67c-0.18-0.2-0.39-0.42-0.66-0.45C322.27,309.51,322,309.78,323.49,311.13z"/>
		<path class="st9" d="M341.77,336.25c-5.26,2.8-11.03,4.58-16.76,6.34c6.43-0.78,12.72-2.56,18.54-5.26
			c2.38-1.1,4.75-2.41,6.36-4.4c-8.38,4.28-17.29,7.63-26.49,9.93"/>
		<path class="st9" d="M317.83,332.81c0.78-5.42,0.92-10.93,0.41-16.38c-0.04-0.48-0.18-1.06-0.67-1.19
			c-1.15,7.93-1.4,15.99-0.73,23.97C317.03,338.77,317.03,338.31,317.83,332.81z"/>
		<path class="st9" d="M326.77,301.67c4.13-1.38,8.26-2.75,12.39-4.13c-4.14,3.25-9.26,5.24-14.52,6.26
			c6.17-2.48,12.33-4.96,18.5-7.44c0.58-0.23,1.16-0.47,1.75-0.7c0.15-0.06,0.33-0.11,0.45-0.01c0.12,0.1-0.09,0.33-0.17,0.2"/>
		<path class="st9" d="M354,307.25c0.24,4.65,0.47,9.3,0.71,13.95c-0.64-6.49-1.29-12.98-1.93-19.46c0.41,4.54,0.82,9.07,1.23,13.61
			c0.25,2.8,0.51,5.62,0.32,8.42"/>
		<path class="st9" d="M275.06,398.58c13.39-13.77,25.91-28.31,37.48-43.49C302.44,369.56,292.28,384.09,275.06,398.58z"/>
		<path class="st9" d="M302.57,384.11c-7.12-5.4-13.56-11.62-19.13-18.47c5.39,6.65,11.56,12.69,17.71,18.72
			c2.05,2,4.15,4.05,6.78,5.28c-8.36-7.72-17-15.16-25.91-22.3"/>
		<path class="st9" d="M285.09,396.54c0.69,0.52,1.44,0.74,2.26,0.64c0.83,0.04,1.65-0.07,2.45-0.34c3.08-0.52,6.24-0.49,9.31-1.02
			c1.52-0.26,3-0.65,4.5-0.96c0.38-0.08,0.86-0.1,1.2-0.27c-0.55-0.14-1.11-0.14-1.68-0.02c-1.11,0.09-2.22,0.23-3.32,0.41
			c-2.3,0.41-4.56,0.98-6.86,1.37c-2.89,0.48-5.77,0.74-8.7,0.8c-0.87,0.02-1.66,0.05-2.47,0.36
			C281.95,397.45,282.12,397.4,285.09,396.54z"/>
		<path class="st9" d="M276.47,390.69c-0.59-6.93,0.52-13.87,1.63-20.74c-1.16,8.1-2.32,16.19-3.48,24.29
			C274.72,393.88,274.82,393.52,276.47,390.69z"/>
		<path class="st9" d="M287.95,360.87c-0.54,0.26-1.08,0.52-1.62,0.79c7.32-1.89,14.64-3.78,21.96-5.68
			c-0.6-0.73-1.76-0.68-2.72-0.49c-2.74,0.55-5.31,1.67-7.92,2.63c-3.77,1.38-7.67,2.44-11.65,3.14
			C286.39,361.28,286.78,361.31,287.95,360.87z"/>
		<path class="st9" d="M312.62,363.75c-1.68,7.36-2.07,14.93-2.45,22.45C311.48,377.68,311.97,369.04,312.62,363.75z"/>
		<path class="st9" d="M259.29,415.32c3.52-3.04,7.05-6.08,10.57-9.12c-11.29,10.96-23.32,21.23-36,30.72
			c-3.28,2.45-6.64,4.87-10.45,6.47c16.84-11.53,33.98-23.33,46.15-39.3c0.2-0.26-0.17-0.67-0.47-0.53
			c-0.3,0.14-0.19,0.67,0.15,0.68"/>
		<path class="st9" d="M234.12,414.2c6.89,9.16,13.79,18.32,20.68,27.47C245.78,431.94,238.08,421.12,234.12,414.2z"/>
		<path class="st9" d="M258.67,435.71c4.18-7.91,7.95-16.02,11.29-24.28c-4.66,10.41-8.92,20.98-12.76,31.69
			C257.35,442.67,255.55,441.61,258.67,435.71z"/>
		<path class="st9" d="M266.51,402.98c-8.68,3.42-17.71,5.98-26.72,8.53c9.52-1.19,18.9-3.44,27.87-6.7
			C266.94,405.09,266.22,405.36,266.51,402.98z"/>
		<path class="st9" d="M251.63,446.36c-9.85,1.41-19.7,2.83-29.56,4.24c11.15-1.87,22.77-0.58,33.78-3.12
			C254.18,447.17,252.51,446.87,251.63,446.36z"/>
		<path class="st9" d="M216.7,439.99c2.99-8,6.23-15.92,9.73-23.73c-4.25,8.03-6.28,16.93-9.58,25.36
			c-0.08,0.22-0.14,0.52,0.08,0.62C217.15,442.34,217.15,441.82,216.7,439.99z"/>
		<path class="st9" d="M212.63,452.52c-5.96,3.47-11.81,7.13-17.54,10.95c5.98-4.12,13.24-6.66,18.19-11.87
			C213.01,451.8,212.75,452,212.63,452.52z"/>
		<path class="st9" d="M209.69,464.73c-2.05,5.17-4.31,10.26-6.77,15.26c4.51-7.45,7.63-15.66,9.16-24.13
			c-2.51,6.67-5.01,13.35-7.52,20.02c-0.6,1.6-1.25,3.26-2.58,4.39"/>
		<path class="st9" d="M208.24,449.09c-2.42-0.31-4.84-0.62-7.26-0.92C203.54,448.33,206.08,448.82,208.24,449.09z"/>
		<path class="st9" d="M276.13,418.94c-0.78,1.62-1.56,3.24-2.35,4.86c1.63-4.37,3.25-8.75,4.88-13.12
			c-1.61,5.39-3.55,10.69-5.8,15.86c1.79-4.62,3.67-9.2,5.64-13.74c0.16-0.37,0.34-0.76,0.65-1.03c0.37-0.31,0.89-0.42,1.38-0.49
			c2.56-0.41,5.17-0.53,7.75-0.34c-0.36,0.05-0.73,0.11-1.09,0.16"/>
		<path class="st9" d="M254.45,399.06c3.32-0.61,6.56-1.55,9.68-2.78C258.92,397.56,253.68,399.2,254.45,399.06z"/>
		<path class="st9" d="M265.37,387.85c0,2.61,0,5.22,0,7.82c0.11-3.93,0.22-7.86,0.33-11.79
			C265.69,384.51,265.37,385.13,265.37,387.85z"/>
		<path class="st9" d="M299.82,346.55c-2.21,1.62-4.53,3.09-6.95,4.42c3.46-1.2,6.93-2.4,10.39-3.61c0.22-0.08,0.47-0.18,0.55-0.39
			c0.18-0.5-0.66-0.68-1.15-0.95c-0.74-0.41-0.73-1.41-0.62-2.22c0.28-2.04,0.63-4.06,1.05-6.07c-0.19,3.6-0.02,7.23,0.51,10.8
			C303.92,347.92,304.01,347.21,299.82,346.55z"/>
		<path class="st9" d="M323.17,369.05c0.32-4.57,0.24-9.16-0.21-13.72c0.41,0.7,0.07,1.69-0.69,2.03c-0.76,0.33-1.78-0.06-2.08-0.81
			c4.06-2.71,10.11-1.65,13.85-4.74c-0.65,0.11-1.3,0.22-1.94,0.32"/>
		<path class="st9" d="M331.78,292.51c3.75-1.59,7.49-3.17,11.24-4.76c-3.3,1.33-6.61,2.66-9.91,3.98
			c-0.94,0.38-1.99,0.76-2.94,0.42c4.28-0.64,8.46-1.87,12.37-3.65c-3.01-1.88-5.19-4.93-5.91-8.28"/>
		<path class="st9" d="M361.32,309.52c0.9-3.73,0.41-7.74-1.36-11.18c0.49,4.11,1.13,8.2,1.92,12.27
			c-0.94-4.83-1.88-9.66-2.82-14.49c-0.03,0.68,0.24,1.36,0.73,1.85c1.95-1.34,4.07-2.47,6.29-3.36"/>
		<path class="st9" d="M219.84,468.54c-0.26,0.82-0.53,1.65-0.79,2.47c1.33-3.63,2.35-7.35,3.06-11.13
			c-0.89,3.96-1.78,7.91-2.67,11.87c0.3-3.34,0.6-6.68,0.91-10.01c0.06-0.72,0.18-1.52,0.78-1.96c0.47-0.35,1.11-0.36,1.71-0.37
			c3.37-0.03,6.75-0.06,10.12-0.08c0.03-0.73-1.09-0.85-1.85-0.7C228.47,459.15,223.06,458.47,219.84,468.54z"/>
		<path class="st9" d="M207.53,432.41c-0.13,0.23-0.25,0.45-0.38,0.68c1.55,0.88,3.1,1.76,4.64,2.64c-1.59-0.91-3.28-1.68-5.03-2.28
			c0.57,1.41,1.8,2.57,3.3,3.09c0.56-3.4,1.84-6.69,3.76-9.61C212.7,431.94,211.58,436.94,207.53,432.41z"/>
		<path class="st9" d="M338.75,404.66c-0.15-7.07-0.29-14.17,0.69-21.17c0.25,7.08,0.17,14.17-0.26,21.24
			C339.32,403.43,339.46,402.12,338.75,404.66z"/>
		<path class="st9" d="M346.79,395.64c4.22-4.69,7.87-9.85,10.85-15.33c-4.85,7.34-9.7,14.69-14.56,22.03
			c3.37-7.88,11.73-13.29,14.3-21.43c0.13-0.41,0.24-0.85,0.13-1.26c-0.09-0.33-0.32-0.61-0.54-0.88c-2.65-3.24-5.31-6.47-7.96-9.71
			c2.8,2.93,5.2,6.2,7.12,9.71"/>
		<path class="st9" d="M331.45,405.4c0.43,0.52,0.91,0.99,1.44,1.4c-1.03-1.25-2.13-2.44-3.29-3.56
			C330,403.46,330.2,403.89,331.45,405.4z"/>
		<path class="st9" d="M339.06,427.38c0.05-2,0.09-4.01,0.14-6.01c-0.23,10.78-0.46,21.56-0.69,32.34
			c0.36-10.87,0.71-21.75,1.07-32.62c0.21,14.69,0.43,29.39,0.64,44.08c0.01,0.95-0.69,2.32-1.52,1.79
			C340.4,451.7,338.85,436.39,339.06,427.38z"/>
		<path class="st9" d="M326.96,448c8.63-2.89,17.89-4.07,27.01-3.43c-6.79,1.54-13.77,2.33-20.76,2.35
			c-2.5,0.01-5.02-0.09-7.49,0.29c-2.47,0.38-4.93,1.28-6.68,2.98C319.95,450.63,320.67,450.11,326.96,448z"/>
		<path class="st9" d="M340.92,466.67c6.49-4.6,13.34-9.66,15.86-16.97C354.39,453.53,351.47,457.07,340.92,466.67z"/>
		<path class="st9" d="M350.5,438.56c0.52,0.13,1.05,0.26,1.57,0.39c-3.7-4.89-7.41-9.79-11.11-14.68
			c4.68,4.59,8.21,10.24,10.21,16.34c0.08,0.25,0.16,0.53,0.02,0.75C351.06,441.58,350.61,441.6,350.5,438.56z"/>
		<path class="st9" d="M324.28,459.29c4.02,2.96,7.61,6.44,10.64,10.31C330.03,463.42,324.89,457.42,324.28,459.29z"/>
		<path class="st9" d="M324.42,439.19c-0.12,0.28,0.46,0.22,0.66-0.02c4.23-5.26,8.17-10.73,11.79-16.38
			C335.32,425.1,330.38,425.57,324.42,439.19z"/>
		<path class="st9" d="M338.84,482.53c-0.07-2.49-0.15-5.06-0.23-7.72c0.02,2.6,0.03,5.21,0.05,7.81
			C338.72,482.59,338.78,482.56,338.84,482.53z"/>
		<path class="st9" d="M333.64,485.03c1.44-2.42,2.7-4.92,3.52-7.58l-5.05,8.3C332.62,485.51,333.13,485.27,333.64,485.03z"/>
		<path class="st9" d="M320.74,485.3c3.21-3.42,6.04-7.16,8.42-11.14"/>
		<path class="st9" d="M321.84,467.55c2.4,2.11,4.8,4.21,7.2,6.32"/>
		<path class="st9" d="M356.13,463.87c-1.94,2.75-4.21,5.28-6.74,7.55"/>
		<path class="st9" d="M350.83,419.59c1.76,3.14,3.51,6.29,5.27,9.43C352.7,423.71,349.91,417.95,350.83,419.59z"/>
		<path class="st9" d="M355.27,397.93c-2.4,5.04-5.34,9.86-8.77,14.34"/>
		<path class="st9" d="M320.61,428.51c2.87-4.02,5.74-8.05,8.61-12.07C328.96,416.48,328.7,416.51,320.61,428.51z"/>
		<path class="st9" d="M332.5,417.76c-2.62-1.75-5.2-3.55-7.75-5.4c-0.76-0.34-1.36-0.83-1.79-1.48
			C323.25,410.92,323.44,411.05,332.5,417.76z"/>
	</g>
	<g>
		<g>
			<path class="st10" d="M388.45,306.11c0.17-0.26,0.09-0.57-0.17-0.73c-20.24-12.83-46.88-33.27-67.07-46.7
				c0.36-2.02,0.65-4.06,0.53-6.11c-0.14-2.58-0.78-5.12-0.53-7.71c-0.03,0.26-1.28,0.43-1.29,0.71c-0.26,2.59,0.39,5.13,0.53,7.71
				c0.12,2.25-0.24,4.5-0.66,6.71c-1.43,3.08-4.58,10.09-8.43,19.61c-0.06,0.14-0.18,0.27-0.35,0.33
				c-18.7,6.17-57.94,1.35-74.99-19.49c-2.2-2.69-0.64-7.46,0.83-10.63c0-0.01,0-0.03,0.01-0.04c-1.33,2.34-3.33,5.58-5.62,8.33
				c-1.74,2.09-3.14,2.42-5.28,3.18c-2.43,0.87-5.66,1.95-7.64,2.39c-0.27,0.07-0.56-0.07-0.66-0.31
				c-2.16-4.98-2.2-12.88-1.39-20.89c0.46-4.53,1.98-9.89,3.78-14.97c3.37-9.5,9.69-17.7,17.6-24.34c0.32-0.27,0.47-0.46,0.4-0.55
				c-20.04,13.17-24.74,34.57-24.96,43.93c0,0.21-0.12,0.38-0.33,0.47c-9.23,3.75-15.8,15.82-11.77,24.67
				c0.1,0.24,0.03,0.5-0.18,0.64c-22.14,14.73-36.51,40.41-34.74,66.48c3.46,50.87,4.76,101.95,3.91,153.03
				c0.4,0.14,0.79,0.27,1.19,0.41c0.29-21.62,0.33-43.03,0.22-63.96c0-0.19,0.11-0.37,0.29-0.46
				c68.15-37.12,121.86-96.79,149.35-166.63c0.14-0.33,0.56-0.46,0.86-0.24l11.83,8.22c0.21,0.14,0.3,0.4,0.2,0.63
				c-25.71,63.73-75.87,120.79-138.42,161.71c64.21-37.52,114.13-97.69,139.04-160.96c0.12-0.33,0.54-0.46,0.84-0.24
				c11.14,7.62,26.29,18.38,36.95,26.24c0.21,0.16,0.27,0.43,0.15,0.66c-41.74,85.44-108.29,155.15-181.98,200.77
				c0.05,0.01,0.09,0.02,0.14,0.03c75.8-42.08,140.48-115.71,182.97-199.75c0.15-0.3,0.56-0.4,0.84-0.19
				c3.8,2.68,7.7,5.3,11.77,7.77c0.26,0.16,0.35,0.47,0.2,0.73c-43.16,68.16-100.84,152.96-172.5,196.17c0.33,0.05,0.66,0.1,1,0.15
				c0.29,0.03,0.59,0.06,0.88,0.1c30.86-18.21,64.4-48.78,87.61-77.14c0.32-0.38,0.98-0.19,1.01,0.3
				c1.5,22.93,2.13,45.99,2.07,69.08c0.43-0.13,0.87-0.27,1.3-0.4c-0.11-23.98-0.84-47.89-2.06-71.57c0.04-0.12,0.08-0.23,0.12-0.35
				c2.28-2.78,4.53-5.56,6.74-8.34c0.33-0.4,0.99-0.21,1.02,0.29c1.82,25.49,2.78,51.37,3.04,77.08c0.43-0.15,0.87-0.3,1.3-0.46
				c-0.47-26.61-1.53-53.37-3.04-79.63c0.04-0.12,0.07-0.23,0.11-0.35c16.35-20.75,31.13-41.78,45.61-63.29
				c0.32-0.46,1.04-0.27,1.05,0.27c0.14,37.93-0.17,79.52-0.43,121.56c0.56-0.35,1.11-0.71,1.66-1.06
				c-0.1-43.12-0.22-85.74,0.27-124.42c0-0.1,0.03-0.2,0.08-0.27c1.97-2.94,3.93-5.87,5.88-8.82c0.29-0.44,1.01-0.27,1.05,0.24
				c3.3,41.93,4.22,83.74,4.2,125.47c0.38-0.27,0.76-0.54,1.14-0.81c0.11-0.08,0.23-0.17,0.34-0.25
				c-0.32-42.58-1.53-85.24-4.37-128.01c0.03-0.11,0.06-0.21,0.09-0.32C376.99,323.53,382.94,314.47,388.45,306.11z M213.09,248.45
				c0.18,5.64,1.11,11.17,3.47,15.8c-5.09,1.9-9.92,4.32-14.45,7.21c0.02-0.09,0-0.17-0.02-0.24
				C199.38,262.49,204.4,252.23,213.09,248.45z M298,304.78c-29.68,50.36-73.92,92.66-126.63,121.54
				c2.22-54.17-24.52-129.59,40.82-158.72c20.42,26.01,57.07,39.64,89.64,30.51C300.58,300.35,299.31,302.59,298,304.78z
				 M302.8,296.35c-32.22,9.7-68.79-3.61-89.22-29.36c4.5-1.94,9.23-3.46,14.12-4.46c14.42,11.77,56.4,27.55,82.81,18.9
				C308.07,286.47,305.5,291.44,302.8,296.35z"/>
		</g>
	</g>
	<g id="Layer_20">
		<path class="st3" d="M230.64,376.83c9.45-18.31,11.19-38.32,11.51-57.85c0-0.46,0.01-0.92,0.01-1.38
			C237.5,337.25,235.63,357.24,230.64,376.83z"/>
		<path class="st3" d="M255.33,337.02c-1.14,7.6-1.65,15.33-3.49,22.82c6.49-15.82,7.83-33.23,8.32-50.07
			C258.51,318.85,256.54,327.88,255.33,337.02z"/>
		<path class="st3" d="M276.18,321.4c-0.42,4.38-0.16,8.89,0.14,13.18C276.9,330.2,276.66,325.77,276.18,321.4z"/>
		<path class="st3" d="M281.59,501.31c0.2-14.55,0.11-29.1-0.32-43.64c-1.44,14.41-2.96,29.58-4.37,44.49
			C278.47,501.9,280.03,501.61,281.59,501.31z"/>
	</g>
</g>
<g id="RightUpperArm">
	<g id="Layer_10">
		<path class="st11" d="M108.83,451.61c2.9,2.03,5.84,3.99,8.81,5.9c5.96,3.81,12.08,7.38,18.33,10.69
			c3.35,1.77,6.74,3.47,10.17,5.09c1.37,0.65,2.75,1.28,4.13,1.91c0.34,0.15,1.31,0.57,2.21,0.97c1.07,0.44,2.28,0.93,2.74,1.11
			c1.65,0.64,3.3,1.27,4.96,1.88c3.32,1.22,6.67,2.37,10.04,3.45c6.67,2.13,13.43,3.97,20.26,5.52c3.4-10.87,8.36-26.22,14.42-46.79
			c11.46-38.97,22.69-65.6,22.69-65.6l13.26-22.41c20.19-34.12-4.38-77.71-43.17-76.58h0c-3.13,1.66-11.36,4.89-19.15,9.34
			c0.05-0.05,0.08-0.12,0.13-0.17c-3.31,1.68-6.61,3.43-9.84,5.31c-11.16,6.83-20.84,14.92-29.35,25.37
			c-7.64,9.66-15.24,23.01-19.72,34.52c-4.95,13.11-6.83,27.15-8.59,41.02c-1.49,12.05-3.62,37.09-5.24,57.38
			C106.87,450.22,107.84,450.93,108.83,451.61z"/>
	</g>
	<g id="Layer_17">
		<path class="st12" d="M153.01,344.04c-5.85,16.32-11.75,32.63-17.43,49.02c-5.29,14.54-8.69,25.64-14.88,39.11
			c19.41-27.62,28.52-61.25,35.03-94.27c0.16-0.81,0.33-1.63,0.49-2.44C155.14,338.32,154.06,341.18,153.01,344.04z"/>
		<path class="st12" d="M172.04,483.17c-1.98-23.63-1.98-47.63-0.96-72.33c1.19-24.69,2.77-46.61,6.72-77.5
			c0.54-4.27,1.08-8.54,1.61-12.81c-0.69,2.54-1.37,5.07-2.03,7.62c-13.6,50.09-17.39,103.58-6.74,154.6
			C171.1,482.89,171.57,483.02,172.04,483.17z"/>
		<path class="st12" d="M192.04,318.4c-6.36,31.81-11.64,64.37-8.15,96.91c1.71-31.67,7.85-66.07,9-99.31
			c0.04-0.79,0.08-1.59,0.13-2.38C192.69,315.21,192.36,316.8,192.04,318.4z"/>
	</g>
	<g>
		<path class="st13" d="M106.88,450.22c1.41-19.64,1.96-39.48,4.26-58.09c1.77-13.87,3.64-27.9,8.59-41.02
			c4.49-11.51,12.09-24.86,19.72-34.5c8.5-10.45,18.19-18.54,29.36-25.38c13.07-7.61,27.21-13.08,40.3-20.69
			c-13.46,5.86-27.19,11.21-39.99,18.54c-15.51,9.2-29.21,21.87-38.72,37.57c-7.23,11.59-13.31,24.08-16.33,37.56
			c-5.82,27.77-7.26,56.45-8.73,84.9C105.84,449.49,106.36,449.85,106.88,450.22z"/>
		<path class="st13" d="M191.24,488.3c10.46-39.98,29.42-92.99,33.71-104.85c0.62-1.7,1.04-3.45,1.28-5.25
			c0.25-1.89,0.53-4.23,0.53-5.32c-0.7,2.83-1.52,5.37-2.45,7.49c-16.53,40.54-26.15,69.78-34.9,107.51
			C190.03,488.02,190.64,488.16,191.24,488.3z"/>
	</g>
</g>
<g id="Layer_14">
	<g id="Layer_12">
		<path class="st14" d="M470.85,275.06c0,120.95-98.5,219-220,219s-220-98.05-220-219"/>
	</g>
	<g id="Layer_19">
		<g>
			<g>
				<path class="st7" d="M446.71,218.07c1.62-0.31,3.29-0.3,4.93-0.05c2.38,0.37,4.72,1.28,6.85,2.63c2.13,1.34,4.07,3.14,5.68,5.27
					c1.58,2.14,2.86,4.61,3.49,7.33c-1.75-1.91-3.41-3.65-5.17-5.18c-1.75-1.56-3.58-2.93-5.48-4.12c-1.55-0.97-3.15-1.83-4.82-2.57
					c1.56,1.25,3,2.65,4.26,4.28c1.42,1.78,2.61,3.8,3.49,5.95c-1.43-1.69-2.96-3.18-4.56-4.49c-1.62-1.28-3.28-2.42-5.04-3.3
					c-2.37-1.21-4.85-2.04-7.34-2.47c2.58,5.02,6.15,9.33,10.29,12.73c2.56,2.08,5.36,3.81,8.32,5.17c2.97,1.32,6.11,2.23,9.4,2.74
					c-3.25,0.81-6.69,0.76-10.04,0c-3.36-0.72-6.62-2.18-9.62-4.2c-6.01-4.01-11.02-10.45-13.64-18.19l-1.2-3.52l3.1,0.22
					C442.06,216.49,444.45,217.09,446.71,218.07z"/>
				<path class="st7" d="M473,216.43c0.83-2.27,2.09-4.32,3.68-5.96c1.1-1.12,2.38-2.08,3.79-2.74c1.14-2.06,2.62-3.88,4.37-5.41
					l2.23-1.92l1.16,3.48c2.56,7.65,2.52,15.6,0.29,22.19c-1.1,3.3-2.74,6.3-4.88,8.77c-2.11,2.49-4.71,4.47-7.67,5.66
					c2.21-2.27,4.08-4.76,5.57-7.49c1.46-2.75,2.58-5.71,3.31-8.81c1.16-5.05,1.35-10.49,0.37-15.94c-1.66,1.75-3.06,3.81-4.16,6.11
					c-0.82,1.69-1.42,3.54-1.9,5.47c-0.45,1.96-0.75,4-0.84,6.16c-0.6-2.21-0.87-4.5-0.84-6.71c0-2.01,0.27-3.94,0.73-5.82
					c-0.84,1.53-1.55,3.11-2.17,4.76c-0.75,2.02-1.33,4.14-1.76,6.37c-0.44,2.21-0.68,4.54-0.9,7.04c-1.12-2.53-1.6-5.21-1.65-7.81
					C471.74,221.23,472.16,218.7,473,216.43z"/>
				<path class="st7" d="M434.93,187.79c1.35-0.49,2.8-0.73,4.25-0.78c2.11-0.06,4.26,0.3,6.28,1.04c2.03,0.74,3.95,1.86,5.63,3.3
					c1.66,1.45,3.11,3.21,4.03,5.27c-1.78-1.24-3.45-2.37-5.18-3.31c-1.73-0.97-3.49-1.77-5.3-2.43c-1.48-0.53-2.97-0.97-4.51-1.3
					c1.52,0.75,2.96,1.64,4.27,2.74c1.47,1.19,2.78,2.61,3.84,4.17c-1.47-1.12-2.99-2.06-4.56-2.86c-1.57-0.77-3.17-1.41-4.81-1.85
					c-2.21-0.6-4.47-0.88-6.68-0.84c2.92,3.57,6.6,6.44,10.65,8.5c2.5,1.26,5.16,2.2,7.9,2.83c2.75,0.59,5.58,0.84,8.5,0.75
					c-2.7,1.13-5.68,1.61-8.67,1.51c-3-0.06-6.02-0.72-8.89-1.86c-5.75-2.26-10.96-6.59-14.29-12.31l-1.52-2.6l2.7-0.29
					C430.69,187.24,432.84,187.35,434.93,187.79z"/>
				<path class="st7" d="M469.8,194.6c-1.57,2.39-3.54,4.51-5.83,6.11c1.66-2.24,3.03-4.58,4.11-7c1.05-2.44,1.82-4.95,2.29-7.48
					c0.73-4.11,0.69-8.3-0.28-12.23c-1.24,1.72-2.27,3.61-3.05,5.62c-0.58,1.48-0.99,3.03-1.3,4.61c-0.28,1.6-0.44,3.22-0.44,4.88
					c-0.55-1.55-0.85-3.22-0.9-4.92c-0.07-1.53,0.07-3.06,0.37-4.6c-0.61,1.36-1.11,2.73-1.53,4.13c-0.51,1.72-0.9,3.47-1.15,5.26
					c-0.27,1.79-0.37,3.62-0.45,5.57c-0.98-1.66-1.44-3.6-1.58-5.56c-0.12-1.97,0.13-4,0.7-5.92c0.57-1.93,1.49-3.78,2.68-5.4
					c0.83-1.11,1.79-2.14,2.89-2.98c0.83-1.83,1.92-3.57,3.25-5.14l1.69-1.99l1.04,2.38c2.29,5.23,2.55,11.29,1.03,16.83
					C472.57,189.55,471.4,192.22,469.8,194.6z"/>
				<path class="st7" d="M421.05,162.35c1.13-0.65,2.39-1.1,3.67-1.39c1.87-0.41,3.85-0.45,5.78-0.15c1.93,0.3,3.83,0.95,5.56,1.91
					c1.72,0.98,3.3,2.25,4.45,3.87c-1.79-0.77-3.46-1.47-5.16-1.99c-1.7-0.54-3.41-0.94-5.13-1.21c-1.4-0.21-2.81-0.34-4.24-0.37
					c1.48,0.39,2.91,0.92,4.26,1.65c1.51,0.78,2.91,1.78,4.1,2.96c-1.49-0.72-3.01-1.28-4.54-1.71c-1.53-0.4-3.06-0.69-4.59-0.79
					c-2.07-0.14-4.13-0.01-6.11,0.39c3.19,2.6,6.93,4.45,10.88,5.55c2.43,0.67,4.96,1.04,7.51,1.12c2.55,0.05,5.12-0.21,7.71-0.78
					c-2.23,1.43-4.81,2.34-7.5,2.76c-2.69,0.45-5.49,0.38-8.24-0.12c-5.5-0.99-10.85-3.85-14.76-8.23l-1.78-1.99l2.37-0.7
					C417.18,162.59,419.11,162.32,421.05,162.35z"/>
				<path class="st7" d="M453.3,162.39c-1.01,2.33-2.43,4.49-4.21,6.25c1.12-2.21,1.97-4.46,2.53-6.73
					c0.54-2.28,0.83-4.58,0.83-6.84c-0.01-3.67-0.73-7.28-2.23-10.51c-0.83,1.69-1.44,3.5-1.81,5.37c-0.28,1.38-0.4,2.78-0.41,4.2
					c0.01,1.42,0.13,2.86,0.4,4.29c-0.74-1.24-1.28-2.64-1.6-4.09c-0.31-1.31-0.43-2.66-0.42-4.03c-0.32,1.28-0.55,2.54-0.7,3.82
					c-0.18,1.57-0.24,3.14-0.18,4.74c0.05,1.59,0.25,3.18,0.5,4.89c-1.14-1.27-1.87-2.86-2.31-4.54c-0.42-1.69-0.53-3.47-0.33-5.23
					c0.2-1.76,0.71-3.51,1.52-5.11c0.56-1.1,1.26-2.15,2.09-3.05c0.44-1.72,1.14-3.4,2.07-4.98l1.18-2l1.31,1.88
					c2.89,4.13,4.1,9.32,3.64,14.35C454.95,157.56,454.33,160.06,453.3,162.39z"/>
				<path class="st7" d="M406.05,138.13c0.86-0.67,1.84-1.19,2.87-1.57c1.49-0.55,3.1-0.79,4.7-0.74c1.6,0.05,3.22,0.4,4.73,1.03
					c1.5,0.64,2.91,1.56,4.01,2.81c-1.53-0.47-2.97-0.88-4.41-1.14c-1.44-0.28-2.87-0.44-4.3-0.48c-1.17-0.03-2.33,0.01-3.5,0.14
					c1.25,0.17,2.46,0.47,3.64,0.95c1.3,0.5,2.54,1.2,3.64,2.07c-1.29-0.45-2.58-0.76-3.87-0.97c-1.29-0.18-2.57-0.26-3.83-0.18
					c-1.71,0.1-3.38,0.43-4.95,0.98c2.85,1.86,6.09,3.04,9.42,3.55c2.05,0.31,4.15,0.35,6.24,0.15c1.99-0.22,3.98-0.68,5.94-1.39
					c-20.36-25.79-41.74-40.94-54.74-45c23.79,5.57,80.84,42.3,101.74,146.06c-9.47-42.86-27.74-76.65-46.94-100.98
					c-1.64,1.35-3.57,2.35-5.64,2.97c-2.15,0.66-4.45,0.91-6.74,0.77c-4.59-0.25-9.23-2.12-12.84-5.41l-1.64-1.5l1.87-0.85
					C402.91,138.74,404.47,138.31,406.05,138.13z"/>
				<path class="st7" d="M429.55,140.48c0.7-2,1.18-3.99,1.42-5.98c0.22-1.99,0.24-3.97,0.02-5.89c-0.36-3.11-1.3-6.1-2.83-8.67
					c-0.52,1.52-0.84,3.12-0.97,4.74c-0.1,1.2-0.06,2.4,0.06,3.6c0.14,1.21,0.38,2.41,0.74,3.59c-0.72-0.98-1.3-2.1-1.7-3.3
					c-0.38-1.08-0.61-2.21-0.73-3.37c-0.14,1.12-0.2,2.22-0.2,3.32c0,1.35,0.1,2.69,0.31,4.03c0.19,1.34,0.51,2.67,0.87,4.09
					c-1.05-0.96-1.8-2.23-2.32-3.6c-0.51-1.38-0.77-2.89-0.77-4.4c0-1.51,0.25-3.05,0.75-4.49c0.35-0.99,0.82-1.95,1.42-2.81
					c0.19-1.51,0.6-3.01,1.21-4.44l0.77-1.82l1.25,1.45c2.75,3.19,4.24,7.46,4.35,11.78c0.06,2.16-0.2,4.34-0.83,6.42
					C431.79,136.81,430.84,138.79,429.55,140.48z"/>
				<path class="st7" d="M386.1,115.21c0.67-0.48,1.44-0.85,2.23-1.12c1.16-0.39,2.42-0.56,3.67-0.52s2.52,0.3,3.7,0.76
					c1.17,0.47,2.28,1.14,3.14,2.05c-1.2-0.34-2.32-0.65-3.45-0.84c-1.13-0.21-2.25-0.33-3.37-0.37c-0.91-0.03-1.82,0-2.74,0.09
					c0.98,0.13,1.93,0.35,2.85,0.7c1.02,0.37,1.99,0.88,2.85,1.52c-1.01-0.33-2.02-0.56-3.03-0.71c-1.01-0.13-2.01-0.2-2.99-0.15
					c-1.34,0.06-2.64,0.3-3.87,0.69c2.24,1.36,4.77,2.23,7.38,2.61c1.61,0.23,3.25,0.27,4.88,0.13c1.63-0.16,3.25-0.51,4.86-1.05
					c-1.31,1.04-2.89,1.79-4.57,2.25c-1.68,0.47-3.47,0.64-5.27,0.53c-3.59-0.2-7.23-1.57-10.06-3.97l-1.29-1.09l1.46-0.61
					C383.65,115.64,384.87,115.33,386.1,115.21z"/>
				<path class="st7" d="M405.74,115.77c0.55-1.43,0.92-2.86,1.11-4.29c0.18-1.43,0.18-2.85,0.02-4.23
					c-0.28-2.24-1.01-4.38-2.21-6.22c-0.4,1.09-0.65,2.24-0.75,3.4c-0.08,0.86-0.04,1.72,0.05,2.59c0.11,0.87,0.29,1.73,0.58,2.58
					c-0.56-0.7-1.01-1.51-1.32-2.37c-0.3-0.77-0.47-1.58-0.57-2.42c-0.11,0.8-0.16,1.59-0.16,2.38c0,0.97,0.08,1.93,0.24,2.9
					c0.15,0.96,0.4,1.92,0.68,2.94c-0.82-0.69-1.41-1.6-1.81-2.59c-0.4-0.99-0.6-2.07-0.6-3.16s0.19-2.19,0.59-3.23
					c0.27-0.71,0.64-1.4,1.11-2.02c0.15-1.08,0.47-2.16,0.94-3.19l0.6-1.31l0.98,1.04c2.15,2.29,3.31,5.36,3.39,8.45
					c0.05,1.55-0.16,3.12-0.65,4.61C407.48,113.14,406.74,114.56,405.74,115.77z"/>
			</g>
			<g>
				<path class="st7" d="M489.84,259.68l-0.42-0.68l-0.23,0.77c-2.01,6.8-8.65,11.94-15.55,12.09c0.74-7.13,5.83-13.52,12.51-15.62
					l0.69-0.22l-0.59-0.43c-4.41-3.23-9.82-5.01-15.23-5.01c-0.01,0-0.03,0-0.04,0v0c-5.41,0-11.13,1.78-15.53,5.01l-0.59,0.43
					l0.69,0.22c6.68,2.1,11.77,8.49,12.51,15.62c-6.9-0.15-13.54-5.29-15.55-12.09l-0.23-0.77l-0.42,0.68
					c-5.64,9.23-5.53,22.05,0.25,31.18l0.41,0.65l0.22-0.74c2.06-6.81,8.24-12.02,15.13-12.79c-0.67,7.03-5.56,13.56-12.03,15.96
					l-0.64,0.24l0.55,0.4c4.26,3.12,10.11,4.89,15.35,5.01l0,0c0.01,0,0.03,0,0.04,0v0c0,0,0.03,0,0.04,0l0,0
					c5.24-0.11,10.47-1.89,14.73-5.01l0.55-0.4l-0.64-0.24c-6.46-2.41-11.35-8.93-12.03-15.96c6.89,0.77,13.07,5.97,15.13,12.79
					l0.22,0.74l0.41-0.65C495.37,281.73,495.47,268.91,489.84,259.68z"/>
			</g>
			<g>
				<path class="st7" d="M446.71,331.64c1.62,0.31,3.29,0.3,4.93,0.05c2.38-0.37,4.72-1.28,6.85-2.63c2.13-1.34,4.07-3.14,5.68-5.27
					c1.58-2.14,2.86-4.61,3.49-7.33c-1.75,1.91-3.41,3.65-5.17,5.18c-1.75,1.56-3.58,2.93-5.48,4.12c-1.55,0.97-3.15,1.83-4.82,2.57
					c1.56-1.25,3-2.65,4.26-4.28c1.42-1.78,2.61-3.8,3.49-5.95c-1.43,1.69-2.96,3.18-4.56,4.49c-1.62,1.28-3.28,2.42-5.04,3.3
					c-2.37,1.21-4.85,2.04-7.34,2.47c2.58-5.02,6.15-9.33,10.29-12.73c2.56-2.08,5.36-3.81,8.32-5.17c2.97-1.32,6.11-2.23,9.4-2.74
					c-3.25-0.81-6.69-0.76-10.04,0c-3.36,0.72-6.62,2.18-9.62,4.2c-6.01,4.01-11.02,10.45-13.64,18.19l-1.2,3.52l3.1-0.22
					C442.06,333.22,444.45,332.62,446.71,331.64z"/>
				<path class="st7" d="M473,333.28c0.83,2.27,2.09,4.32,3.68,5.96c1.1,1.12,2.38,2.08,3.79,2.74c1.14,2.06,2.62,3.88,4.37,5.41
					l2.23,1.92l1.16-3.48c2.56-7.65,2.52-15.6,0.29-22.19c-1.1-3.3-2.74-6.3-4.88-8.77c-2.11-2.49-4.71-4.47-7.67-5.66
					c2.21,2.27,4.08,4.76,5.57,7.49c1.46,2.75,2.58,5.71,3.31,8.81c1.16,5.05,1.35,10.49,0.37,15.94c-1.66-1.75-3.06-3.81-4.16-6.11
					c-0.82-1.69-1.42-3.54-1.9-5.47c-0.45-1.96-0.75-4-0.84-6.16c-0.6,2.21-0.87,4.5-0.84,6.71c0,2.01,0.27,3.94,0.73,5.82
					c-0.84-1.53-1.55-3.11-2.17-4.76c-0.75-2.02-1.33-4.14-1.76-6.37c-0.44-2.21-0.68-4.54-0.9-7.04c-1.12,2.53-1.6,5.21-1.65,7.81
					C471.74,328.48,472.16,331,473,333.28z"/>
				<path class="st7" d="M434.93,361.92c1.35,0.49,2.8,0.73,4.25,0.78c2.11,0.06,4.26-0.3,6.28-1.04c2.03-0.74,3.95-1.86,5.63-3.3
					c1.66-1.45,3.11-3.21,4.03-5.27c-1.78,1.24-3.45,2.37-5.18,3.31c-1.73,0.97-3.49,1.77-5.3,2.43c-1.48,0.53-2.97,0.97-4.51,1.3
					c1.52-0.75,2.96-1.64,4.27-2.74c1.47-1.19,2.78-2.61,3.84-4.17c-1.47,1.12-2.99,2.06-4.56,2.86c-1.57,0.77-3.17,1.41-4.81,1.85
					c-2.21,0.6-4.47,0.88-6.68,0.84c2.92-3.57,6.6-6.44,10.65-8.5c2.5-1.26,5.16-2.2,7.9-2.83c2.75-0.59,5.58-0.84,8.5-0.75
					c-2.7-1.13-5.68-1.61-8.67-1.51c-3,0.06-6.02,0.72-8.89,1.86c-5.75,2.26-10.96,6.59-14.29,12.31l-1.52,2.6l2.7,0.29
					C430.69,362.47,432.84,362.35,434.93,361.92z"/>
				<path class="st7" d="M469.8,355.11c-1.57-2.39-3.54-4.51-5.83-6.11c1.66,2.24,3.03,4.58,4.11,7c1.05,2.44,1.82,4.95,2.29,7.48
					c0.73,4.11,0.69,8.3-0.28,12.23c-1.24-1.72-2.27-3.61-3.05-5.62c-0.58-1.48-0.99-3.03-1.3-4.61c-0.28-1.6-0.44-3.22-0.44-4.88
					c-0.55,1.55-0.85,3.22-0.9,4.92c-0.07,1.53,0.07,3.06,0.37,4.6c-0.61-1.36-1.11-2.73-1.53-4.13c-0.51-1.72-0.9-3.47-1.15-5.26
					c-0.27-1.79-0.37-3.62-0.45-5.57c-0.98,1.66-1.44,3.6-1.58,5.56c-0.12,1.97,0.13,4,0.7,5.92c0.57,1.93,1.49,3.78,2.68,5.4
					c0.83,1.11,1.79,2.14,2.89,2.98c0.83,1.83,1.92,3.57,3.25,5.14l1.69,1.99l1.04-2.38c2.29-5.23,2.55-11.29,1.03-16.83
					C472.57,360.16,471.4,357.49,469.8,355.11z"/>
				<path class="st7" d="M421.05,387.36c1.13,0.65,2.39,1.1,3.67,1.39c1.87,0.41,3.85,0.45,5.78,0.15c1.93-0.3,3.83-0.95,5.56-1.91
					c1.72-0.98,3.3-2.25,4.45-3.87c-1.79,0.77-3.46,1.47-5.16,1.99c-1.7,0.54-3.41,0.94-5.13,1.21c-1.4,0.21-2.81,0.34-4.24,0.37
					c1.48-0.39,2.91-0.92,4.26-1.65c1.51-0.78,2.91-1.78,4.1-2.96c-1.49,0.72-3.01,1.28-4.54,1.71c-1.53,0.4-3.06,0.69-4.59,0.79
					c-2.07,0.14-4.13,0.01-6.11-0.39c3.19-2.6,6.93-4.45,10.88-5.55c2.43-0.67,4.96-1.04,7.51-1.12c2.55-0.05,5.12,0.21,7.71,0.78
					c-2.23-1.43-4.81-2.34-7.5-2.76c-2.69-0.45-5.49-0.38-8.24,0.12c-5.5,0.99-10.85,3.85-14.76,8.23l-1.78,1.99l2.37,0.7
					C417.18,387.12,419.11,387.39,421.05,387.36z"/>
				<path class="st7" d="M453.3,387.32c-1.01-2.33-2.43-4.49-4.21-6.25c1.12,2.21,1.97,4.46,2.53,6.73
					c0.54,2.28,0.83,4.58,0.83,6.84c-0.01,3.67-0.73,7.28-2.23,10.51c-0.83-1.69-1.44-3.5-1.81-5.37c-0.28-1.38-0.4-2.78-0.41-4.2
					c0.01-1.42,0.13-2.86,0.4-4.29c-0.74,1.24-1.28,2.64-1.6,4.09c-0.31,1.31-0.43,2.66-0.42,4.03c-0.32-1.28-0.55-2.54-0.7-3.82
					c-0.18-1.57-0.24-3.14-0.18-4.74c0.05-1.59,0.25-3.18,0.5-4.89c-1.14,1.27-1.87,2.86-2.31,4.54c-0.42,1.69-0.53,3.47-0.33,5.23
					c0.2,1.76,0.71,3.51,1.52,5.11c0.56,1.1,1.26,2.15,2.09,3.05c0.44,1.72,1.14,3.4,2.07,4.98l1.18,2l1.31-1.88
					c2.89-4.13,4.1-9.32,3.64-14.35C454.95,392.15,454.33,389.65,453.3,387.32z"/>
				<path class="st7" d="M406.05,411.58c0.86,0.67,1.84,1.19,2.87,1.57c1.49,0.55,3.1,0.79,4.7,0.74c1.6-0.05,3.22-0.4,4.73-1.03
					c1.5-0.64,2.91-1.56,4.01-2.81c-1.53,0.47-2.97,0.88-4.41,1.14c-1.44,0.28-2.87,0.44-4.3,0.48c-1.17,0.03-2.33-0.01-3.5-0.14
					c1.25-0.17,2.46-0.47,3.64-0.95c1.3-0.5,2.54-1.2,3.64-2.07c-1.29,0.45-2.58,0.76-3.87,0.97c-1.29,0.18-2.57,0.26-3.83,0.18
					c-1.71-0.1-3.38-0.43-4.95-0.98c2.85-1.86,6.09-3.04,9.42-3.55c2.05-0.31,4.15-0.35,6.24-0.15c1.99,0.22,3.98,0.68,5.94,1.39
					c-20.36,25.79-41.74,40.94-54.74,45c23.79-5.57,80.84-42.3,101.74-146.06c-9.47,42.86-27.74,76.65-46.94,100.98
					c-1.64-1.35-3.57-2.35-5.64-2.97c-2.15-0.66-4.45-0.91-6.74-0.77c-4.59,0.25-9.23,2.12-12.84,5.41l-1.64,1.5l1.87,0.85
					C402.91,410.97,404.47,411.4,406.05,411.58z"/>
				<path class="st7" d="M429.55,409.23c0.7,2,1.18,3.99,1.42,5.98c0.22,1.99,0.24,3.97,0.02,5.89c-0.36,3.11-1.3,6.1-2.83,8.67
					c-0.52-1.52-0.84-3.12-0.97-4.74c-0.1-1.2-0.06-2.4,0.06-3.6c0.14-1.21,0.38-2.41,0.74-3.59c-0.72,0.98-1.3,2.1-1.7,3.3
					c-0.38,1.08-0.61,2.21-0.73,3.37c-0.14-1.12-0.2-2.22-0.2-3.32c0-1.35,0.1-2.69,0.31-4.03c0.19-1.34,0.51-2.67,0.87-4.09
					c-1.05,0.96-1.8,2.23-2.32,3.6c-0.51,1.38-0.77,2.89-0.77,4.4c0,1.51,0.25,3.05,0.75,4.49c0.35,0.99,0.82,1.95,1.42,2.81
					c0.19,1.51,0.6,3.01,1.21,4.44l0.77,1.82l1.25-1.45c2.75-3.19,4.24-7.46,4.35-11.78c0.06-2.16-0.2-4.34-0.83-6.42
					C431.79,412.9,430.84,410.92,429.55,409.23z"/>
				<path class="st7" d="M386.1,434.5c0.67,0.48,1.44,0.85,2.23,1.12c1.16,0.39,2.42,0.56,3.67,0.52s2.52-0.3,3.7-0.76
					c1.17-0.47,2.28-1.14,3.14-2.05c-1.2,0.34-2.32,0.65-3.45,0.84c-1.13,0.21-2.25,0.33-3.37,0.37c-0.91,0.03-1.82,0-2.74-0.09
					c0.98-0.13,1.93-0.35,2.85-0.7c1.02-0.37,1.99-0.88,2.85-1.52c-1.01,0.33-2.02,0.56-3.03,0.71c-1.01,0.13-2.01,0.2-2.99,0.15
					c-1.34-0.06-2.64-0.3-3.87-0.69c2.24-1.36,4.77-2.23,7.38-2.61c1.61-0.23,3.25-0.27,4.88-0.13c1.63,0.16,3.25,0.51,4.86,1.05
					c-1.31-1.04-2.89-1.79-4.57-2.25c-1.68-0.47-3.47-0.64-5.27-0.53c-3.59,0.2-7.23,1.57-10.06,3.97l-1.29,1.09l1.46,0.61
					C383.65,434.07,384.87,434.38,386.1,434.5z"/>
				<path class="st7" d="M405.74,433.94c0.55,1.43,0.92,2.86,1.11,4.29c0.18,1.43,0.18,2.85,0.02,4.23
					c-0.28,2.24-1.01,4.38-2.21,6.22c-0.4-1.09-0.65-2.24-0.75-3.4c-0.08-0.86-0.04-1.72,0.05-2.59c0.11-0.87,0.29-1.73,0.58-2.58
					c-0.56,0.7-1.01,1.51-1.32,2.37c-0.3,0.77-0.47,1.58-0.57,2.42c-0.11-0.8-0.16-1.59-0.16-2.38c0-0.97,0.08-1.93,0.24-2.9
					c0.15-0.96,0.4-1.92,0.68-2.94c-0.82,0.69-1.41,1.6-1.81,2.59c-0.4,0.99-0.6,2.07-0.6,3.16s0.19,2.19,0.59,3.23
					c0.27,0.71,0.64,1.4,1.11,2.02c0.15,1.08,0.47,2.16,0.94,3.19l0.6,1.31l0.98-1.04c2.15-2.29,3.31-5.36,3.39-8.45
					c0.05-1.55-0.16-3.12-0.65-4.61C407.48,436.57,406.74,435.15,405.74,433.94z"/>
			</g>
		</g>
		<g>
			<g>
				<path class="st7" d="M56.11,218.07c-1.62-0.31-3.29-0.3-4.93-0.05c-2.38,0.37-4.72,1.28-6.85,2.63
					c-2.13,1.34-4.07,3.14-5.68,5.27c-1.58,2.14-2.86,4.61-3.49,7.33c1.75-1.91,3.41-3.65,5.17-5.18c1.75-1.56,3.58-2.93,5.48-4.12
					c1.55-0.97,3.15-1.83,4.82-2.57c-1.56,1.25-3,2.65-4.26,4.28c-1.42,1.78-2.61,3.8-3.49,5.95c1.43-1.69,2.96-3.18,4.56-4.49
					c1.62-1.28,3.28-2.42,5.04-3.3c2.37-1.21,4.85-2.04,7.34-2.47c-2.58,5.02-6.15,9.33-10.29,12.73c-2.56,2.08-5.36,3.81-8.32,5.17
					c-2.97,1.32-6.11,2.23-9.4,2.74c3.25,0.81,6.69,0.76,10.04,0c3.36-0.72,6.62-2.18,9.62-4.2c6.01-4.01,11.02-10.45,13.64-18.19
					l1.2-3.52l-3.1,0.22C60.76,216.49,58.37,217.09,56.11,218.07z"/>
				<path class="st7" d="M29.82,216.43c-0.83-2.27-2.09-4.32-3.68-5.96c-1.1-1.12-2.38-2.08-3.79-2.74
					c-1.14-2.06-2.62-3.88-4.37-5.41l-2.23-1.92l-1.16,3.48c-2.56,7.65-2.52,15.6-0.29,22.19c1.1,3.3,2.74,6.3,4.88,8.77
					c2.11,2.49,4.71,4.47,7.67,5.66c-2.21-2.27-4.08-4.76-5.57-7.49c-1.46-2.75-2.58-5.71-3.31-8.81
					c-1.16-5.05-1.35-10.49-0.37-15.94c1.66,1.75,3.06,3.81,4.16,6.11c0.82,1.69,1.42,3.54,1.9,5.47c0.45,1.96,0.75,4,0.84,6.16
					c0.6-2.21,0.87-4.5,0.84-6.71c0-2.01-0.27-3.94-0.73-5.82c0.84,1.53,1.55,3.11,2.17,4.76c0.75,2.02,1.33,4.14,1.76,6.37
					c0.44,2.21,0.68,4.54,0.9,7.04c1.12-2.53,1.6-5.21,1.65-7.81C31.09,221.23,30.66,218.7,29.82,216.43z"/>
				<path class="st7" d="M67.9,187.79c-1.35-0.49-2.8-0.73-4.25-0.78c-2.11-0.06-4.26,0.3-6.28,1.04c-2.03,0.74-3.95,1.86-5.63,3.3
					c-1.66,1.45-3.11,3.21-4.03,5.27c1.78-1.24,3.45-2.37,5.18-3.31c1.73-0.97,3.49-1.77,5.3-2.43c1.48-0.53,2.97-0.97,4.51-1.3
					c-1.52,0.75-2.96,1.64-4.27,2.74c-1.47,1.19-2.78,2.61-3.84,4.17c1.47-1.12,2.99-2.06,4.56-2.86c1.57-0.77,3.17-1.41,4.81-1.85
					c2.21-0.6,4.47-0.88,6.68-0.84c-2.92,3.57-6.6,6.44-10.65,8.5c-2.5,1.26-5.16,2.2-7.9,2.83c-2.75,0.59-5.58,0.84-8.5,0.75
					c2.7,1.13,5.68,1.61,8.67,1.51c3-0.06,6.02-0.72,8.89-1.86c5.75-2.26,10.96-6.59,14.29-12.31l1.52-2.6l-2.7-0.29
					C72.13,187.24,69.98,187.35,67.9,187.79z"/>
				<path class="st7" d="M33.02,194.6c1.57,2.39,3.54,4.51,5.83,6.11c-1.66-2.24-3.03-4.58-4.11-7c-1.05-2.44-1.82-4.95-2.29-7.48
					c-0.73-4.11-0.69-8.3,0.28-12.23c1.24,1.72,2.27,3.61,3.05,5.62c0.58,1.48,0.99,3.03,1.3,4.61c0.28,1.6,0.44,3.22,0.44,4.88
					c0.55-1.55,0.85-3.22,0.9-4.92c0.07-1.53-0.07-3.06-0.37-4.6c0.61,1.36,1.11,2.73,1.53,4.13c0.51,1.72,0.9,3.47,1.15,5.26
					c0.27,1.79,0.37,3.62,0.45,5.57c0.98-1.66,1.44-3.6,1.58-5.56c0.12-1.97-0.13-4-0.7-5.92c-0.57-1.93-1.49-3.78-2.68-5.4
					c-0.83-1.11-1.79-2.14-2.89-2.98c-0.83-1.83-1.92-3.57-3.25-5.14l-1.69-1.99l-1.04,2.38c-2.29,5.23-2.55,11.29-1.03,16.83
					C30.25,189.55,31.42,192.22,33.02,194.6z"/>
				<path class="st7" d="M81.77,162.35c-1.13-0.65-2.39-1.1-3.67-1.39c-1.87-0.41-3.85-0.45-5.78-0.15
					c-1.93,0.3-3.83,0.95-5.56,1.91c-1.72,0.98-3.3,2.25-4.45,3.87c1.79-0.77,3.46-1.47,5.16-1.99c1.7-0.54,3.41-0.94,5.13-1.21
					c1.4-0.21,2.81-0.34,4.24-0.37c-1.48,0.39-2.91,0.92-4.26,1.65c-1.51,0.78-2.91,1.78-4.1,2.96c1.49-0.72,3.01-1.28,4.54-1.71
					c1.53-0.4,3.06-0.69,4.59-0.79c2.07-0.14,4.13-0.01,6.11,0.39c-3.19,2.6-6.93,4.45-10.88,5.55c-2.43,0.67-4.96,1.04-7.51,1.12
					c-2.55,0.05-5.12-0.21-7.71-0.78c2.23,1.43,4.81,2.34,7.5,2.76c2.69,0.45,5.49,0.38,8.24-0.12c5.5-0.99,10.85-3.85,14.76-8.23
					l1.78-1.99l-2.37-0.7C85.64,162.59,83.71,162.32,81.77,162.35z"/>
				<path class="st7" d="M49.52,162.39c1.01,2.33,2.43,4.49,4.21,6.25c-1.12-2.21-1.97-4.46-2.53-6.73
					c-0.54-2.28-0.83-4.58-0.83-6.84c0.01-3.67,0.73-7.28,2.23-10.51c0.83,1.69,1.44,3.5,1.81,5.37c0.28,1.38,0.4,2.78,0.41,4.2
					c-0.01,1.42-0.13,2.86-0.4,4.29c0.74-1.24,1.28-2.64,1.6-4.09c0.31-1.31,0.43-2.66,0.42-4.03c0.32,1.28,0.55,2.54,0.7,3.82
					c0.18,1.57,0.24,3.14,0.18,4.74c-0.05,1.59-0.25,3.18-0.5,4.89c1.14-1.27,1.87-2.86,2.31-4.54c0.42-1.69,0.53-3.47,0.33-5.23
					c-0.2-1.76-0.71-3.51-1.52-5.11c-0.56-1.1-1.26-2.15-2.09-3.05c-0.44-1.72-1.14-3.4-2.07-4.98l-1.18-2l-1.31,1.88
					c-2.89,4.13-4.1,9.32-3.64,14.35C47.87,157.56,48.49,160.06,49.52,162.39z"/>
				<path class="st7" d="M96.77,138.13c-0.86-0.67-1.84-1.19-2.87-1.57c-1.49-0.55-3.1-0.79-4.7-0.74c-1.6,0.05-3.22,0.4-4.73,1.03
					c-1.5,0.64-2.91,1.56-4.01,2.81c1.53-0.47,2.97-0.88,4.41-1.14c1.44-0.28,2.87-0.44,4.3-0.48c1.17-0.03,2.33,0.01,3.5,0.14
					c-1.25,0.17-2.46,0.47-3.64,0.95c-1.3,0.5-2.54,1.2-3.64,2.07c1.29-0.45,2.58-0.76,3.87-0.97c1.29-0.18,2.57-0.26,3.83-0.18
					c1.71,0.1,3.38,0.43,4.95,0.98c-2.85,1.86-6.09,3.04-9.42,3.55c-2.05,0.31-4.15,0.35-6.24,0.15c-1.99-0.22-3.98-0.68-5.94-1.39
					c20.36-25.79,41.74-40.94,54.74-45c-23.79,5.57-80.84,42.3-101.74,146.06c9.47-42.86,27.74-76.65,46.94-100.98
					c1.64,1.35,3.57,2.35,5.64,2.97c2.15,0.66,4.45,0.91,6.74,0.77c4.59-0.25,9.23-2.12,12.84-5.41l1.64-1.5l-1.87-0.85
					C99.91,138.74,98.35,138.31,96.77,138.13z"/>
				<path class="st7" d="M73.27,140.48c-0.7-2-1.18-3.99-1.42-5.98c-0.22-1.99-0.24-3.97-0.02-5.89c0.36-3.11,1.3-6.1,2.83-8.67
					c0.52,1.52,0.84,3.12,0.97,4.74c0.1,1.2,0.06,2.4-0.06,3.6c-0.14,1.21-0.38,2.41-0.74,3.59c0.72-0.98,1.3-2.1,1.7-3.3
					c0.38-1.08,0.61-2.21,0.73-3.37c0.14,1.12,0.2,2.22,0.2,3.32c0,1.35-0.1,2.69-0.31,4.03c-0.19,1.34-0.51,2.67-0.87,4.09
					c1.05-0.96,1.8-2.23,2.32-3.6c0.51-1.38,0.77-2.89,0.77-4.4c0-1.51-0.25-3.05-0.75-4.49c-0.35-0.99-0.82-1.95-1.42-2.81
					c-0.19-1.51-0.6-3.01-1.21-4.44l-0.77-1.82l-1.25,1.45c-2.75,3.19-4.24,7.46-4.35,11.78c-0.06,2.16,0.2,4.34,0.83,6.42
					C71.03,136.81,71.98,138.79,73.27,140.48z"/>
				<path class="st7" d="M116.72,115.21c-0.67-0.48-1.44-0.85-2.23-1.12c-1.16-0.39-2.42-0.56-3.67-0.52s-2.52,0.3-3.7,0.76
					c-1.17,0.47-2.28,1.14-3.14,2.05c1.2-0.34,2.32-0.65,3.45-0.84c1.13-0.21,2.25-0.33,3.37-0.37c0.91-0.03,1.82,0,2.74,0.09
					c-0.98,0.13-1.93,0.35-2.85,0.7c-1.02,0.37-1.99,0.88-2.85,1.52c1.01-0.33,2.02-0.56,3.03-0.71c1.01-0.13,2.01-0.2,2.99-0.15
					c1.34,0.06,2.64,0.3,3.87,0.69c-2.24,1.36-4.77,2.23-7.38,2.61c-1.61,0.23-3.25,0.27-4.88,0.13c-1.63-0.16-3.25-0.51-4.86-1.05
					c1.31,1.04,2.89,1.79,4.57,2.25c1.68,0.47,3.47,0.64,5.27,0.53c3.59-0.2,7.23-1.57,10.06-3.97l1.29-1.09l-1.46-0.61
					C119.17,115.64,117.95,115.33,116.72,115.21z"/>
				<path class="st7" d="M97.09,115.77c-0.55-1.43-0.92-2.86-1.11-4.29c-0.18-1.43-0.18-2.85-0.02-4.23
					c0.28-2.24,1.01-4.38,2.21-6.22c0.4,1.09,0.65,2.24,0.75,3.4c0.08,0.86,0.04,1.72-0.05,2.59c-0.11,0.87-0.29,1.73-0.58,2.58
					c0.56-0.7,1.01-1.51,1.32-2.37c0.3-0.77,0.47-1.58,0.57-2.42c0.11,0.8,0.16,1.59,0.16,2.38c0,0.97-0.08,1.93-0.24,2.9
					c-0.15,0.96-0.4,1.92-0.68,2.94c0.82-0.69,1.41-1.6,1.81-2.59c0.4-0.99,0.6-2.07,0.6-3.16s-0.19-2.19-0.59-3.23
					c-0.27-0.71-0.64-1.4-1.11-2.02c-0.15-1.08-0.47-2.16-0.94-3.19l-0.6-1.31l-0.98,1.04c-2.15,2.29-3.31,5.36-3.39,8.45
					c-0.05,1.55,0.16,3.12,0.65,4.61C95.34,113.14,96.08,114.56,97.09,115.77z"/>
			</g>
			<g>
				<path class="st7" d="M49.84,259.68L49.42,259l-0.23,0.77c-2.01,6.8-8.65,11.94-15.55,12.09c0.74-7.13,5.83-13.52,12.51-15.62
					l0.69-0.22l-0.59-0.43c-4.41-3.23-9.82-5.01-15.23-5.01c-0.01,0-0.03,0-0.04,0v0c-5.41,0-11.13,1.78-15.53,5.01l-0.59,0.43
					l0.69,0.22c6.68,2.1,11.77,8.49,12.51,15.62c-6.9-0.15-13.54-5.29-15.55-12.09L12.27,259l-0.42,0.68
					c-5.64,9.23-5.53,22.05,0.25,31.18l0.41,0.65l0.22-0.74c2.06-6.81,8.24-12.02,15.13-12.79c-0.67,7.03-5.56,13.56-12.03,15.96
					l-0.64,0.24l0.55,0.4c4.26,3.12,10.11,4.89,15.35,5.01l0,0c0.01,0,0.03,0,0.04,0v0c0,0,0.03,0,0.04,0l0,0
					c5.24-0.11,10.47-1.89,14.73-5.01l0.55-0.4l-0.64-0.24c-6.46-2.41-11.35-8.93-12.03-15.96c6.89,0.77,13.07,5.97,15.13,12.79
					l0.22,0.74l0.41-0.65C55.37,281.73,55.47,268.91,49.84,259.68z"/>
			</g>
			<g>
				<path class="st7" d="M56.11,331.64c-1.62,0.31-3.29,0.3-4.93,0.05c-2.38-0.37-4.72-1.28-6.85-2.63
					c-2.13-1.34-4.07-3.14-5.68-5.27c-1.58-2.14-2.86-4.61-3.49-7.33c1.75,1.91,3.41,3.65,5.17,5.18c1.75,1.56,3.58,2.93,5.48,4.12
					c1.55,0.97,3.15,1.83,4.82,2.57c-1.56-1.25-3-2.65-4.26-4.28c-1.42-1.78-2.61-3.8-3.49-5.95c1.43,1.69,2.96,3.18,4.56,4.49
					c1.62,1.28,3.28,2.42,5.04,3.3c2.37,1.21,4.85,2.04,7.34,2.47c-2.58-5.02-6.15-9.33-10.29-12.73c-2.56-2.08-5.36-3.81-8.32-5.17
					c-2.97-1.32-6.11-2.23-9.4-2.74c3.25-0.81,6.69-0.76,10.04,0c3.36,0.72,6.62,2.18,9.62,4.2c6.01,4.01,11.02,10.45,13.64,18.19
					l1.2,3.52l-3.1-0.22C60.76,333.22,58.37,332.62,56.11,331.64z"/>
				<path class="st7" d="M29.82,333.28c-0.83,2.27-2.09,4.32-3.68,5.96c-1.1,1.12-2.38,2.08-3.79,2.74
					c-1.14,2.06-2.62,3.88-4.37,5.41l-2.23,1.92l-1.16-3.48c-2.56-7.65-2.52-15.6-0.29-22.19c1.1-3.3,2.74-6.3,4.88-8.77
					c2.11-2.49,4.71-4.47,7.67-5.66c-2.21,2.27-4.08,4.76-5.57,7.49c-1.46,2.75-2.58,5.71-3.31,8.81
					c-1.16,5.05-1.35,10.49-0.37,15.94c1.66-1.75,3.06-3.81,4.16-6.11c0.82-1.69,1.42-3.54,1.9-5.47c0.45-1.96,0.75-4,0.84-6.16
					c0.6,2.21,0.87,4.5,0.84,6.71c0,2.01-0.27,3.94-0.73,5.82c0.84-1.53,1.55-3.11,2.17-4.76c0.75-2.02,1.33-4.14,1.76-6.37
					c0.44-2.21,0.68-4.54,0.9-7.04c1.12,2.53,1.6,5.21,1.65,7.81C31.09,328.48,30.66,331,29.82,333.28z"/>
				<path class="st7" d="M67.9,361.92c-1.35,0.49-2.8,0.73-4.25,0.78c-2.11,0.06-4.26-0.3-6.28-1.04c-2.03-0.74-3.95-1.86-5.63-3.3
					c-1.66-1.45-3.11-3.21-4.03-5.27c1.78,1.24,3.45,2.37,5.18,3.31c1.73,0.97,3.49,1.77,5.3,2.43c1.48,0.53,2.97,0.97,4.51,1.3
					c-1.52-0.75-2.96-1.64-4.27-2.74c-1.47-1.19-2.78-2.61-3.84-4.17c1.47,1.12,2.99,2.06,4.56,2.86c1.57,0.77,3.17,1.41,4.81,1.85
					c2.21,0.6,4.47,0.88,6.68,0.84c-2.92-3.57-6.6-6.44-10.65-8.5c-2.5-1.26-5.16-2.2-7.9-2.83c-2.75-0.59-5.58-0.84-8.5-0.75
					c2.7-1.13,5.68-1.61,8.67-1.51c3,0.06,6.02,0.72,8.89,1.86c5.75,2.26,10.96,6.59,14.29,12.31l1.52,2.6l-2.7,0.29
					C72.13,362.47,69.98,362.35,67.9,361.92z"/>
				<path class="st7" d="M33.02,355.11c1.57-2.39,3.54-4.51,5.83-6.11c-1.66,2.24-3.03,4.58-4.11,7c-1.05,2.44-1.82,4.95-2.29,7.48
					c-0.73,4.11-0.69,8.3,0.28,12.23c1.24-1.72,2.27-3.61,3.05-5.62c0.58-1.48,0.99-3.03,1.3-4.61c0.28-1.6,0.44-3.22,0.44-4.88
					c0.55,1.55,0.85,3.22,0.9,4.92c0.07,1.53-0.07,3.06-0.37,4.6c0.61-1.36,1.11-2.73,1.53-4.13c0.51-1.72,0.9-3.47,1.15-5.26
					c0.27-1.79,0.37-3.62,0.45-5.57c0.98,1.66,1.44,3.6,1.58,5.56c0.12,1.97-0.13,4-0.7,5.92c-0.57,1.93-1.49,3.78-2.68,5.4
					c-0.83,1.11-1.79,2.14-2.89,2.98c-0.83,1.83-1.92,3.57-3.25,5.14l-1.69,1.99l-1.04-2.38c-2.29-5.23-2.55-11.29-1.03-16.83
					C30.25,360.16,31.42,357.49,33.02,355.11z"/>
				<path class="st7" d="M81.77,387.36c-1.13,0.65-2.39,1.1-3.67,1.39c-1.87,0.41-3.85,0.45-5.78,0.15
					c-1.93-0.3-3.83-0.95-5.56-1.91c-1.72-0.98-3.3-2.25-4.45-3.87c1.79,0.77,3.46,1.47,5.16,1.99c1.7,0.54,3.41,0.94,5.13,1.21
					c1.4,0.21,2.81,0.34,4.24,0.37c-1.48-0.39-2.91-0.92-4.26-1.65c-1.51-0.78-2.91-1.78-4.1-2.96c1.49,0.72,3.01,1.28,4.54,1.71
					c1.53,0.4,3.06,0.69,4.59,0.79c2.07,0.14,4.13,0.01,6.11-0.39c-3.19-2.6-6.93-4.45-10.88-5.55c-2.43-0.67-4.96-1.04-7.51-1.12
					c-2.55-0.05-5.12,0.21-7.71,0.78c2.23-1.43,4.81-2.34,7.5-2.76c2.69-0.45,5.49-0.38,8.24,0.12c5.5,0.99,10.85,3.85,14.76,8.23
					l1.78,1.99l-2.37,0.7C85.64,387.12,83.71,387.39,81.77,387.36z"/>
				<path class="st7" d="M49.52,387.32c1.01-2.33,2.43-4.49,4.21-6.25c-1.12,2.21-1.97,4.46-2.53,6.73
					c-0.54,2.28-0.83,4.58-0.83,6.84c0.01,3.67,0.73,7.28,2.23,10.51c0.83-1.69,1.44-3.5,1.81-5.37c0.28-1.38,0.4-2.78,0.41-4.2
					c-0.01-1.42-0.13-2.86-0.4-4.29c0.74,1.24,1.28,2.64,1.6,4.09c0.31,1.31,0.43,2.66,0.42,4.03c0.32-1.28,0.55-2.54,0.7-3.82
					c0.18-1.57,0.24-3.14,0.18-4.74c-0.05-1.59-0.25-3.18-0.5-4.89c1.14,1.27,1.87,2.86,2.31,4.54c0.42,1.69,0.53,3.47,0.33,5.23
					c-0.2,1.76-0.71,3.51-1.52,5.11c-0.56,1.1-1.26,2.15-2.09,3.05c-0.44,1.72-1.14,3.4-2.07,4.98l-1.18,2l-1.31-1.88
					c-2.89-4.13-4.1-9.32-3.64-14.35C47.87,392.15,48.49,389.65,49.52,387.32z"/>
				<path class="st7" d="M96.77,411.58c-0.86,0.67-1.84,1.19-2.87,1.57c-1.49,0.55-3.1,0.79-4.7,0.74c-1.6-0.05-3.22-0.4-4.73-1.03
					c-1.5-0.64-2.91-1.56-4.01-2.81c1.53,0.47,2.97,0.88,4.41,1.14c1.44,0.28,2.87,0.44,4.3,0.48c1.17,0.03,2.33-0.01,3.5-0.14
					c-1.25-0.17-2.46-0.47-3.64-0.95c-1.3-0.5-2.54-1.2-3.64-2.07c1.29,0.45,2.58,0.76,3.87,0.97c1.29,0.18,2.57,0.26,3.83,0.18
					c1.71-0.1,3.38-0.43,4.95-0.98c-2.85-1.86-6.09-3.04-9.42-3.55c-2.05-0.31-4.15-0.35-6.24-0.15c-1.99,0.22-3.98,0.68-5.94,1.39
					c20.36,25.79,41.74,40.94,54.74,45c-23.79-5.57-80.84-42.3-101.74-146.06c9.47,42.86,27.74,76.65,46.94,100.98
					c1.64-1.35,3.57-2.35,5.64-2.97c2.15-0.66,4.45-0.91,6.74-0.77c4.59,0.25,9.23,2.12,12.84,5.41l1.64,1.5l-1.87,0.85
					C99.91,410.97,98.35,411.4,96.77,411.58z"/>
				<path class="st7" d="M73.27,409.23c-0.7,2-1.18,3.99-1.42,5.98c-0.22,1.99-0.24,3.97-0.02,5.89c0.36,3.11,1.3,6.1,2.83,8.67
					c0.52-1.52,0.84-3.12,0.97-4.74c0.1-1.2,0.06-2.4-0.06-3.6c-0.14-1.21-0.38-2.41-0.74-3.59c0.72,0.98,1.3,2.1,1.7,3.3
					c0.38,1.08,0.61,2.21,0.73,3.37c0.14-1.12,0.2-2.22,0.2-3.32c0-1.35-0.1-2.69-0.31-4.03c-0.19-1.34-0.51-2.67-0.87-4.09
					c1.05,0.96,1.8,2.23,2.32,3.6c0.51,1.38,0.77,2.89,0.77,4.4c0,1.51-0.25,3.05-0.75,4.49c-0.35,0.99-0.82,1.95-1.42,2.81
					c-0.19,1.51-0.6,3.01-1.21,4.44l-0.77,1.82l-1.25-1.45c-2.75-3.19-4.24-7.46-4.35-11.78c-0.06-2.16,0.2-4.34,0.83-6.42
					C71.03,412.9,71.98,410.92,73.27,409.23z"/>
				<path class="st7" d="M116.72,434.5c-0.67,0.48-1.44,0.85-2.23,1.12c-1.16,0.39-2.42,0.56-3.67,0.52s-2.52-0.3-3.7-0.76
					c-1.17-0.47-2.28-1.14-3.14-2.05c1.2,0.34,2.32,0.65,3.45,0.84c1.13,0.21,2.25,0.33,3.37,0.37c0.91,0.03,1.82,0,2.74-0.09
					c-0.98-0.13-1.93-0.35-2.85-0.7c-1.02-0.37-1.99-0.88-2.85-1.52c1.01,0.33,2.02,0.56,3.03,0.71c1.01,0.13,2.01,0.2,2.99,0.15
					c1.34-0.06,2.64-0.3,3.87-0.69c-2.24-1.36-4.77-2.23-7.38-2.61c-1.61-0.23-3.25-0.27-4.88-0.13c-1.63,0.16-3.25,0.51-4.86,1.05
					c1.31-1.04,2.89-1.79,4.57-2.25c1.68-0.47,3.47-0.64,5.27-0.53c3.59,0.2,7.23,1.57,10.06,3.97l1.29,1.09l-1.46,0.61
					C119.17,434.07,117.95,434.38,116.72,434.5z"/>
				<path class="st7" d="M97.09,433.94c-0.55,1.43-0.92,2.86-1.11,4.29c-0.18,1.43-0.18,2.85-0.02,4.23
					c0.28,2.24,1.01,4.38,2.21,6.22c0.4-1.09,0.65-2.24,0.75-3.4c0.08-0.86,0.04-1.72-0.05-2.59c-0.11-0.87-0.29-1.73-0.58-2.58
					c0.56,0.7,1.01,1.51,1.32,2.37c0.3,0.77,0.47,1.58,0.57,2.42c0.11-0.8,0.16-1.59,0.16-2.38c0-0.97-0.08-1.93-0.24-2.9
					c-0.15-0.96-0.4-1.92-0.68-2.94c0.82,0.69,1.41,1.6,1.81,2.59c0.4,0.99,0.6,2.07,0.6,3.16s-0.19,2.19-0.59,3.23
					c-0.27,0.71-0.64,1.4-1.11,2.02c-0.15,1.08-0.47,2.16-0.94,3.19l-0.6,1.31l-0.98-1.04c-2.15-2.29-3.31-5.36-3.39-8.45
					c-0.05-1.55,0.16-3.12,0.65-4.61C95.34,436.57,96.08,435.15,97.09,433.94z"/>
			</g>
		</g>
	</g>
</g>
<g id="HEAD">
	<g id="Layer_27">
		<path class="st4" d="M256.31,215.14c-3.85,3.33-9.28,5.14-14.19,3.77c-4.91-1.36-8.81-6.38-7.98-11.37
			c1.28-7.74,2.57-15.49,3.85-23.23C244.07,194.61,250.16,204.9,256.31,215.14z"/>
	</g>
	<g id="Layer_9">
		<g>
			<path class="st7" d="M328.9,88.87c8.72-4.06,16.79-22.27-3.39-37.79c-7.43-5.43-25.26-12.24-25.26-12.24s-1.28-0.6-1.29-0.53
				c-0.02,0.08,1.25,1.3,1.25,1.3s21.1,22.3,12.06,43.68c4.7,2.36,10.04,3.95,15.05,5.94C327.32,89.17,327.64,89.46,328.9,88.87z"/>
			<path class="st15" d="M346.12,62.8c-17.75-19.43-44.9-34.08-74.73-40.4c12.44,18.63,46.99,31.52,27.11,58.03
				c4.89,0.36,9.45,1.3,13.66,2.82c9.72-28.71-8.88-36.45-23.72-55.06c3.58,3.67,7.26,7.02,10.72,10.28c0,0,24.87,8.48,33.53,17.97
				c8.41,9.22,8.32,26.46-3.8,32.43c-1.78,0.91-0.71,1.11-0.49,1.18c2.72,0.96,6.59,3.1,8.75,4.49
				C350.17,90.74,355.81,72.8,346.12,62.8z"/>
			<path class="st7" d="M247.8,38.83c-0.03-0.02-0.06-0.04-0.09-0.07c-24.59,18.05-51.21,27.37-25.48,60.76
				c8.11-1.82,16.03-4.61,23.78-7.47C232.36,77.14,234.05,52.79,247.8,38.83z"/>
			<path class="st15" d="M267.85,23.29c-20.93,11.83-56.61,19.53-65.52,41.5c-5.7,11.9-2.55,30.39,10.06,36.4
				c0.04,0.02,0.07,0.05,0.11,0.08c3.2-0.61,6.47-0.94,9.64-1.73c-27.88-32.44-0.61-44.49,25.84-60.78
				c-0.03-0.11,0.71-0.84,0.82-0.71c2.1-1.97,4.45-3.92,7.05-5.36c-19.12,13.01-23.78,41.05-9.73,59.33
				c2.56-1.01,6.4-2.44,9.18-3.45C255.29,88.56,259.83,45.9,267.85,23.29z"/>
			<path class="st7" d="M271.27,22.42c-0.57-0.14-0.85-0.21-1.42-0.36c-0.65,0.42-1.29,0.81-1.94,1.2
				c-6.05,23.46-32.76,40.07-12.66,65.3c0,0,0.05-0.02,0.05,0.01c14.14-5.02,30.6-9.46,43.17-8.13
				C316.16,53.43,281.93,42.3,271.27,22.42z"/>
			<path class="st15" d="M269.55,20.52c2.56,0.51,5.1,1.1,7.63,1.73c4.39-8.75-7.89-16.65-14.19-9.18c-2.59,3.09-2.4,8.2,0.33,11.16
				C265.39,23.12,267.48,21.88,269.55,20.52z"/>
			<path class="st5" d="M314.93,93.28c15.45,7.66,28,18.59,37.35,32.52c0.81-14.99-12.58-34.03-33.6-37.68
				C317.62,89.98,316.23,91.63,314.93,93.28z"/>
			<path class="st15" d="M315.22,86.08c-29.08-15.11-70.06,12.21-101.6,16.41c-2.81,0.34-5.15,3.09-5.01,5.89
				C209.48,130.55,282.91,76.74,315.22,86.08z"/>
			<path class="st15" d="M314,94.44c-13.66,15.88-35.2,23.86-54.37,32.94c0.01,0.04,0.04,0.08,0.04,0.13
				c2.03,14.55-10.21,29.27-21.08,38.8c-4.73,30.79,26.9,50.77,51.95,61.82c4.7-12.8,13.78-23.8,25.58-30.88
				c-0.88-0.29-1.7-0.77-2.37-1.38c-3.62-0.28-8.92-3.17-4.8-7.83c-0.97,1-1.03,7.4,2.67,4.42c0.11-7.67-0.26-25.8,0.14-35.03
				c0.37,6.3,0.7,15.36,0.9,21.75c1.01,5.44-2.7,17.31,6.09,16.83c8.22-1.28,1.31-32.52,2.99-40.63c0.91,3.39,1.92,48.51,3.87,33.42
				c1.44,2.77-0.27,6.19-3.29,6.76c-0.52,0.54-1.13,1-1.81,1.34c12.48,3.62,22.1,14.85,23.64,27.66c0-0.01,8.05-9.84,8.04-9.86
				c0.96-4.18,8.62-55.58-5.65-56.27c1.99,11.6-17.56,10.65-14.28-0.88c-22.95,15.53,3.54-15.95,22.47,5.35c0,0,0.58-1.34,0.37-6.86
				c-0.05-1.43-1.13-5.6-1.13-5.6c-8.51-5.47-21.09-7.55-30.27-2.79c3.97-10.99,23.94-6.59,30.13,1.04
				C356.89,125.14,334.4,104.68,314,94.44z M279.27,168.24c7.69,4.51,17.34,4.2,24.72-0.81
				C297.94,174.31,285.74,174.72,279.27,168.24z M298.87,158.06c4,14.22-19.5,14.15-15.39-0.05c-4.89,0.64-8.84,5.21-12.77,6.41
				c4.68-7.84,18.4-10.29,27.28-8.08C309.48,159.64,315.86,166.49,298.87,158.06z M309.77,147.7l-0.75-0.25
				c-15.06-5.01-32.4-2.12-45.28,7.16c8.94-9.5,22.3-15.11,35.45-13.94C303.4,141.22,311.67,141.47,309.77,147.7z M348,166.78
				c-3.89,4.53-12.14,4.71-16.19,0.32C337.11,169.54,342.8,169.43,348,166.78z"/>
			<path class="st12" d="M323.83,207.67c0.15-0.11,1.27-0.98,1.42-1.04c-1.79-0.96-3.68-1.75-5.63-2.29
				c-0.43,1.51-1.52,2.86-2.99,3.45c-2.72,1.1-5.26,2.58-7.57,4.33C314.31,212.81,320.55,202.18,323.83,207.67z"/>
			<path class="st16" d="M309.48,213.75c2.03,10.33,17.76,9.73,19.03-0.71C322.25,214.11,315.78,214.4,309.48,213.75z"/>
			<path class="st17" d="M312.79,212.57c5.48,0.27,11.12-0.1,16.55-1.12l-1.34-3.02c-1.39-2.46-5.05,2.17-6.36,2.71
				C324.99,202.26,315.98,212.24,312.79,212.57z"/>
			<path class="st4" d="M330.34,210.11l1.07,2.4c-0.4,0.08-1.11,0.22-1.5,0.29c-0.71,12.53-20.1,13.24-21.93,0.8l-0.02,0
				c0.02-0.19-0.09-0.38-0.05-0.57c-5.2,4.29-9.11,10.07-11.12,16.48c3.71,2.08,7.75,3.6,12.01,4.54c2.35-4.29,7.04-7.42,12-7.35
				c4.51,0.06,8.71,2.76,11.1,6.52c2.74-0.9,5.44-1.94,7.93-3.3C339.57,222.36,336.16,214.99,330.34,210.11z"/>
			<path class="st18" d="M317.18,87.82c-40.34-5.2-66.14,20.6-102.27,28.13c-32.12,37.06-19.54,94.37,19.01,119.99
				c3.75-5.08,6.06-11.15,6.64-17.42c-2.81-1.28-6.3-3.3-7.29-5.81c-0.86,1.78-4.26,17.24-5.99,13.09
				c7.28-18.2,10.69-38.4,9.92-58.13c-7.83,7.32-15,17.91-15.28,26.19c-0.07,0.94-1.54,0.8-1.45-0.12
				c1.39-24.48,41.07-39.03,37.78-65.7c-17.87,8.71-35.61,20.28-42.07,38.86C223.65,125.61,295.43,123.13,317.18,87.82z
				 M270.22,104.35c0.01-0.01,0.01-0.01,0.02-0.02l0.2,0.26c-2.81,3.15-6.33,5.67-10.15,7.53c-3.83,1.85-7.99,3.07-12.22,3.28
				C256.13,112.96,263.47,109.35,270.22,104.35L270.22,104.35z M255.53,109c-2.76,2.07-5.9,3.22-9.35,3.43
				C248.94,110.37,252.08,109.21,255.53,109z M229.02,194.96c0.43,5.16-1.96,10.6-6.04,13.83
				C225.49,204.22,227.37,199.9,229.02,194.96z M231.35,154.92c-1.19,2.27-2.72,4.25-4.33,6.16c-1.65,1.88-3.38,3.69-5.44,5.22
				C224.06,161.87,227.33,158.06,231.35,154.92z M243.18,151.06c-5.09,4.61-10.04,9.45-14.49,14.67
				c-4.51,5.2-8.54,10.75-12.34,16.49C222.11,169.66,231.57,158.68,243.18,151.06z"/>
			<path class="st18" d="M318.67,197.48c-13.72,7.43-24.31,21.11-28.34,36.09c-2.49,2.02-0.73-2.99-0.27-4.07
				c-19.81-7.66-37.14-21.17-49.37-38.38c5.67,26.5,51.71,83.49,81.85,73.88c1.49-0.48,2.86-1.3,3.99-2.38
				c12.72-12.05,21.52-27.84,25.08-44.9l-7.24,8.87C342.4,239.42,347.33,205.9,318.67,197.48z M339.87,231.52
				c-2.3,1.18-4.73,2.18-7.24,2.95c0.93,0.98,2.45,8.6-0.12,5.63c-0.25-15.31-23.09-15.64-23.81-0.33c-2.22,2.58-1.31-3.34-0.52-4.4
				c-4.17-0.94-8.13-2.44-11.78-4.45c-0.8,1.13-0.48,9.28-2.49,6.15c0.82-13.29,9.73-25.59,22.18-30.61
				c1.65-0.67,2.66-2.74,2.15-4.43c0.09-1.92,1.96-0.43,1.57,0.86c3.18,0.89,6.34,2.32,9.03,4.22
				C343.43,214.5,342.14,242.43,339.87,231.52z"/>
		</g>
	</g>
	<g id="Layer_28">
		<path class="st19" d="M271.38,166.99c5.76-8.82,18.78-12.01,27.99-6.86s13.2,17.83,8.56,27.27c-2.04,4.16,1.31,8.06,5.97,8
			c-3.35-2.74,0.21-40.52-4.08-50.08c-14.87-5.32-32.49-2.27-44.69,7.72c-4.22-6.19-1.82-15,3.23-20.57s12.36-5.91,18.98-9.52
			c6.61-3.61,21.36-12.15,27.11-29.36c-4.57,4.72-11.34,11.85-22.86,17.56c-10.79,5.35-25.38,11.83-32.88,15.55
			c1.99,14.22-5.41,24.26-21.32,39.79c-0.11,12.33-0.01,15.23,1.9,19.83c0.55,1.33,2.49,4.33,2.86,4.98
			c5.48,9.71,20.91,26.92,49.09,38.31c5.33-13.83,12.26-24.33,26.19-32.57c-9.92,3.98-18.48,11.22-24.01,20.31
			c-1.32,2.18-3.91,3.34-6.43,2.89c-22.33-4.03-21.28-34.09-21.28-34.09S266.33,174.72,271.38,166.99z"/>
		<path class="st19" d="M355.4,166.64c0,0-1.97-3.93-9.71-6.62c-7.74-2.68-20.88,0.73-22.08,2.61c-1.2,1.89,1.92,25.53,1.92,27.7
			c-0.01,2.17-2.74,7.46-2.47,1.91c0.27-5.55,0.24-12.83-0.73-22.95s-0.91-14.21-0.25-16.74c0.66-2.53,2.26-5.8,2.26-5.8
			s6.82-5.76,15.59-3.28s14.29,6.18,14.29,6.18S356.21,153.96,355.4,166.64z"/>
	</g>
	<path class="st2" d="M338.54,95.61c44.95-29.15-30.26-65.71-59.9-72.98c6.2-20.84-28.35-16.08-16.64,2.29
		c-20.44,9.3-53.13,19.24-60.98,39.26c-5.84,12.19-2.74,30.98,9.81,37.8c-5.96,3.16-3.94,12.44,2.29,13.95
		c-28.85,34.61-21.93,89.62,13.83,116.42c0.62,0.46,6.25,4.57,10.55,6.99c-1.96-1.66-3.92-3.32-5.88-4.98
		c-36.71-26.34-48.16-82.08-16.69-118.38c36.13-7.53,61.92-33.33,102.27-28.13c-21.75,35.31-93.53,37.79-101,79.08
		c6.46-18.58,24.2-30.15,42.07-38.86c3.29,26.67-36.39,41.22-37.78,65.7c-0.09,0.92,1.38,1.06,1.45,0.12
		c0.29-8.28,7.45-18.86,15.28-26.19c0.77,19.73-2.63,39.92-9.92,58.13c1.73,4.15,5.13-11.31,5.99-13.09
		c1.35,3.44,6.13,7.42,13.68,6.7c0-0.04-0.02-0.07-0.06-0.08c-6.74-1.73-11.96-2.69-11.39-13.08c0.39-7.05,2.69-14.8,2.57-18.95
		c10.46,36.4,41.13,81.2,81.59,80.53c0.2,0,3.66,0.09,6.86-2.55c41.95-34.69,32.02-83.25,26.48-136.56
		C356.15,118.45,349.17,104.29,338.54,95.61z M262.98,13.07c6.3-7.47,18.58,0.43,14.19,9.18c-2.52-0.63-5.06-1.22-7.63-1.73
		c-2.07,1.36-4.16,2.6-6.23,3.71C260.59,21.27,260.39,16.16,262.98,13.07z M202.33,64.79c8.91-21.97,44.59-29.67,65.52-41.5
		c-8.09,22.8-34.69,40.37-12.63,65.21c-19.99-25.78,6.72-41.65,12.69-65.24c0.65-0.39,1.29-0.78,1.94-1.2
		c0.57,0.14,0.85,0.21,1.42,0.36c10.66,19.89,44.89,31.02,27.2,58.01c-15.47-1.63-36.5,5.35-52.35,11.59
		c-14.05-18.28-9.39-46.32,9.73-59.33c-20.79,11.52-25.82,41.92-9.83,59.37c-7.75,2.86-15.67,5.65-23.78,7.47
		c-25.87-33.56,1.17-42.8,25.86-61.03c-26.58,16.41-53.97,28.45-25.95,61.05c-3.18,0.79-6.44,1.12-9.64,1.73
		c-0.04-0.03-0.07-0.06-0.11-0.08C199.78,95.18,196.62,76.69,202.33,64.79z M208.61,108.38c-0.14-2.8,2.2-5.55,5.01-5.89
		c31.54-4.19,72.52-31.51,101.6-16.41C282.91,76.74,209.48,130.55,208.61,108.38z M312.27,83.29c11.84-27.99-7.14-37.97-23.82-55.1
		c14.84,18.61,33.44,26.35,23.72,55.06c-4.21-1.52-8.76-2.46-13.66-2.82c19.88-26.51-14.68-39.4-27.11-58.03
		c29.82,6.33,56.98,20.98,74.73,40.4c9.68,10,4.05,27.93-8.96,31.74C330.3,89.12,320.33,87.33,312.27,83.29z M326.54,262.62
		c-1.13,1.07-2.5,1.9-3.99,2.38c-30.15,9.61-76.18-47.38-81.85-73.88c12.23,17.21,29.56,30.72,49.37,38.38
		c-0.46,1.08-2.22,6.09,0.27,4.07c4.03-14.98,14.61-28.66,28.34-36.09c28.66,8.43,23.72,41.95,25.7,29.11l7.24-8.87
		C348.06,234.79,339.26,250.57,326.54,262.62z M353.97,150.45c0,0,1.08,4.17,1.13,5.6c0.21,5.52-0.37,6.86-0.37,6.86
		c-18.93-21.31-45.42,10.18-22.47-5.35c-3.28,11.53,16.28,12.48,14.28,0.88c14.27,0.69,6.61,52.1,5.65,56.27
		c0.01,0.02-8.04,9.84-8.04,9.86c-1.54-12.81-11.16-24.04-23.64-27.66c0.68-0.34,1.29-0.8,1.81-1.34c3.02-0.57,4.73-3.98,3.29-6.76
		c-1.94,15.09-2.96-30.03-3.87-33.42c-1.67,8.11,5.24,39.34-2.99,40.63c-8.8,0.49-5.08-11.39-6.09-16.83
		c-0.2-6.39-0.53-15.45-0.9-21.75c-0.4,9.22-0.03,27.36-0.14,35.03c-3.7,2.98-3.65-3.42-2.67-4.42c-4.12,4.66,1.19,7.55,4.8,7.83
		c0.67,0.61,1.48,1.09,2.37,1.38c-11.8,7.08-20.88,18.08-25.58,30.88c-25.06-11.06-56.68-31.03-51.95-61.82
		c10.87-9.53,23.11-24.26,21.08-38.8c-0.01-0.05-0.03-0.09-0.04-0.13c19.17-9.08,40.72-17.06,54.37-32.94
		c20.4,10.24,42.89,30.7,39.83,54.26c-6.19-7.63-26.17-12.02-30.13-1.04C332.88,142.9,345.46,144.97,353.97,150.45z M352.28,125.81
		c-9.35-13.93-21.9-24.87-37.35-32.52c1.3-1.65,2.7-3.31,3.75-5.16C339.7,91.78,353.09,110.82,352.28,125.81z"/>
	<path class="st2" d="M328.82,207.1c-2.69-1.9-5.85-3.33-9.03-4.22c0.4-1.29-1.48-2.78-1.57-0.86c0.51,1.69-0.5,3.77-2.15,4.43
		c-12.44,5.02-21.35,17.32-22.18,30.61c2.01,3.13,1.69-5.02,2.49-6.15c3.66,2.01,7.62,3.5,11.78,4.45c-0.79,1.06-1.7,6.99,0.52,4.4
		c0.73-15.31,23.57-14.98,23.81,0.33c2.57,2.97,1.05-4.65,0.12-5.63c2.52-0.78,4.94-1.77,7.24-2.95
		C342.14,242.43,343.43,214.5,328.82,207.1z M327.99,208.42l1.34,3.02c-5.42,1.01-11.07,1.39-16.55,1.12
		c3.19-0.33,12.19-10.31,8.84-1.43C322.95,210.59,326.61,205.96,327.99,208.42z M328.51,213.04c-1.27,10.44-17,11.04-19.03,0.71
		C315.78,214.4,322.25,214.11,328.51,213.04z M316.63,207.8c1.48-0.6,2.57-1.94,2.99-3.45c1.95,0.54,3.84,1.33,5.63,2.29
		c-0.15,0.05-1.27,0.93-1.42,1.04c-3.28-5.49-9.52,5.14-14.78,4.46C311.37,210.38,313.9,208.9,316.63,207.8z M320.81,226.69
		c-4.96-0.07-9.65,3.05-12,7.35c-4.26-0.93-8.3-2.46-12.01-4.54c2-6.4,5.92-12.19,11.12-16.48c-0.04,0.19,0.06,0.38,0.05,0.57
		l0.02,0c1.83,12.44,21.22,11.72,21.93-0.8c0.4-0.06,1.1-0.2,1.5-0.29l-1.07-2.4c5.82,4.89,9.23,12.25,9.51,19.8
		c-2.49,1.36-5.19,2.4-7.93,3.3C329.53,229.45,325.32,226.75,320.81,226.69z"/>
	<path class="st2" d="M297.98,156.34c-8.88-2.21-22.6,0.24-27.28,8.08c3.93-1.19,7.88-5.77,12.77-6.41
		c-4.11,14.19,19.4,14.27,15.39,0.05C315.86,166.49,309.48,159.64,297.98,156.34z"/>
	<path class="st2" d="M309.03,147.44l0.75,0.25c1.89-6.23-6.38-6.47-10.57-7.03c-13.15-1.17-26.51,4.44-35.45,13.94
		c3.31-3.02,0,0,0,0C276.62,145.33,293.97,142.43,309.03,147.44z"/>
	<path class="st2" d="M324.93,51.08c12.86,8.06,18.5,29.25,3.49,38.05c12.61-5.73,12.8-23.34,4.27-32.68
		c-8.19-10.06-21.11-13.37-32.77-17.73C308.29,42.84,317.38,45.56,324.93,51.08z"/>
	<path class="st2" d="M348,166.78c-5.2,2.65-10.89,2.76-16.19,0.32C335.86,171.49,344.12,171.31,348,166.78z"/>
	<path class="st2" d="M279.27,168.24c6.47,6.48,18.67,6.07,24.72-0.81C296.6,172.45,286.96,172.76,279.27,168.24z"/>
	<path class="st2" d="M229.02,194.96c-1.65,4.94-3.53,9.26-6.04,13.83C227.07,205.56,229.45,200.12,229.02,194.96z"/>
	<path class="st2" d="M255.53,109c-3.45,0.2-6.59,1.36-9.35,3.43C249.63,112.22,252.77,111.08,255.53,109z"/>
	<path class="st2" d="M260.29,112.13c3.82-1.86,7.34-4.38,10.15-7.53l-0.2-0.26c-0.01,0.01-0.01,0.01-0.02,0.02l0,0
		c-6.75,5-14.09,8.61-22.15,11.06C252.3,115.19,256.47,113.97,260.29,112.13z"/>
	<path class="st2" d="M245.94,122.05c13.81-1.95,30.11-7.98,38.76-17.15c-19.74,17.86-49.33,11.99-50.17,24.13
		C236.21,124.79,241.41,122.44,245.94,122.05z"/>
	<path class="st2" d="M227.01,161.08c1.61-1.91,3.14-3.89,4.33-6.16c-4.02,3.14-7.28,6.95-9.78,11.38
		C223.64,164.77,225.36,162.96,227.01,161.08z"/>
	<path class="st2" d="M228.69,165.73c4.45-5.22,9.4-10.06,14.49-14.67c-11.61,7.62-21.07,18.59-26.83,31.16
		C220.15,176.48,224.18,170.93,228.69,165.73z"/>
	<g id="Layer_22">
		<path class="st6" d="M264.87,169.15c8.71,7.37,20.56,12.24,32.03,9.07C285.86,177.19,274.97,172.9,264.87,169.15z"/>
		<path class="st6" d="M268.28,175.96c2.42,2.15,5.24,4.08,8.47,4.75C274.16,179.11,270.67,176.75,268.28,175.96z"/>
		<path class="st6" d="M338.19,174.07c4.21,0.54,9.74-1.47,12.21-4.03C346.41,171.59,342.29,172.88,338.19,174.07z"/>
		<path class="st6" d="M342.93,177.63c1.51,0.15,3.07-0.84,4.18-1.6C345.64,176.36,344.36,177.21,342.93,177.63z"/>
		<path class="st6" d="M317.23,133.4c-9.97-7.21-23.3-8.83-35.08-5.62c-4.47,1.24-9.36,2.47-12.79,5.74
			c4.9-2.33,10.66-1.94,15.97-2.4c9.75-0.28,19.73-0.45,29.21,2.13c1.55,0.46,3.19,1.05,4.6,1.69
			C318.53,134.38,317.89,133.88,317.23,133.4z"/>
		<path class="st6" d="M323.17,134.93c7.7-3.24,16.2-4.47,24.49-5.08C339.33,127.17,329.66,128.96,323.17,134.93z"/>
		<path class="st6" d="M279.23,133.09c6.68,0.42,13.33,1.19,20.02,1.56c5.74,0.34,11.61,0.33,17.15,1.99
			C306.01,129.52,289.45,129.81,279.23,133.09z"/>
		<path class="st6" d="M287.03,135.88c8.29,0.84,16.6,1.5,24.87,2.46C304.35,134.37,294.95,133.54,287.03,135.88z"/>
		<path class="st6" d="M328.69,134.68c4.97-0.7,9.68-2.42,14.37-4.14C337.96,130.46,333.1,132.27,328.69,134.68z"/>
		<path class="st6" d="M328.13,136.52c4.26-0.68,8.37-2,12.35-3.63C336.12,132.98,331.89,134.38,328.13,136.52z"/>
		<path class="st20" d="M285.75,106.15c-6.38,4.9-12.76,9.87-19.71,13.96c14.8-3.34,28.61-14.94,36.09-26.74
			C297.08,98.14,291.29,102,285.75,106.15z"/>
		<path class="st20" d="M279.93,98.06c-6.25,6.18-12.3,12.63-20.34,16.51c5.16-0.64,9.94-3.3,13.68-6.82
			c3.01-2.93,5.05-6.62,7.6-9.92C282.75,95.73,281.12,97.12,279.93,98.06z"/>
		<path class="st20" d="M258.2,107.8c3.38-1.65,6.31-4.14,8.42-7.23C263.89,102.78,260.23,105.58,258.2,107.8z"/>
		<path class="st20" d="M254.54,137.01c-1.47,2.96-3.96,7.28-5.2,9.41c-2.39,3.59-5.55,6.57-8.91,9.27
			c-8.58,6.86-15.3,15.8-20.09,25.6c3.72-4.64,7.88-8.93,12.19-13.02c4.37-4.08,9.28-7.61,13.23-12.13
			c3.09-3.59,5.15-7.87,6.67-12.31c0.88-2.39,1.74-5.01,2.38-7.37C254.73,136.64,254.63,136.82,254.54,137.01z"/>
		<path class="st20" d="M229.21,159.5c2.78-2.26,5.65-4.5,7.83-7.37c2.03-2.6,4.22-7.96,4.23-10.06
			C238.73,148.77,233.31,153.75,229.21,159.5z"/>
		<path class="st20" d="M219.38,208.81c6.82-10.89,10.89-23.06,15.64-34.88C227.71,184.45,223.59,196.83,219.38,208.81z"/>
		<path class="st20" d="M228.83,211.78c4.03-8.17,5.23-17.4,5.45-26.4C232.43,193.89,231.02,203.13,228.83,211.78z"/>
	</g>
	<g id="Layer_23">
		<g>
			<path class="st4" d="M293.96,52.31c-0.72-1.36-2.47-2.5-3.64-1.66c-0.54,0.39-1.25,0.4-1.69-0.1c-3.94-4.48-8.09-8.8-12.65-12.65
				c-0.42-0.35-0.53-0.93-0.3-1.42c1.62-3.48-4.16-5.53-5.19-1.26c-0.03,0.13-0.05,0.27-0.04,0.4c0.13,1.38,1.89,3.34,2.61,1.38
				c-0.83-0.7-1.76-1.76-1.39-2.92c0,0,0,0.01,0,0.01c1.83-1.58,3.34,1.2,3.05,3c-0.04,0.26-0.06,0.53,0.05,0.77
				c1.65,3.6,7.69,7.67,11.4,11.82c0.73,0.81,0.06,2.07-1.03,1.99c-1.61-0.12-3.21-0.19-4.82-0.2c-0.59-0.01-1.09-0.43-1.18-1.01
				c-1.7-10.81-4.24-10.99-1.14,1.02c-0.56,0.02-1.11,0.01-1.66,0.06c-2.26-14.8-4.9-15.54-1.6-1.28c0.16,0.71-0.33,1.4-1.06,1.47
				c-11.1,1.09-10.65,2.39,1.54,0.78c0.09,0.49,0.17,0.97,0.26,1.46c-14.26,0.79-14.83,2.23-0.96,1.05c0.63-0.05,1.21,0.38,1.31,1
				c0.56,3.36,1.03,6.73,1.38,10.12c0.12,1.14-1.31,1.77-2.09,0.93c-5.07-5.47-15.88-16.24-12.15-10.02
				c-0.21,0.13-0.38,0.3-0.53,0.44c0.01-0.01,0.02-0.01,0.03-0.02c-0.01,0.01-0.02,0.02-0.04,0.03c0,0,0,0,0,0
				c-1.58,0.61-2.93-1.57-2.53-2.98c0,0,0,0,0,0c0,0,0,0.01,0,0c0.72-0.2,1.73,0.53,2.32-0.3c-1.79,5.22,9.34-15.97,11.74-17.1
				c-4.09,2.48-7.96,10.55-11.04,15.87c-0.24,0.42-0.73,0.65-1.21,0.57c-4.75-0.76-2.89,7.45,0.87,4.34
				c0.43-0.36,1.05-0.41,1.5-0.08c4.63,3.47,13.55,16.85,16.17,15.17c0.61,0.56,1.66,1.35,1.03,2.31c0-0.01,0-0.01,0.01-0.02
				c-0.1,0.16-0.3,0.2-0.46,0.28c0.01,0,0.01,0,0.01-0.01c-0.12,0.06-0.61,0.16-0.53,0.14c-1.7,0.35-2.45-1.37-2-2.76
				c-1.35-0.09-1.61,2.23-0.84,3.14c2.13,2.21,7.44-2.09,3.9-3.94c-0.47,0-0.72,0.35-1.07,0.74c0.02-0.07-0.03-0.1-0.06-0.14
				c0.7-0.83,12.54-21.52,9.84-18.38c-0.27,0.31-0.67,0.48-1.08,0.43c-3.08-0.37-6.19-0.64-9.29-0.76
				c-0.08-0.53-0.17-1.06-0.26-1.59c2.98-0.31,6.36,0.98,9.09,0.24c0.36,0.42,0.73,0.83,1.09,1.25c1.46-0.23,1.11-1.25,0.18-2
				c0.31-0.18,0.55-0.34,0.74-0.65c2.06,0.68,3.1,2.93,1.5,4.63c0.05-0.06-0.02,0-0.07,0.05c0,0,0,0,0,0c0,0,0,0,0,0
				c-0.38,0.17-0.83,0.01-1.16-0.22c-3.63,1.95,3.15,1.75,3.24-2.86C294.09,52.68,294.05,52.48,293.96,52.31z M271.82,33.84
				c0.01-0.01,0.01-0.02,0.02-0.03C271.83,33.82,271.82,33.83,271.82,33.84C271.82,33.84,271.82,33.84,271.82,33.84z M271.88,33.76
				C271.88,33.76,271.88,33.76,271.88,33.76C271.88,33.76,271.88,33.76,271.88,33.76C271.88,33.76,271.88,33.76,271.88,33.76z
				 M271.81,33.85C271.81,33.85,271.81,33.85,271.81,33.85C271.81,33.85,271.81,33.85,271.81,33.85z M262.43,57.52
				C262.43,57.52,262.43,57.52,262.43,57.52C262.4,57.54,262.39,57.55,262.43,57.52z M262.5,57.46c0.01-0.01,0.01-0.01,0.01-0.01
				C262.51,57.46,262.51,57.46,262.5,57.46z M281.25,75.36c-0.02,0.02-0.05,0.04-0.07,0.06C281.22,75.39,281.24,75.37,281.25,75.36z
				 M288.71,55.85c0.18,0.02,0.45-0.19,0.67-0.42c-2.91,5.13-6.05,10.14-8.59,15.46c-0.37,0.77-1.4,0.95-1.98,0.32
				c-0.11-0.12-0.22-0.24-0.33-0.36c-0.32-0.34-0.38-0.83-0.23-1.27c1.41-4.13-1.15-10.1-1.29-14.63c0.55,0.01,1.11,0.03,1.66,0.05
				c1.29,18.03,3.46,18.3,1.46,1.5c-0.09-0.75,0.53-1.41,1.29-1.36C283.81,55.3,286.27,55.55,288.71,55.85z M290.19,51.25
				c0,0,0.01,0,0.01,0C290.16,51.28,290.16,51.25,290.19,51.25z M292,55.98c0,0-0.01,0.01-0.01,0.01c0.02-0.02,0.04-0.03,0,0
				C292,55.98,292,55.99,292,55.98z"/>
		</g>
	</g>
</g>
<g id="Shoria" class="st21">
	<path class="st22" d="M-2.39,617.95C-1.4,616.83,79.65,554,79.65,554s88.46-76.62,88.28-77.35"/>
	<path class="st22" d="M14.72,635.93c0,0,39.24-38.06,54.82-53.2c27.15-26.41,97.09-104.61,97.47-105.12"/>
	<path class="st22" d="M32.79,654.44c2.78-1.31,135.73-177.22,135.73-177.22"/>
	<path class="st26" d="M3.18,548.57c6.76-13.64,11.67-27.64,8.55-47.68c0.29,29.13-29.24,43.28-9.84,70.8
		c4.17,5.91,3.68,9.08,3.68,8.19C10.02,570.69-3.14,559.97,3.18,548.57z"/>
</g>
<g id="RightForeArm" class="st21">
	<g id="Layer_24" class="st23">
		<path class="st1" d="M199.68,317.1c-0.05-0.7-0.17-1.64-0.75-5.18c-3.9-14.75-9.49-46.43-31.21-36.62
			c-2.73,2.91-13.88,12.97-20.13,19.36c-8.39,38.71-15.91,85.19-15.91,117.1c3.1-4.54-5.1,8.14-7.91,12.73
			c38.94,2.86,75.31-10.36,83.37-12.34C207.14,412.16,199.94,320.65,199.68,317.1z"/>
		<path class="st12" d="M177.62,389.24c-3.26-9.86-6.16-19.84-8.88-29.86c-0.49-1.79-1-3.57-1.48-5.36
			c0.16,1.63,0.35,3.25,0.55,4.87c1.8,14.73,5.56,29.82,14.2,42.11C180.13,397.26,179,393.3,177.62,389.24z"/>
		<path class="st12" d="M192.93,390.45c-3.04-7.57-6.75-18.75-9.65-28.13c-3.75-11.42-7.62-22.8-11.03-34.33
			c-0.54-1.83-1.06-3.67-1.53-5.52c0.29,2.81,0.68,5.6,1.14,8.38c4.77,26.74,11.91,54.31,28.34,76.41
			C197.47,402.5,194.36,393.88,192.93,390.45z"/>
		<path class="st12" d="M188.23,326.06c-0.37,10.64,0.79,21.42,4.51,31.44C191.04,347.05,189.78,336.53,188.23,326.06z"/>
		<path class="st4" d="M183.41,418.65c0-0.01,0-0.02,0-0.03c-7.06,1.4-14.11,2.79-21.18,4.13c-0.09,0.02-0.17,0.01-0.24-0.01
			c-7.11,1.16-14.26,2.06-20.79,2.45c-2.49,10.5-2.14,20.44,1.45,30.68c0.01,0.01,0.01,0.02,0.02,0.04
			c2.38,5.46,6.8,17.56,14.54,17.93c0.42,0.02,0.67-0.47,0.41-0.81c-4.33-5.66-7.36-12.34-8.77-19.33l0.97-0.19
			c2.41,8.59,6.53,22.2,16.35,24.18c0.46,0.09,0.78-0.44,0.49-0.81c-5.45-6.88-8.49-15.32-9.37-24.67l1-0.09
			c1.37,10.37,4.39,21.73,13.05,27.29c0.05,0.03,0.1,0.06,0.15,0.07c0.5,0.15,1.05,0.19,1.59,0.13c0.26,0.21,0.5,0.3,0.7,0.28
			c1.65-0.18,2.22-1.78,2.63-2.22c0.41-0.44,2.47-0.01,3.17-2.35c0.7-2.35-0.72-6.41-1.54-9.52c-0.82-3.1-1.04-6.52-1.04-6.52
			l3.08,1.86c0,0,0.01-0.13,0.04-0.37c1.17,0.62,2.28,0.43,2.4-1.6c0.05-10.54,5.56-29.72,1.25-40.6
			C183.65,418.6,183.53,418.62,183.41,418.65z M165.21,450.14l0.27-0.03c0.38,3.84,0.74,7.17,1.04,9.75
			C165.9,456.54,165.53,453.21,165.21,450.14z"/>
		<g id="Layer_29">
			<path class="st27" d="M185.5,426.53l-44.81-0.18l-0.06-1.67c0,0,8.14-0.28,19.27-2.33s23.87-4.77,23.87-4.77
				S185.5,421.83,185.5,426.53z"/>
			<path class="st27" d="M149.1,453.88c0,0,0.99,8.11,2.38,12.43c1.39,4.32,1.36,6.99,3.32,7.71s4.48,0.19,3.53-0.7
				s-3.19-3.79-5.21-8.53C151.1,460.05,149.1,453.88,149.1,453.88z"/>
			<path class="st27" d="M157.34,452.65c0,0-0.45,7.14,1.68,13.74c2.13,6.6,4.84,11.08,4.84,11.08s6.2,2.4,3.73-0.25
				c-2.47-2.64-6.05-8.35-7.47-13.21S157.34,452.65,157.34,452.65z"/>
			<path class="st27" d="M165.26,450.68c0,0-0.4,7.92,0.94,13.7c1.34,5.78,5.78,15.16,6.73,15.46s4.63-0.85,3.12-2.22
				c-1.51-1.37-5.71-5.02-7.22-10.3C167.32,462.06,165.26,450.68,165.26,450.68z"/>
			<path class="st27" d="M175.97,438.42c0,0-2.28,8.49-1.07,19.36s1.85,19.48,1.85,19.48s2.62,2.04,3.08-1.6
				c0.46-3.64-0.33-4.49-1.72-10.05s-2.05-10.67-2.05-15.79C176.05,444.7,175.97,438.42,175.97,438.42z"/>
		</g>
		<path class="st2" d="M193.24,290.29c-0.24,0.58,5.16,20.92,5.7,23.2c0.07,0.29-0.12,0.56-0.42,0.6c-3.97,0.55-30.3,1.61-30.1,2.91
			c0.17,1.07,21.64-1.21,28.79-1.95c1.26-0.13,2.37,0.79,2.47,2.05c1.42,18.72,6.97,94.56,6.97,94.56c0.01,0.2-0.07,0.44-0.27,0.48
			c-23.31,5.23-60.45,14.57-81.52,11.56c-0.34-0.05-0.5-0.45-0.33-0.74c2.81-4.59,24.39-33.36,20.76-32c0,0-9.57,14.02-12.67,18.56
			c-0.28,0.41-0.91,0.2-0.89-0.29c1.28-34.63,7.06-75.02,16.36-114.2c0.04-0.08,0.08-0.14,0.12-0.22
			c6.39-6.35,19.07-18.8,19.18-19.29c-5.6,4.99-19.32,18.04-20.07,18.77c-0.05,0.08-0.09,0.16-0.14,0.25
			c-9.57,40.46-15.61,82.25-16.51,117.71c-0.03,0.09-0.06,0.17-0.09,0.27L123,423.62c-0.2,0.29-0.05,0.7,0.3,0.77
			c23.44,5.19,83.62-11.4,84.14-11.68c0.17-0.09,0.27-0.28,0.26-0.47c-0.39-5.59-5.71-84.79-7.9-98.21
			C199.55,312.53,195.72,299.05,193.24,290.29z"/>
		<path class="st13" d="M184.28,417.19c-0.35,0.07-0.69,0.12-1.04,0.16c5.27,10.62-0.67,30.88-0.72,41.81
			c-0.25,4.28-4.9,0.37-5.24-1.94l-0.06,0.02c-0.7-6.37-0.74-12.81-0.08-19.25l-1-0.1c-1.16,11.36-0.23,22.72,2.78,33.74
			c0.57,1.83,1.14,4.65-0.99,5.55c-0.12,0.05-0.27,0.05-0.39,0c-9.01-3.42-10.22-18.34-11.32-27.16l-0.99,0.1
			c0.99,9.43,2.39,21.4,10.22,27.5c0.22,0.17,0.25,0.48,0.09,0.7c-0.84,1.16-2.62,1.56-4.03,1.14c-0.05-0.02-0.11-0.04-0.16-0.07
			c-8.66-5.56-11.68-16.92-13.05-27.29l-1,0.09c0.88,9.35,3.92,17.79,9.36,24.68c0.29,0.37-0.03,0.9-0.48,0.81
			c-9.82-1.98-13.94-15.59-16.35-24.18l-0.98,0.2c1.42,6.99,4.44,13.66,8.78,19.33c0.26,0.34,0.01,0.82-0.41,0.8
			c-7.74-0.36-12.16-12.47-14.54-17.93c-0.01-0.01-0.01-0.03-0.02-0.04c-3.69-10.53-3.97-20.74-1.24-31.58
			c-0.35,0.04-0.69,0.07-1.04,0.09c-3.73,15.33-1.72,29.87,7.21,43.49c0.01,0.02,0.02,0.03,0.04,0.05
			c2.47,2.88,6.57,8.77,10.91,6.83c0.2-0.09,0.44-0.05,0.58,0.12c2.07,2.46,5.81,4.73,8.91,3.92c0.17-0.04,0.34,0,0.47,0.12
			c2.25,2.18,6.74,2.53,8.22-0.67c0.39,0.08,0.77,0.09,1.14,0.02c0.05-0.02,0.11-0.03,0.16-0.05c5.21-2.29,0.17-11.5-0.45-16.9
			c-0.05-0.46,0.49-0.73,0.85-0.42c1.92,1.68,5.15,1.73,5.1-1.62C183.63,448.1,189.42,428.05,184.28,417.19z"/>
	</g>
</g>
</svg>
