<svg width="150" height="151" viewBox="0 0 150 151" fill="none" xmlns="http://www.w3.org/2000/svg">
<mask id="mask0_510_1376" style="mask-type:luminance" maskUnits="userSpaceOnUse" x="57" y="21" width="19" height="48">
<path d="M75.0806 21.611H57.3298V68.151H75.0806V21.611Z" fill="white"/>
</mask>
<g mask="url(#mask0_510_1376)">
<path d="M75.0945 21.611C60.8995 21.971 52.5615 38.0973 60.2606 50.306C61.3868 52.0923 62.1637 53.4573 62.4043 54.1585C63.8286 58.3198 63.1324 58.6548 63.1324 58.6548C63.1324 58.6548 63.0847 58.346 61.7765 59.7823C60.4695 61.2185 60.8384 62.8398 60.8384 62.8398C60.8384 62.8398 58.8693 63.2548 58.3111 64.8723C57.7529 66.4898 58.5517 68.151 58.5517 68.151L75.1226 57.6223L75.0945 21.611Z" fill="#426077"/>
</g>
<mask id="mask1_510_1376" style="mask-type:luminance" maskUnits="userSpaceOnUse" x="75" y="21" width="18" height="48">
<path d="M92.8314 21.611H75.0806V68.151H92.8314V21.611Z" fill="white"/>
</mask>
<g mask="url(#mask1_510_1376)">
<path d="M75.0659 21.6111C89.2609 21.9711 97.5989 38.0973 89.8998 50.3061C88.7736 52.0923 87.9967 53.4573 87.756 54.1586C86.3318 58.3198 87.028 58.6548 87.028 58.6548C87.028 58.6548 87.0757 58.3461 88.3839 59.7823C89.6921 61.2186 89.322 62.8398 89.322 62.8398C89.322 62.8398 91.2911 63.2548 91.8493 64.8723C92.4075 66.4898 91.6087 68.1511 91.6087 68.1511L75.0378 57.6223L75.0659 21.6111Z" fill="#426077"/>
</g>
<path d="M56.5529 143.802V70.471C56.5529 68.0997 58.4315 66.1772 60.7487 66.1772H88.7772C91.0162 66.1772 92.8314 68.0347 92.8314 70.326V143.802H56.5529Z" fill="#EDF2F5" stroke="#426077" stroke-width="5.28827" stroke-miterlimit="10"/>
<mask id="mask2_510_1376" style="mask-type:luminance" maskUnits="userSpaceOnUse" x="33" y="65" width="30" height="80">
<path d="M62.3917 65.0622H33.5924V144.998H62.3917V65.0622Z" fill="white"/>
</mask>
<g mask="url(#mask2_510_1376)">
<path d="M61.8714 65.4222C32.6348 73.9422 32.3527 108.698 35.0082 134.221C38.8693 136.854 43.693 138.142 47.8864 140.278C52.5342 142.337 57.3164 144.428 62.3771 144.622" fill="#EDF2F5"/>
<path d="M61.8714 65.4222C32.6348 73.9422 32.3527 108.698 35.0082 134.221C38.8693 136.854 43.693 138.142 47.8864 140.278C52.5342 142.337 57.3164 144.428 62.3771 144.622" stroke="#426077" stroke-width="1.86645" stroke-miterlimit="10"/>
</g>
<mask id="mask3_510_1376" style="mask-type:luminance" maskUnits="userSpaceOnUse" x="87" y="65" width="30" height="80">
<path d="M116.152 65.0623H87.353V144.999H116.152V65.0623Z" fill="white"/>
</mask>
<g mask="url(#mask3_510_1376)">
<path d="M87.8722 65.4223C117.109 73.9423 117.391 108.699 114.735 134.221C110.874 136.854 106.051 138.142 101.857 140.279C97.2093 142.337 92.4272 144.429 87.3665 144.622" fill="#EDF2F5"/>
<path d="M87.8722 65.4223C117.109 73.9423 117.391 108.699 114.735 134.221C110.874 136.854 106.051 138.142 101.857 140.279C97.2093 142.337 92.4272 144.429 87.3665 144.622" stroke="#426077" stroke-width="1.86645" stroke-miterlimit="10"/>
</g>
<path d="M66.6645 67.9197V52.846H83.399V67.9197C78.0135 70.0135 72.066 70.016 66.6792 67.926L66.6645 67.9197Z" fill="#EDF2F5" stroke="#426077" stroke-width="2.17752" stroke-miterlimit="10"/>
<mask id="mask4_510_1376" style="mask-type:luminance" maskUnits="userSpaceOnUse" x="53" y="79" width="2" height="21">
<path d="M54.2126 79.0273H53.1144V99.6198H54.2126V79.0273Z" fill="white"/>
</mask>
<g mask="url(#mask4_510_1376)">
<path d="M53.3037 99.4178C53.2524 97.154 52.9323 82.419 53.2597 79.099C53.2695 78.9978 53.416 79.0028 53.4185 79.1053C53.4991 82.854 53.9462 95.109 54.1404 98.0978C54.1697 98.5478 54.3419 98.9278 54.0243 99.2415C53.8778 99.3865 53.7251 99.5228 53.6054 99.5915C53.4722 99.669 53.3073 99.574 53.3037 99.4178Z" fill="#426077"/>
</g>
<mask id="mask5_510_1376" style="mask-type:luminance" maskUnits="userSpaceOnUse" x="95" y="79" width="2" height="21">
<path d="M96.9369 79.0272H95.8388V99.6197H96.9369V79.0272Z" fill="white"/>
</mask>
<g mask="url(#mask5_510_1376)">
<path d="M96.7469 99.4178C96.7982 97.1541 97.1183 82.4191 96.7909 79.0991C96.7811 78.9978 96.6346 79.0028 96.6321 79.1053C96.5515 82.8541 96.1044 95.1091 95.9102 98.0978C95.8809 98.5478 95.7087 98.9278 96.0263 99.2416C96.1728 99.3866 96.3255 99.5228 96.4452 99.5916C96.5784 99.6691 96.7433 99.5741 96.7469 99.4178Z" fill="#426077"/>
</g>
<path opacity="0.2706" d="M97.3705 132.831L97.2838 111.074C97.2838 111.074 93.9564 112.016 90.0244 111.251C86.0912 110.486 84.0049 109.311 83.8876 108.244C83.7704 107.176 84.0171 105.811 84.0171 105.811C84.0171 105.811 81.281 106.197 81.0782 104.794C80.8754 103.391 78.4849 108.242 78.4849 108.242L68.3294 108.685L67.638 106.076C67.638 106.076 66.9039 106.266 66.2553 106.165C65.6067 106.064 65.3905 109.26 65.3905 109.26C65.3905 109.26 62.3074 111.099 59.0814 111.471C55.8555 111.844 52.8591 111.339 52.8591 111.339L52.6002 132.654C52.6002 132.654 62.0594 139.331 74.25 138.624C86.443 137.916 97.3705 132.831 97.3705 132.831Z" fill="#426077"/>
<path d="M52.4927 109.796V99.5185C52.4927 98.8435 53.0277 98.296 53.6873 98.296H96.408C96.8941 98.296 97.2875 98.6998 97.2875 99.196V109.796H52.4927Z" fill="#426077" stroke="#426077" stroke-width="0.933225" stroke-miterlimit="10"/>
<mask id="mask6_510_1376" style="mask-type:luminance" maskUnits="userSpaceOnUse" x="55" y="61" width="12" height="85">
<path d="M55.9128 61.9985H66.6645V145.123H55.9128V61.9985Z" fill="white"/>
</mask>
<g mask="url(#mask6_510_1376)">
<path d="M55.9128 145.123V67.561C55.9128 67.561 60.4361 63.6247 66.6645 61.9985L66.662 145.123H55.9128Z" fill="#426077"/>
</g>
<mask id="mask7_510_1376" style="mask-type:luminance" maskUnits="userSpaceOnUse" x="83" y="61" width="12" height="85">
<path d="M94.1397 61.9985H83.3881V145.124H94.1397V61.9985Z" fill="white"/>
</mask>
<g mask="url(#mask7_510_1376)">
<path d="M94.1397 145.124V67.561C94.1397 67.561 89.6165 63.6248 83.3881 61.9985L83.3905 145.124H94.1397Z" fill="#426077"/>
</g>
<mask id="mask8_510_1376" style="mask-type:luminance" maskUnits="userSpaceOnUse" x="61" y="27" width="15" height="35">
<path d="M75.0281 27.661H61.4682V61.5035H75.0281V27.661Z" fill="white"/>
</mask>
<g mask="url(#mask8_510_1376)">
<path d="M75.1233 27.8223C74.9328 27.9373 74.7691 28.0948 74.6408 28.2798C72.1844 31.796 68.675 34.4023 64.6392 35.7023C63.5301 38.676 62.9914 41.841 63.0525 45.0223L63.1245 48.7573L62.4087 45.9123C62.4026 45.8873 62.3794 46.2523 62.3562 46.6485C62.3208 47.2485 62.074 47.816 61.6612 48.2448C61.6612 48.2448 62.1217 51.9798 63.7084 52.6585C65.6921 56.5823 71.4796 61.3173 75.1184 61.3173" fill="#EDF2F5"/>
<path d="M75.1233 27.8223C74.9328 27.9373 74.7691 28.0948 74.6408 28.2798C72.1844 31.796 68.675 34.4023 64.6392 35.7023C63.5301 38.676 62.9914 41.841 63.0525 45.0223L63.1245 48.7573L62.4087 45.9123C62.4026 45.8873 62.3794 46.2523 62.3562 46.6485C62.3208 47.2485 62.074 47.816 61.6612 48.2448C61.6612 48.2448 62.1217 51.9798 63.7084 52.6585C65.6921 56.5823 71.4796 61.3173 75.1184 61.3173" stroke="#426077" stroke-width="0.933225" stroke-miterlimit="10"/>
</g>
<mask id="mask9_510_1376" style="mask-type:luminance" maskUnits="userSpaceOnUse" x="75" y="27" width="14" height="35">
<path d="M88.5879 27.661H75.028V61.5035H88.5879V27.661Z" fill="white"/>
</mask>
<g mask="url(#mask9_510_1376)">
<path d="M74.9327 27.8222C75.1233 27.9372 75.2869 28.0947 75.4152 28.2797C77.8716 31.796 81.381 34.4022 85.4168 35.7022C86.5259 38.676 87.0646 41.841 87.0048 45.0222L86.9327 48.7572L87.6485 45.9122C87.6546 45.8872 87.6778 46.2522 87.701 46.6485C87.7365 47.2485 87.9832 47.816 88.3961 48.2447C88.3961 48.2447 87.9356 51.9797 86.3488 52.6585C84.3651 56.5822 78.5777 61.3172 74.9388 61.3172" fill="#EDF2F5"/>
<path d="M74.9327 27.8222C75.1233 27.9372 75.2869 28.0947 75.4152 28.2797C77.8716 31.796 81.381 34.4022 85.4168 35.7022C86.5259 38.676 87.0646 41.841 87.0048 45.0222L86.9327 48.7572L87.6485 45.9122C87.6546 45.8872 87.6778 46.2522 87.701 46.6485C87.7365 47.2485 87.9832 47.816 88.3961 48.2447C88.3961 48.2447 87.9356 51.9797 86.3488 52.6585C84.3651 56.5822 78.5777 61.3172 74.9388 61.3172" stroke="#426077" stroke-width="0.933225" stroke-miterlimit="10"/>
</g>
<mask id="mask10_510_1376" style="mask-type:luminance" maskUnits="userSpaceOnUse" x="64" y="35" width="9" height="4">
<path d="M64.6869 35.9672H72.8917V38.386H64.6869V35.9672Z" fill="white"/>
</mask>
<g mask="url(#mask10_510_1376)">
<path d="M64.6869 38.3856C65.7679 37.4118 66.9955 36.2281 68.4296 36.0543C69.2358 35.9568 73.1287 35.7243 72.882 36.8293C72.8172 37.1168 72.5289 37.2906 72.2443 37.2493C68.7838 36.7418 68.2146 36.5393 64.6869 38.3856Z" fill="#426077"/>
</g>
<mask id="mask11_510_1376" style="mask-type:luminance" maskUnits="userSpaceOnUse" x="77" y="35" width="9" height="4">
<path d="M85.5648 35.9672H77.3587V38.386H85.5648V35.9672Z" fill="white"/>
</mask>
<g mask="url(#mask11_510_1376)">
<path d="M85.5647 38.3855C84.4836 37.4118 83.256 36.228 81.822 36.0543C81.0158 35.9568 77.1229 35.7243 77.3696 36.8293C77.4344 37.1168 77.7227 37.2905 78.0073 37.2493C81.4678 36.7418 82.0358 36.5393 85.5647 38.3855Z" fill="#426077"/>
</g>
<mask id="mask12_510_1376" style="mask-type:luminance" maskUnits="userSpaceOnUse" x="64" y="38" width="9" height="5">
<path d="M64.9861 38.3535H72.6498V42.046H64.9861V38.3535Z" fill="white"/>
</mask>
<g mask="url(#mask12_510_1376)">
<path d="M70.1298 38.5904C69.486 38.2842 68.7153 38.2729 68.0642 38.5604C67.5109 38.8042 67.0369 39.1429 66.7096 39.3617C66.2845 39.6454 64.986 40.4604 64.986 40.4604C64.986 40.4604 66.2564 40.1317 66.8183 39.8279C67.142 39.6517 67.4584 39.4517 67.7869 39.2829C67.5805 39.5704 67.4596 39.9242 67.4596 40.3067C67.4596 41.2654 68.2218 42.0454 69.1599 42.0454C70.0968 42.0454 70.859 41.2654 70.859 40.3067C70.859 39.9742 70.7674 39.6617 70.6062 39.3967C70.8688 39.5692 71.118 39.7654 71.394 39.9129C71.8472 40.1529 72.6497 40.6767 72.6497 40.6767C72.6497 40.6767 71.0984 39.0504 70.1298 38.5904ZM69.1599 41.6704C68.4246 41.6704 67.826 41.0592 67.826 40.3067C67.826 39.5542 68.4246 38.9417 69.1599 38.9417C69.894 38.9417 70.4926 39.5542 70.4926 40.3067C70.4926 41.0592 69.894 41.6704 69.1599 41.6704Z" fill="#426077"/>
<path d="M69.16 41.2834C69.6868 41.2834 70.114 40.8464 70.114 40.3072C70.114 39.768 69.6868 39.3309 69.16 39.3309C68.6331 39.3309 68.206 39.768 68.206 40.3072C68.206 40.8464 68.6331 41.2834 69.16 41.2834Z" fill="#426077"/>
</g>
<mask id="mask13_510_1376" style="mask-type:luminance" maskUnits="userSpaceOnUse" x="77" y="38" width="9" height="5">
<path d="M85.092 38.3535H77.4283V42.046H85.092V38.3535Z" fill="white"/>
</mask>
<g mask="url(#mask13_510_1376)">
<path d="M79.9482 38.5907C80.5919 38.2844 81.3627 38.2732 82.0138 38.5607C82.5671 38.8044 83.041 39.1432 83.3684 39.3619C83.7935 39.6457 85.0919 40.4607 85.0919 40.4607C85.0919 40.4607 83.8216 40.1319 83.2597 39.8282C82.936 39.6519 82.6196 39.4519 82.291 39.2832C82.4975 39.5707 82.6184 39.9244 82.6184 40.3069C82.6184 41.2657 81.8562 42.0457 80.9181 42.0457C79.9812 42.0457 79.219 41.2657 79.219 40.3069C79.219 39.9744 79.3106 39.6619 79.4718 39.3969C79.2092 39.5694 78.96 39.7657 78.684 39.9132C78.2308 40.1532 77.4283 40.6769 77.4283 40.6769C77.4283 40.6769 78.9796 39.0507 79.9482 38.5907ZM80.9181 41.6707C81.6534 41.6707 82.252 41.0594 82.252 40.3069C82.252 39.5544 81.6534 38.9419 80.9181 38.9419C80.184 38.9419 79.5854 39.5544 79.5854 40.3069C79.5854 41.0594 80.184 41.6707 80.9181 41.6707Z" fill="#426077"/>
<path d="M80.9193 41.2835C81.4462 41.2835 81.8733 40.8464 81.8733 40.3072C81.8733 39.768 81.4462 39.331 80.9193 39.331C80.3924 39.331 79.9653 39.768 79.9653 40.3072C79.9653 40.8464 80.3924 41.2835 80.9193 41.2835Z" fill="#426077"/>
</g>
<mask id="mask14_510_1376" style="mask-type:luminance" maskUnits="userSpaceOnUse" x="72" y="47" width="3" height="3">
<path d="M75 47.2722H72.3799V49.206H75V47.2722Z" fill="white"/>
</mask>
<g mask="url(#mask14_510_1376)">
<path d="M72.5391 47.2723C72.3645 47.4748 72.3352 47.7873 72.4463 48.0323C72.5587 48.2773 72.7969 48.4498 73.0546 48.5048C73.2782 48.5523 73.52 48.521 73.7252 48.6223C73.873 48.696 73.983 48.8298 74.1124 48.9335C74.3347 49.1123 74.6096 49.2073 74.8966 49.2073C75.2045 49.2073 75.2692 49.126 75.29 49.096C75.3071 49.0723 75.3877 48.9598 75.3266 48.841C75.2655 48.7235 75.2326 48.7235 74.9308 48.7235C74.7378 48.7235 74.5815 48.6848 74.4764 48.641C74.1931 48.521 74.0147 48.331 74.0062 48.0173C74.0049 47.9523 74.0135 47.8835 73.9854 47.826C73.9573 47.7673 73.8681 47.7373 73.8315 47.7898C73.8132 47.816 73.8144 47.851 73.8119 47.8835C73.7912 48.1023 73.5286 48.1998 73.3148 48.1973C73.0937 48.1948 72.8641 48.1323 72.7016 47.9785C72.5404 47.8235 72.461 47.566 72.5391 47.2723Z" fill="#426077"/>
</g>
<mask id="mask15_510_1376" style="mask-type:luminance" maskUnits="userSpaceOnUse" x="75" y="47" width="3" height="3">
<path d="M77.62 47.2722H74.9999V49.206H77.62V47.2722Z" fill="white"/>
</mask>
<g mask="url(#mask15_510_1376)">
<path d="M77.4613 47.2722C77.6359 47.4747 77.6653 47.7872 77.5541 48.0322C77.4417 48.2772 77.2035 48.4497 76.9458 48.5047C76.7223 48.5522 76.4804 48.521 76.2752 48.6222C76.1274 48.696 76.0175 48.8297 75.888 48.9335C75.6657 49.1122 75.3908 49.2072 75.1038 49.2072C74.796 49.2072 74.7312 49.126 74.7105 49.096C74.6934 49.0722 74.6127 48.9597 74.6738 48.841C74.7349 48.7235 74.7679 48.7235 75.0696 48.7235C75.2626 48.7235 75.4189 48.6847 75.524 48.641C75.8074 48.521 75.9857 48.331 75.9942 48.0173C75.9955 47.9523 75.9869 47.8835 76.015 47.826C76.0431 47.7673 76.1323 47.7372 76.1689 47.7897C76.1873 47.816 76.186 47.851 76.1885 47.8835C76.2092 48.1022 76.4719 48.1998 76.6856 48.1973C76.9067 48.1948 77.1364 48.1323 77.2988 47.9785C77.4613 47.8235 77.5394 47.566 77.4613 47.2722Z" fill="#426077"/>
</g>
<mask id="mask16_510_1376" style="mask-type:luminance" maskUnits="userSpaceOnUse" x="71" y="50" width="5" height="5">
<path d="M75.1234 50.9397H71.1596V54.7522H75.1234V50.9397Z" fill="white"/>
</mask>
<g mask="url(#mask16_510_1376)">
<path d="M75.3274 54.4972C75.2859 54.5397 75.1698 54.7347 75.1283 54.7522C74.3319 54.746 72.623 54.5485 72.4202 53.4272C72.4056 53.3422 72.4911 53.266 72.5753 53.2585C72.579 53.2585 72.5827 53.2572 72.5863 53.2572C72.6486 53.2547 72.7024 53.296 72.7219 53.3547C73.0249 54.2485 74.1096 54.4972 75.3274 54.4972Z" fill="#426077"/>
<path d="M73.6463 51.3432C73.2151 51.6682 72.801 52.2494 72.2465 52.4407C73.1504 52.4957 75.5739 52.1307 75.321 52.6219C74.3243 52.6157 72.9916 52.6107 71.9949 52.6044C71.7567 52.6032 71.5111 52.6007 71.2998 52.4907C71.2143 52.4544 71.1569 52.3607 71.1594 52.2669C71.3389 52.3194 71.5209 52.3569 71.7029 52.3844C73.1797 52.1807 73.5681 49.9469 75.1048 51.4644C75.0962 51.4669 74.8715 51.5107 74.6895 51.3669C74.3829 51.1282 73.9566 51.1094 73.6463 51.3432Z" fill="#426077"/>
</g>
<mask id="mask17_510_1376" style="mask-type:luminance" maskUnits="userSpaceOnUse" x="75" y="50" width="5" height="5">
<path d="M79.0871 50.9397H75.1234V54.7522H79.0871V50.9397Z" fill="white"/>
</mask>
<g mask="url(#mask17_510_1376)">
<path d="M74.9193 54.4972C74.9609 54.5397 75.0769 54.7347 75.1185 54.7522C75.9149 54.746 77.6238 54.5485 77.8265 53.4272C77.8412 53.3422 77.7557 53.266 77.6714 53.2585C77.6677 53.2585 77.6641 53.2572 77.6604 53.2572C77.5981 53.2547 77.5444 53.296 77.5248 53.3547C77.2219 54.2485 76.1372 54.4972 74.9193 54.4972Z" fill="#426077"/>
<path d="M76.6001 51.3435C77.0313 51.6685 77.4454 52.2497 78 52.441C77.0961 52.496 74.6726 52.131 74.9254 52.6222C75.9222 52.616 77.2548 52.611 78.2516 52.6047C78.4898 52.6035 78.7353 52.601 78.9466 52.491C79.0321 52.4547 79.0895 52.361 79.0871 52.2672C78.9075 52.3197 78.7255 52.3572 78.5435 52.3847C77.0667 52.181 76.6783 49.9472 75.1417 51.4647C75.1502 51.4672 75.375 51.511 75.557 51.3672C75.8636 51.1285 76.2899 51.1097 76.6001 51.3435Z" fill="#426077"/>
</g>
<mask id="mask18_510_1376" style="mask-type:luminance" maskUnits="userSpaceOnUse" x="75" y="37" width="3" height="11">
<path d="M75.9113 37.3622H77.2879V47.4247H75.9113V37.3622Z" fill="white"/>
</mask>
<g mask="url(#mask18_510_1376)">
<path d="M76.8543 38.2652C76.8543 38.2652 76.1397 39.8989 75.9113 40.4614C75.9553 42.7689 76.0701 45.1239 76.2155 47.4252C76.577 45.2602 76.2997 43.0289 76.2326 40.8452C76.3743 39.6327 77.1035 38.5702 77.2879 37.3639C77.2354 37.3964 76.8543 38.2652 76.8543 38.2652Z" fill="#426077"/>
</g>
<mask id="mask19_510_1376" style="mask-type:luminance" maskUnits="userSpaceOnUse" x="72" y="37" width="3" height="11">
<path d="M74.1694 37.3622H72.7915V47.4247H74.1694V37.3622Z" fill="white"/>
</mask>
<g mask="url(#mask19_510_1376)">
<path d="M73.2252 38.2651C73.2252 38.2651 73.9397 39.8988 74.1682 40.4613C74.1242 42.7688 74.0094 45.1238 73.864 47.4251C73.5024 45.2601 73.7797 43.0288 73.8469 40.8451C73.7052 39.6326 72.976 38.5701 72.7915 37.3638C72.8453 37.3963 73.2252 38.2651 73.2252 38.2651Z" fill="#426077"/>
</g>
<mask id="mask20_510_1376" style="mask-type:luminance" maskUnits="userSpaceOnUse" x="66" y="87" width="6" height="34">
<path d="M71.7361 87.3985H66.7768V120.358H71.7361V87.3985Z" fill="white"/>
</mask>
<g mask="url(#mask20_510_1376)">
<path d="M71.722 120.248L71.7366 87.5384C71.7366 87.3796 71.5192 87.3434 71.4703 87.4946L67.5322 99.8509C67.0534 101.352 66.7993 102.918 66.7786 104.497C66.7602 105.872 66.9813 107.238 67.4321 108.533L71.5131 120.283C71.5534 120.402 71.722 120.372 71.722 120.248Z" fill="#426077"/>
</g>
<mask id="mask21_510_1376" style="mask-type:luminance" maskUnits="userSpaceOnUse" x="78" y="87" width="6" height="34">
<path d="M83.0729 87.3985H78.1136V120.358H83.0729V87.3985Z" fill="white"/>
</mask>
<g mask="url(#mask21_510_1376)">
<path d="M78.127 120.249L78.1123 87.5385C78.1123 87.3798 78.3297 87.3435 78.3786 87.4948L82.3167 99.851C82.7955 101.352 83.0496 102.919 83.0704 104.497C83.0887 105.872 82.8676 107.239 82.4169 108.534L78.3358 120.284C78.2955 120.402 78.127 120.372 78.127 120.249Z" fill="#426077"/>
</g>
<path d="M65.9206 101.544C66.0562 101.412 66.2101 101.296 66.3872 101.234C66.5643 101.172 66.7659 101.17 66.9308 101.26C67.1336 101.371 67.2496 101.605 67.2875 101.837C67.34 102.162 67.263 102.495 67.1519 102.804C67.0041 103.211 66.7952 103.595 66.5326 103.937C66.3897 104.124 66.2309 104.297 66.0489 104.442C65.9683 104.506 65.8815 104.565 65.7838 104.595C65.6861 104.625 65.5762 104.625 65.487 104.575C65.3807 104.515 65.3196 104.395 65.283 104.277C65.1828 103.961 65.2085 103.621 65.239 103.291C65.2647 103.025 65.2928 102.756 65.3661 102.5C65.4393 102.244 65.5065 101.944 65.9206 101.544Z" fill="#EDF2F5"/>
<path d="M82.5452 102.83C82.4927 102.594 82.3901 102.37 82.351 102.131C82.3119 101.892 82.351 101.617 82.533 101.462C82.6148 101.392 82.7186 101.352 82.8249 101.337C83.1022 101.296 83.3856 101.412 83.5969 101.6C83.8082 101.787 83.9572 102.037 84.0782 102.296C84.4092 103.002 84.5521 103.851 84.2406 104.567C84.1735 104.724 84.077 104.877 83.9255 104.949C83.7887 105.014 83.625 104.997 83.487 104.936C83.3489 104.874 83.2329 104.77 83.1303 104.657C82.6539 104.137 82.6759 103.411 82.5452 102.83Z" fill="#EDF2F5"/>
<mask id="mask22_510_1376" style="mask-type:luminance" maskUnits="userSpaceOnUse" x="65" y="101" width="4" height="6">
<path d="M65.0887 101.128H68.1425V106.503H65.0887V101.128Z" fill="white"/>
</mask>
<g mask="url(#mask22_510_1376)">
<path d="M66.6156 101.128C65.7728 101.128 65.0887 102.332 65.0887 103.816C65.0887 105.3 65.7728 106.503 66.6156 106.503C67.4584 106.503 68.1425 105.3 68.1425 103.816C68.1425 102.332 67.4597 101.128 66.6156 101.128ZM66.954 102.053C66.5301 103.007 66.1307 103.232 65.8082 104.12C65.6286 104.616 65.4063 104.118 65.4063 103.307C65.4063 102.357 66.3567 101.017 66.8624 101.505C67.0065 101.643 67.0358 101.87 66.954 102.053Z" fill="#426077"/>
</g>
<mask id="mask23_510_1376" style="mask-type:luminance" maskUnits="userSpaceOnUse" x="81" y="101" width="4" height="6">
<path d="M84.4129 101.128H81.3591V106.503H84.4129V101.128Z" fill="white"/>
</mask>
<g mask="url(#mask23_510_1376)">
<path d="M82.886 101.128C82.0432 101.128 81.3591 102.332 81.3591 103.816C81.3591 105.3 82.0432 106.503 82.886 106.503C83.7288 106.503 84.4129 105.3 84.4129 103.816C84.4129 102.332 83.7288 101.128 82.886 101.128ZM83.6934 104.12C83.3709 103.232 82.9715 103.007 82.5476 102.053C82.4658 101.868 82.4951 101.643 82.6392 101.503C83.1449 101.016 84.0953 102.356 84.0953 103.306C84.0953 104.118 83.8742 104.616 83.6934 104.12Z" fill="#426077"/>
</g>
<g opacity="0.5">
<mask id="mask24_510_1376" style="mask-type:luminance" maskUnits="userSpaceOnUse" x="62" y="36" width="13" height="26">
<path d="M62.5212 36.381H74.6922V61.3397H62.5212V36.381Z" fill="white"/>
</mask>
<g mask="url(#mask24_510_1376)">
<path d="M72.5399 36.721L74.0155 40.5635L73.8628 48.2485L73.5819 48.2998C73.213 48.366 72.8294 48.2548 72.5644 47.9848C72.5009 47.9198 72.4544 47.856 72.4422 47.801C72.4288 47.7423 72.4459 47.5285 72.4947 47.566C72.7586 47.7723 73.1568 47.651 73.2692 47.331C73.2777 47.3073 73.2826 47.2873 73.2826 47.2723C73.3474 45.9673 73.3034 44.8398 73.3034 42.0448C73.3034 40.8585 71.9671 39.9698 70.8298 39.7385C70.2521 39.621 69.6267 39.5185 69.0819 39.4873C69.0269 39.4835 68.9707 39.4823 68.9145 39.481C66.86 39.4523 64.4878 40.3598 63.7427 41.5448C62.6983 43.206 63.1136 49.1098 63.1136 49.1098C63.1136 49.1098 62.3575 44.5648 62.9548 41.9123C63.5522 39.2598 63.8795 38.7585 66.2651 37.2735C68.4846 35.891 71.7276 36.4585 72.5399 36.721Z" fill="#426077"/>
</g>
<mask id="mask25_510_1376" style="mask-type:luminance" maskUnits="userSpaceOnUse" x="62" y="36" width="13" height="26">
<path d="M62.5212 36.381H74.6922V61.3397H62.5212V36.381Z" fill="white"/>
</mask>
<g mask="url(#mask25_510_1376)">
<path d="M65.4405 38.8398C65.4405 38.8398 63.8917 40.2598 64.6588 46.0085C66.4055 59.0985 74.6922 61.3398 74.6922 61.3398C74.6922 61.3398 62.5224 58.5598 62.5224 46.7373C62.5212 40.1173 65.4405 38.8398 65.4405 38.8398Z" fill="#426077"/>
</g>
<mask id="mask26_510_1376" style="mask-type:luminance" maskUnits="userSpaceOnUse" x="75" y="36" width="13" height="26">
<path d="M87.5314 36.381H75.3616V61.3398H87.5314V36.381Z" fill="white"/>
</mask>
<g mask="url(#mask26_510_1376)">
<path d="M77.5138 36.721L76.0383 40.5635L76.1909 48.2485L76.4719 48.2998C76.8408 48.366 77.2243 48.2548 77.4894 47.9848C77.5529 47.9198 77.5993 47.856 77.6116 47.801C77.625 47.7423 77.6079 47.5285 77.559 47.566C77.2952 47.7723 76.897 47.651 76.7846 47.331C76.776 47.3073 76.7712 47.2873 76.7712 47.2723C76.7064 45.9673 76.7504 44.8398 76.7504 42.0448C76.7504 40.8585 78.0867 39.9698 79.2239 39.7385C79.8017 39.621 80.4271 39.5185 80.9719 39.4873C81.0269 39.4835 81.083 39.4823 81.1392 39.481C83.1938 39.4523 85.5659 40.3598 86.3111 41.5448C87.3554 43.206 86.9401 49.1098 86.9401 49.1098C86.9401 49.1098 87.6962 44.5648 87.0989 41.9123C86.5016 39.2598 86.1742 38.7585 83.7887 37.2735C81.568 35.891 78.3249 36.4585 77.5138 36.721Z" fill="#426077"/>
</g>
<mask id="mask27_510_1376" style="mask-type:luminance" maskUnits="userSpaceOnUse" x="75" y="36" width="13" height="26">
<path d="M87.5314 36.381H75.3616V61.3398H87.5314V36.381Z" fill="white"/>
</mask>
<g mask="url(#mask27_510_1376)">
<path d="M84.6131 38.8398C84.6131 38.8398 86.162 40.2598 85.3949 46.0085C83.6481 59.0985 75.3615 61.3398 75.3615 61.3398C75.3615 61.3398 87.5313 58.5598 87.5313 46.7373C87.5313 40.1173 84.6131 38.8398 84.6131 38.8398Z" fill="#426077"/>
</g>
<path opacity="0.4" d="M71.4039 60.1098L67.0505 68.1523C67.0505 68.1523 73.0273 70.281 78.3298 69.1985C83.6323 68.1148 84.1429 67.0648 84.1429 67.0648L84.0538 56.166C84.055 56.166 76.329 64.2735 71.4039 60.1098Z" fill="#426077"/>
</g>
<mask id="mask28_510_1376" style="mask-type:luminance" maskUnits="userSpaceOnUse" x="83" y="98" width="15" height="14">
<path d="M97.2887 98.2561H83.8473V111.48H97.2887V98.2561Z" fill="white"/>
</mask>
<g mask="url(#mask28_510_1376)">
<path d="M97.0708 106.408C97.309 106.085 97.2919 105.636 97.2846 105.249C97.2528 104.929 97.276 104.605 97.2455 104.285C97.2186 103.986 97.2259 103.684 97.1588 103.391C97.1893 103.065 97.1917 102.736 97.1978 102.41C97.2198 101.94 96.8094 101.894 96.4698 101.768C96.4613 101.764 96.4515 101.76 96.4429 101.758C96.2658 101.668 96.0997 101.555 95.9373 101.44C95.6991 101.263 95.4462 101.109 95.1775 100.989C95.1714 100.984 95.1665 100.979 95.1616 100.975C94.8342 100.668 94.4397 100.424 93.9975 100.345C93.9694 100.334 93.9682 100.338 93.9792 100.346C93.8155 100.279 93.6164 100.296 93.4442 100.295C93.0337 100.33 92.6416 100.455 92.2422 100.553C91.6608 100.681 91.5289 100.675 91.0195 100.596C90.5932 100.504 90.5944 100.524 90.2475 100.296C90.0374 100.154 89.8041 100.05 89.5928 99.9101C89.489 99.8251 88.8281 99.3151 88.4531 99.0989C87.8851 98.7164 87.217 98.5426 86.5732 98.3414C85.9894 98.1676 85.2699 98.2039 85.331 99.0164C85.3701 99.3114 85.5399 99.5689 85.7035 99.8064C85.9515 100.266 86.3338 100.625 86.7394 100.939C86.9885 101.113 87.0105 101.161 87.2194 101.325C87.1852 101.32 87.1498 101.315 87.1131 101.31C87.2157 101.325 86.8029 101.259 86.7174 101.239C86.2422 101.129 85.7512 101.068 85.2626 101.091C84.9865 101.115 84.7227 101.208 84.4747 101.33C84.1681 101.479 84.0008 101.801 83.9409 102.131C83.8835 102.394 83.8676 102.674 83.9959 102.918C84.1095 103.176 84.3269 103.375 84.6042 103.53C84.3513 103.533 84.1192 103.621 83.969 103.889C83.8456 104.205 83.8371 104.568 83.8505 104.904C83.8713 105.241 84.0545 105.534 84.267 105.781C84.4136 105.943 84.5724 106.093 84.7422 106.229C84.0582 106.213 83.7894 106.724 83.9238 107.393C84.0081 107.84 84.3025 108.191 84.6494 108.461C84.4894 108.565 84.3977 108.766 84.46 108.963C84.5419 109.21 84.7801 109.344 84.9914 109.464C85.3322 109.654 85.6999 109.785 86.0553 109.941C86.6856 110.204 87.2609 110.376 88.0855 110.569C88.6791 110.704 89.2874 110.761 89.8774 110.916C90.4894 111.069 91.1148 111.17 91.7426 111.231C92.2227 111.264 92.7027 111.239 93.1828 111.26C93.2927 111.259 93.4026 111.26 93.5126 111.261C93.5309 111.266 93.5578 111.271 93.5859 111.274C93.9584 111.346 94.3261 111.45 94.7072 111.469C95.2068 111.494 95.7088 111.468 96.2011 111.375C96.6824 111.32 97.0574 111.268 97.0793 110.655C97.0867 110.584 97.0867 110.515 97.0842 110.446C97.1123 110.373 97.1331 110.293 97.1404 110.199C97.1734 109.745 97.2088 109.289 97.2198 108.834C97.2052 108.31 97.1539 108.228 97.127 107.813C97.1001 107.345 97.0916 106.876 97.0708 106.408ZM86.9666 104.158C86.8859 104.151 86.8053 104.145 86.7235 104.141C86.6539 104.121 86.5855 104.1 86.5158 104.078C86.6722 104.106 86.8236 104.133 86.9666 104.158Z" fill="#EDF2F5"/>
</g>
<mask id="mask29_510_1376" style="mask-type:luminance" maskUnits="userSpaceOnUse" x="52" y="98" width="14" height="14">
<path d="M65.934 98.256H52.4927V111.48H65.934V98.256Z" fill="white"/>
</mask>
<g mask="url(#mask29_510_1376)">
<path d="M52.7102 106.408C52.472 106.085 52.4891 105.636 52.4964 105.249C52.5282 104.929 52.505 104.605 52.5355 104.285C52.5624 103.986 52.555 103.684 52.6222 103.391C52.5917 103.065 52.5892 102.736 52.5831 102.41C52.5611 101.94 52.9716 101.894 53.3112 101.768C53.3197 101.764 53.3295 101.76 53.338 101.758C53.5151 101.668 53.6813 101.555 53.8437 101.44C54.0819 101.263 54.3348 101.109 54.6035 100.989C54.6096 100.984 54.6145 100.979 54.6194 100.975C54.9467 100.668 55.3413 100.424 55.7835 100.345C55.8116 100.334 55.8128 100.338 55.8018 100.346C55.9655 100.279 56.1646 100.296 56.3368 100.295C56.7472 100.33 57.1393 100.455 57.5388 100.553C58.1202 100.681 58.2521 100.675 58.7615 100.596C59.1878 100.504 59.1866 100.524 59.5335 100.296C59.7436 100.154 59.9769 100.05 60.1882 99.9101C60.292 99.8251 60.9528 99.3151 61.3278 99.0988C61.8958 98.7163 62.564 98.5426 63.2077 98.3413C63.7916 98.1676 64.5111 98.2038 64.45 99.0163C64.4109 99.3113 64.2411 99.5688 64.0774 99.8063C63.8295 100.266 63.4471 100.625 63.0416 100.939C62.7924 101.113 62.7704 101.161 62.5616 101.325C62.5958 101.32 62.6312 101.315 62.6678 101.31C62.5652 101.325 62.9781 101.259 63.0636 101.239C63.5388 101.129 64.0298 101.068 64.5184 101.091C64.7945 101.115 65.0583 101.208 65.3063 101.33C65.6129 101.479 65.7802 101.801 65.8401 102.131C65.8975 102.394 65.9133 102.674 65.7851 102.918C65.6715 103.176 65.4541 103.375 65.1768 103.53C65.4296 103.533 65.6617 103.621 65.812 103.889C65.9353 104.205 65.9439 104.568 65.9305 104.904C65.9097 105.241 65.7265 105.534 65.5139 105.781C65.3673 105.943 65.2085 106.093 65.0388 106.229C65.7228 106.213 65.9915 106.724 65.8572 107.393C65.7729 107.84 65.4785 108.191 65.1316 108.461C65.2916 108.565 65.3832 108.766 65.3209 108.963C65.2391 109.21 65.0009 109.344 64.7896 109.464C64.4488 109.654 64.0811 109.785 63.7256 109.941C63.0953 110.204 62.52 110.376 61.6955 110.569C61.1019 110.704 60.4936 110.761 59.9036 110.916C59.2916 111.069 58.6662 111.17 58.0383 111.231C57.5583 111.264 57.0782 111.239 56.5982 111.26C56.4883 111.259 56.3783 111.26 56.2684 111.261C56.2501 111.266 56.2232 111.271 56.1951 111.274C55.8226 111.346 55.4549 111.45 55.0738 111.469C54.5742 111.494 54.0721 111.468 53.5799 111.375C53.0986 111.32 52.7236 111.268 52.7016 110.655C52.6943 110.584 52.6943 110.515 52.6967 110.446C52.6686 110.373 52.6479 110.293 52.6405 110.199C52.6076 109.745 52.5721 109.289 52.5611 108.834C52.5758 108.31 52.6271 108.228 52.654 107.813C52.6809 107.345 52.6894 106.876 52.7102 106.408ZM62.8144 104.158C62.895 104.151 62.9756 104.145 63.0575 104.141C63.1271 104.121 63.1955 104.1 63.2651 104.078C63.1088 104.106 62.9561 104.133 62.8144 104.158Z" fill="#EDF2F5"/>
</g>
<mask id="mask30_510_1376" style="mask-type:luminance" maskUnits="userSpaceOnUse" x="22" y="101" width="31" height="41">
<path d="M52.9397 101.572H22.1128V141.092H52.9397V101.572Z" fill="white"/>
</mask>
<g mask="url(#mask30_510_1376)">
<path d="M22.4547 119.219C24.4213 109.931 39.0073 102.842 48.4226 101.974C49.9995 101.829 51.4299 101.857 52.6331 102.08L52.5524 140.497L22.4547 119.219Z" fill="#EDF2F5" stroke="#426077" stroke-width="1.55537" stroke-miterlimit="10"/>
</g>
<mask id="mask31_510_1376" style="mask-type:luminance" maskUnits="userSpaceOnUse" x="96" y="101" width="32" height="41">
<path d="M127.825 101.572H96.9979V141.092H127.825V101.572Z" fill="white"/>
</mask>
<g mask="url(#mask31_510_1376)">
<path d="M127.483 119.219C125.516 109.931 110.93 102.842 101.515 101.974C99.938 101.829 98.5077 101.857 97.3045 102.08L97.3851 140.497L127.483 119.219Z" fill="#EDF2F5" stroke="#426077" stroke-width="1.55537" stroke-miterlimit="10"/>
</g>
<mask id="mask32_510_1376" style="mask-type:luminance" maskUnits="userSpaceOnUse" x="83" y="97" width="15" height="15">
<path d="M97.4572 97.9273H83.5053V111.976H97.4572V97.9273Z" fill="white"/>
</mask>
<g mask="url(#mask32_510_1376)">
<path d="M97.0101 110.992C96.3029 111.565 88.7161 111.525 85.5769 109.742C84.8782 109.345 84.4678 108.914 84.353 108.455C85.1384 109.045 86.4051 109.377 87.3359 109.621L87.4983 109.664C87.5142 109.667 87.5288 109.67 87.5447 109.67C87.6266 109.67 87.7011 109.614 87.7218 109.529C87.7475 109.429 87.6876 109.326 87.5899 109.3L87.4262 109.257C86.2695 108.955 84.3322 108.447 84.0354 107.474C83.9254 107.112 84.0598 106.691 84.436 106.22C84.5362 106.265 84.7084 106.352 84.8758 106.437C85.7662 106.889 87.254 107.644 88.208 107.494C88.3069 107.479 88.3766 107.382 88.3607 107.28C88.346 107.179 88.2532 107.107 88.1518 107.124C87.3126 107.254 85.8334 106.505 85.0394 106.101C84.811 105.985 84.6644 105.912 84.5643 105.87C84.5631 105.869 84.5631 105.869 84.5618 105.869C84.5521 105.865 84.5423 105.861 84.5325 105.859C84.5069 105.852 84.4812 105.842 84.4568 105.831C84.4568 105.83 84.4556 105.83 84.4556 105.83C84.0842 105.649 83.9169 104.889 84.0305 104.317C84.0818 104.06 84.2259 103.645 84.6278 103.687C85.2935 104.079 86.3489 104.289 87.6815 104.555C88.1543 104.65 88.6429 104.746 89.1767 104.862C89.1889 104.866 89.2023 104.867 89.2145 104.867C89.2988 104.867 89.3758 104.806 89.3941 104.719C89.4148 104.617 89.3513 104.517 89.2524 104.496C88.7161 104.379 88.2043 104.277 87.7524 104.187C86.333 103.905 85.368 103.696 84.8061 103.361C84.7903 103.352 84.7744 103.342 84.7597 103.334C84.7585 103.332 84.7585 103.332 84.7573 103.332C84.3078 103.046 84.138 102.666 84.2186 102.077C84.2589 101.776 84.3713 101.565 84.5606 101.431C85.1567 101.011 86.4906 101.324 88.0345 101.687C88.5415 101.806 89.0667 101.93 89.6091 102.037C89.708 102.057 89.8045 101.991 89.824 101.89C89.8436 101.789 89.7789 101.69 89.6799 101.67C89.1425 101.562 88.6209 101.44 88.1164 101.321C87.7829 101.242 87.4629 101.167 87.1587 101.101C87.0891 101.032 87.0048 100.952 86.9108 100.865C86.3318 100.321 85.2544 99.3073 85.5696 98.6473C85.7833 98.1973 86.6677 98.5423 87.0928 98.7085L87.1856 98.7448C88.1909 99.1298 89.0704 99.6585 89.9205 100.17C90.4971 100.517 91.0309 100.797 91.7149 100.707C91.9873 100.672 92.2487 100.596 92.5016 100.524C92.8045 100.435 93.0903 100.352 93.3872 100.335C94.4083 100.275 95.2646 100.967 96.0952 101.636C96.3151 101.814 96.524 101.981 96.7365 102.136C96.7683 102.16 97.1481 102.39 97.1481 102.39C97.1481 102.39 97.1628 102.024 97.114 101.967C97.0773 101.925 97.0321 101.891 96.949 101.831C96.7438 101.681 96.5386 101.516 96.3212 101.341C95.4784 100.662 94.5231 99.896 93.3664 99.961C93.0293 99.9798 92.7092 100.072 92.4014 100.162C92.1498 100.235 91.9128 100.304 91.6685 100.336C91.0993 100.411 90.6424 100.17 90.1062 99.8473C89.2426 99.3273 88.3497 98.7898 87.3139 98.3935L87.2235 98.3585C86.697 98.1535 85.6001 97.726 85.2398 98.4835C84.8428 99.3173 85.7833 100.304 86.4771 100.966C85.5586 100.804 84.8257 100.789 84.353 101.122C84.0769 101.316 83.9096 101.62 83.8546 102.025C83.7727 102.631 83.9083 103.061 84.232 103.386C83.9572 103.516 83.7569 103.816 83.6714 104.244C83.5431 104.891 83.6995 105.675 84.1087 106.039C83.6836 106.592 83.5419 107.111 83.686 107.585C83.741 107.765 83.8338 107.93 83.9572 108.081C83.9034 108.827 84.3884 109.496 85.3998 110.07C87.5508 111.291 91.572 111.851 94.2459 111.851C95.5358 111.851 96.6962 111.69 96.9955 111.44C97.0749 111.375 97.71 110.426 97.0101 110.992Z" fill="#426077" stroke="#426077" stroke-width="0.62215" stroke-miterlimit="10"/>
</g>
<mask id="mask33_510_1376" style="mask-type:luminance" maskUnits="userSpaceOnUse" x="52" y="97" width="15" height="15">
<path d="M66.2382 97.9273H52.2862V111.976H66.2382V97.9273Z" fill="white"/>
</mask>
<g mask="url(#mask33_510_1376)">
<path d="M66.072 104.244C65.9865 103.816 65.7862 103.516 65.5113 103.386C65.835 103.061 65.9706 102.631 65.8888 102.025C65.8338 101.62 65.6665 101.316 65.3904 101.122C64.9177 100.789 64.1848 100.804 63.2662 100.966C63.96 100.304 64.9006 99.3173 64.5036 98.4836C64.1433 97.7261 63.0463 98.1536 62.5199 98.3586L62.4295 98.3935C61.3937 98.7898 60.5007 99.3273 59.6371 99.8473C59.1009 100.17 58.6441 100.411 58.0748 100.336C57.8305 100.304 57.5936 100.235 57.3419 100.162C57.0341 100.072 56.7141 99.9798 56.377 99.9611C55.2202 99.8961 54.265 100.662 53.4222 101.341C53.2047 101.516 52.9995 101.681 52.7943 101.831C52.7112 101.891 52.6661 101.925 52.6294 101.967C52.5805 102.024 52.5952 102.39 52.5952 102.39C52.5952 102.39 52.9751 102.16 53.0068 102.136C53.2194 101.981 53.4283 101.814 53.6481 101.636C54.4788 100.967 55.335 100.275 56.3562 100.335C56.653 100.352 56.9389 100.435 57.2418 100.524C57.4946 100.596 57.756 100.672 58.0284 100.707C58.7125 100.797 59.2463 100.517 59.8228 100.17C60.673 99.6586 61.5524 99.1298 62.5577 98.7448L62.6506 98.7086C63.0757 98.5423 63.96 98.1973 64.1738 98.6473C64.4889 99.3073 63.4116 100.321 62.8326 100.865C62.7385 100.952 62.6542 101.032 62.5846 101.101C62.2805 101.167 61.9604 101.242 61.627 101.321C61.1225 101.44 60.6009 101.562 60.0634 101.67C59.9645 101.69 59.8998 101.789 59.9193 101.89C59.9389 101.991 60.0354 102.057 60.1343 102.037C60.6766 101.93 61.2019 101.806 61.7088 101.687C63.2528 101.324 64.5867 101.011 65.1827 101.431C65.3721 101.565 65.4845 101.776 65.5248 102.077C65.6054 102.666 65.4356 103.046 64.9861 103.332C64.9849 103.332 64.9849 103.332 64.9836 103.334C64.969 103.342 64.9531 103.352 64.9372 103.361C64.3753 103.696 63.4104 103.905 61.991 104.187C61.539 104.277 61.0272 104.379 60.491 104.496C60.392 104.517 60.3285 104.617 60.3493 104.719C60.3676 104.806 60.4446 104.867 60.5288 104.867C60.5411 104.867 60.5545 104.866 60.5667 104.862C61.1005 104.746 61.5891 104.65 62.0618 104.555C63.3945 104.289 64.4498 104.079 65.1156 103.687C65.5174 103.645 65.6616 104.06 65.7129 104.317C65.8265 104.889 65.6591 105.649 65.2878 105.83C65.2878 105.83 65.2866 105.83 65.2866 105.831C65.2621 105.842 65.2365 105.852 65.2108 105.859C65.2011 105.861 65.1913 105.865 65.1815 105.869C65.1803 105.869 65.1803 105.869 65.1791 105.87C65.0789 105.912 64.9323 105.985 64.7039 106.101C63.9099 106.505 62.4307 107.254 61.5915 107.124C61.4902 107.107 61.3973 107.179 61.3827 107.28C61.3668 107.382 61.4364 107.479 61.5353 107.494C62.4893 107.644 63.9771 106.889 64.8676 106.437C65.0349 106.352 65.2072 106.265 65.3073 106.22C65.6836 106.691 65.8179 107.112 65.708 107.474C65.4112 108.447 63.4739 108.955 62.3171 109.257L62.1534 109.3C62.0557 109.326 61.9959 109.429 62.0215 109.529C62.0423 109.614 62.1168 109.67 62.1986 109.67C62.2145 109.67 62.2292 109.667 62.245 109.664L62.4075 109.621C63.3383 109.377 64.605 109.045 65.3904 108.455C65.2756 108.914 64.8652 109.345 64.1665 109.742C61.0272 111.525 53.4405 111.565 52.7332 110.992C52.0333 110.426 52.6685 111.375 52.7479 111.44C53.0472 111.69 54.2076 111.851 55.4975 111.851C58.1713 111.851 62.1925 111.291 64.3436 110.07C65.355 109.496 65.8399 108.827 65.7862 108.081C65.9095 107.93 66.0024 107.765 66.0573 107.585C66.2015 107.111 66.0598 106.592 65.6347 106.039C66.0439 105.675 66.2003 104.891 66.072 104.244Z" fill="#426077" stroke="#426077" stroke-width="0.62215" stroke-miterlimit="10"/>
</g>
<mask id="mask34_510_1376" style="mask-type:luminance" maskUnits="userSpaceOnUse" x="35" y="105" width="10" height="14">
<path d="M35.4552 105.866H44.6775V118.085H35.4552V105.866Z" fill="white"/>
</mask>
<g mask="url(#mask34_510_1376)">
<path d="M43.7578 109.475H40.9214V107.085L40.0664 105.866L39.2113 107.085V109.475H36.375L35.4552 110.35L36.375 111.225H39.2113V116.866L40.0664 118.085L40.9214 116.866V111.225H43.7578L44.6775 110.35L43.7578 109.475Z" fill="#426077"/>
</g>
<mask id="mask35_510_1376" style="mask-type:luminance" maskUnits="userSpaceOnUse" x="105" y="105" width="10" height="14">
<path d="M114.511 105.866H105.288V118.085H114.511V105.866Z" fill="white"/>
</mask>
<g mask="url(#mask35_510_1376)">
<path d="M113.591 109.475H110.755V107.085L109.899 105.866L109.044 107.085V109.475H106.208L105.288 110.35L106.208 111.225H109.044V116.866L109.899 118.085L110.755 116.866V111.225H113.591L114.511 110.35L113.591 109.475Z" fill="#426077"/>
</g>
<mask id="mask36_510_1376" style="mask-type:luminance" maskUnits="userSpaceOnUse" x="47" y="101" width="2" height="30">
<path d="M47.6849 101.878H48.2003V130.697H47.6849V101.878Z" fill="white"/>
</mask>
<g mask="url(#mask36_510_1376)">
<path d="M48.187 101.878H47.6984V130.697H48.187V101.878Z" fill="#426077"/>
</g>
<mask id="mask37_510_1376" style="mask-type:luminance" maskUnits="userSpaceOnUse" x="101" y="101" width="1" height="30">
<path d="M101.924 101.879H101.41V130.697H101.924V101.879Z" fill="white"/>
</mask>
<g mask="url(#mask37_510_1376)">
<path d="M101.911 101.879H101.422V130.697H101.911V101.879Z" fill="#426077"/>
</g>
<path d="M75 15.551C83.2268 15.551 91.1958 17.1572 98.6873 20.326C105.91 23.381 112.394 27.751 117.959 33.3172C123.501 38.8597 127.848 45.3022 130.879 52.466C134.002 59.8522 135.586 67.7022 135.586 75.7997C135.586 83.8972 134.002 91.7485 130.879 99.1335C127.848 106.297 123.502 112.741 117.959 118.282C112.394 123.847 105.91 128.218 98.6873 131.273C91.1958 134.442 83.2256 136.048 75 136.048C66.7744 136.048 58.8041 134.442 51.3127 131.273C44.09 128.218 37.6063 123.848 32.0411 118.282C26.4992 112.74 22.1519 106.297 19.1226 99.1335C15.9992 91.7472 14.4149 83.8972 14.4149 75.7997C14.4149 67.7022 15.9992 59.851 19.1226 52.466C22.1531 45.3022 26.4992 38.8585 32.0411 33.3172C37.6063 27.7522 44.09 23.381 51.3127 20.326C58.8041 17.1572 66.7732 15.551 75 15.551ZM75 0.800964C33.579 0.800964 0 34.3797 0 75.801C0 117.222 33.579 150.801 75 150.801C116.421 150.801 150 117.222 150 75.801C150 34.3797 116.421 0.800964 75 0.800964Z" fill="#426077"/>
<path d="M67.1446 117.78C67.3242 117.125 67.2411 116.412 67.0432 115.771C66.7159 114.803 66.0233 113.906 66.0318 112.977C66.0953 111.972 66.5167 111.42 66.733 110.432C66.8417 109.946 66.9724 109.452 66.954 108.95C66.8673 107.945 66.4984 106.938 65.8596 106.165C65.8278 106.127 65.7961 106.088 65.7643 106.051C65.9145 106.366 66.0453 106.691 66.1369 107.03C66.3286 107.737 66.4141 108.475 66.4068 109.208C66.386 110.012 66.022 110.938 65.8278 111.522C65.5286 112.336 65.0583 113.12 65.0033 114.005C64.9777 115.151 65.7521 116.068 66.0343 117.132C66.1857 117.711 66.204 118.666 65.8938 119.102C65.9988 118.921 65.8889 119.111 65.8205 119.216C65.79 119.257 65.7582 119.297 65.7264 119.337C65.2378 119.915 64.6344 120.465 64.5184 121.251C64.4378 121.76 64.6344 122.263 64.8494 122.712C65.1352 123.281 65.4601 123.831 65.6825 124.43C65.9683 125.112 66.0147 125.893 65.658 126.552C65.5505 126.795 65.349 126.992 65.3014 127.267C65.3661 127.031 65.5371 126.85 65.6678 126.65C65.8425 126.395 65.9976 126.123 66.1075 125.832C66.7049 124.372 65.906 122.873 65.5224 121.47C65.3062 120.755 65.5139 120.106 65.6715 119.858C66.2236 119.218 66.8722 118.608 67.1446 117.78Z" fill="#426077"/>
<path d="M85.0408 112.255C84.7037 111.127 84.0038 110.156 83.6288 109.044C83.277 107.822 83.5298 106.347 83.6373 105.011C83.6691 104.756 83.5604 105.3 83.5408 105.341C83.1756 106.894 82.6259 108.529 82.996 110.131C83.244 111.137 83.6825 112.081 83.9598 113.08C84.0599 113.502 84.1442 113.98 84.1222 114.524C84.1088 114.871 84.027 115.211 83.9341 115.545C83.8193 115.922 83.8389 115.919 83.6813 116.221C83.6569 116.259 83.6153 116.325 83.5823 116.372C83.5738 116.384 83.5665 116.395 83.5579 116.406C83.5579 116.407 83.5567 116.407 83.5567 116.409C83.5542 116.412 83.5542 116.412 83.5518 116.415C83.2415 116.846 82.8959 117.252 82.6393 117.72C82.4757 118.012 82.3413 118.331 82.3047 118.669C82.2814 119.186 82.4561 119.692 82.6503 120.162C83.0107 121.036 83.5115 121.846 83.8108 122.746C84.1931 123.996 83.5164 125.441 83.1084 126.67C83.7656 125.169 84.8075 123.595 84.4862 121.879C84.2688 120.81 83.8059 119.815 83.5164 118.767C83.244 117.846 83.4101 117.276 83.735 116.795C83.7961 116.671 84.5107 115.826 84.7855 115.262C85.0005 114.74 85.1678 114.181 85.2118 113.615C85.2436 113.155 85.1507 112.697 85.0408 112.255Z" fill="#426077"/>
<path d="M50.5225 93.9747C50.4345 93.0372 50.3063 92.1035 50.1475 91.1747C49.566 87.7947 48.5351 84.5097 47.3686 81.2972C47.255 81.001 47.1377 80.706 47.0131 80.4147C47.073 80.651 47.1304 80.8872 47.1866 81.1247C47.9415 84.3272 48.3555 87.2022 49.0848 90.3172C49.3889 91.596 49.7652 92.8535 50.1157 94.1197C50.3136 94.876 50.5359 95.6147 50.5371 96.3985C50.6605 95.5972 50.5921 94.7797 50.5225 93.9747Z" fill="#AFC1CF"/>
<path d="M47.1597 93.5948C47.1401 93.5573 47.1206 93.5185 47.1011 93.481C47.1145 93.526 47.1267 93.5698 47.1401 93.6148C47.2672 94.051 47.3991 94.486 47.5371 94.9198C47.8621 95.9998 48.3067 97.0348 48.7843 98.0523C48.5669 96.4673 47.862 95.006 47.1597 93.5948Z" fill="#AFC1CF"/>
<path d="M103.869 81.0622C102.821 83.9447 101.857 86.8597 100.95 89.7922C100.157 92.431 99.3751 95.0885 99.0343 97.8347C99.5937 95.3797 100.423 93.0035 101.151 90.5985C102.123 87.4085 102.966 84.1772 103.946 80.9897C104.024 80.736 104.104 80.4822 104.185 80.2285C104.078 80.506 103.973 80.7835 103.869 81.0622Z" fill="#AFC1CF"/>
<path d="M100.158 98.6973C100.707 97.491 101.257 96.286 101.761 95.0598C101.171 96.2448 100.544 97.4235 100.158 98.6973Z" fill="#AFC1CF"/>
<path d="M46.257 104.587C45.9943 105.96 45.9968 107.366 46.009 108.76C46.191 107.376 46.3242 105.983 46.257 104.587Z" fill="#AFC1CF"/>
<path d="M32.6849 109.086C32.6031 109.48 32.1511 112.881 32.1731 113.283C32.8743 111.646 32.8449 109.826 32.6849 109.086Z" fill="#AFC1CF"/>
<path d="M103.354 105.805C103.167 109.608 103.571 113.406 104.18 117.153C104.21 113.355 104.11 109.536 103.354 105.805Z" fill="#AFC1CF"/>
<path d="M116.72 108.969C116.792 109.361 116.81 109.765 116.905 110.152C116.965 110.396 117.042 110.636 117.128 110.871C117.13 110.801 117.13 110.731 117.128 110.661C117.119 110.077 117.044 109.464 116.72 108.969Z" fill="#AFC1CF"/>
<path d="M81.0709 72.4472C80.3747 74.7385 79.6735 77.0572 79.4866 79.461C79.301 81.6672 79.6503 83.8622 79.8042 86.0572C80.1926 81.591 80.509 77.1122 81.1027 72.6697C81.1601 72.3522 81.2248 72.0372 81.2981 71.7235C81.2199 71.9647 81.1442 72.2047 81.0709 72.4472Z" fill="#AFC1CF"/>
<path d="M75.1637 74.5085C75.1576 74.4697 75.1515 74.431 75.1454 74.391C75.1125 74.9047 75.0758 75.4172 75.0392 75.9297C74.9585 77.1135 74.8718 78.2972 74.8278 79.4835C74.7716 81.0522 74.8755 82.621 74.8901 84.1897C75.5033 81.0072 75.6523 77.7197 75.1637 74.5085Z" fill="#AFC1CF"/>
<path d="M69.4105 75.3122C69.3641 75.1422 69.3201 74.9722 69.2761 74.8022C69.2944 75.001 69.3115 75.1997 69.325 75.3985C69.474 77.3097 69.4374 79.2247 69.4569 81.1397C69.4874 82.781 69.6829 84.4172 69.6987 86.0585C70.3413 82.5147 70.461 78.7847 69.4105 75.3122Z" fill="#AFC1CF"/>
<path d="M51.2224 74.476C50.9206 74.8697 50.6263 75.2685 50.3417 75.6747C50.1841 75.9135 50.007 76.151 49.9312 76.4322C49.8286 76.8022 49.8885 77.1947 49.941 77.5685C50.0803 78.4935 50.531 79.3185 50.8889 80.1685C50.7753 79.1835 50.5188 78.2197 50.4382 77.2297C50.4137 76.8035 50.3636 76.361 50.4736 75.9447C50.5554 75.6622 50.7325 75.4585 50.8925 75.2022C51.1662 74.7972 51.4434 74.3972 51.7207 73.9947C52.0346 73.5372 52.329 73.1185 52.6491 72.6835C52.1702 73.276 51.6877 73.8697 51.2224 74.476Z" fill="#AFC1CF"/>
<path d="M99.5962 82.826C101.157 80.1185 100.34 78.0435 98.9329 75.5235C98.4602 74.6522 97.9875 73.7797 97.45 72.9472C98.0375 74.2835 98.5017 75.6722 98.895 77.0797C99.1503 78.0822 99.5974 79.016 99.8832 80.006C99.9895 80.461 100.043 80.9897 99.9724 81.5147C99.8942 81.961 99.777 82.4197 99.5962 82.826Z" fill="#AFC1CF"/>
<g opacity="0.502">
<path d="M73.1189 57.4885C73.1189 56.2885 74.0692 55.316 75.2419 55.316C76.0334 55.316 76.7223 55.761 77.0876 56.4185C76.9104 55.4022 76.0444 54.6285 75 54.6285C73.8274 54.6285 72.8771 55.601 72.8771 56.801C72.8771 57.1897 72.9784 57.5547 73.1543 57.871C73.1323 57.746 73.1189 57.6185 73.1189 57.4885Z" fill="#426077"/>
</g>
<mask id="mask38_510_1376" style="mask-type:luminance" maskUnits="userSpaceOnUse" x="58" y="27" width="15" height="23">
<path d="M58.4218 27.371H72.7598V49.2072H58.4218V27.371Z" fill="white"/>
</mask>
<g mask="url(#mask38_510_1376)">
<path d="M59.0044 45.3335C59.0044 45.3335 58.3815 45.0023 59.6714 43.061C60.9613 41.1198 62.6237 39.3748 63.276 37.991C63.9283 36.6073 64.2324 35.9798 64.2324 35.9798C64.2324 35.9798 63.4385 39.6773 61.8237 41.3298C60.2088 42.9823 59.0215 44.0273 59.0215 45.2635" fill="#426077"/>
</g>
<mask id="mask39_510_1376" style="mask-type:luminance" maskUnits="userSpaceOnUse" x="58" y="27" width="15" height="23">
<path d="M58.4218 27.371H72.7598V49.2072H58.4218V27.371Z" fill="white"/>
</mask>
<g mask="url(#mask39_510_1376)">
<path d="M58.4291 36.471C58.4291 36.471 58.1885 35.796 60.4202 35.2548C62.6518 34.7135 65.0301 34.576 66.4251 34.006C67.82 33.436 68.4576 33.1835 68.4576 33.1835C68.4576 33.1835 65.4332 35.3623 63.1502 35.4648C60.8672 35.5673 59.3025 35.5185 58.4878 36.4298" fill="#426077"/>
</g>
<mask id="mask40_510_1376" style="mask-type:luminance" maskUnits="userSpaceOnUse" x="58" y="27" width="15" height="23">
<path d="M58.4218 27.371H72.7598V49.2072H58.4218V27.371Z" fill="white"/>
</mask>
<g mask="url(#mask40_510_1376)">
<path d="M62.7312 30.6585C62.7312 30.6585 62.4906 29.9835 64.7223 29.4423C66.9539 28.901 69.3322 28.7635 70.7271 28.1935C72.1221 27.6235 72.7597 27.371 72.7597 27.371C72.7597 27.371 69.7353 29.5498 67.4523 29.6523C65.1693 29.7548 63.6046 29.706 62.7899 30.6173" fill="#426077"/>
</g>
<mask id="mask41_510_1376" style="mask-type:luminance" maskUnits="userSpaceOnUse" x="58" y="27" width="15" height="23">
<path d="M58.4218 27.371H72.7598V49.2072H58.4218V27.371Z" fill="white"/>
</mask>
<g mask="url(#mask41_510_1376)">
<path d="M60.9014 49.2072C60.9014 49.2072 60.5105 49.126 61.004 47.9635C61.4975 46.7997 62.2243 45.6847 62.4258 44.8922C62.6274 44.0997 62.7239 43.7397 62.7239 43.7397C62.7239 43.7397 62.7202 45.7235 62.0093 46.786C61.2984 47.8485 60.756 48.5435 60.9038 49.1697" fill="#426077"/>
</g>
<mask id="mask42_510_1376" style="mask-type:luminance" maskUnits="userSpaceOnUse" x="77" y="27" width="15" height="23">
<path d="M91.6221 27.371H77.2829V49.2073H91.6221V27.371Z" fill="white"/>
</mask>
<g mask="url(#mask42_510_1376)">
<path d="M91.0394 45.3335C91.0394 45.3335 91.6624 45.0023 90.3725 43.061C89.0826 41.1198 87.4201 39.3748 86.7679 37.991C86.1156 36.6073 85.8114 35.9798 85.8114 35.9798C85.8114 35.9798 86.6054 39.6773 88.2202 41.3298C89.8363 42.9835 91.0223 44.0273 91.0223 45.2635" fill="#426077"/>
</g>
<mask id="mask43_510_1376" style="mask-type:luminance" maskUnits="userSpaceOnUse" x="77" y="27" width="15" height="23">
<path d="M91.6221 27.371H77.2829V49.2073H91.6221V27.371Z" fill="white"/>
</mask>
<g mask="url(#mask43_510_1376)">
<path d="M91.6135 36.471C91.6135 36.471 91.8542 35.796 89.6225 35.2548C87.3896 34.7135 85.0125 34.576 83.6176 34.006C82.2226 33.436 81.585 33.1835 81.585 33.1835C81.585 33.1835 84.6095 35.3623 86.8924 35.4648C89.1754 35.5673 90.7402 35.5185 91.5549 36.4298" fill="#426077"/>
</g>
<mask id="mask44_510_1376" style="mask-type:luminance" maskUnits="userSpaceOnUse" x="77" y="27" width="15" height="23">
<path d="M91.6221 27.371H77.2829V49.2073H91.6221V27.371Z" fill="white"/>
</mask>
<g mask="url(#mask44_510_1376)">
<path d="M87.3127 30.6585C87.3127 30.6585 87.5534 29.9835 85.3217 29.4423C83.09 28.901 80.7118 28.7635 79.3168 28.1935C77.9219 27.6235 77.2842 27.371 77.2842 27.371C77.2842 27.371 80.3087 29.5498 82.5917 29.6523C84.8746 29.7548 86.4394 29.706 87.2541 30.6173" fill="#426077"/>
</g>
<mask id="mask45_510_1376" style="mask-type:luminance" maskUnits="userSpaceOnUse" x="77" y="27" width="15" height="23">
<path d="M91.6221 27.371H77.2829V49.2073H91.6221V27.371Z" fill="white"/>
</mask>
<g mask="url(#mask45_510_1376)">
<path d="M89.1412 49.2073C89.1412 49.2073 89.5321 49.126 89.0386 47.9635C88.5451 46.7998 87.8184 45.6848 87.6168 44.8923C87.4153 44.0998 87.3188 43.7398 87.3188 43.7398C87.3188 43.7398 87.3224 45.7235 88.0333 46.786C88.7442 47.8485 89.2866 48.5435 89.1388 49.1698" fill="#426077"/>
</g>
</svg>
