<svg width="100" height="100" viewBox="0 0 100 100" fill="none" xmlns="http://www.w3.org/2000/svg">
<path d="M79.5077 36.3515C81.6842 34.4864 85.1261 34.5164 87.2618 36.4418L98.3728 46.4586C100.542 48.4145 100.542 51.5856 98.3728 53.5415C96.2032 55.4974 92.6856 55.4974 90.516 53.5415L88.8889 52.0745V65.0391C88.8659 72.4651 86.228 79.6928 81.3552 85.6802C76.4825 91.6676 69.6266 96.1055 61.776 98.3541C53.9253 100.603 45.4855 100.546 37.6729 98.192C29.8604 95.838 23.0787 91.3085 18.3056 85.2563C16.5277 83.0019 17.1135 79.875 19.6142 78.2722C22.1148 76.6695 25.5831 77.1977 27.3611 79.4519C30.7705 83.775 35.6145 87.0104 41.1949 88.6918C46.7753 90.3732 52.8038 90.4137 58.4114 88.8076C64.0189 87.2014 68.916 84.0315 72.3966 79.7548C75.8771 75.4781 77.7613 70.3155 77.7778 65.0112V52.0746L76.1506 53.5415C73.9811 55.4974 70.4634 55.4974 68.2939 53.5415C66.1243 51.5856 66.1243 48.4145 68.2939 46.4586L79.405 36.4418L79.5077 36.3515ZM38.224 1.64594C46.0746 -0.602699 54.5145 -0.545994 62.3271 1.80793C70.1396 4.16188 76.9212 8.69154 81.6944 14.7438C83.4723 16.9981 82.8865 20.1249 80.3858 21.7277C77.8852 23.3305 74.4168 22.8023 72.6389 20.548C69.2295 16.225 64.3855 12.9896 58.8051 11.3082C53.2247 9.62686 47.1962 9.5863 41.5886 11.1925C35.981 12.7987 31.084 15.9686 27.6034 20.2453C24.1229 24.522 22.2386 29.6846 22.2222 34.9888V47.9254L23.8494 46.4586C26.0189 44.5027 29.5365 44.5027 31.7061 46.4586C33.8757 48.4145 33.8757 51.5856 31.7061 53.5415L20.5951 63.5582C18.4255 65.5141 14.9079 65.5141 12.7383 63.5582L1.62718 53.5415C-0.542397 51.5856 -0.542389 48.4145 1.62718 46.4586C3.79676 44.5027 7.31437 44.5027 9.48395 46.4586L11.1111 47.9254V34.961C11.134 27.535 13.7722 20.3073 18.6449 14.3199C23.5177 8.3325 30.3734 3.89459 38.224 1.64594Z" fill="#B5CBD5"/>
</svg>
