<svg width="111" height="597" viewBox="0 0 111 597" fill="none" xmlns="http://www.w3.org/2000/svg">
<path d="M6.86614 562.742V559.506H0.394599V562.742H6.86614ZM0.394599 593.481C0.394599 595.268 1.8433 596.717 3.63037 596.717C5.41744 596.717 6.86614 595.268 6.86614 593.481H0.394599ZM18.1913 562.742V559.506H11.7198V562.742H18.1913ZM11.7198 593.481C11.7198 595.268 13.1685 596.717 14.9556 596.717C16.7426 596.717 18.1913 595.268 18.1913 593.481H11.7198ZM29.5166 562.742V559.506H23.045V562.742H29.5166ZM23.045 593.481C23.045 595.268 24.4937 596.717 26.2808 596.717C28.0678 596.717 29.5166 595.268 29.5166 593.481H23.045ZM40.8418 562.742V559.506H34.3702V562.742H40.8418ZM34.3702 593.481C34.3702 595.268 35.8189 596.717 37.606 596.717C39.3931 596.717 40.8418 595.268 40.8418 593.481H34.3702ZM52.167 562.742V559.506H45.6954V562.742H52.167ZM45.6954 593.481C45.6954 595.268 47.1441 596.717 48.9312 596.717C50.7183 596.717 52.167 595.268 52.167 593.481H45.6954ZM63.4922 562.742V559.506H57.0206V562.742H63.4922ZM57.0206 593.481C57.0206 595.268 58.4693 596.717 60.2564 596.717C62.0435 596.717 63.4922 595.268 63.4922 593.481H57.0206ZM74.8174 562.742V559.506H68.3458V562.742H74.8174ZM68.3458 593.481C68.3458 595.268 69.7945 596.717 71.5816 596.717C73.3687 596.717 74.8174 595.268 74.8174 593.481H68.3458ZM86.1426 562.742V559.506H79.671V562.742H86.1426ZM79.671 593.481C79.671 595.268 81.1197 596.717 82.9068 596.717C84.6939 596.717 86.1426 595.268 86.1426 593.481H79.671ZM97.4678 562.742V559.506H90.9962V562.742H97.4678ZM90.9962 593.481C90.9962 595.268 92.4449 596.717 94.232 596.717C96.0191 596.717 97.4678 595.268 97.4678 593.481H90.9962ZM108.793 562.742V559.506H102.321V562.742H108.793ZM102.321 593.481C102.321 595.268 103.77 596.717 105.557 596.717C107.344 596.717 108.793 595.268 108.793 593.481H102.321ZM0.394599 562.742L0.394599 593.481H6.86614V562.742H0.394599ZM11.7198 562.742V593.481H18.1913V562.742H11.7198ZM23.045 562.742V593.481H29.5166V562.742H23.045ZM34.3702 562.742V593.481H40.8418V562.742H34.3702ZM45.6954 562.742V593.481H52.167V562.742H45.6954ZM57.0206 562.742V593.481H63.4922V562.742H57.0206ZM68.3458 562.742V593.481H74.8174V562.742H68.3458ZM79.671 562.742V593.481H86.1426V562.742H79.671ZM90.9962 562.742V593.481H97.4678V562.742H90.9962ZM102.321 562.742V593.481H108.793V562.742H102.321Z" fill="#EDF2F5"/>
<path d="M6.86614 562.742V559.506H0.394599V562.742H6.86614ZM0.394599 593.481C0.394599 595.268 1.8433 596.717 3.63037 596.717C5.41744 596.717 6.86614 595.268 6.86614 593.481H0.394599ZM18.1913 562.742V559.506H11.7198V562.742H18.1913ZM11.7198 593.481C11.7198 595.268 13.1685 596.717 14.9556 596.717C16.7426 596.717 18.1913 595.268 18.1913 593.481H11.7198ZM29.5166 562.742V559.506H23.045V562.742H29.5166ZM23.045 593.481C23.045 595.268 24.4937 596.717 26.2808 596.717C28.0678 596.717 29.5166 595.268 29.5166 593.481H23.045ZM40.8418 562.742V559.506H34.3702V562.742H40.8418ZM34.3702 593.481C34.3702 595.268 35.8189 596.717 37.606 596.717C39.3931 596.717 40.8418 595.268 40.8418 593.481H34.3702ZM52.167 562.742V559.506H45.6954V562.742H52.167ZM45.6954 593.481C45.6954 595.268 47.1441 596.717 48.9312 596.717C50.7183 596.717 52.167 595.268 52.167 593.481H45.6954ZM63.4922 562.742V559.506H57.0206V562.742H63.4922ZM57.0206 593.481C57.0206 595.268 58.4693 596.717 60.2564 596.717C62.0435 596.717 63.4922 595.268 63.4922 593.481H57.0206ZM74.8174 562.742V559.506H68.3458V562.742H74.8174ZM68.3458 593.481C68.3458 595.268 69.7945 596.717 71.5816 596.717C73.3687 596.717 74.8174 595.268 74.8174 593.481H68.3458ZM86.1426 562.742V559.506H79.671V562.742H86.1426ZM79.671 593.481C79.671 595.268 81.1197 596.717 82.9068 596.717C84.6939 596.717 86.1426 595.268 86.1426 593.481H79.671ZM97.4678 562.742V559.506H90.9962V562.742H97.4678ZM90.9962 593.481C90.9962 595.268 92.4449 596.717 94.232 596.717C96.0191 596.717 97.4678 595.268 97.4678 593.481H90.9962ZM108.793 562.742V559.506H102.321V562.742H108.793ZM102.321 593.481C102.321 595.268 103.77 596.717 105.557 596.717C107.344 596.717 108.793 595.268 108.793 593.481H102.321ZM0.394599 562.742L0.394599 593.481H6.86614V562.742H0.394599ZM11.7198 562.742V593.481H18.1913V562.742H11.7198ZM23.045 562.742V593.481H29.5166V562.742H23.045ZM34.3702 562.742V593.481H40.8418V562.742H34.3702ZM45.6954 562.742V593.481H52.167V562.742H45.6954ZM57.0206 562.742V593.481H63.4922V562.742H57.0206ZM68.3458 562.742V593.481H74.8174V562.742H68.3458ZM79.671 562.742V593.481H86.1426V562.742H79.671ZM90.9962 562.742V593.481H97.4678V562.742H90.9962ZM102.321 562.742V593.481H108.793V562.742H102.321Z" fill="#EDF2F5"/>
<path d="M6.86614 562.742V559.506H0.394599V562.742H6.86614ZM0.394599 593.481C0.394599 595.268 1.8433 596.717 3.63037 596.717C5.41744 596.717 6.86614 595.268 6.86614 593.481H0.394599ZM18.1913 562.742V559.506H11.7198V562.742H18.1913ZM11.7198 593.481C11.7198 595.268 13.1685 596.717 14.9556 596.717C16.7426 596.717 18.1913 595.268 18.1913 593.481H11.7198ZM29.5166 562.742V559.506H23.045V562.742H29.5166ZM23.045 593.481C23.045 595.268 24.4937 596.717 26.2808 596.717C28.0678 596.717 29.5166 595.268 29.5166 593.481H23.045ZM40.8418 562.742V559.506H34.3702V562.742H40.8418ZM34.3702 593.481C34.3702 595.268 35.8189 596.717 37.606 596.717C39.3931 596.717 40.8418 595.268 40.8418 593.481H34.3702ZM52.167 562.742V559.506H45.6954V562.742H52.167ZM45.6954 593.481C45.6954 595.268 47.1441 596.717 48.9312 596.717C50.7183 596.717 52.167 595.268 52.167 593.481H45.6954ZM63.4922 562.742V559.506H57.0206V562.742H63.4922ZM57.0206 593.481C57.0206 595.268 58.4693 596.717 60.2564 596.717C62.0435 596.717 63.4922 595.268 63.4922 593.481H57.0206ZM74.8174 562.742V559.506H68.3458V562.742H74.8174ZM68.3458 593.481C68.3458 595.268 69.7945 596.717 71.5816 596.717C73.3687 596.717 74.8174 595.268 74.8174 593.481H68.3458ZM86.1426 562.742V559.506H79.671V562.742H86.1426ZM79.671 593.481C79.671 595.268 81.1197 596.717 82.9068 596.717C84.6939 596.717 86.1426 595.268 86.1426 593.481H79.671ZM97.4678 562.742V559.506H90.9962V562.742H97.4678ZM90.9962 593.481C90.9962 595.268 92.4449 596.717 94.232 596.717C96.0191 596.717 97.4678 595.268 97.4678 593.481H90.9962ZM108.793 562.742V559.506H102.321V562.742H108.793ZM102.321 593.481C102.321 595.268 103.77 596.717 105.557 596.717C107.344 596.717 108.793 595.268 108.793 593.481H102.321ZM0.394599 562.742L0.394599 593.481H6.86614V562.742H0.394599ZM11.7198 562.742V593.481H18.1913V562.742H11.7198ZM23.045 562.742V593.481H29.5166V562.742H23.045ZM34.3702 562.742V593.481H40.8418V562.742H34.3702ZM45.6954 562.742V593.481H52.167V562.742H45.6954ZM57.0206 562.742V593.481H63.4922V562.742H57.0206ZM68.3458 562.742V593.481H74.8174V562.742H68.3458ZM79.671 562.742V593.481H86.1426V562.742H79.671ZM90.9962 562.742V593.481H97.4678V562.742H90.9962ZM102.321 562.742V593.481H108.793V562.742H102.321Z" fill="#EDF2F5"/>
<path d="M6.86614 562.742V559.506H0.394599V562.742H6.86614ZM0.394599 593.481C0.394599 595.268 1.8433 596.717 3.63037 596.717C5.41744 596.717 6.86614 595.268 6.86614 593.481H0.394599ZM18.1913 562.742V559.506H11.7198V562.742H18.1913ZM11.7198 593.481C11.7198 595.268 13.1685 596.717 14.9556 596.717C16.7426 596.717 18.1913 595.268 18.1913 593.481H11.7198ZM29.5166 562.742V559.506H23.045V562.742H29.5166ZM23.045 593.481C23.045 595.268 24.4937 596.717 26.2808 596.717C28.0678 596.717 29.5166 595.268 29.5166 593.481H23.045ZM40.8418 562.742V559.506H34.3702V562.742H40.8418ZM34.3702 593.481C34.3702 595.268 35.8189 596.717 37.606 596.717C39.3931 596.717 40.8418 595.268 40.8418 593.481H34.3702ZM52.167 562.742V559.506H45.6954V562.742H52.167ZM45.6954 593.481C45.6954 595.268 47.1441 596.717 48.9312 596.717C50.7183 596.717 52.167 595.268 52.167 593.481H45.6954ZM63.4922 562.742V559.506H57.0206V562.742H63.4922ZM57.0206 593.481C57.0206 595.268 58.4693 596.717 60.2564 596.717C62.0435 596.717 63.4922 595.268 63.4922 593.481H57.0206ZM74.8174 562.742V559.506H68.3458V562.742H74.8174ZM68.3458 593.481C68.3458 595.268 69.7945 596.717 71.5816 596.717C73.3687 596.717 74.8174 595.268 74.8174 593.481H68.3458ZM86.1426 562.742V559.506H79.671V562.742H86.1426ZM79.671 593.481C79.671 595.268 81.1197 596.717 82.9068 596.717C84.6939 596.717 86.1426 595.268 86.1426 593.481H79.671ZM97.4678 562.742V559.506H90.9962V562.742H97.4678ZM90.9962 593.481C90.9962 595.268 92.4449 596.717 94.232 596.717C96.0191 596.717 97.4678 595.268 97.4678 593.481H90.9962ZM108.793 562.742V559.506H102.321V562.742H108.793ZM102.321 593.481C102.321 595.268 103.77 596.717 105.557 596.717C107.344 596.717 108.793 595.268 108.793 593.481H102.321ZM0.394599 562.742L0.394599 593.481H6.86614V562.742H0.394599ZM11.7198 562.742V593.481H18.1913V562.742H11.7198ZM23.045 562.742V593.481H29.5166V562.742H23.045ZM34.3702 562.742V593.481H40.8418V562.742H34.3702ZM45.6954 562.742V593.481H52.167V562.742H45.6954ZM57.0206 562.742V593.481H63.4922V562.742H57.0206ZM68.3458 562.742V593.481H74.8174V562.742H68.3458ZM79.671 562.742V593.481H86.1426V562.742H79.671ZM90.9962 562.742V593.481H97.4678V562.742H90.9962ZM102.321 562.742V593.481H108.793V562.742H102.321Z" fill="#EDF2F5"/>
<g clip-path="url(#clip0_464_4115)">
<rect width="110.393" height="562.459" transform="translate(0.0175171 0.282837)" fill="#122330"/>
<path fill-rule="evenodd" clip-rule="evenodd" d="M55.2142 17.1612C42.6846 17.1612 32.1375 26.4429 29.357 38.9876L29.2347 39.5394L28.6697 39.5235C28.4333 39.5169 28.196 39.5135 27.958 39.5135C13.3238 39.5135 1.38603 52.1847 1.38603 67.9102C1.38603 83.6357 13.3238 96.3068 27.958 96.3068C28.196 96.3068 28.4333 96.3035 28.6697 96.2968L29.2347 96.281L29.357 96.8327C32.1375 109.377 42.6846 118.659 55.2142 118.659C67.7438 118.659 78.2909 109.377 81.0714 96.8327L81.1937 96.281L81.7587 96.2968C81.9951 96.3035 82.2324 96.3068 82.4704 96.3068C97.1046 96.3068 109.042 83.6357 109.042 67.9102C109.042 52.1847 97.1046 39.5135 82.4704 39.5135C82.2324 39.5135 81.9951 39.5169 81.7587 39.5235L81.1937 39.5394L81.0714 38.9876C78.2909 26.4429 67.7438 17.1612 55.2142 17.1612ZM28.147 38.1457C31.2327 25.3211 42.1565 15.7926 55.2142 15.7926C68.2719 15.7926 79.1957 25.3211 82.2814 38.1457C82.3443 38.1452 82.4074 38.145 82.4704 38.145C97.9426 38.145 110.411 51.5138 110.411 67.9102C110.411 84.3066 97.9426 97.6753 82.4704 97.6753C82.4074 97.6753 82.3443 97.6751 82.2814 97.6747C79.1957 110.499 68.2719 120.028 55.2142 120.028C42.1565 120.028 31.2327 110.499 28.147 97.6747C28.0841 97.6751 28.0211 97.6753 27.958 97.6753C12.4858 97.6753 0.0175171 84.3066 0.0175171 67.9102C0.0175171 51.5138 12.4858 38.145 27.958 38.145C28.0211 38.145 28.0841 38.1452 28.147 38.1457Z" fill="#EDF2F5"/>
<path fill-rule="evenodd" clip-rule="evenodd" d="M55.1967 28.5654C44.8512 28.5654 36.1789 35.7643 33.8963 45.4424L33.7685 45.9841L33.2122 45.9694C33.0171 45.9642 32.8214 45.9616 32.625 45.9616C20.5386 45.9616 10.7375 55.7866 10.7375 67.9102C10.7375 80.0338 20.5386 89.8587 32.625 89.8587C32.8214 89.8587 33.0171 89.8561 33.2122 89.851L33.7685 89.8363L33.8963 90.3779C36.1789 100.056 44.8512 107.255 55.1967 107.255C65.5421 107.255 74.2144 100.056 76.497 90.3779L76.6248 89.8363L77.1811 89.851C77.3762 89.8561 77.572 89.8587 77.7683 89.8587C89.8547 89.8587 99.6558 80.0338 99.6558 67.9102C99.6558 55.7866 89.8547 45.9616 77.7683 45.9616C77.572 45.9616 77.3762 45.9642 77.1811 45.9694L76.6248 45.9841L76.497 45.4424C74.2144 35.7643 65.5421 28.5654 55.1967 28.5654ZM32.6972 44.5932C35.3104 34.5842 44.3914 27.1969 55.1967 27.1969C66.0019 27.1969 75.0829 34.5842 77.6961 44.5932C77.7202 44.5932 77.7443 44.5931 77.7683 44.5931C90.614 44.5931 101.024 55.0343 101.024 67.9102C101.024 80.7861 90.614 91.2272 77.7683 91.2272C77.7443 91.2272 77.7202 91.2272 77.6961 91.2271C75.0829 101.236 66.0019 108.623 55.1967 108.623C44.3914 108.623 35.3104 101.236 32.6972 91.2271C32.6732 91.2272 32.6491 91.2272 32.625 91.2272C19.7793 91.2272 9.36902 80.7861 9.36902 67.9102C9.36902 55.0343 19.7793 44.5931 32.625 44.5931C32.6491 44.5931 32.6732 44.5932 32.6972 44.5932Z" fill="#EDF2F5"/>
<path fill-rule="evenodd" clip-rule="evenodd" d="M66.3904 55.9357H42.4414C41.4337 55.9357 40.6167 56.7526 40.6167 57.7604V78.06C40.6167 79.0677 41.4337 79.8847 42.4414 79.8847H66.3904C67.3981 79.8847 68.2151 79.0677 68.2151 78.06V57.7604C68.2151 56.7526 67.3981 55.9357 66.3904 55.9357ZM42.4414 55.0233C40.9298 55.0233 39.7044 56.2488 39.7044 57.7604V78.06C39.7044 79.5716 40.9298 80.797 42.4414 80.797H66.3904C67.902 80.797 69.1274 79.5716 69.1274 78.06V57.7604C69.1274 56.2488 67.902 55.0233 66.3904 55.0233H42.4414Z" fill="#EDF2F5"/>
<path fill-rule="evenodd" clip-rule="evenodd" d="M54.5299 74.4106C58.8398 74.4106 62.2849 71.0654 62.2849 66.9978C62.2849 62.9303 58.8398 59.5851 54.5299 59.5851C50.2201 59.5851 46.775 62.9303 46.775 66.9978C46.775 71.0654 50.2201 74.4106 54.5299 74.4106ZM54.5299 75.0949C59.1908 75.0949 62.9691 71.4697 62.9691 66.9978C62.9691 62.526 59.1908 58.9008 54.5299 58.9008C49.8691 58.9008 46.0908 62.526 46.0908 66.9978C46.0908 71.4697 49.8691 75.0949 54.5299 75.0949Z" fill="#EDF2F5"/>
<path fill-rule="evenodd" clip-rule="evenodd" d="M54.4159 71.9017C56.9847 71.9017 59.0917 69.7709 59.0917 67.1119C59.0917 64.4529 56.9847 62.3221 54.4159 62.3221C51.8471 62.3221 49.7402 64.4529 49.7402 67.1119C49.7402 69.7709 51.8471 71.9017 54.4159 71.9017ZM54.4159 72.5859C57.3762 72.5859 59.7759 70.1351 59.7759 67.1119C59.7759 64.0886 57.3762 61.6378 54.4159 61.6378C51.4557 61.6378 49.0559 64.0886 49.0559 67.1119C49.0559 70.1351 51.4557 72.5859 54.4159 72.5859Z" fill="#EDF2F5"/>
<path fill-rule="evenodd" clip-rule="evenodd" d="M42.0704 45.2157L54.4159 32.2148L66.7614 45.2157H61.3725V55.9357H47.4593V45.2157H42.0704ZM64.6369 44.3033L54.4159 33.5397L44.1949 44.3033H64.6369ZM48.3716 45.2157V55.0233H60.4602V45.2157H48.3716Z" fill="#EDF2F5"/>
<path fill-rule="evenodd" clip-rule="evenodd" d="M29.8967 80.3986L16.8958 68.0531L29.8967 55.7076V61.0965H40.6167V75.0097H29.8967V80.3986ZM28.9844 57.8321L18.2208 68.0531L28.9844 78.2741V57.8321ZM29.8967 74.0974H39.7044V62.0088H29.8967V74.0974Z" fill="#EDF2F5"/>
<path fill-rule="evenodd" clip-rule="evenodd" d="M78.9351 55.7076L91.936 68.0531L78.9351 80.3986V75.0097H68.2151V61.0965H78.9351V55.7076ZM79.8474 78.2741L90.611 68.0531L79.8474 57.8321V78.2741ZM78.9351 62.0088H69.1274V74.0974H78.9351V62.0088Z" fill="#EDF2F5"/>
<path fill-rule="evenodd" clip-rule="evenodd" d="M66.9043 90.6047L54.5588 103.606L42.2133 90.6047H47.6022V79.8847H61.5154V90.6047H66.9043ZM44.3378 91.517L54.5588 102.281L64.7798 91.517H44.3378ZM60.6031 90.6047V80.797H48.5146V90.6047H60.6031Z" fill="#EDF2F5"/>
<path d="M15.9835 109.422C14.8887 112.98 12.4102 114.554 11.3077 114.896C7.93209 107.962 15.9835 106.343 15.3515 100.983C16.6678 103.948 17.0783 105.864 15.9835 109.422Z" fill="#EDF2F5"/>
<path d="M33.2039 124.019C30.6494 126.847 27.6539 125.426 26.4754 124.361C25.675 123.561 25.324 122.698 25.3085 121.849C27.2744 121.409 30.1978 120.853 32.5197 120.712C35.5304 120.53 36.5872 120.484 36.7393 120.484C35.3405 120.147 28.9641 119.581 25.6566 120.265C26.62 118.15 29.4151 116.466 31.9495 116.606C35.2339 116.789 37.5756 120.67 38.3359 121.849C37.6896 121.887 35.7585 121.191 33.2039 124.019Z" fill="#EDF2F5"/>
<path d="M16.0541 134.519C14.9628 130.798 12.4921 129.152 11.3931 128.794C8.02813 136.045 16.0541 140.669 16.0541 143.064C17.8082 140.099 17.1455 138.24 16.0541 134.519Z" fill="#EDF2F5"/>
<path d="M29.4405 111.414C26.4754 112.273 27.8234 116.188 24.0805 118.394C22.3877 119.392 23.5568 120.949 22.0387 121.168C21.6751 121.221 20.3589 121.168 20.3589 121.168L23.2822 113.755L18.8128 121.168C18.8128 121.168 15.7554 121.849 15.1852 121.168C14.615 120.488 18.3784 115.124 18.3784 115.124C18.3784 115.124 11.6499 118.887 11.6499 121.282C11.6499 123.677 17.8082 127.098 17.8082 127.098C17.8082 127.098 14.8475 123.427 15.1852 122.765C15.6043 121.943 18.6885 122.309 18.6885 122.309L23.2822 128.695L20.3019 122.309C20.3019 122.309 21.8675 121.614 22.2558 122.309C22.6442 123.003 22.7599 123.715 24.0805 124.489C27.8211 126.679 26.0193 129.721 29.4405 131.433C28.5662 132.003 25.4262 132.573 19.861 130.292C15.728 128.598 12.9247 125.655 11.3975 123.427C10.6495 122.616 9.74933 121.788 9.02689 121.51C8.3359 121.245 8.51198 121.152 9.1279 120.829C9.83349 120.459 11.1163 119.786 12.3341 118.203C12.6615 117.777 13.0377 117.363 13.4432 116.964C15.0209 115.322 17.154 113.664 19.861 112.555C25.4262 110.274 28.5662 110.844 29.4405 111.414Z" fill="#EDF2F5"/>
<path d="M96.7258 132.686C97.8206 129.128 100.299 127.555 101.402 127.212C104.777 134.146 96.7258 135.766 97.3578 141.126C96.0415 138.161 95.631 136.245 96.7258 132.686Z" fill="#EDF2F5"/>
<path d="M79.5053 118.089C82.0599 115.261 85.0554 116.682 86.2338 117.747C87.0343 118.547 87.3853 119.41 87.4007 120.26C85.4348 120.699 82.5115 121.256 80.1895 121.396C77.1788 121.579 76.122 121.624 75.97 121.624C77.3688 121.961 83.7452 122.527 87.0526 121.844C86.0892 123.958 83.2941 125.643 80.7598 125.502C77.4753 125.319 75.1337 121.438 74.3734 120.26C75.0196 120.222 76.9508 120.917 79.5053 118.089Z" fill="#EDF2F5"/>
<path d="M96.6552 107.589C97.7465 111.311 100.217 112.957 101.316 113.314C104.681 106.063 96.6552 101.439 96.6552 99.0438C94.9011 102.009 95.5638 103.868 96.6552 107.589Z" fill="#EDF2F5"/>
<path d="M83.2687 130.694C86.2338 129.835 84.8858 125.92 88.6287 123.714C90.3215 122.716 89.1525 121.16 90.6705 120.94C91.0341 120.887 92.3504 120.94 92.3504 120.94L89.427 128.353L93.8965 120.94C93.8965 120.94 96.9538 120.26 97.5241 120.94C98.0943 121.621 94.3309 126.984 94.3309 126.984C94.3309 126.984 101.059 123.221 101.059 120.826C101.059 118.431 94.9011 115.01 94.9011 115.01C94.9011 115.01 97.8617 118.681 97.5241 119.343C97.1049 120.166 94.0208 119.8 94.0208 119.8L89.427 113.413L92.4073 119.8C92.4073 119.8 90.8418 120.494 90.4534 119.8C90.065 119.105 89.9494 118.393 88.6287 117.62C84.8881 115.429 86.69 112.387 83.2687 110.675C84.143 110.105 87.283 109.535 92.8483 111.816C96.9813 113.51 99.7845 116.453 101.312 118.681C102.06 119.492 102.96 120.32 103.682 120.598C104.373 120.864 104.197 120.956 103.581 121.279C102.876 121.649 101.593 122.322 100.375 123.905C100.048 124.331 99.6715 124.745 99.2661 125.144C97.6884 126.786 95.5552 128.444 92.8483 129.553C87.283 131.834 84.143 131.264 83.2687 130.694Z" fill="#EDF2F5"/>
<path d="M56.0256 106.457C56.0256 105.764 55.4639 105.202 54.7711 105.202C54.0783 105.202 53.5166 105.764 53.5166 106.457V114.49L49.0894 110.063C48.5995 109.573 47.8052 109.573 47.3153 110.063C46.8254 110.553 46.8254 111.347 47.3153 111.837L52.1988 116.72H45.2925C44.5997 116.72 44.038 117.282 44.038 117.975C44.038 118.668 44.5997 119.229 45.2925 119.229H52.1987L47.3153 124.113C46.8254 124.603 46.8254 125.397 47.3153 125.887C47.8052 126.377 48.5995 126.377 49.0894 125.887L53.5166 121.46V131.888C53.5166 132.581 54.0783 133.143 54.7711 133.143C55.4639 133.143 56.0256 132.581 56.0256 131.888V120.547L61.3653 125.887C61.8552 126.377 62.6495 126.377 63.1394 125.887C63.6293 125.397 63.6293 124.603 63.1394 124.113L58.2559 119.229H65.1621C65.8549 119.229 66.4166 118.668 66.4166 117.975C66.4166 117.282 65.8549 116.72 65.1621 116.72H58.2559L63.1393 111.837C63.6292 111.347 63.6292 110.553 63.1393 110.063C62.6494 109.573 61.8551 109.573 61.3652 110.063L56.0256 115.403V106.457Z" fill="#EDF2F5"/>
<path d="M56.0256 1.53731C56.0256 0.844482 55.4639 0.282837 54.7711 0.282837C54.0783 0.282837 53.5166 0.844482 53.5166 1.53731V9.57084L49.0894 5.1436C48.5995 4.6537 47.8052 4.6537 47.3153 5.1436C46.8254 5.6335 46.8254 6.42779 47.3153 6.91769L52.1988 11.8012H45.2925C44.5997 11.8012 44.038 12.3628 44.038 13.0556C44.038 13.7484 44.5997 14.3101 45.2925 14.3101H52.1987L47.3153 19.1936C46.8254 19.6835 46.8254 20.4777 47.3153 20.9676C47.8052 21.4575 48.5995 21.4575 49.0894 20.9676L53.5166 16.5404V26.9688C53.5166 27.6617 54.0783 28.2233 54.7711 28.2233C55.4639 28.2233 56.0256 27.6617 56.0256 26.9688V15.628L61.3653 20.9676C61.8552 21.4575 62.6495 21.4575 63.1394 20.9676C63.6293 20.4777 63.6293 19.6835 63.1394 19.1936L58.2559 14.3101L65.1621 14.3101C65.8549 14.3101 66.4166 13.7484 66.4166 13.0556C66.4166 12.3628 65.8549 11.8012 65.1621 11.8012L58.2559 11.8012L63.1393 6.91769C63.6292 6.42779 63.6292 5.63351 63.1393 5.1436C62.6494 4.6537 61.8551 4.6537 61.3652 5.1436L56.0256 10.4833V1.53731Z" fill="#EDF2F5"/>
<path fill-rule="evenodd" clip-rule="evenodd" d="M55.2142 122.08C42.6846 122.08 32.1375 131.362 29.357 143.907L29.2347 144.459L28.6697 144.443C28.4333 144.436 28.196 144.433 27.958 144.433C13.3238 144.433 1.38603 157.104 1.38603 172.829C1.38603 188.555 13.3238 201.226 27.958 201.226C28.196 201.226 28.4333 201.223 28.6697 201.216L29.2347 201.2L29.357 201.752C32.1375 214.297 42.6846 223.579 55.2142 223.579C67.7438 223.579 78.2909 214.297 81.0714 201.752L81.1937 201.2L81.7587 201.216C81.9951 201.223 82.2324 201.226 82.4704 201.226C97.1046 201.226 109.042 188.555 109.042 172.829C109.042 157.104 97.1046 144.433 82.4704 144.433C82.2324 144.433 81.9951 144.436 81.7587 144.443L81.1937 144.459L81.0714 143.907C78.2909 131.362 67.7438 122.08 55.2142 122.08ZM28.147 143.065C31.2327 130.24 42.1565 120.712 55.2142 120.712C68.2719 120.712 79.1957 130.24 82.2814 143.065C82.3443 143.065 82.4074 143.064 82.4704 143.064C97.9426 143.064 110.411 156.433 110.411 172.829C110.411 189.226 97.9426 202.595 82.4704 202.595C82.4074 202.595 82.3443 202.594 82.2814 202.594C79.1957 215.419 68.2719 224.947 55.2142 224.947C42.1565 224.947 31.2327 215.419 28.147 202.594C28.0841 202.594 28.0211 202.595 27.958 202.595C12.4858 202.595 0.0175171 189.226 0.0175171 172.829C0.0175171 156.433 12.4858 143.064 27.958 143.064C28.0211 143.064 28.0841 143.065 28.147 143.065Z" fill="#EDF2F5"/>
<path fill-rule="evenodd" clip-rule="evenodd" d="M55.1967 133.485C44.8512 133.485 36.1789 140.684 33.8963 150.362L33.7685 150.903L33.2122 150.889C33.0171 150.884 32.8214 150.881 32.625 150.881C20.5386 150.881 10.7375 160.706 10.7375 172.829C10.7375 184.953 20.5386 194.778 32.625 194.778C32.8214 194.778 33.0171 194.775 33.2122 194.77L33.7685 194.756L33.8963 195.297C36.1789 204.975 44.8512 212.174 55.1967 212.174C65.5421 212.174 74.2144 204.975 76.497 195.297L76.6248 194.756L77.1811 194.77C77.3762 194.775 77.572 194.778 77.7683 194.778C89.8547 194.778 99.6558 184.953 99.6558 172.829C99.6558 160.706 89.8547 150.881 77.7683 150.881C77.572 150.881 77.3762 150.884 77.1811 150.889L76.6248 150.903L76.497 150.362C74.2144 140.684 65.5421 133.485 55.1967 133.485ZM32.6972 149.513C35.3104 139.504 44.3914 132.116 55.1967 132.116C66.0019 132.116 75.0829 139.504 77.6961 149.513C77.7202 149.512 77.7443 149.512 77.7683 149.512C90.614 149.512 101.024 159.954 101.024 172.829C101.024 185.705 90.614 196.147 77.7683 196.147C77.7443 196.147 77.7202 196.147 77.6961 196.146C75.0829 206.155 66.0019 213.543 55.1967 213.543C44.3914 213.543 35.3104 206.155 32.6972 196.146C32.6732 196.147 32.6491 196.147 32.625 196.147C19.7793 196.147 9.36902 185.705 9.36902 172.829C9.36902 159.954 19.7793 149.512 32.625 149.512C32.6491 149.512 32.6732 149.512 32.6972 149.513Z" fill="#EDF2F5"/>
<path fill-rule="evenodd" clip-rule="evenodd" d="M66.3904 160.855H42.4414C41.4337 160.855 40.6167 161.672 40.6167 162.68V182.979C40.6167 183.987 41.4337 184.804 42.4414 184.804H66.3904C67.3981 184.804 68.2151 183.987 68.2151 182.979V162.68C68.2151 161.672 67.3981 160.855 66.3904 160.855ZM42.4414 159.943C40.9298 159.943 39.7044 161.168 39.7044 162.68V182.979C39.7044 184.491 40.9298 185.716 42.4414 185.716H66.3904C67.902 185.716 69.1274 184.491 69.1274 182.979V162.68C69.1274 161.168 67.902 159.943 66.3904 159.943H42.4414Z" fill="#EDF2F5"/>
<path fill-rule="evenodd" clip-rule="evenodd" d="M54.5299 179.33C58.8398 179.33 62.2849 175.985 62.2849 171.917C62.2849 167.85 58.8398 164.504 54.5299 164.504C50.2201 164.504 46.775 167.85 46.775 171.917C46.775 175.985 50.2201 179.33 54.5299 179.33ZM54.5299 180.014C59.1908 180.014 62.9691 176.389 62.9691 171.917C62.9691 167.445 59.1908 163.82 54.5299 163.82C49.8691 163.82 46.0908 167.445 46.0908 171.917C46.0908 176.389 49.8691 180.014 54.5299 180.014Z" fill="#EDF2F5"/>
<path fill-rule="evenodd" clip-rule="evenodd" d="M54.4159 176.821C56.9847 176.821 59.0917 174.69 59.0917 172.031C59.0917 169.372 56.9847 167.241 54.4159 167.241C51.8471 167.241 49.7402 169.372 49.7402 172.031C49.7402 174.69 51.8471 176.821 54.4159 176.821ZM54.4159 177.505C57.3762 177.505 59.7759 175.054 59.7759 172.031C59.7759 169.008 57.3762 166.557 54.4159 166.557C51.4557 166.557 49.0559 169.008 49.0559 172.031C49.0559 175.054 51.4557 177.505 54.4159 177.505Z" fill="#EDF2F5"/>
<path fill-rule="evenodd" clip-rule="evenodd" d="M42.0704 150.135L54.4159 137.134L66.7614 150.135H61.3725V160.855H47.4593V150.135H42.0704ZM64.6369 149.223L54.4159 138.459L44.1949 149.223H64.6369ZM48.3716 150.135V159.943H60.4602V150.135H48.3716Z" fill="#EDF2F5"/>
<path fill-rule="evenodd" clip-rule="evenodd" d="M29.8967 185.318L16.8958 172.972L29.8967 160.627V166.016H40.6167V179.929H29.8967V185.318ZM28.9844 162.751L18.2208 172.972L28.9844 183.193V162.751ZM29.8967 179.017H39.7044V166.928H29.8967V179.017Z" fill="#EDF2F5"/>
<path fill-rule="evenodd" clip-rule="evenodd" d="M78.9351 160.627L91.936 172.972L78.9351 185.318V179.929H68.2151V166.016H78.9351V160.627ZM79.8474 183.193L90.611 172.972L79.8474 162.751V183.193ZM78.9351 166.928H69.1274V179.017H78.9351V166.928Z" fill="#EDF2F5"/>
<path fill-rule="evenodd" clip-rule="evenodd" d="M66.9043 195.524L54.5588 208.525L42.2133 195.524H47.6022V184.804H61.5154V195.524H66.9043ZM44.3378 196.436L54.5588 207.2L64.7798 196.436H44.3378ZM60.6031 195.524V185.716H48.5146V195.524H60.6031Z" fill="#EDF2F5"/>
<path d="M15.9835 214.341C14.8887 217.899 12.4102 219.473 11.3077 219.815C7.93209 212.881 15.9835 211.262 15.3515 205.902C16.6678 208.867 17.0783 210.783 15.9835 214.341Z" fill="#EDF2F5"/>
<path d="M33.2039 228.939C30.6494 231.767 27.6539 230.345 26.4754 229.281C25.675 228.48 25.324 227.617 25.3085 226.768C27.2744 226.329 30.1978 225.772 32.5197 225.631C35.5304 225.449 36.5872 225.403 36.7393 225.403C35.3405 225.066 28.9641 224.5 25.6566 225.184C26.62 223.069 29.4151 221.385 31.9495 221.526C35.2339 221.708 37.5756 225.59 38.3359 226.768C37.6896 226.806 35.7585 226.11 33.2039 228.939Z" fill="#EDF2F5"/>
<path d="M16.0541 239.438C14.9628 235.717 12.4921 234.071 11.3931 233.713C8.02813 240.965 16.0541 245.589 16.0541 247.984C17.8082 245.019 17.1455 243.159 16.0541 239.438Z" fill="#EDF2F5"/>
<path d="M29.4405 216.334C26.4754 217.192 27.8234 221.108 24.0805 223.314C22.3877 224.311 23.5568 225.868 22.0387 226.087C21.6751 226.14 20.3589 226.087 20.3589 226.087L23.2822 218.675L18.8128 226.087C18.8128 226.087 15.7554 226.768 15.1852 226.087C14.615 225.407 18.3784 220.043 18.3784 220.043C18.3784 220.043 11.6499 223.807 11.6499 226.201C11.6499 228.596 17.8082 232.018 17.8082 232.018C17.8082 232.018 14.8475 228.346 15.1852 227.684C15.6043 226.862 18.6885 227.228 18.6885 227.228L23.2822 233.614L20.3019 227.228C20.3019 227.228 21.8675 226.533 22.2558 227.228C22.6442 227.922 22.7599 228.634 24.0805 229.408C27.8211 231.599 26.0193 234.641 29.4405 236.352C28.5662 236.922 25.4262 237.493 19.861 235.212C15.728 233.518 12.9247 230.574 11.3975 228.346C10.6495 227.535 9.74933 226.707 9.02689 226.43C8.3359 226.164 8.51198 226.071 9.1279 225.748C9.83349 225.378 11.1163 224.705 12.3341 223.122C12.6615 222.697 13.0377 222.282 13.4432 221.884C15.0209 220.241 17.154 218.583 19.861 217.474C25.4262 215.193 28.5662 215.763 29.4405 216.334Z" fill="#EDF2F5"/>
<path d="M96.7258 237.606C97.8206 234.048 100.299 232.474 101.402 232.132C104.777 239.066 96.7258 240.685 97.3578 246.045C96.0415 243.08 95.631 241.164 96.7258 237.606Z" fill="#EDF2F5"/>
<path d="M79.5053 223.008C82.0599 220.18 85.0554 221.602 86.2338 222.666C87.0343 223.467 87.3853 224.33 87.4007 225.179C85.4348 225.618 82.5115 226.175 80.1895 226.316C77.1788 226.498 76.122 226.544 75.97 226.544C77.3688 226.88 83.7452 227.447 87.0526 226.763C86.0892 228.877 83.2941 230.562 80.7598 230.421C77.4753 230.239 75.1337 226.357 74.3734 225.179C75.0196 225.141 76.9508 225.837 79.5053 223.008Z" fill="#EDF2F5"/>
<path d="M96.6552 212.509C97.7465 216.23 100.217 217.876 101.316 218.234C104.681 210.982 96.6552 206.358 96.6552 203.963C94.9011 206.928 95.5638 208.788 96.6552 212.509Z" fill="#EDF2F5"/>
<path d="M83.2687 235.613C86.2338 234.755 84.8858 230.839 88.6287 228.633C90.3215 227.635 89.1525 226.079 90.6705 225.859C91.0341 225.807 92.3504 225.859 92.3504 225.859L89.427 233.272L93.8965 225.859C93.8965 225.859 96.9538 225.179 97.5241 225.859C98.0943 226.54 94.3309 231.904 94.3309 231.904C94.3309 231.904 101.059 228.14 101.059 225.745C101.059 223.35 94.9011 219.929 94.9011 219.929C94.9011 219.929 97.8617 223.6 97.5241 224.263C97.1049 225.085 94.0208 224.719 94.0208 224.719L89.427 218.333L92.4073 224.719C92.4073 224.719 90.8418 225.413 90.4534 224.719C90.065 224.024 89.9494 223.312 88.6287 222.539C84.8881 220.348 86.69 217.306 83.2687 215.595C84.143 215.024 87.283 214.454 92.8483 216.735C96.9813 218.429 99.7845 221.372 101.312 223.6C102.06 224.411 102.96 225.239 103.682 225.517C104.373 225.783 104.197 225.875 103.581 226.198C102.876 226.568 101.593 227.241 100.375 228.824C100.048 229.25 99.6715 229.665 99.2661 230.063C97.6884 231.705 95.5552 233.363 92.8483 234.473C87.283 236.754 84.143 236.183 83.2687 235.613Z" fill="#EDF2F5"/>
<path d="M56.0256 211.376C56.0256 210.683 55.4639 210.121 54.7711 210.121C54.0783 210.121 53.5166 210.683 53.5166 211.376V219.409L49.0894 214.982C48.5995 214.492 47.8052 214.492 47.3153 214.982C46.8254 215.472 46.8254 216.266 47.3153 216.756L52.1988 221.64H45.2925C44.5997 221.64 44.038 222.201 44.038 222.894C44.038 223.587 44.5997 224.149 45.2925 224.149H52.1987L47.3153 229.032C46.8254 229.522 46.8254 230.316 47.3153 230.806C47.8052 231.296 48.5995 231.296 49.0894 230.806L53.5166 226.379V236.807C53.5166 237.5 54.0783 238.062 54.7711 238.062C55.4639 238.062 56.0256 237.5 56.0256 236.807V225.467L61.3653 230.806C61.8552 231.296 62.6495 231.296 63.1394 230.806C63.6293 230.316 63.6293 229.522 63.1394 229.032L58.2559 224.149H65.1621C65.8549 224.149 66.4166 223.587 66.4166 222.894C66.4166 222.201 65.8549 221.64 65.1621 221.64H58.2559L63.1393 216.756C63.6292 216.266 63.6292 215.472 63.1393 214.982C62.6494 214.492 61.8551 214.492 61.3652 214.982L56.0256 220.322V211.376Z" fill="#EDF2F5"/>
<path d="M56.0256 106.457C56.0256 105.764 55.4639 105.202 54.7711 105.202C54.0783 105.202 53.5166 105.764 53.5166 106.457V114.49L49.0894 110.063C48.5995 109.573 47.8052 109.573 47.3153 110.063C46.8254 110.553 46.8254 111.347 47.3153 111.837L52.1988 116.72H45.2925C44.5997 116.72 44.038 117.282 44.038 117.975C44.038 118.668 44.5997 119.229 45.2925 119.229H52.1987L47.3153 124.113C46.8254 124.603 46.8254 125.397 47.3153 125.887C47.8052 126.377 48.5995 126.377 49.0894 125.887L53.5166 121.46V131.888C53.5166 132.581 54.0783 133.143 54.7711 133.143C55.4639 133.143 56.0256 132.581 56.0256 131.888V120.547L61.3653 125.887C61.8552 126.377 62.6495 126.377 63.1394 125.887C63.6293 125.397 63.6293 124.603 63.1394 124.113L58.2559 119.229H65.1621C65.8549 119.229 66.4166 118.668 66.4166 117.975C66.4166 117.282 65.8549 116.72 65.1621 116.72H58.2559L63.1393 111.837C63.6292 111.347 63.6292 110.553 63.1393 110.063C62.6494 109.573 61.8551 109.573 61.3652 110.063L56.0256 115.403V106.457Z" fill="#EDF2F5"/>
<path fill-rule="evenodd" clip-rule="evenodd" d="M55.2142 227C42.6846 227 32.1375 236.282 29.357 248.826L29.2347 249.378L28.6697 249.362C28.4333 249.356 28.196 249.352 27.958 249.352C13.3238 249.352 1.38603 262.023 1.38603 277.749C1.38603 293.474 13.3238 306.146 27.958 306.146C28.196 306.146 28.4333 306.142 28.6697 306.136L29.2347 306.12L29.357 306.671C32.1375 319.216 42.6846 328.498 55.2142 328.498C67.7438 328.498 78.2909 319.216 81.0714 306.671L81.1937 306.12L81.7587 306.136C81.9951 306.142 82.2324 306.146 82.4704 306.146C97.1046 306.146 109.042 293.474 109.042 277.749C109.042 262.023 97.1046 249.352 82.4704 249.352C82.2324 249.352 81.9951 249.356 81.7587 249.362L81.1937 249.378L81.0714 248.826C78.2909 236.282 67.7438 227 55.2142 227ZM28.147 247.984C31.2327 235.16 42.1565 225.631 55.2142 225.631C68.2719 225.631 79.1957 235.16 82.2814 247.984C82.3443 247.984 82.4074 247.984 82.4704 247.984C97.9426 247.984 110.411 261.352 110.411 277.749C110.411 294.145 97.9426 307.514 82.4704 307.514C82.4074 307.514 82.3443 307.514 82.2814 307.513C79.1957 320.338 68.2719 329.866 55.2142 329.866C42.1565 329.866 31.2327 320.338 28.147 307.513C28.0841 307.514 28.0211 307.514 27.958 307.514C12.4858 307.514 0.0175171 294.145 0.0175171 277.749C0.0175171 261.352 12.4858 247.984 27.958 247.984C28.0211 247.984 28.0841 247.984 28.147 247.984Z" fill="#EDF2F5"/>
<path fill-rule="evenodd" clip-rule="evenodd" d="M55.1967 238.404C44.8512 238.404 36.1789 245.603 33.8963 255.281L33.7685 255.823L33.2122 255.808C33.0171 255.803 32.8214 255.8 32.625 255.8C20.5386 255.8 10.7375 265.625 10.7375 277.749C10.7375 289.872 20.5386 299.697 32.625 299.697C32.8214 299.697 33.0171 299.695 33.2122 299.69L33.7685 299.675L33.8963 300.217C36.1789 309.895 44.8512 317.094 55.1967 317.094C65.5421 317.094 74.2144 309.895 76.497 300.217L76.6248 299.675L77.1811 299.69C77.3762 299.695 77.572 299.697 77.7683 299.697C89.8547 299.697 99.6558 289.872 99.6558 277.749C99.6558 265.625 89.8547 255.8 77.7683 255.8C77.572 255.8 77.3762 255.803 77.1811 255.808L76.6248 255.823L76.497 255.281C74.2144 245.603 65.5421 238.404 55.1967 238.404ZM32.6972 254.432C35.3104 244.423 44.3914 237.036 55.1967 237.036C66.0019 237.036 75.0829 244.423 77.6961 254.432C77.7202 254.432 77.7443 254.432 77.7683 254.432C90.614 254.432 101.024 264.873 101.024 277.749C101.024 290.625 90.614 301.066 77.7683 301.066C77.7443 301.066 77.7202 301.066 77.6961 301.066C75.0829 311.075 66.0019 318.462 55.1967 318.462C44.3914 318.462 35.3104 311.075 32.6972 301.066C32.6732 301.066 32.6491 301.066 32.625 301.066C19.7793 301.066 9.36902 290.625 9.36902 277.749C9.36902 264.873 19.7793 254.432 32.625 254.432C32.6491 254.432 32.6732 254.432 32.6972 254.432Z" fill="#EDF2F5"/>
<path fill-rule="evenodd" clip-rule="evenodd" d="M66.3904 265.774H42.4414C41.4337 265.774 40.6167 266.591 40.6167 267.599V287.899C40.6167 288.906 41.4337 289.723 42.4414 289.723H66.3904C67.3981 289.723 68.2151 288.906 68.2151 287.899V267.599C68.2151 266.591 67.3981 265.774 66.3904 265.774ZM42.4414 264.862C40.9298 264.862 39.7044 266.087 39.7044 267.599V287.899C39.7044 289.41 40.9298 290.636 42.4414 290.636H66.3904C67.902 290.636 69.1274 289.41 69.1274 287.899V267.599C69.1274 266.087 67.902 264.862 66.3904 264.862H42.4414Z" fill="#EDF2F5"/>
<path fill-rule="evenodd" clip-rule="evenodd" d="M54.5299 284.249C58.8398 284.249 62.2849 280.904 62.2849 276.837C62.2849 272.769 58.8398 269.424 54.5299 269.424C50.2201 269.424 46.775 272.769 46.775 276.837C46.775 280.904 50.2201 284.249 54.5299 284.249ZM54.5299 284.934C59.1908 284.934 62.9691 281.308 62.9691 276.837C62.9691 272.365 59.1908 268.739 54.5299 268.739C49.8691 268.739 46.0908 272.365 46.0908 276.837C46.0908 281.308 49.8691 284.934 54.5299 284.934Z" fill="#EDF2F5"/>
<path fill-rule="evenodd" clip-rule="evenodd" d="M54.4159 281.74C56.9847 281.74 59.0917 279.61 59.0917 276.951C59.0917 274.292 56.9847 272.161 54.4159 272.161C51.8471 272.161 49.7402 274.292 49.7402 276.951C49.7402 279.61 51.8471 281.74 54.4159 281.74ZM54.4159 282.425C57.3762 282.425 59.7759 279.974 59.7759 276.951C59.7759 273.927 57.3762 271.477 54.4159 271.477C51.4557 271.477 49.0559 273.927 49.0559 276.951C49.0559 279.974 51.4557 282.425 54.4159 282.425Z" fill="#EDF2F5"/>
<path fill-rule="evenodd" clip-rule="evenodd" d="M42.0704 255.054L54.4159 242.053L66.7614 255.054H61.3725V265.774H47.4593V255.054H42.0704ZM64.6369 254.142L54.4159 243.378L44.1949 254.142H64.6369ZM48.3716 255.054V264.862H60.4602V255.054H48.3716Z" fill="#EDF2F5"/>
<path fill-rule="evenodd" clip-rule="evenodd" d="M29.8967 290.237L16.8958 277.892L29.8967 265.546V270.935H40.6167V284.848H29.8967V290.237ZM28.9844 267.671L18.2208 277.892L28.9844 288.113V267.671ZM29.8967 283.936H39.7044V271.848H29.8967V283.936Z" fill="#EDF2F5"/>
<path fill-rule="evenodd" clip-rule="evenodd" d="M78.9351 265.546L91.936 277.892L78.9351 290.237V284.848H68.2151V270.935H78.9351V265.546ZM79.8474 288.113L90.611 277.892L79.8474 267.671V288.113ZM78.9351 271.848H69.1274V283.936H78.9351V271.848Z" fill="#EDF2F5"/>
<path fill-rule="evenodd" clip-rule="evenodd" d="M66.9043 300.443L54.5588 313.444L42.2133 300.443H47.6022V289.723H61.5154V300.443H66.9043ZM44.3378 301.356L54.5588 312.119L64.7798 301.356H44.3378ZM60.6031 300.443V290.636H48.5146V300.443H60.6031Z" fill="#EDF2F5"/>
<path d="M15.9835 319.26C14.8887 322.819 12.4102 324.392 11.3077 324.734C7.93209 317.801 15.9835 316.181 15.3515 310.821C16.6678 313.786 17.0783 315.702 15.9835 319.26Z" fill="#EDF2F5"/>
<path d="M33.2039 333.858C30.6494 336.686 27.6539 335.264 26.4754 334.2C25.675 333.4 25.324 332.537 25.3085 331.687C27.2744 331.248 30.1978 330.691 32.5197 330.551C35.5304 330.368 36.5872 330.323 36.7393 330.323C35.3405 329.986 28.9641 329.42 25.6566 330.103C26.62 327.989 29.4151 326.304 31.9495 326.445C35.2339 326.628 37.5756 330.509 38.3359 331.687C37.6896 331.725 35.7585 331.03 33.2039 333.858Z" fill="#EDF2F5"/>
<path d="M16.0541 344.357C14.9628 340.636 12.4921 338.99 11.3931 338.632C8.02813 345.884 16.0541 350.508 16.0541 352.903C17.8082 349.938 17.1455 348.079 16.0541 344.357Z" fill="#EDF2F5"/>
<path d="M29.4405 321.253C26.4754 322.111 27.8234 326.027 24.0805 328.233C22.3877 329.231 23.5568 330.787 22.0387 331.007C21.6751 331.059 20.3589 331.007 20.3589 331.007L23.2822 323.594L18.8128 331.007C18.8128 331.007 15.7554 331.687 15.1852 331.007C14.615 330.326 18.3784 324.963 18.3784 324.963C18.3784 324.963 11.6499 328.726 11.6499 331.121C11.6499 333.516 17.8082 336.937 17.8082 336.937C17.8082 336.937 14.8475 333.266 15.1852 332.603C15.6043 331.781 18.6885 332.147 18.6885 332.147L23.2822 338.534L20.3019 332.147C20.3019 332.147 21.8675 331.453 22.2558 332.147C22.6442 332.842 22.7599 333.554 24.0805 334.327C27.8211 336.518 26.0193 339.56 29.4405 341.272C28.5662 341.842 25.4262 342.412 19.861 340.131C15.728 338.437 12.9247 335.494 11.3975 333.266C10.6495 332.455 9.74933 331.627 9.02689 331.349C8.3359 331.083 8.51198 330.991 9.1279 330.668C9.83349 330.298 11.1163 329.625 12.3341 328.042C12.6615 327.616 13.0377 327.201 13.4432 326.803C15.0209 325.161 17.154 323.503 19.861 322.393C25.4262 320.113 28.5662 320.683 29.4405 321.253Z" fill="#EDF2F5"/>
<path d="M96.7258 342.525C97.8206 338.967 100.299 337.393 101.402 337.051C104.777 343.985 96.7258 345.604 97.3578 350.964C96.0415 347.999 95.631 346.083 96.7258 342.525Z" fill="#EDF2F5"/>
<path d="M79.5053 327.928C82.0599 325.099 85.0554 326.521 86.2338 327.586C87.0343 328.386 87.3853 329.249 87.4007 330.098C85.4348 330.537 82.5115 331.094 80.1895 331.235C77.1788 331.417 76.122 331.463 75.97 331.463C77.3688 331.8 83.7452 332.366 87.0526 331.682C86.0892 333.797 83.2941 335.481 80.7598 335.34C77.4753 335.158 75.1337 331.277 74.3734 330.098C75.0196 330.06 76.9508 330.756 79.5053 327.928Z" fill="#EDF2F5"/>
<path d="M96.6552 317.428C97.7465 321.149 100.217 322.795 101.316 323.153C104.681 315.901 96.6552 311.277 96.6552 308.883C94.9011 311.848 95.5638 313.707 96.6552 317.428Z" fill="#EDF2F5"/>
<path d="M83.2687 340.533C86.2338 339.674 84.8858 335.759 88.6287 333.552C90.3215 332.555 89.1525 330.998 90.6705 330.779C91.0341 330.726 92.3504 330.779 92.3504 330.779L89.427 338.192L93.8965 330.779C93.8965 330.779 96.9538 330.098 97.5241 330.779C98.0943 331.459 94.3309 336.823 94.3309 336.823C94.3309 336.823 101.059 333.06 101.059 330.665C101.059 328.27 94.9011 324.849 94.9011 324.849C94.9011 324.849 97.8617 328.52 97.5241 329.182C97.1049 330.004 94.0208 329.638 94.0208 329.638L89.427 323.252L92.4073 329.638C92.4073 329.638 90.8418 330.333 90.4534 329.638C90.065 328.944 89.9494 328.232 88.6287 327.458C84.8881 325.267 86.69 322.226 83.2687 320.514C84.143 319.944 87.283 319.374 92.8483 321.655C96.9813 323.349 99.7845 326.292 101.312 328.52C102.06 329.331 102.96 330.159 103.682 330.437C104.373 330.702 104.197 330.795 103.581 331.118C102.876 331.488 101.593 332.161 100.375 333.744C100.048 334.169 99.6715 334.584 99.2661 334.982C97.6884 336.625 95.5552 338.283 92.8483 339.392C87.283 341.673 84.143 341.103 83.2687 340.533Z" fill="#EDF2F5"/>
<path d="M56.0256 316.295C56.0256 315.602 55.4639 315.041 54.7711 315.041C54.0783 315.041 53.5166 315.602 53.5166 316.295V324.329L49.0894 319.902C48.5995 319.412 47.8052 319.412 47.3153 319.902C46.8254 320.391 46.8254 321.186 47.3153 321.676L52.1988 326.559H45.2925C44.5997 326.559 44.038 327.121 44.038 327.814C44.038 328.506 44.5997 329.068 45.2925 329.068H52.1987L47.3153 333.952C46.8254 334.441 46.8254 335.236 47.3153 335.726C47.8052 336.216 48.5995 336.216 49.0894 335.726L53.5166 331.298V341.727C53.5166 342.42 54.0783 342.981 54.7711 342.981C55.4639 342.981 56.0256 342.42 56.0256 341.727V330.386L61.3653 335.726C61.8552 336.216 62.6495 336.216 63.1394 335.726C63.6293 335.236 63.6293 334.441 63.1394 333.952L58.2559 329.068H65.1621C65.8549 329.068 66.4166 328.506 66.4166 327.814C66.4166 327.121 65.8549 326.559 65.1621 326.559H58.2559L63.1393 321.676C63.6292 321.186 63.6292 320.392 63.1393 319.902C62.6494 319.412 61.8551 319.412 61.3652 319.902L56.0256 325.241V316.295Z" fill="#EDF2F5"/>
<path d="M56.0256 211.376C56.0256 210.683 55.4639 210.122 54.7711 210.122C54.0783 210.122 53.5166 210.683 53.5166 211.376V219.41L49.0894 214.982C48.5995 214.492 47.8052 214.492 47.3153 214.982C46.8254 215.472 46.8254 216.266 47.3153 216.756L52.1988 221.64H45.2925C44.5997 221.64 44.038 222.201 44.038 222.894C44.038 223.587 44.5997 224.149 45.2925 224.149H52.1987L47.3153 229.032C46.8254 229.522 46.8254 230.316 47.3153 230.806C47.8052 231.296 48.5995 231.296 49.0894 230.806L53.5166 226.379V236.808C53.5166 237.5 54.0783 238.062 54.7711 238.062C55.4639 238.062 56.0256 237.5 56.0256 236.808V225.467L61.3653 230.806C61.8552 231.296 62.6495 231.296 63.1394 230.806C63.6293 230.316 63.6293 229.522 63.1394 229.032L58.2559 224.149H65.1621C65.8549 224.149 66.4166 223.587 66.4166 222.894C66.4166 222.201 65.8549 221.64 65.1621 221.64H58.2559L63.1393 216.756C63.6292 216.266 63.6292 215.472 63.1393 214.982C62.6494 214.492 61.8551 214.492 61.3652 214.982L56.0256 220.322V211.376Z" fill="#EDF2F5"/>
<path fill-rule="evenodd" clip-rule="evenodd" d="M55.2142 331.919C42.6846 331.919 32.1375 341.201 29.357 353.746L29.2347 354.297L28.6697 354.281C28.4333 354.275 28.196 354.272 27.958 354.272C13.3238 354.272 1.38603 366.943 1.38603 382.668C1.38603 398.394 13.3238 411.065 27.958 411.065C28.196 411.065 28.4333 411.061 28.6697 411.055L29.2347 411.039L29.357 411.591C32.1375 424.135 42.6846 433.417 55.2142 433.417C67.7438 433.417 78.2909 424.135 81.0714 411.591L81.1937 411.039L81.7587 411.055C81.9951 411.061 82.2324 411.065 82.4704 411.065C97.1046 411.065 109.042 398.394 109.042 382.668C109.042 366.943 97.1046 354.272 82.4704 354.272C82.2324 354.272 81.9951 354.275 81.7587 354.281L81.1937 354.297L81.0714 353.746C78.2909 341.201 67.7438 331.919 55.2142 331.919ZM28.147 352.904C31.2327 340.079 42.1565 330.551 55.2142 330.551C68.2719 330.551 79.1957 340.079 82.2814 352.904C82.3443 352.903 82.4074 352.903 82.4704 352.903C97.9426 352.903 110.411 366.272 110.411 382.668C110.411 399.065 97.9426 412.433 82.4704 412.433C82.4074 412.433 82.3443 412.433 82.2814 412.433C79.1957 425.257 68.2719 434.786 55.2142 434.786C42.1565 434.786 31.2327 425.257 28.147 412.433C28.0841 412.433 28.0211 412.433 27.958 412.433C12.4858 412.433 0.0175171 399.065 0.0175171 382.668C0.0175171 366.272 12.4858 352.903 27.958 352.903C28.0211 352.903 28.0841 352.903 28.147 352.904Z" fill="#EDF2F5"/>
<path fill-rule="evenodd" clip-rule="evenodd" d="M55.1967 343.323C44.8512 343.323 36.1789 350.522 33.8963 360.2L33.7685 360.742L33.2122 360.727C33.0171 360.722 32.8214 360.72 32.625 360.72C20.5386 360.72 10.7375 370.545 10.7375 382.668C10.7375 394.792 20.5386 404.617 32.625 404.617C32.8214 404.617 33.0171 404.614 33.2122 404.609L33.7685 404.594L33.8963 405.136C36.1789 414.814 44.8512 422.013 55.1967 422.013C65.5421 422.013 74.2144 414.814 76.497 405.136L76.6248 404.594L77.1811 404.609C77.3762 404.614 77.572 404.617 77.7683 404.617C89.8547 404.617 99.6558 394.792 99.6558 382.668C99.6558 370.545 89.8547 360.72 77.7683 360.72C77.572 360.72 77.3762 360.722 77.1811 360.727L76.6248 360.742L76.497 360.2C74.2144 350.522 65.5421 343.323 55.1967 343.323ZM32.6972 359.351C35.3104 349.342 44.3914 341.955 55.1967 341.955C66.0019 341.955 75.0829 349.342 77.6961 359.351C77.7202 359.351 77.7443 359.351 77.7683 359.351C90.614 359.351 101.024 369.792 101.024 382.668C101.024 395.544 90.614 405.985 77.7683 405.985C77.7443 405.985 77.7202 405.985 77.6961 405.985C75.0829 415.994 66.0019 423.381 55.1967 423.381C44.3914 423.381 35.3104 415.994 32.6972 405.985C32.6732 405.985 32.6491 405.985 32.625 405.985C19.7793 405.985 9.36902 395.544 9.36902 382.668C9.36902 369.792 19.7793 359.351 32.625 359.351C32.6491 359.351 32.6732 359.351 32.6972 359.351Z" fill="#EDF2F5"/>
<path fill-rule="evenodd" clip-rule="evenodd" d="M66.3904 370.694H42.4414C41.4337 370.694 40.6167 371.511 40.6167 372.518V392.818C40.6167 393.826 41.4337 394.643 42.4414 394.643H66.3904C67.3981 394.643 68.2151 393.826 68.2151 392.818V372.518C68.2151 371.511 67.3981 370.694 66.3904 370.694ZM42.4414 369.781C40.9298 369.781 39.7044 371.007 39.7044 372.518V392.818C39.7044 394.33 40.9298 395.555 42.4414 395.555H66.3904C67.902 395.555 69.1274 394.33 69.1274 392.818V372.518C69.1274 371.007 67.902 369.781 66.3904 369.781H42.4414Z" fill="#EDF2F5"/>
<path fill-rule="evenodd" clip-rule="evenodd" d="M54.5299 389.169C58.8398 389.169 62.2849 385.823 62.2849 381.756C62.2849 377.688 58.8398 374.343 54.5299 374.343C50.2201 374.343 46.775 377.688 46.775 381.756C46.775 385.823 50.2201 389.169 54.5299 389.169ZM54.5299 389.853C59.1908 389.853 62.9691 386.228 62.9691 381.756C62.9691 377.284 59.1908 373.659 54.5299 373.659C49.8691 373.659 46.0908 377.284 46.0908 381.756C46.0908 386.228 49.8691 389.853 54.5299 389.853Z" fill="#EDF2F5"/>
<path fill-rule="evenodd" clip-rule="evenodd" d="M54.4159 386.66C56.9847 386.66 59.0917 384.529 59.0917 381.87C59.0917 379.211 56.9847 377.08 54.4159 377.08C51.8471 377.08 49.7402 379.211 49.7402 381.87C49.7402 384.529 51.8471 386.66 54.4159 386.66ZM54.4159 387.344C57.3762 387.344 59.7759 384.893 59.7759 381.87C59.7759 378.847 57.3762 376.396 54.4159 376.396C51.4557 376.396 49.0559 378.847 49.0559 381.87C49.0559 384.893 51.4557 387.344 54.4159 387.344Z" fill="#EDF2F5"/>
<path fill-rule="evenodd" clip-rule="evenodd" d="M42.0704 359.974L54.4159 346.973L66.7614 359.974H61.3725V370.694H47.4593V359.974H42.0704ZM64.6369 359.061L54.4159 348.298L44.1949 359.061H64.6369ZM48.3716 359.974V369.781H60.4602V359.974H48.3716Z" fill="#EDF2F5"/>
<path fill-rule="evenodd" clip-rule="evenodd" d="M29.8967 395.157L16.8958 382.811L29.8967 370.466V375.854H40.6167V389.768H29.8967V395.157ZM28.9844 372.59L18.2208 382.811L28.9844 393.032V372.59ZM29.8967 388.855H39.7044V376.767H29.8967V388.855Z" fill="#EDF2F5"/>
<path fill-rule="evenodd" clip-rule="evenodd" d="M78.9351 370.466L91.936 382.811L78.9351 395.157V389.768H68.2151V375.854H78.9351V370.466ZM79.8474 393.032L90.611 382.811L79.8474 372.59V393.032ZM78.9351 376.767H69.1274V388.855H78.9351V376.767Z" fill="#EDF2F5"/>
<path fill-rule="evenodd" clip-rule="evenodd" d="M66.9043 405.363L54.5588 418.364L42.2133 405.363H47.6022V394.643H61.5154V405.363H66.9043ZM44.3378 406.275L54.5588 417.039L64.7798 406.275H44.3378ZM60.6031 405.363V395.555H48.5146V405.363H60.6031Z" fill="#EDF2F5"/>
<path d="M15.9835 424.18C14.8887 427.738 12.4102 429.312 11.3077 429.654C7.93209 422.72 15.9835 421.101 15.3515 415.741C16.6678 418.706 17.0783 420.622 15.9835 424.18Z" fill="#EDF2F5"/>
<path d="M33.2039 438.777C30.6494 441.605 27.6539 440.184 26.4754 439.119C25.675 438.319 25.324 437.456 25.3085 436.607C27.2744 436.167 30.1978 435.611 32.5197 435.47C35.5304 435.287 36.5872 435.242 36.7393 435.242C35.3405 434.905 28.9641 434.339 25.6566 435.023C26.62 432.908 29.4151 431.224 31.9495 431.364C35.2339 431.547 37.5756 435.428 38.3359 436.607C37.6896 436.645 35.7585 435.949 33.2039 438.777Z" fill="#EDF2F5"/>
<path d="M16.0541 449.277C14.9628 445.556 12.4921 443.91 11.3931 443.552C8.02813 450.803 16.0541 455.427 16.0541 457.822C17.8082 454.857 17.1455 452.998 16.0541 449.277Z" fill="#EDF2F5"/>
<path d="M29.4405 426.172C26.4754 427.031 27.8234 430.946 24.0805 433.152C22.3877 434.15 23.5568 435.707 22.0387 435.926C21.6751 435.979 20.3589 435.926 20.3589 435.926L23.2822 428.513L18.8128 435.926C18.8128 435.926 15.7554 436.607 15.1852 435.926C14.615 435.246 18.3784 429.882 18.3784 429.882C18.3784 429.882 11.6499 433.645 11.6499 436.04C11.6499 438.435 17.8082 441.856 17.8082 441.856C17.8082 441.856 14.8475 438.185 15.1852 437.523C15.6043 436.701 18.6885 437.067 18.6885 437.067L23.2822 443.453L20.3019 437.067C20.3019 437.067 21.8675 436.372 22.2558 437.067C22.6442 437.761 22.7599 438.473 24.0805 439.247C27.8211 441.437 26.0193 444.479 29.4405 446.191C28.5662 446.761 25.4262 447.331 19.861 445.05C15.728 443.356 12.9247 440.413 11.3975 438.185C10.6495 437.374 9.74933 436.546 9.02689 436.268C8.3359 436.002 8.51198 435.91 9.1279 435.587C9.83349 435.217 11.1163 434.544 12.3341 432.961C12.6615 432.535 13.0377 432.121 13.4432 431.722C15.0209 430.08 17.154 428.422 19.861 427.313C25.4262 425.032 28.5662 425.602 29.4405 426.172Z" fill="#EDF2F5"/>
<path d="M96.7258 447.444C97.8206 443.886 100.299 442.312 101.402 441.97C104.777 448.904 96.7258 450.524 97.3578 455.884C96.0415 452.918 95.631 451.003 96.7258 447.444Z" fill="#EDF2F5"/>
<path d="M79.5053 432.847C82.0599 430.019 85.0554 431.44 86.2338 432.505C87.0343 433.305 87.3853 434.168 87.4007 435.018C85.4348 435.457 82.5115 436.013 80.1895 436.154C77.1788 436.337 76.122 436.382 75.97 436.382C77.3688 436.719 83.7452 437.285 87.0526 436.601C86.0892 438.716 83.2941 440.401 80.7598 440.26C77.4753 440.077 75.1337 436.196 74.3734 435.018C75.0196 434.98 76.9508 435.675 79.5053 432.847Z" fill="#EDF2F5"/>
<path d="M96.6552 422.347C97.7465 426.069 100.217 427.715 101.316 428.072C104.681 420.821 96.6552 416.197 96.6552 413.802C94.9011 416.767 95.5638 418.626 96.6552 422.347Z" fill="#EDF2F5"/>
<path d="M83.2687 445.452C86.2338 444.593 84.8858 440.678 88.6287 438.472C90.3215 437.474 89.1525 435.918 90.6705 435.698C91.0341 435.645 92.3504 435.698 92.3504 435.698L89.427 443.111L93.8965 435.698C93.8965 435.698 96.9538 435.018 97.5241 435.698C98.0943 436.379 94.3309 441.742 94.3309 441.742C94.3309 441.742 101.059 437.979 101.059 435.584C101.059 433.189 94.9011 429.768 94.9011 429.768C94.9011 429.768 97.8617 433.439 97.5241 434.101C97.1049 434.924 94.0208 434.558 94.0208 434.558L89.427 428.171L92.4073 434.558C92.4073 434.558 90.8418 435.252 90.4534 434.558C90.065 433.863 89.9494 433.151 88.6287 432.378C84.8881 430.187 86.69 427.145 83.2687 425.433C84.143 424.863 87.283 424.293 92.8483 426.574C96.9813 428.268 99.7845 431.211 101.312 433.439C102.06 434.25 102.96 435.078 103.682 435.356C104.373 435.622 104.197 435.714 103.581 436.037C102.876 436.407 101.593 437.08 100.375 438.663C100.048 439.089 99.6715 439.503 99.2661 439.902C97.6884 441.544 95.5552 443.202 92.8483 444.311C87.283 446.592 84.143 446.022 83.2687 445.452Z" fill="#EDF2F5"/>
<path d="M56.0256 421.215C56.0256 420.522 55.4639 419.96 54.7711 419.96C54.0783 419.96 53.5166 420.522 53.5166 421.215V429.248L49.0894 424.821C48.5995 424.331 47.8052 424.331 47.3153 424.821C46.8254 425.311 46.8254 426.105 47.3153 426.595L52.1988 431.478H45.2925C44.5997 431.478 44.038 432.04 44.038 432.733C44.038 433.426 44.5997 433.987 45.2925 433.987H52.1987L47.3153 438.871C46.8254 439.361 46.8254 440.155 47.3153 440.645C47.8052 441.135 48.5995 441.135 49.0894 440.645L53.5166 436.218V446.646C53.5166 447.339 54.0783 447.901 54.7711 447.901C55.4639 447.901 56.0256 447.339 56.0256 446.646V435.305L61.3653 440.645C61.8552 441.135 62.6495 441.135 63.1394 440.645C63.6293 440.155 63.6293 439.361 63.1394 438.871L58.2559 433.987H65.1621C65.8549 433.987 66.4166 433.426 66.4166 432.733C66.4166 432.04 65.8549 431.478 65.1621 431.478H58.2559L63.1393 426.595C63.6292 426.105 63.6292 425.311 63.1393 424.821C62.6494 424.331 61.8551 424.331 61.3652 424.821L56.0256 430.161V421.215Z" fill="#EDF2F5"/>
<path d="M56.0256 316.295C56.0256 315.602 55.4639 315.041 54.7711 315.041C54.0783 315.041 53.5166 315.602 53.5166 316.295V324.329L49.0894 319.902C48.5995 319.412 47.8052 319.412 47.3153 319.902C46.8254 320.391 46.8254 321.186 47.3153 321.676L52.1988 326.559H45.2925C44.5997 326.559 44.038 327.121 44.038 327.814C44.038 328.506 44.5997 329.068 45.2925 329.068H52.1987L47.3153 333.952C46.8254 334.441 46.8254 335.236 47.3153 335.726C47.8052 336.216 48.5995 336.216 49.0894 335.726L53.5166 331.298V341.727C53.5166 342.42 54.0783 342.981 54.7711 342.981C55.4639 342.981 56.0256 342.42 56.0256 341.727V330.386L61.3653 335.726C61.8552 336.216 62.6495 336.216 63.1394 335.726C63.6293 335.236 63.6293 334.441 63.1394 333.952L58.2559 329.068H65.1621C65.8549 329.068 66.4166 328.506 66.4166 327.814C66.4166 327.121 65.8549 326.559 65.1621 326.559H58.2559L63.1393 321.676C63.6292 321.186 63.6292 320.391 63.1393 319.902C62.6494 319.412 61.8551 319.412 61.3652 319.902L56.0256 325.241V316.295Z" fill="#EDF2F5"/>
<path fill-rule="evenodd" clip-rule="evenodd" d="M55.2142 436.838C42.6846 436.838 32.1375 446.12 29.357 458.665L29.2347 459.217L28.6697 459.201C28.4333 459.194 28.196 459.191 27.958 459.191C13.3238 459.191 1.38603 471.862 1.38603 487.587C1.38603 503.313 13.3238 515.984 27.958 515.984C28.196 515.984 28.4333 515.981 28.6697 515.974L29.2347 515.958L29.357 516.51C32.1375 529.055 42.6846 538.337 55.2142 538.337C67.7438 538.337 78.2909 529.055 81.0714 516.51L81.1937 515.958L81.7587 515.974C81.9951 515.981 82.2324 515.984 82.4704 515.984C97.1046 515.984 109.042 503.313 109.042 487.587C109.042 471.862 97.1046 459.191 82.4704 459.191C82.2324 459.191 81.9951 459.194 81.7587 459.201L81.1937 459.217L81.0714 458.665C78.2909 446.12 67.7438 436.838 55.2142 436.838ZM28.147 457.823C31.2327 444.998 42.1565 435.47 55.2142 435.47C68.2719 435.47 79.1957 444.998 82.2814 457.823C82.3443 457.823 82.4074 457.822 82.4704 457.822C97.9426 457.822 110.411 471.191 110.411 487.587C110.411 503.984 97.9426 517.353 82.4704 517.353C82.4074 517.353 82.3443 517.352 82.2814 517.352C79.1957 530.177 68.2719 539.705 55.2142 539.705C42.1565 539.705 31.2327 530.177 28.147 517.352C28.0841 517.352 28.0211 517.353 27.958 517.353C12.4858 517.353 0.0175171 503.984 0.0175171 487.587C0.0175171 471.191 12.4858 457.822 27.958 457.822C28.0211 457.822 28.0841 457.823 28.147 457.823Z" fill="#EDF2F5"/>
<path fill-rule="evenodd" clip-rule="evenodd" d="M55.1967 448.243C44.8512 448.243 36.1789 455.442 33.8963 465.12L33.7685 465.661L33.2122 465.647C33.0171 465.642 32.8214 465.639 32.625 465.639C20.5386 465.639 10.7375 475.464 10.7375 487.587C10.7375 499.711 20.5386 509.536 32.625 509.536C32.8214 509.536 33.0171 509.533 33.2122 509.528L33.7685 509.514L33.8963 510.055C36.1789 519.733 44.8512 526.932 55.1967 526.932C65.5421 526.932 74.2144 519.733 76.497 510.055L76.6248 509.514L77.1811 509.528C77.3762 509.533 77.572 509.536 77.7683 509.536C89.8547 509.536 99.6558 499.711 99.6558 487.587C99.6558 475.464 89.8547 465.639 77.7683 465.639C77.572 465.639 77.3762 465.642 77.1811 465.647L76.6248 465.661L76.497 465.12C74.2144 455.442 65.5421 448.243 55.1967 448.243ZM32.6972 464.271C35.3104 454.262 44.3914 446.874 55.1967 446.874C66.0019 446.874 75.0829 454.262 77.6961 464.271C77.7202 464.27 77.7443 464.27 77.7683 464.27C90.614 464.27 101.024 474.712 101.024 487.587C101.024 500.463 90.614 510.905 77.7683 510.905C77.7443 510.905 77.7202 510.905 77.6961 510.904C75.0829 520.913 66.0019 528.301 55.1967 528.301C44.3914 528.301 35.3104 520.913 32.6972 510.904C32.6732 510.905 32.6491 510.905 32.625 510.905C19.7793 510.905 9.36902 500.463 9.36902 487.587C9.36902 474.712 19.7793 464.27 32.625 464.27C32.6491 464.27 32.6732 464.27 32.6972 464.271Z" fill="#EDF2F5"/>
<path fill-rule="evenodd" clip-rule="evenodd" d="M66.3904 475.613H42.4414C41.4337 475.613 40.6167 476.43 40.6167 477.438V497.737C40.6167 498.745 41.4337 499.562 42.4414 499.562H66.3904C67.3981 499.562 68.2151 498.745 68.2151 497.737V477.438C68.2151 476.43 67.3981 475.613 66.3904 475.613ZM42.4414 474.701C40.9298 474.701 39.7044 475.926 39.7044 477.438V497.737C39.7044 499.249 40.9298 500.474 42.4414 500.474H66.3904C67.902 500.474 69.1274 499.249 69.1274 497.737V477.438C69.1274 475.926 67.902 474.701 66.3904 474.701H42.4414Z" fill="#EDF2F5"/>
<path fill-rule="evenodd" clip-rule="evenodd" d="M54.5299 494.088C58.8398 494.088 62.2849 490.743 62.2849 486.675C62.2849 482.608 58.8398 479.262 54.5299 479.262C50.2201 479.262 46.775 482.608 46.775 486.675C46.775 490.743 50.2201 494.088 54.5299 494.088ZM54.5299 494.772C59.1908 494.772 62.9691 491.147 62.9691 486.675C62.9691 482.203 59.1908 478.578 54.5299 478.578C49.8691 478.578 46.0908 482.203 46.0908 486.675C46.0908 491.147 49.8691 494.772 54.5299 494.772Z" fill="#EDF2F5"/>
<path fill-rule="evenodd" clip-rule="evenodd" d="M54.4159 491.579C56.9847 491.579 59.0917 489.448 59.0917 486.789C59.0917 484.13 56.9847 481.999 54.4159 481.999C51.8471 481.999 49.7402 484.13 49.7402 486.789C49.7402 489.448 51.8471 491.579 54.4159 491.579ZM54.4159 492.263C57.3762 492.263 59.7759 489.812 59.7759 486.789C59.7759 483.766 57.3762 481.315 54.4159 481.315C51.4557 481.315 49.0559 483.766 49.0559 486.789C49.0559 489.812 51.4557 492.263 54.4159 492.263Z" fill="#EDF2F5"/>
<path fill-rule="evenodd" clip-rule="evenodd" d="M42.0704 464.893L54.4159 451.892L66.7614 464.893H61.3725V475.613H47.4593V464.893H42.0704ZM64.6369 463.981L54.4159 453.217L44.1949 463.981H64.6369ZM48.3716 464.893V474.701H60.4602V464.893H48.3716Z" fill="#EDF2F5"/>
<path fill-rule="evenodd" clip-rule="evenodd" d="M29.8967 500.076L16.8958 487.73L29.8967 475.385V480.774H40.6167V494.687H29.8967V500.076ZM28.9844 477.509L18.2208 487.73L28.9844 497.951V477.509ZM29.8967 493.775H39.7044V481.686H29.8967V493.775Z" fill="#EDF2F5"/>
<path fill-rule="evenodd" clip-rule="evenodd" d="M78.9351 475.385L91.936 487.73L78.9351 500.076V494.687H68.2151V480.774H78.9351V475.385ZM79.8474 497.951L90.611 487.73L79.8474 477.509V497.951ZM78.9351 481.686H69.1274V493.775H78.9351V481.686Z" fill="#EDF2F5"/>
<path fill-rule="evenodd" clip-rule="evenodd" d="M66.9043 510.282L54.5588 523.283L42.2133 510.282H47.6022V499.562H61.5154V510.282H66.9043ZM44.3378 511.194L54.5588 521.958L64.7798 511.194H44.3378ZM60.6031 510.282V500.474H48.5146V510.282H60.6031Z" fill="#EDF2F5"/>
<path d="M15.9835 529.099C14.8887 532.657 12.4102 534.231 11.3077 534.573C7.93209 527.639 15.9835 526.02 15.3515 520.66C16.6678 523.625 17.0783 525.541 15.9835 529.099Z" fill="#EDF2F5"/>
<path d="M33.2039 543.697C30.6494 546.525 27.6539 545.103 26.4754 544.039C25.675 543.238 25.324 542.375 25.3085 541.526C27.2744 541.087 30.1978 540.53 32.5197 540.389C35.5304 540.207 36.5872 540.161 36.7393 540.161C35.3405 539.824 28.9641 539.258 25.6566 539.942C26.62 537.827 29.4151 536.143 31.9495 536.284C35.2339 536.466 37.5756 540.348 38.3359 541.526C37.6896 541.564 35.7585 540.868 33.2039 543.697Z" fill="#EDF2F5"/>
<path d="M16.0541 554.196C14.9628 550.475 12.4921 548.829 11.3931 548.471C8.02813 555.723 16.0541 560.347 16.0541 562.742C17.8082 559.777 17.1455 557.917 16.0541 554.196Z" fill="#EDF2F5"/>
<path d="M29.4405 531.092C26.4754 531.95 27.8234 535.866 24.0805 538.072C22.3877 539.069 23.5568 540.626 22.0387 540.845C21.6751 540.898 20.3589 540.845 20.3589 540.845L23.2822 533.433L18.8128 540.845C18.8128 540.845 15.7554 541.526 15.1852 540.845C14.615 540.165 18.3784 534.801 18.3784 534.801C18.3784 534.801 11.6499 538.565 11.6499 540.959C11.6499 543.354 17.8082 546.776 17.8082 546.776C17.8082 546.776 14.8475 543.104 15.1852 542.442C15.6043 541.62 18.6885 541.986 18.6885 541.986L23.2822 548.372L20.3019 541.986C20.3019 541.986 21.8675 541.291 22.2558 541.986C22.6442 542.68 22.7599 543.392 24.0805 544.166C27.8211 546.357 26.0193 549.399 29.4405 551.11C28.5662 551.68 25.4262 552.251 19.861 549.97C15.728 548.276 12.9247 545.332 11.3975 543.104C10.6495 542.293 9.74933 541.465 9.02689 541.188C8.3359 540.922 8.51198 540.829 9.1279 540.506C9.83349 540.136 11.1163 539.463 12.3341 537.88C12.6615 537.455 13.0377 537.04 13.4432 536.642C15.0209 534.999 17.154 533.341 19.861 532.232C25.4262 529.951 28.5662 530.521 29.4405 531.092Z" fill="#EDF2F5"/>
<path d="M96.7258 552.364C97.8206 548.806 100.299 547.232 101.402 546.89C104.777 553.824 96.7258 555.443 97.3578 560.803C96.0415 557.838 95.631 555.922 96.7258 552.364Z" fill="#EDF2F5"/>
<path d="M79.5053 537.766C82.0599 534.938 85.0554 536.36 86.2338 537.424C87.0343 538.225 87.3853 539.088 87.4007 539.937C85.4348 540.376 82.5115 540.933 80.1895 541.074C77.1788 541.256 76.122 541.302 75.97 541.302C77.3688 541.638 83.7452 542.205 87.0526 541.521C86.0892 543.635 83.2941 545.32 80.7598 545.179C77.4753 544.997 75.1337 541.115 74.3734 539.937C75.0196 539.899 76.9508 540.595 79.5053 537.766Z" fill="#EDF2F5"/>
<path d="M96.6552 527.267C97.7465 530.988 100.217 532.634 101.316 532.992C104.681 525.74 96.6552 521.116 96.6552 518.721C94.9011 521.686 95.5638 523.546 96.6552 527.267Z" fill="#EDF2F5"/>
<path d="M83.2687 550.371C86.2338 549.513 84.8858 545.597 88.6287 543.391C90.3215 542.393 89.1525 540.837 90.6705 540.617C91.0341 540.565 92.3504 540.617 92.3504 540.617L89.427 548.03L93.8965 540.617C93.8965 540.617 96.9538 539.937 97.5241 540.617C98.0943 541.298 94.3309 546.662 94.3309 546.662C94.3309 546.662 101.059 542.898 101.059 540.503C101.059 538.108 94.9011 534.687 94.9011 534.687C94.9011 534.687 97.8617 538.358 97.5241 539.021C97.1049 539.843 94.0208 539.477 94.0208 539.477L89.427 533.091L92.4073 539.477C92.4073 539.477 90.8418 540.171 90.4534 539.477C90.065 538.782 89.9494 538.07 88.6287 537.297C84.8881 535.106 86.69 532.064 83.2687 530.353C84.143 529.782 87.283 529.212 92.8483 531.493C96.9813 533.187 99.7845 536.13 101.312 538.358C102.06 539.169 102.96 539.997 103.682 540.275C104.373 540.541 104.197 540.633 103.581 540.956C102.876 541.326 101.593 541.999 100.375 543.582C100.048 544.008 99.6715 544.423 99.2661 544.821C97.6884 546.463 95.5552 548.121 92.8483 549.231C87.283 551.512 84.143 550.941 83.2687 550.371Z" fill="#EDF2F5"/>
<path d="M56.0256 526.134C56.0256 525.441 55.4639 524.879 54.7711 524.879C54.0783 524.879 53.5166 525.441 53.5166 526.134V534.167L49.0894 529.74C48.5995 529.25 47.8052 529.25 47.3153 529.74C46.8254 530.23 46.8254 531.024 47.3153 531.514L52.1988 536.398H45.2925C44.5997 536.398 44.038 536.959 44.038 537.652C44.038 538.345 44.5997 538.907 45.2925 538.907H52.1987L47.3153 543.79C46.8254 544.28 46.8254 545.074 47.3153 545.564C47.8052 546.054 48.5995 546.054 49.0894 545.564L53.5166 541.137V551.565C53.5166 552.258 54.0783 552.82 54.7711 552.82C55.4639 552.82 56.0256 552.258 56.0256 551.565V540.225L61.3653 545.564C61.8552 546.054 62.6495 546.054 63.1394 545.564C63.6293 545.074 63.6293 544.28 63.1394 543.79L58.2559 538.907H65.1621C65.8549 538.907 66.4166 538.345 66.4166 537.652C66.4166 536.959 65.8549 536.398 65.1621 536.398H58.2559L63.1393 531.514C63.6292 531.024 63.6292 530.23 63.1393 529.74C62.6494 529.25 61.8551 529.25 61.3652 529.74L56.0256 535.08V526.134Z" fill="#EDF2F5"/>
<path d="M56.0256 421.215C56.0256 420.522 55.4639 419.96 54.7711 419.96C54.0783 419.96 53.5166 420.522 53.5166 421.215V429.248L49.0894 424.821C48.5995 424.331 47.8052 424.331 47.3153 424.821C46.8254 425.311 46.8254 426.105 47.3153 426.595L52.1988 431.478H45.2925C44.5997 431.478 44.038 432.04 44.038 432.733C44.038 433.426 44.5997 433.987 45.2925 433.987H52.1987L47.3153 438.871C46.8254 439.361 46.8254 440.155 47.3153 440.645C47.8052 441.135 48.5995 441.135 49.0894 440.645L53.5166 436.218V446.646C53.5166 447.339 54.0783 447.901 54.7711 447.901C55.4639 447.901 56.0256 447.339 56.0256 446.646V435.305L61.3653 440.645C61.8552 441.135 62.6495 441.135 63.1394 440.645C63.6293 440.155 63.6293 439.361 63.1394 438.871L58.2559 433.987H65.1621C65.8549 433.987 66.4166 433.426 66.4166 432.733C66.4166 432.04 65.8549 431.478 65.1621 431.478H58.2559L63.1393 426.595C63.6292 426.105 63.6292 425.311 63.1393 424.821C62.6494 424.331 61.8551 424.331 61.3652 424.821L56.0256 430.161V421.215Z" fill="#EDF2F5"/>
</g>
<defs>
<clipPath id="clip0_464_4115">
<rect width="110.393" height="562.459" fill="white" transform="translate(0.0175171 0.282837)"/>
</clipPath>
</defs>
</svg>
