<svg width="85" height="100" viewBox="0 0 85 100" fill="none" xmlns="http://www.w3.org/2000/svg">
<path d="M79.6861 44.9997C82.4115 44.9997 84.6575 46.9294 84.9647 49.4158L85 49.9998V79.9999C85 90.7109 76.0514 99.4551 64.805 99.9746L63.7443 100H21.2536C9.8702 100 0.57706 91.58 0.0249096 80.998L0 79.9999V49.9998C0 47.238 2.37881 44.9997 5.31393 44.9997C8.03939 44.9997 10.2854 46.9294 10.5926 49.4158L10.6279 49.9998V79.9999C10.6279 85.2714 14.9641 89.5918 20.4628 89.9726L21.2557 90H63.7443C69.3467 90 73.9383 85.9199 74.3431 80.746L74.3721 79.9999V49.9998C74.3721 47.238 76.751 44.9997 79.6861 44.9997ZM12.1598 26.4469L38.719 1.46437C40.6329 -0.336417 43.6448 -0.477043 45.7309 1.0464L46.2312 1.46242L72.8174 26.445C74.8932 28.3961 74.8952 31.5622 72.8216 33.5153C70.9077 35.32 67.8937 35.4587 65.8076 33.9352L65.3073 33.5192L47.8025 17.0738L47.8046 66.2733C47.8046 68.8377 45.7537 70.951 43.1113 71.2401L42.4907 71.2733C39.7652 71.2733 37.5192 69.3436 37.212 66.8573L37.1767 66.2733L37.1747 17.0504L19.674 33.5192C17.7581 35.322 14.7441 35.4606 12.66 33.9352L12.1598 33.5192C10.2438 31.7165 10.0965 28.8805 11.7176 26.9196L12.1598 26.4469Z" fill="#B5CBD5"/>
</svg>
