<svg width="44" height="44" viewBox="0 0 44 44" fill="none" xmlns="http://www.w3.org/2000/svg">
<path d="M23.0455 35.8589L13.0276 27.1941H3.54636V16.0438H12.8839L23.0455 7.25399V35.8589Z" fill="#BFD5DF"/>
<path fill-rule="evenodd" clip-rule="evenodd" d="M35.1024 36.8622C35.731 37.3672 36.65 37.267 37.155 36.6384C40.5956 32.3556 42.471 27.0265 42.471 21.5328C42.471 16.0391 40.5956 10.71 37.155 6.42722C36.65 5.79861 35.731 5.6984 35.1024 6.2034C34.4738 6.7084 34.3736 7.62737 34.8786 8.25599C37.9026 12.0203 39.551 16.7042 39.551 21.5328C39.551 26.3614 37.9026 31.0453 34.8786 34.8096C34.3736 35.4382 34.4738 36.3572 35.1024 36.8622ZM31.3545 33.1032C32.0036 33.5817 32.9176 33.4433 33.396 32.7943C35.8006 29.532 37.0979 25.5856 37.0979 21.5328C37.0979 17.48 35.8006 13.5337 33.396 10.2713C32.9176 9.62227 32.0036 9.48394 31.3545 9.96237C30.7054 10.4408 30.5671 11.3548 31.0455 12.0039C33.0802 14.7643 34.1779 18.1035 34.1779 21.5328C34.1779 24.9621 33.0802 28.3013 31.0455 31.0617C30.5671 31.7108 30.7054 32.6248 31.3545 33.1032ZM27.2732 29.0022C27.9473 29.4446 28.8525 29.2568 29.2949 28.5827C30.6695 26.4884 31.4019 24.0379 31.4019 21.5328C31.4019 19.0277 30.6695 16.5772 29.2949 14.4829C28.8525 13.8088 27.9473 13.621 27.2732 14.0634C26.5991 14.5059 26.4113 15.411 26.8538 16.0851C27.916 17.7035 28.4819 19.597 28.4819 21.5328C28.4819 23.4686 27.916 25.3621 26.8538 26.9805C26.4113 27.6546 26.5991 28.5597 27.2732 29.0022Z" fill="#BFD5DF"/>
</svg>
