<?xml version="1.0" encoding="utf-8"?>
<!-- Generator: Adobe Adobe Illustrator 24.2.0, SVG Export Plug-In . SVG Version: 6.00 Build 0)  -->
<svg version="1.1" xmlns="http://www.w3.org/2000/svg" xmlns:xlink="http://www.w3.org/1999/xlink" x="0px" y="0px" width="1440px"
	 height="578.73px" viewBox="0 0 1440 578.73" style="enable-background:new 0 0 1440 578.73;" xml:space="preserve">
<style type="text/css">
	.st0{fill:#81919C;}
	.st1{fill:#536770;}
	.st2{fill:#375361;}
	.st3{fill:#3A5361;}
	.st4{fill:#80919C;}
	.st5{fill:#375361;stroke:#375361;stroke-width:2;stroke-miterlimit:10;}
	.st6{fill:#335361;}
	.st7{display:none;}
	.st8{display:inline;}
	.st9{fill:#2F5361;}
	.st10{fill:none;stroke:#667B85;stroke-width:5;stroke-miterlimit:10;}
	.st11{fill:#677A85;}
	.st12{fill:#667C85;}
	.st13{fill:#869DA8;}
	.st14{fill:#657C85;}
	.st15{fill:#A2B7C2;}
	.st16{fill:#677B85;}
	.st17{fill:#D4DEE2;}
	.st18{fill:#829BA6;}
	.st19{fill:#8EA6B3;}
	.st20{fill:#77919C;}
	.st21{display:inline;fill:none;stroke:#829BA6;stroke-width:15;stroke-miterlimit:10;}
	.st22{display:inline;fill:#D9E1E2;stroke:#BDCBD0;stroke-miterlimit:10;}
	.st23{fill:#B9D0D7;}
	.st24{fill:#B8D0D6;}
	.st25{fill:#DAE3E8;}
	.st26{fill:#A6B9BF;}
	.st27{display:inline;fill:#DAE2E4;}
	.st28{fill:#80919C;stroke:#375361;stroke-miterlimit:10;}
	.st29{fill:#677B85;stroke:#375361;stroke-miterlimit:10;}
</style>
<g id="Stool">
	<rect x="475" y="0.14" class="st0" width="490" height="578.45"/>
	<rect x="568.45" y="0.14" class="st1" width="303.09" height="578.46"/>
	<rect x="864.81" y="0.14" class="st2" width="6.74" height="548.55"/>
	<rect x="568.45" y="0.14" class="st2" width="4.21" height="548.55"/>
	<g>
		<g>
			<g>
				<path class="st3" d="M720,26.9c-83.56,0-151.55,80.48-151.55,179.41S636.44,385.72,720,385.72s151.55-80.48,151.55-179.41
					S803.56,26.9,720,26.9z M720,340.63c-62,0-112.44-60.26-112.44-134.32S658,71.99,720,71.99c61.81,0,112.13,59.9,112.43,133.66
					l-6.3-18.77v-23.54l-26.37,6.71c-2.93,0.73-5,3.74-5,7.19v8.87h-57.25h-35.03h-54.8v-8.72c0-3.81-2.31-7.1-5.54-7.87
					l-25.83-6.18v23.99l-8.54,18.97l8.55,18.92v24.06l26.35-6.71c2.93-0.75,5.02-3.74,5.02-7.2v-8.89h54.78v68.57h-7.58
					c-3.29,0-6.14,2.67-6.81,6.41l-5.36,29.76h19.75v0.08l17.52,8.85l17.52-8.85v-0.08h19.77l-5.83-30.38
					c-0.64-3.38-3.24-5.79-6.22-5.79h-7.71V226.5h57.25v8.74c0,3.79,2.31,7.08,5.54,7.85l25.83,6.2v-23.56l6.3-18.77
					C832.14,280.72,781.82,340.63,720,340.63z"/>
			</g>
		</g>
		<g>
			<g>
				<path class="st4" d="M720,19.28c-83.56,0-151.55,80.48-151.55,179.41S636.44,378.1,720,378.1s151.55-80.48,151.55-179.41
					S803.56,19.28,720,19.28z M832.43,198.03l-6.3-18.77v-23.54l-26.37,6.71c-2.93,0.73-5,3.74-5,7.2v8.87h-56.91v-0.47v-68.57h7.58
					c3.29,0,6.15-2.67,6.82-6.41l5.37-29.76h-19.77v-0.08l-17.52-8.84C781.99,64.59,832.13,124.4,832.43,198.03z M720,333.01
					c-62,0-112.44-60.26-112.44-134.32S658,64.37,720,64.37c0.1,0,0.21,0,0.31,0l-17.52,8.84v0.08H683l5.84,30.38
					c0.64,3.38,3.25,5.79,6.23,5.79h7.71v68.57v0.47h-0.3h-54.8v-8.72c0-3.81-2.31-7.1-5.54-7.87l-25.83-6.18v23.99l-8.54,18.97
					l8.55,18.92v24.06l26.35-6.71c2.93-0.75,5.02-3.74,5.02-7.2v-8.89h54.78v68.57h-7.58c-3.29,0-6.14,2.67-6.81,6.41l-5.36,29.76
					h19.75v0.08l17.52,8.85l17.52-8.85v-0.08h19.77l-5.83-30.38c-0.64-3.38-3.24-5.79-6.22-5.79h-7.71v-68.57h57.25v8.74
					c0,3.79,2.31,7.08,5.54,7.85l25.83,6.2v-23.56l6.3-18.77C832.14,273.11,781.82,333.01,720,333.01z"/>
			</g>
		</g>
	</g>
	<g id="Layer_8">
		<path class="st5" d="M734.83,541.14c-69.17,34.88-79.65-78.52-126.63-105.56c10.5,3.48,21.42,6.47,31.19,12.18
			c-3.24-21.29-16.65-40.74-35.24-51.13c31.02-8.96,67.3,9.27,79.07,39.74c-1.54-5.44-3.09-10.89-4.63-16.33
			C712.3,449.17,691.56,522.95,734.83,541.14z"/>
		<path class="st5" d="M738.16,531.72c-37.2-13.3-21.78-68.25-38.98-98.03c4.52,4.25,9.03,8.51,13.55,12.76
			c7.11-13.03,5.72-31.24-3.64-42.04c19.55,6.41,34.87,26.89,37.54,49.82c0.62-5.17,1.25-10.34,1.87-15.52
			C755.02,470.24,751.3,504.35,738.16,531.72z"/>
		<path class="st5" d="M833.09,410.12c-9.76-0.14-13.4,0.16-23.16,0.02c8.34,33.85,15.16,59.06,11.62,91.62
			c30.15,2.18-13.45,2.53-14.63,2.51c-8.82,26.12-37.49,39.57-60.2,28.66c-9.35-2.44-12.48,8.84-4.46,13.57
			c21.6,10.47,56.79-14.01,63.8-33.18c3.65,0.59,21.93,0.74,26.58,2.43c0.92,0.45-9.27,0.56-12.49,0.52
			c-3.41,22.23-16.7,43.91-35.98,50.66C849.26,586.25,847.51,452.2,833.09,410.12z"/>
		<path class="st5" d="M745.08,527c7.23-18.14,5.37-29.18,11.83-60.64c2.4,3.68,4.81,7.36,7.21,11.04
			c1.59-7.75,5.86-13.76,7.45-21.51c5.08,8.53,4.3,17.67,2.47,27.74c1.42-2.71,7.05-3.25,8.47-5.96
			C783.04,499.62,764.4,521.57,745.08,527z"/>
		<path class="st6" d="M732.57,550.97c-13.5,11.06-31.49,5.06-47.25-1.06c-15.76-6.12-28.53-29.28-35.29-41.95
			c-7.17-13.44-14.13-18.91-26.61-17.02c-12.48,1.89-24.74,6.82-27.78,21.67c10,2.99,21.91,14.22,31.91,17.21
			c-4.57,0.31-9.15,0.63-13.72,0.94C648.05,551.72,696.56,580.12,732.57,550.97z"/>
	</g>
	<g id="Layer_5">
		<path class="st4" d="M735.65,539.4c-69.17,34.88-79.65-78.52-126.63-105.56c10.5,3.48,21.42,6.47,31.19,12.18
			c-3.24-21.29-16.65-40.74-35.24-51.13c31.02-8.96,67.3,9.27,79.07,39.74c-1.54-5.44-3.09-10.89-4.63-16.33
			C713.12,447.44,692.38,521.22,735.65,539.4z"/>
		<path class="st4" d="M738.98,529.99c-37.2-13.3-21.78-68.25-38.98-98.03c4.52,4.25,9.03,8.51,13.55,12.76
			c7.11-13.03,5.72-31.24-3.64-42.04c19.55,6.41,34.87,26.89,37.54,49.82c0.62-5.17,1.25-10.34,1.87-15.52
			C755.84,468.51,752.11,502.61,738.98,529.99z"/>
		<path class="st4" d="M733.42,549.24c-13.5,11.06-31.49,5.06-47.25-1.06c-15.76-6.12-28.53-29.28-35.29-41.95
			c-7.17-13.44-14.13-18.91-26.61-17.02s-24.74,6.82-27.78,21.67c10,2.99,21.91,14.22,31.91,17.21c-4.57,0.31-9.15,0.63-13.72,0.94
			C648.9,549.99,697.41,578.38,733.42,549.24z"/>
		<path class="st4" d="M833.91,408.38c-9.76-0.14-13.4,0.16-23.16,0.02c8.34,33.85,15.16,59.06,11.62,91.62
			c30.15,2.18-13.45,2.53-14.63,2.51c-8.82,26.12-37.49,39.57-60.2,28.66c-9.35-2.44-12.48,8.84-4.46,13.57
			c21.6,10.47,56.79-14.01,63.8-33.18c3.65,0.59,21.93,0.74,26.58,2.43c0.92,0.45-9.27,0.56-12.49,0.52
			c-3.41,22.23-16.7,43.91-35.98,50.66C850.08,584.52,848.33,450.47,833.91,408.38z"/>
		<path class="st4" d="M745.9,525.27c7.23-18.14,5.37-29.18,11.83-60.64c2.4,3.68,4.81,7.36,7.21,11.04
			c1.59-7.75,5.86-13.76,7.45-21.51c5.08,8.53,4.3,17.67,2.47,27.74c1.42-2.71,7.05-3.25,8.47-5.96
			C783.86,497.88,765.22,519.84,745.9,525.27z"/>
	</g>
	<g id="Layer_6">
		<g>
			<path class="st2" d="M892,148.05l0.12,48.16l0.07,24.08l0.15,24.07l0.65,96.3l0.09,48.16c-0.02,16.05,0.05,32.11-0.13,48.16
				l-0.26,24.08l-0.35,24.08l-0.58,24.08c-0.22,8.02-0.48,16.05-0.76,24.07l-0.12-48.16l-0.07-24.08l-0.15-24.07l-0.65-96.3
				l-0.08-48.16c0.01-16.05-0.05-32.11,0.13-48.16l0.26-24.08l0.35-24.08l0.58-24.08C891.45,164.09,891.71,156.07,892,148.05z"/>
		</g>
		<g>
			<path class="st2" d="M883.58,148.05c0.04,6.48,0.05,12.96,0.03,19.44l0.09,19.43l0.07,19.43l0.15,19.43l0.65,77.72
				c0.13,25.91,0.25,51.82-0.04,77.74l-0.26,19.44l-0.35,19.43l-0.58,19.43c-0.22,6.48-0.48,12.95-0.76,19.42
				c-0.04-6.48-0.05-12.96-0.03-19.44l-0.09-19.43l-0.07-19.43l-0.15-19.43l-0.65-77.72c-0.12-25.91-0.25-51.82,0.05-77.74
				l0.26-19.44l0.35-19.43l0.58-19.43C883.03,161,883.29,154.52,883.58,148.05z"/>
		</g>
	</g>
	<g id="Layer_7">
		<g>
			<g>
				<g>
					<path class="st2" d="M548.34,220.27l-0.35-24.08l-0.58-24.08c-0.22-8.02-0.48-16.05-0.76-24.07l-0.12,48.16l-0.07,24.08
						l-0.15,24.07l-0.65,96.3l-0.09,48.16c0.02,16.05-0.05,32.11,0.13,48.16l0.26,24.08l0.35,24.08l0.58,24.08
						c0.22,8.02,0.48,16.05,0.76,24.07l0.12-48.16l0.07-24.08l0.15-24.07l0.65-96.3l0.08-48.16c-0.01-16.05,0.05-32.11-0.13-48.16
						L548.34,220.27z"/>
					<path class="st2" d="M557.02,225.77l-0.26-19.44l-0.35-19.43l-0.58-19.43c-0.22-6.48-0.48-12.95-0.76-19.42
						c-0.04,6.48-0.05,12.96-0.03,19.44l-0.09,19.43l-0.07,19.43l-0.15,19.43l-0.65,77.72c-0.13,25.91-0.25,51.82,0.04,77.74
						l0.26,19.44l0.35,19.43l0.58,19.43c0.22,6.48,0.48,12.95,0.76,19.42c0.04-6.48,0.05-12.96,0.03-19.44l0.09-19.43l0.07-19.43
						l0.15-19.43l0.65-77.72C557.19,277.6,557.31,251.69,557.02,225.77z"/>
				</g>
			</g>
		</g>
	</g>
</g>
<g id="Board" class="st7">
	<g id="Layer_4" class="st8">
		<g>
			<polygon class="st0" points="398.65,548.98 544.46,0.5 1293.91,1.89 1439.35,548.98 			"/>
			<g>
				<path class="st9" d="M544.85,1l748.68,1.39l145.18,546.09H399.3L544.85,1 M544.08,0L398,549.48h1042L1294.29,1.39L544.08,0
					L544.08,0z"/>
			</g>
		</g>
		<polygon class="st10" points="485.68,494.91 607.18,54.56 1231.13,55.68 1352.32,494.91 		"/>
		<g>
			<polygon class="st11" points="457.36,578.23 400.14,549.98 1438.12,549.98 1388.91,578.23 			"/>
			<g>
				<path class="st6" d="M1436.25,550.48l-47.47,27.26h-931.3l-55.2-27.26H1436.25 M1440,549.48H398l59.24,29.26h931.8L1440,549.48
					L1440,549.48z"/>
			</g>
		</g>
	</g>
	<g id="Layer_10" class="st8">
		<g>
			<path class="st12" d="M1219.51,254.91c-26.18-8.94-77.08-25.07-78.32-26.73l0.04-46.69l-67.02,32.82l-85.76,0l0-50l56.29-39.24
				l-79.92,0.02c-2.83-0.72-30.51-30.45-45.81-45.76c-15.3,15.29-42.92,45.03-45.75,45.75l-79.92-0.02l56.04,39.1l0.15,50.15
				l-85.59,0l-67.17-32.89l0,46.69c-1.24,1.65-52.08,17.82-78.29,26.76c26.18,8.94,77.08,25.07,78.32,26.73l-0.04,46.69l67.02-32.82
				l85.76,0l0,50l-56.29,39.24l79.92-0.02c2.83,0.72,30.51,30.45,45.81,45.76c15.3-15.29,42.92-45.03,45.75-45.75l79.92,0.02
				l-56.04-39.1l-0.15-50.16l85.59,0.01l67.17,32.89l0-46.69C1142.46,280.01,1193.3,263.85,1219.51,254.91z M1127.32,311.29
				l-49.48-24.53l-104.26,0.01l-0.04,60.92l42,28.9l-57.62,0c-10.74,8.07-25.95,25.97-38.95,38.95
				c-12.99-12.98-28.2-30.89-38.95-38.95l-57.62,0l41.99-28.89l0.01-60.94l-104.28,0l-49.48,24.53l-0.01-33.66
				c-13.81-6.28-44.45-15.16-66.68-22.75c22.23-7.59,52.87-16.47,66.68-22.75l0.01-33.66l49.48,24.53l104.3-0.01l0-60.93l-42-28.9
				l57.62,0c10.74-8.07,25.95-25.97,38.95-38.95c12.99,12.98,28.2,30.89,38.95,38.95l57.62,0l-41.99,28.89L973.57,223l104.28,0
				l49.48-24.53l0.01,33.66c13.81,6.28,44.45,15.16,66.68,22.75c-22.23,7.59-52.87,16.47-66.68,22.75L1127.32,311.29z"/>
			<path class="st12" d="M827.43,253.08c-0.83,0.44-2.14,1.39-4.37,1.41c-2.72,0.03-3.32-0.96-3.85-1.26
				c-0.67-0.38-0.6-1.07-2.79-1.17c-3.02-0.14-4.46,1.57-5.49,2.86c1.03,1.29,2.47,3,5.49,2.86c2.19-0.1,2.12-0.79,2.79-1.17
				c0.53-0.3,1.12-1.29,3.85-1.26c2.23,0.02,3.54,0.97,4.37,1.41c0.64,0.34,1.09,1.4,5.48,1.52c4.54,0.13,12.06-3.35,12.06-3.36
				s-7.53-3.49-12.06-3.36C828.53,251.68,828.07,252.74,827.43,253.08z"/>
			<path class="st12" d="M686.46,248.32c-8.94-0.02-11.68,4.83-11.68,4.83c-1.31-1.49-2.75-3.24-5.84-2.91
				c-5.13,0.55-9.2,2.26-11.54,4.53c2.33,2.27,6.41,3.99,11.54,4.53c3.09,0.33,4.53-1.42,5.84-2.91c0,0,2.74,4.85,11.68,4.83
				c8.9-0.02,17.37-6.49,17.37-6.45S695.36,248.34,686.46,248.32z M680.84,254.89c4.84-3.23,9.21-1.41,12.93,0
				C689.99,256.3,685.68,258.12,680.84,254.89z"/>
			<path class="st12" d="M1126.78,259.45c-3.97,0.31-7.73,0.83-11.3,1.52c-0.02-0.02-0.06-0.05-0.09-0.07
				c-3.42-2.46-12.21-5.72-13.75-6.08c1.54-0.36,10.33-3.61,13.75-6.08c0.02-0.02,0.06-0.05,0.09-0.07c3.58,0.69,7.33,1.2,11.3,1.52
				c8.57,0.67,12.64-3.98,12.49-6.88c-0.24-4.57-11.69-5.11-11.28-4.47c0,0,4.51,2.47,4.23,4.47c-0.29,2.06-3.88,3.96-7.35,3.59
				c-2.3-0.25-4.36-0.56-6.28-0.92c0.52-0.48,0.94-0.87,1.05-0.99c2.2-2.49,3-6.71,2.9-8.53c-0.28-4.98-0.38-7.69-6.21-11.31
				c-4.25-2.63-5.47-5.33-6.01-8.23c-0.47-2.54,3-3.15,4.35-3.27c2.17-0.19,2.95,0.67,3.21,1.45c0.26,0.79-1.14,1.33-1.14,1.33v3.75
				c0,0,7.61-2.45,7.66-4.96s-4.04-5.26-7.46-5.08c-4.76,0.25-10.98,2.35-11.18,6.05c-0.21,3.78,2.49,7.86,2.49,7.86
				s-5.18-1.88-12.12-0.24c-6.94,1.63-10.69,3.19-15.54,6.66c-0.05,0.04-0.1,0.09-0.15,0.15c-5.92-1.87-13.05-3.36-20.23-3.14
				c-14.64,0.46-23.46,4.38-31.5,9.49c-0.3-0.12-6.48-4.02-13.09-4.02c-6.27,0-11.46,1.85-11.46,1.69c0.13-0.57,0.22-0.99,0.28-1.41
				c0.21-1.68-0.5-3.55-3.22-4.73c-1.26-0.55-2.56-0.84-3.81-0.96c-1.25-0.12-2.44-0.06-3.47,0.14c-2.07,0.4-3.69,1.2-5.06,1.63
				c-2.15,0.67-3.54,1.49-4.3,2.46c-0.76,0.97-0.84,1.96-0.78,2.84c0.08,1.12,1.01,2.05,2.14,2.66c1.13,0.61,2.57,1.07,3.95,1.11
				c1.17,0.04,2.13-0.37,2.75-0.66c0.63-0.29,0.99-0.53,1.44-0.89s0.84-0.74,1.12-1.12c0.28-0.38,0.4-0.82,0.13-1.5
				c-0.27-0.68-0.84-0.88-1.33-1.12c-0.49-0.25-1.01-0.46-1.52-0.65c-0.51-0.19-0.62-0.21-0.99-0.33c0.37-0.52,0.82-1.01,1.18-1.32
				c0.12-0.1,0.82-0.36,1.02-0.51c0.45-0.14,1.06-0.38,1.46-0.45c1.2-0.23,2.05-0.28,3.78,0.47c1.51,0.65,1.81,1.47,1.64,2.75
				c-0.16,1.29-0.97,2.86-1.61,4.4c-2.7,6.44-11.14,12.02-19.42,16.49c-0.05,0.03-0.11,0.04-0.16,0.07
				c-0.15,0.09-0.24,0.2-0.32,0.31c-0.01,0.01-0.02,0.01-0.02,0.02c-0.05,0.07-0.07,0.15-0.1,0.22c-5.37-2.66-10.77-3.78-16.43-4.29
				c0.85-3.23,0.18-6.93-4.5-9.99c-9.94,6.92-18.24,11.1-34.53,12.01c-0.01,0.01-0.05,0.02-0.11,0.02c0.01-0.08,0.02-0.13,0.02-0.14
				c1.56-9.52,8.71-14.37,20.56-20.17c-5.22-2.73-11.56-3.13-17.09-2.63c-0.85-3.19-2.67-6.23-6.87-9.26
				c0.13-0.01,0.25-0.03,0.38-0.06c0.01,0,0.02-0.01,0.04-0.01c0.19-0.05,0.37-0.1,0.53-0.19c0.05-0.03,0.07-0.06,0.11-0.09
				c7.66-4.83,17.21-9.77,28.23-11.34c2.63-0.38,5.33-0.85,7.53-0.94c2.2-0.1,3.59,0.08,4.71,0.96c1.28,1.01,1.2,1.51,0.81,2.21
				c-0.13,0.23-0.53,0.59-0.78,0.85c-0.25,0.12-0.69,0.53-0.87,0.6c-0.53,0.21-1.38,0.47-2.26,0.69c-0.2-0.22-0.24-0.28-0.56-0.58
				c-0.32-0.3-0.69-0.6-1.12-0.89c-0.42-0.29-0.76-0.62-1.92-0.78c-1.16-0.16-1.91-0.09-2.57,0.08s-1.3,0.39-1.92,0.65
				c-0.62,0.26-1.02,0.48-1.53,0.84c-0.5,0.37-1.19,0.93-1.13,1.61c0.07,0.81,0.86,1.65,1.91,2.31c1.04,0.66,2.63,1.2,4.56,1.25
				c1.52,0.04,3.2-0.01,4.87-0.45c1.67-0.44,3.06-1.26,4.21-2.51c0.74-0.8,2.11-1.75,2.79-2.96c0.34-0.61,0.45-1.3,0.25-2.03
				c-0.2-0.73-0.71-1.49-1.64-2.23c-2.02-1.59-5.22-2.01-8.09-1.88c-0.72,0.03-1.43,0.09-2.41,0.16c-0.27,0,2.9-3.04,2.9-6.7
				c0-3.86-6.66-7.48-6.88-7.65c8.74-4.7,15.45-9.85,16.24-18.4c0.38-4.19-2.17-8.36-5.37-11.82c0.09-0.03,0.19-0.06,0.25-0.09
				c5.94-2.83,8.6-5.02,11.4-9.08c2.8-4.05-0.41-7.08-0.41-7.08s6.99,1.57,13.46,1.45c6.34-0.12,9.92-3.75,10.36-6.53
				c0.31-2-4.4-4.39-8.7-4.36c-4.3,0.03-8.49,4.48-8.49,4.48h6.42c0,0,0.93-0.82,2.28-0.67c1.34,0.15,2.82,0.61,2.49,1.88
				c-0.21,0.79-1.24,2.81-5.59,2.54c-4.96-0.31-9.58-1.03-14.08-3.51c-6.19-3.41-10.84-3.46-19.36-3.63
				c-3.11-0.06-10.34,0.41-14.6,1.69c-0.21,0.06-0.88,0.31-1.69,0.61c-0.61-1.12-1.15-2.32-1.57-3.67
				c-0.64-2.03,2.62-4.13,6.14-4.29c3.42-0.16,7.65,2.47,7.65,2.47c1.1,0.24,0.17-6.45-7.65-6.59c-4.96-0.09-12.93,2.29-11.78,7.29
				c0.53,2.32,1.42,4.51,2.6,6.6c-0.03,0.01-0.09,0.04-0.11,0.05c-4.21,2-9.79,7.13-10.4,8.03c-0.61-0.9-6.19-6.04-10.4-8.03
				c-0.03-0.01-0.08-0.04-0.11-0.05c1.18-2.09,2.06-4.28,2.6-6.6c1.15-5.01-6.82-7.38-11.78-7.29c-7.82,0.14-8.75,6.83-7.65,6.59
				c0,0,4.23-2.63,7.65-2.47c3.52,0.17,6.78,2.27,6.14,4.29c-0.42,1.34-0.96,2.55-1.57,3.67c-0.82-0.31-1.49-0.55-1.69-0.61
				c-4.26-1.29-11.49-1.75-14.6-1.69c-8.53,0.17-13.17,0.22-19.36,3.63c-4.5,2.48-9.12,3.2-14.08,3.51
				c-4.35,0.27-5.38-1.75-5.59-2.54c-0.33-1.27,1.14-1.72,2.49-1.88c1.35-0.15,2.28,0.67,2.28,0.67h6.42c0,0-4.19-4.45-8.49-4.48
				s-9.01,2.36-8.7,4.36c0.43,2.78,4.02,6.41,10.36,6.53c6.47,0.12,13.46-1.45,13.46-1.45s-3.21,3.02-0.41,7.08
				c2.8,4.05,5.46,6.25,11.4,9.08c0.07,0.03,0.16,0.06,0.25,0.09c-3.2,3.46-5.76,7.62-5.37,11.82c0.78,8.55,7.5,13.7,16.24,18.4
				c-0.21,0.17-6.88,3.78-6.88,7.65c0,3.66,3.17,6.7,2.9,6.7c-0.98-0.07-1.69-0.13-2.41-0.16c-2.88-0.12-6.07,0.29-8.09,1.88
				c-0.93,0.74-1.45,1.5-1.64,2.23c-0.2,0.73-0.1,1.42,0.25,2.03c0.69,1.21,2.06,2.16,2.79,2.96c1.15,1.25,2.55,2.07,4.21,2.51
				c1.67,0.44,3.35,0.49,4.87,0.45c1.93-0.05,3.52-0.59,4.56-1.25c1.04-0.66,1.83-1.5,1.91-2.31c0.06-0.68-0.63-1.24-1.13-1.61
				c-0.5-0.37-0.9-0.58-1.53-0.84c-0.62-0.26-1.27-0.49-1.92-0.65s-1.41-0.23-2.57-0.08c-1.16,0.16-1.5,0.49-1.92,0.78
				c-0.42,0.29-0.79,0.59-1.12,0.89c-0.32,0.3-0.36,0.36-0.56,0.58c-0.88-0.21-1.73-0.48-2.26-0.69c-0.18-0.07-0.62-0.48-0.87-0.6
				c-0.25-0.26-0.64-0.62-0.78-0.85c-0.4-0.7-0.48-1.2,0.81-2.21c1.12-0.88,2.51-1.05,4.71-0.96c2.2,0.1,4.9,0.57,7.53,0.94
				c11.02,1.58,20.57,6.51,28.23,11.34c0.04,0.03,0.06,0.07,0.12,0.09c0.04,0.02,0.1,0.03,0.15,0.05c-4.4,2.97-6.27,6.08-7.14,9.33
				c-5.53-0.5-11.87-0.1-17.09,2.63c11.85,5.8,19,10.66,20.56,20.17c-0.01,0.01-0.01,0.08-0.02,0.2c-0.1,0-0.17-0.01-0.18-0.01
				c-16.29-0.91-24.6-5.09-34.53-12.01c-4.68,3.05-5.36,6.76-4.5,9.99c-5.37,0.49-10.51,1.52-15.61,3.9
				c-0.04-0.03-0.05-0.07-0.1-0.09c-0.05-0.03-0.11-0.04-0.16-0.07c-8.27-4.47-16.72-10.05-19.42-16.49
				c-0.64-1.54-1.45-3.11-1.61-4.4c-0.16-1.29,0.13-2.1,1.64-2.75c1.73-0.75,2.59-0.7,3.78-0.47c0.39,0.08,1.01,0.31,1.46,0.45
				c0.21,0.14,0.9,0.4,1.02,0.51c0.36,0.31,0.81,0.81,1.18,1.32c-0.37,0.12-0.48,0.14-0.99,0.33c-0.51,0.19-1.03,0.41-1.52,0.65
				c-0.49,0.25-1.07,0.45-1.33,1.12c-0.27,0.68-0.15,1.12,0.13,1.5c0.28,0.38,0.67,0.76,1.12,1.12c0.45,0.36,0.82,0.6,1.44,0.89
				c0.63,0.29,1.59,0.7,2.75,0.66c1.38-0.04,2.83-0.5,3.95-1.11c1.13-0.61,2.06-1.54,2.14-2.66c0.06-0.89-0.02-1.87-0.78-2.84
				c-0.76-0.97-2.15-1.79-4.3-2.46c-1.38-0.43-2.99-1.23-5.06-1.63c-1.04-0.2-2.22-0.26-3.47-0.14c-1.25,0.12-2.55,0.41-3.81,0.96
				c-2.73,1.18-3.44,3.05-3.22,4.73c0.05,0.42,0.15,0.84,0.28,1.41c0,0.16-5.2-1.69-11.46-1.69c-6.62,0-12.8,3.89-13.09,4.02
				c-8.05-5.11-16.87-9.03-31.5-9.49c-7.18-0.22-14.3,1.27-20.23,3.14c-0.05-0.05-0.1-0.11-0.15-0.15
				c-4.84-3.47-8.6-5.02-15.54-6.66c-6.94-1.63-12.12,0.24-12.12,0.24s2.69-4.08,2.49-7.86c-0.2-3.7-6.42-5.8-11.18-6.05
				c-3.42-0.18-7.51,2.57-7.46,5.08c0.05,2.51,7.66,4.96,7.66,4.96v-3.75c0,0-1.4-0.54-1.14-1.33c0.26-0.78,1.04-1.65,3.21-1.45
				c1.35,0.12,4.82,0.73,4.35,3.27c-0.53,2.9-1.76,5.6-6.01,8.23c-5.84,3.62-5.93,6.33-6.21,11.31c-0.1,1.81,0.7,6.04,2.9,8.53
				c0.11,0.12,0.52,0.51,1.05,0.99c-1.91,0.36-3.98,0.67-6.28,0.92c-3.47,0.37-7.07-1.53-7.35-3.59c-0.28-2,4.23-4.47,4.23-4.47
				c0.41-0.64-11.04-0.1-11.28,4.47c-0.15,2.9,3.91,7.56,12.49,6.88c3.97-0.31,7.73-0.83,11.3-1.52c0.02,0.02,0.06,0.05,0.09,0.07
				c3.42,2.46,12.21,5.72,13.75,6.08c-1.54,0.36-10.33,3.61-13.75,6.08c-0.02,0.02-0.06,0.05-0.09,0.07
				c-3.58-0.69-7.33-1.2-11.3-1.52c-8.57-0.67-12.64,3.98-12.49,6.88c0.24,4.57,11.69,5.11,11.28,4.47c0,0-4.51-2.47-4.23-4.47
				c0.29-2.06,3.88-3.96,7.35-3.59c2.3,0.25,4.36,0.56,6.28,0.92c-0.52,0.48-0.94,0.87-1.05,0.99c-2.2,2.49-3,6.71-2.9,8.53
				c0.28,4.98,0.38,7.69,6.21,11.31c4.25,2.63,5.47,5.33,6.01,8.23c0.47,2.54-3,3.15-4.35,3.27c-2.17,0.19-2.95-0.67-3.21-1.45
				c-0.26-0.79,1.14-1.33,1.14-1.33v-3.75c0,0-7.61,2.45-7.66,4.96c-0.05,2.51,4.04,5.26,7.46,5.08c4.76-0.25,10.98-2.35,11.18-6.05
				c0.21-3.78-2.49-7.86-2.49-7.86s5.18,1.88,12.12,0.24c6.94-1.63,10.69-3.19,15.54-6.66c0.05-0.04,0.1-0.09,0.15-0.15
				c5.92,1.87,13.05,3.36,20.23,3.14c14.64-0.46,23.46-4.38,31.5-9.49c0.3,0.12,6.48,4.02,13.09,4.02c6.26,0,11.46-1.85,11.46-1.69
				c-0.13,0.57-0.22,0.99-0.28,1.41c-0.21,1.68,0.5,3.55,3.22,4.73c1.26,0.55,2.56,0.84,3.81,0.96c1.25,0.12,2.44,0.06,3.47-0.14
				c2.07-0.4,3.69-1.2,5.06-1.63c2.15-0.67,3.54-1.49,4.3-2.46c0.76-0.97,0.84-1.96,0.78-2.84c-0.08-1.12-1.01-2.05-2.14-2.66
				c-1.13-0.61-2.57-1.07-3.95-1.11c-1.17-0.04-2.13,0.37-2.75,0.66c-0.63,0.29-0.99,0.53-1.44,0.89c-0.45,0.36-0.84,0.74-1.12,1.12
				c-0.28,0.38-0.4,0.82-0.13,1.5c0.27,0.68,0.84,0.88,1.33,1.12c0.49,0.25,1.01,0.46,1.52,0.65c0.51,0.19,0.62,0.21,0.99,0.33
				c-0.37,0.52-0.82,1.01-1.18,1.32c-0.12,0.1-0.82,0.36-1.02,0.51c-0.45,0.14-1.06,0.38-1.46,0.45c-1.2,0.23-2.05,0.28-3.78-0.47
				c-1.51-0.65-1.81-1.47-1.64-2.75c0.16-1.29,0.97-2.86,1.61-4.4c2.7-6.44,11.14-12.02,19.42-16.49c0.05-0.03,0.11-0.04,0.16-0.07
				c0.06-0.04,0.08-0.08,0.12-0.12c4.9,2.35,10.01,3.37,15.35,3.86c-0.85,3.23-0.18,6.93,4.5,9.99c9.94-6.92,18.24-11.1,34.53-12.01
				c0.01,0,0.14,0.01,0.33,0.01c-0.01,0.15-0.01,0.24-0.02,0.24c-1.56,9.52-8.71,14.37-20.56,20.17c5.22,2.73,11.56,3.13,17.09,2.63
				c0.87,3.26,2.75,6.38,7.17,9.35c-0.02,0.01-0.05,0.01-0.08,0.03c-0.05,0.03-0.07,0.06-0.12,0.09
				c-7.66,4.83-17.21,9.77-28.23,11.34c-2.63,0.38-5.33,0.85-7.53,0.94c-2.2,0.1-3.59-0.08-4.71-0.96c-1.28-1.01-1.2-1.51-0.81-2.21
				c0.13-0.23,0.53-0.59,0.78-0.85c0.25-0.12,0.69-0.53,0.87-0.6c0.53-0.21,1.38-0.47,2.26-0.69c0.2,0.22,0.24,0.28,0.56,0.58
				c0.32,0.3,0.69,0.6,1.12,0.89c0.42,0.29,0.76,0.62,1.92,0.78c1.16,0.16,1.91,0.09,2.57-0.08c0.66-0.16,1.3-0.39,1.92-0.65
				c0.62-0.26,1.02-0.48,1.53-0.84c0.5-0.37,1.19-0.93,1.13-1.61c-0.07-0.81-0.86-1.65-1.91-2.31c-1.04-0.66-2.63-1.2-4.56-1.25
				c-1.52-0.04-3.2,0.01-4.87,0.45c-1.67,0.44-3.06,1.26-4.21,2.51c-0.74,0.8-2.11,1.75-2.79,2.96c-0.34,0.61-0.45,1.3-0.25,2.03
				c0.2,0.73,0.71,1.49,1.64,2.23c2.02,1.59,5.22,2.01,8.09,1.88c0.72-0.03,1.43-0.09,2.41-0.16c0.27,0-2.9,3.04-2.9,6.7
				c0,3.86,6.66,7.48,6.88,7.65c-8.74,4.7-15.45,9.85-16.24,18.4c-0.38,4.19,2.17,8.36,5.37,11.82c-0.09,0.03-0.19,0.06-0.25,0.09
				c-5.94,2.83-8.6,5.02-11.4,9.08c-2.8,4.05,0.41,7.08,0.41,7.08s-6.99-1.57-13.46-1.45c-6.34,0.12-9.92,3.75-10.36,6.53
				c-0.31,2,4.4,4.39,8.7,4.36s8.49-4.48,8.49-4.48h-6.42c0,0-0.93,0.82-2.28,0.67c-1.34-0.15-2.82-0.61-2.49-1.88
				c0.21-0.79,1.24-2.81,5.59-2.54c4.96,0.31,9.58,1.03,14.08,3.51c6.19,3.41,10.84,3.46,19.36,3.63c3.11,0.06,10.34-0.41,14.6-1.69
				c0.21-0.06,0.88-0.31,1.69-0.61c0.61,1.12,1.15,2.32,1.57,3.67c0.64,2.03-2.62,4.13-6.14,4.29c-3.42,0.16-7.65-2.47-7.65-2.47
				c-1.1-0.24-0.17,6.45,7.65,6.59c4.96,0.09,12.93-2.29,11.78-7.29c-0.53-2.32-1.42-4.51-2.6-6.6c0.03-0.01,0.09-0.04,0.11-0.05
				c4.21-2,9.79-7.13,10.4-8.03c0.61,0.9,6.19,6.04,10.4,8.03c0.03,0.01,0.08,0.04,0.11,0.05c-1.18,2.09-2.06,4.28-2.6,6.6
				c-1.15,5.01,6.82,7.38,11.78,7.29c7.82-0.14,8.75-6.83,7.65-6.59c0,0-4.23,2.63-7.65,2.47c-3.52-0.17-6.78-2.27-6.14-4.29
				c0.42-1.34,0.96-2.55,1.57-3.67c0.82,0.31,1.49,0.55,1.69,0.61c4.26,1.29,11.49,1.75,14.6,1.69c8.53-0.17,13.17-0.22,19.36-3.63
				c4.5-2.48,9.12-3.2,14.08-3.51c4.35-0.27,5.38,1.75,5.59,2.54c0.33,1.27-1.14,1.72-2.49,1.88c-1.35,0.15-2.28-0.67-2.28-0.67
				h-6.42c0,0,4.19,4.45,8.49,4.48c4.3,0.03,9.01-2.36,8.7-4.36c-0.43-2.78-4.02-6.41-10.36-6.53c-6.47-0.12-13.46,1.45-13.46,1.45
				s3.21-3.02,0.41-7.08c-2.8-4.05-5.46-6.25-11.4-9.08c-0.07-0.03-0.16-0.06-0.25-0.09c3.2-3.46,5.76-7.62,5.37-11.82
				c-0.78-8.55-7.5-13.7-16.24-18.4c0.21-0.17,6.88-3.78,6.88-7.65c0-3.66-3.17-6.7-2.9-6.7c0.98,0.07,1.69,0.13,2.41,0.16
				c2.88,0.12,6.07-0.29,8.09-1.88c0.93-0.74,1.45-1.5,1.64-2.23c0.2-0.73,0.1-1.42-0.25-2.03c-0.69-1.21-2.06-2.16-2.79-2.96
				c-1.15-1.25-2.55-2.07-4.21-2.51c-1.67-0.44-3.35-0.49-4.87-0.45c-1.93,0.05-3.52,0.59-4.56,1.25c-1.04,0.66-1.83,1.5-1.91,2.31
				c-0.06,0.68,0.63,1.24,1.13,1.61c0.5,0.37,0.9,0.58,1.53,0.84c0.62,0.26,1.27,0.49,1.92,0.65c0.66,0.16,1.41,0.23,2.57,0.08
				c1.16-0.16,1.5-0.49,1.92-0.78c0.42-0.29,0.79-0.59,1.12-0.89c0.32-0.3,0.36-0.36,0.56-0.58c0.88,0.21,1.73,0.48,2.26,0.69
				c0.17,0.07,0.62,0.48,0.87,0.6c0.25,0.26,0.64,0.62,0.78,0.85c0.4,0.7,0.48,1.2-0.81,2.21c-1.12,0.88-2.51,1.05-4.71,0.96
				c-2.2-0.1-4.9-0.57-7.53-0.94c-11.02-1.58-20.57-6.51-28.23-11.34c-0.04-0.03-0.06-0.07-0.11-0.09
				c-0.16-0.09-0.34-0.14-0.53-0.19c-0.01,0-0.02-0.01-0.04-0.01c-0.15-0.04-0.31-0.05-0.47-0.07c4.2-3.02,6-6.06,6.86-9.25
				c5.53,0.5,11.87,0.1,17.09-2.63c-11.85-5.8-19-10.66-20.56-20.17c-0.02,0-0.03-0.03-0.04-0.06c0.29,0,0.46,0.01,0.46,0.01
				c16.29,0.91,24.6,5.09,34.53,12.01c4.68-3.05,5.36-6.76,4.5-9.99c5.66-0.52,11.06-1.63,16.22-4.29c0.02,0.05,0.05,0.11,0.08,0.16
				c0.01,0.01,0.02,0.01,0.02,0.02c0.08,0.11,0.18,0.22,0.32,0.31c0.05,0.03,0.11,0.04,0.16,0.07c8.27,4.47,16.72,10.05,19.42,16.49
				c0.64,1.54,1.45,3.11,1.61,4.4c0.16,1.29-0.13,2.1-1.64,2.75c-1.73,0.75-2.59,0.7-3.78,0.47c-0.39-0.08-1.01-0.31-1.46-0.45
				c-0.21-0.14-0.9-0.4-1.02-0.51c-0.36-0.31-0.81-0.81-1.18-1.32c0.37-0.12,0.48-0.14,0.99-0.33c0.51-0.19,1.03-0.41,1.52-0.65
				c0.49-0.25,1.07-0.45,1.33-1.12c0.27-0.68,0.15-1.12-0.13-1.5c-0.28-0.38-0.67-0.76-1.12-1.12s-0.82-0.6-1.44-0.89
				c-0.63-0.29-1.59-0.7-2.75-0.66c-1.38,0.04-2.83,0.5-3.95,1.11c-1.13,0.61-2.06,1.54-2.14,2.66c-0.06,0.89,0.02,1.87,0.78,2.84
				c0.76,0.97,2.15,1.79,4.3,2.46c1.38,0.43,2.99,1.23,5.06,1.63c1.04,0.2,2.22,0.26,3.47,0.14c1.25-0.12,2.55-0.41,3.81-0.96
				c2.73-1.18,3.44-3.05,3.22-4.73c-0.05-0.42-0.15-0.84-0.28-1.41c0-0.16,5.2,1.69,11.46,1.69c6.62,0,12.8-3.89,13.09-4.02
				c8.05,5.11,16.87,9.03,31.5,9.49c7.18,0.22,14.3-1.27,20.23-3.14c0.05,0.05,0.1,0.11,0.15,0.15c4.84,3.47,8.6,5.02,15.54,6.66
				c6.94,1.63,12.12-0.24,12.12-0.24s-2.69,4.08-2.49,7.86c0.2,3.7,6.42,5.8,11.18,6.05c3.42,0.18,7.51-2.57,7.46-5.08
				c-0.05-2.51-7.66-4.96-7.66-4.96v3.75c0,0,1.4,0.54,1.14,1.33c-0.26,0.78-1.04,1.65-3.21,1.45c-1.35-0.12-4.82-0.73-4.35-3.27
				c0.53-2.9,1.76-5.6,6.01-8.23c5.84-3.62,5.93-6.33,6.21-11.31c0.1-1.81-0.7-6.04-2.9-8.53c-0.11-0.12-0.52-0.51-1.05-0.99
				c1.91-0.36,3.98-0.67,6.28-0.92c3.47-0.37,7.07,1.53,7.35,3.59c0.28,2-4.23,4.47-4.23,4.47c-0.41,0.64,11.04,0.1,11.28-4.47
				C1139.42,263.43,1135.35,258.78,1126.78,259.45z M786.37,234.4c1.39,1.17,0.95,2.74,5.43,3.68l0.1-4.59
				c-1.5,0.34-1.58-0.2-1.11-1.41c5.75,1.65,12.2,3.63,15.6,7.18c-5.78-2.25-12.61,0.07-15.35,1.6c-2.71,1.51-6.06,5.41-6.06,5.41
				s5.4-2.24,9.06-1.88c5.66,0.56,5.8,3.12,5.8,3.36c0,0.24-0.5,3.22-5.38,3.05c-9.19-0.31-14.08-2.66-19.53-5.74
				c-6.74-3.81-10.43-9.29-13.41-11.31c-0.05-0.03-0.08-0.06-0.13-0.1c4.33-1.48,8.78-2.59,12.48-2.64
				C776.28,230.99,784.6,232.9,786.37,234.4z M724.88,244.39c-3.26-3.78-4.88-5.51-2.49-8.47c4.86-6.01,18.43-3.63,18.43-3.63
				l-3.31-5.2c0,0,8.51-0.54,15.83,5.43c-5.74,2.26-9.41,4.43-9.27,4.5c-6.01,2.71-10.75,5.76-18.72,7.89
				C725.19,244.73,725.04,244.58,724.88,244.39z M735.44,258.6c5.23-2.27,10.36-2.42,10.36-2.42s5.9,2.15,12.22,2.06
				c5.85-0.08,11.96-2.92,12.91-3.38h0.14c0,0-0.03-0.01-0.07-0.03c0.04-0.02,0.07-0.03,0.07-0.03h-0.14
				c-0.95-0.46-7.06-3.3-12.91-3.38c-6.32-0.09-12.22,2.06-12.22,2.06s-5.13-0.15-10.36-2.42c-3.2-1.39-5.22-2.16-7.05-3.41
				c5.74-1.46,10.93-3.46,15.48-6.08c-0.03-0.07,5.59-3.19,12.54-6.02c2.98,3.48,4.4,6.82,12.17,11.52
				c7.88,4.77,12.51,7.04,20.16,7.77c-7.66,0.73-12.28,3-20.16,7.77c-7.77,4.7-9.19,8.04-12.17,11.52
				c-6.95-2.83-12.57-5.95-12.54-6.02c-4.56-2.62-9.74-4.62-15.48-6.08C730.22,260.76,732.24,259.99,735.44,258.6z M737.51,282.56
				l3.31-5.2c0,0-13.57,2.38-18.43-3.63c-2.39-2.96-0.78-4.69,2.49-8.47c0.16-0.19,0.31-0.34,0.47-0.51
				c7.97,2.13,12.71,5.18,18.72,7.89c-0.14,0.07,3.53,2.24,9.27,4.5C746.02,283.09,737.51,282.56,737.51,282.56z M790.8,277.57
				c-0.48-1.21-0.39-1.75,1.11-1.41l-0.1-4.59c-4.48,0.94-4.04,2.51-5.43,3.68c-1.77,1.49-10.09,3.41-12.5,3.37
				c-3.69-0.05-8.14-1.16-12.48-2.64c0.05-0.03,0.08-0.06,0.13-0.1c2.97-2.02,6.67-7.5,13.41-11.31c5.45-3.08,10.34-5.43,19.53-5.74
				c4.89-0.17,5.38,2.81,5.38,3.05c0,0.24-0.14,2.8-5.8,3.36c-3.66,0.36-9.06-1.88-9.06-1.88s3.35,3.9,6.06,5.41
				c2.74,1.53,9.57,3.85,15.35,1.6C802.99,273.94,796.55,275.92,790.8,277.57z M837.72,270.21c-0.24,0.04-15.97,2.47-20.89-6.41
				c-3.19-5.75-7.95-8.22-15.43-8.98c7.48-0.76,12.24-3.23,15.43-8.98c4.92-8.88,20.65-6.45,20.89-6.41
				c3.56,6.14,10.45,11.26,17.79,15.39C848.17,258.95,841.28,264.07,837.72,270.21z M878.82,339.93c-0.05-1.4,3.22-6.27,5.78-7.3
				c2-0.81,4.69-0.55,6.31-3.17l-7.85-0.06c0.58,0.87-0.34,0.92-2.42,0.65c2.83-3.36,6.22-7.13,12.29-9.11
				c-3.85,3.38,0.12,7.37,2.73,8.97c2.59,1.58,9.27,3.54,9.27,3.54s-3.83-3.15-3.21-5.29c0.96-3.3,5.33-3.39,5.75-3.39
				c0.41,0,5.52,0.29,5.23,3.15c-0.54,5.37-4.55,8.22-9.83,11.41c-6.53,3.93-15.9,6.1-19.36,7.83c-0.06,0.03-0.11,0.05-0.16,0.07
				C880.8,344.69,878.9,342.09,878.82,339.93z M901.71,368.56c-6.47,1.91-9.44,2.85-14.5,1.45c-10.29-2.84-6.21-10.77-6.21-10.77
				l-8.91,1.94c0,0-0.92-4.97,9.3-9.25c3.86,3.35,7.58,5.5,7.7,5.41c4.64,3.51,9.87,6.28,13.51,10.94
				C902.31,368.37,902.02,368.46,901.71,368.56z M926.03,362.38c-3.88-3.05-4.14-6.05-4.14-6.05s3.68-3.45,3.52-7.14
				c-0.14-3.42-5-6.98-5.78-7.54v-0.08c0,0-0.02,0.02-0.06,0.04c-0.04-0.02-0.06-0.04-0.06-0.04v0.08
				c-0.78,0.55-5.64,4.12-5.78,7.54c-0.16,3.69,3.52,7.14,3.52,7.14s-0.26,2.99-4.14,6.05c-2.38,1.87-3.69,3.05-5.84,4.12
				c-2.5-3.36-5.92-6.38-10.41-9.05c-0.12,0.02-5.46-3.26-10.3-7.33c5.96-1.74,11.67-2.57,19.72-7.11
				c8.17-4.6,12.05-7.31,13.3-11.78c1.25,4.47,5.13,7.17,13.3,11.78c8.05,4.54,13.76,5.37,19.72,7.11
				c-4.84,4.06-10.18,7.34-10.3,7.33c-4.49,2.66-7.92,5.69-10.41,9.05C929.72,365.44,928.41,364.26,926.03,362.38z M967.04,361.17
				l-8.91-1.94c0,0,4.08,7.93-6.21,10.77c-5.06,1.4-8.03,0.45-14.5-1.45c-0.31-0.09-0.6-0.18-0.89-0.27
				c3.64-4.66,8.86-7.43,13.51-10.94c0.12,0.08,3.84-2.06,7.7-5.41C967.95,356.21,967.04,361.17,967.04,361.17z M958.5,330.05
				c-2.07,0.28-3,0.23-2.42-0.65l-7.85,0.06c1.62,2.62,4.3,2.36,6.31,3.17c2.56,1.03,5.83,5.9,5.78,7.3
				c-0.08,2.16-1.98,4.76-4.52,7.29c-0.06-0.03-0.11-0.05-0.16-0.07c-3.46-1.74-12.83-3.9-19.36-7.83
				c-5.28-3.18-9.29-6.04-9.83-11.41c-0.29-2.85,4.82-3.15,5.23-3.15s4.79,0.08,5.75,3.39c0.62,2.14-3.21,5.29-3.21,5.29
				s6.68-1.96,9.27-3.54c2.62-1.6,6.59-5.59,2.73-8.97C952.28,322.92,955.67,326.69,958.5,330.05z M934.93,314.84
				c-9.85,1.86-14.07,4.64-15.37,9.01c-1.3-4.37-5.53-7.15-15.37-9.01c-15.2-2.87-11.03-12.06-10.97-12.2
				c10.51-2.08,19.27-6.1,26.34-10.39c7.07,4.29,15.83,8.31,26.34,10.39C945.97,302.77,950.13,311.96,934.93,314.84z M960.31,169.72
				c0.05,1.4-3.22,6.27-5.78,7.3c-2,0.81-4.69,0.55-6.31,3.17l7.85,0.06c-0.59-0.87,0.34-0.92,2.42-0.65
				c-2.83,3.36-6.22,7.13-12.29,9.11c3.85-3.38-0.12-7.37-2.73-8.97c-2.59-1.58-9.27-3.54-9.27-3.54s3.83,3.15,3.21,5.29
				c-0.96,3.3-5.33,3.39-5.75,3.39s-5.52-0.29-5.23-3.15c0.54-5.37,4.55-8.22,9.83-11.41c6.53-3.93,15.9-6.1,19.36-7.83
				c0.06-0.03,0.11-0.05,0.16-0.07C958.33,164.96,960.23,167.56,960.31,169.72z M937.42,141.1c6.47-1.91,9.44-2.85,14.5-1.45
				c10.29,2.84,6.21,10.77,6.21,10.77l8.91-1.94c0,0,0.92,4.97-9.3,9.25c-3.86-3.35-7.58-5.5-7.7-5.41
				c-4.64-3.51-9.87-6.28-13.51-10.94C936.82,141.28,937.11,141.19,937.42,141.1z M913.1,147.27c3.88,3.05,4.14,6.05,4.14,6.05
				s-3.68,3.45-3.52,7.14c0.14,3.42,5,6.98,5.78,7.54v0.08c0,0,0.02-0.02,0.06-0.04c0.04,0.02,0.06,0.04,0.06,0.04v-0.08
				c0.78-0.55,5.64-4.12,5.78-7.54c0.16-3.69-3.52-7.14-3.52-7.14s0.26-2.99,4.14-6.05c2.38-1.87,3.69-3.05,5.84-4.12
				c2.5,3.36,5.93,6.38,10.41,9.05c0.12-0.02,5.46,3.26,10.3,7.33c-5.96,1.74-11.67,2.57-19.72,7.11
				c-8.17,4.6-12.05,7.31-13.3,11.78c-1.25-4.47-5.13-7.17-13.3-11.78c-8.05-4.54-13.76-5.37-19.72-7.11
				c4.84-4.06,10.18-7.34,10.3-7.33c4.49-2.66,7.92-5.69,10.41-9.05C909.4,144.21,910.72,145.39,913.1,147.27z M872.09,148.48
				l8.91,1.94c0,0-4.08-7.93,6.21-10.77c5.06-1.4,8.03-0.45,14.5,1.45c0.31,0.09,0.6,0.18,0.89,0.27
				c-3.64,4.66-8.86,7.43-13.51,10.94c-0.12-0.08-3.84,2.06-7.7,5.41C871.17,153.44,872.09,148.48,872.09,148.48z M880.63,179.6
				c2.07-0.28,3-0.23,2.42,0.65l7.85-0.06c-1.62-2.62-4.3-2.36-6.31-3.17c-2.56-1.03-5.83-5.9-5.78-7.3
				c0.08-2.16,1.98-4.76,4.52-7.29c0.06,0.03,0.11,0.05,0.16,0.07c3.46,1.74,12.83,3.9,19.36,7.83c5.28,3.18,9.29,6.04,9.83,11.41
				c0.29,2.85-4.82,3.15-5.23,3.15c-0.41,0-4.79-0.08-5.75-3.39c-0.62-2.14,3.21-5.29,3.21-5.29s-6.68,1.96-9.27,3.54
				c-2.62,1.6-6.59,5.59-2.73,8.97C886.85,186.73,883.46,182.96,880.63,179.6z M904.19,194.81c9.85-1.86,14.07-4.64,15.37-9.01
				c1.3,4.37,5.52,7.15,15.37,9.01c15.2,2.87,11.03,12.06,10.97,12.2c-10.51,2.08-19.27,6.1-26.34,10.39
				c-7.07-4.29-15.83-8.31-26.34-10.39C893.16,206.88,889,197.69,904.19,194.81z M1103.69,251.05c-5.23,2.27-10.36,2.42-10.36,2.42
				s-5.9-2.15-12.22-2.06c-5.85,0.08-11.96,2.92-12.91,3.38h-0.14c0,0,0.03,0.01,0.07,0.03c-0.04,0.02-0.07,0.03-0.07,0.03h0.14
				c0.95,0.46,7.06,3.3,12.91,3.38c6.32,0.09,12.22-2.06,12.22-2.06s5.13,0.15,10.36,2.42c3.2,1.39,5.22,2.16,7.05,3.41
				c-5.74,1.46-10.93,3.46-15.48,6.08c0.03,0.07-5.59,3.19-12.54,6.02c-2.98-3.48-4.4-6.82-12.17-11.52
				c-7.88-4.77-12.51-7.04-20.16-7.77c7.66-0.73,12.28-3,20.16-7.77c7.77-4.7,9.19-8.04,12.17-11.52
				c6.95,2.83,12.57,5.95,12.54,6.02c4.56,2.62,9.74,4.62,15.48,6.08C1108.91,248.89,1106.89,249.66,1103.69,251.05z
				 M1101.62,227.09l-3.31,5.2c0,0,13.57-2.38,18.43,3.63c2.39,2.96,0.78,4.69-2.49,8.47c-0.16,0.19-0.31,0.34-0.47,0.51
				c-7.97-2.13-12.71-5.18-18.72-7.89c0.14-0.07-3.53-2.24-9.27-4.5C1093.11,226.56,1101.62,227.09,1101.62,227.09z M1048.33,232.08
				c0.47,1.21,0.39,1.75-1.11,1.41l0.1,4.59c4.48-0.94,4.04-2.51,5.43-3.68c1.77-1.49,10.09-3.41,12.5-3.37
				c3.69,0.05,8.14,1.16,12.48,2.64c-0.05,0.03-0.08,0.06-0.13,0.1c-2.97,2.02-6.67,7.5-13.41,11.31
				c-5.45,3.08-10.34,5.43-19.53,5.74c-4.89,0.17-5.38-2.81-5.38-3.05c0-0.24,0.14-2.8,5.8-3.36c3.66-0.36,9.06,1.88,9.06,1.88
				s-3.35-3.9-6.06-5.41c-2.74-1.53-9.57-3.85-15.35-1.6C1036.13,235.71,1042.58,233.73,1048.33,232.08z M1022.29,263.8
				c-4.92,8.88-20.65,6.45-20.89,6.41c-3.56-6.14-10.45-11.26-17.79-15.39c7.34-4.13,14.23-9.25,17.79-15.39
				c0.24-0.04,15.97-2.47,20.89,6.41c3.19,5.75,7.95,8.22,15.43,8.98C1030.24,255.58,1025.48,258.05,1022.29,263.8z M1052.75,275.25
				c-1.39-1.17-0.95-2.74-5.43-3.68l-0.1,4.59c1.5-0.34,1.58,0.2,1.11,1.41c-5.75-1.65-12.2-3.63-15.6-7.18
				c5.78,2.25,12.61-0.07,15.35-1.6c2.71-1.51,6.06-5.41,6.06-5.41s-5.4,2.24-9.06,1.88c-5.66-0.56-5.8-3.12-5.8-3.36
				c0-0.24,0.5-3.22,5.38-3.05c9.19,0.31,14.08,2.66,19.53,5.74c6.74,3.81,10.43,9.29,13.41,11.31c0.05,0.03,0.08,0.06,0.13,0.1
				c-4.33,1.48-8.78,2.59-12.48,2.64C1062.84,278.66,1054.52,276.75,1052.75,275.25z M1114.25,265.26c3.26,3.78,4.88,5.51,2.49,8.47
				c-4.86,6.01-18.43,3.63-18.43,3.63l3.31,5.2c0,0-8.51,0.54-15.83-5.43c5.74-2.26,9.41-4.43,9.27-4.5
				c6.01-2.71,10.75-5.76,18.72-7.89C1113.94,264.92,1114.09,265.07,1114.25,265.26z"/>
			<path class="st12" d="M1022.7,252.06c-2.19,0.1-2.12,0.79-2.79,1.17c-0.53,0.3-1.12,1.29-3.85,1.26
				c-2.23-0.02-3.54-0.97-4.37-1.41c-0.64-0.34-1.09-1.4-5.48-1.52c-4.54-0.13-12.06,3.35-12.06,3.36s7.53,3.49,12.06,3.36
				c4.38-0.12,4.84-1.19,5.48-1.52c0.83-0.44,2.14-1.39,4.37-1.41c2.72-0.03,3.32,0.96,3.85,1.26c0.67,0.38,0.6,1.07,2.79,1.17
				c3.02,0.14,4.46-1.57,5.49-2.86C1027.16,253.63,1025.72,251.92,1022.7,252.06z"/>
			<path class="st12" d="M1170.19,250.23c-3.09-0.33-4.53,1.42-5.84,2.91c0,0-2.74-4.85-11.68-4.83c-8.9,0.02-17.37,6.49-17.37,6.45
				s8.47,6.43,17.37,6.45c8.94,0.02,11.68-4.83,11.68-4.83c1.31,1.49,2.75,3.24,5.84,2.91c5.13-0.55,9.2-2.26,11.54-4.53
				C1179.39,252.5,1175.31,250.78,1170.19,250.23z M1145.36,254.89c3.71-1.41,8.09-3.23,12.93,0
				C1153.45,258.12,1149.14,256.3,1145.36,254.89z"/>
			<path class="st12" d="M925.16,204.21c-0.21-2.56-2.03-2.83-2.61-3.2c-0.75-0.48-2.37-1.25-2.41-2.55
				c-0.05-1.59,1.64-1.94,2.16-2.25c0.66-0.39,1.83-0.35,2-1.63c0.24-1.76-2.69-2.6-4.89-3.21c-2.2,0.6-5.13,1.44-4.89,3.21
				c0.17,1.28,1.35,1.24,2,1.63c0.52,0.31,2.2,0.66,2.16,2.25c-0.04,1.3-1.66,2.07-2.41,2.55c-0.58,0.37-2.4,0.64-2.61,3.2
				c-0.21,2.65,5.74,7.05,5.76,7.05S925.38,206.86,925.16,204.21z"/>
			<path class="st12" d="M919.66,128.8c-0.07,0,11-4.95,11.04-10.15c0.04-5.22-8.26-6.82-8.26-6.82c2.55-0.76,5.55-1.61,4.98-3.41
				c-0.94-2.99-3.87-5.38-7.76-6.74c-3.89,1.36-6.82,3.74-7.76,6.74c-0.56,1.81,2.43,2.65,4.98,3.41c0,0-8.3,1.6-8.26,6.82
				C908.66,123.85,919.73,128.8,919.66,128.8z M919.45,115.37c5.52,2.82,2.41,5.38,0,7.55C917.04,120.71,913.92,118.2,919.45,115.37
				z"/>
			<path class="st12" d="M922.55,308.64c0.58-0.37,2.4-0.64,2.61-3.2c0.21-2.65-5.74-7.05-5.76-7.05s-5.97,4.4-5.76,7.05
				c0.21,2.56,2.03,2.83,2.61,3.2c0.75,0.48,2.37,1.25,2.41,2.55c0.05,1.59-1.64,1.94-2.16,2.25c-0.66,0.39-1.83,0.35-2,1.63
				c-0.24,1.76,2.69,2.6,4.89,3.21c2.2-0.6,5.13-1.44,4.89-3.21c-0.17-1.28-1.35-1.24-2-1.63c-0.52-0.31-2.2-0.66-2.16-2.25
				C920.18,309.89,921.8,309.13,922.55,308.64z"/>
			<path class="st12" d="M919.66,380.85c0.07,0-11,4.95-11.04,10.15c-0.04,5.22,8.26,6.82,8.26,6.82c-2.55,0.76-5.55,1.61-4.98,3.41
				c0.94,2.99,3.87,5.38,7.76,6.74c3.89-1.36,6.82-3.74,7.76-6.74c0.56-1.81-2.43-2.65-4.98-3.41c0,0,8.3-1.6,8.26-6.82
				C930.66,385.8,919.59,380.85,919.66,380.85z M919.45,394.28c-5.52-2.82-2.41-5.34,0-7.55
				C921.85,388.89,924.97,391.45,919.45,394.28z"/>
		</g>
	</g>
</g>
<g id="Cymbal" class="st7">
	<g class="st8">
		
			<ellipse transform="matrix(0.2295 -0.9733 0.9733 0.2295 176.5546 816.4963)" class="st13" cx="603.97" cy="296.74" rx="180.19" ry="176.81"/>
		<g>
			<path class="st14" d="M430.81,260.99c4.73-22.88,13.81-44.88,26.76-64.35c12.91-19.49,29.58-36.5,48.92-49.71
				c9.67-6.6,19.95-12.31,30.72-16.95c10.77-4.63,22-8.19,33.49-10.59c22.97-4.83,46.95-4.92,70.04-0.32
				c23.08,4.59,45.26,13.87,64.74,27.21c19.49,13.31,36.28,30.6,49.05,50.5c12.78,19.89,21.67,42.31,25.92,65.6
				c4.26,23.3,3.9,47.41-0.86,70.6c-4.85,23.18-14.12,45.44-27.28,65.12c-13.15,19.7-30.21,36.73-49.83,49.93
				c-19.61,13.22-41.88,22.44-65.04,26.96c-23.16,4.55-47.21,4.32-70.23-0.59c-23.02-4.9-45.02-14.45-64.21-27.97
				c-9.6-6.75-18.51-14.47-26.57-22.98c-8.06-8.51-15.23-17.84-21.49-27.73c-12.52-19.79-21.06-42.03-25.16-65.05
				C425.63,307.66,426.04,283.87,430.81,260.99z M430.81,260.99c-4.7,22.89-5.05,46.67-0.85,69.65
				c4.19,22.98,12.96,45.08,25.56,64.7c12.6,19.63,29.16,36.67,48.37,49.79c19.2,13.15,41.06,22.28,63.82,26.81
				c22.76,4.53,46.39,4.44,69.04-0.32c11.32-2.37,22.4-5.88,33.02-10.45c10.62-4.57,20.76-10.2,30.29-16.71
				c19.07-13.02,35.5-29.81,48.24-49.03c12.77-19.2,21.72-40.89,26.4-63.47c4.7-22.57,5.11-46.04,1.02-68.73
				c-4.04-22.7-12.47-44.63-24.81-64.15c-6.17-9.75-13.24-18.95-21.19-27.35c-7.94-8.39-16.73-16-26.19-22.65
				c-18.92-13.33-40.59-22.75-63.29-27.58c-22.7-4.84-46.39-5.07-69.22-0.59c-22.83,4.45-44.79,13.55-64.13,26.58
				c-19.35,13.02-36.18,29.82-49.15,49.24C444.74,216.17,435.6,238.12,430.81,260.99z"/>
		</g>
	</g>
	<g class="st8">
		
			<ellipse transform="matrix(0.1694 -0.9855 0.9855 0.1694 208.0266 822.3469)" class="st15" cx="591.88" cy="287.76" rx="51.02" ry="46.21"/>
		<path class="st16" d="M546.31,280.15c2.12-12.54,8.36-24.46,18.06-32.97c4.83-4.24,10.48-7.67,16.71-9.71
			c6.2-2.08,12.94-2.83,19.56-1.98c6.62,0.82,13.12,3.2,18.78,6.92c5.65,3.73,10.52,8.69,14.2,14.41
			c3.69,5.72,6.22,12.18,7.52,18.88c1.3,6.7,1.35,13.62,0.26,20.34c-1.17,6.71-3.46,13.24-6.88,19.15
			c-3.4,5.91-7.91,11.19-13.26,15.4c-5.34,4.22-11.56,7.32-18.12,9.02c-6.57,1.68-13.49,1.82-20.02,0.45
			c-6.54-1.34-12.68-4.24-17.87-8.23c-5.22-3.96-9.46-9.04-12.64-14.63C546.23,305.99,544.22,292.69,546.31,280.15z M546.31,280.15
			c-1.01,6.29-0.97,12.74,0.25,18.98c1.21,6.23,3.58,12.22,7,17.51c3.41,5.29,7.91,9.83,13.09,13.22
			c5.19,3.38,11.11,5.52,17.14,6.24c6.04,0.75,12.14,0.04,17.79-1.88c5.66-1.88,10.83-5.04,15.27-8.95
			c8.91-7.86,14.69-18.89,16.68-30.55c1.94-11.67,0.08-23.99-5.78-34.32c-2.91-5.15-6.78-9.81-11.53-13.43
			c-4.71-3.65-10.27-6.3-16.22-7.55c-5.94-1.27-12.23-1.17-18.24,0.35c-6,1.53-11.73,4.36-16.68,8.26
			c-4.96,3.88-9.15,8.78-12.32,14.28C549.55,267.78,547.41,273.87,546.31,280.15z"/>
	</g>
	<g id="Layer_13" class="st8">
		<path class="st17" d="M595.79,296.74c0.57-3.05,0.54-20.59,0.54-20.6c-49.15,36.26-88.39,79.97-93.63,145.63
			c0,0.05-0.02,0.1-0.06,0.14c-47.34,55.86-85.17,277.97-62.96,346.05c23.54,46.5,67.44,12.75,76.54-24.81
			c27.12-105.35-24.09-205.9-8.23-314.27c0,0,0-0.01,0-0.01C538.27,384.61,586.03,352.27,595.79,296.74z M502.86,535.76
			c6,69.34,27.28,137.66,7.87,202.23c-6.98,29.13-44.42,61.52-65.9,23.32c0-0.01-0.01-0.01-0.01-0.02
			c-13.36-28.67-4.71-65.11-1.25-100.13c11.28-76.94,12.97-154.16,57.29-221.64C498.18,473.63,499.96,508.5,502.86,535.76z
			 M583.51,319.95c-19.25,33.07-49.96,60.06-72.86,90.9c0.56-46.48,70.21-116.88,84.23-132.37
			C594.89,278.48,590.38,307.81,583.51,319.95z"/>
	</g>
	<g class="st8">
		<path class="st18" d="M649.12,244.94c-3.59-5.79-7.56-11.31-12.05-16.27c25.19,37.11,26.1,84.13-0.55,120.42
			C663.29,324.37,667.92,276.06,649.12,244.94z"/>
		<path class="st18" d="M666.12,251.07c-2.91-9.73-6.04-19.48-10.55-28.46c14.96,43.68,19.29,101.3-14.08,138.77
			C672.69,336.24,676.77,287.67,666.12,251.07z"/>
		<path class="st18" d="M666.77,219.12c-6.65-12.41-13.84-24.69-23.16-34.86c35.14,54.57,58.35,133.92,5.52,191.21
			c0-0.04,0-0.07,0-0.11C694.37,340.69,693.11,265.88,666.77,219.12z"/>
		<path class="st18" d="M680.29,217.14c-4.33-8.21-9.09-16.15-14.3-23.71c12.42,25.19,23.55,52.86,28.36,80.82
			c-0.04-0.21-0.11-0.57-0.21-1.1c3.08,23.26,3.78,47.38-7.91,67.03C710.98,304.82,698.76,252.65,680.29,217.14z"/>
		<path class="st18" d="M708.99,273.76c-1.19-10.01-2.69-19.99-4.5-29.88c4.33,51.35,7.01,107.17-28.01,148.03
			C709.75,364.29,714.65,314.27,708.99,273.76z"/>
		<path class="st18" d="M715.52,253.99c-0.75-3.07-1.55-6.13-2.39-9.18c2,28.69,12.06,57.75,4.45,86.05
			C728.47,306.93,720.62,278.49,715.52,253.99z"/>
	</g>
	<g class="st8">
		
			<ellipse transform="matrix(0.2295 -0.9733 0.9733 0.2295 154.2528 788.325)" class="st15" cx="575.03" cy="296.74" rx="180.19" ry="176.81"/>
		<g>
			<path class="st14" d="M401.86,260.99c4.73-22.88,13.81-44.88,26.75-64.35c12.92-19.49,29.66-36.44,49-49.6
				c9.68-6.57,19.97-12.25,30.73-16.85c10.76-4.6,22-8.12,33.47-10.49c22.95-4.76,46.87-4.79,69.87-0.14
				c23.01,4.64,45.09,13.94,64.45,27.28c19.38,13.31,36.05,30.57,48.71,50.4c12.68,19.83,21.44,42.15,25.65,65.32
				c4.24,23.17,3.89,47.14-0.84,70.22c-4.83,23.06-14.05,45.19-27.15,64.76c-13.07,19.58-29.97,36.59-49.47,49.77
				c-19.49,13.2-41.63,22.45-64.69,27.01c-23.06,4.59-47.02,4.43-69.99-0.41c-22.97-4.82-44.94-14.29-64.13-27.74
				c-9.6-6.71-18.52-14.39-26.59-22.87c-8.07-8.48-15.26-17.78-21.54-27.65c-12.54-19.75-21.18-41.96-25.29-64.97
				C396.67,307.66,397.1,283.87,401.86,260.99z M401.86,260.99c-4.7,22.89-5.04,46.67-0.84,69.65
				c4.18,22.98,12.86,45.11,25.44,64.78c12.56,19.68,29.09,36.79,48.3,49.98c19.2,13.22,41.08,22.44,63.9,27.04
				c22.81,4.61,46.52,4.58,69.27-0.14c11.37-2.35,22.51-5.84,33.18-10.4c10.67-4.56,20.88-10.19,30.47-16.71
				c19.19-13.05,35.78-29.86,48.6-49.19c12.84-19.31,21.84-41.13,26.54-63.83c4.73-22.69,5.15-46.29,1.04-69.11
				c-4.08-22.83-12.63-44.85-25.08-64.44c-6.23-9.79-13.35-19.01-21.36-27.42c-8-8.41-16.84-16.02-26.36-22.68
				c-19.03-13.33-40.81-22.72-63.58-27.5c-22.77-4.79-46.53-4.96-69.39-0.4c-22.86,4.52-44.82,13.7-64.14,26.78
				c-19.34,13.07-36.1,29.93-49.07,49.36C415.8,216.17,406.66,238.12,401.86,260.99z"/>
		</g>
	</g>
	<g class="st8">
		
			<ellipse transform="matrix(0.1694 -0.9855 0.9855 0.1694 183.9855 793.8214)" class="st19" cx="562.94" cy="287.76" rx="51.02" ry="46.21"/>
		<g>
			<path class="st20" d="M517.37,280.15c2.12-12.54,8.36-24.46,18.06-32.97c4.83-4.24,10.48-7.67,16.71-9.71
				c6.2-2.08,12.94-2.83,19.56-1.98c6.62,0.82,13.12,3.2,18.78,6.92c5.65,3.73,10.52,8.69,14.2,14.41
				c3.69,5.72,6.22,12.18,7.52,18.88c1.31,6.7,1.35,13.62,0.26,20.34c-1.17,6.71-3.46,13.24-6.88,19.15
				c-3.4,5.91-7.91,11.19-13.26,15.4c-5.34,4.22-11.56,7.32-18.12,9.02c-6.57,1.68-13.49,1.82-20.02,0.45
				c-6.54-1.34-12.68-4.24-17.87-8.23c-5.22-3.96-9.46-9.04-12.64-14.63C517.28,305.99,515.28,292.69,517.37,280.15z M517.37,280.15
				c-1.01,6.29-0.97,12.74,0.25,18.98c1.21,6.23,3.58,12.22,7,17.51c3.41,5.29,7.91,9.83,13.09,13.22
				c5.19,3.38,11.11,5.52,17.14,6.24c6.04,0.75,12.14,0.04,17.79-1.88c5.66-1.88,10.83-5.04,15.27-8.95
				c8.91-7.86,14.69-18.89,16.68-30.55c1.94-11.67,0.08-23.99-5.78-34.32c-2.91-5.15-6.78-9.81-11.53-13.43
				c-4.71-3.65-10.27-6.3-16.22-7.55c-5.94-1.27-12.23-1.17-18.24,0.35c-6,1.53-11.73,4.36-16.68,8.26
				c-4.96,3.88-9.15,8.78-12.32,14.28C520.61,267.78,518.47,273.87,517.37,280.15z"/>
		</g>
	</g>
	
		<ellipse transform="matrix(0.2675 -0.9635 0.9635 0.2675 136.111 759.4761)" class="st21" cx="567.6" cy="290.21" rx="105.96" ry="99.21"/>
	<path class="st22" d="M566.84,296.74c-0.63,1.3,3.14-22.43-2.16-18.59c-107.67,67.18-182.11,368.67-153.96,489.81
		c23.54,46.5,67.44,12.75,76.55-24.81c27.12-105.35-24.09-205.91-8.23-314.28C509.32,384.61,557.09,352.27,566.84,296.74z
		 M473.91,535.76c6,69.34,27.28,137.66,7.87,202.23c-6.98,29.14-44.45,61.53-65.91,23.29c-13.36-28.67-4.7-65.11-1.25-100.13
		c11.28-76.94,12.97-154.16,57.29-221.64C469.23,473.63,471.01,508.5,473.91,535.76z M546.13,333.14
		c-19.02,27.3-44.63,51.07-64.42,77.71c-10.56-22.39,97.46-168.48,78.43-106.23C557.03,314.81,552.22,324.39,546.13,333.14z"/>
	<g class="st8">
		<path class="st23" d="M682.04,244.09c-3.03-5.82-6.39-11.37-10.18-16.37c21.27,37.32,22.05,84.61-0.46,121.11
			C694.01,323.98,697.92,275.39,682.04,244.09z"/>
		<path class="st23" d="M696.4,250.26c-2.46-9.79-5.1-19.59-8.91-28.62c12.64,43.94,16.29,101.89-11.89,139.57
			C701.94,335.92,705.4,287.07,696.4,250.26z"/>
		<path class="st23" d="M696.95,218.13c-5.61-12.48-11.69-24.83-19.56-35.06c29.68,54.88,49.29,134.7,4.66,192.32
			c0-0.04,0-0.07,0-0.11C720.26,340.39,719.19,265.15,696.95,218.13z"/>
		<path class="st23" d="M708.36,216.13c-3.66-8.26-7.68-16.24-12.08-23.84c10.49,25.34,19.89,53.17,23.96,81.29
			c-0.03-0.21-0.09-0.57-0.18-1.1c2.6,23.39,3.19,47.66-6.68,67.41C734.29,304.32,723.97,251.84,708.36,216.13z"/>
		<path class="st23" d="M732.61,273.08c-1-10.07-2.27-20.1-3.81-30.06c3.66,51.64,5.92,107.79-23.66,148.88
			C733.25,364.13,737.39,313.82,732.61,273.08z"/>
		<path class="st23" d="M738.12,253.19c-0.64-3.09-1.31-6.17-2.02-9.23c1.69,28.86,10.18,58.09,3.76,86.54
			C749.07,306.44,742.43,277.84,738.12,253.19z"/>
	</g>
	<g class="st8">
		<path class="st24" d="M453.11,268.28c-0.79,5.97-1.23,11.86-1.1,17.47c3.83-39.05,26.53-77.78,59.81-98.2
			C484.18,198.47,457.65,236.34,453.11,268.28z"/>
		<path class="st24" d="M446.34,257.38c-3.13,8.96-6.14,18-7.98,26.91c12.97-40.88,38.94-89.46,76.67-108.51
			C484.64,185.51,458.29,223.78,446.34,257.38z"/>
		<path class="st24" d="M430.18,283.26c-2.3,12.44-4.23,24.97-3.88,36.5c6.72-56.76,32.56-129.64,91.29-158.15
			c-0.02,0.03-0.04,0.06-0.06,0.09C474.35,174.37,438.12,235.93,430.18,283.26z"/>
		<path class="st24" d="M421.42,280.2c-1.56,8.21-2.74,16.34-3.48,24.32c5.29-24.89,12.55-51.35,23.59-75.87
			c-0.08,0.18-0.22,0.5-0.42,0.97c9.72-20.07,21.23-40.02,37.67-52.02C447.06,197.92,428.32,244.78,421.42,280.2z"/>
		<path class="st24" d="M432.86,223.99c-4.26,8.59-8.33,17.26-12.17,25.98c22.88-43.45,48.91-89.99,89.27-111.24
			C477.15,149.75,449.61,188.93,432.86,223.99z"/>
		<path class="st24" d="M419.33,237.88c-1.08,2.77-2.14,5.55-3.16,8.33c13.03-24.14,21.59-51.37,39.95-71.85
			C438.02,190.14,428.5,216.09,419.33,237.88z"/>
	</g>
</g>
<g id="Triangle" class="st7">
	<g class="st8">
		<path class="st25" d="M1416.55,479.47h-373.47c-8.46,0-16.29-4.63-20.44-12.08c-4.15-7.45-4-16.62,0.39-23.92l186.74-310.61
			c4.29-7.13,11.78-11.39,20.04-11.39s15.76,4.26,20.04,11.39l186.74,310.61c4.39,7.31,4.54,16.47,0.39,23.92
			C1432.84,474.84,1425.01,479.47,1416.55,479.47z M1048.01,452.97h363.61l-181.81-302.41L1048.01,452.97z M1232.18,146.62
			l-0.01,0.01C1232.18,146.63,1232.18,146.62,1232.18,146.62L1232.18,146.62z"/>
		<g>
			<path class="st26" d="M1229.81,150.56v-0.06c-5.11-7.57-5.55-5.98-7.74-2.39l-180.97,296.8c-2.74,4.77,1.97,9.08,6.9,8.06
				L1229.81,150.56z"/>
		</g>
	</g>
	<path class="st27" d="M1411.55,474.23c-0.32,0-0.64-0.01-0.97-0.04l-430.73-37.64c-6.04-0.53-10.52-5.87-9.99-11.94
		c0.53-6.06,5.85-10.57,11.89-10.02l430.73,37.64c6.04,0.53,10.52,5.87,9.99,11.94C1421.98,469.9,1417.18,474.23,1411.55,474.23z"/>
</g>
<g id="Edge" class="st7">
	<g id="Layer_2" class="st8">
		<polygon class="st28" points="514.74,503.02 529.27,458.56 1313.02,458.22 1326.74,503.02 		"/>
		<polygon class="st29" points="514.74,503.02 529.27,536.96 1313.02,537.22 1326.74,503.02 		"/>
	</g>
</g>
</svg>
