<svg version="1.2" xmlns="http://www.w3.org/2000/svg" viewBox="0 0 482 579" width="482" height="579">
	<title>triangle</title>
	<style>
		.s0 { fill: #dae3e8 } 
		.s1 { fill: #a6b9bf } 
		.s2 { fill: #dae2e4 } 
	</style>
	<g id="Triangle">
		<g>
			<path class="s0" d="m452.55 490.76h-373.47c-8.46 0-16.29-4.63-20.44-12.08-4.15-7.45-4-16.62 0.39-23.92l186.74-310.61c4.29-7.13 11.78-11.39 20.04-11.39 8.26 0 15.76 4.26 20.04 11.39l186.74 310.61c4.39 7.31 4.54 16.47 0.39 23.92-4.14 7.46-11.97 12.08-20.43 12.08zm-368.54-26.5h363.61l-181.81-302.41zm184.17-306.35l-0.01 0.01q0.01 0 0.01-0.01z"/>
			<g>
				<path class="s1" d="m265.81 161.86v-0.06c-5.11-7.57-5.55-5.98-7.74-2.39l-180.97 296.79c-2.74 4.77 1.97 9.08 6.9 8.06z"/>
			</g>
		</g>
		<path class="s2" d="m447.55 485.52q-0.48 0-0.97-0.04l-430.73-37.64c-6.04-0.53-10.52-5.87-9.99-11.94 0.53-6.06 5.85-10.57 11.89-10.02l430.73 37.64c6.04 0.53 10.52 5.87 9.99 11.94-0.49 5.73-5.29 10.06-10.92 10.06z"/>
	</g>
</svg>