<?xml version="1.0" encoding="utf-8"?>
<!-- Generator: Adobe Adobe Illustrator 24.2.0, SVG Export Plug-In . SVG Version: 6.00 Build 0)  -->
<svg version="1.1" id="Layer_1" xmlns="http://www.w3.org/2000/svg" xmlns:xlink="http://www.w3.org/1999/xlink" x="0px" y="0px"
	 width="539.98px" height="400px" viewBox="0 0 539.98 400" style="enable-background:new 0 0 539.98 400;" xml:space="preserve">
<style type="text/css">
	.st0{fill:none;stroke:#71929C;stroke-width:5;stroke-miterlimit:10;}
	.st1{fill:#71919C;}
	.st2{fill:none;stroke:#70919C;stroke-width:6;stroke-miterlimit:10;}
	.st3{fill:none;stroke:#71919C;stroke-width:6;stroke-miterlimit:10;}
</style>
<g>
	<path class="st0" d="M230.85,65.32c-56.39,16.56-99.05,71.84-100.8,130.59c-1.75,58.75,37.56,116.46,92.87,136.34
		c55.3,19.88,122.36,0.41,158.42-46s38.35-116.2,5.41-164.88S288.07,48.51,230.85,65.32z"/>
	<path class="st0" d="M221.06,31.65c-70.48,20.71-123.82,89.8-126,163.23s46.96,145.57,116.09,170.43s152.95,0.52,198.02-57.5
		s47.94-145.25,6.77-206.1S292.59,10.64,221.06,31.65z"/>
</g>
<g>
	<path class="st1" d="M257.22,187.93c5.51-5.92,15.33-7.19,22.16-2.88c6.84,4.31,9.94,13.73,7.01,21.27
		c-2.93,7.54-11.57,12.38-19.52,10.91c-7.94-1.46-14.31-9.06-14.38-17.15C252.43,192.67,258.82,185.77,257.22,187.93z"/>
	<path class="st1" d="M253.02,6.98c7.09-7.61,19.71-9.24,28.5-3.7c8.79,5.54,12.78,17.65,9.01,27.35
		c-3.77,9.7-14.88,15.91-25.09,14.03c-10.21-1.88-18.4-11.64-18.49-22.05C246.86,13.07,255.08,4.21,253.02,6.98z"/>
	<path class="st1" d="M253.02,361.98c7.09-7.61,19.71-9.24,28.5-3.7c8.79,5.54,12.78,17.65,9.01,27.35
		c-3.77,9.7-14.88,15.91-25.09,14.03c-10.21-1.88-18.4-11.64-18.49-22.05C246.86,368.07,255.08,359.21,253.02,361.98z"/>
	<g>
		
			<rect x="301.35" y="160.69" transform="matrix(0.7071 -0.7071 0.7071 0.7071 -41.408 298.3171)" class="st2" width="76.1" height="76.9"/>
		
			<rect x="160.35" y="160.69" transform="matrix(0.7071 -0.7071 0.7071 0.7071 -82.706 198.615)" class="st2" width="76.1" height="76.9"/>
		
			<rect x="225.37" y="92.54" transform="matrix(0.7071 -0.7071 0.7071 0.7071 -17.6452 229.8792)" class="st2" width="86.6" height="87.41"/>
		
			<rect x="225.96" y="221.22" transform="matrix(0.7071 -0.7071 0.7071 0.7071 -108.4662 267.9922)" class="st2" width="86.6" height="87.41"/>
	</g>
</g>
<g>
	<line class="st3" x1="444.98" y1="400" x2="444.98" y2="0"/>
	<line class="st3" x1="536.98" y1="0" x2="536.98" y2="400"/>
</g>
<g>
	<line class="st3" x1="3" y1="400" x2="3" y2="0"/>
	<line class="st3" x1="95" y1="0" x2="95" y2="400"/>
</g>
</svg>
