<?xml version="1.0" encoding="utf-8"?>
<!-- Generator: Adobe Adobe Illustrator 24.2.0, SVG Export Plug-In . SVG Version: 6.00 Build 0)  -->
<svg version="1.1" xmlns="http://www.w3.org/2000/svg" xmlns:xlink="http://www.w3.org/1999/xlink" x="0px" y="0px" width="780px"
	 height="260px" viewBox="0 0 780 260" style="enable-background:new 0 0 780 260;" xml:space="preserve">
<style type="text/css">
	.st0{display:none;}
	.st1{display:inline;}
	.st2{fill:#C2AB4C;stroke:#A08A30;stroke-width:4;stroke-miterlimit:10;}
	.st3{fill:#D9BE51;}
	.st4{fill:#9F892F;}
	.st5{fill:#EAE79F;}
	.st6{fill:#C2AB4C;}
	.st7{fill:#6E6243;}
	.st8{fill:#E8E79F;stroke:#6E6243;stroke-width:4;stroke-miterlimit:10;}
	.st9{fill:#EDE79F;}
	.st10{fill:#6F6344;}
	.st11{stroke:#806E26;stroke-miterlimit:10;stroke-dasharray:0,0,0,0,0,0;}
	.st12{fill:#9F892E;}
	.st13{fill:none;}
	.st14{fill:#E3E69D;stroke:#6F6344;stroke-miterlimit:10;}
	.st15{fill:#E4E69E;stroke:#6F6344;stroke-miterlimit:10;}
	.st16{fill:#E5E79F;stroke:#6F6344;stroke-miterlimit:10;}
	.st17{fill:#E6E79F;stroke:#6F6344;stroke-miterlimit:10;}
	.st18{fill:#E8E79F;stroke:#6F6344;stroke-miterlimit:10;}
	.st19{fill:#EAE79F;stroke:#6E6243;stroke-miterlimit:10;}
	.st20{fill:#EBE79F;stroke:#6E6243;stroke-miterlimit:10;}
	.st21{fill:#EDE79F;stroke:#6E6243;stroke-miterlimit:10;}
	.st22{fill:#E8E79F;}
	.st23{fill:#6F6343;}
	.st24{fill:#EFE79F;}
	.st25{fill:#EBE79F;}
	.st26{opacity:0.85;}
	.st27{fill:#C2AC4D;}
	.st28{fill:#C7B458;}
	.st29{fill:#EFE79F;stroke:#6F6344;stroke-miterlimit:10;}
</style>
<g id="Rocks" class="st0">
</g>
<g id="Wings">
	<g id="Layer_20">
		<g>
			<path class="st5" d="M755.4,80.97c2.59-5.6-3.48-12.13-12.63-18.31c-23.88-16.15-54.16-19.64-81.32-9.95
				C619.78,67.58,550.68,89.2,517.99,82.32c-17.52-3.69-48.48-33.63-65.08-29.88c-24.63,5.55-39.72,11.46-51.68,55.09
				c-12.81-41.46-41.51-60.91-62.89-53.58c-32.44,11.13-48.81,26.36-66.07,26.31c-27.55-0.08-98.44-22.44-140.21-36.46
				c-24.98-8.39-52.61-4.51-73.96,10.94C50.16,60.5,45.08,66.35,47.91,70.9c7.61,12.2,9.46-25.84,57.5,0.95
				c4.12,2.3,9.25,6.98,14.64,12.71c34,36.16,74.04,75.15,118.87,96.46c1.39,0.66,2.79,1.32,4.18,1.97
				c13.28,6.24,34.46,15.56,53.03,23.62c29.63,12.87,64.03,9.7,90.28-9.14c0.57-0.41,1.13-0.82,1.68-1.23
				c5.66-4.27,10.01-8.82,11.24-13.21c1.11-3.98,2.19-8.1,3.17-12.22c0.83,2.99,1.69,5.97,2.58,8.86c1.22,3.97,4.27,8.22,8.15,12.35
				c15.06,16.05,37.21,23.39,59,20.32c6.6-0.93,14.62-2.66,23.3-4.85c14.2-3.59,31.54-10.2,49.17-17.89
				c46.81-20.41,89.47-49.1,126.97-83.75c7.2-6.65,14.98-13,22.74-17.82C737.14,61.49,749.14,94.5,755.4,80.97z"/>
		</g>
	</g>
</g>
<g id="Angel" class="st0">
	<g id="Layer_28" class="st1">
		<g id="Layer_33">
			<g>
				<path class="st6" d="M463.33,303.51c-4.08-6.17-10.91-9.6-14.55-13.85c1.98,4.04,0.9,8.01-2.64,12.03
					c-0.4,0.44-0.86,0.83-1.31,1.23c0.92-1.42,1.57-2.99,2.13-4.59c1.41-3.63,1.86-7.58,0.13-10.93c-1.98,3.79-5.66,6.95-9.16,9.04
					c2.48-2.13,4.3-4.97,6.3-7.54c1-1.41,1.97-2.91,2.66-4.5c2.06-35.83,15.55-58.65,5.67-93.16
					c-10.18-35.56-42.86-41.35-61.61-39.42c-18.75,1.93-35.37,12.47-51.14,22.79l4.03,15.41c-0.44,6.51-0.33,13.05,0.28,19.54
					c2.12-0.01,18.08,0.54,19.49,0.96c1.25,0.37,2.35,1.08,3.03,2.21c0.7,1.17,1.5,20.72-2.16,29.5c-1.77,4.23-3.28,7.17-6.55,10.33
					c2.11,2.1,5.49,8.15,5.6,19.5c-1.32-4.33-2.48-8.42-4.21-12.49c-3.51,19.01-7.03,38.02-10.54,57.03
					c-2.21,11.98,10.98,23.66,22.58,20.67c-0.7-1.31-1.36-2.62-2.06-3.96c-1.33-2.78-3.17-5.53-3.41-8.67
					c-0.34-0.92-0.18-6.8,0.5-10.22c0.6-2.96,1.45-4.67,2.11-7.17c0.67-2.51,1.34-5.06,1.28-7.67c-0.17-3.03-0.5-6.15,1.04-8.92
					c1.31-2.64,3.36-5.47,4.3-7.77c1.46-3.03,2.54-7.35,3.59-10.99c1.36-4.29,3.15-8.48,3.75-12.97c0.02-0.17,0.03-0.35,0.04-0.52
					c0.04,0.51,0.06,1.03,0.04,1.54c-0.21,4.63-1.27,9.17-2.22,13.69c-0.72,3.8-1.01,7.7-2.22,11.4c-1.4,4.39-4.23,7.2-4.77,11.49
					c-0.22,2.15,0.12,3.16,0.2,5.42c0.19,3.49-0.87,6.87-1.66,10.23c-0.38,1.91-0.63,3.84-0.99,5.75
					c-1.72,8.54,0.67,11.88,3.03,18.85c0.09,0.5,0.78,2.12,1.51,3.67c9.03,9.77,26.23,9.57,39.17,4.32
					c14.37-5.83,27.06-16.08,42.29-18.96C465.86,324.13,468.39,311.15,463.33,303.51z M367.16,306.7c0.14-1.17-0.47-2.33-0.88-3.4
					c-1.6-3.87-4.15-6.74-7.09-9.73C362.91,296.65,367.8,301.47,367.16,306.7z M391.36,290.01c6.81,0.88,13.66,2.13,19.66,5.66
					c3.03,1.76,6.4,3.71,7.97,6.98c-3.46-5.81-17-9.56-23.38-11.18c-2.17-0.57-4.33-1.22-6.49-1.82
					C389.87,289.77,390.61,289.89,391.36,290.01z M389.9,337.3c2.57-2.28,0.68-7.15-0.38-9.74c-0.66-1.36-1.47-2.59-2.42-3.81
					c0.93,0.97,1.76,2.03,2.48,3.17C391.2,329.57,393.27,335.27,389.9,337.3z M402.79,332.37c1.62-4.24-3.81-10.02-6.55-11.79
					c-1.56-1.07-3.49-2.1-5.39-3.02c1.04,0.37,2.08,0.75,3.08,1.22c3.72,1.61,6.92,4.44,8.68,8.13
					C403.41,328.54,404.03,330.8,402.79,332.37z M405.86,320.36c-3.62-0.98-7.05-2.52-10.65-3.55c-1.96-0.4-6.13-0.93-8.64-0.75
					c-2.1,0.09-4.4,0.29-6.3,1.37c-0.08,0.05-0.16,0.09-0.24,0.14c0.59-0.57,1.3-1.01,2.03-1.37c7.16-3.15,14.67-1.78,21.11,0.56
					c7.22,2.59,13.57,5.78,18.85,11.25C417.25,323.85,412.21,322.53,405.86,320.36z"/>
			</g>
		</g>
	</g>
	<g id="Layer_31" class="st1">
		<g>
			<path class="st7" d="M350.81,218.52c15.65,22.04,38.38,38.33,62.87,49.75c19.8,9.24,40.81,15.49,62.05,20.73
				c9.38,2.31,16.73,9.6,19.21,18.94l7.59,28.62c4.26-10.27,20.41-12.66,27.45-4.05c-13.89-29.42-43.56-47.69-72.29-62.94
				c-28.74-15.25-59.37-30.21-78.32-56.65"/>
			<path class="st7" d="M423.94,210.5c29.3,31.99,66.53,56.65,107.4,71.17c16.61,5.9,24.16,28.96,14.27,43.54
				c4.43-11.95,21.49-16.87,31.61-9.12c-3.83-23.69-24.19-43.75-47.94-47.22C488.71,262.93,465.44,217.09,423.94,210.5z"/>
			<path class="st6" d="M355.49,251.25c0,0.01,0.01,0.02,0.01,0.02c2.72-3.6,5.3-7.3,7.27-11.35c1.15-2.56,2.09-5.68,2.81-8.85
				c0.27-1.84,0.5-3.68,0.64-5.55c0.12-1.65,0.19-3.31,0.21-4.97c0.02-1.44,0.07-2.91-0.06-4.35c-0.11-1.23-0.38-2.53-1.21-3.49
				c-0.88-1.02-2.26-1.35-3.55-1.47c-1.51-0.14-3.05-0.11-4.57-0.14c-1.66-0.03-3.31-0.06-4.97-0.1c-1.65-0.03-3.29-0.05-4.94-0.09
				c-1.3-0.03-2.59-0.12-3.88-0.2c-5.79-0.04-10.52,0.12-16.6-0.06c-4.69,0-9.34-0.84-12.82-0.96c0.98-0.02-0.37-0.06-0.72-0.02
				c-0.34,0.01-0.65,0.18-0.9,0.39c-0.62,1.05-0.26,1.02-0.17,2.48c0.77,9.32,2.71,18.73,7.41,26.92
				c3.66,6.38,14.68,28.67,18.37,29.54c1.09,0.26,1.15-0.42,1.52-0.94c1.75-3.28,4.84-5.46,7.47-7.98
				C349.8,257.27,352.78,254.37,355.49,251.25z M335.29,265.52c0,0-7.19-11.27-8.92-14.89c-1.9-3.99-7.41-13.24-7.24-13.64
				c0.53-1.24,5.69,7.16,8.86,6.57c4.52-0.85,5.6-28.64,7.53-30c0.04-0.03-3.27,7.76-0.29,39.25
				C335.58,256.5,339.51,271.57,335.29,265.52z M341.26,224.89c-1.3-1.98-3.77-6.09-3.77-6.09s2.15,2.37,4.32,5.59
				c1.28,1.9,3.59,6.31,3.59,6.31S342.84,227.29,341.26,224.89z M342.31,216.52l-0.13-0.13c2.74,1.48,4.82,4.43,5.22,7.31
				C346.1,221.04,344.38,218.62,342.31,216.52z"/>
			<g>
				<g>
					<path class="st6" d="M461.94,215.69c-4.23-2.14-10.2-3.76-15.46-2.03s-9.44,6.41-10.57,11.83c-1.03,5-3.42,9.71-6.83,13.5
						c0,15.04,7.88,29.86,20.34,38.28c3.11-7.25,8.14-13.48,12.63-19.98c4.49-6.49,8.58-13.61,9.38-21.46
						C472.24,227.97,468.99,219.25,461.94,215.69z M448.65,273.82c-0.01,0.35-0.49,0.49-0.74,0.3c-0.59-0.48-1.17-0.97-1.74-1.48
						c-0.14-0.09-0.27-0.21-0.38-0.34c-1.16-1.05-2.27-2.16-3.32-3.32c-5.87-6.51-9.89-14.77-11.42-23.41
						c-0.09-0.5,0.69-0.59,0.78-0.09c0.44,2.39,1.05,4.77,1.87,7.06c2.52,7.11,6.76,13.54,12.26,18.67c0.2-0.03,1.26,1.35,1.96,0.39
						c0.31-0.42,0.86-0.08,0.85,0.36C448.75,272.58,448.66,273.19,448.65,273.82z M444.78,248.77c0.33,2.43,0.72,4.85,1.21,7.25
						c0.67,2.75,1.03,5.71,2.49,8.16c-1.87-2.52-2.72-5.66-3.72-8.6c-2.5-7.57-2.41-14.26-2.41-22.13c0.02-0.73-0.41-0.68-0.65-0.55
						c-1.84,0.98-2.34,2.77-3.99,5.64c1.93-6.1,4.78-12.07,9.48-16.53c-1.18,1.95-2.76,5.58-3.51,7.21
						c-0.34,0.73-0.58,1.51-0.66,2.31c-0.03,0.3-0.04,0.59-0.01,0.85c0.56,5.33,1,10.68,1.72,15.99c3.93,4.43,7.42,9.32,11.78,13.12
						C451.67,258.22,448.17,253.47,444.78,248.77z M463.92,237.63c-0.21-2.62-0.94-5.17-1.46-7.74c-1.09,3.97-1.59,8.08-2.71,12.04
						c-1.51,5.5-3.73,10.84-6.98,15.55c3.44-9.26,5.16-19.2,9.59-28.08c-0.01-0.05-0.02-0.11-0.03-0.16
						c-0.35-1.67-0.59-3.35-0.84-5.04c-2.54,3.16-4.37,6.84-6.62,10.21c-2.53,4.06-5.67,7.68-8.57,11.48
						c3.77-8,8.22-16.3,15.15-21.98c-0.23-1.51-0.47-3.01-0.82-4.49C461.18,220.69,464.39,232.88,463.92,237.63z"/>
				</g>
			</g>
			<g>
				<path class="st7" d="M447.92,271.6c-0.7,0.95-1.75-0.42-1.96-0.39c-5.5-5.13-9.74-11.56-12.26-18.67
					c-0.81-2.29-1.42-4.67-1.87-7.06c-0.09-0.5-0.87-0.41-0.78,0.09c1.53,8.63,5.55,16.89,11.42,23.41
					c1.05,1.16,2.16,2.27,3.32,3.32c0.11,0.14,0.24,0.25,0.38,0.34c0.57,0.5,1.15,1,1.74,1.48c0.24,0.2,0.73,0.06,0.74-0.3
					c0.01-0.62,0.1-1.24,0.12-1.86C448.79,271.52,448.23,271.18,447.92,271.6z"/>
				<path class="st7" d="M444.72,248.38c-0.72-5.31-1.16-10.67-1.72-15.99c-0.03-0.26-0.02-0.56,0.01-0.85
					c0.09-0.8,0.33-1.57,0.66-2.31c0.75-1.63,2.33-5.26,3.51-7.21c-4.7,4.45-7.55,10.43-9.48,16.53c1.64-2.87,2.15-4.67,3.99-5.64
					c0.24-0.13,0.67-0.19,0.65,0.55c0,7.86-0.1,14.56,2.41,22.13c1,2.94,1.85,6.08,3.72,8.6c-1.45-2.44-1.81-5.4-2.49-8.16
					c-0.49-2.4-0.88-4.82-1.21-7.25c3.39,4.7,6.89,9.45,11.73,12.73C452.14,257.7,448.66,252.81,444.72,248.38z"/>
				<path class="st7" d="M461.45,223.9c-6.93,5.69-11.37,13.99-15.15,21.98c2.9-3.79,6.04-7.41,8.57-11.48
					c2.25-3.36,4.08-7.05,6.62-10.21c0.25,1.68,0.49,3.37,0.84,5.04c0.01,0.05,0.02,0.11,0.03,0.16
					c-4.43,8.88-6.15,18.82-9.59,28.08c3.24-4.71,5.47-10.05,6.98-15.55c1.12-3.96,1.62-8.08,2.71-12.04
					c0.52,2.57,1.25,5.12,1.46,7.74c0.47-4.75-2.74-16.94-3.3-18.22C460.98,220.89,461.22,222.39,461.45,223.9z"/>
			</g>
			<ellipse class="st8" cx="398.01" cy="113.8" rx="62.5" ry="63.75"/>
			<g>
				<path class="st9" d="M432.52,149.96c-0.02-0.02-11.23-0.03-11.33,0c-0.47-0.5-1.42-1.63-1.95-2.1
					c-5.95-4.95-12.78-11.22-13.7-19.47c-0.58-0.06-1.14-0.23-1.64-0.53c-0.19-0.13-0.36-0.29-0.53-0.45
					c0.54,0.4,1.21,0.57,1.88,0.57c1.52,0.02,3.03-0.42,4.14-1.39c0.23-0.24,0.49-0.5,0.68-0.78c-0.46-0.72-0.92-1.47-1.38-2.27
					c-1.79-3.84-2.35-8.13-2.98-12.29c-0.67-4.16,0.35-8.37,1.97-12.2c0.01-0.03,0.03-0.05,0.04-0.07
					c-0.71-0.81-1.42-1.63-2.14-2.46c-2.06-2.49-4.44-4.78-6.22-7.49c-1.42-0.2-2.84-0.44-4.23-0.82c-2.39-0.7-5.63-1.4-6.69-3.93
					c-0.07-0.25-0.11-0.51-0.14-0.78c-3.66,0-8.53,1.07-12.08,3.08c-3.77,1.93-6.42,4.07-8.3,6.6c0.23-0.05,0.45-0.09,0.56-0.09
					c3.48-0.15,7.36,0.44,10.13,2.69c0.43,0.35,0.84,0.91,0.88,1.19c0.06,0.27,0.11,0.58-0.03,0.83c-0.31,0.52-1.63,0.42-2.01,0.25
					c-1.43-0.44-3.35-1.78-4.29-2.12c-1.99-0.86-4.02-1.41-6.23-1.27c-1.98,3.33-2.87,7.31-3.29,12.32
					c-0.38,4.66-0.04,10.01,1.35,14.76c1.11,3.72,3,7.33,4.86,10.96c1.94,3.77,4.9,8.51,9.69,6.86c5.3-1.64,13.28-5.76,17.1-8.41
					c4.09-2.76,8.45-6.13,9.75-11.14c-1.1,5.52-5.77,9.38-10.18,12.42c-3.69,2.54-7.63,4.82-11.8,6.48c0.31,0.86,0.7,1.7,1.13,2.6
					c1.15,2.78,2.28,8.4,2.27,8.41c-0.01,0-5.53,0.22-5.54,0.22l39-0.06c-0.03-0.03-0.06-0.07-0.1-0.1H432.52z M365.69,101.25
					c5.04-1.11,7.85-4.01,11.31,1.68c0.06,0.08,0.11,0.17,0.17,0.25c-0.52-0.52-1.12-1.19-1.69-1.66c-0.73-0.61-1.63-1.06-2.56-1.08
					C370.5,100.65,368.14,101.45,365.69,101.25z M369.64,105.64c-1.51-1.19-1.81-1.81-2.04-2.16c0.27,0.28,0.7,0.75,1.06,1.06
					c0.06,0.05,0.12,0.1,0.18,0.14c0.08-0.27,0.19-0.58,0.3-0.74c1.33-2.55,4.6-2.1,5.3,0.66c0.15,0.68,0.23,1.59-0.07,2.26
					c0.98-0.01,1.94-0.25,2.82-0.81c-1.92,1.99-4.92,0.98-6.31,0.34C370.43,106.19,370.02,105.94,369.64,105.64z M378.41,128.9
					c-0.19,1.28-1.18,2.5-2.44,2.83c-1.67,0.4-3.47-0.81-3.86-2.46c-0.12-0.44-0.19-0.9-0.12-1.35c-0.3-0.1-0.6-0.21-0.89-0.32
					c0.96-0.56,1.93-1.13,2.89-1.69c0.25-0.14,0.5,0.18,0.59,0.45c0.09,0.27,0.29,0.62,0.56,0.52c0.95-0.32,2.02-0.16,2.94,0.23
					c0.93,0.39,1.74,1,2.55,1.6C379.89,128.82,379.15,128.88,378.41,128.9z M381.18,121.46c0.01-0.01,0.01-0.02,0.02-0.03
					c0.15-0.24,0.22-0.52,0.3-0.79c0.04-0.06-0.06,0.64-0.13,0.82c-0.2,0.61-0.68,1.19-1.34,1.3c-0.54,0.06-1.14-0.11-1.61-0.43
					c-0.19,0.32-0.43,0.61-0.74,0.83c-0.48,0.31-1.48,0.03-1.95-0.28c-0.61-0.51-0.58-1.01-0.71-1.77
					c-0.47,0.13-1.03,0.02-1.38-0.31c-0.46-0.43-0.5-1.17-0.22-1.72c0.17-0.35,0.44-0.64,0.73-0.89c-0.43,0.62-0.84,1.42-0.64,1.84
					c0.1,0.39,0.75,0.03,0.98-0.19c0.44-0.41,0.82-0.95,1.12-1.85c1.48-3.69,2.37-6.63,3.63-10.65c0.17-0.53,0.35-1.06,0.53-1.6
					c-0.9,4.35-2.25,8.77-3.76,13c-0.26,1.3-0.36,1.62,0.18,2.4c0.22,0.31,0.92,0.54,1.34,0.23c0.31-0.22,0.34-0.28,0.56-0.7
					c1.23-4.15,3-9.62,4.39-14.26c-0.85,4.36-2.1,8.64-3.13,12.96c-0.1,0.36-0.18,0.73-0.27,1.08
					C378.76,121.75,380.51,122.57,381.18,121.46z M393.78,113.59c-0.12,0.04-0.47,0.13-0.47,0.13c-0.02,0-0.04,0.01-0.06,0.01
					c-2.61,0.6-5.29-0.72-6.39-3.16c-0.25-0.56-0.44-1.03-0.5-1.25c0.29,0.72,0.78,1.25,1.3,1.7c1.03-2.22,4.43-3.03,5.59-0.24
					c0.38,0.85,0.42,1.79,0.22,2.68c0.29-0.03,0.58-0.07,0.87-0.16C394.34,113.35,393.94,113.53,393.78,113.59z M395.48,109.94
					c-1.17-1.23-2.38-2.52-4.06-2.83c-0.93-0.17-1.96,0.01-2.81,0.25c-0.81,0.22-1.67,0.49-2.17,1.2c0.9-1.66,3.12-2.36,4.91-2.24
					c2.26,0.27,3.66,2.22,4.97,3.87c0.63,0.78,1.27,1.54,1.98,2.24C397.47,111.93,396.31,110.8,395.48,109.94z M403.41,110.61
					c-0.81-3.53-3.71-6.32-7.03-7.78c-3.32-1.47-7.02-1.79-10.55-1.91c0.74-1.27,2.31-2.01,3.76-1.78c3.33,0.54,6.77,1.12,9.62,2.95
					S404.17,107.31,403.41,110.61z"/>
				<path class="st9" d="M372.09,128.36c0.25,1.23,1.17,2.03,2.4,2.36c1.45,0.45,3.47-0.08,3.9-1.82c-2.14,0.06-4.3-0.27-6.34-0.97
					C372.05,128.08,372.06,128.23,372.09,128.36z"/>
			</g>
			<g>
				<path class="st10" d="M379.35,119.41c1.03-4.32,2.28-8.6,3.13-12.96c-1.38,4.64-3.15,10.1-4.39,14.26
					c-0.22,0.41-0.25,0.48-0.56,0.7c-0.42,0.3-1.12,0.07-1.34-0.23c-0.53-0.78-0.44-1.11-0.18-2.4c1.51-4.24,2.86-8.65,3.76-13
					c-0.18,0.53-0.35,1.06-0.53,1.6c-1.26,4.03-2.16,6.97-3.63,10.65c-0.29,0.91-0.68,1.44-1.12,1.85
					c-0.23,0.21-0.88,0.58-0.98,0.19c-0.2-0.42,0.21-1.23,0.64-1.84c-0.29,0.25-0.55,0.55-0.73,0.89c-0.28,0.54-0.25,1.29,0.22,1.72
					c0.35,0.32,0.91,0.44,1.38,0.31c0.13,0.76,0.1,1.26,0.71,1.77c0.46,0.31,1.47,0.59,1.95,0.28c0.32-0.22,0.55-0.51,0.74-0.83
					c0.47,0.33,1.06,0.5,1.61,0.43c0.66-0.11,1.14-0.7,1.34-1.3c0.08-0.18,0.17-0.88,0.13-0.82c-0.08,0.27-0.15,0.55-0.3,0.79
					c-0.01,0.01-0.01,0.02-0.02,0.03c-0.67,1.11-2.41,0.29-2.1-0.97C379.16,120.14,379.25,119.77,379.35,119.41z"/>
				<path class="st10" d="M372.11,129.27c0.39,1.64,2.19,2.86,3.86,2.46c1.26-0.32,2.25-1.55,2.44-2.83
					c0.74-0.02,1.48-0.08,2.22-0.2c-0.81-0.6-1.62-1.21-2.55-1.6c-0.93-0.39-1.99-0.55-2.94-0.23c-0.27,0.09-0.47-0.25-0.56-0.52
					c-0.09-0.27-0.34-0.6-0.59-0.45c-0.96,0.56-1.93,1.13-2.89,1.69c0.29,0.12,0.59,0.22,0.89,0.32
					C371.92,128.36,372,128.83,372.11,129.27z M378.38,128.9c-0.43,1.74-2.44,2.27-3.9,1.82c-1.23-0.34-2.14-1.14-2.4-2.36
					c-0.03-0.13-0.05-0.27-0.05-0.42C374.09,128.63,376.24,128.96,378.38,128.9z"/>
				<path class="st10" d="M375.48,101.52c0.57,0.47,1.17,1.14,1.69,1.66c-0.06-0.09-0.11-0.17-0.17-0.25
					c-3.46-5.69-6.27-2.79-11.31-1.68c2.45,0.2,4.82-0.6,7.23-0.81C373.85,100.46,374.75,100.91,375.48,101.52z"/>
				<path class="st10" d="M369.64,105.64c0.38,0.3,0.79,0.55,1.23,0.75c1.39,0.64,4.4,1.65,6.31-0.34c-0.88,0.56-1.84,0.8-2.82,0.81
					c0.3-0.68,0.22-1.58,0.07-2.26c-0.7-2.76-3.96-3.21-5.3-0.66c-0.11,0.17-0.23,0.48-0.3,0.74c-0.06-0.05-0.12-0.09-0.18-0.14
					c-0.37-0.3-0.8-0.78-1.06-1.06C367.83,103.83,368.13,104.45,369.64,105.64z"/>
				<path class="st10" d="M393.25,110.79c-1.15-2.79-4.56-1.99-5.59,0.24c-0.53-0.45-1.01-0.98-1.3-1.7
					c0.05,0.22,0.24,0.68,0.5,1.25c1.1,2.44,3.78,3.76,6.39,3.16c0.02,0,0.04-0.01,0.06-0.01c0,0,0.35-0.09,0.47-0.13
					c0.16-0.05,0.56-0.24,0.56-0.27c-0.28,0.08-0.57,0.13-0.87,0.16C393.67,112.58,393.63,111.64,393.25,110.79z"/>
				<path class="st10" d="M395.48,109.94c0.83,0.85,1.99,1.99,2.83,2.5c-0.71-0.7-1.35-1.47-1.98-2.24
					c-1.31-1.65-2.72-3.6-4.97-3.87c-1.79-0.12-4.02,0.58-4.91,2.24c0.5-0.72,1.36-0.99,2.17-1.2c0.85-0.23,1.88-0.42,2.81-0.25
					C393.1,107.43,394.31,108.71,395.48,109.94z"/>
				<path class="st10" d="M428.56,145.5c-1.03-0.04-1.98-0.66-2.39-1.61c-0.42-0.99-1-1.9-1.82-2.64c-0.97-0.84-2.23-1.29-3.51-1.4
					c-0.87-0.07-1.43-0.99-1.01-1.75c0-0.01,0.01-0.01,0.01-0.01c1.63-3.58,2.8-7.49,2.81-11.44c1.91-3.66,2.97-7.74,3.85-11.75
					c2.2-14.01-1.53-26.67-13.89-34.56c-3.68-2.16-7.74-2.69-12.01-2.84c-2.7,0-5.48-0.08-8.1,0.68c-0.12,0.04-0.23,0.1-0.35,0.14
					c-0.61-0.11-1.24-0.15-1.86-0.17c-4.89,0.09-9.56,1.12-13.83,3.52c-1.82,1.18-3.45,3.23-3.43,5.47
					c-5.89,3.73-8.75,9.07-9.68,16.93c-0.8,6.03-0.53,12.28,1.17,18.13c1.24,4.08,3.23,7.89,5.23,11.64
					c1.79,3.29,4.51,7.74,8.86,6.91c1.89-0.44,3.73-1.04,5.53-1.75c0.4,1.48,1.01,2.9,1.47,4.02c0.32,0.9,0.73,1.99,1.11,3.14
					c0.18,0.56-1.52,1.38-2,1.58c-1.5,0.63-2.17,1.29-2.44,2.39c0.02,0,5.58-0.01,5.59-0.01c0.01-0.01-1.17-5.83-2.32-8.62
					c-0.43-0.9-0.82-1.74-1.13-2.6c4.17-1.67,8.11-3.94,11.8-6.48c4.41-3.04,9.08-6.91,10.18-12.42c-1.3,5.01-5.66,8.38-9.75,11.14
					c-3.82,2.65-11.8,6.77-17.1,8.41c-4.79,1.65-7.75-3.09-9.69-6.86c-1.86-3.63-3.75-7.24-4.86-10.96
					c-1.4-4.75-1.73-10.1-1.35-14.76c0.42-5.01,1.31-8.99,3.29-12.32c2.2-0.15,4.24,0.41,6.23,1.27c0.94,0.34,2.86,1.68,4.29,2.12
					c0.38,0.17,1.7,0.26,2.01-0.25c0.15-0.25,0.1-0.56,0.03-0.83c-0.04-0.28-0.45-0.84-0.88-1.19c-2.77-2.25-6.65-2.84-10.13-2.69
					c-0.11,0-0.33,0.04-0.56,0.09c1.88-2.53,4.53-4.67,8.3-6.6c3.55-2.02,8.42-3.08,12.08-3.08c0.02,0.26,0.06,0.52,0.14,0.78
					c1.05,2.53,4.3,3.22,6.69,3.93c1.39,0.39,2.81,0.62,4.23,0.82c1.78,2.7,4.16,5,6.22,7.49c0.72,0.84,1.43,1.66,2.14,2.46
					c-0.01,0.03-0.03,0.05-0.04,0.07c-1.62,3.83-2.64,8.04-1.97,12.2c0.63,4.16,1.19,8.45,2.98,12.29c0.46,0.8,0.92,1.55,1.38,2.27
					c-0.19,0.28-0.45,0.54-0.68,0.78c-1.11,0.97-2.62,1.42-4.14,1.39c-0.67,0-1.35-0.17-1.88-0.57c0.16,0.17,0.34,0.32,0.53,0.45
					c0.5,0.3,1.06,0.47,1.64,0.53c0.93,8.25,7.75,14.52,13.7,19.47c0.57,0.5,1.62,1.78,2.05,2.2c0.01-0.03,11.21-0.07,11.24-0.05
					C431.87,147.87,430.61,145.58,428.56,145.5z"/>
				<path class="st10" d="M403.41,110.61c0.75-3.29-1.36-6.71-4.2-8.53s-6.28-2.4-9.62-2.95c-1.46-0.24-3.02,0.5-3.76,1.78
					c3.54,0.12,7.24,0.45,10.55,1.91C399.7,104.29,402.6,107.07,403.41,110.61z"/>
			</g>
			<g>
				<path class="st11" d="M362.13,123.75c-0.02,2.81-0.04,5.62-0.06,8.43"/>
				<path class="st11" d="M365.46,127.72c-2.31-0.03-4.62-0.05-6.93-0.04"/>
				<path class="st11" d="M359.88,128.72c0.01-0.74,0.02-1.48,0.03-2.22"/>
				<path class="st11" d="M360.82,124.83c0.83,0.01,1.66,0.02,2.49,0.02"/>
				<path class="st11" d="M364.16,128.64c0-0.66,0.01-1.32,0.01-1.98"/>
			</g>
			<g>
				<path class="st11" d="M312.94,49.5c-0.02,2.81-0.04,5.62-0.06,8.43"/>
				<path class="st11" d="M316.27,53.47c-2.31-0.03-4.62-0.05-6.93-0.04"/>
				<path class="st11" d="M310.69,54.47c0.01-0.74,0.02-1.48,0.03-2.22"/>
				<path class="st11" d="M311.62,50.58c0.83,0.01,1.66,0.02,2.49,0.02"/>
				<path class="st11" d="M314.96,54.39c0-0.66,0.01-1.32,0.01-1.98"/>
			</g>
			<g>
				<path class="st6" d="M325.86,70.24c-0.15-7.79-5.93-14.06-13.05-14.06s-12.9,6.27-13.05,14.06h-0.01v146.14h26.14V70.24H325.86z
					"/>
				<path class="st4" d="M312.81,55.74c-13.64,0-13.07,14.51-13.07,14.51s5.57-2.14,13.07-2.14c7.38,0,13.07,2.62,13.07,2.62
					S326.04,55.74,312.81,55.74z"/>
			</g>
			<g>
				<polygon class="st6" points="342.25,167.42 342.25,151.92 350.85,147.7 361.02,145.67 372.31,147.36 379.58,152.21 
					379.58,167.42 				"/>
				<path class="st12" d="M379.58,152.21v-1.07c0-10.98-8.36-19.88-18.66-19.88c-10.31,0-18.66,8.9-18.66,19.88v1.07
					c4.97-2.65,11.5-4.26,18.66-4.26C368.08,147.95,374.62,149.56,379.58,152.21z"/>
				<path class="st13" d="M361.41,124.84L361.41,124.84C361.41,124.84,361.41,124.84,361.41,124.84L361.41,124.84L361.41,124.84
					l0.01,0.02l0,0.01l0,0c0,0,0,0.01,0,0.01l0,0c0,0.01,0,0.02,0.01,0.02l0.01,0.04l0.01,0.05l0.01,0.05l0.01,0.06l0.01,0.07
					l0.01,0.08l0.01,0.08l0.01,0.08l0.01,0.08l0.01,0.08l0.01,0.08l0.01,0.08l0.01,0.08l0.01,0.08l0.01,0.08l0.01,0.08l0.01,0.08
					l0.01,0.08l0.01,0.08l0.01,0.08l0.01,0.08l0.01,0.08l0.01,0.08l0.01,0.08l0.01,0.08l0.01,0.08l0.01,0.08l0.01,0.08l0.01,0.08
					l0.01,0.08l0.01,0.08l0,0.08l0,0.08l0,0.08l0,0.08l0,0.08l0,0.08l0,0.08l0,0.08l0,0.08l0,0.08l0,0.08l0,0.08l0,0.08l0,0.08
					l0,0.08l0,0.08l0,0.08l0,0.08l0,0.09l0,0.09l0,0.09l0,0.09l0,0.08l0,0.08l0,0.08l0,0.08l0,0.08l0,0.07l0,0.07l0,0.07l0,0.07
					l0,0.07l0,0.07l0,0.07l0,0.06l0,0.06l0,0.06l0,0.06l0,0.06"/>
			</g>
			<path class="st10" d="M362.65,216.38l0.27-48.19l0,0c-6.19-11.43-15.47-14.06-15.47-14.06l-7.86,2.35c0,0-3.11,6.78-6.42,11.96
				l0,0v47.94H362.65z"/>
			<path class="st12" d="M355.92,216.38v-45l0.23-0.63c3.07-8.51,8.88-15.76,16.51-20.62l0,0l83.13-0.18l2.19,2.15
				c5.39,5.35,9.33,11.98,11.45,19.27v0v45H355.92z"/>
			<rect x="358.07" y="171.63" class="st6" width="79.25" height="44.75"/>
			<path class="st6" d="M396.79,176.34c0-5.25,8.12-9.5,8.12-9.5s8.12,4.25,8.12,9.5s-3.64,9.5-8.12,9.5
				C400.43,185.84,396.79,181.59,396.79,176.34z"/>
			<path class="st6" d="M380.11,176.34c0-5.25,8.12-9.5,8.12-9.5s8.12,4.25,8.12,9.5s-3.64,9.5-8.12,9.5
				C383.75,185.84,380.11,181.59,380.11,176.34z"/>
			<path class="st6" d="M363.44,176.34c0-5.25,8.12-9.5,8.12-9.5s8.12,4.25,8.12,9.5s-3.64,9.5-8.12,9.5
				C367.08,185.84,363.44,181.59,363.44,176.34z"/>
			<path class="st6" d="M413.46,176.34c0-5.25,8.12-9.5,8.12-9.5s8.12,4.25,8.12,9.5s-3.64,9.5-8.12,9.5
				S413.46,181.59,413.46,176.34z"/>
			<path class="st12" d="M325.87,216.38v-45.4h0c2.45-4.93,6.07-9.15,10.51-12.26l3.2-2.24l3.67,2.31
				c4.98,3.13,9.29,7.28,12.66,12.19l0,0v45.4H325.87z"/>
			<path class="st6" d="M439.02,216.38l0-45.04l0.15-0.38c3.48-8.43,10.01-14.72,16.61-21.01v0l2.8,2.78
				c5.17,5.18,8.87,11.6,10.84,18.65l0,0v45H439.02z"/>
			<g>
				<path class="st12" d="M451.11,216.38l0-35.73l0.15-0.3c3.26-6.69,8.14-12.73,14.33-17.72l0,0h7.04
					c4.85,4.11,5.14,12.45,6.98,18.05l0,0v35.7H451.11z"/>
				<g>
					<path class="st6" d="M457.36,216.38l0-35.73l0.15-0.3c3.44-6.69,8.59-12.73,15.12-17.72l0,0l4.03,3.24
						c5.11,4.11,8.81,9.21,10.75,14.8v0l0,35.7H457.36z"/>
				</g>
			</g>
			<g>
				<g>
					<path class="st12" d="M378.31,178.44c-0.24-5.22-6.98-9.35-6.98-9.35s-6.73,4.13-6.98,9.35h-0.02v37.94h14v-37.94H378.31z"/>
				</g>
				<g>
					<path class="st12" d="M395.06,178.44c-0.24-5.22-6.98-9.35-6.98-9.35s-6.73,4.13-6.98,9.35h-0.02v37.94h14v-37.94H395.06z"/>
				</g>
				<g>
					<path class="st12" d="M411.81,178.44c-0.24-5.22-6.98-9.35-6.98-9.35s-6.73,4.13-6.98,9.35h-0.02v37.94h14v-37.94H411.81z"/>
				</g>
				<g>
					<path class="st12" d="M428.56,178.44c-0.24-5.22-6.98-9.35-6.98-9.35s-6.73,4.13-6.98,9.35h-0.02v37.94h14v-37.94H428.56z"/>
				</g>
			</g>
			<g>
				<g>
					<path class="st10" d="M378.31,189.88c-0.24-3.64-3.27-6.53-6.98-6.53c-3.71,0-6.73,2.88-6.98,6.53h-0.02v26.5h14v-26.5H378.31z
						"/>
				</g>
				<g>
					<path class="st10" d="M395.06,189.88c-0.24-3.64-3.27-6.53-6.98-6.53c-3.71,0-6.73,2.88-6.98,6.53h-0.02v26.5h14v-26.5H395.06z
						"/>
				</g>
				<g>
					<path class="st10" d="M411.81,189.88c-0.24-3.64-3.27-6.53-6.98-6.53c-3.71,0-6.73,2.88-6.98,6.53h-0.02v26.5h14v-26.5H411.81z
						"/>
				</g>
				<g>
					<path class="st10" d="M428.56,189.88c-0.24-3.64-3.27-6.53-6.98-6.53c-3.71,0-6.73,2.88-6.98,6.53h-0.02v26.5h14v-26.5H428.56z
						"/>
				</g>
			</g>
			<g>
				<g>
					<path class="st10" d="M336.37,188.85c-0.11-3.64-1.41-6.53-3.01-6.53s-2.91,2.88-3.01,6.53h-0.01v26.5h6.05v-26.5H336.37z"/>
				</g>
				<g>
					<path class="st10" d="M343.61,179.44c-0.11-4.94-1.41-8.84-3.01-8.84s-2.91,3.91-3.01,8.84h-0.01v35.91h6.05v-35.91H343.61z"/>
				</g>
				<g>
					<path class="st10" d="M350.84,188.85c-0.11-3.64-1.41-6.53-3.01-6.53s-2.91,2.88-3.01,6.53h-0.01v26.5h6.05v-26.5H350.84z"/>
				</g>
			</g>
			<g>
				<g>
					<path class="st10" d="M468.1,189.88c-0.12-3.64-1.58-6.53-3.38-6.53c-1.79,0-3.26,2.88-3.38,6.53h-0.01v26.5h6.78v-26.5H468.1z
						"/>
				</g>
				<g>
					<path class="st10" d="M476.21,180.48c-0.12-4.94-1.58-8.84-3.38-8.84s-3.26,3.91-3.38,8.84h-0.01v35.91h6.78v-35.91H476.21z"/>
				</g>
				<g>
					<path class="st10" d="M484.32,189.88c-0.12-3.64-1.58-6.53-3.38-6.53c-1.79,0-3.26,2.88-3.38,6.53h-0.01v26.5h6.78v-26.5
						H484.32z"/>
				</g>
			</g>
			<path class="st14" d="M460.18,212.44c1.95,0.09,3.9,0.18,5.85,0.27c1.25,0.06,2.01,1.64,1.54,2.8c-0.47,1.16-1.77,1.8-3.01,1.85
				c-1.25,0.05-2.46-0.37-3.63-0.78"/>
			<path class="st15" d="M453.42,205.27c0.01-1.27,1.09-2.43,2.35-2.54c1.26-0.11,2.53,0.84,2.76,2.09
				c0.67,3.53,1.34,7.06,2.01,10.59c0.23,1.22-0.77,2.52-2,2.61s-2.81-1.05-2.76-2.29"/>
			<path class="st16" d="M449.67,207.93c-0.84-1.06-0.05-2.98,1.18-3.55c1.23-0.57,2.88,0.27,3.15,1.59
				c0.74,3.66,1.49,7.32,2.23,10.98c0.22,1.07-0.72,2.22-1.81,2.22c-1.09,0-2.53-1.09-2.32-2.16"/>
			<path class="st17" d="M445.51,208.11c-0.97-0.75-0.43-2.61,0.58-3.31s2.63-0.12,2.98,1.06c1.14,3.88,2.28,7.75,3.43,11.63
				c0.26,0.89-0.33,1.95-1.24,2.18s-2.39-0.25-2.59-1.16"/>
			<path class="st18" d="M441.31,207.11c0.18-0.73,0.83-1.32,1.58-1.44c0.75-0.12,1.54,0.25,1.94,0.89c2.47,4,4.06,8.55,4.61,13.22
				c0.06,0.54-0.25,1.1-0.73,1.34c-0.49,0.24-1.12,0.13-1.51-0.25C443.39,217.08,440.18,211.61,441.31,207.11z"/>
			<path class="st19" d="M327.71,207.59c-0.37-1.09,0.31-2.58,1.54-2.99c1.22-0.42,2.71,0.57,2.8,1.86
				c0.24,3.31,0.48,6.63,0.72,9.94c0.07,1.01-0.79,2-1.8,2.07c-1.01,0.07-2-0.8-2.06-1.82"/>
			<path class="st19" d="M323.53,207.7c-0.31-1.07,0.71-2.23,1.78-2.55s2.32,0.38,2.63,1.45c1.11,3.85,1.53,7.89,1.24,11.89
				c-0.06,0.79-0.89,1.38-1.68,1.35c-0.79-0.03-1.5-0.55-1.96-1.2c-0.46-0.65-0.7-1.42-0.94-2.18"/>
			<path class="st20" d="M319.11,207.5c-0.42-1,0.16-2.28,1.2-2.66c1.04-0.38,2.35,0.23,2.7,1.26c1.35,3.96,1.86,8.19,1.5,12.34
				c-0.07,0.81-0.73,1.55-1.56,1.72c-0.82,0.17-1.74-0.23-2.15-0.94"/>
			<path class="st20" d="M316.75,216.81c-0.79,0.34-1.44,0.92-2.07,1.5c-0.63,0.58-1.28,1.16-2.05,1.53
				c-0.78,0.36-1.72,0.47-2.48,0.08c-0.76-0.4-1.21-1.4-0.83-2.16c1.25-2.53,3.82-4.36,6.61-4.72"/>
			<path class="st21" d="M321.08,218.44c0.32,0.78-0.4,1.71-1.24,1.81s-1.65-0.45-2.11-1.16c-0.46-0.71-0.71-1.47-0.97-2.28
				c-0.92-2.83-1.08-5.83-1.69-8.69c-0.22-1.04,0.45-2.2,1.47-2.52c1.02-0.32,1.98,0.24,2.39,1.23
				C320.51,210.61,319.7,215.03,321.08,218.44z"/>
		</g>
		<path class="st4" d="M411.21,84.78c-2.93,0.51-5.9,0.82-8.87,0.85c-3.25-0.03-11.8,0.12-12.78-3.54
			c-0.22,1.79,1.66,3.04,3.01,3.85c5.08,2.7,11.29,2.11,16.45-0.04C409.57,85.66,411.67,84.75,411.21,84.78z"/>
		<path class="st4" d="M405.73,82.61c-3.03,0.08-6.74-0.01-9.42-0.36c-1.56-0.32-3.44-0.37-4.69-1.43c0.2,0.54,0.75,0.88,1.21,1.19
			c1.64,1.02,3.53,1.61,5.45,1.81c2.66,0.28,5.3-0.37,7.81-1.2C405.97,82.61,405.85,82.61,405.73,82.61z"/>
		<path class="st4" d="M394.53,79.86c1.46,1.1,3.78,1.36,5.35,1.06C398.11,80.52,396.29,80.34,394.53,79.86z"/>
		<path class="st4" d="M381.45,81.99c-2.08,0.32-4.13,1.09-5.72,2.49c0.1-0.04,0.19-0.08,0.29-0.11c4.03-1.65,8-0.76,11.97-2.98
			C385.86,81.92,383.61,81.6,381.45,81.99z"/>
		<path class="st4" d="M385.27,79.91c-0.68,0.1-3.58,1.02-3.24,1.13c2.34-0.37,5-0.3,7.13-1.56
			C387.92,79.86,386.55,79.66,385.27,79.91z"/>
		<path class="st4" d="M422.09,101.81c-1.09-0.36-2.19-0.72-3.26-1.15c-3.22-1.26-6.45-3.41-9.41-5.43c-2.77-2-5.73-3.78-8.28-6.06
			c4.31,6.74,11.47,12.51,19.77,12.67C421.2,101.84,422.41,101.91,422.09,101.81z"/>
		<path class="st4" d="M414.33,94c-2.96-1.64-6.06-3.04-9.02-4.68c3.88,4.33,10.91,8.28,16.01,7.99
			C418.88,96.45,416.65,95.25,414.33,94z"/>
		<path class="st4" d="M410.52,88.78c2.03,1.69,4.66,2.86,7.2,3.21C415.32,90.67,413.08,89.67,410.52,88.78z"/>
		<path class="st4" d="M414.24,87.67c0.17,0.14,0.4,0.26,0.6,0.31C414.66,87.84,414.46,87.74,414.24,87.67z"/>
		<path class="st4" d="M415.3,127.5c-3.15-4.17-4.53-8.19-5.67-13.27c-1.04-4.63-1.68-8.7-0.66-13.69
			c-5.05,9.28-1.97,22.46,7.03,28.17c0.16,0.12,0.65,0.43,0.58,0.34C416.16,128.56,415.64,127.94,415.3,127.5z"/>
		<path class="st4" d="M419.76,126.75c-0.78-1.08-1.51-2.21-2.11-3.4c-0.63-1.27-1.01-2.28-1.46-3.82c-1.4-5.7-3.2-11.4-3.76-17.16
			c-1.55,7.9-0.09,18.36,6.43,23.74C419.07,126.29,420.03,127.08,419.76,126.75z"/>
		<path class="st4" d="M420.65,116.74c-1.26-3.99-2.31-8.87-3.43-12.48c-0.26,4.93,0.3,10.05,3.02,14.3
			c0.57,0.9,1.16,1.82,1.97,2.53c0.11,0.07,0.23,0.18,0.36,0.15C421.54,120.2,421.2,118.13,420.65,116.74z"/>
		<path class="st4" d="M422.5,106.08c-0.27,1.09,0,2.38,0.43,3.31C422.88,108.23,422.65,107.24,422.5,106.08z"/>
		<path class="st4" d="M416.06,138.5c1.49-0.3,3.24-0.98,3.81-2.52C418.92,137.11,417.35,137.67,416.06,138.5z"/>
		<path class="st4" d="M417.91,134.81c-1.68,1.16-3.37,2.32-5.15,3.33c3.27-0.67,7.01-2.55,7.93-6.01
			C419.94,133.36,418.91,134.11,417.91,134.81z"/>
		<path class="st4" d="M416.27,132.65c-1.47,1.04-2.96,2.33-4.72,2.79c3.81,0.17,8.12-3.59,8.9-6.66
			C419.25,130.33,417.73,131.57,416.27,132.65z"/>
		<path class="st4" d="M423.87,142.14c-2.13-2.74-6.26-1.74-7.53,1.29c1.2-1.17,2.59-1.64,4.23-1.89c0.79-0.21,1.88,0.15,2.71,0.53
			C423.65,142.19,424.53,142.76,423.87,142.14z"/>
		<path class="st4" d="M418.18,144.18c0.72-0.33,1.52-0.4,2.31-0.33c1.6,0.16,3.2,0.22,4.79,0.44
			C423.23,143.1,420.07,142.31,418.18,144.18z"/>
		<path class="st4" d="M420.92,145.84c1.01-0.08,2.12,0.16,3,0.18C423.01,145.51,421.86,145.31,420.92,145.84z"/>
		<path class="st4" d="M423.73,149.4c1.35-1.38,2.98-2.44,4.89-2.99C426.52,146.05,424.4,147.39,423.73,149.4z"/>
		<path class="st4" d="M425.92,149.23c0.66-0.3,1.52-0.71,2.02-1.06C427.16,148.26,426.43,148.64,425.92,149.23z"/>
	</g>
</g>
<g id="Layer_29" class="st0">
	<g class="st1">
		<path class="st22" d="M77.11,203.1c-50.58,0-91.59,40.63-91.59,90.75c0,24.71,9.97,47.1,26.13,63.47
			c4.55-4.26,9.48-8.09,15.23-10.62c9.1-3.99,19.16-4.01,28.83-2.55c4.98,0.75,9.89,1.89,14.78,3.11
			c5.02,1.26,10.07,2.42,15.05,3.85c4.94,1.41,9.82,3.04,14.53,5.11c4.28,1.87,8.32,4.14,12.09,6.9c3.77,2.76,7.24,6.01,10.06,9.73
			c27.75-15.59,46.47-45.12,46.47-78.99C168.7,243.73,127.7,203.1,77.11,203.1z"/>
		<path class="st23" d="M77.11,201.1c-51.61,0-93.59,41.61-93.59,92.75c0,24.4,9.49,47.43,26.71,64.87l1.16,1.17
			c0.4-1.13,0.75-2.28,1-3.45c0.2-0.95,0.35-1.91,0.45-2.88c-0.37,0.32-0.73,0.63-1.11,0.96c-15.63-16.51-24.22-37.98-24.22-60.68
			c0-48.94,40.19-88.75,89.59-88.75s89.59,39.81,89.59,88.75c0,31.1-16.57,60.01-43.38,76.04c0.09,0.24,0.2,0.47,0.29,0.71
			c0.39,1.04,0.74,2.08,1.04,3.14c28.44-16.66,46.05-47.11,46.05-79.89C170.7,242.71,128.72,201.1,77.11,201.1z"/>
	</g>
</g>
<g id="Left_hand" class="st0">
</g>
<g id="Body" class="st0">
	<g id="Layer_43" class="st1">
		<g id="Layer_44">
		</g>
	</g>
</g>
<g id="Scroll" class="st0">
	<g id="Layer_23" class="st1">
	</g>
	<g id="Layer_26" class="st1">
	</g>
</g>
<g id="Right_hand" class="st0">
	<g id="Layer_24" class="st1">
		<g id="Layer_25">
		</g>
	</g>
	<g id="Layer_7" class="st1">
	</g>
	<g id="Layer_4" class="st1">
		<g id="Layer_5">
		</g>
	</g>
</g>
<g id="Head" class="st0">
	<g id="Layer_19" class="st1">
	</g>
	<g id="Layer_42" class="st1">
		<g>
			<path class="st9" d="M94.51,297.91c-0.51,0.35-1.09,0.58-1.68,0.68c-1.42,0.25-3.05-0.22-3.61-1.68
				c-0.55-1.48,0.08-3.07,1.31-3.97c0.27-0.2,0.9-0.51,1.24-0.29c0.36,0.25-0.12,0.71-0.33,0.85c0,0,0,0.01-0.01,0.01
				c-0.02,0.03-0.05,0.05-0.06,0.05c-0.01,0.01-0.02,0.02-0.03,0.03c-0.01,0-0.01,0.01-0.02,0.02c-0.05,0.06-0.09,0.1-0.12,0.15
				c-0.01,0.03-0.03,0.05-0.05,0.07l0,0.01c-0.01,0.01-0.01,0.02-0.02,0.03c-0.01,0.01-0.02,0.02-0.02,0.02
				c-0.07,0.1-0.11,0.25-0.15,0.35c-0.03,0.06-0.04,0.13-0.06,0.2c-0.01,0-0.01,0.01,0,0.02c0,0.01-0.01,0.01-0.01,0.01l0,0.01
				c-0.01,0.04-0.02,0.07-0.02,0.1c-0.05,0.27-0.06,0.55-0.03,0.83c0.03,0.25,0.08,0.43,0.2,0.7c0.06,0.12,0.13,0.25,0.2,0.35
				c0.06,0.09,0.17,0.23,0.21,0.27c0.15,0.14,0.41,0.33,0.65,0.45c0.01,0.01,0.08,0.04,0.12,0.06c0.06,0.02,0.13,0.04,0.19,0.06
				c0.12,0.03,0.24,0.05,0.35,0.07c0.03,0.01,0.06,0.01,0.08,0.02c0,0,0.01,0,0.03,0c0.01,0,0.02,0,0.02,0c0.06,0,0.12,0.01,0.18,0
				c0.07,0,0.14-0.02,0.21-0.02c0.01,0,0.01,0,0.02,0l0.03,0c0.06-0.01,0.12-0.03,0.17-0.04c0.01-0.01,0.02-0.01,0.03-0.01
				c0-0.01,0.01-0.01,0.02-0.01l0.01-0.01c0.01,0,0.02,0,0.04-0.01c0,0,0.01,0,0.02-0.01c0.01,0,0.02,0,0.03-0.01c0,0,0,0,0.01,0
				c0.01,0,0.02-0.01,0.03-0.01c0.01-0.01,0.01-0.01,0.02-0.01c0-0.01,0.01-0.01,0.01-0.01c0.01,0,0.01-0.01,0.02-0.01
				c0-0.01,0.01-0.01,0.01-0.01c0.02-0.03,0.04-0.05,0.07-0.07c-0.54-0.8-0.86-1.82-1.24-2.75c-0.96-2.35-5.27-11.78-6.04-14.2
				c-2.51-7.98,4.94,9.83,8.1,15.66c1.33,2.45,5.04,0.75,4.06-1.85c-1.72-4.58-7.01-17.81-7.02-17.96c0-0.01,0.01-0.02,0.02-0.03
				c2.92-6.28,13.01-9.29,18.59-4.94c-0.42-2.86-0.79-5.72-1.25-8.56c-0.01-0.11,0.02-0.22,0.11-0.33
				c-0.26-0.25-0.52-0.49-0.79-0.72c0.3,0.43,0.53,0.92,0.65,1.48l0,0.01c0.01,0.04,0.01,0.09,0.02,0.13
				c0.1,0.58-1.44,1.34-1.79,0.82c-1.44-2.15-4.62-1.63-6.79-1.29c-2.53,0.41-4.98,1.19-7.27,2.33c-0.05,0.02-0.09,0.04-0.14,0.07
				c-1.01,0.52-2.01,1.06-3.06,1.5c-0.21,0.09-0.91,0.23-0.9-0.19c0.1-4.58,6.47-5.36,9.79-6.2c2.14-0.55,4.53-1.2,6.72-0.55
				c0.35,0.11,0.7,0.24,1.02,0.42c-6.07-4.93-13.37-8.31-21.11-9.67l-0.01,0c-0.09,0.04-0.17,0.07-0.26,0.1
				c-3.39,1.08-7.16,0.8-10.4-0.64c-2.31,4.8-7.42,7.45-12.44,8.71c-0.33,0.39-0.66,0.76-1.01,1.12c-2.5,4.5-4.65,9.17-6.82,13.83
				c0.3,5.76,0.91,11.53,1.17,17.3c5.42,11.5,15.91,19.88,27.94,23.62c0.2-0.81,0.43-1.62,0.7-2.41c1.42-4.2,3.78-8.08,6.91-11.23
				c1-1.02,2.14-2.18,3.53-2.57C94.74,298.09,94.62,298.01,94.51,297.91z M62.16,281.12c-0.4,0.97-0.7,2.42-1.7,2.96
				c-0.08,0.04-0.16,0.08-0.24,0.1c-0.02,0-0.04,0.01-0.05,0.02c-0.03,0.01-0.07,0.02-0.1,0.02c-0.03,0.02-0.05,0.02-0.08,0.02
				c-0.16,0.06-0.3,0.06-0.41,0.03c-0.71-0.24,0.12-2.15,0.26-2.6c0.55-1.81,1.25-3.59,2.17-5.26c0.79-1.42,1.72-2.82,3.05-3.8
				c2.14-1.57,4.84-2.41,7.3-3.32c1.42-0.53,2.85-1.04,4.3-1.5c1.21-0.37,2.59-0.93,3.86-0.92c0.85,0,1.85,0.5,1.71,1.49
				c-0.11,0.85-0.98,1.43-1.68,1.77c-1.33,0.62-2.9,0.91-4.3,1.28c-1.4,0.35-2.8,0.69-4.18,1.09c-2.48,0.74-5.39,1.75-7.19,3.71
				C63.61,277.57,62.87,279.43,62.16,281.12z M84.37,281.47c-2.51,6.62-12.53,9.67-17.95,4.8c-0.11-0.11-0.16-0.22-0.09-0.38
				c1.24-2.72,3.53-4.84,6.24-6.14c0.18-0.13,0.38-0.21,0.58-0.26c0.02-0.01,0.05-0.02,0.07-0.02c3.98-1.72,8.73-1.66,12.34,0.81
				C86.04,280.61,85.05,281.39,84.37,281.47z"/>
		</g>
		<g>
			<path class="st10" d="M115.41,266.55c0.08-0.13,0.11-0.27,0.04-0.4c-2.41-5.34-4.82-11.12-8.9-15.43
				c-1.64-1.74-3.49-3.26-5.4-4.67c-0.79-0.58-1.61-1.21-2.47-1.74l0-0.01c-0.26-0.67-1.6-1.58-2.04-1.93
				c-0.97-0.8-2.02-1.52-3.1-2.16c-2.1-1.21-4.38-2.12-6.73-2.73c-4.38-1.1-8.97-1.09-13.32,0.1c-0.53-0.31-1.15-0.51-1.88-0.56
				c-5.29-0.41-10.89,0.31-15.88,2.1c-5.29,1.91-9.84,4.82-13.81,8.81c-3.86,3.89-7.77,8.91-8.53,14.51
				c-1.96,2.12-2.89,4.83-3.53,7.62c-0.78,3.38-1.02,6.86-0.75,10.33c0.3,3.79,1.34,7.45,2.24,11.13c0,0,0,0,0,0.01
				c-0.05,0.39-0.07,0.77-0.07,1.12c0.02,8.83,4.82,17.86,11.47,23.7c6.08,5.33,14.15,7.85,21.57,6.85
				c3.83,5.79,8.54,11.02,13.94,15.45c0,0.02,0,0.03,0,0.05c0.72,0.54,1.44,1.07,2.18,1.58c4.76,3.29,9.93,6.01,15.36,8
				c2.84,1.04,5.76,1.96,8.75,2.43c1.54,0.24,3.09,0.38,4.63,0.31c0,0,0,0,0,0c1.92-0.78,3.65-2.04,4.94-3.67
				c1.54-1.95,2.3-4.5,3.11-6.81c1.89-5.35,3.22-10.9,3.97-16.52c1.68-12.47,0.54-25.31-3.74-37.16c1.48-3.75,2.76-7.75,2.03-11.82
				C118.96,271.85,117.4,269.06,115.41,266.55z M57.89,310.84c-0.09,0-0.19,0-0.28,0c0.08-0.03,0.16-0.06,0.24-0.1
				C57.86,310.78,57.88,310.81,57.89,310.84z M54.32,302.44c0.69,2.39,1.48,4.71,2.4,6.95c-0.62,0.25-1.39,0.31-2.17,0.14
				c-1.02-0.22-1.8-0.78-2.09-1.49c-0.64-1.57-1.56-3.03-2.54-4.44c-0.08,0.07-0.16,0.13-0.24,0.21c0.03-0.03,0.05-0.05,0.08-0.08
				C50.91,302.6,52.72,301.57,54.32,302.44z M100.12,312.02c-2.65,0.57-5.24-1.25-6.08-3.72c3.23,0.19,6.56-1.23,8.7-3.64
				c0.04,0.02,0.09,0.04,0.13,0.07c-0.01,0.04,0,0.07,0.02,0.11C104.37,307.49,103.32,311.34,100.12,312.02z M94.05,306.89
				c0.08-0.1,0.15-0.21,0.23-0.31c0.68-0.88,1.41-1.68,2.2-2.45c0.53-0.5,1.13-0.94,1.58-1.51c1.2,0.48,2.4,0.99,3.58,1.53
				C99.84,306.45,96.89,307.43,94.05,306.89z M111.84,279.63c0.33,1.45,0.8,2.78,1.41,4.04c-0.01,0.06-0.01,0.12,0.01,0.18
				c1.54,6.16,0.81,12.55-1.15,18.52c-0.64-0.45-1.26-0.87-1.89-1.29c-1.66-1.11-3.39-2.15-5.24-2.93c-1.41-0.6-2.97-1.12-4.53-0.95
				c-0.55,0.06-1.08,0.21-1.55,0.45c1.03-0.87,1.58-2.26,1.19-3.69c-0.2-0.73-0.57-1.44-0.85-2.13c-1.34-3.19-2.69-6.38-4.03-9.57
				c-0.78-1.87-1.58-3.75-2.37-5.63c0.13-0.02,0.27-0.07,0.41-0.14c5.11,4.72,14.93,2.06,17.23-4.45
				C110.85,274.58,111.27,277.13,111.84,279.63z M100.43,275.06c0.9,0.22,1.89,0.1,2.74-0.24c0.98-0.4,1.93-1.09,2.33-2.1
				c0.27-0.67,0.25-1.39,0.06-2.07c1.15,0.31,2.25,0.84,3.21,1.61c-1.93,5.73-10.24,7.21-14.29,2.79c-0.02-0.02-0.04-0.04-0.06-0.05
				c0.87-1.63,2.24-2.87,3.85-3.66c-0.19,0.8-0.19,1.65,0.22,2.37C98.9,274.42,99.64,274.87,100.43,275.06z M109.07,262.53
				c0.46,2.83,0.83,5.7,1.25,8.56c-5.58-4.36-15.67-1.34-18.59,4.94c0,0.01-0.02,0.02-0.02,0.03c0.01,0.15,5.3,13.37,7.02,17.96
				c0.98,2.61-2.74,4.3-4.06,1.85c-3.16-5.83-10.61-23.64-8.1-15.66c0.76,2.42,5.08,11.84,6.04,14.2c0.38,0.94,0.7,1.95,1.24,2.75
				c-0.03,0.02-0.05,0.04-0.07,0.07c0,0-0.01,0-0.01,0.01c-0.01,0-0.01,0.01-0.02,0.01c0,0-0.01,0-0.01,0.01
				c-0.01,0-0.01,0-0.02,0.01c-0.01,0-0.02,0.01-0.03,0.01c-0.01,0-0.01,0-0.01,0c-0.01,0.01-0.02,0.01-0.03,0.01
				c-0.01,0.01-0.02,0.01-0.02,0.01c-0.02,0.01-0.03,0.01-0.04,0.01l-0.01,0.01c-0.01,0-0.02,0-0.02,0.01c-0.01,0-0.02,0-0.03,0.01
				c-0.05,0-0.11,0.02-0.17,0.04l-0.03,0c-0.01,0-0.01,0-0.02,0c-0.07,0-0.14,0.02-0.21,0.02c-0.06,0-0.12-0.01-0.18,0
				c0,0-0.01,0-0.02,0c-0.02,0-0.03,0-0.03,0c-0.02-0.01-0.05-0.01-0.08-0.02c-0.11-0.02-0.23-0.04-0.35-0.07
				c-0.06-0.02-0.13-0.04-0.19-0.06c-0.04-0.02-0.11-0.05-0.12-0.06c-0.23-0.11-0.5-0.3-0.65-0.45c-0.04-0.04-0.15-0.18-0.21-0.27
				c-0.07-0.11-0.14-0.23-0.2-0.35c-0.12-0.28-0.17-0.45-0.2-0.7c-0.03-0.28-0.02-0.56,0.03-0.83c0-0.03,0.01-0.06,0.02-0.1l0-0.01
				c0,0,0.01,0,0.01-0.01c-0.01-0.01-0.01-0.02,0-0.02c0.02-0.07,0.03-0.14,0.06-0.2c0.04-0.09,0.08-0.24,0.15-0.35
				c0,0,0.01-0.01,0.02-0.02c0.01-0.01,0.01-0.02,0.02-0.03l0-0.01c0.02-0.02,0.04-0.04,0.05-0.07c0.04-0.05,0.08-0.09,0.12-0.15
				c0.01-0.01,0.01-0.02,0.02-0.02c0.01-0.01,0.02-0.02,0.03-0.03c0.01,0,0.04-0.02,0.06-0.05c0.01,0,0.01-0.01,0.01-0.01
				c0.2-0.15,0.69-0.61,0.33-0.85c-0.34-0.23-0.97,0.09-1.24,0.29c-1.23,0.91-1.86,2.49-1.31,3.97c0.56,1.46,2.19,1.94,3.61,1.68
				c0.59-0.1,1.17-0.33,1.68-0.68c0.1,0.1,0.23,0.17,0.35,0.25c-1.4,0.38-2.53,1.55-3.53,2.57c-3.12,3.15-5.49,7.03-6.91,11.23
				c-0.27,0.79-0.5,1.6-0.7,2.41c-12.03-3.74-22.52-12.12-27.94-23.62c-0.26-5.76-0.87-11.54-1.17-17.3
				c2.16-4.66,4.32-9.33,6.82-13.83c0.35-0.36,0.68-0.73,1.01-1.12c5.02-1.26,10.13-3.91,12.44-8.71c3.24,1.45,7.01,1.72,10.4,0.64
				c0.09-0.03,0.17-0.06,0.26-0.1l0.01,0c7.75,1.37,15.04,4.74,21.11,9.67c-0.32-0.18-0.66-0.31-1.02-0.42
				c-2.2-0.66-4.58,0-6.72,0.55c-3.32,0.84-9.7,1.62-9.79,6.2c-0.01,0.42,0.69,0.27,0.9,0.19c1.04-0.44,2.04-0.98,3.06-1.5
				c0.05-0.02,0.09-0.04,0.14-0.07c2.29-1.14,4.74-1.92,7.27-2.33c2.18-0.34,5.35-0.85,6.79,1.29c0.35,0.52,1.89-0.24,1.79-0.82
				c-0.01-0.04-0.01-0.09-0.02-0.13l0-0.01c-0.12-0.56-0.35-1.05-0.65-1.48c0.27,0.23,0.53,0.47,0.79,0.72
				C109.1,262.31,109.06,262.42,109.07,262.53z"/>
		</g>
	</g>
	<g id="Layer_16" class="st1">
		<g id="Layer_17">
			<g>
				<path class="st12" d="M40.2,275.54c-0.31,0.39-0.67,0.84-0.93,1.19c0.34-0.35,0.67-0.7,1.01-1.05
					c4.02-4.26,7.96-8.06,12.71-11.49c3-2.35,6.7-3.86,9.27-6.72c-2.97,2.54-6.84,3.78-9.97,6.13
					C47.58,266.82,43.69,271.07,40.2,275.54z"/>
				<path class="st12" d="M36.84,276.51c-0.14,0.19-0.29,0.39-0.39,0.54c0.43-0.46,0.87-0.93,1.3-1.39
					c5.83-5.95,12.23-11.43,19.16-16.39C48.85,263.12,42.03,269.28,36.84,276.51z"/>
				<path class="st12" d="M37.78,273.44c5.11-4.71,9.95-9.12,15.05-13.72C47.05,263.28,41.94,268.3,37.78,273.44z"/>
				<path class="st12" d="M69.91,253.25c1.81-0.93,3.79-2.15,4.52-4.14c-2.59,5.57-21.98,6.23-28.23,7.74
					c-1.4,0.28-3.03,0.68-4.27,1.05c1.18-0.19,2.36-0.36,3.54-0.48C53.68,256.7,62.31,256.91,69.91,253.25z"/>
				<path class="st12" d="M69.43,251.5c1.68-0.91,3.52-2.07,4.28-3.9c-3.05,4.83-14.71,5.35-20.15,6.69
					c-1.37,0.29-2.85,0.64-4.13,0.99c0.96-0.12,1.91-0.23,2.87-0.32C58.1,254.41,64.14,254.21,69.43,251.5z"/>
				<path class="st12" d="M51.41,253.57c0.39-0.06,0.77-0.13,1.16-0.19c7.24-1.26,15.11-1.66,21.04-6.5
					c-5.95,3.46-12.83,3.62-19.42,5.84C53.27,253,52.3,253.29,51.41,253.57z"/>
				<path class="st12" d="M73.06,244.05c-2.38,1.64-5.16,2.02-7.83,2.88c-5.18,1.33-10.28,2.96-15.24,4.98
					c5.9-1.51,11.98-2.51,17.64-4.82C69.51,246.25,71.57,245.52,73.06,244.05z"/>
				<path class="st12" d="M56.96,248.39c5.09-1.51,10.33-3.22,14.55-6.55C66.88,244.39,61.63,245.99,56.96,248.39z"/>
				<path class="st12" d="M65.1,243.34c1.27-0.47,2.54-1.02,3.63-1.83C67.52,242.08,66.18,242.66,65.1,243.34z"/>
				<path class="st12" d="M77.94,247.44c0.93,1.01,2.78,0.9,3.94,0.85c-0.96-0.17-1.93-0.28-2.9-0.42
					C78.62,247.78,78.19,247.74,77.94,247.44z"/>
				<path class="st12" d="M87.13,244.72c-3.38,0.49-6.89,1.13-10.29,0.57C80.1,246.84,84.01,246.06,87.13,244.72z"/>
				<path class="st12" d="M84,243.99c-2.23-0.3-4.47,0.09-6.7,0.05C79.49,244.69,81.8,244.3,84,243.99z"/>
				<path class="st12" d="M79.8,242.25c-0.77-0.18-1.57-0.24-2.36-0.13C78.21,242.24,79.08,242.34,79.8,242.25z"/>
				<path class="st12" d="M90.35,249.16c4.61,1.71,9.63,3.59,13.63,6.43C100.43,251.89,95.47,249.55,90.35,249.16z"/>
				<path class="st12" d="M94.44,249.07c2.94,1.48,5.96,3.05,8.82,4.6C100.73,251.52,97.72,249.75,94.44,249.07z"/>
				<path class="st12" d="M95.1,247.37c1.67,0.57,3.26,1.58,4.87,2.15C98.55,248.45,96.92,247.5,95.1,247.37z"/>
			</g>
		</g>
	</g>
</g>
<g id="Layer_27" class="st0">
	<g class="st1">
		<g>
			<g>
				<path class="st6" d="M18.15,262.29c0.03,0.43,0,0.85,0.01,1.28c-0.01,0.13-0.03,0.26-0.07,0.39c0.15-0.15,0.3-0.29,0.45-0.44
					c-0.01-0.02-0.66,0-0.71,0c-1.15-0.12-2.31-0.49-3.43-0.74c-2.22-0.49-4.56-1.2-6.83-0.63c-1.86,0.47-3.57,1.81-4.4,3.54
					c-0.96,2.02-0.26,4.06,0.64,5.96c0.83-0.63,1.66-1.25,2.48-1.88c-2.35-4.23-4.18-8.72-5.46-13.39c-0.32-1.16-2.08,0.66-2.3,1.02
					c-0.66,1.08-1.06,2.24-1.25,3.49c-0.09,0.65,0.63,0.6,1.02,0.44c0.61-0.26,1.25-0.88,1.44-1.53c0.62-2.09,1.52-4.07,2.75-5.87
					c0.26-0.38,0.74-1.22,0.09-1.49c-0.59-0.25-1.5,0.58-1.79,1c-1.51,2.21-2.69,4.59-3.46,7.16c0.82-0.36,1.64-0.73,2.46-1.09
					c0.12-0.84,0.4-1.55,0.84-2.28c-0.77,0.34-1.53,0.68-2.3,1.02c1.28,4.67,3.11,9.16,5.46,13.39c0.62,1.11,2.93-0.95,2.48-1.88
					c-0.57-1.2-2.05-4.07-0.34-4.94c1.93-0.99,4.59,0,6.56,0.44c1.81,0.4,4.07,1.33,5.85,0.41c1.82-0.95,2.46-2.83,2.32-4.76
					C20.57,259.44,18.08,261.28,18.15,262.29L18.15,262.29z"/>
			</g>
		</g>
	</g>
	<g class="st1">
		<g>
			<path class="st6" d="M9.45,244.27c0.07-0.3-0.07-0.23,0.21-0.36c0.51-0.24,1.13-0.22,1.67-0.12c1.32,0.24,2.55,0.96,3.72,1.59
				c2.19,1.19,4.32,2.64,5.83,4.65c0.37,0.49,0.71,1.01,0.96,1.57c0.23,0.51,0.63,1.47,0.36,2.04c-0.29,0.61-1.77,0.38-2.35,0.23
				c-2.36-0.6-4.62-2.14-6.38-3.79c-1.97-1.85-3.42-4.14-4.05-6.78c-0.26-1.1-2.73,0.82-2.48,1.88c0.7,2.94,2.42,5.55,4.68,7.54
				c1.15,1.01,2.44,1.86,3.79,2.58c1.46,0.77,3.12,1.49,4.81,1.2c1.71-0.29,3.28-1.43,4.08-2.96c0.87-1.66,0.35-3.37-0.57-4.88
				c-1.67-2.74-4.47-4.51-7.24-5.98c-1.69-0.89-3.51-1.81-5.46-1.34c-1.79,0.43-3.55,1.92-4,3.74c-0.15,0.62,0.16,0.99,0.8,0.8
				C8.49,245.68,9.28,244.94,9.45,244.27L9.45,244.27z"/>
		</g>
	</g>
	<g class="st1">
		<g>
			<path class="st6" d="M31.66,233.96c-1.34-0.8-2.92,0.62-3.52,1.78c-0.73,1.41,0.12,2.54,1.01,3.6c0.41,0.49,0.83,0.99,1.08,1.58
				c0.11,0.26,0.2,0.54,0.22,0.82c0,0.06-0.09,0.68-0.07,0.7c-0.04-0.06,0.22-0.21,0.28-0.29c0.16-0.23,0.1-0.04-0.1-0.04
				c-0.33,0-0.63,0.02-0.96-0.03c-0.64-0.1-1.27-0.29-1.88-0.49c-2.42-0.8-4.61-2.17-6.41-3.98c-0.88-0.89-1.67-1.88-2.33-2.95
				c-0.32-0.52-0.6-1.05-0.79-1.63c-0.09-0.29-0.18-0.59-0.19-0.89c-0.01-0.2,0.18-1.06-0.22-0.23c-0.05,0.1-0.37,0.07,0.06,0.01
				c0.17-0.02,0.33-0.06,0.51-0.07c0.35-0.02,0.69,0.02,1.04,0.08c0.88,0.14,1.79,0.36,2.68,0.21c0.98-0.16,1.83-0.65,2.44-1.44
				c0.42-0.54,0.94-1.66,0.19-2.18c-0.96-0.67-3.1,1.68-2.26,2.26c0.54,0.37,1.55-1.09,0.87-1.15c-0.17-0.02-0.35,0.03-0.53,0.03
				c-0.42-0.01-0.83-0.1-1.24-0.17c-0.66-0.11-1.34-0.22-2.01-0.15c-1.57,0.17-2.98,1.18-3.67,2.6c-1.22,2.47,0.83,5.27,2.39,7.08
				c1.66,1.93,3.77,3.46,6.09,4.49c1.17,0.52,2.44,0.97,3.72,1.11c1.61,0.19,3.08-0.45,4.07-1.76c0.9-1.19,1.14-2.78,0.45-4.13
				c-0.35-0.67-0.81-1.26-1.3-1.83c-0.24-0.29-0.5-0.57-0.68-0.9c-0.07-0.13-0.13-0.26-0.17-0.41c-0.04-0.1-0.05-0.19-0.04-0.3
				c-0.24,0.82-0.57,1.12-0.98,0.93c0.58,0.35,1.28-0.15,1.7-0.57C31.32,235.43,32.21,234.29,31.66,233.96L31.66,233.96z"/>
		</g>
	</g>
	<g class="st1">
		<g>
			<path class="st6" d="M53.89,232.43c0.26,0.33,0.51,0.65,0.77,0.98c0.13,0.11,0.27,0.15,0.44,0.13c4.28-0.67,2.62-6.45,2.03-9.2
				c-0.87-4.12-2.35-8.07-4.32-11.79c-0.2-0.37-0.47-0.34-0.84-0.26c-1.75,0.4-3.56,0.48-5.34,0.26c-0.54,0.83-1.09,1.67-1.63,2.5
				c6.78-1.37,13.48-3.12,20.06-5.27c0.16-0.75,0.32-1.51,0.48-2.26c-1.51,0.75-3.1,1.28-4.75,1.65c-0.58,0.13-2.3,1.68-1.53,2.33
				c1.28,1.08,1.37,2.86,1.73,4.39c0.4,1.71,0.89,3.39,1.48,5.05c1.18,3.33,2.74,6.5,4.59,9.51c0.51,0.83,2.89-1.24,2.26-2.26
				c-1.92-3.12-3.48-6.45-4.64-9.93c-0.56-1.66-1.02-3.36-1.39-5.07c-0.31-1.46-0.57-2.94-1.77-3.95c-0.51,0.78-1.02,1.55-1.53,2.33
				c1.88-0.42,3.66-1.08,5.38-1.93c0.56-0.28,1.23-0.96,1.31-1.61c0.08-0.56-0.26-0.84-0.83-0.65c-6.39,2.08-12.89,3.81-19.48,5.14
				c-0.69,0.14-1.27,0.59-1.64,1.18c-0.17,0.26-0.62,1.24,0.01,1.32c2.18,0.28,4.28,0.15,6.42-0.34c-0.28-0.09-0.56-0.17-0.84-0.26
				c1.54,2.91,2.79,5.97,3.67,9.14c0.43,1.55,0.78,3.12,1.03,4.7c0.14,0.83,0.25,1.66,0.33,2.49c0.03,0.3-0.02,0.71,0.06,0.99
				c-0.08,0.67,0.33,0.36,1.24-0.93c-0.17-0.22-0.34-0.43-0.51-0.65C55.51,229.35,53.17,231.51,53.89,232.43L53.89,232.43z"/>
		</g>
	</g>
	<g class="st1">
		<g>
			<path class="st6" d="M71.6,228.87c0.16,0.12,0.32,0.25,0.48,0.37c0.52,0.4,1.35-0.19,1.7-0.57c1.19-1.31,1.47-2.61,1.51-4.33
				c0.04-1.83,0.07-3.65,0.09-5.48c0.04-3.78,0.03-7.57-0.02-11.35c-0.02-1.45-2.54,0.36-2.52,1.38c0.04,3.26,0.05,6.52,0.03,9.78
				c-0.01,1.57-0.03,3.13-0.06,4.7c-0.01,0.78-0.03,1.57-0.04,2.35c-0.01,0.33,0.07,1.61-0.12,1.82c0.57-0.19,1.13-0.38,1.7-0.57
				c-0.16-0.12-0.32-0.25-0.48-0.37C72.94,225.9,70.77,228.23,71.6,228.87L71.6,228.87z"/>
		</g>
	</g>
	<g class="st1">
		<g>
			<g>
				<path class="st6" d="M80.65,210.73c2.69,0.02,5.39,0.03,8.08,0.05c0.7,0,1.46-0.77,1.75-1.34c0.24-0.48,0.36-1.18-0.37-1.18
					c-2.69-0.02-5.39-0.03-8.08-0.05c-0.7,0-1.46,0.77-1.75,1.34C80.04,210.03,79.92,210.72,80.65,210.73L80.65,210.73z"/>
			</g>
		</g>
		<g>
			<g>
				<path class="st6" d="M84.47,211.35c0.29,3.73,0.58,7.51,1.66,11.11c0.41,1.36,0.88,3.32,2.21,4.08
					c1.56,0.89,3.37-0.28,4.16-1.66c0.26-0.45,0.34-1.19-0.37-1.18c-0.72,0.01-1.43,0.78-1.75,1.35c0.04-0.07,0.73-0.83,0.85-0.75
					c-0.05-0.03-0.28,0.03-0.35,0.02c-0.19-0.02-0.4-0.11-0.56-0.21c-0.46-0.3-0.73-0.82-0.93-1.31c-0.57-1.34-0.97-2.75-1.29-4.17
					c-0.64-2.85-0.88-5.76-1.11-8.67C86.88,208.5,84.39,210.34,84.47,211.35L84.47,211.35z"/>
			</g>
		</g>
		<g>
			<g>
				<path class="st6" d="M85.2,223.24c-0.23,0.59-0.49,1-0.88,1.45c0.14-0.16-0.21,0.21-0.2,0.2c0.01-0.01-0.37,0.33-0.21,0.2
					c-0.22,0.18-0.51,0.45-0.71,0.5c0.22-0.05-0.02-0.03-0.13-0.07c-0.13-0.05-0.24-0.15-0.33-0.26c-0.21-0.23-0.33-0.5-0.45-0.79
					c-0.29-0.74-0.47-1.54-0.51-2.33c-0.08-1.54,0.15-3.14,0.56-4.63c0.09-0.31,0.2-0.61,0.32-0.9c0.01-0.02,0.12-0.26,0.05-0.12
					c0.09-0.19,0.14-0.05-0.03,0c0.48-0.14,0.84-0.26,1.42,0.01c0.94,0.44,3.02-1.95,1.88-2.48c-1.66-0.78-3.6,0.41-4.67,1.64
					c-1.24,1.44-1.61,3.36-1.89,5.19c-0.27,1.78-0.29,3.7,0.35,5.41c0.26,0.7,0.66,1.48,1.42,1.74c0.92,0.32,1.89-0.28,2.63-0.78
					c1.71-1.17,3.04-2.86,3.79-4.78c0.24-0.61-0.22-0.99-0.8-0.8C86.08,221.87,85.47,222.55,85.2,223.24L85.2,223.24z"/>
			</g>
		</g>
	</g>
	<g class="st1">
		<g>
			<g>
				<path class="st6" d="M94.88,228.12c3.29,0.49,4.58-3.71,5.56-6.03c1.38-3.28,2.75-6.57,4.13-9.85c0.1-0.24,0.12-0.8-0.26-0.84
					c-1.55-0.18-3-0.65-4.36-1.4c-0.63,0.83-1.25,1.66-1.88,2.48c5.57,1.87,10.94,4.32,15.99,7.33c0.93,0.55,3.11-1.49,2.26-2.26
					c-0.37-0.33-0.76-0.56-1.22-0.72c-1-0.36-3.02,2.08-1.88,2.48c0.34,0.12,0.57,0.26,0.84,0.5c0.75-0.75,1.51-1.51,2.26-2.26
					c-5.18-3.09-10.65-5.63-16.37-7.55c-0.96-0.32-3.01,1.86-1.88,2.48c1.37,0.75,2.81,1.22,4.36,1.4
					c-0.09-0.28-0.17-0.56-0.26-0.84c-0.98,2.35-1.97,4.69-2.95,7.04c-0.47,1.11-0.93,2.23-1.4,3.34c-0.25,0.59-0.47,1.18-0.74,1.76
					c-0.07,0.16-0.25,0.39-0.29,0.57c-0.03,0.04-0.06,0.08-0.09,0.12c0.34-0.17,0.36-0.24,0.06-0.22c-0.71-0.11-1.39,0.47-1.79,1
					C94.78,226.9,94.17,228.02,94.88,228.12L94.88,228.12z"/>
			</g>
		</g>
		<g>
			<g>
				<path class="st6" d="M109.54,217.82c-1.49,2.75-2.56,5.69-3.63,8.62c-0.54,1.49-1.08,2.98-1.63,4.48
					c-0.21,0.58-0.64,1.34-0.27,1.93c0.35,0.57,1.25,0.96,1.8,1.34c0.97,0.67,3.1-1.69,2.26-2.26c-0.33-0.23-0.66-0.45-0.99-0.68
					c-0.07-0.04-0.73-0.48-0.67-0.36c-0.07,0.17-0.05,0.1,0.07-0.2c0.07-0.19,0.14-0.37,0.2-0.56c0.14-0.37,0.27-0.75,0.41-1.12
					c0.47-1.3,0.94-2.6,1.42-3.9c0.92-2.54,1.86-5.07,3.15-7.44c0.25-0.47,0.34-1.17-0.37-1.18
					C110.59,216.47,109.84,217.27,109.54,217.82L109.54,217.82z"/>
			</g>
		</g>
	</g>
	<g class="st1">
		<g>
			<path class="st6" d="M121.01,223.26c0.81-0.2,1.76,0.21,2.34,0.75c0.84,0.77,0.9,1.76,0.73,2.84c-0.33,2.06-1.13,4.09-2.27,5.83
				c-0.53,0.81-1.14,1.56-1.82,2.24c-0.69,0.69-1.43,1.31-2.48,1.17c-2.46-0.33-2.41-3.58-1.67-5.3c0.95-2.21,2.73-4.14,4.6-5.61
				c0.44-0.35,1.23-1.14,1-1.79c-0.24-0.65-1.15-0.17-1.49,0.09c-2.47,1.95-4.77,4.42-6.14,7.27c-1.12,2.32-1.81,6.41,1.24,7.65
				c3.05,1.24,6.07-2.11,7.72-4.23c1.8-2.3,3.07-5.01,3.68-7.87c0.33-1.56,0.5-3.28-0.75-4.5c-1.05-1.02-2.5-1.3-3.88-0.95
				c-0.69,0.17-1.4,0.93-1.6,1.6C120.02,223.11,120.38,223.41,121.01,223.26L121.01,223.26z"/>
		</g>
	</g>
	<g class="st1">
		<g>
			<path class="st6" d="M129.53,242.16c-1.52-0.4-3.6-1.05-3.66-2.96c-0.05-1.66,1.37-3.24,2.42-4.31c1.02-1.04,2.39-2.47,4.03-2.09
				c1.54,0.35,2.8,1.64,3.06,3.2c0.12,0.7,1.21,0.11,1.49-0.09c0.52-0.39,1.11-1.08,1-1.79c-0.26-1.58-1.42-2.86-2.84-3.52
				c-1.81-0.84-3.67-0.17-5.22,0.9c-1.68,1.16-3.16,2.66-4.38,4.29c-1.17,1.56-2.34,3.49-2.01,5.52c0.34,2.08,2.46,2.88,4.24,3.35
				C128.69,244.92,130.65,242.46,129.53,242.16L129.53,242.16z"/>
		</g>
	</g>
	<g class="st1">
		<g>
			<path class="st6" d="M129.74,251.68c1.01-0.41,2.83-0.79,2.91,0.86c0.06,1.35-0.61,2.66-0.6,4.02c0.01,0.96,0.21,2.37,1.31,2.68
				c1.06,0.3,2.31-0.55,3.19-1.02c4.63-2.48,8.57-6.02,12.3-9.68c0.42-0.41,0.91-1.11,0.57-1.7c-0.7-1.2-1.44-2.37-2.22-3.52
				c-0.7-1.02-1.43-2.37-2.37-3.17c-0.74-0.63-1.68-0.35-2.38,0.2c-0.45,0.36-0.82,0.82-1.09,1.33c-0.1,0.2-0.19,0.41-0.27,0.62
				c-0.07,0.18-0.4,0.68,0.01,0.23c0.54,0.16,1.08,0.32,1.63,0.48c0.26-0.46,0.52-0.92,0.81-1.37c0.14-0.22,0.29-0.44,0.45-0.66
				c0.3-0.4,0.31-0.43,0.02-0.08c-0.31,0.14-0.62,0.28-0.94,0.42c0.38-0.03,0.74,0.71,0.9,0.96c0.35,0.53,0.7,1.07,1.05,1.61
				c0.66,1.01,1.32,2.02,1.99,3.04c1.32,2.02,2.65,4.05,3.97,6.07c0.54,0.83,2.91-1.27,2.26-2.26c-2.1-3.22-4.21-6.43-6.31-9.65
				c-0.73-1.12-1.48-2.88-3.09-2.09c-1.5,0.73-2.46,2.79-3.23,4.18c-0.82,1.46,0.93,1.26,1.63,0.48c0.52-0.58,0.92-1.2,1.18-1.95
				c0.04-0.1,0.08-0.2,0.12-0.3c-1.04,0.4-1.29,0.8-0.76,1.2c0.19,0.41,0.64,0.82,0.9,1.18c1.26,1.7,2.41,3.47,3.48,5.3
				c0.19-0.57,0.38-1.13,0.57-1.7c-3.43,3.37-7.04,6.63-11.34,8.86c-0.44,0.23-1.04,0.71-1.47,0.24c-0.45-0.49-0.36-1.53-0.29-2.13
				c0.13-1.16,0.61-2.31,0.55-3.49c-0.14-2.54-2.91-2.32-4.63-1.63c-0.68,0.28-1.39,0.87-1.6,1.6
				C128.78,251.46,129.1,251.94,129.74,251.68L129.74,251.68z"/>
		</g>
	</g>
	<g class="st1">
		<g>
			<path class="st6" d="M154.36,262.86c0.71,0.37,0.98,1.5,0.61,2.18c-0.46,0.84-1.54,1.54-2.28,2.12
				c-1.81,1.43-3.87,2.69-6.18,3.09c-2.01,0.35-4.73,0.16-4.99-2.39c-0.23-2.23,2.05-3.1,3.76-3.81c2.69-1.11,6.09-2.2,9-1.48
				c1.05,0.26,2.99-2.21,1.88-2.48c-1.79-0.44-3.59-0.24-5.37,0.14c-1.75,0.36-3.46,0.89-5.1,1.59c-2.93,1.26-6.39,3.27-6.69,6.82
				c-0.11,1.32,0.33,2.76,1.47,3.53c1.25,0.84,2.84,0.86,4.29,0.66c3.27-0.45,6.21-2.18,8.73-4.23c1.46-1.19,3.12-2.49,3.86-4.27
				c0.59-1.43,0.37-3.19-1.1-3.97C155.34,259.9,153.24,262.26,154.36,262.86L154.36,262.86z"/>
		</g>
	</g>
</g>
</svg>
