<svg width="588" height="49" viewBox="0 0 588 49" fill="none" xmlns="http://www.w3.org/2000/svg">
<path d="M275.8 16.0873L286.148 21.6266C286.303 19.8175 285.977 18.1821 286.643 17.4513C287.309 16.7204 288.948 16.9447 290.525 16.6879C289.737 14.9801 289.046 13.276 288.181 11.6695C287.316 10.0631 286.26 8.49281 285.134 6.66204C286.368 6.15551 287.667 5.72132 288.847 5.10625C289.535 4.70806 290.148 4.19114 290.656 3.5794C291.097 3.09457 291.325 2.42884 291.741 1.92592C293.138 0.272438 294.712 0.0770607 295.721 1.92592C297.103 4.48393 299.339 5.33781 301.752 6.21701C302.037 6.34038 302.312 6.48553 302.574 6.65119L297.11 16.7096C298.807 16.9194 300.454 16.6517 301.108 17.3319C301.763 18.0121 301.532 19.68 301.713 21.1418C305.465 20.2047 308.641 18.1351 311.843 15.8521C312.097 16.1697 312.313 16.5158 312.487 16.8832C313.254 19.2386 314.217 21.2829 316.663 22.5637C318.439 23.4972 318.7 25.5667 317.234 26.4532C314.387 28.1754 312.922 30.7008 312.136 33.5302L301.778 27.9221C301.564 29.7312 301.832 31.3521 301.141 32.1553C300.533 32.879 298.854 32.6474 297.338 32.879C298.152 34.6229 298.854 36.3343 299.73 37.9443C300.605 39.5544 301.669 41.1066 302.729 42.8107C302.279 43.0648 301.812 43.2896 301.333 43.4837C299.209 44.2073 297.396 45.0503 296.228 47.2899C295.142 49.3957 293.272 49.573 292.273 47.7314C290.826 45.0539 288.46 44.1422 285.934 43.2304C285.714 43.1321 285.506 43.0109 285.312 42.8686C285.272 42.8433 285.265 42.7673 285.312 42.8686L290.703 32.9115C288.984 32.6438 287.331 32.8645 286.705 32.1626C286.079 31.4607 286.31 29.7927 286.144 28.302C282.417 29.4707 279.132 31.3594 275.977 33.769C275.689 33.2858 275.433 32.7842 275.21 32.2675C274.486 30.1726 273.705 28.3346 271.418 27.1732C269.208 26.0516 269.117 23.6925 271.208 22.5709C273.661 21.2503 274.58 19.2025 275.391 16.8796C275.474 16.6546 275.573 16.4357 275.688 16.2247C275.742 16.1234 275.84 16.0438 275.8 16.0873Z" fill="#F8E79F"/>
<path d="M253.979 20.3168V29.724L0.932068 28.302L253.979 20.3168Z" fill="#F8E79F"/>
<path d="M333.961 20.376V29.707L587.176 28.2966L333.961 20.376Z" fill="#F8E79F"/>
</svg>
