<svg width="210" height="307" viewBox="0 0 210 307" fill="none" xmlns="http://www.w3.org/2000/svg">
<path d="M21.0417 89.7279C21.0417 86.7289 23.4728 84.2977 26.4718 84.2977H183.528C186.527 84.2977 188.958 86.7289 188.958 89.7278V236.472C188.958 239.471 186.527 241.902 183.528 241.902H26.4718C23.4729 241.902 21.0417 239.471 21.0417 236.472V89.7279Z" fill="#F8E79F"/>
<path d="M68.889 48.6688C68.889 57.1448 61.8157 64.016 53.0904 64.016C44.365 64.016 37.2917 57.1448 37.2917 48.6688C37.2917 40.1927 44.365 33.3215 53.0904 33.3215C61.8157 33.3215 68.889 40.1927 68.889 48.6688Z" fill="#F8E79F"/>
<path d="M170 48.6688C170 57.1448 162.927 64.016 154.202 64.016C145.476 64.016 138.403 57.1448 138.403 48.6688C138.403 40.1927 145.476 33.3215 154.202 33.3215C162.927 33.3215 170 40.1927 170 48.6688Z" fill="#F8E79F"/>
<path fill-rule="evenodd" clip-rule="evenodd" d="M0.694458 32.0833C0.694458 14.3642 15.0587 0 32.7778 0H177.222C194.941 0 209.306 14.3642 209.306 32.0833V274.292C209.306 292.011 194.941 306.375 177.222 306.375H32.7778C15.0586 306.375 0.694458 292.011 0.694458 274.292V32.0833ZM32.7778 10C20.5815 10 10.6945 19.8871 10.6945 32.0833V274.292C10.6945 286.488 20.5815 296.375 32.7778 296.375H177.222C189.419 296.375 199.306 286.488 199.306 274.292V32.0833C199.306 19.887 189.419 10 177.222 10H32.7778Z" fill="#F8E79F"/>
</svg>
