<svg width="30" height="30" viewBox="0 0 49 55" xmlns="http://www.w3.org/2000/svg">
<path fill = "#FFF9DF" d="M47.6026 38.6424L36.8837 33.5798C36.4258 33.3647 35.9169 33.3194 35.4336 33.4507C34.9503 33.5819 34.5187 33.8826 34.2039 34.3075L29.457 40.6991C22.0071 36.8281 16.0116 30.2208 12.499 22.0107L18.2988 16.7794C18.6851 16.4331 18.9585 15.9575 19.0777 15.4247C19.1968 14.8918 19.1552 14.3307 18.9591 13.8262L14.3653 2.01349C14.1501 1.46969 13.7694 1.0257 13.2889 0.758074C12.8085 0.490446 12.2584 0.415956 11.7334 0.547451L1.78011 3.07875C1.27399 3.20754 0.822434 3.52159 0.499134 3.96964C0.175834 4.41768 -0.000116589 4.97326 5.79608e-08 5.5457C5.79608e-08 32.5989 19.897 54.4841 44.407 54.4841C44.9266 54.4844 45.431 54.2906 45.8377 53.9343C46.2445 53.578 46.5296 53.0803 46.6465 52.5223L48.9434 41.5534C49.062 40.972 48.993 40.3633 48.7482 39.832C48.5035 39.3007 48.0984 38.8801 47.6026 38.6424Z" />
</svg>
