<svg width="561" height="550" viewBox="0 0 561 550" fill="none" xmlns="http://www.w3.org/2000/svg">
<ellipse cx="280" cy="274.5" rx="280" ry="274.5" fill="#C2AB4D"/>
<path d="M514.872 275.126C514.872 147.44 409.869 43.8808 280.282 43.8806C150.694 43.8806 45.6909 147.44 45.6909 275.126C45.6911 402.812 150.694 506.37 280.282 506.37C409.869 506.37 514.871 402.812 514.872 275.126ZM518.872 275.126C518.871 405.074 412.024 510.37 280.282 510.37C148.539 510.37 41.6911 405.074 41.6909 275.126C41.6909 145.177 148.539 39.8806 280.282 39.8806C412.024 39.8808 518.872 145.177 518.872 275.126Z" fill="#706444"/>
<path d="M556.376 274.859C556.376 125.503 432.854 4.35897 280.397 4.35889C127.941 4.35889 4.41895 125.503 4.41895 274.859C4.419 424.214 127.941 545.359 280.397 545.359C432.854 545.359 556.376 424.214 556.376 274.859ZM560.376 274.859C560.376 426.498 434.987 549.359 280.397 549.359C125.807 549.359 0.418997 426.498 0.418945 274.859C0.418945 123.219 125.807 0.358887 280.397 0.358887C434.987 0.358971 560.376 123.219 560.376 274.859Z" fill="#706444"/>
<path d="M127.2 296.277H126.853L127.084 296.544L127.2 296.277Z" fill="#706444"/>
<path d="M500.463 301.918C498.186 301.918 495.869 301.918 492.124 301.918L496.718 298.983C502.394 295.172 502.664 291.361 497.684 286.483C497.312 286.016 496.849 285.628 496.323 285.342C495.796 285.055 495.216 284.877 494.618 284.816C494.02 284.756 493.416 284.815 492.842 284.99C492.267 285.165 491.734 285.452 491.275 285.835C488.953 287.905 486.254 289.522 483.321 290.599C485.329 287.588 486.835 285.606 488.032 283.472C488.506 282.834 488.849 282.11 489.04 281.341C489.23 280.572 489.266 279.774 489.144 278.992C489.022 278.209 488.745 277.459 488.329 276.782C487.913 276.106 487.366 275.517 486.719 275.049C482.626 271.733 478.997 271.238 475.909 276.574C473.259 281.418 469.233 285.392 464.326 288.007C464.753 286.559 465.377 285.174 466.179 283.891C468.604 279.823 470.658 275.55 472.318 271.124C474.017 265.978 472.897 263.196 467.994 261.1C463.091 259.004 462.975 258.89 461.817 264.073C459.758 273.623 454.135 282.058 446.065 287.702C445.331 288.236 444.52 289.798 443.053 288.236C447.74 282.367 451.9 276.105 455.485 269.523C456.823 267.321 457.85 264.949 458.535 262.472C459.346 258.661 457.647 256.527 453.632 255.993C452.062 255.698 450.437 255.91 448.998 256.596C447.559 257.282 446.382 258.407 445.64 259.804C444.153 263.032 442.287 266.077 440.08 268.875C439.231 267.465 440.08 266.398 440.312 265.292C441.354 262.108 441.964 258.802 442.127 255.46C441.895 251.648 440.003 249.933 435.949 249.743C431.895 249.552 430.042 250.924 429.54 254.926C429.193 257.67 429.154 260.452 428.614 263.12C427.77 268.505 425.167 273.47 421.201 277.26C422.089 273.448 422.822 270.476 423.324 267.579C424.292 264.18 424.786 260.667 424.791 257.136C424.773 255.331 424.055 253.602 422.783 252.304C421.512 251.007 419.785 250.24 417.958 250.162C415.564 249.895 414.097 250.543 414.097 253.287C414.097 256.031 414.329 259.576 414.097 262.701C413.96 266.943 412.852 271.1 410.854 274.859C410.155 272.771 409.982 270.547 410.352 268.379C410.352 264.873 410.352 261.329 410.082 257.823C410.032 255.823 409.312 253.895 408.033 252.344C406.754 250.792 404.99 249.703 403.017 249.247C401.285 248.698 399.406 248.837 397.777 249.634C396.147 250.431 394.897 251.824 394.291 253.516C387.226 247.113 382.94 247.494 379.543 254.697C377.956 253.171 375.96 252.126 373.79 251.686C372.406 251.417 370.98 251.445 369.608 251.767C368.236 252.089 366.95 252.698 365.837 253.554C363.327 255.574 367.343 257.365 366.262 259.842C365.419 258.005 363.873 256.573 361.963 255.859C360.052 255.144 357.933 255.206 356.069 256.031C355.444 256.205 354.862 256.506 354.362 256.916C353.862 257.325 353.456 257.834 353.168 258.409C352.88 258.984 352.718 259.613 352.693 260.254C352.667 260.894 352.778 261.533 353.019 262.129C351.899 262.129 351.513 261.214 350.934 260.414C349.804 258.654 348.08 257.345 346.067 256.717C344.053 256.089 341.88 256.184 339.931 256.984C337.151 257.822 336.07 259.195 336.804 262.167C338.318 268.062 339.262 274.085 339.622 280.156C339.622 281.338 340.24 282.786 338.348 283.396L334.487 263.196C334.024 260.795 333.136 258.165 330.626 257.975C326.766 257.67 326.766 255.383 326.341 252.83C326.071 250.886 325.8 249.019 325.337 246.999C321.686 229.047 315.376 211.723 306.612 195.586C304.413 192.083 303.045 188.134 302.61 184.036C302.176 179.937 302.686 175.795 304.103 171.918C308.036 159.721 313.21 147.948 319.546 136.779C322.018 132.961 324.051 128.884 325.607 124.621C326.13 123.435 326.403 122.155 326.408 120.861C326.414 119.566 326.152 118.284 325.639 117.093C325.126 115.902 324.372 114.826 323.424 113.932C322.476 113.038 321.354 112.344 320.125 111.892C316.307 110.137 312.226 109.004 308.041 108.538C292.683 106.514 277.145 106.169 261.711 107.509C255.098 107.637 248.561 108.927 242.407 111.32C235.882 114.217 233.759 118.638 236.268 125.193C237.913 129.145 239.862 132.968 242.098 136.627C248.081 147.305 253.02 158.523 256.846 170.127C258.505 174.335 259.152 178.866 258.737 183.363C258.321 187.86 256.855 192.2 254.453 196.043C250.035 203.538 246.462 211.487 243.797 219.749C239.799 230.907 236.777 242.382 234.762 254.049C234.531 255.612 234.762 257.251 232.33 257.403C228.276 257.708 227.118 260.643 226.5 263.882C225.497 269.065 224.647 274.325 223.682 279.546C223.45 280.804 223.682 282.367 221.867 283.129C221.308 280.875 221.308 278.522 221.867 276.269C222.717 271.428 223.45 266.588 224.57 261.786C225.226 259.042 224.3 257.975 221.79 256.984C214.725 254.621 209.358 258.318 209.011 264.911C208.779 269.599 208.316 274.287 208.316 279.013C208.316 280.461 208.972 282.1 207.66 283.434C205.266 282.367 205.729 280.194 205.613 278.365C205.545 274.22 206.144 270.09 207.389 266.131C207.934 264.454 208.233 262.708 208.277 260.948C208.359 260.259 208.292 259.561 208.081 258.899C207.87 258.238 207.52 257.628 207.053 257.11C206.586 256.591 206.014 256.176 205.373 255.892C204.732 255.608 204.038 255.46 203.335 255.46C201.361 255.525 199.403 255.833 197.506 256.374C195.228 256.374 196.502 252.563 193.645 252.22C191.359 251.529 188.955 251.308 186.58 251.572C184.302 252.068 182.95 253.973 180.866 254.659C178.935 247.266 173.877 246.77 166.426 253.478C166.242 252.666 165.892 251.899 165.4 251.224C164.908 250.548 164.282 249.978 163.561 249.547C162.84 249.117 162.038 248.834 161.203 248.717C160.369 248.6 159.519 248.651 158.704 248.866C156.9 249.112 155.218 249.91 153.895 251.147C152.573 252.384 151.676 253.999 151.33 255.764C150.372 259.783 150.124 263.935 150.597 268.036C151.037 270.129 151.128 272.279 150.867 274.401C150.373 274.19 149.936 273.865 149.594 273.454C149.251 273.043 149.013 272.558 148.898 272.038C146.936 266.45 146.263 260.499 146.929 254.621C147.431 250.124 145.732 248.904 141.447 250.391C140.075 250.742 138.859 251.53 137.987 252.632C137.115 253.735 136.635 255.09 136.621 256.489C136.615 259.626 136.938 262.755 137.586 265.826C138.667 268.967 139.202 272.266 139.169 275.583C137.359 274.593 135.983 272.978 135.308 271.047C132.86 266.086 131.605 260.635 131.64 255.117C131.64 250.772 129.401 249.247 125 249.514C120.598 249.781 118.668 251.839 118.822 255.879C119.02 257.833 119.368 259.77 119.865 261.672C120.819 263.828 121.165 266.198 120.868 268.532C119.205 266.466 117.793 264.215 116.66 261.824C115.805 260.278 114.81 258.811 113.687 257.441C112.476 256.397 110.976 255.734 109.38 255.537C107.784 255.34 106.165 255.618 104.73 256.336C102.375 257.632 101.564 260.147 103.032 263.577C105.092 269.314 108.251 274.606 112.336 279.165C112.336 275.926 109.749 274.02 108.475 271.543C107.201 269.065 105.927 266.207 104.615 263.501C103.804 261.634 103.109 259.69 105.464 258.318C106.483 257.642 107.717 257.358 108.933 257.519C110.15 257.681 111.264 258.277 112.066 259.195C113.237 260.789 114.258 262.486 115.116 264.263C119.976 273.348 126.241 281.629 133.686 288.807C134.613 289.684 135.347 291.056 137.547 290.713C134.767 287.55 132.297 284.615 129.826 281.795C127.364 279.216 125.622 276.051 124.768 272.61C123.532 267.655 122.143 262.701 120.907 257.708C120.444 255.65 120.174 253.325 122.876 252.182C126.467 250.657 129.169 252.182 129.169 256.222C129.169 270.323 136.659 280.156 148.01 287.931C140.713 280.308 140.288 270.094 138.126 260.643C137.785 259.604 137.674 258.505 137.801 257.42C137.927 256.335 138.288 255.289 138.86 254.354C139.258 253.659 139.867 253.105 140.601 252.77C141.336 252.435 142.158 252.336 142.952 252.487C144.921 252.944 144.304 254.659 144.188 255.917C143.347 265.8 146.083 275.658 151.909 283.739C152.566 284.729 153.261 285.682 153.994 286.635C154.728 287.588 155.577 288.007 156.542 287.131C157.508 286.254 156.542 285.758 156.195 285.072L155.77 284.082C156.2 284.198 156.639 284.274 157.083 284.31L155.114 282.671C152.191 275.005 151.198 266.752 152.218 258.623C152.604 253.44 155.577 251 159.708 251C162.218 251 163.569 252.334 163.106 254.812C162.642 257.289 161.909 259.766 161.291 262.434C160.254 266.352 160.147 270.454 160.977 274.42C161.807 278.386 163.553 282.11 166.079 285.301C166.774 286.216 167.353 287.359 169.013 287.359C169.824 285.454 168.356 284.082 167.7 282.633C163.839 273.753 165.152 264.911 167.7 255.955C167.991 254.896 168.546 253.926 169.315 253.133C170.084 252.341 171.042 251.752 172.102 251.42C172.939 251.065 173.864 250.966 174.759 251.136C175.654 251.306 176.476 251.736 177.121 252.372C178.279 253.668 177.468 255.078 176.85 256.184C174.201 261.513 173.093 267.461 173.646 273.372C174.001 278.105 175.715 282.639 178.588 286.444C178.935 286.949 179.441 287.326 180.027 287.519C180.613 287.712 181.246 287.709 181.831 287.512C179.477 281.365 178.746 274.729 179.707 268.227C179.735 264.685 180.443 261.181 181.792 257.899C182.364 256.283 183.55 254.951 185.099 254.183C186.648 253.415 188.439 253.271 190.093 253.783C191.83 254.278 192.834 254.964 191.83 257.136C189.185 263.955 188.219 271.296 189.012 278.555C189.012 282.595 189.668 282.862 194.185 284.425C195.537 283.129 194.185 281.833 194.185 280.613C193.434 274.347 193.973 267.995 195.768 261.939C195.951 260.858 196.469 259.86 197.25 259.082C198.031 258.304 199.038 257.784 200.131 257.594C203.49 256.984 205.652 258.699 205.189 262.053C204.725 265.407 203.876 269.027 203.142 272.457C202.616 274.966 202.551 277.548 202.949 280.08C203.683 284.577 204.687 285.339 209.937 286.025C209.937 281.566 209.937 277.107 209.937 272.648C209.995 269.504 210.305 266.369 210.864 263.272C210.971 262.487 211.239 261.73 211.65 261.049C212.061 260.368 212.608 259.777 213.258 259.31C213.907 258.843 214.646 258.512 215.429 258.335C216.212 258.157 217.023 258.139 217.813 258.28C221.057 258.547 221.674 259.576 221.25 262.853C220.362 267.884 219.551 272.915 218.701 278.098C218.17 280.831 218.578 283.661 219.86 286.14C220.083 286.69 220.475 287.158 220.98 287.479C221.485 287.8 222.078 287.958 222.678 287.931C224.338 287.931 224.184 286.406 224.338 285.263C225.419 278.898 226.462 272.496 227.543 266.207C227.639 265.225 227.833 264.255 228.122 263.311C228.701 261.634 229.473 259.499 231.635 259.88C234.376 260.262 233.102 262.663 233.102 264.187C232.64 280.33 234.991 296.432 240.052 311.789C240.555 312.655 240.693 313.681 240.438 314.647C238.953 315.223 237.332 315.369 235.766 315.066C177.854 314.037 120.135 314.685 62.3386 314.152C62.107 314.152 61.9139 314.152 61.7209 314.152C59.4044 313.428 55.3505 316.057 55.0031 312.018C54.9615 309.827 55.7983 307.709 57.3312 306.124C58.8642 304.539 60.9692 303.617 63.188 303.557C65.3501 303.557 67.5507 304.128 69.7127 304.433L83.0712 306.415C81.6813 303.557 78.9015 303.252 76.6622 302.375C72.4732 301.039 68.4362 299.276 64.6165 297.116C60.7557 294.562 60.3696 292.581 63.4197 288.96C65.6589 286.33 66.5083 286.102 69.4039 288.236C74.9764 292.436 81.0594 295.931 87.5111 298.64C89.1326 299.326 90.8314 299.822 92.5688 300.432C93.0707 298.755 91.7966 298.793 91.0244 298.488C83.3028 295.401 78.7471 289.189 74.3844 282.824C73.9183 282.357 73.5709 281.787 73.3707 281.162C73.1704 280.536 73.123 279.873 73.2322 279.226C73.3414 278.58 73.6041 277.967 73.999 277.44C74.3939 276.913 74.9096 276.485 75.504 276.192C78.5926 273.829 80.6389 274.058 82.8395 277.488C88.7596 286.014 97.0818 292.639 106.777 296.544C107.665 296.925 108.514 297.573 109.827 296.925C99.4024 291.437 94.8081 281.681 90.5226 271.848C88.0903 266.245 89.0555 264.721 96.0049 262.205C98.4372 269.828 100.638 277.45 106.738 283.396C112.364 288.797 118.998 293.068 126.274 295.972C121.81 290.125 116.947 284.586 111.718 279.394C112.722 283.396 116.776 285.682 118.436 290.103C112.846 286.927 108.07 282.526 104.476 277.24C100.881 271.954 98.5641 265.924 97.7036 259.614C87.1636 261.862 85.6579 266.626 89.982 275.278C91.0244 277.374 92.0669 279.508 93.1479 281.604C94.2289 283.7 95.2328 285.415 96.3138 287.512C91.2298 284.976 87.0335 280.993 84.268 276.078C83.9116 275.191 83.3318 274.409 82.5835 273.806C81.8352 273.203 80.9433 272.798 79.9921 272.63C79.041 272.462 78.0621 272.536 77.1483 272.846C76.2346 273.156 75.4161 273.691 74.7705 274.401C73.9104 274.825 73.1601 275.438 72.5772 276.193C71.9944 276.947 71.5944 277.824 71.408 278.755C71.2217 279.686 71.2538 280.646 71.5021 281.563C71.7503 282.48 72.208 283.328 72.84 284.043C74.1913 286.254 75.7742 288.274 77.28 290.408C74.5702 289.378 72.0325 287.952 69.7514 286.178C68.5931 285.377 67.3577 284.348 65.8906 284.806C64.3995 285.391 63.062 286.301 61.9787 287.47C60.8954 288.638 60.0945 290.034 59.6361 291.551C58.5165 294.105 60.0993 295.972 61.9525 297.688C63.8057 299.403 66.1608 299.555 67.5507 301.918C64.8481 301.918 62.6475 301.918 60.4468 301.918C58.4249 301.828 56.4283 302.39 54.7573 303.517C53.0863 304.644 51.8312 306.276 51.1809 308.168C47.7062 315.791 49.5593 318.611 58.0917 318.611H112.143C153.685 318.611 195.228 318.916 236.77 317.849C237.504 317.849 238.43 317.582 238.585 318.725C230.547 324.446 223.836 331.791 218.898 340.272C213.961 348.753 210.91 358.175 209.95 367.911C208.989 377.647 210.14 387.473 213.327 396.735C216.513 405.997 221.662 414.483 228.431 421.627C241.121 434.851 258.547 442.652 276.986 443.364C295.425 444.076 313.414 437.643 327.113 425.439C334.119 419.373 339.758 411.924 343.669 403.574C347.579 395.224 349.673 386.158 349.815 376.96C350.432 352.721 340.047 333.398 319.855 318.268H334.449L502.471 318.802C504.269 318.814 506.064 318.673 507.838 318.382C508.443 318.346 509.017 318.108 509.467 317.706C509.916 317.304 510.213 316.763 510.308 316.172C511.312 309.655 507.258 301.499 500.463 301.918ZM164.148 267.198C163.996 266.966 163.891 266.707 163.839 266.436C163.801 266.094 163.801 265.749 163.839 265.407L164.187 266.131C164.071 266.474 164.032 266.817 163.955 267.198H164.148ZM177.545 277.564C176.619 271.886 175.538 266.131 178.626 260.757C179.128 266.436 177.275 271.886 177.352 277.564H177.545ZM192.95 268.265C192.454 267.025 192.351 265.665 192.654 264.365C192.957 263.065 193.653 261.887 194.649 260.986L192.95 268.265ZM383.79 277.221C382.477 271.467 382.94 265.559 381.975 259.69C383.479 262.333 384.417 265.253 384.729 268.269C385.041 271.285 384.721 274.333 383.79 277.221ZM352.903 262.586C353.753 266.969 354.679 271.352 355.374 275.735C355.763 277.165 355.815 278.664 355.527 280.117C355.24 281.57 354.619 282.939 353.714 284.12C352.289 277.027 352.068 269.751 353.058 262.586H352.903ZM237.851 263.349C238.314 249.628 242.6 236.67 246.654 223.75C249.41 214.896 253.152 206.371 257.811 198.33C260.56 193.771 262.2 188.644 262.602 183.354C263.003 178.063 262.157 172.753 260.128 167.84C256.325 157.058 251.597 146.616 245.997 136.627C243.676 132.979 241.649 129.156 239.936 125.193C237.851 119.705 238.932 117.304 244.453 115.017C247.612 113.719 250.938 112.86 254.337 112.464C271.683 110.349 289.227 110.349 306.573 112.464C310.624 112.798 314.564 113.939 318.156 115.818C318.898 116.078 319.576 116.49 320.148 117.025C320.719 117.561 321.17 118.209 321.472 118.927C321.774 119.645 321.92 120.418 321.901 121.195C321.881 121.972 321.697 122.737 321.36 123.44C319.919 127.474 317.973 131.315 315.569 134.874C309.214 145.739 304.038 157.237 300.126 169.174C298.454 173.601 297.788 178.336 298.175 183.045C298.562 187.754 299.992 192.321 302.365 196.424C311.191 212.323 317.432 229.492 320.859 247.304C325.39 269.823 323.176 293.159 314.488 314.457C312.365 319.754 310.01 324.976 307.577 330.121C303.912 337.626 303.025 346.161 305.068 354.246C307.377 362.191 308.355 370.456 307.963 378.713C307.783 385.671 305.038 392.325 300.242 397.426C291.078 405.159 284.463 415.418 281.247 426.887C278.814 425.477 278.853 423.266 278.197 421.513C275.876 414.329 271.697 407.866 266.074 402.762C253.101 391.862 250.128 377.837 254.491 362.668C258.316 349.358 256.694 335.097 249.974 322.956C240.806 304.449 236.655 283.912 237.928 263.349H237.851ZM321.052 324.747C329.097 331.236 335.446 339.538 339.563 348.954C343.681 358.37 345.447 368.625 344.713 378.855C343.978 389.086 340.765 398.992 335.344 407.741C329.922 416.49 322.451 423.825 313.559 429.129C304.667 434.434 294.614 437.552 284.247 438.221C273.879 438.89 263.501 437.092 253.984 432.976C244.468 428.86 236.093 422.548 229.563 414.571C223.033 406.594 218.54 397.185 216.462 387.136C211.829 362.478 219.744 341.821 238.932 325.281C239.975 324.366 241.133 323.604 242.291 322.765C243.449 321.927 244.453 321.927 245.187 323.337C250.322 333.246 255.07 343.155 251.789 354.817C249.681 361.804 248.64 369.061 248.7 376.35C248.574 381.2 249.529 386.018 251.497 390.463C253.465 394.909 256.398 398.873 260.089 402.076C269.986 410.829 276.994 422.314 280.204 435.043C282.212 430.05 284.065 425.172 286.343 420.408C288.779 414.531 292.589 409.308 297.462 405.163C311.284 394.187 313.832 379.78 310.936 363.697C310.473 361.182 309.932 358.667 309.237 356.075C306.712 347.672 307.627 338.627 311.786 330.883C313.253 327.91 314.681 324.899 316.033 322.079C318.696 322.155 319.855 323.68 321.206 324.747H321.052ZM498.919 314.114C456.347 314.266 413.775 314.406 371.203 314.533C356.146 314.533 341.089 314.838 326.032 314.99C324.063 315.265 322.06 315.174 320.125 314.724C319.945 314.369 319.851 313.977 319.851 313.58C319.851 313.183 319.945 312.792 320.125 312.437C325.402 296.929 327.821 280.613 327.267 264.263C327.267 262.739 326.109 260.262 328.696 259.919C331.283 259.576 331.978 261.786 332.364 263.73C333.522 269.904 334.603 276.078 335.645 282.29C335.877 283.434 335.838 284.615 335.993 285.797C336.147 286.978 336.456 287.778 337.614 287.931C338.118 287.983 338.626 287.897 339.082 287.681C339.539 287.466 339.926 287.13 340.201 286.711C341.344 285.086 341.876 283.118 341.707 281.147C341.561 275.64 340.85 270.162 339.583 264.797C339.197 262.587 337.19 259.69 341.359 258.623C342.17 258.359 343.026 258.258 343.877 258.327C344.728 258.396 345.556 258.633 346.313 259.024C347.069 259.415 347.738 259.952 348.28 260.603C348.822 261.255 349.226 262.007 349.467 262.815C349.944 264.723 350.19 266.681 350.201 268.646C350.483 274.529 350.38 280.423 349.892 286.292C356.069 285.339 357.034 284.463 357.613 279.47C357.864 274.319 357.224 269.164 355.722 264.225C355.104 261.748 354.061 259.118 357.691 257.861C361.32 256.603 363.752 258.242 364.794 262.205C366.911 268.333 367.39 274.897 366.184 281.261C366.005 282.218 365.889 283.186 365.837 284.158C370.624 283.281 371.551 282.481 371.705 277.907C372.329 271.026 371.366 264.094 368.887 257.632C367.69 254.85 368.887 254.049 371.203 253.63C372.816 253.306 374.492 253.577 375.916 254.392C377.339 255.206 378.41 256.509 378.925 258.051C380.157 261.372 380.784 264.881 380.778 268.418C381.177 271.744 381.267 275.099 381.049 278.441C381.043 281.487 380.174 284.471 378.539 287.054C380.894 288.312 381.628 287.054 382.4 285.873C384.887 282.064 386.444 277.737 386.946 273.233C387.449 268.728 386.884 264.17 385.295 259.919C384.835 258.617 384.293 257.344 383.674 256.107C383.133 254.85 382.284 253.554 383.481 252.296C384.056 251.73 384.78 251.334 385.572 251.152C386.363 250.97 387.19 251.01 387.959 251.267C389.331 251.613 390.568 252.351 391.516 253.388C392.464 254.425 393.08 255.716 393.287 257.098C395.604 266.207 396.723 275.316 392.09 284.12C391.627 284.996 391.048 285.835 391.511 286.902C393.679 285.499 395.518 283.655 396.903 281.492C398.288 279.329 399.188 276.898 399.542 274.363C400.406 269.7 400.182 264.903 398.885 260.338C398.577 259.423 398.345 258.47 398.075 257.518C397.457 255.269 396.183 252.83 399.233 251.343C400.653 250.881 402.191 250.907 403.594 251.42C404.996 251.932 406.181 252.9 406.955 254.164C407.62 255.337 408.028 256.636 408.151 257.975C409.396 267.851 407.762 277.872 403.441 286.864C406.144 287.931 406.8 286.102 407.611 284.92C413.523 277.381 416.655 268.079 416.491 258.547C416.414 257.774 416.414 256.995 416.491 256.222C416.491 254.812 415.603 252.868 417.842 252.411C420.081 251.953 422.089 253.783 422.475 256.222C422.707 257.776 422.707 259.355 422.475 260.91C421.555 266.942 420.109 272.884 418.151 278.67C417.258 282.193 415.07 285.263 412.012 287.283C413.788 288.541 414.483 287.283 415.217 286.635C424.83 279.013 431.239 269.675 431.432 257.022C431.432 252.563 432.629 251.572 435.949 251.839C439.27 252.106 440.351 253.706 439.578 258.28C437.571 270.361 433.864 281.566 423.788 289.76C423.313 290.024 422.91 290.397 422.614 290.849C422.318 291.3 422.138 291.816 422.089 292.352C424.298 291.431 426.246 289.992 427.764 288.16C434.722 281.354 440.605 273.556 445.215 265.026C445.949 263.615 446.644 262.205 447.493 260.871C447.805 260.181 448.258 259.562 448.824 259.053C449.389 258.543 450.056 258.155 450.781 257.911C451.506 257.668 452.274 257.575 453.037 257.639C453.8 257.702 454.541 257.92 455.215 258.28C458.226 259.995 456.72 262.51 455.871 264.53C452.284 272.852 447.399 280.568 441.393 287.397C437.508 292.5 432.657 296.811 427.108 300.089C427.341 300.288 427.612 300.439 427.905 300.532C428.199 300.625 428.508 300.658 428.815 300.629C429.122 300.601 429.42 300.511 429.69 300.366C429.961 300.221 430.199 300.022 430.39 299.784C435.22 296.295 440.261 293.101 445.485 290.218C453.975 285.172 460.191 277.114 462.859 267.693C463.033 265.923 463.671 264.229 464.712 262.777C470.735 263.997 472.434 265.902 470.388 270.895C467.637 278.955 463.145 286.328 457.222 292.504C455.256 294.198 453.076 295.633 450.736 296.773C452.242 297.802 453.246 296.773 454.288 296.392C463.792 292.525 471.94 285.992 477.723 277.603C479.962 274.134 481.584 273.791 484.518 275.926C487.452 278.06 488.379 279.927 485.985 283.319C481.842 290.218 475.733 295.759 468.419 299.25C471.044 300.355 472.781 298.869 474.48 298.145C480.325 295.538 485.855 292.291 490.966 288.464C494.17 286.101 495.251 286.406 497.722 289.798C500.193 293.19 499.961 294.334 496.757 296.62C493.031 298.949 489.023 300.806 484.827 302.147C481.873 302.827 479.188 304.352 477.106 306.529C483.669 305.577 489.422 304.7 495.213 303.9C496.422 303.608 497.682 303.581 498.903 303.82C500.124 304.06 501.277 304.561 502.282 305.287C503.286 306.013 504.117 306.948 504.717 308.025C505.316 309.102 505.67 310.296 505.753 311.522C505.753 313.275 505.058 314.114 503.282 314.114H498.919ZM368.231 267.274C368.231 266.779 368.81 266.817 368.848 267.274C368.887 267.732 368.848 269.104 368.848 270.018C368.848 270.018 368.848 270.361 368.462 270.857C368.334 270.525 368.243 270.18 368.192 269.828C368.205 268.973 368.269 268.121 368.385 267.274H368.231ZM397.225 267.77C397.225 267.122 397.495 267.084 397.611 267.77C397.688 268.134 397.688 268.51 397.611 268.875C397.611 268.875 397.611 268.875 397.303 268.875C397.29 268.505 397.316 268.135 397.38 267.77H397.225Z" fill="#706444"/>
<path d="M292.79 115.665C288.93 126.565 283.331 164.067 284.528 168.679C288.413 151.197 291.172 133.491 292.79 115.665Z" fill="#706444"/>
<path d="M271.015 161.781C270.258 146.441 267.785 131.231 263.641 116.427C265.881 134.061 268.133 151.732 270.398 169.441C271.002 166.934 271.211 164.35 271.015 161.781Z" fill="#706444"/>
<path d="M298.157 153.853C303.27 143.161 307.405 132.039 310.511 120.62C305.331 131.284 301.194 142.413 298.157 153.853Z" fill="#706444"/>
<path d="M276.536 120.124C275.513 133.902 275.513 147.736 276.536 161.514C277.502 147.734 277.502 133.904 276.536 120.124Z" fill="#706444"/>
<path d="M258.584 143.106C257.762 133.753 254.988 124.67 250.437 116.427C252.468 125.51 255.191 134.428 258.584 143.106Z" fill="#706444"/>
<path d="M289.47 388.47C289.47 389.804 290.204 390.528 291.864 390.604C292.588 390.438 293.242 390.057 293.74 389.511C294.237 388.966 294.552 388.283 294.644 387.555C294.676 387.315 294.648 387.071 294.563 386.844C294.478 386.617 294.338 386.414 294.156 386.253C293.973 386.091 293.753 385.976 293.515 385.917C293.277 385.859 293.028 385.859 292.79 385.917C291.207 386.107 289.586 386.526 289.47 388.47Z" fill="#706444"/>
<path d="M264.954 389.004C266.074 389.004 266.73 388.432 267.116 387.479C267.139 386.998 266.977 386.526 266.661 386.158C266.346 385.791 265.902 385.555 265.417 385.497C265.176 385.46 264.929 385.471 264.692 385.53C264.455 385.589 264.232 385.694 264.038 385.84C263.843 385.986 263.68 386.169 263.559 386.379C263.438 386.589 263.361 386.82 263.332 387.06C263.139 388.203 264.027 388.851 264.954 389.004Z" fill="#706444"/>
</svg>
