<svg width="952" height="1322" viewBox="0 0 952 1322" fill="none" xmlns="http://www.w3.org/2000/svg">
<path d="M419.413 0.566116C319.813 10.4328 238.613 43.6328 164.08 104.966C152.613 114.299 120.88 145.766 109.546 159.099C76.2131 197.899 42.3465 251.766 27.1465 290.433C0.613117 357.366 -5.65355 441.366 8.07978 546.3C9.94645 560.966 17.2798 589.1 23.4131 605.766C45.5465 665.1 93.9465 736.7 153.013 797.1L169.413 813.766L161.68 820.433C145.68 834.3 130.746 849.766 123.546 859.633C101.546 890.3 80.7465 928.7 66.0798 966.433C46.2131 1016.97 21.9465 1095.9 13.4131 1137.77C5.81312 1174.43 -1.52022 1246.57 1.81312 1249.9C5.67978 1253.63 73.8131 1275.1 112.746 1284.97C253.013 1320.17 421.413 1330.17 606.746 1314.3C712.48 1305.37 833.546 1283.9 931.146 1256.83L951.013 1251.37L950.213 1244.57C949.813 1240.83 947.947 1220.03 946.08 1198.43C937.946 1104.7 931.413 1069.5 904.747 978.433C899.947 961.9 899.813 961.1 897.547 899.1C896.213 866.166 895.146 862.033 886.346 859.633C883.546 858.966 868.88 858.166 853.946 857.9L826.613 857.5L821.813 850.299C815.013 840.166 771.813 797.366 762.346 791.5C761.28 790.833 766.213 784.966 776.213 774.833C804.613 746.033 822.347 724.166 843.013 692.433C880.48 635.1 901.013 581.1 909.68 517.1C913.546 488.433 913.813 424.3 910.346 395.766C902.88 336.166 891.547 296.033 870.08 253.1C832.88 178.833 785.013 121.633 723.28 77.6328C669.547 39.2328 600.613 13.6328 522.08 2.96612C508.08 0.966116 432.613 -0.767218 419.413 0.566116ZM476.613 22.8328C476.346 24.5661 476.746 24.8328 477.946 23.7661C478.88 23.0995 480.08 22.8328 480.48 23.3661C481.013 23.7661 481.413 23.4994 481.413 22.6994C481.413 20.6994 518.48 22.4328 530.08 25.0995C533.013 25.7661 537.413 26.4328 539.813 26.4328C542.08 26.4328 544.08 26.9661 544.08 27.6328C544.08 28.9661 551.813 30.6995 559.813 31.0995C568.08 31.4995 569.28 33.2328 565.68 40.0328C562.08 46.8328 554.88 57.3661 550.746 61.7661C547.946 64.6995 547.947 65.7661 548.08 88.5661C548.213 101.766 548.213 125.766 548.213 142.033L548.08 171.766H544.88C543.146 171.766 538.746 170.833 535.28 169.899C514.08 163.499 507.813 162.166 493.68 160.966C485.146 160.299 472.88 159.099 466.613 158.433C449.946 156.699 423.413 159.766 400.08 166.299C375.813 172.966 377.413 172.699 378.213 168.699C378.48 167.099 379.146 142.566 379.68 114.166L380.48 62.6995L375.68 55.4995C373.146 51.6328 367.946 45.6328 364.213 42.0328C360.48 38.5661 357.413 34.9661 357.413 34.0328C357.413 31.8995 372.346 28.2994 388.08 26.4328C393.546 25.8994 400.48 24.6995 403.413 23.8995C406.346 23.0995 411.813 22.4328 415.413 22.4328C419.146 22.4328 423.013 21.7661 424.08 21.0994C425.28 20.2994 436.48 19.8995 451.413 20.1661C474.746 20.4328 476.746 20.5661 476.613 22.8328ZM599.413 40.0328C603.146 41.4995 611.546 44.4328 618.213 46.4328C624.88 48.5661 633.547 51.8995 637.547 53.8995C646.347 58.4328 646.613 58.5661 659.146 63.7661C664.746 66.0328 669.413 68.5661 669.413 69.2328C669.413 69.8995 670.346 70.4328 671.413 70.4328C674.213 70.4328 683.013 74.9661 690.88 80.5661C694.48 83.0994 697.813 85.0995 698.346 85.0995C699.013 85.0995 702.48 87.4995 706.346 90.4328C710.213 93.2328 715.146 96.5661 717.413 97.7661C719.546 98.8328 721.413 100.299 721.413 100.833C721.413 101.499 723.947 103.366 727.013 105.099C730.08 106.833 736.08 111.233 740.213 114.966C744.346 118.699 751.546 124.833 756.213 128.699C760.88 132.566 768.08 139.099 772.08 143.233C776.08 147.366 781.28 152.699 783.547 154.966C785.813 157.233 793.813 166.433 801.28 175.366C808.747 184.433 815.413 191.766 816.213 191.766C816.88 191.766 818.613 194.433 819.946 197.633C821.413 200.833 824.08 204.966 825.946 206.833C827.813 208.699 829.413 210.833 829.413 211.633C829.413 213.633 839.946 229.099 841.413 229.099C842.08 229.099 843.013 230.433 843.413 232.033C845.413 238.966 848.48 243.9 851.813 245.633C854.613 247.1 856.08 249.633 858.747 257.9C860.48 263.766 862.747 269.9 863.547 271.766C864.48 273.633 865.547 277.633 866.08 280.833L867.013 286.566L853.146 300.566C845.68 308.3 838.213 315.233 836.747 316.166C834.88 317.233 819.013 317.633 780.08 317.233C750.346 317.1 724.747 316.566 723.013 316.166C721.013 315.766 718.746 313.1 716.48 308.566C714.613 304.833 711.813 300.3 710.213 298.433C708.613 296.566 704.88 291.233 702.08 286.433C687.813 262.566 662.346 236.033 636.613 218.433C635.013 217.366 630.213 214.033 625.946 210.966C621.546 208.033 615.413 204.166 612.08 202.299C608.747 200.566 603.413 197.233 600.08 195.099C593.68 190.833 577.013 182.433 574.88 182.433C572.48 182.433 564.347 176.966 563.547 174.833C562.747 172.699 562.746 159.366 563.413 105.099C564.08 62.2995 563.546 66.5661 569.28 56.9661C572.08 52.2995 577.013 45.6328 580.213 42.1661C586.746 35.3661 587.146 35.2328 599.413 40.0328ZM345.546 41.8995C347.28 43.7661 350.08 45.8994 351.68 46.5661C353.28 47.0994 355.68 49.6328 356.88 52.0328C358.08 54.4328 361.813 59.8995 365.146 64.1661L371.28 71.8995L369.68 89.4995C368.746 99.2328 367.68 122.033 367.413 140.433C367.013 158.699 366.346 174.833 365.946 176.166C364.613 180.299 362.08 177.766 361.28 171.633C360.613 166.566 359.813 127.499 359.546 83.0995C359.413 66.9661 357.813 62.9661 350.08 58.0328C344.08 54.1661 333.413 42.5661 333.413 39.8995C333.413 36.8328 342.213 38.2995 345.546 41.8995ZM336.48 65.4995L346.746 76.9661L347.946 107.366C349.546 155.099 349.146 183.899 346.746 185.233C345.68 185.766 341.813 187.766 338.08 189.499C325.413 195.366 308.746 204.166 306.746 205.766C305.68 206.699 301.546 209.233 297.813 211.366C293.946 213.499 289.146 216.566 287.146 218.166C274.08 228.699 268.08 233.1 267.013 233.1C265.546 233.1 246.48 250.433 232.746 264.433C221.413 276.033 205.413 296.033 197.013 309.1L193.946 313.766L180.746 314.566C173.413 315.1 150.613 315.5 130.213 315.633C109.68 315.633 89.5465 316.033 85.5465 316.566C79.0131 317.233 77.2798 316.833 71.6798 313.766C68.2131 311.766 64.8798 309.1 64.2131 307.9C63.4131 306.566 60.4798 302.7 57.5465 299.1C54.4798 295.5 52.0798 291.5 52.0798 290.166C52.0798 287.5 68.0798 256.433 73.6798 248.166C75.6798 245.1 77.4131 242.3 77.4131 241.9C77.4131 241.5 80.7465 236.166 84.7465 230.166C96.3465 212.7 97.8131 210.566 102.346 204.699C104.613 201.633 108.613 196.033 111.28 192.433C113.813 188.699 118.613 183.099 121.946 180.033C125.413 176.833 129.813 172.033 131.813 169.366C136.08 163.499 155.546 142.833 164.08 135.099C167.28 132.166 173.946 126.033 178.88 121.366C183.68 116.833 188.346 113.099 189.146 113.099C190.08 113.099 190.746 112.566 190.746 111.899C190.746 111.233 192.48 109.633 194.613 108.166C196.746 106.833 202.213 103.099 206.88 99.7661C217.813 92.0328 239.946 78.2995 249.413 73.4995C253.413 71.4995 257.413 69.0995 258.08 68.1661C258.88 67.2328 264.88 64.4328 271.413 61.8995C278.08 59.3661 288.48 55.0995 294.746 52.4328C301.013 49.7661 308.08 46.9661 310.48 46.4328C313.013 45.7661 315.28 44.9661 315.68 44.5661C316.613 43.7661 319.546 46.8328 336.48 65.4995ZM425.013 198.433C422.48 200.566 419.546 202.433 418.48 202.433C417.413 202.433 415.413 203.766 413.946 205.233C410.48 209.233 397.013 218.166 390.346 221.099C379.546 225.766 354.613 226.166 350.213 221.633C349.146 220.566 347.146 219.766 345.813 219.633C341.28 219.366 349.813 217.366 356.08 217.233C361.546 217.099 367.68 216.033 385.413 211.766C395.813 209.366 411.146 203.499 418.746 198.966C427.946 193.366 430.88 193.233 425.013 198.433ZM507.28 195.766C509.146 196.433 517.413 197.633 525.813 198.299C548.213 200.299 558.48 203.366 550.613 205.766C547.413 206.833 527.146 205.499 519.413 203.766C505.813 200.833 496.08 198.033 496.08 197.233C496.08 194.299 501.546 193.499 507.28 195.766ZM400.08 199.766C400.08 200.433 398.346 201.099 396.213 201.099C393.946 201.099 391.813 201.633 391.413 202.433C390.346 204.033 385.413 204.166 385.413 202.566C385.413 201.366 393.28 198.833 397.813 198.566C399.013 198.433 400.08 198.966 400.08 199.766ZM433.413 204.966C433.413 208.033 415.146 223.366 405.68 228.299C393.813 234.433 377.146 238.966 366.746 238.7C359.813 238.566 336.613 234.433 327.413 231.633C323.413 230.3 322.746 229.766 324.746 229.366C327.946 228.7 350.213 229.9 364.746 231.633C379.013 233.233 387.413 231.633 400.613 224.299C415.413 216.166 415.813 215.899 423.413 209.366C429.813 204.033 433.413 202.433 433.413 204.966ZM375.413 206.433C375.013 207.099 372.08 207.766 369.013 207.633C364.613 207.633 363.946 207.366 366.08 206.433C369.813 204.833 376.48 204.833 375.413 206.433ZM524.08 210.299C533.28 211.633 549.946 213.366 561.013 214.033C579.813 215.099 586.346 216.566 583.68 219.233C582.08 220.833 543.813 219.766 531.413 217.899C516.213 215.499 502.746 211.766 498.613 208.699L495.413 206.433L501.413 206.966C504.746 207.366 514.88 208.833 524.08 210.299ZM491.413 212.433C511.946 221.499 529.413 224.566 569.28 226.433C597.813 227.633 606.213 228.966 608.613 232.966C610.213 235.5 603.28 236.033 573.146 235.366C542.213 234.7 537.28 234.033 514.08 226.833C508.213 224.966 500.346 221.766 496.613 219.633C492.88 217.499 488.613 215.766 487.146 215.766C483.813 215.766 477.146 210.699 478.213 208.966C479.146 207.499 482.08 208.299 491.413 212.433ZM503.146 228.833C513.013 233.499 518.08 235.1 528.746 237.1C533.146 237.9 539.28 239.1 542.48 239.766C545.546 240.566 562.746 241.5 580.48 241.766C613.28 242.566 625.546 244.033 628.346 247.5C629.813 249.1 629.146 249.233 623.413 248.566C619.68 248.033 601.813 247.366 583.413 247.1C547.413 246.433 530.48 244.433 513.68 238.966C501.146 234.833 493.68 231.233 488.746 226.966L484.746 223.633L489.813 224.299C492.613 224.699 498.613 226.699 503.146 228.833ZM460.08 226.299C460.08 229.899 489.546 254.3 494.213 254.433C494.88 254.433 496.88 255.633 498.746 257.1C500.613 258.566 503.546 259.766 505.413 259.766C509.013 259.766 518.08 262.7 519.547 264.166C520.08 264.7 522.747 265.1 525.547 265.1C531.547 265.1 551.146 269.633 561.013 273.366C565.946 275.233 569.146 277.366 571.146 280.433C572.746 282.833 578.746 290.3 584.48 296.833C590.08 303.5 594.746 309.233 594.746 309.766C594.746 310.3 596.613 312.966 598.746 315.766C601.013 318.566 602.746 322.433 602.746 324.433C602.746 326.566 605.413 332.033 608.88 337.233C612.213 342.433 615.813 349.633 616.746 353.233C617.813 356.966 619.546 362.166 620.746 364.566C624.48 372.566 619.813 374.3 612.08 367.766C609.547 365.5 607.013 363.766 606.213 363.766C605.546 363.766 604.347 362.966 603.547 361.9C601.28 359.1 582.747 353.366 565.547 350.3C539.013 345.5 505.946 348.566 495.28 356.566C492.346 358.833 489.013 363.766 485.946 370.3C478.746 385.366 474.613 393.233 471.146 398.3C468.213 402.7 468.08 403.766 468.08 431.1C468.08 446.566 467.68 466.566 467.28 475.233L466.346 491.233L470.613 496.033C476.48 502.7 476.213 507.633 469.813 512.966C464.88 517.1 459.413 518.166 452.613 516.3C446.88 514.833 445.013 504.3 448.746 495.366C450.346 491.366 450.48 488.3 449.413 477.5C448.613 470.3 448.08 450.3 448.346 433.1C448.613 402.966 448.613 401.5 445.546 393.766C437.946 374.433 436.213 369.366 434.213 362.166C431.946 354.433 427.813 349.633 422.213 348.433C381.413 340.166 364.213 340.3 338.08 348.7C332.213 350.566 326.48 353.233 325.413 354.566C322.613 357.766 312.88 360.966 310.213 359.5C308.613 358.566 308.08 358.833 308.08 360.833C308.08 362.166 307.28 364.433 306.213 365.766C301.68 372.033 309.413 375.9 316.213 370.7C317.946 369.366 322.88 366.833 327.013 365.233C331.28 363.5 335.28 361.366 336.08 360.433C339.413 356.433 376.746 354.566 380.346 358.166C381.546 359.366 381.28 359.766 379.013 359.766C377.413 359.766 375.013 360.966 373.813 362.433C372.346 364.166 369.813 365.1 367.013 365.1C361.68 365.1 354.613 367.9 350.88 371.633C349.413 373.1 344.88 376.166 340.88 378.3C336.88 380.433 329.946 384.966 325.546 388.3C321.013 391.766 317.413 394.3 317.413 393.9C317.413 393.366 315.28 395.366 312.746 398.3C310.213 401.1 308.08 404.3 308.08 405.5C308.08 410.033 311.013 408.966 316.88 402.566C325.413 393.1 348.613 381.633 363.013 379.766C379.68 377.766 387.013 380.033 404.746 392.966C409.813 396.7 414.48 399.766 415.013 399.766C416.346 399.766 421.413 409.766 421.413 412.3C421.413 413.366 420.746 414.7 420.08 415.1C418.48 416.033 417.813 415.633 405.28 405.9C377.413 384.3 353.813 385.633 323.546 410.7C319.28 414.3 314.08 417.633 311.946 418.033C309.28 418.566 308.08 419.633 308.08 421.233C308.08 423.366 309.146 423.766 314.213 423.766C321.546 423.766 323.68 424.833 334.48 434.033C339.146 437.9 345.413 442.433 348.48 444.033C356.08 447.9 370.48 448.7 379.813 446.033C387.013 443.9 404.08 432.433 404.08 429.766C404.08 426.966 409.546 424.833 414.746 425.766C421.146 426.833 424.88 431.633 422.746 435.766C421.946 437.233 421.813 438.433 422.48 438.433C423.146 438.433 423.146 441.9 422.613 446.3C421.946 450.7 421.28 467.9 421.013 484.566L420.613 514.833L425.68 519.633C428.48 522.3 430.746 525.233 430.746 526.033C430.746 526.966 428.746 528.566 426.48 529.633C424.08 530.566 419.546 533.9 416.48 536.966C413.413 539.9 410.48 542.433 409.946 542.433C407.813 542.433 393.413 554.3 383.146 564.433C365.146 582.3 360.346 586.433 358.346 586.433C357.413 586.433 354.48 583.9 351.946 580.7C349.546 577.633 344.213 572.166 340.346 568.566C336.48 564.966 331.813 559.1 330.08 555.633C328.213 552.166 326.213 548.966 325.413 548.433C324.746 548.033 324.08 546.7 324.08 545.5C324.08 544.3 323.28 542.7 322.213 541.9C320.613 540.566 313.546 527.233 308.613 516.433C307.68 514.166 306.48 508.966 306.08 504.833C305.546 500.566 304.613 496.833 303.946 496.433C303.28 495.9 302.746 494.3 302.746 492.566C302.746 490.833 301.946 487.766 300.88 485.633C298.346 480.433 293.413 454.166 292.08 438.166C291.413 430.966 290.48 424.433 289.946 423.633C289.146 422.3 291.146 410.433 293.146 405.1C294.346 401.766 294.613 400.7 295.546 395.1C296.08 392.166 297.28 388.033 298.346 386.033C299.68 383.5 299.946 380.433 299.28 376.3C298.746 372.033 299.013 369.633 300.48 367.233C301.68 365.5 302.88 362.3 303.146 360.3C303.413 357.9 304.48 356.566 305.546 356.7C306.613 356.833 308.613 354.566 310.08 351.766C315.413 341.233 325.946 323.1 327.146 322.3C327.813 321.766 327.68 321.1 326.88 320.566C324.48 319.1 325.146 317.366 330.08 311.9C332.613 309.1 335.146 304.833 335.546 302.566C336.08 299.9 338.213 296.966 340.88 294.833C343.413 292.966 345.413 290.7 345.413 289.766C345.413 288.7 347.546 286.166 350.213 284.033C358.613 277.1 371.68 271.633 388.08 268.3C389.946 267.9 392.613 267.1 394.08 266.433C395.546 265.9 401.413 263.766 407.146 261.766C412.746 259.766 419.413 256.7 421.813 254.966C424.08 253.233 427.28 251.233 428.746 250.566C431.413 249.233 435.946 244.966 447.813 232.033C451.813 227.9 455.546 225.099 457.28 225.099C458.746 225.099 460.08 225.633 460.08 226.299ZM335.413 242.566C337.013 243.1 330.213 243.633 319.546 243.633C301.413 243.766 298.08 243.1 307.013 241.233C312.213 240.166 331.68 240.966 335.413 242.566ZM635.146 251.366C634.213 251.633 632.613 251.633 631.813 251.366C630.88 250.966 631.546 250.7 633.413 250.7C635.28 250.7 635.946 250.966 635.146 251.366ZM624.48 255.766C628.613 257.233 633.146 258.433 634.613 258.433C637.013 258.433 641.013 261.9 639.813 263.1C639.547 263.5 635.013 262.833 629.946 261.633C624.88 260.566 618.346 259.366 615.413 258.966C612.48 258.566 609.147 257.9 608.08 257.5C607.013 256.966 604.88 256.833 603.413 256.833C601.946 256.966 601.546 256.7 602.48 256.3C603.28 255.9 603.813 254.966 603.28 254.3C601.947 252.033 616.746 253.1 624.48 255.766ZM290.08 286.433C288.746 287.9 287.413 288.833 287.013 288.433C286.08 287.633 289.413 283.766 291.146 283.766C291.813 283.766 291.413 284.966 290.08 286.433ZM613.146 290.566C614.346 292.966 616.48 295.766 617.813 296.966C619.013 298.033 620.08 299.633 620.08 300.433C620.08 301.233 622.48 304.166 625.28 306.966C628.213 309.766 633.146 317.233 636.213 323.366C639.68 330.3 643.013 335.1 644.746 335.766C647.28 336.7 654.746 346.3 654.746 348.566C654.746 349.1 657.013 351.5 659.813 353.9C662.88 356.7 663.946 358.3 662.746 358.433C660.48 358.433 651.28 348.433 641.813 335.5C638.347 330.966 634.613 326.3 633.413 325.1C632.08 324.033 627.547 317.366 623.28 310.433C619.013 303.5 614.747 297.233 613.813 296.7C612.88 296.166 612.08 294.833 612.08 294.033C612.08 293.1 610.88 291.5 609.413 290.433C606.213 288.166 605.946 286.433 608.746 286.433C609.946 286.433 611.946 288.3 613.146 290.566ZM639.813 306.166C643.28 310.166 647.413 315.366 648.88 317.9C654.08 326.433 676.88 350.566 682.746 353.766C685.146 355.1 695.413 364.566 698.08 368.033C698.88 368.966 703.68 374.833 709.013 381.1C714.213 387.366 719.413 394.7 720.48 397.366C722.48 402.166 722.48 402.433 720.213 402.433C718.88 402.433 716.213 400.433 714.213 397.9C712.346 395.366 699.547 381.9 685.813 367.9C671.947 354.033 657.68 338.833 653.813 334.166C643.947 322.033 625.546 294.033 626.346 292.566C626.88 291.9 628.613 293.1 630.346 295.233C632.08 297.366 636.213 302.3 639.813 306.166ZM871.68 298.166C872.613 298.7 873.68 301.1 874.213 303.233C874.88 306.7 874.346 307.633 871.146 309.766C869.146 311.1 862.346 317.233 856.213 323.5C849.946 329.633 843.147 335.5 841.013 336.7C837.813 338.3 831.413 338.7 805.547 338.566C788.213 338.433 764.213 338.033 752.08 337.633C731.68 337.1 729.946 336.833 727.68 334.166C726.346 332.566 725.413 329.766 725.68 327.9L726.08 324.433L784.613 324.3C836.88 324.166 843.146 323.9 844.213 322.033C845.813 319.366 868.08 297.1 869.28 297.1C869.68 297.1 870.88 297.633 871.68 298.166ZM652.08 307.233C652.08 307.633 651.147 307.366 650.08 306.433C649.013 305.5 648.08 304.166 648.08 303.5C648.08 302.833 649.013 303.1 650.08 304.3C651.147 305.366 652.08 306.7 652.08 307.233ZM274.213 310.433C272.48 312.3 269.546 316.3 267.546 319.366C264.08 324.966 261.413 326.7 261.413 323.366C261.413 322.566 264.48 317.633 268.213 312.566C273.28 305.766 275.28 303.9 276.213 305.233C276.88 306.433 276.213 308.166 274.213 310.433ZM289.146 308.033C287.28 311.233 285.146 313.233 284.346 312.433C284.08 312.166 285.146 310.166 286.88 307.9C290.346 303.233 291.813 303.233 289.146 308.033ZM53.9464 312.433C57.5464 316.433 62.7464 321.233 65.4131 323.1L70.4798 326.566L115.546 324.7C173.146 322.166 187.68 322.033 188.613 323.633C189.146 324.433 188.213 327.233 186.746 330.033C185.28 332.833 184.08 335.766 184.08 336.7C184.08 337.5 183.68 338.433 183.013 338.7C182.48 338.833 179.68 346.3 176.88 355.1C174.08 363.9 171.28 372.566 170.613 374.433C166.613 385.766 161.413 412.166 160.213 426.433C156.08 474.166 155.946 479.1 157.413 488.7C158.213 494.033 158.613 498.966 158.08 499.766C157.546 500.566 138.746 501.1 104.346 501.1C75.2798 501.1 49.1465 501.633 46.3465 502.3C41.4131 503.5 37.8131 506.7 30.0798 516.3C26.2131 521.233 23.2798 520.166 22.2131 513.5C19.0131 492.433 18.6131 442.033 21.2798 413.1C22.2131 403.233 24.3465 387.766 26.2131 378.7C27.9465 369.633 29.4131 361.233 29.4131 360.033C29.4131 358.033 31.9465 348.966 40.3465 321.766C42.4798 314.433 44.6131 307.633 44.8798 306.7C45.6798 303.9 47.2798 304.833 53.9464 312.433ZM257.413 313.9C257.413 314.966 256.746 315.5 256.08 315.1C255.28 314.566 255.013 313.633 255.413 312.966C256.613 311.1 257.413 311.5 257.413 313.9ZM666.88 322.033C670.346 325.633 676.346 331.1 680.346 334.433C688.746 341.5 702.48 355.5 704.213 358.7C704.88 360.033 704.88 361.233 704.213 361.633C702.213 362.966 698.88 360.966 697.946 358.033C697.413 356.433 695.547 354.033 693.547 352.433C688.747 348.7 675.147 336.7 669.013 330.7C664.08 326.033 657.68 315.766 659.547 315.766C660.08 315.766 663.28 318.566 666.88 322.033ZM254.08 318.3C254.48 318.966 254.213 319.9 253.413 320.433C252.746 320.833 252.08 320.3 252.08 319.233C252.08 316.833 252.88 316.433 254.08 318.3ZM882.48 331.766C886.08 343.366 890.08 361.1 892.213 374.033C895.146 392.833 899.146 441.5 899.146 459.1C899.146 471.9 895.813 507.633 893.413 519.766C889.813 538.033 887.68 547.233 886.613 549.366C885.946 550.7 885.413 552.566 885.413 553.633C885.413 558.166 882.08 556.833 874.88 549.5C870.746 545.233 865.546 539.366 863.413 536.433C858.08 529.233 857.813 529.1 849.413 530.033C842.213 530.7 776.346 528.566 753.68 526.966L742.48 526.033L743.28 521.9C746.213 507.1 749.28 467.233 749.28 441.5C749.413 422.833 747.413 405.1 743.547 391.1C742.48 387.366 741.013 380.166 740.08 375.1C739.147 369.9 736.88 361.766 735.146 356.833C733.546 351.9 732.08 346.966 732.08 345.766C732.08 344.033 737.946 343.9 781.146 344.433C808.08 344.833 833.946 345.366 838.613 345.766C845.68 346.3 847.413 345.9 849.28 343.9C854.747 337.5 875.28 320.966 877.146 321.366C878.48 321.633 880.48 325.5 882.48 331.766ZM250.746 323.5C250.746 325.1 247.013 329.9 246.346 329.1C245.28 328.033 247.813 322.433 249.413 322.433C250.08 322.433 250.746 322.966 250.746 323.5ZM244.08 332.033C244.08 332.966 242.213 335.633 240.08 338.033C237.813 340.433 236.08 342.833 236.08 343.366C236.08 344.033 233.946 346.7 231.28 349.233L226.346 353.766L231.28 346.833C233.946 342.966 236.08 339.5 236.08 339.1C236.08 337.633 241.946 330.433 243.013 330.433C243.546 330.433 244.08 331.233 244.08 332.033ZM226.746 355.5C226.746 356.033 223.946 359.233 220.48 362.433L214.213 368.433L219.146 362.566C221.813 359.233 224.08 356.166 224.08 355.5C224.08 354.966 224.746 354.433 225.413 354.433C226.213 354.433 226.746 354.966 226.746 355.5ZM574.08 362.433C592.347 367.9 601.147 371.5 607.813 376.033C611.28 378.433 615.28 380.166 617.013 380.033C619.413 379.9 619.946 380.566 620.346 384.166C620.613 387.233 621.413 388.433 623.146 388.3C625.546 388.033 625.68 389.9 625.813 429.766C625.813 437.766 624.48 456.833 623.413 464.433C623.146 466.566 622.48 472.166 622.08 476.7C621.68 481.233 620.08 488.433 618.613 492.7C617.146 496.966 615.013 504.566 613.946 509.633C612.746 515.633 610.48 520.966 607.68 524.966C605.28 528.3 601.547 535.366 599.547 540.7C597.413 545.9 593.947 552.166 591.813 554.433C589.28 557.366 588.213 559.5 588.746 561.233C589.413 563.366 588.08 564.566 586.213 563.366C585.146 562.7 580.213 570.033 579.547 573.5C579.147 575.5 578.48 578.566 578.08 580.433C576.747 586.7 575.413 585.9 551.28 563.233C545.946 558.166 539.146 552.433 536.213 550.566C533.413 548.7 524.08 542.433 515.547 536.833C507.147 531.1 498.213 525.633 495.946 524.433C492.48 522.566 491.946 521.766 492.746 518.7C493.28 516.7 494.08 514.833 494.746 514.433C498.08 512.433 498.613 505.9 497.146 486.3C495.946 471.766 495.013 465.633 493.546 464.166C492.08 462.566 491.546 458.7 491.546 446.966C491.546 432.166 491.68 431.766 495.146 428.966C497.146 427.5 498.613 425.233 498.48 424.033C497.68 419.633 503.413 422.566 509.946 429.9C514.613 435.1 519.413 438.7 526.88 442.566C537.013 447.633 537.813 447.766 550.88 447.766C563.28 447.766 565.146 447.366 572.746 443.633C577.413 441.366 584.08 436.433 588.213 432.3C594.613 425.766 595.946 425.1 601.013 425.1C610.346 425.1 608.746 421.5 595.146 412.433C573.146 397.9 564.613 394.433 549.28 394.433C535.946 394.433 525.146 398.433 508.08 409.766C505.546 411.5 501.813 413.366 499.813 413.766C496.746 414.566 496.08 414.3 496.08 412.3C496.08 409.9 505.28 401.1 507.68 401.1C508.346 401.1 510.88 399.366 513.413 397.366C521.28 391.1 528.347 387.5 538.08 384.966C554.213 380.7 566.48 382.033 576.746 389.1C579.68 391.1 585.146 394.3 588.746 396.3C592.48 398.166 598.213 401.9 601.813 404.433C607.813 408.966 608.08 408.966 608.08 406.166C608.08 402.433 598.213 393.233 593.146 392.166C591.146 391.766 589.146 390.3 588.613 388.833C588.213 387.366 585.68 385.366 583.146 384.166C580.48 383.1 577.546 381.366 576.48 380.433C575.413 379.366 572.08 377.766 569.013 376.833C565.146 375.766 561.28 372.966 556.48 367.9C552.613 363.766 549.413 360.433 549.413 360.433C549.413 359.633 570.347 361.366 574.08 362.433ZM531.413 363.766C531.946 364.566 530.48 365.1 528.213 365.1C525.946 365.1 524.08 364.433 524.08 363.766C524.08 362.966 525.546 362.433 527.28 362.433C529.146 362.433 531.013 362.966 531.413 363.766ZM710.213 366.033C712.88 369.633 712.346 370.7 709.413 367.766C707.946 366.3 706.746 364.833 706.746 364.433C706.746 362.966 708.48 363.9 710.213 366.033ZM549.413 365.633C549.413 365.9 548.213 366.433 546.746 366.833C545.28 367.233 544.08 366.966 544.08 366.3C544.08 365.633 545.28 365.1 546.746 365.1C548.213 365.1 549.413 365.366 549.413 365.633ZM687.813 379.633C696.08 387.633 702.746 394.833 702.746 395.633C702.746 396.433 704.48 397.9 706.613 398.966C708.613 400.033 711.413 402.966 712.613 405.366C713.946 407.766 716.346 411.766 718.213 414.3C719.946 416.833 721.413 419.633 721.413 420.7C721.413 424.833 716.613 421.233 708.48 411.1C703.813 405.233 696.746 397.1 692.88 393.1C688.88 389.1 685.413 385.1 685.28 384.3C685.013 383.366 681.547 379.366 677.813 375.233C671.147 368.033 669.413 365.1 671.813 365.1C672.48 365.1 679.68 371.633 687.813 379.633ZM385.413 411.233C385.413 411.633 384.746 413.1 384.08 414.566C382.346 417.766 377.946 417.9 376.213 414.7C374.746 412.033 375.68 409.9 378.746 408.833C380.746 408.166 385.413 409.9 385.413 411.233ZM256.88 412.7C255.546 414.033 254.346 412.033 255.546 410.3C256.346 408.833 256.613 408.833 257.146 410.3C257.413 411.233 257.28 412.3 256.88 412.7ZM570.48 412.966C571.146 417.233 567.413 420.166 563.946 418.3C562.48 417.633 561.413 415.9 561.413 414.7C561.413 408.7 569.68 407.233 570.48 412.966ZM340.613 414.033C343.013 418.833 350.213 425.5 355.68 428.3C361.013 430.966 370.746 431.1 376.746 428.433C379.413 427.366 384.746 423.5 388.746 419.633C395.68 413.1 396.346 412.833 399.413 414.433C404.746 417.233 403.68 421.366 395.813 428.433C387.546 435.766 381.146 439.233 372.213 441.233C359.813 443.9 343.946 437.5 333.68 425.766C328.88 420.433 328.346 416.566 331.68 412.833C334.746 409.366 338.346 409.9 340.613 414.033ZM657.547 416.566C658.213 421.5 662.613 437.1 665.68 445.766C667.813 451.766 668.48 457.1 667.28 457.1C665.68 456.966 661.413 447.5 661.413 444.033C661.413 442.566 660.88 440.966 660.346 440.566C659.68 440.166 658.48 436.433 657.547 432.166C656.613 427.9 655.413 422.566 654.613 420.3C652.88 414.566 653.013 410.166 655.146 410.7C655.946 411.1 657.147 413.633 657.547 416.566ZM526.346 421.633C534.08 429.5 544.613 433.9 552.48 432.7C563.146 431.1 570.746 427.9 574.346 423.766C581.946 414.566 582.213 414.566 586.88 418.3C591.013 421.633 589.813 423.633 579.28 432.033C569.813 439.633 561.413 442.433 548.88 442.433C541.28 442.433 537.813 441.633 531.413 438.566C517.413 431.9 507.146 419.9 511.68 415.366C514.346 412.566 519.813 414.833 526.346 421.633ZM669.413 422.966C669.413 423.633 670.213 425.233 671.28 426.3C672.347 427.5 673.946 431.5 674.88 435.1C675.813 438.833 677.546 444.166 678.746 447.1C680.08 450.033 681.546 453.9 681.946 455.766C682.48 457.633 683.413 460.3 684.08 461.766C689.947 475.766 697.413 499.633 697.413 504.433C697.413 505.5 697.946 506.433 698.613 506.433C699.28 506.433 700.346 508.433 700.746 510.7C701.28 513.1 702.88 517.5 704.213 520.3C705.68 523.233 706.746 526.966 706.746 528.833C706.746 530.566 707.28 532.966 707.946 534.3C708.613 535.5 708.746 537.366 708.213 538.166C706.746 540.566 702.08 530.833 693.68 508.433C691.413 502.566 689.28 496.3 688.746 494.433C688.213 492.566 687.013 489.233 685.946 487.1C683.68 482.033 680.346 472.566 678.613 466.433C673.413 448.7 670.213 438.166 667.946 432.433C666.613 428.7 665.413 423.633 665.413 421.1C665.546 416.7 665.546 416.566 667.413 418.966C668.48 420.433 669.413 422.166 669.413 422.966ZM251.546 426.566C249.68 430.833 249.546 430.833 249.413 427.633C249.413 425.766 250.08 423.633 251.013 422.7C253.413 420.3 253.68 421.633 251.546 426.566ZM238.746 433.1C238.746 433.766 237.546 437.9 236.213 442.033C234.88 446.3 232.613 454.3 231.413 459.633C230.08 465.1 228.613 470.566 228.08 471.633C226.346 475.366 222.48 486.966 221.413 491.766C220.88 494.3 219.813 497.9 219.013 499.766C217.546 503.1 217.546 503.1 217.546 498.833C217.413 496.566 217.946 494.3 218.613 493.9C219.28 493.5 220.213 489.233 220.746 484.566C221.546 476.966 225.946 461.1 229.28 453.766C229.946 452.3 230.88 448.3 231.413 444.833C231.813 441.5 233.146 437.9 234.08 437.1C235.146 436.166 236.08 434.566 236.08 433.633C236.08 432.566 236.746 431.766 237.413 431.766C238.213 431.766 238.746 432.3 238.746 433.1ZM248.213 438.7C247.146 440.3 245.946 443.233 245.28 445.1L244.346 448.433L244.213 445.233C244.08 440.166 247.013 432.833 248.613 434.433C249.546 435.366 249.413 436.7 248.213 438.7ZM687.413 446.433C689.946 449.5 694.746 464.033 694.613 468.566C694.48 472.433 694.48 472.433 691.946 467.1C690.613 464.166 689.413 459.766 689.413 457.366C689.413 455.1 688.88 453.1 688.213 453.1C686.746 453.1 684.08 445.633 684.213 441.9C684.346 439.233 684.48 439.233 685.013 441.766C685.413 443.233 686.48 445.366 687.413 446.433ZM677.413 485.233C677.413 486.033 676.88 486.166 676.08 485.766C675.413 485.366 674.746 484.3 674.746 483.633C674.746 482.833 675.413 482.7 676.08 483.1C676.88 483.5 677.413 484.566 677.413 485.233ZM266.88 492.966C268.746 493.233 272.08 503.1 272.08 508.166C272.08 511.366 272.746 514.566 273.546 515.366C274.346 516.166 274.613 517.633 274.08 518.433C272.746 520.566 259.68 519.5 256.88 517.233C253.946 514.833 254.213 506.7 257.413 499.5C260.48 492.433 261.013 491.9 263.813 492.433C265.013 492.7 266.48 492.966 266.88 492.966ZM490.213 496.433C493.146 500.966 491.946 508.833 487.813 512.033C486.08 513.366 484.213 514.166 483.413 513.9C482.08 513.5 482.346 496.3 483.68 494.033C484.88 492.033 488.08 493.233 490.213 496.433ZM435.413 496.033C437.28 496.833 438.746 498.566 438.746 499.766C438.746 501.1 439.146 504.833 439.546 508.3C440.48 514.433 440.48 514.433 436.48 514.433C430.88 514.433 427.413 510.166 427.546 503.633C427.68 500.833 428.48 497.5 429.413 496.433C431.413 494.033 431.146 494.033 435.413 496.033ZM660.613 514.433C662.746 521.766 662.48 522.833 656.88 524.833C649.28 527.633 649.013 527.366 650.08 516.7C650.613 511.5 651.68 505.9 652.346 504.566C653.68 502.166 653.813 502.166 656.213 505.233C657.68 506.966 659.546 511.1 660.613 514.433ZM154.48 510.433C160.613 510.433 161.68 510.833 163.013 513.633C163.813 515.5 164.08 517.9 163.546 519.233C162.746 521.233 158.346 521.366 106.346 520.966L50.0798 520.433L39.9464 530.966C33.8131 537.5 29.2798 541.1 28.3465 540.566C25.2798 538.7 26.7464 535.233 33.1465 529.1C36.6131 525.633 41.9464 520.033 45.0131 516.7L50.6131 510.433L81.0131 510.3C97.6798 510.166 117.68 509.766 125.413 509.233C133.146 508.833 141.146 508.833 143.413 509.366C145.546 510.033 150.613 510.433 154.48 510.433ZM214.88 513.5C213.813 514.566 213.413 514.433 213.413 512.966C213.413 510.3 215.146 508.433 215.813 510.433C216.213 511.366 215.68 512.7 214.88 513.5ZM709.413 512.433C709.413 513.5 708.88 514.433 708.08 514.433C707.413 514.433 707.147 513.5 707.547 512.433C708.08 511.366 708.613 510.433 708.88 510.433C709.146 510.433 709.413 511.366 709.413 512.433ZM697.547 536.3C702.747 551.633 702.88 566.433 697.813 552.033C695.68 546.033 690.746 526.566 690.746 523.766C690.746 519.633 693.813 525.233 697.547 536.3ZM166.346 531.233C168.48 531.633 169.813 533.5 171.28 538.166C174.48 548.433 182.88 570.966 184.08 572.433C185.146 573.9 193.946 590.033 200.613 603.1C202.88 607.5 205.813 612.166 207.146 613.633C208.346 615.1 209.413 617.366 209.413 618.7C209.413 620.033 209.946 621.1 210.613 621.1C212.346 621.1 218.746 631.366 218.746 634.3C218.746 635.766 219.28 637.1 219.946 637.366C220.613 637.5 221.546 640.433 221.946 643.766C222.213 647.1 222.613 650.033 222.613 650.3C222.746 650.566 223.546 650.033 224.48 649.233C225.546 648.433 226.746 648.166 227.146 648.7C228.613 650.033 228.213 659.766 226.88 659.766C225.28 659.766 223.68 654.833 224.746 653.1C225.146 652.433 225.013 651.766 224.346 651.766C222.613 651.766 221.546 656.833 222.213 662.166C222.746 667.1 220.08 669.233 216.746 666.433C215.146 665.1 215.013 664.433 216.613 662.166C220.08 657.366 216.346 652.033 212.346 656.033C211.146 657.233 209.813 656.966 206.746 654.7C204.613 653.1 202.213 651.766 201.546 651.766C200.88 651.766 200.08 650.433 199.813 648.833C199.28 645.233 194.746 643.766 194.746 647.1C194.746 649.633 197.813 653.1 199.946 653.1C200.746 653.1 201.413 654.566 201.413 656.566C201.413 659.1 202.48 660.3 206.08 661.9C210.08 663.5 210.746 664.433 210.48 667.5C210.213 669.9 210.746 671.1 212.08 671.233C216.746 671.633 217.413 671.9 217.413 673.633C217.413 674.7 216.08 675.766 214.48 676.033C211.68 676.433 211.68 676.566 213.946 678.833C217.413 682.166 220.48 681.1 222.08 676.033C223.413 671.366 227.146 670.166 228.613 673.9C229.68 676.566 228.346 681.1 226.746 681.1C224.213 681.1 222.613 686.3 224.08 689.233C225.013 690.7 225.946 693.5 226.213 695.366C226.613 697.366 228.08 700.3 229.413 702.166C232.88 706.433 232.746 707.766 228.88 707.766C227.146 707.766 224.88 706.433 223.68 704.7C219.146 698.166 212.613 692.166 210.746 692.833C209.68 693.1 207.413 694.7 205.813 696.166C203.146 698.566 202.746 698.566 201.946 696.566C200.88 693.9 196.613 693.766 195.546 696.433C193.68 701.366 188.213 696.833 187.946 690.166C187.946 688.433 186.88 685.233 185.546 683.1C183.28 679.366 182.746 679.1 173.68 678.7C168.346 678.433 164.08 677.9 164.08 677.233C164.08 675.366 171.546 669.1 173.68 669.1C175.013 669.1 176.08 670.433 176.346 672.033C176.613 673.766 177.813 675.233 179.146 675.5C180.88 675.9 181.413 674.966 181.413 671.5C181.413 667.9 180.613 666.566 177.546 664.7C172.346 661.633 165.946 661.766 163.146 665.1C160.346 668.3 158.88 668.433 154.746 665.5C150.88 662.833 145.813 662.033 144.613 664.033C143.946 664.966 144.48 665.233 145.813 664.7C147.28 664.166 148.08 664.566 148.08 665.9C148.08 666.966 148.613 667.633 149.28 667.1C150.08 666.7 151.28 667.633 152.08 669.1C153.413 671.633 153.146 671.766 146.613 671.766H139.813L140.346 667.766C140.88 664.3 140.613 663.766 137.813 663.766C135.946 663.766 133.413 664.433 131.946 665.233C129.813 666.3 129.546 666.966 130.88 668.566C131.68 669.633 133.146 670.433 134.08 670.433C135.013 670.433 136.213 671.366 136.613 672.566C137.013 673.633 136.88 674.3 136.346 673.9C135.68 673.5 134.213 674.433 133.013 675.766C128.746 680.833 120.08 680.966 120.08 675.9C120.08 674.566 119.146 673.1 118.08 672.566C116.613 672.033 116.08 672.7 116.08 675.1C116.08 679.233 112.613 679.633 111.413 675.633C110.746 673.5 109.813 673.1 106.746 673.766C104.346 674.3 101.413 673.766 98.8798 672.566C95.9465 670.966 93.9465 670.833 91.5465 671.766C88.3465 672.966 88.0798 672.7 88.0798 669.233C88.0798 667.233 86.8798 664.433 85.4131 663.1C83.9465 661.766 82.7465 659.9 82.7465 658.833C82.7465 656.966 81.1465 656.566 79.6798 657.9C79.2798 658.433 80.7465 661.766 82.8798 665.633C85.1465 669.366 87.5465 674.033 88.2131 675.9C89.2798 678.7 90.2131 679.233 92.7465 678.7C94.6131 678.433 96.0798 677.633 96.0798 677.1C96.0798 675.5 99.9465 674.433 100.746 675.766C101.146 676.3 100.346 677.9 99.1465 679.1C97.0131 681.366 97.0131 681.633 99.5465 683.633C101.546 685.233 102.08 686.566 101.28 688.433C100.613 690.3 100.213 690.433 100.08 689.1C99.9465 687.766 99.5465 687.9 98.8798 689.766C97.9465 692.033 97.8131 692.033 96.8798 688.7C96.4798 686.7 95.1465 685.1 94.0798 685.1C93.0131 685.1 92.0798 684.433 92.0798 683.766C92.0798 682.966 91.0131 682.433 89.5465 682.433C87.1465 682.433 77.4131 668.833 75.4131 662.566C74.8798 660.966 73.1465 658.166 71.2798 656.433C69.5465 654.7 68.0798 652.166 68.0798 650.7C68.0798 649.366 67.5465 647.766 66.8798 647.1C66.0798 646.3 63.4131 641.233 60.6131 635.766C57.9465 630.3 53.5464 621.9 50.7464 617.1C47.9464 612.3 44.8798 605.1 44.0798 601.1C43.1465 597.1 41.2798 591.633 39.9464 589.1C38.6131 586.566 37.1464 582.3 36.7464 579.766C36.3464 577.233 35.0131 572.566 33.9465 569.366C30.7465 559.9 31.4131 557.366 39.1465 549.233C54.7465 532.7 56.3464 531.633 67.0131 530.433C76.6131 529.366 160.613 530.033 166.346 531.233ZM852.346 539.9C856.08 540.833 858.613 542.833 862.08 547.5C864.613 550.966 870.08 557.233 874.213 561.366C882.346 569.633 882.48 569.9 877.946 583.5C876.88 586.566 876.08 590.033 876.08 590.966C876.08 591.9 874.747 594.7 873.013 597.233C871.413 599.766 869.146 604.433 868.213 607.766C867.28 611.1 864.88 616.7 863.013 620.433C861.147 624.033 858.347 630.033 856.747 633.766C853.68 641.1 837.013 670.966 829.547 682.433C816.08 703.366 787.28 738.566 773.946 750.7C768.48 755.633 763.68 760.166 749.946 773.1C747.28 775.633 747.28 775.633 743.013 772.033C739.947 769.366 739.147 767.9 740.08 766.433C742.747 762.3 741.68 760.966 737.413 763.1C735.146 764.3 732.747 764.833 732.08 764.433C730.347 763.366 730.346 757.5 732.213 756.833C733.813 756.3 732.346 751.766 730.48 751.766C729.813 751.766 728.88 752.966 728.48 754.433C727.413 758.3 725.546 757.633 725.68 753.366C725.813 747.633 723.946 738.3 721.413 732.433C715.68 718.966 710.746 709.366 708.88 707.9C707.68 706.833 706.746 705.366 706.746 704.566C706.746 703.633 703.413 700.966 699.413 698.566C693.28 694.833 692.08 693.5 692.08 690.3C692.08 688.166 692.613 686.433 693.28 686.433C693.813 686.433 695.013 683.633 695.813 680.033C698.88 666.833 701.813 654.966 702.746 652.433C703.28 650.966 704.613 646.7 705.813 643.1C706.88 639.366 709.813 631.633 712.08 625.766C714.347 619.9 717.68 609.633 719.413 603.1C722.213 591.9 727.013 577.366 733.28 561.633C734.747 557.9 736.346 551.5 736.88 547.633C737.413 543.633 738.346 539.766 738.88 538.966C740.346 537.1 844.88 538.033 852.346 539.9ZM711.68 556.033C711.413 557.766 711.146 556.7 711.146 553.766C711.013 550.833 711.28 549.5 711.68 550.7C711.946 552.033 711.946 554.433 711.68 556.033ZM704.08 566.433C704.08 568.566 703.546 570.566 702.88 571.1C701.146 572.033 699.68 567.1 700.746 563.766C701.946 560.033 704.08 561.766 704.08 566.433ZM669.013 568.033C668.613 568.966 668.346 568.3 668.346 566.433C668.346 564.566 668.613 563.9 669.013 564.7C669.28 565.633 669.28 567.233 669.013 568.033ZM484.08 578.833C484.08 584.433 471.546 589.9 462.48 588.433C451.546 586.566 446.213 583.1 447.813 578.7C448.613 576.3 484.08 576.433 484.08 578.833ZM517.413 585.1C523.546 588.3 532.08 596.3 532.08 599.1C532.08 600.566 531.013 600.833 527.946 600.166L523.813 599.366L525.946 602.7C528.346 606.433 527.546 608.3 524.213 606.166C522.613 605.233 519.68 605.366 514.08 606.566C503.68 608.833 504.08 608.833 501.946 605.766C500.48 603.5 500.613 602.3 502.346 598.433C504.88 593.1 505.013 592.433 505.28 589.766C505.413 587.9 509.946 582.433 511.413 582.433C511.813 582.433 514.48 583.633 517.413 585.1ZM667.28 590.433C667.013 592.3 666.213 599.766 665.413 607.1C662.213 636.7 661.013 646.033 659.68 651.1C659.013 654.033 658.213 659.366 657.946 663.1C657.546 672.033 655.546 684.833 654.346 685.9C652.88 687.366 653.28 667.9 654.746 665.1C655.546 663.766 656.346 656.966 656.613 650.166C656.88 643.366 657.546 636.833 657.946 635.633C658.48 634.433 659.68 625.233 660.613 614.966C661.68 604.833 662.88 594.966 663.413 593.1C663.946 591.233 664.613 588.033 665.146 585.766C665.68 582.3 665.946 582.166 666.746 584.433C667.28 585.9 667.547 588.566 667.28 590.433ZM267.813 605.366C269.813 630.033 269.813 638.033 268.213 636.3C266.48 634.566 264.48 619.633 264.213 605.9C264.08 599.366 263.546 593.366 263.28 592.833C262.213 591.233 263.813 585.1 265.146 585.1C265.813 585.1 267.013 594.3 267.813 605.366ZM432.746 595.366L442.08 604.033L438.08 607.366C435.813 609.233 432.346 611.766 430.213 613.1C426.346 615.5 426.346 615.5 422.08 612.3C419.68 610.566 417.413 609.1 416.746 609.1C415.413 609.1 410.746 614.433 410.746 616.033C410.746 616.566 410.213 617.1 409.413 617.1C408.746 617.1 408.48 615.366 409.013 613.1C409.546 609.9 409.013 608.3 406.746 605.9C404.48 603.366 404.08 602.166 405.146 600.166C407.413 595.9 418.48 586.433 421.013 586.433C422.346 586.566 427.546 590.433 432.746 595.366ZM253.013 596.033C252.746 597.766 252.48 596.433 252.48 593.1C252.48 589.766 252.746 588.433 253.013 590.033C253.28 591.766 253.28 594.433 253.013 596.033ZM530.746 610.433C530.746 611.1 530.48 611.766 530.213 611.766C529.813 611.766 529.146 611.1 528.746 610.433C528.346 609.633 528.613 609.1 529.28 609.1C530.08 609.1 530.746 609.633 530.746 610.433ZM477.546 619.1C487.813 622.7 489.413 623.766 487.946 626.7C487.013 628.566 487.146 630.833 488.613 634.833C489.68 637.9 491.013 642.166 491.546 644.433C491.946 646.566 492.746 647.633 493.013 646.7C493.946 644.166 495.813 644.833 496.88 648.033C497.28 649.766 498.48 652.033 499.413 653.1C501.013 654.966 501.946 659.366 501.546 663.366C501.413 664.3 500.48 665.1 499.413 665.1C498.213 665.1 497.413 666.3 497.413 668.033C497.28 672.3 494.08 677.9 492.88 675.9C491.28 673.366 485.813 674.3 483.68 677.366L481.546 680.433V676.7C481.413 672.7 478.746 671.633 478.746 675.633C478.746 679.9 476.08 680.3 475.813 676.166C475.546 669.366 476.08 667.1 479.146 664.833C481.946 662.7 482.213 662.7 483.813 665.9C486.213 670.566 488.48 669.9 487.546 664.7C483.813 643.233 481.413 637.633 481.413 650.3C481.413 656.833 479.413 660.3 476.08 659.5C475.146 659.233 473.546 661.633 472.48 664.7C471.146 668.7 469.813 670.433 468.08 670.433C466.746 670.433 465.413 671.5 465.146 672.7C464.88 674.433 463.813 673.366 462.08 669.5C459.013 663.1 456.08 662.033 456.08 667.366C456.08 671.233 454.08 670.3 453.013 665.766C452.613 664.033 452.346 664.433 452.213 667.233C452.213 669.5 451.28 672.166 450.213 672.966C448.746 674.166 448.346 673.233 447.546 668.3C447.146 664.833 446.746 659.9 446.746 657.233C446.613 653.366 446.346 652.833 445.28 654.7C444.613 656.033 443.146 657.1 442.213 657.1C441.146 657.1 440.08 658.7 439.68 660.7C438.746 665.233 435.28 670.166 434.08 668.833C431.146 665.9 436.08 642.7 440.613 637.1C442.88 634.433 446.213 626.033 445.68 624.433C445.413 623.633 445.546 623.5 446.08 623.9C446.48 624.433 448.48 623.366 450.213 621.766C455.546 616.833 467.68 615.633 477.546 619.1ZM651.68 632.033C651.28 632.966 651.013 632.3 651.013 630.433C651.013 628.566 651.28 627.9 651.68 628.7C651.946 629.633 651.946 631.233 651.68 632.033ZM649.013 644.7C648.613 646.033 648.346 645.233 648.346 643.1C648.346 640.833 648.613 639.9 649.013 640.7C649.28 641.633 649.28 643.5 649.013 644.7ZM616.08 659.366C616.08 663.633 615.546 674.033 614.88 682.433C614.213 690.833 613.146 706.7 612.746 717.766C612.213 728.7 611.547 738.166 611.28 738.566C611.013 739.1 610.213 767.233 609.413 801.233C608.48 848.3 607.68 863.233 606.48 864.033C605.546 864.7 597.546 864.833 588.746 864.433C579.946 864.033 553.413 864.166 529.813 864.7C494.213 865.633 486.48 866.166 484.88 867.766C483.68 868.966 482.48 873.633 481.946 879.5C481.146 888.033 480.613 889.233 478.08 889.9C474.213 890.833 435.413 889.5 423.413 887.9C418.346 887.233 410.746 885.5 406.746 884.033C402.746 882.566 394.613 880.966 388.746 880.433C378.346 879.633 370.08 878.7 351.68 875.9C343.146 874.566 334.746 871.1 334.746 868.833C334.746 867.366 339.946 864.3 347.413 861.766C353.946 859.366 372.08 846.966 372.08 844.833C372.08 844.166 374.746 842.566 377.946 841.1C383.546 838.833 394.746 828.833 394.746 826.299C394.746 825.766 398.746 821.9 403.813 817.633C408.746 813.5 413.413 808.966 414.08 807.633C416.08 804.033 440.08 782.7 444.213 780.833C446.08 780.033 448.613 777.766 449.68 775.766C450.88 773.766 458.213 767.766 466.08 762.3C474.746 756.433 481.546 750.833 483.146 748.166C484.48 745.766 486.213 743.766 487.013 743.766C489.413 743.766 496.08 749.233 496.08 751.233C496.08 752.3 497.28 753.1 498.88 753.1C502.48 753.1 515.146 747.766 516.48 745.633C517.013 744.7 521.413 741.1 526.48 737.633C531.413 734.033 537.813 728.966 540.746 726.3C543.68 723.633 547.013 720.966 548.213 720.3C553.946 717.233 588.88 684.166 592.346 678.566C593.813 676.166 598.346 670.433 602.346 665.9C606.346 661.5 610.213 656.433 610.88 654.7C611.413 653.1 612.88 651.766 614.08 651.766C615.68 651.766 616.08 653.5 616.08 659.366ZM235.68 674.7C235.28 675.766 234.88 675.366 234.88 673.9C234.746 672.433 235.146 671.633 235.546 672.166C235.946 672.566 236.08 673.766 235.68 674.7ZM112.08 682.566C113.013 684.3 114.346 684.966 115.68 684.566C118.48 683.366 122.746 684.833 122.746 686.966C122.746 687.9 121.28 689.366 119.413 690.166C117.413 691.1 116.08 691.233 116.08 690.433C116.08 689.633 115.28 689.1 114.346 689.1C112.48 689.1 105.413 682.433 105.413 680.7C105.413 678.566 110.746 680.033 112.08 682.566ZM654.346 695.366C653.946 696.7 653.68 695.9 653.68 693.766C653.68 691.5 653.946 690.566 654.346 691.366C654.613 692.3 654.613 694.166 654.346 695.366ZM221.413 710.833C221.413 711.1 220.213 711.233 218.746 711.233C217.28 711.233 216.08 710.433 216.08 709.5C216.08 708.033 216.746 708.033 218.746 709.1C220.213 709.9 221.413 710.7 221.413 710.833ZM644.08 710.966C644.08 711.366 643.546 712.033 642.746 712.433C642.08 712.833 641.413 712.566 641.413 711.9C641.413 711.1 642.08 710.433 642.746 710.433C643.546 710.433 644.08 710.7 644.08 710.966ZM222.08 715.633C221.68 716.433 220.613 717.1 219.946 717.1C219.28 717.1 219.413 716.3 220.346 715.233C222.213 713.1 223.546 713.5 222.08 715.633ZM259.68 749.366C259.28 750.433 258.88 750.033 258.88 748.566C258.746 747.1 259.146 746.3 259.546 746.833C259.946 747.233 260.08 748.433 259.68 749.366ZM255.413 750.433C255.813 751.1 255.28 751.766 254.08 751.766C252.88 751.766 252.346 751.1 252.746 750.433C253.146 749.633 253.813 749.1 254.08 749.1C254.346 749.1 255.013 749.633 255.413 750.433ZM878.613 876.566C882.213 881.1 882.213 884.7 878.613 885.766C876.08 886.566 876.08 886.833 878.213 888.433C880.48 890.033 880.346 890.166 877.68 891.633C873.68 893.766 845.413 893.5 842.48 891.233C841.147 890.3 840.08 889.233 840.08 888.966C840.08 888.566 844.747 888.566 850.48 888.7C862.747 889.1 874.747 887.899 874.747 886.299C874.747 885.633 866.08 885.233 855.547 885.366C836.88 885.633 832.08 884.7 832.08 880.966C832.08 878.966 837.813 878.166 840.88 879.9C843.28 881.1 844.88 881.1 847.146 880.166C848.88 879.366 854.48 878.833 859.547 878.966C864.613 879.1 870.613 878.833 872.747 878.299C875.68 877.633 874.213 877.233 866.747 876.966C847.68 876.3 845.413 875.9 852.08 874.433C854.613 873.9 861.013 873.366 866.346 873.233C875.146 873.1 876.08 873.366 878.613 876.566ZM516.08 875.766C516.08 876.433 514.48 877.9 512.48 878.966C509.28 880.566 508.346 880.566 505.013 878.966C503.013 877.9 501.68 876.433 502.08 875.766C503.146 874.033 516.08 874.033 516.08 875.766ZM530.08 875.766C529.013 877.5 524.08 877.5 521.413 875.766C519.946 874.833 521.013 874.433 525.146 874.433C528.613 874.433 530.613 874.966 530.08 875.766ZM691.68 875.233C690.746 876.166 677.413 876.166 676.346 875.233C675.946 874.833 679.413 874.433 684.08 874.433C688.747 874.433 692.213 874.833 691.68 875.233ZM726.746 876.566C726.746 877.766 727.946 878.966 729.413 879.366C734.746 880.7 731.947 882.033 721.813 882.966C706.08 884.3 694.08 883.9 692.346 882.166C691.28 881.1 690.746 881.1 690.746 882.033C690.746 883.9 634.08 882.966 630.48 880.966C626.88 879.1 627.546 877.5 632.346 876.566C635.28 876.033 637.147 876.3 638.08 877.366C639.147 878.7 648.746 879.1 680.746 878.966C727.68 878.833 726.346 878.833 724.746 877.233C723.946 876.433 719.546 875.633 714.746 875.366L706.08 874.966L716.48 874.7C725.146 874.433 726.746 874.833 726.746 876.566ZM808.08 877.1C808.08 877.766 807.547 878.433 806.747 878.433C806.08 878.433 805.413 877.766 805.413 877.1C805.413 876.3 806.08 875.766 806.747 875.766C807.547 875.766 808.08 876.3 808.08 877.1ZM831.68 877.9C831.28 878.3 830.08 878.433 829.146 878.033C828.08 877.633 828.48 877.233 829.946 877.233C831.413 877.1 832.213 877.5 831.68 877.9ZM537.68 881.366C536.48 882.566 535.68 882.566 534.48 881.366C533.28 880.166 533.547 879.766 536.08 879.766C538.613 879.766 538.88 880.166 537.68 881.366ZM813.413 881.1C813.413 881.766 813.146 882.433 812.88 882.433C812.48 882.433 811.813 881.766 811.413 881.1C811.013 880.3 811.28 879.766 811.946 879.766C812.746 879.766 813.413 880.3 813.413 881.1ZM353.146 888.566C362.213 890.3 369.946 891.766 370.213 891.766C370.48 891.766 370.746 892.3 370.746 893.1C370.746 893.766 369.28 894.433 367.546 894.433C365.68 894.433 363.546 895.766 362.213 897.766C361.013 899.633 358.746 901.1 357.013 901.233C355.413 901.233 354.88 901.633 355.813 902.033C359.146 903.366 357.28 905.1 352.08 905.1C348.746 905.1 345.146 906.3 341.946 908.433C339.146 910.3 334.746 912.166 331.946 912.566C329.146 913.1 326.613 914.166 326.213 915.233C325.28 917.633 317.28 921.5 315.946 920.166C315.28 919.5 314.613 911.633 314.48 902.7C314.213 889.366 314.48 886.166 316.08 884.966C318.746 883.233 332.88 884.566 353.146 888.566ZM546.88 889.233C551.813 891.766 549.28 892.433 535.413 892.166C513.68 891.9 513.546 888.566 535.28 888.033C540.213 887.9 545.546 888.433 546.88 889.233ZM688.346 890.566C689.68 891.366 690.747 891.233 691.013 890.166C691.413 889.1 698.08 888.7 713.547 888.833C740.747 888.966 739.013 888.833 738.48 890.566C738.08 891.633 724.213 892.3 691.013 892.833C652.48 893.366 643.68 893.1 641.813 891.633C639.947 890.033 640.48 889.633 646.88 889.1C656.613 888.033 685.546 889.233 688.346 890.566ZM626.08 890.433C626.48 891.1 626.213 891.766 625.547 891.766C624.747 891.766 624.08 891.1 624.08 890.433C624.08 889.633 624.346 889.1 624.613 889.1C625.013 889.1 625.68 889.633 626.08 890.433ZM826.08 890.566C827.68 893.1 825.413 893.633 823.146 891.366C821.013 889.233 821.013 889.1 823.013 889.1C824.213 889.1 825.68 889.766 826.08 890.566ZM403.146 894.566C406.213 898.433 405.946 903.366 402.48 906.566C400.746 908.033 395.413 913.1 390.48 917.766C385.68 922.433 379.68 927.233 377.146 928.433C374.746 929.766 371.546 931.9 370.08 933.233C368.613 934.7 364.746 937.633 361.413 939.766C350.88 946.566 317.413 976.833 317.413 979.633C317.413 980.166 315.28 982.166 312.746 983.9C310.213 985.633 307.813 988.566 307.413 990.433C305.68 998.033 292.346 1007.1 286.346 1004.7C282.08 1003.1 287.413 990.033 296.746 979.1C299.813 975.366 303.546 970.433 305.013 968.033C306.613 965.5 309.013 962.7 310.613 961.633C312.08 960.566 313.413 959.1 313.413 958.3C313.413 954.966 336.48 935.366 360.08 918.566C364.213 915.766 368.346 912.433 369.28 911.233C370.213 910.033 371.813 909.1 372.746 909.1C374.746 909.1 382.346 900.699 384.346 896.299C387.146 890.166 398.48 889.1 403.146 894.566ZM460.08 900.966C464.88 901.633 470.613 902.7 472.746 903.366C476.48 904.566 476.613 904.7 473.813 905.633C471.546 906.433 470.88 907.9 470.213 914.166C469.813 918.3 469.413 923.233 469.413 925.1C469.413 926.966 468.746 932.433 468.08 937.366C467.146 943.1 467.28 951.9 468.08 962.7C469.68 982.433 470.08 1023.1 468.746 1027.77C467.413 1032.03 466.746 1098.3 468.08 1101.63C468.48 1102.97 468.213 1108.3 467.146 1113.37C465.546 1121.9 465.68 1122.83 468.08 1127.5C471.013 1132.83 471.413 1135.9 469.546 1137.9C467.146 1140.3 467.813 1208.43 470.346 1226.43C471.28 1232.3 471.013 1278.57 470.08 1290.43C469.546 1297.63 467.013 1299.77 462.213 1297.1C459.28 1295.63 458.48 1295.63 456.48 1297.37C455.146 1298.57 451.546 1299.5 448.48 1299.5C443.946 1299.63 442.213 1298.97 440.08 1296.17C438.613 1294.17 437.546 1291.9 437.813 1291.1C438.213 1290.3 437.946 1284.3 437.28 1277.77C436.746 1271.1 436.08 1256.43 436.08 1245.1C435.946 1225.5 432.213 1139.37 429.413 1089.1C428.746 1076.3 427.146 1043.37 425.813 1016.17C424.613 988.833 423.413 966.7 423.146 966.966C422.88 967.1 422.346 979.9 421.946 995.233C420.88 1030.97 420.88 1031.37 419.68 1032.57C419.146 1033.1 417.546 1032.3 416.213 1030.83C411.546 1025.9 403.68 1021.9 399.413 1022.17C397.28 1022.43 394.346 1021.77 392.88 1020.7C390.88 1019.23 390.613 1018.43 391.946 1016.03C394.48 1011.37 393.68 1010.57 385.413 1008.97C380.48 1008.03 376.08 1006.17 374.08 1004.3C372.213 1002.57 369.013 1000.83 367.013 1000.3C365.013 999.9 362.746 999.366 361.946 999.1C359.946 998.566 358.346 983.633 359.813 979.633C360.48 977.9 360.746 975.766 360.48 974.966C360.213 974.166 360.613 971.9 361.28 970.033C362.88 965.766 366.08 965.1 364.746 969.233C364.08 971.1 364.746 972.966 366.88 975.233C369.813 978.433 369.946 978.7 367.813 982.833C361.813 994.7 366.613 994.3 378.346 981.766C382.88 976.966 387.146 973.1 387.813 973.1C388.613 973.1 389.413 972.166 389.946 971.1C390.346 969.766 389.546 968.833 387.28 968.3C384.746 967.633 384.08 966.7 384.48 964.966C385.013 963.1 384.08 961.766 381.28 960.433C376.08 957.633 376.346 955.1 382.88 949.366C385.946 946.7 391.546 941.233 395.28 937.366C401.28 930.966 402.213 930.566 403.68 932.566C404.613 933.766 405.013 935.366 404.613 935.9C404.213 936.566 404.613 937.1 405.28 937.1C407.413 937.1 407.013 943.366 404.88 944.166C403.946 944.566 402.746 946.833 402.213 949.366C401.68 951.766 400.88 953.1 400.346 952.433C399.546 951.233 397.146 950.966 392.08 951.633C389.013 952.033 390.88 955.766 394.08 955.766C396.08 955.766 397.413 956.566 397.413 957.633C397.413 960.033 393.813 961.366 390.346 960.3C387.813 959.5 387.68 959.633 389.68 961.633C390.88 962.7 392.08 964.433 392.48 965.366C393.413 968.033 399.813 961.366 402.746 954.833C404.08 951.633 405.946 949.1 406.613 949.1C407.413 949.1 408.08 947.9 408.08 946.566C408.08 945.1 408.746 943.5 409.413 943.1C412.213 941.366 415.013 934.166 413.546 932.7C412.48 931.633 411.68 931.633 410.48 932.833C407.813 935.5 406.746 934.7 406.746 929.9C406.746 924.966 411.68 915.9 414.48 915.766C416.346 915.766 416.613 921.9 414.746 923.1C412.613 924.433 413.28 928.833 415.813 930.7C417.68 932.033 418.746 935.766 420.08 945.1C423.013 966.033 423.813 965.5 423.946 942.833C424.08 928.833 423.546 920.966 422.613 920.433C421.68 919.766 421.546 917.5 422.213 913.9C422.746 910.966 423.013 906.833 422.88 904.7C422.746 902.033 423.546 900.7 425.68 899.766C428.746 898.433 443.813 898.966 460.08 900.966ZM512.88 902.566C513.28 903.366 513.013 904.7 512.213 905.5C511.013 906.7 510.346 906.566 509.413 905.1C508.746 904.033 508.08 902.7 508.08 902.033C508.08 900.566 511.813 900.966 512.88 902.566ZM496.08 905.633C496.08 906.033 495.546 906.7 494.746 907.1C494.08 907.5 493.413 907.233 493.413 906.566C493.413 905.766 494.08 905.1 494.746 905.1C495.546 905.1 496.08 905.366 496.08 905.633ZM881.146 908.033C883.413 910.3 883.28 932.3 880.88 934.3C879.946 935.1 875.947 935.5 871.28 935.233C867.013 934.966 860.08 934.7 856.08 934.566C846.347 934.433 845.146 932.566 846.346 919.1L847.146 909.1L853.946 908.966C857.68 908.833 862.213 908.3 864.08 907.766C869.28 906.166 879.413 906.3 881.146 908.033ZM516.08 923.1V935.1L513.413 931.766C510.48 928.033 510.08 926.433 512.08 926.433C512.88 926.433 513.413 924.966 513.413 923.1C513.413 921.233 512.88 919.766 512.08 919.766C511.413 919.766 510.746 920.966 510.746 922.433C510.746 923.9 510.213 925.1 509.546 925.1C507.68 925.1 506.346 920.166 507.68 918.166C508.213 917.233 508.48 915.366 508.346 914.033C507.68 910.033 510.48 907.633 513.547 909.5C515.68 910.833 516.08 912.7 516.08 923.1ZM567.28 910.299C568.746 912.033 569.813 916.033 570.346 922.166C571.28 933.9 571.013 934.033 551.813 934.3L537.413 934.433V923.633C537.413 908.166 537.546 908.033 552.48 907.9C563.146 907.766 565.413 908.166 567.28 910.299ZM505.413 912.7C505.413 913.366 504.88 914.566 504.213 915.5C503.28 916.966 503.013 916.966 502.346 915.366C501.946 914.3 501.946 912.966 502.346 912.566C503.546 911.5 505.413 911.633 505.413 912.7ZM752.747 918.033C755.28 921.633 757.413 925.633 757.413 927.233C757.413 929.633 756.48 930.166 749.68 930.833C741.813 931.633 736.613 930.966 733.813 928.833C731.813 927.233 734.747 919.366 739.013 914.833C743.547 909.9 747.413 910.833 752.747 918.033ZM687.68 916.033C689.413 917.633 690.746 919.5 690.746 920.166C690.746 920.966 691.68 922.7 693.013 924.033C694.347 925.5 694.613 926.433 693.547 926.433C692.747 926.433 692.08 927.5 692.346 928.7C692.613 930.566 691.813 931.1 689.146 930.966C677.546 930.7 673.68 930.3 671.68 928.7C669.68 927.233 670.08 926.433 675.813 920.166C679.28 916.3 682.613 913.1 683.28 913.1C684.08 913.1 685.946 914.433 687.68 916.033ZM811.013 918.033C819.813 926.7 817.013 931.233 804.08 929.766C797.413 928.966 795.68 928.3 794.88 925.9C793.413 922.166 795.68 917.366 799.946 915.1C804.88 912.433 805.413 912.566 811.013 918.033ZM629.946 920.299C635.546 926.966 635.68 928.166 632.08 932.033C629.813 934.566 629.013 934.7 626.213 933.233C623.946 931.9 622.346 931.9 620.48 932.833C617.68 934.3 612.613 933.633 609.813 931.366C606.613 928.966 607.946 924.166 613.413 919.233C620.613 912.7 624.08 912.966 629.946 920.299ZM715.946 950.7C716.613 952.433 718.746 955.233 720.613 956.966C722.48 958.833 724.08 960.966 724.08 961.766C724.08 962.566 726.747 966.833 730.08 971.233C743.013 988.433 747.813 995.5 758.346 1012.83C761.546 1017.9 767.013 1025.63 770.48 1029.9C774.08 1034.3 781.146 1044.03 786.213 1051.77C791.146 1059.5 799.413 1071.5 804.613 1078.57C809.813 1085.63 816.88 1095.37 820.346 1100.17L826.747 1108.83L825.547 1120.17C824.747 1128.7 823.68 1132.57 821.413 1135.37C817.68 1140.03 807.28 1152.17 796.213 1164.3C791.546 1169.5 785.413 1177.37 782.613 1181.77C779.68 1186.17 774.88 1192.43 771.68 1195.77C766.08 1201.77 759.947 1209.1 752.08 1219.1C749.68 1222.03 747.413 1224.7 746.88 1225.1C746.346 1225.5 744.613 1227.63 743.013 1230.03C739.013 1235.77 735.28 1236.7 731.547 1233.23C729.68 1231.5 727.68 1230.83 725.68 1231.37C720.48 1232.7 722.213 1228.17 730.08 1220.03C741.28 1208.43 743.28 1206.17 746.613 1201.1C748.346 1198.57 750.48 1195.77 751.28 1195.1C752.213 1194.3 757.013 1188.3 762.08 1181.77C767.147 1175.1 773.947 1167.37 777.013 1164.3C780.213 1161.23 782.747 1158.3 782.747 1157.77C782.747 1157.1 783.947 1155.37 785.28 1153.9C786.747 1152.3 789.28 1149.23 791.013 1146.83C797.547 1137.63 807.28 1125.77 808.346 1125.23C810.88 1124.3 812.08 1118.43 810.48 1114.7C809.146 1111.9 799.546 1097.9 793.146 1089.77C782.08 1075.5 762.88 1049.1 750.213 1030.57C745.013 1022.97 737.413 1011.9 733.28 1005.9C729.147 1000.03 723.546 991.766 720.88 987.766C718.08 983.766 714.88 979.9 713.813 979.233C710.88 977.633 705.546 982.033 700.746 990.033C696.88 996.433 687.28 1008.83 677.28 1020.3C674.613 1023.23 670.346 1029.1 667.68 1033.1C665.013 1037.1 661.28 1042.57 659.413 1045.1C655.946 1049.77 652.88 1054.03 645.813 1064.43C643.813 1067.37 639.946 1072.43 637.413 1075.77C634.746 1079.1 629.68 1086.17 626.346 1091.37C622.88 1096.7 619.546 1101.1 618.88 1101.1C618.213 1101.1 617.28 1102.17 616.88 1103.37C616.48 1104.7 613.68 1108.43 610.746 1111.63C607.813 1114.83 605.413 1118.17 605.413 1119.23C605.413 1120.17 608.48 1124.57 612.08 1128.97C615.813 1133.37 618.746 1137.37 618.746 1137.77C618.746 1138.3 620.48 1140.03 622.613 1141.9C624.88 1143.77 628.08 1148.43 629.946 1152.43C631.813 1156.43 635.147 1161.63 637.28 1164.03C639.547 1166.43 641.813 1169.5 642.213 1170.7C642.613 1172.03 643.546 1173.1 644.213 1173.1C644.88 1173.1 645.413 1173.77 645.413 1174.57C645.413 1175.37 648.613 1179.23 652.48 1183.1C662.613 1193.37 668.08 1200.03 668.88 1203.23C669.28 1204.83 671.013 1206.7 672.88 1207.63C676.746 1209.37 677.146 1213.1 673.413 1213.1C671.013 1213.1 670.88 1213.5 672.08 1215.77C673.413 1218.17 673.147 1218.43 669.547 1218.43C666.88 1218.43 664.746 1217.37 663.013 1215.1C661.546 1213.23 659.68 1211.77 658.88 1211.77C658.08 1211.77 657.413 1211.37 657.413 1210.7C657.413 1210.17 655.68 1207.9 653.68 1205.63C645.946 1196.7 639.28 1188.7 637.413 1185.9C636.346 1184.3 633.813 1181.37 631.813 1179.23C629.68 1177.1 628.08 1174.57 628.08 1173.63C628.08 1172.57 627.147 1171.77 626.08 1171.77C625.013 1171.77 624.08 1171.23 624.08 1170.43C624.08 1169.23 607.546 1146.57 603.68 1142.43C598.08 1136.43 589.28 1124.7 586.746 1119.77C583.68 1113.63 583.28 1114.7 591.68 1103.5C598.48 1094.57 612.613 1076.43 614.08 1074.97C614.747 1074.17 616.88 1071.5 618.746 1069.1C620.613 1066.7 624.747 1061.23 628.08 1056.97C631.413 1052.7 636.747 1045.37 640.08 1040.43C643.413 1035.63 647.547 1030.03 649.28 1028.03C656.213 1020.43 672.88 999.366 676.746 993.633C683.546 983.366 703.813 956.166 705.413 955.1C706.213 954.566 707.413 952.7 708.08 950.966C709.68 946.833 714.346 946.7 715.946 950.7ZM682.48 953.766C685.146 956.3 680.48 966.033 673.68 972.3C670.746 975.1 667.28 979.5 666.08 982.033C664.88 984.566 662.48 987.233 660.746 988.033C658.88 988.833 656.88 991.5 656.08 993.9C655.147 996.433 653.68 998.433 652.613 998.433C651.68 998.433 650.48 999.9 649.946 1001.63C649.546 1003.37 646.88 1007.1 643.946 1009.9C641.146 1012.7 638.746 1015.63 638.746 1016.43C638.746 1017.23 637.013 1019.77 634.746 1022.17C632.613 1024.57 630.746 1027.37 630.746 1028.17C630.746 1029.1 628.347 1032.17 625.547 1035.23C622.613 1038.17 617.946 1044.17 615.146 1048.57C609.146 1057.77 605.947 1061.5 601.547 1063.77C597.413 1065.9 595.947 1063.63 597.547 1058.03C598.08 1055.9 598.213 1053.1 597.547 1051.9C597.013 1050.7 596.346 1041.9 596.213 1032.43C596.08 1022.83 595.68 1012.7 595.28 1009.77C594.88 1006.83 594.48 994.433 594.213 982.166C594.08 967.1 593.413 959.366 592.346 958.033C589.946 955.1 593.946 951.366 598.613 952.3C600.48 952.7 604.747 952.433 608.08 951.9C617.68 950.166 680.346 951.766 682.48 953.766ZM823.28 954.3C824.747 955.633 825.28 957.233 824.747 959.366C824.347 961.1 824.613 962.433 825.413 962.433C826.213 962.433 826.613 962.833 826.346 963.366C824.346 966.566 823.28 1007.23 824.747 1019.77C825.147 1023.1 824.746 1029.63 823.68 1034.3C822.48 1040.3 822.213 1045.1 823.013 1050.43C824.347 1059.1 822.88 1066.83 819.946 1067.5C818.88 1067.63 814.613 1062.57 809.413 1054.83C804.613 1047.63 799.28 1040.03 797.28 1037.77C795.413 1035.63 793.546 1032.83 793.146 1031.77C792.08 1028.97 775.147 1003.9 771.28 999.5C769.547 997.5 768.08 994.833 768.08 993.766C768.08 991.9 767.413 990.833 761.547 984.166C760.213 982.7 758.613 980.033 758.08 978.566C757.68 976.966 755.413 973.766 753.28 971.366C751.147 969.1 749.013 965.766 748.613 964.3C748.213 962.7 746.48 960.833 744.747 960.033C742.613 958.966 741.946 957.766 742.346 955.5L742.88 952.433H781.946C813.813 952.433 821.413 952.833 823.28 954.3ZM569.413 983.5C569.413 1003.1 566.747 1005.5 555.813 995.766C548.213 989.1 547.28 986.033 551.68 982.166C553.413 980.433 557.146 976.833 559.68 974.033C562.346 971.366 565.546 969.1 567.013 969.1C569.146 969.1 569.413 970.433 569.413 983.5ZM857.28 971.1C859.413 972.166 861.413 973.9 861.813 975.1C862.347 976.166 863.546 977.1 864.613 977.1C866.746 977.1 869.813 982.166 871.28 987.9C871.947 990.833 871.146 992.3 866.88 996.166C861.146 1001.37 854.747 1005.1 851.547 1005.1C850.347 1005.1 848.48 1003.23 847.28 1000.97C843.68 993.766 846.88 969.1 851.68 969.1C852.746 969.1 855.28 970.033 857.28 971.1ZM348.88 986.7C348.746 991.233 348.08 995.1 347.28 995.366C346.613 995.633 344.88 993.366 343.546 990.3C341.146 984.966 341.146 984.833 344.213 981.633C345.813 979.9 347.68 978.433 348.213 978.433C348.746 978.433 349.146 982.166 348.88 986.7ZM712.746 994.033C713.546 996.166 715.013 1010.83 715.013 1017.77C715.28 1040.83 713.146 1096.43 711.946 1098.57C710.08 1102.3 711.546 1107.77 714.48 1107.77C715.68 1107.77 720.613 1103.5 725.28 1098.43L733.68 1088.97L755.28 1089.9C767.013 1090.43 778.08 1091.37 779.68 1091.9C781.28 1092.43 783.68 1094.97 784.88 1097.37C786.08 1099.77 789.413 1105.23 792.213 1109.5C797.946 1118.17 798.613 1120.83 795.146 1121.9C793.813 1122.3 791.68 1123.23 790.213 1124.03C788.746 1124.7 787.413 1124.83 786.88 1124.17C786.48 1123.5 777.68 1122.83 767.413 1122.7C757.146 1122.43 746.347 1121.77 743.547 1121.1C737.68 1119.77 721.68 1120.83 720.613 1122.57C719.813 1123.9 726.88 1133.1 728.613 1133.1C729.28 1133.1 732.08 1135.5 734.88 1138.57C739.146 1143.23 739.68 1144.57 738.746 1147.23C738.08 1148.97 736.88 1150.43 736.346 1150.43C735.013 1150.43 722.48 1138.43 719.813 1134.57C718.747 1133.1 716.88 1131.77 715.413 1131.5C712.88 1131.1 712.746 1132.03 712.613 1163.77C712.48 1181.77 711.947 1201.5 711.547 1207.77C711.147 1214.03 710.746 1221.1 710.746 1223.37C710.88 1231.9 706.746 1229.23 690.346 1210.03L680.48 1198.43L679.413 1173.9C678.88 1158.3 679.013 1148.43 679.813 1146.97C680.613 1145.5 684.88 1139.9 689.28 1134.43C693.813 1128.97 697.413 1124.03 697.413 1123.5C697.413 1122.97 680.48 1122.43 659.813 1122.43C639.013 1122.43 620.746 1122.03 619.146 1121.63C615.146 1120.57 615.28 1117.77 619.547 1113.37C621.413 1111.37 625.546 1105.77 628.746 1100.97C632.08 1096.03 635.413 1091.5 636.346 1090.83C637.28 1090.03 646.746 1089.1 657.413 1088.57C671.546 1087.9 677.28 1087.1 678.746 1085.63C680.213 1084.17 680.613 1080.3 680.346 1066.7C679.813 1043.1 681.147 1030.03 684.08 1026.17C697.813 1008.97 702.88 1002.17 705.946 997.366C709.813 991.233 711.28 990.566 712.746 994.033ZM333.946 1011.23C349.28 1015.1 366.346 1021.5 384.88 1030.43C392.213 1033.9 400.746 1037.23 403.68 1037.77C410.48 1038.83 413.813 1042.3 412.746 1046.83C412.08 1049.1 410.746 1050.43 407.813 1050.97C405.68 1051.37 403.146 1051.37 402.48 1050.97C401.68 1050.43 399.28 1049.63 396.88 1049.1C392.346 1047.9 371.68 1040.57 367.413 1038.57C356.213 1033.37 348.88 1030.57 343.946 1029.77C340.746 1029.23 336.48 1028.03 334.613 1026.97C332.213 1025.77 325.146 1025.1 313.946 1024.83C295.413 1024.57 293.413 1024.97 268.346 1034.3C262.213 1036.57 256.613 1038.43 255.946 1038.43C253.946 1038.43 254.613 1033.63 257.146 1031.37C266.346 1022.7 271.013 1019.9 280.746 1016.7C305.146 1008.97 319.28 1007.5 333.946 1011.23ZM723.146 1017.1C723.946 1018.17 723.147 1017.77 721.547 1016.3C719.413 1014.3 718.747 1012.7 719.547 1011.63C720.48 1010.17 720.746 1010.43 721.146 1012.43C721.413 1013.9 722.346 1016.03 723.146 1017.1ZM509.813 1025.9C514.346 1031.37 513.813 1033.37 509.28 1028.83C503.68 1023.37 502.08 1021.1 504.213 1021.1C505.28 1021.1 507.813 1023.23 509.813 1025.9ZM722.746 1033.5C722.746 1036.03 720.346 1041.5 719.946 1039.77C719.946 1039.37 719.547 1037.63 719.28 1035.77C719.013 1034.03 719.013 1031.77 719.413 1030.7C720.346 1028.17 722.746 1030.03 722.746 1033.5ZM334.48 1041.5C342.613 1044.83 356.08 1053.1 367.946 1062.03C371.68 1064.83 375.28 1066.43 377.946 1066.43C383.146 1066.43 388.08 1069.77 388.08 1073.1C388.08 1076.17 383.28 1079.77 379.013 1079.77C377.28 1079.77 371.013 1077.63 365.013 1075.1C359.146 1072.57 353.68 1070.43 353.146 1070.43C352.48 1070.43 349.68 1068.7 347.013 1066.43C327.413 1050.57 321.68 1048.03 304.346 1046.97C290.746 1046.17 282.48 1047.9 261.013 1055.77C254.88 1057.9 252.746 1058.17 251.28 1056.97C247.946 1054.3 249.28 1052.17 255.813 1049.9C259.28 1048.57 264.08 1046.7 266.48 1045.63C268.88 1044.57 271.68 1043.77 272.746 1043.77C273.946 1043.77 275.813 1043.23 277.146 1042.57C283.413 1039.1 296.08 1037.37 310.746 1037.63C323.546 1038.03 327.413 1038.7 334.48 1041.5ZM509.146 1042.03C511.546 1046.7 512.346 1054.43 510.48 1055.1C509.413 1055.5 508.746 1058.3 508.613 1062.43C508.48 1069.5 505.546 1075.23 505.28 1068.97C504.08 1048.03 504.346 1039.77 506.08 1039.77C507.146 1039.77 508.48 1040.83 509.146 1042.03ZM857.28 1060.3C859.28 1062.17 861.68 1063.77 862.747 1064.03C865.013 1064.43 869.413 1070.83 869.413 1073.63C869.413 1075.77 860.213 1083.23 855.28 1085.1C850.08 1087.1 848.213 1084.57 847.146 1074.03C846.346 1064.3 848.213 1057.1 851.813 1057.1C853.013 1057.1 855.413 1058.57 857.28 1060.3ZM313.68 1063.23C321.946 1067.5 333.813 1076.03 336.346 1079.63C337.413 1081.1 341.546 1083.37 345.546 1084.7C351.546 1086.7 352.88 1087.63 353.146 1090.43C353.413 1093.23 352.613 1094.3 348.746 1096.17C344.213 1098.3 343.68 1098.3 337.68 1095.63C325.28 1090.3 319.946 1086.83 312.346 1079.37C300.613 1068.03 293.413 1067.1 273.546 1074.43C267.813 1076.43 267.413 1076.97 267.68 1081.1C267.813 1083.5 269.146 1087.23 270.613 1089.23C272.346 1091.63 274.213 1097.5 275.413 1104.43C276.48 1110.7 278.213 1118.03 279.28 1120.83C280.213 1123.5 283.013 1131.1 285.413 1137.77C294.746 1163.5 296.746 1172.57 295.68 1184.03C294.613 1194.7 289.28 1211.77 285.546 1216.43C284.08 1218.43 283.013 1220.57 283.413 1221.1C283.813 1221.63 279.946 1222.17 274.88 1222.3C267.013 1222.43 265.413 1222.03 264.88 1220.03C264.346 1218.7 263.813 1210.03 263.546 1200.7C263.146 1191.5 262.613 1183.23 262.213 1182.57C261.413 1181.23 259.013 1157.37 257.813 1137.9C257.546 1132.03 256.346 1126.03 255.413 1124.57C254.346 1122.83 253.413 1114.97 252.88 1103.23C252.213 1085.5 252.08 1084.43 248.746 1081.5C243.146 1076.17 242.48 1076.57 270.746 1064.3C279.68 1060.43 282.213 1060.03 293.813 1059.9C305.413 1059.77 307.546 1060.17 313.68 1063.23ZM567.813 1078.7C567.547 1088.7 567.013 1091.1 565.413 1090.97C562.346 1090.83 548.08 1079.63 548.08 1077.5C548.08 1075.37 554.346 1069.63 561.28 1065.63C567.68 1062.03 568.213 1063.23 567.813 1078.7ZM420.48 1067.77C420.08 1069.23 419.28 1070.17 418.746 1069.77C418.08 1069.37 417.946 1067.9 418.346 1066.43C418.746 1064.97 419.546 1064.03 420.08 1064.43C420.746 1064.83 420.88 1066.3 420.48 1067.77ZM513.013 1096.03C512.746 1100.7 512.613 1096.97 512.613 1087.77C512.613 1078.57 512.746 1074.83 513.013 1079.37C513.28 1084.03 513.28 1091.5 513.013 1096.03ZM507.413 1080.03C507.28 1082.43 507.013 1087.1 506.88 1090.43L506.48 1096.43L505.146 1089.1C503.946 1081.63 504.613 1075.77 506.613 1075.77C507.146 1075.77 507.546 1077.77 507.413 1080.03ZM421.813 1085.77C423.413 1087.37 423.813 1092.17 424.08 1109.23C424.08 1121.1 424.48 1131.23 424.746 1131.77C425.813 1133.5 427.946 1191.5 428.746 1239.77C429.28 1265.77 429.946 1288.3 430.213 1289.9C431.146 1293.63 427.413 1302.43 424.88 1302.43C423.813 1302.43 422.746 1303.77 422.48 1305.37C421.946 1309.23 416.88 1310.17 413.813 1306.97C411.146 1304.3 399.813 1304.97 393.146 1308.3C390.613 1309.63 385.546 1310.43 379.946 1310.43C372.08 1310.43 370.346 1309.9 366.746 1306.83L362.48 1303.23L363.28 1281.9C364.08 1262.43 364.48 1259.63 367.813 1252.43C369.813 1248.03 371.68 1244.17 372.08 1243.77C374.346 1241.5 378.613 1234.3 380.48 1229.5C381.68 1226.43 385.413 1219.9 388.746 1215.1C392.08 1210.3 395.28 1205.23 396.08 1203.9C398.613 1199.1 401.546 1180.83 401.813 1168.03C402.08 1157.5 402.746 1154.03 404.746 1150.97C410.613 1142.43 412.613 1135.37 414.213 1119.37C415.013 1111.63 414.746 1110.43 412.88 1110.43C411.68 1110.43 410.746 1109.77 410.746 1109.1C410.746 1108.3 411.946 1107.77 413.28 1107.77C416.88 1107.77 417.813 1103.63 415.413 1098.97C410.613 1089.63 415.546 1079.37 421.813 1085.77ZM296.346 1090.03C300.213 1092.03 303.68 1094.03 304.08 1094.43C304.48 1094.83 308.08 1097.23 312.08 1099.9C321.146 1105.77 327.946 1108.43 337.946 1110.3C350.213 1112.57 351.146 1114.3 347.546 1128.17C344.88 1138.43 343.013 1140.83 335.813 1143.23C331.68 1144.57 328.08 1147.1 324.88 1150.83C322.213 1153.9 319.146 1157.5 318.08 1158.83C316.88 1160.17 315.413 1162.7 314.746 1164.43C314.08 1166.3 312.88 1167.77 312.08 1167.77C311.413 1167.77 310.746 1169.23 310.746 1170.97C310.746 1174.7 309.28 1176.17 306.346 1175.1C305.013 1174.43 304.213 1170.83 303.68 1161.5C303.013 1152.03 302.213 1147.9 300.346 1145.9C294.48 1138.97 291.813 1134.03 292.48 1130.97C292.746 1129.23 292.48 1127.77 291.813 1127.77C291.146 1127.77 291.013 1127.1 291.413 1126.43C291.813 1125.63 291.68 1125.1 291.013 1125.1C290.08 1125.1 286.746 1104.03 286.613 1097.77C286.613 1096.7 287.68 1087.9 287.946 1086.7C288.213 1086.03 289.413 1086.57 296.346 1090.03ZM393.413 1093.23C393.413 1093.77 392.88 1094.7 392.08 1095.1C391.413 1095.5 390.746 1099.23 390.746 1103.1C390.746 1108.83 389.546 1112.97 385.413 1122.03C380.346 1132.97 380.08 1134.03 381.28 1140.03C382.88 1147.23 382.88 1147.23 373.146 1168.43C369.546 1176.43 365.013 1186.3 363.28 1190.03C361.546 1193.9 358.346 1199.5 356.08 1202.57C353.946 1205.63 352.08 1208.97 352.08 1209.77C352.08 1211.63 342.08 1221.1 340.346 1221.1C339.68 1221.1 336.213 1224.03 332.613 1227.63C325.68 1234.57 319.813 1237.1 316.213 1234.83C310.48 1231.23 307.413 1209.77 310.48 1193.9C313.946 1176.17 327.013 1157.1 339.413 1151.77C343.413 1150.03 348.88 1145.9 353.413 1141.23C361.546 1132.7 363.013 1129.1 366.746 1107.1C368.613 1095.5 368.88 1095.1 372.88 1093.77C377.946 1092.17 393.413 1091.77 393.413 1093.23ZM513.013 1118.7C512.613 1119.77 512.213 1119.37 512.213 1117.9C512.08 1116.43 512.48 1115.63 512.88 1116.17C513.28 1116.57 513.413 1117.77 513.013 1118.7ZM507.813 1140.3C508.08 1141.63 507.813 1144.3 507.28 1146.17L506.346 1149.77L505.413 1146.43C503.68 1140.97 503.946 1136.83 505.813 1137.37C506.613 1137.77 507.68 1139.1 507.813 1140.3ZM858.747 1149.23C862.48 1154.57 865.946 1159.5 866.213 1160.43C866.613 1161.37 864.213 1163.63 860.747 1165.63C857.413 1167.63 853.947 1170.43 853.013 1171.9C850.88 1175.23 848.48 1175.1 846.613 1171.5C843.68 1166.03 847.013 1139.77 850.613 1139.77C851.146 1139.77 854.88 1144.03 858.747 1149.23ZM569.413 1156.97C569.413 1165.23 567.146 1170.83 563.68 1171.5C560.213 1172.17 549.413 1160.7 550.346 1157.23C550.746 1155.77 552.213 1154.17 553.547 1153.77C554.88 1153.23 556.08 1152.03 556.08 1150.97C556.08 1149.9 558.08 1147.9 560.48 1146.43L564.746 1143.77L567.146 1146.57C568.746 1148.57 569.413 1151.63 569.413 1156.97ZM227.28 1146.7C227.68 1147.63 228.213 1159.23 228.613 1172.43C229.546 1200.3 231.546 1232.43 233.413 1250.43C234.213 1257.37 235.146 1271.1 235.68 1280.7L236.48 1298.43H233.28C227.813 1298.43 186.613 1291.63 159.946 1286.43C123.546 1279.23 87.8131 1270.17 56.4798 1260.43C55.4131 1260.03 55.1464 1257.23 55.6798 1250.7C56.2131 1244.57 55.9465 1241.23 55.0131 1240.57C54.0798 1240.03 50.0798 1242.97 45.8131 1247.1C41.5465 1251.1 37.5464 1254.3 36.7464 1254.03C36.0798 1253.63 31.0131 1252.03 25.8131 1250.3C15.2798 1246.97 13.5465 1244.57 18.7465 1240.17C20.2131 1238.83 21.4131 1237.37 21.4131 1236.7C21.4131 1236.17 22.8798 1234.03 24.7465 1232.03C26.6131 1230.03 28.0798 1227.77 28.0798 1226.83C28.0798 1224.17 43.8131 1209.1 46.4798 1209.1C47.8131 1209.1 49.8131 1207.9 51.0131 1206.57C54.4798 1202.57 64.4798 1197.23 72.2131 1195.23C82.2131 1192.7 109.68 1188.03 120.88 1186.97C134.213 1185.77 158.746 1186.03 163.413 1187.5C169.28 1189.23 168.48 1194.57 160.88 1202.3C157.546 1205.63 152.08 1211.9 148.48 1216.03C129.013 1238.83 111.546 1258.43 110.613 1258.43C108.213 1258.43 109.413 1264.97 111.946 1266.43C116.213 1268.7 117.946 1268.03 121.413 1262.83C125.146 1257.23 146.613 1232.7 148.346 1232.03C148.88 1231.77 149.413 1230.97 149.413 1230.3C149.413 1229.5 151.813 1226.3 154.88 1223.1C157.813 1219.9 161.546 1215.63 163.146 1213.5C164.746 1211.5 170.346 1205.23 175.546 1199.77C180.746 1194.3 188.613 1185.5 193.013 1180.43C197.413 1175.23 203.28 1168.7 206.08 1165.77C208.746 1162.83 212.613 1158.3 214.48 1155.77C222.213 1145.37 226.08 1142.57 227.28 1146.7ZM602.08 1166.03C605.413 1169.63 607.947 1173.1 608.08 1174.03C608.08 1174.97 609.413 1177.1 611.146 1178.97C617.68 1186.03 624.746 1194.57 625.946 1196.83C626.613 1198.03 627.547 1199.37 628.08 1199.77C629.147 1200.57 632.08 1205.9 632.08 1206.97C632.08 1207.37 631.013 1207.77 629.68 1207.77C628.213 1207.77 625.413 1204.97 622.746 1200.7C614.48 1187.9 610.613 1183.77 606.746 1183.77C602.48 1183.77 601.413 1186.83 601.28 1200.97C601.28 1205.77 600.88 1208.97 600.48 1208.17C600.08 1206.83 599.413 1206.83 597.946 1208.3C596.48 1209.77 596.346 1211.1 597.413 1213.77C598.08 1215.63 598.746 1218.17 598.746 1219.23C598.746 1221.37 595.28 1221.77 594.08 1219.77C593.147 1218.3 592.08 1163.9 593.013 1161.5C594.213 1158.57 596.08 1159.5 602.08 1166.03ZM506.746 1176.57C506.746 1179.77 506.213 1181.1 505.146 1180.83C503.146 1180.17 502.213 1175.23 503.28 1172.3C504.613 1168.97 506.746 1171.63 506.746 1176.57ZM812.747 1195.37C812.747 1213.23 812.613 1213.77 809.813 1214.17C807.68 1214.43 806.347 1213.5 804.747 1210.57C803.547 1208.17 801.68 1206.43 800.213 1206.43C796.746 1206.43 788.08 1210.17 788.08 1211.77C788.08 1212.43 786.88 1213.63 785.547 1214.3C783.547 1215.37 782.88 1215.23 782.213 1213.63C781.68 1212.3 783.013 1209.9 785.946 1206.97C788.346 1204.57 790.08 1202.3 789.813 1201.9C789.413 1201.5 789.546 1200.7 789.946 1199.9C790.613 1198.97 791.68 1198.97 793.413 1200.03C796.613 1202.03 798.08 1200.7 796.213 1197.37C795.28 1195.5 795.28 1193.77 796.48 1191.37C798.346 1187.5 803.947 1185.77 805.013 1188.7C805.68 1190.3 805.946 1190.3 806.88 1188.97C807.413 1187.9 807.013 1186.7 805.946 1185.77C804.48 1184.83 804.213 1183.23 804.747 1180.7C805.547 1177.9 806.48 1177.1 809.28 1177.1H812.88L812.747 1195.37ZM780.613 1220.83C779.546 1221.9 777.813 1222.3 776.613 1221.9C774.88 1221.23 774.88 1220.7 776.88 1217.77C778.88 1214.7 779.28 1214.57 780.747 1216.7C782.08 1218.57 782.08 1219.37 780.613 1220.83ZM685.413 1221.1C685.413 1221.77 684.88 1222.43 684.08 1222.43C683.413 1222.43 682.746 1221.77 682.746 1221.1C682.746 1220.3 683.413 1219.77 684.08 1219.77C684.88 1219.77 685.413 1220.3 685.413 1221.1ZM567.547 1231.1C568.613 1235.37 566.48 1249.5 564.746 1249.9C564.08 1250.03 561.413 1247.9 558.88 1244.97C554.746 1240.03 554.48 1239.5 556.08 1235.77C557.547 1232.17 562.746 1228.03 565.68 1227.77C566.213 1227.77 567.013 1229.23 567.547 1231.1ZM640.346 1238.17C645.546 1242.7 656.08 1245.37 697.413 1252.43C708.213 1254.43 716.08 1256.7 724.746 1260.43C727.013 1261.37 731.28 1262.83 734.48 1263.63C737.546 1264.57 740.08 1265.77 740.08 1266.43C740.08 1267.1 742.48 1268.97 745.413 1270.57C749.28 1272.83 750.347 1274.03 749.28 1275.23C748.347 1276.43 749.013 1277.63 751.547 1279.63C756.213 1283.23 754.88 1285.9 747.813 1286.97C704.213 1294.17 691.013 1294.97 700.88 1290.17C705.28 1288.17 706.48 1284.57 703.946 1281.5C700.08 1276.97 679.68 1268.97 666.08 1266.83C657.68 1265.5 651.547 1263.77 649.547 1262.3C647.813 1260.83 645.013 1259.77 643.146 1259.77C641.413 1259.77 639.68 1258.83 639.28 1257.77C638.747 1256.7 637.546 1255.77 636.346 1255.77C630.88 1255.77 622.747 1251.23 620.08 1246.83C616.747 1241.23 616.746 1241.63 620.88 1237.77C626.08 1232.97 634.48 1233.1 640.346 1238.17ZM353.413 1278.97C353.413 1286.43 353.013 1296.43 352.613 1300.97L351.68 1309.1H342.746L342.48 1298.7C342.08 1283.37 342.746 1275.5 344.88 1271.5C346.613 1268.17 350.08 1265.23 352.48 1265.1C353.013 1265.1 353.413 1271.37 353.413 1278.97ZM308.613 1280.57C310.346 1281.23 310.746 1283.77 310.746 1294.03V1306.83L299.146 1305.9C278.88 1304.3 277.413 1303.9 277.413 1300.03C277.413 1295.63 282.346 1290.43 286.613 1290.43C288.346 1290.43 291.146 1289.23 292.613 1287.9C294.88 1285.9 305.146 1279.77 306.346 1279.77C306.48 1279.77 307.413 1280.17 308.613 1280.57ZM540.613 1298.57C540.213 1299.23 539.28 1299.5 538.613 1298.97C537.946 1298.57 537.68 1297.63 538.213 1296.97C538.613 1296.3 539.546 1296.03 540.213 1296.57C540.88 1296.97 541.146 1297.9 540.613 1298.57ZM566.746 1300.83V1304.43L564.88 1301.1C563.146 1297.63 563.413 1295.23 565.547 1296.43C566.213 1296.97 566.746 1298.83 566.746 1300.83ZM513.013 1306.7C512.613 1307.77 512.213 1307.37 512.213 1305.9C512.08 1304.43 512.48 1303.63 512.88 1304.17C513.28 1304.57 513.413 1305.77 513.013 1306.7Z" fill="url(#paint0_linear_1034_297)" fill-opacity="0.5"/>
<path d="M540.746 76.9661C540.346 77.6328 540.613 78.5661 541.413 79.0995C542.08 79.4995 542.746 78.9661 542.746 77.8995C542.746 75.4995 541.946 75.0995 540.746 76.9661Z" fill="url(#paint1_linear_1034_297)" fill-opacity="0.5"/>
<path d="M53.9464 610.7C53.4131 611.5 54.0798 612.966 55.5464 614.033C58.2131 616.033 59.5464 614.566 58.2131 611.1C57.4131 608.7 55.2798 608.566 53.9464 610.7Z" fill="url(#paint2_linear_1034_297)" fill-opacity="0.5"/>
<path d="M61.4131 624.433C61.4131 626.966 62.0798 629.099 62.7464 629.099C63.5464 629.099 64.0798 626.966 64.0798 624.433C64.0798 621.899 63.5464 619.766 62.7464 619.766C62.0798 619.766 61.4131 621.899 61.4131 624.433Z" fill="url(#paint3_linear_1034_297)" fill-opacity="0.5"/>
<path d="M135.413 652.966C135.013 653.633 135.413 654.699 136.08 655.099C138.213 656.433 144.346 654.566 143.413 653.099C142.346 651.366 136.48 651.366 135.413 652.966Z" fill="url(#paint4_linear_1034_297)" fill-opacity="0.5"/>
<path d="M188.08 669.633C188.08 671.233 189.413 671.766 192.88 671.766C198.88 671.766 198.48 668.566 192.346 668.033C189.146 667.766 188.08 668.166 188.08 669.633Z" fill="url(#paint5_linear_1034_297)" fill-opacity="0.5"/>
<path d="M493.413 659.633C493.413 660.433 494.08 661.366 494.746 661.766C495.546 662.166 496.08 661.633 496.08 660.566C496.08 659.366 495.546 658.433 494.746 658.433C494.08 658.433 493.413 658.966 493.413 659.633Z" fill="url(#paint6_linear_1034_297)" fill-opacity="0.5"/>
<path d="M858.48 911.9C854.213 913.5 853.413 915.366 854.613 921.233C855.546 925.766 855.546 925.766 863.946 926.166C873.413 926.566 874.746 925.766 874.746 918.833C874.746 915.766 873.946 914.033 871.946 912.966C867.813 910.833 862.613 910.433 858.48 911.9Z" fill="url(#paint7_linear_1034_297)" fill-opacity="0.5"/>
<path d="M547.146 913.366C541.413 920.566 542.48 926.833 549.68 928.566C555.146 929.9 558.613 929.366 562.48 926.966C566.613 924.3 566.613 916.7 562.48 913.9C558.88 911.366 548.88 911.1 547.146 913.366Z" fill="url(#paint8_linear_1034_297)" fill-opacity="0.5"/>
<path d="M595.013 1117.37C595.68 1119.37 598.746 1120.43 598.746 1118.7C598.746 1118.03 597.813 1116.97 596.613 1116.57C595.28 1116.03 594.746 1116.43 595.013 1117.37Z" fill="url(#paint9_linear_1034_297)" fill-opacity="0.5"/>
<path d="M818.08 1122.43C818.48 1123.1 818.08 1123.77 817.013 1123.77C814.48 1123.77 813.013 1127.37 815.013 1128.57C816.613 1129.63 820.08 1125.63 820.08 1122.83C820.08 1121.9 819.413 1121.1 818.613 1121.1C817.946 1121.1 817.68 1121.63 818.08 1122.43Z" fill="url(#paint10_linear_1034_297)" fill-opacity="0.5"/>
<path d="M600.08 1124.3C600.08 1125.37 601.013 1126.43 602.08 1126.97C603.28 1127.37 604.08 1126.97 604.08 1125.9C604.08 1124.83 603.147 1123.77 602.08 1123.23C600.88 1122.83 600.08 1123.23 600.08 1124.3Z" fill="url(#paint11_linear_1034_297)" fill-opacity="0.5"/>
<path d="M799.013 1145.5C795.813 1148.83 795.146 1152.3 797.68 1151.5C799.813 1150.7 804.746 1142.43 803.146 1142.43C802.48 1142.43 800.613 1143.77 799.013 1145.5Z" fill="url(#paint12_linear_1034_297)" fill-opacity="0.5"/>
<path d="M792.746 1154.43C792.346 1155.1 792.613 1155.77 793.28 1155.77C794.08 1155.77 794.746 1155.1 794.746 1154.43C794.746 1153.63 794.48 1153.1 794.213 1153.1C793.813 1153.1 793.146 1153.63 792.746 1154.43Z" fill="url(#paint13_linear_1034_297)" fill-opacity="0.5"/>
<path d="M784.346 1160.57C781.546 1162.57 780.213 1167.77 782.613 1167.77C784.213 1167.77 790.747 1161.5 790.747 1159.77C790.747 1157.77 787.813 1158.17 784.346 1160.57Z" fill="url(#paint14_linear_1034_297)" fill-opacity="0.5"/>
<path d="M775.813 1174.03C776.747 1174.43 777.946 1174.3 778.346 1173.9C778.88 1173.5 778.08 1173.1 776.613 1173.23C775.146 1173.23 774.747 1173.63 775.813 1174.03Z" fill="url(#paint15_linear_1034_297)" fill-opacity="0.5"/>
<path d="M769.013 1180.83C767.68 1182.17 766.747 1183.9 766.747 1184.7C766.747 1185.37 765.28 1186.7 763.413 1187.5C759.947 1189.1 759.147 1190.97 761.28 1192.3C761.947 1192.7 763.413 1191.77 764.48 1190.03C765.547 1188.43 767.68 1185.63 769.28 1183.9C771.813 1181.1 772.88 1178.43 771.68 1178.43C771.413 1178.43 770.213 1179.5 769.013 1180.83Z" fill="url(#paint16_linear_1034_297)" fill-opacity="0.5"/>
<path d="M649.547 1187.23C649.547 1188.7 649.946 1189.1 650.346 1188.03C650.746 1187.1 650.613 1185.9 650.213 1185.5C649.813 1184.97 649.413 1185.77 649.547 1187.23Z" fill="url(#paint17_linear_1034_297)" fill-opacity="0.5"/>
<path d="M752.08 1201.9C752.08 1202.97 752.746 1203.5 753.413 1203.1C754.213 1202.7 754.747 1201.77 754.747 1200.97C754.747 1200.3 754.213 1199.77 753.413 1199.77C752.746 1199.77 752.08 1200.7 752.08 1201.9Z" fill="url(#paint18_linear_1034_297)" fill-opacity="0.5"/>
<path d="M746.746 1208.57C746.746 1210.83 749.68 1210.43 750.48 1208.03C750.746 1207.1 750.08 1206.43 748.88 1206.43C747.68 1206.43 746.746 1207.37 746.746 1208.57Z" fill="url(#paint19_linear_1034_297)" fill-opacity="0.5"/>
<path d="M608.746 963.366C604.88 965.5 605.146 963.366 605.28 997.633C605.28 1020.17 607.28 1040.43 609.413 1041.77C609.946 1042.17 611.813 1040.3 613.546 1037.77C615.28 1035.23 617.546 1033.1 618.613 1033.1C619.68 1033.1 620.08 1032.17 619.68 1030.57C619.28 1028.97 620.08 1026.97 621.68 1025.5C624.613 1022.83 632.08 1012.17 632.08 1010.57C632.08 1010.03 633.946 1008.3 636.08 1006.7C638.346 1004.97 640.08 1003.1 640.08 1002.3C640.08 1000.97 642.346 997.766 649.413 989.1C650.88 987.233 653.68 983.9 655.413 981.766C657.146 979.5 660.213 975.9 662.08 973.766C666.08 969.1 666.613 962.566 663.146 962.166C661.813 962.166 649.813 961.9 636.48 961.9C618.613 961.766 611.28 962.166 608.746 963.366Z" fill="url(#paint20_linear_1034_297)" fill-opacity="0.5"/>
<path d="M765.146 960.433C761.28 962.566 760.48 964.299 762.747 965.766C763.547 966.166 764.08 967.499 764.08 968.699C764.08 969.766 766.213 973.633 768.747 977.099C771.28 980.566 773.413 984.299 773.413 985.366C773.413 986.433 774.613 988.433 776.213 989.899C777.68 991.233 780.213 994.833 781.68 997.766C789.147 1012.7 803.013 1033.77 806.747 1035.77C808.747 1036.83 809.546 1036.57 810.613 1034.83C811.813 1032.7 811.28 973.366 810.08 966.966C809.147 962.966 804.08 961.366 788.747 960.566C781.413 960.166 773.947 959.499 772.08 959.099C770.213 958.699 767.146 959.366 765.146 960.433Z" fill="url(#paint21_linear_1034_297)" fill-opacity="0.5"/>
<path d="M377.013 1145.63C376.213 1147.63 377.146 1149.1 379.013 1149.1C380.48 1149.1 380.346 1145.5 378.88 1144.57C378.213 1144.17 377.413 1144.57 377.013 1145.63Z" fill="url(#paint22_linear_1034_297)" fill-opacity="0.5"/>
<defs>
<linearGradient id="paint0_linear_1034_297" x1="704.987" y1="538.097" x2="720.987" y2="1234.1" gradientUnits="userSpaceOnUse">
<stop stop-color="#706444"/>
<stop offset="1" stop-color="#706444" stop-opacity="0"/>
</linearGradient>
<linearGradient id="paint1_linear_1034_297" x1="704.987" y1="538.097" x2="720.987" y2="1234.1" gradientUnits="userSpaceOnUse">
<stop stop-color="#706444"/>
<stop offset="1" stop-color="#706444" stop-opacity="0"/>
</linearGradient>
<linearGradient id="paint2_linear_1034_297" x1="704.987" y1="538.097" x2="720.987" y2="1234.1" gradientUnits="userSpaceOnUse">
<stop stop-color="#706444"/>
<stop offset="1" stop-color="#706444" stop-opacity="0"/>
</linearGradient>
<linearGradient id="paint3_linear_1034_297" x1="704.987" y1="538.097" x2="720.987" y2="1234.1" gradientUnits="userSpaceOnUse">
<stop stop-color="#706444"/>
<stop offset="1" stop-color="#706444" stop-opacity="0"/>
</linearGradient>
<linearGradient id="paint4_linear_1034_297" x1="704.987" y1="538.097" x2="720.987" y2="1234.1" gradientUnits="userSpaceOnUse">
<stop stop-color="#706444"/>
<stop offset="1" stop-color="#706444" stop-opacity="0"/>
</linearGradient>
<linearGradient id="paint5_linear_1034_297" x1="704.987" y1="538.097" x2="720.987" y2="1234.1" gradientUnits="userSpaceOnUse">
<stop stop-color="#706444"/>
<stop offset="1" stop-color="#706444" stop-opacity="0"/>
</linearGradient>
<linearGradient id="paint6_linear_1034_297" x1="704.987" y1="538.097" x2="720.987" y2="1234.1" gradientUnits="userSpaceOnUse">
<stop stop-color="#706444"/>
<stop offset="1" stop-color="#706444" stop-opacity="0"/>
</linearGradient>
<linearGradient id="paint7_linear_1034_297" x1="704.987" y1="538.097" x2="720.987" y2="1234.1" gradientUnits="userSpaceOnUse">
<stop stop-color="#706444"/>
<stop offset="1" stop-color="#706444" stop-opacity="0"/>
</linearGradient>
<linearGradient id="paint8_linear_1034_297" x1="704.987" y1="538.097" x2="720.987" y2="1234.1" gradientUnits="userSpaceOnUse">
<stop stop-color="#706444"/>
<stop offset="1" stop-color="#706444" stop-opacity="0"/>
</linearGradient>
<linearGradient id="paint9_linear_1034_297" x1="704.987" y1="538.097" x2="720.987" y2="1234.1" gradientUnits="userSpaceOnUse">
<stop stop-color="#706444"/>
<stop offset="1" stop-color="#706444" stop-opacity="0"/>
</linearGradient>
<linearGradient id="paint10_linear_1034_297" x1="704.987" y1="538.097" x2="720.987" y2="1234.1" gradientUnits="userSpaceOnUse">
<stop stop-color="#706444"/>
<stop offset="1" stop-color="#706444" stop-opacity="0"/>
</linearGradient>
<linearGradient id="paint11_linear_1034_297" x1="704.987" y1="538.097" x2="720.987" y2="1234.1" gradientUnits="userSpaceOnUse">
<stop stop-color="#706444"/>
<stop offset="1" stop-color="#706444" stop-opacity="0"/>
</linearGradient>
<linearGradient id="paint12_linear_1034_297" x1="704.987" y1="538.097" x2="720.987" y2="1234.1" gradientUnits="userSpaceOnUse">
<stop stop-color="#706444"/>
<stop offset="1" stop-color="#706444" stop-opacity="0"/>
</linearGradient>
<linearGradient id="paint13_linear_1034_297" x1="704.987" y1="538.097" x2="720.987" y2="1234.1" gradientUnits="userSpaceOnUse">
<stop stop-color="#706444"/>
<stop offset="1" stop-color="#706444" stop-opacity="0"/>
</linearGradient>
<linearGradient id="paint14_linear_1034_297" x1="704.987" y1="538.097" x2="720.987" y2="1234.1" gradientUnits="userSpaceOnUse">
<stop stop-color="#706444"/>
<stop offset="1" stop-color="#706444" stop-opacity="0"/>
</linearGradient>
<linearGradient id="paint15_linear_1034_297" x1="704.987" y1="538.097" x2="720.987" y2="1234.1" gradientUnits="userSpaceOnUse">
<stop stop-color="#706444"/>
<stop offset="1" stop-color="#706444" stop-opacity="0"/>
</linearGradient>
<linearGradient id="paint16_linear_1034_297" x1="704.987" y1="538.097" x2="720.987" y2="1234.1" gradientUnits="userSpaceOnUse">
<stop stop-color="#706444"/>
<stop offset="1" stop-color="#706444" stop-opacity="0"/>
</linearGradient>
<linearGradient id="paint17_linear_1034_297" x1="704.987" y1="538.097" x2="720.987" y2="1234.1" gradientUnits="userSpaceOnUse">
<stop stop-color="#706444"/>
<stop offset="1" stop-color="#706444" stop-opacity="0"/>
</linearGradient>
<linearGradient id="paint18_linear_1034_297" x1="704.987" y1="538.097" x2="720.987" y2="1234.1" gradientUnits="userSpaceOnUse">
<stop stop-color="#706444"/>
<stop offset="1" stop-color="#706444" stop-opacity="0"/>
</linearGradient>
<linearGradient id="paint19_linear_1034_297" x1="704.987" y1="538.097" x2="720.987" y2="1234.1" gradientUnits="userSpaceOnUse">
<stop stop-color="#706444"/>
<stop offset="1" stop-color="#706444" stop-opacity="0"/>
</linearGradient>
<linearGradient id="paint20_linear_1034_297" x1="704.987" y1="538.097" x2="720.987" y2="1234.1" gradientUnits="userSpaceOnUse">
<stop stop-color="#706444"/>
<stop offset="1" stop-color="#706444" stop-opacity="0"/>
</linearGradient>
<linearGradient id="paint21_linear_1034_297" x1="704.987" y1="538.097" x2="720.987" y2="1234.1" gradientUnits="userSpaceOnUse">
<stop stop-color="#706444"/>
<stop offset="1" stop-color="#706444" stop-opacity="0"/>
</linearGradient>
<linearGradient id="paint22_linear_1034_297" x1="704.987" y1="538.097" x2="720.987" y2="1234.1" gradientUnits="userSpaceOnUse">
<stop stop-color="#706444"/>
<stop offset="1" stop-color="#706444" stop-opacity="0"/>
</linearGradient>
</defs>
</svg>
