<svg version="1.2" xmlns="http://www.w3.org/2000/svg" viewBox="0 0 285 607" width="200" height="426">
	<title>stAthanasius</title>
	<style>
		.s0 { fill: #706444 } 
		.s1 { fill: #f8e79f } 
		.s2 { fill: #c2ab4d;stroke: #c2ab4d;stroke-miterlimit:10 } 
		.s3 { fill: #fffbe8 } 
		.s4 { fill: #f8e79f;stroke: #f8e79f;stroke-miterlimit:10;stroke-width: 3 } 
		.s5 { fill: #c2ab4d } 
		.s6 { fill: #706444;stroke: #706444;stroke-miterlimit:10;stroke-width: .5 } 
	</style>
	<g id="Vector_layer_5_">
		<path class="s0" d="m141.3 189.1c-5.8-0.1-11.5-1.2-17.1-2.3-8.7-1.9-17-5.5-25-10.2-5-3.1-9.6-7-14-11.3-2.9-3-5.6-6.4-8.2-9.8-2.8-4-5.2-8.4-7.5-13-3.1-6-5.2-12.9-7-19.9-0.5-2-0.9-4.1-1.2-6.3-0.6-4-1.2-8.1-1.4-12.2-0.9-12.9 1.1-25.9 4.8-37.8 3.4-10.6 8.6-20 14.7-28 6.1-7.5 13-13.9 20.5-18.4 11.8-7.2 24.8-10.8 37.7-11.7 7.2-0.7 14.4-0.2 21.5 1.4 10.6 2 21 6.1 30.5 12.6 9.7 7 18.7 16.5 25.1 28.6 5.5 10.2 9 22 10.7 34.3 0.5 3.6 0.5 7.3 0.7 10.9 0.2 3.2 0.2 6.4-0.1 9.6-0.7 9.1-2.5 18.1-5.3 26.4-3.2 10.1-8.2 18.9-14 26.5-3.9 5.1-8.5 9.2-13 13.2-15.7 12.6-34.3 17.2-52.4 17.4zm-3.9-175.6c-17.1 1.3-34.4 7.5-48.5 21.1-5 4.9-9.5 10.8-13.3 17.3-3.1 5.4-5.5 11.4-7.6 17.6-2.4 7.8-3.7 16.2-4.2 24.6-0.1 6.1 0.1 12.5 1 18.5 1.9 14.9 7.6 28.6 15.3 39.5 4.8 6.4 10.2 12.2 16.2 16.5 3.5 2.5 7.1 4.7 10.7 6.6 6.2 3.3 12.7 5 19.2 6.7 9.9 2.1 20 2.3 29.9 0.6 14.1-2.2 28.1-8.2 39.8-19.1 3.6-3.8 7.4-7.4 10.4-12.1 6.1-8.7 10.9-19.1 13.5-30.6 1.2-5.8 2-11.8 2.4-17.8 0.1-5.3-0.1-10.6-0.6-15.9-0.4-5.2-1.8-10.2-3-15.2-1.1-4.2-2.6-8.2-4.3-12-2.4-5.4-5.3-10.6-8.6-15.1-2-2.6-4.1-5-6.2-7.5-3.2-3.7-7-6.6-10.7-9.4-4.7-3.5-9.6-6.2-14.7-8.3-6.4-2.8-13.1-4.2-19.7-5.4-5.6-1-11.3-0.8-17-0.6z"/>
		<path class="s0" d="m144.7 189.1c5.8-0.1 11.5-1.2 17.1-2.3 8.7-1.9 17-5.5 25-10.2 5-3.1 9.6-7 14-11.3 2.9-3 5.6-6.4 8.2-9.8 2.8-4 5.2-8.4 7.5-13 3.1-6 5.2-12.9 7-19.9 0.5-2 0.9-4.1 1.2-6.3 0.6-4 1.2-8.1 1.4-12.2 0.9-12.9-1.2-25.9-4.8-37.8-3.4-10.6-8.6-20-14.7-28-6.1-7.5-13-13.9-20.5-18.4-11.8-7.2-24.8-10.8-37.7-11.7-7.2-0.7-14.4-0.2-21.5 1.4-10.6 2-21 6.1-30.5 12.6-9.7 7-18.7 16.5-25.1 28.6-5.5 10.2-9 22-10.7 34.3-0.5 3.6-0.5 7.3-0.7 10.9-0.2 3.2-0.2 6.4 0.1 9.6 0.7 9.1 2.5 18.1 5.3 26.4 3.2 10.1 8.2 18.9 14 26.5 3.9 5.1 8.5 9.2 13 13.2 15.7 12.6 34.3 17.2 52.4 17.4zm3.9-175.6c17.1 1.3 34.4 7.5 48.5 21.1 5 4.9 9.5 10.8 13.3 17.3 3.1 5.4 5.5 11.4 7.6 17.6 2.4 7.8 3.7 16.2 4.2 24.6 0.1 6.1-0.1 12.5-0.9 18.5-2 14.9-7.7 28.6-15.4 39.5-4.8 6.4-10.2 12.2-16.2 16.5-3.5 2.5-7.1 4.7-10.7 6.6-6.2 3.3-12.7 5-19.2 6.7-9.8 2.1-20 2.3-29.9 0.6-14-2.2-28.1-8.2-39.7-19.1-3.7-3.8-7.5-7.4-10.5-12.1-6.1-8.7-10.9-19.1-13.4-30.6-1.3-5.8-2.1-11.8-2.5-17.8-0.1-5.3 0.1-10.6 0.6-15.9 0.4-5.2 1.8-10.2 3-15.2 1.1-4.2 2.6-8.2 4.3-12 2.5-5.4 5.3-10.6 8.6-15.1 2-2.6 4.1-5 6.2-7.5 3.2-3.7 7-6.6 10.7-9.4 4.7-3.5 9.7-6.2 14.7-8.3 6.4-2.8 13.1-4.2 19.7-5.4 5.6-1 11.3-0.8 17-0.6z"/>
		<path class="s1" d="m222.2 98.3c0 3.6-0.2 7.2-0.5 10.7q-0.7 6-1.9 11.8-0.4 1.5-0.8 2.9c-1.3 5-3 9.9-5.1 14.4q0 0 0 0c-2.2 4.8-4.8 9.2-7.6 13.2q-0.7 1.1-1.4 2-1.4 1.9-2.9 3.7 0 0-0.1 0c-1.9 2.2-4 4.3-6.1 6.4q-3.4 3.2-7.1 5.9-3.9 2.7-8.1 5-4.7 2.6-9.6 4.4 0 0 0 0c-3.6 1.2-7.2 2.1-10.8 3.1q-2 0.4-4.1 0.7-6.5 1.1-13.1 1.1-6.6 0-13.1-1.1-2.1-0.3-4.1-0.7c-3.6-0.9-7.2-1.9-10.8-3.1q0 0 0 0-4.9-1.8-9.6-4.4-4.2-2.3-8.1-5-3.7-2.7-7.2-5.9c-2-2.1-4.1-4.2-6.1-6.4q0 0 0 0-1.5-1.8-2.9-3.7-0.7-0.9-1.4-2c-2.8-4-5.4-8.4-7.6-13.2q0 0 0 0c-2.1-4.5-3.8-9.4-5.2-14.4q-0.4-1.4-0.7-2.9-1.2-5.8-1.9-11.8c-0.3-3.5-0.5-7.1-0.5-10.7q0-5.7 0.6-11.3 0-0.1 0-0.3 0.4-3.4 1.1-6.8c0.5-2.7 1.2-5.4 1.9-8.1q0.3-1.4 0.8-2.7c1.1-3.4 2.4-6.8 3.8-10 2.4-5.2 5.1-10.1 8.3-14.4 1.9-2.6 4-5 6.1-7.5q1-1 1.9-2 0.1-0.1 0.2-0.1 0.2-0.3 0.4-0.5 0.2-0.2 0.4-0.3 0 0 0-0.1c2.6-2.4 5.2-4.4 7.9-6.4 4.7-3.5 9.6-6.2 14.7-8.3q1.1-0.5 2.1-0.9 0 0 0.1 0 1.4-0.6 2.8-1c4.8-1.6 9.8-2.6 14.6-3.5q3-0.4 5.9-0.7 2.8-0.1 5.6-0.1 0 0 0 0 2.8 0 5.6 0.1 2.9 0.3 5.8 0.7c4.9 0.9 9.8 1.9 14.6 3.5q1.5 0.4 2.9 1 0 0 0.1 0 1 0.4 2.1 0.9c5.1 2.1 10 4.8 14.7 8.3 2.7 2 5.3 4 7.8 6.4q0.1 0 0.1 0.1 0.2 0.1 0.3 0.3 0.3 0.2 0.5 0.5 0.1 0 0.2 0.1 0.9 1 1.8 2c2.1 2.5 4.2 4.9 6.2 7.5 3.1 4.3 5.9 9.2 8.3 14.4 1.4 3.2 2.7 6.6 3.8 10q0.4 1.3 0.8 2.7c0.7 2.7 1.4 5.4 1.9 8.1q0.6 3.4 1.1 6.8 0 0.2 0 0.3 0.6 5.6 0.6 11.3z"/>
	</g>
	<g id="Layer_7">
		<g>
			<path class="s2" d="m85.8 129.8q-1.3 0-2.5 0.2c0.8-1.1 1.1-2.7 0.7-4-0.2-0.6-0.6-1.2-1.2-1.6-0.4-0.2-0.8-0.3-1.2-0.2 0.7-0.8 2.2-2.6 1.2-3.4-0.4-0.4-2.1 0.5-1.7 0.8 0.6 0.5-0.4 1.8-0.7 2.2-0.5 0.7-1.1 1.3-1.7 1.8-1.2 1.1-2.4 2.1-3.2 3.4-1 1.6-1.3 3.5-1.1 5.3 0.3 1.5 1 3.5 2.8 3.7 0.4 0 0.8-0.1 1.2-0.3 0.1-0.1 0.7-0.4 0.4-0.6-0.8-0.4-1.6-0.9-1.7-1.8-0.2-1.1 0.6-2.1 1.4-2.7 1.6-1.4 3.7-2 5.8-1.9 0.4 0.1 0.9-0.1 1.3-0.3 0.1-0.1 0.6-0.5 0.2-0.6zm-4.2 0.4q-0.1 0.1-0.1 0.1-2 0.6-3.8 1.8c-0.5 0.4-1 0.8-1.4 1.2q0-0.3 0-0.6c-0.1-1.9 0.6-3.7 1.9-5.2 0.7-0.9 1.6-1.6 2.5-2.4q0.1 0 0.2 0.1 0.4 0.1 0.6 0.4c0.4 0.4 0.6 1 0.7 1.5 0.2 1.1 0 2.3-0.6 3.1z"/>
			<path class="s2" d="m76.1 119.4q1.3-0.2 2.7-0.4c0.9-0.1 2.1-0.3 2.6 0.7 0.2 0.5 2.1-0.3 1.9-0.7-0.5-0.9-1.5-1-2.5-1q0.2-0.1 0.3-0.3c1.1-1.4 0.9-3.4-0.2-4.8-1-1.1-2.5-1.7-4-1.5-1.4 0.1-3.9 0.8-3.9 2.5q0 0.3 0 0.6c-1.4-0.4-3.2 0.2-4 1.3-1 1.5 0.2 3.2 1.2 4.3 0.6 0.7 1.4 0.6 2.3 0.3q1.3-0.4 2.6-0.7c0.3 0 0.7-0.1 1-0.3zm-2.3-0.1c-0.5 0.2-1.1 0.5-1.5 0.3-0.7-0.4-1.3-1.5-1.6-2.2-0.2-0.5-0.3-0.9-0.1-1.4 0-0.2 0.2-0.4 0.2-0.6q0.1 0 0.2-0.1-0.1 0 0 0c1.2 0.3 2.1 1.2 2.8 2.2q0.3 0.9 0.8 1.6-0.5 0.1-0.8 0.2zm1.2-6.7c0.3-0.4 0.9-0.4 1.4-0.3 2.5 0.2 4.7 3.4 3 5.7q-0.1 0.1-0.1 0.1-0.4 0.1-0.7 0.2-1 0.1-2 0.3-0.4-0.8-0.9-1.7-0.4-1-0.6-2c-0.2-0.7-0.5-1.7-0.1-2.3z"/>
			<path class="s2" d="m70.7 109.4q1.4-0.4 2.8-0.7 1.6-0.3 3.2-0.6c0.8-0.1 1.7-0.3 2 0.5 0.2 0.5 2.1-0.2 1.9-0.6-0.2-0.6-0.7-0.8-1.2-0.9 0.2-1.5-0.1-3-0.9-4.2-0.8-1.2-2-2.2-3.5-2.2-1.7 0-3.1 1-3.2 2.7q0 0.1-0.1 0.3c-1.3-0.4-2.8-0.1-3.6 1-0.9 1.3-0.4 2.8 0.5 3.8q0.3 0.4 0.7 0.8c0.4 0.4 0.9 0.2 1.4 0.1zm3.1-7.4q0.1-0.2 0.2-0.3 0.1-0.1 0.1 0 0.2 0 0.5 0.1c2 0.9 3.1 3.3 2.9 5.4q-0.5 0.1-1 0.2-0.9 0.2-1.8 0.4c0.2-0.1 0.3-0.3 0.3-0.4-0.2-0.8-0.5-1.6-1-2.2q-0.3-0.8-0.4-1.6c0-0.5 0-1.1 0.2-1.6zm-4.2 3.1q0-0.3 0.1-0.5 0.1-0.1 0.1-0.1c0.2 0 0.4 0.1 0.5 0.1q0.3 0.1 0.5 0.2 0.6 0.3 1 0.8 0.2 0.1 0.3 0.2c0.2 0.8 0.6 1.6 1 2.3q0.1 0 0.1 0-1 0.2-2 0.5c-0.7-0.7-1.4-1.4-1.6-2.3q-0.2-0.6 0-1.2z"/>
			<path class="s2" d="m68.7 95.8c0.2-0.1 1-0.3 1-0.6q0.3-1.6 0.5-3.1 0.2 0.1 0.4 0.1 0.2 0 0.4 0c1.1 2.1 2.5 4.6 5.2 4.2 0.8-0.1 1.5-0.4 2.1-0.8 0.5-0.4 0.7-1 0.8-1.6 0.1-1-0.1-2.1-0.5-3.1q-0.2-0.3-0.3-0.6 1.6-1.1 2.8-2.7c0.2-0.3-0.3-0.3-0.5-0.3-0.4 0.1-1 0.3-1.3 0.6q-0.6 0.9-1.5 1.7c-0.4-0.5-0.9-1-1.4-1.3-0.4-0.2-1 0.1-1.3 0.2-0.1 0.1-0.8 0.5-0.5 0.6 0.7 0.4 1.2 1 1.6 1.6q-0.9 0.5-2 0.6c-1.1 0.2-2.2 0.1-3.2-0.3q-0.3-0.1-0.7 0 0.1-1.8 0.1-3.6c0-0.3-1.9 0.1-1.9 0.6q0.1 3.9-0.6 7.7c-0.1 0.3 0.6 0.1 0.8 0.1zm6.8-4.1q0.5-0.2 1-0.4 0.6 1 0.7 2.1c0 0.4 0.1 0.9 0 1.4q-0.1 0.3-0.2 0.6-0.1 0.1-0.1 0.1c-0.1 0-0.3 0-0.3 0q-0.3 0-0.7-0.2-0.6-0.3-1.1-0.8c-0.7-0.6-1.2-1.5-1.6-2.3q1.2-0.1 2.3-0.5z"/>
			<path class="s2" d="m88.3 59c-1.5 1.1-3.3 1.9-5.2 2.2-2 0.2-4-0.3-5.9 0.4-1.6 0.6-2.8 1.8-3 3.5 0 0.7 0.1 1.6 0.1 2.4-0.5 0.3-0.9 0.6-0.7 1 0.1 0.1 0.3 0.1 0.6-0.1 0 0.5-0.2 1-0.5 1.4-0.2 0.3-0.1 0.4 0.3 0.4 0.4-0.1 0.9-0.4 1.2-0.7 0.3-0.5 0.5-0.9 0.6-1.4q0.8 0.1 1.5 0.2c1 0.2 2 0.6 3 1 0.8 0.4 1.6 1 2.1 1.8 0.3 0.4 0.4 0.8 0.4 1.2q0 0.3-0.1 0.6 0 0.1-0.1 0.2c-0.3 0.1-0.6 0.3-0.7 0.6-0.1 0.4 0.3 0.3 0.6 0.2 1.2-0.5 2.3-1.5 2-3-0.1-0.6-0.4-1.1-0.9-1.5 1.5-0.7 2.7-1.9 3.1-3.5 0.5-1.6 0.1-3.5-1-4.7q1.8-0.8 3.4-1.9c0.2-0.2 0.7-0.5 0.4-0.7-0.2-0.2-1 0.2-1.2 0.4zm-3.1 6.9c-0.1 0.8-0.4 1.5-0.8 2.1-0.2 0.2-0.4 0.4-0.6 0.5-0.1 0.1 0 0.1-0.2 0.2-0.1 0-0.1 0-0.3 0.1q-0.1 0-0.3 0.1-0.6-0.4-1.2-0.7c-1.3-0.6-2.8-1-4.2-1.2q-0.8-0.1-1.6 0 0-0.8 0-1.6c0-0.8 0-1.6 0.3-2.3 0.4-0.9 1.4-0.8 2.3-0.8 1.7 0.1 3.4 0 5-0.4 1.2 1 1.7 2.5 1.6 4z"/>
			<path class="s2" d="m88 49.6q0.5-0.9 1-1.7c0.2-0.4-0.4-0.2-0.5-0.2-0.4 0.1-0.9 0.4-1.2 0.8q-0.1 0.2-0.2 0.5c-0.8-0.4-1.5-0.7-2.4-0.8-1.8-0.2-4.7 1.5-4.1 3.7 0 0.1 0.2 0.1 0.4 0 0.8 1.3 1.7 2.3 2.9 3.2q-0.2 0.5-0.5 1c-0.1 0.4 0.3 0.3 0.6 0.2 0.2-0.1 0.6-0.3 0.9-0.5 0.7 0.4 1.5 0.7 2.3 0.7 1 0 2-0.4 2.7-1.1 0.7-0.5 1.2-1.3 1.2-2.2-0.1-0.9-0.6-1.6-1.2-2.2q-0.9-0.8-1.9-1.4zm-3.3 3.8c-0.9-0.9-1.6-1.8-2.2-2.9q-0.1-0.1-0.2-0.1 0-0.2 0.1-0.4c0-0.1 0.2-0.5 0.3-0.6 0.1 0 0.3-0.1 0.4-0.1q0.6 0 1.2 0.3 1 0.3 1.9 0.9-0.8 1.4-1.5 2.9zm4.2 1.9c0.1 0-0.2 0.1-0.2 0.1q-0.6 0-1.2-0.2c-0.6-0.2-1.3-0.6-1.8-1q0.7-1.6 1.5-3 0.5 0.3 0.9 0.8c0.5 0.4 1 1 1.1 1.7 0.2 0.5 0.1 1.3-0.3 1.6z"/>
			<path class="s2" d="m86.8 42.7c0.4-0.1 0.8-0.4 1.1-0.7q2.2-3 5.2-5.3c0.1-0.2 0.5-0.6 0-0.6-0.4 0-0.9 0.3-1.2 0.6-2.1 1.7-4 3.7-5.7 5.8-0.2 0.4 0.4 0.3 0.6 0.2z"/>
			<path class="s2" d="m107.8 34.8q-0.6-0.7-1.3-1.4-1.9-2.7-3.5-5.6c-0.3-0.5-1.9 0.5-1.8 1 0.5 1.8 1.5 3.3 2.7 4.6q0.2 0.2 0.4 0.4-1-0.3-2-0.6c-1.4-0.5-2.9-1.5-4.4-1.4-1.4 0-2.4 0.7-3.1 1.8-0.8 0.7-1.3 1.7-1.4 2.8 0 0.4 1.6-0.4 1.8-0.8q0.1-0.5 0.3-0.9 0.9 1.2 1.9 2.3c0.8 1.1 1.9 2 2.5 3.3 0.2 0.5 0.4 1.4 0 2-0.4 0.4-1.4 0.4-2 0.4q-0.1 0-0.3 0c-0.1-0.9-0.3-1.7-0.5-2.5 0-0.4-1.7 0.6-1.7 0.9-0.3 2.6-3.4-0.7-4.1-1.6-0.3-0.4-2 0.7-1.7 1 0.7 0.9 1.4 1.8 2.4 2.3q0 1.5 0 3c-0.1 0.8-0.1 1.7 0.3 2.5 0.6 1.4 2.1 1.2 3.2 0.5 1.8-1.2 2.3-3 2.2-5 1.4-0.2 2.7-0.7 3.7-1.8 1.1-1.5 0.2-3.1-0.8-4.3-1.3-1.5-2.7-3.1-3.9-4.7 0.8-0.2 2.1 0.6 2.8 0.8q3.1 1.3 6.4 2 0.1 0 0.2-0.1c0.5 0.5 1.2 1.1 1.4 1.6-0.1 0.1-0.2 0.3-0.2 0.4q0.1 0.1 0.1 0.1c0.1 0.1 0.3 0.1 0.4 0.1q0.1 0 0.1-0.1c0.4 0 1.4-0.5 1.4-0.9 0-0.8-1-1.6-1.5-2.1zm-12.1 7.6q0 0 0 0.1 0 0-0.1-0.1 0.1 0 0.1 0zm-0.4 5.4c-0.9 1.3-1.6-1.3-1.6-1.9q0-1.2 0-2.4 1.1 0.3 2.2 0.3c0.2 1.5 0.2 3-0.6 4z"/>
			<path class="s2" d="m119.7 30q-0.7-0.2-1.3-0.4-0.5-0.2-0.9-0.4 0.1-0.3 0.1-0.7c0.1-0.3-0.7 0-0.8 0q-0.1 0.1-0.3 0.2-0.3-0.2-0.7-0.4-0.7-0.5-1.4-1.1-1.2-1.5-2.4-3 0.2-0.1 0.3-0.2c0 0 0.2-0.1 0.3-0.1q0.2-0.2 0.5-0.3 0.3-0.1 0.7-0.3c0 0 0.2 0 0.2-0.1q0.2 0 0.3-0.1c0.4-0.1 0.9-0.4 1.2-0.8 0.2-0.4-0.4-0.3-0.6-0.2q-2.1 0.8-4 2-0.2 0.1-0.5 0.3-0.9 0.6-1.7 1.3c-0.2 0.1-0.5 0.6-0.1 0.6 0.4 0 0.9-0.4 1.2-0.6q0.2-0.1 0.3-0.3 0.1 0 0.2-0.1 0 0 0 0 1 1.6 2.4 2.8c-0.8 1.3-1.7 2.6-1.8 4.2-0.1 1 0.1 3.2 1.6 3 1.4-0.2 2.8-1.7 3.6-2.8q0.6-0.8 0.9-1.8 0.4 0.2 0.7 0.3c0.5 0.1 1 0.1 1.2 0.5 0.3 0.4 2-0.6 1.8-1-0.3-0.3-0.6-0.4-1-0.5zm-4.9 2.4q-0.4 0.7-0.9 1.3-0.2 0.2-0.4 0.4c-0.1 0-0.3-0.1-0.3-0.2-0.7-0.8-0.7-2.1-0.4-3.2 0.1-0.6 0.4-1.3 0.8-1.8q0.2 0.1 0.4 0.3 0.8 0.6 1.7 1-0.3 1.2-0.9 2.2z"/>
			<path class="s2" d="m127.3 29.4q0 0.4-0.2 0.8c-0.1 0.1-0.2 0.1-0.2 0.2-0.1 0-0.2 0-0.3 0-0.3-0.1-0.5-0.2-0.7-0.4-0.8-0.7-1-2-1.3-3q-0.4-2-0.4-4 0-1.1 0.1-2.1 0-0.1 0-0.3c0.2 0.2 0.4 0.5 0.8 0.6 0.9 0.3 1.9-0.3 2.6-0.8 0.2-0.2 0.4-0.5 0-0.6-0.2-0.1-0.6 0.1-0.9 0.3q0 0 0 0c0 0-0.2 0-0.2 0q-0.3-0.1-0.4-0.3c-0.2-0.3-0.4-0.6-0.6-0.8-0.5-0.6-1.3-0.3-1.8 0.1-0.7 0.4-1 1-1.2 1.8q-0.2 1.4-0.2 2.8c0 1.7 0.3 3.5 0.7 5.2 0.4 1.2 1 2.7 2.5 2.6 1.5 0 3.3-1.3 3.4-2.9 0.1-0.4-1.7 0.3-1.7 0.8z"/>
			<path class="s2" d="m131.6 17.7q0 0.2 0 0.5 0 0.1 0.2 0.1c0.7 4.2 0.5 8.5 0.3 12.6 0 0.5 1.8-0.2 1.8-0.8 0.2-4.4 0.4-8.9-0.5-13.4-0.1-0.3-1.7 0.6-1.8 1z"/>
			<path class="s2" d="m141.4 16.9c-1.2 0.2-2.1 1-2.9 1.9-0.2 0.3-0.1 0.5 0.3 0.4-0.6 1.2-0.9 2.6-1.1 3.9-0.3 1.5-0.1 4 1.9 4.2 0.9 0 1.9-0.4 2.6-1q1.1-0.9 1.5-2.3c0.5-1.8 0.3-4-0.4-5.7-0.3-0.9-0.9-1.6-1.9-1.4zm0.7 7.5c-0.1 0.5-0.3 1.4-0.8 1.7 0 0 0 0-0.2 0q-0.4 0-0.7-0.2c-1.3-0.8-1.2-2.7-0.9-3.9 0.2-1.3 0.5-2.8 1.2-3.9q0.1 0 0.2 0.1c0.5 0.4 0.7 1.1 0.9 1.7 0.4 1.4 0.6 3 0.3 4.5z"/>
			<path class="s2" d="m151.9 16.9c-0.9-0.2-1.9 0.2-2.6 0.7-0.8 0.6-1.2 1.4-1.4 2.3q-0.5 1.4-0.7 2.8c-0.3 1.7-0.4 4 0.7 5.3 1.4 1.6 3.7-0.3 4.7-1.4 0.3-0.3 0.1-0.5-0.2-0.4-0.4 0.1-0.9 0.4-1.2 0.7-0.2 0.2-0.4 0.4-0.6 0.6q0 0-0.1 0c-0.2-0.1-0.3-0.1-0.5-0.1-0.4-0.3-0.7-0.8-0.9-1.3-0.4-1.3-0.4-2.7-0.2-4q0.2-1 0.4-1.9c0.2-0.6 0.3-1.3 0.6-1.9q0-0.1 0.1-0.3c0.3 0.1 0.5 0.1 0.7 0.2 0.6 0.2 1 0.7 1.2 1.2 0.2 0.4 2-0.5 1.7-1-0.3-0.7-0.9-1.3-1.7-1.5z"/>
			<path class="s2" d="m180 28.4q0.1 0.1 0.2 0.2c0.4 0.3 2-0.6 1.8-1-0.2-0.2-0.3-0.3-0.5-0.3q-0.5-0.4-0.9-0.7-0.1-0.2-0.1-0.4c-0.1-0.1-0.2-0.1-0.5 0q-2.8-1.9-5.8-3.2 0-0.2 0.1-0.4c0.1-0.2-0.3-0.1-0.4-0.1q-0.6 0.1-1.1 0c-0.3-0.1-0.6-0.3-0.8-0.4-0.5-0.1-2 0.9-1.6 1.1q0.4 0.2 0.8 0.4 0.5 0.2 1.1 0.4c-1.2 3.5-3 6.7-5.5 9.4-0.2 0.3-0.1 0.5 0.3 0.4 0.4 0 0.9-0.3 1.2-0.7 2.2-2.5 4-5.4 5.3-8.6q2.6 1.3 4.9 2.9-2.9 5-4.8 10.4c-0.1 0.4 0.7 0.1 0.8 0 0.4-0.1 0.8-0.4 1-0.8q1.5-4.4 3.8-8.5c0.1 0.1 0.4 0 0.7-0.1z"/>
			<path class="s2" d="m183.4 30c-0.4 0.1-0.9 0.4-1.1 0.8q-2.7 4.1-5.6 8.1c-0.3 0.4 0.4 0.3 0.5 0.2 0.4-0.1 0.9-0.4 1.1-0.8q3-3.9 5.6-8.1c0.3-0.4-0.3-0.2-0.5-0.2z"/>
			<path class="s2" d="m200 49.5c0.4-0.4 0.8-0.8 1.2-1.1q0 0.1 0.2 0.1 0.8 1 1.5 2.1 0 0.2 0 0.3c0.2 0.3 0.5 0.6 0.8 0.9 0.4 0.3 1.8-0.9 1.6-1.3-2.7-4-5.8-7.7-9.5-10.8-0.3-0.4-1.8 0.9-1.5 1.2q1 1.3 2.2 2.3c-0.8 1.3-1.7 2.5-2.8 3.5-0.5 0.5-1.2 1.1-1.9 1.4-0.8 0.2-1.6-0.1-1.9-0.9 0.1-0.2 0.2-0.3 0.1-0.4-0.8-0.4-1.8-1-2.2-1.9q-0.1-0.4-0.1-0.9c0.5 0 1.1 0.1 1.6 0.6 0.3 0.4 1.8-0.9 1.5-1.3-0.8-0.8-2-0.7-3.1-0.4 0.1-0.5 0.3-1.1 0.4-1.5 0.1-0.8 0.3-1.6 0.5-2.3 0.7-0.6 1.3-1.5 1.7-2.4q0.6 0.5 1.2 1.1c0.3 0.2 0.8-0.3 1-0.4 0.1-0.1 0.8-0.7 0.6-0.9q-1.4-1.2-2.7-2.3-0.7-0.5-1.4-1.1c-0.4-0.3-0.8-0.6-1.3-0.5-0.4 0.1-0.7 0.4-1 0.6-0.1 0.2-0.4 0.5-0.3 0.7q0.1 0.4 0.4 0.7c0 0.1 0.2 0 0.3 0q0.2-0.1 0.4-0.2 0.1 0.1 0.1 0.1 0.7 0.6 1.4 1.1 0.1 0.2 0.3 0.3-1.1 1.2-1.7 2.6-0.2 0-0.4 0.1-0.6 0.1-1.3 0.3c-0.9 0.3-1.7 0.8-2.5 1.4-0.6 0.6-1.4 1.3-1.7 2.1-0.6 1.6 1.1 2.8 2.6 2.6 0.6-0.1 1.2-0.3 1.8-0.6 0 0.5-0.1 0.9 0 1.3 0.3 1.1 1.2 1.7 2.1 2.3q0 0 0 0.1c0.2 1 1.1 1.6 2.1 1.4 1.2-0.2 2.2-1 3.1-1.7 1.5-1.2 2.8-2.6 3.8-4.1 1.3 1.3 2.5 2.7 3.7 4.2q-1.2 0.9-2.2 2c-1.4 1.5-2.6 3.2-4.3 4.4-0.1 0.2-0.7 0.7-0.5 0.9 0.2 0.3 0.8-0.3 1-0.4 1.3-1 2.4-2.3 3.6-3.6q0.7-0.9 1.5-1.7zm-13.4-7.6q-0.2 0.7-0.3 1.5c-0.8 0.3-1.6 0.4-2.3-0.1-0.7-0.4-1.1-1.3-0.6-2 0.4-0.6 1.3-1 2-1.2 0.5-0.2 1.2-0.2 1.7-0.3q-0.3 1-0.5 2.1zm14.5 6.4q0 0 0 0 0 0 0 0 0 0 0 0z"/>
			<path class="s2" d="m207.6 56.9c0.4-0.9 0.5-2-0.1-2.9-0.5-0.7-1.3-1.1-2.2-1-0.4 0.1-0.9 0.5-1.1 0.8-0.2 0.2-0.5 0.7 0 0.6q0 0 0 0c-1.1 0.4-2.1 1.1-3 1.8-0.8 0.6-1.6 1.2-2.3 2-0.5 0.6-1.1 1.6-0.8 2.4 0.4 0.7 1.3 0.8 2 0.8q1.5-0.1 2.8-0.6c1.9-0.7 3.8-2.1 4.7-3.9zm-7.4 2.9c-0.7-0.3-0.7-1-0.3-1.5 0.2-0.5 0.6-0.8 1.1-1.1 1.3-1 2.9-2.1 4.6-2q0.1 0 0.2 0c0.4 0.4 0.6 1.1 0.5 1.6-0.1 1.3-1.1 2.1-2.2 2.6q-1 0.4-2.1 0.6c-0.6 0-1.3 0.1-1.8-0.2z"/>
			<path class="s2" d="m202.6 66.2c-0.6 1-0.6 2.6 0.7 3.2 0.3 0.2 0.9-0.2 1.2-0.4 0.1-0.1 0.7-0.6 0.4-0.7-1-0.5-1.1-1.8-0.7-2.6 0.5-0.9 1.5-1.2 2.4-1.4 1.1-0.3 2.3-0.6 3.2 0.2 0.8 0.6 1.2 1.6 1.1 2.6 0 0.4 0.7 0.1 0.9 0 0.2-0.1 0.9-0.4 0.9-0.8 0.1-1.2-0.5-2.5-1.6-3.1-1.3-0.8-3.2-0.2-4.5 0.3-1.5 0.5-3.1 1.2-4 2.7z"/>
			<path class="s2" d="m212.4 73.8c0.4-0.2 0.9-0.4 1.1-0.7q0.1 1 0.4 2 0.1 0.4 0.1 0.9c-1.5 0.7-3.3 1.2-4.9 1.4-1 0-2-0.2-2.7-1-0.6-0.9-0.5-2-0.1-2.9 0.1-0.4-0.8-0.1-0.8 0-0.4 0.1-0.8 0.4-1 0.8-0.4 1-0.5 2.3 0.3 3.2 0.8 0.9 2 1.1 3.1 1 2.2-0.2 4.3-0.9 6.2-1.8q0.3 2.2 0.6 4.4c0 0.5 1.7-0.3 1.7-0.8 0.1-3.3-0.2-6.7-1-9.9 0-0.2-0.3-0.2-0.6 0-0.5 0.1-1.3 0.6-1.3 0.9q0 0.1 0 0.1-0.9 1-1.6 2.2c-0.2 0.3 0.4 0.2 0.5 0.2z"/>
			<path class="s2" d="m216.3 85q0 0-0.1 0c-0.4-0.2-0.9-0.4-1.4-0.5-0.2 0-0.6 0.2-0.8 0.6q-1.9 0.1-3.6 0.6c-1 0.3-2 0.6-2.7 1.4-0.6 0.8-1 1.7-0.4 2.6 1 1.4 2.5 2.3 4.4 1.9 0.9-0.2 1.7-0.7 2.5-1.3 0.7-0.5 1.5-1.1 2.1-1.8 0.5-0.7 1.1-1.6 0.8-2.5-0.2-0.4-0.4-0.6-0.6-0.8-0.1-0.1-0.1-0.2-0.2-0.2zm-0.7 3.3q0 0 0 0 0 0 0 0c-0.1 0.1-0.2 0.2-0.2 0.2q-0.5 0.3-0.9 0.6c-0.5 0.4-1.1 0.8-1.8 0.9-1.3 0.4-2.5-0.1-3.5-1.1q-0.3-0.3-0.6-0.7-0.2-0.2-0.2-0.4 0-0.1 0-0.2 0 0 0.1 0 0.2-0.2 0.5-0.2 0.5-0.2 1.1-0.3c1.6-0.4 3.2-0.6 4.9-0.5q0.2 0.1 0.3 0.3c0.4 0.4 0.5 0.9 0.3 1.4z"/>
			<path class="s2" d="m218 96.8c-0.2-0.5-1.3 0.9-1.4 1.1q-0.3 0.7-0.6 1.5 0 0 0 0-0.5 0.1-1 0.2-3.2-2.8-6.4-5.5c-0.4-0.4-1.4 1-1.4 1.4q0.1 1.2-0.1 2.5c0 0.4 0.4 0.1 0.6 0 0.3-0.2 0.7-0.7 0.8-1.1q0-0.1 0-0.2 2.1 1.7 4.2 3.5-0.5 0.2-0.9 0.4c-1 0.3-2 0.7-2.9 1.3-0.8 0.5-1.7 1.4-1.6 2.4 0 0.3 0.7-0.2 0.7-0.3 0.3-0.2 0.6-0.6 0.7-0.9q0.1-0.1 0.2-0.2 0.5-0.2 1-0.4 1.2-0.6 2.4-1 0.7-0.2 1.5-0.4 0.3 0.3 0.6 0.6c0.3 0.2 0.7-0.2 1-0.6q0.1-0.1 0.2-0.1 0.7 0 1.5 0.1c0.4 0.1 1.2-0.9 1.2-1.3q0.2-1.5-0.3-3z"/>
			<path class="s2" d="m218.1 107.1c-0.2-0.1-0.5 0.1-0.7 0.3-2.6 0.2-5.3-0.3-7.7-1.3 0.2-0.3 0.2-0.5 0.1-0.5-0.5-0.3-1.1-0.3-1.7-0.2-0.2 0.1-1.5 1.3-1.1 1.5 1.9 1 3.9 1.6 6 1.9q1.6 0.2 3.1 0.2 0.4 0 0.7-0.1c0.4 0 0.7-0.2 0.9-0.4 0.2-0.2 1-1.1 0.4-1.4z"/>
			<path class="s2" d="m217.3 113.2c0.1-0.2 0.6-0.7 0.3-0.9-0.1-0.1-0.3-0.2-0.5-0.1q-0.1 0.1-0.2 0.1-2.1 0-4.3-0.3 0-0.2-0.1-0.3c-0.1-0.2-0.3 0-0.6 0.2q-2.1-0.4-4-1 0-0.1-0.1-0.1-0.5-0.2-1-0.3c-0.4-0.1-1.5 1.4-1.2 1.5q0 0.1 0.1 0.1 0 0 0 0 2.7 0.9 5.5 1.4c0.4 1.1 0.5 2.4 1.1 3.3-1.9 0.4-4 0.2-5.8-0.5-0.6-0.2-1.6 1.4-1.3 1.5 2.7 1 5.5 1 8.2-0.2q1.1 2.1 2.4 4.2c0.2 0.3 1.1-0.8 1.2-0.9q0.1-0.3 0.2-0.5c0.2-0.2 0.3-0.6-0.1-0.5q-0.1 0-0.2 0.1-1.8-3.1-3.4-6.2 1.4 0.1 2.9 0c0.3 0 0.7-0.4 0.9-0.6z"/>
			<path class="s2" d="m214.7 125.1c-0.1-1-0.8-1.8-1.4-2.5-0.2-0.2-0.9 0.4-1.2 0.9q-1.2-0.6-2.4-1.1c-0.9-0.3-1.9-0.7-2.9-0.7-1.1 0-2.2 0.8-2.6 1.8-0.8 1.8 1.3 3.4 2.6 4.1 1.6 0.9 3.7 1.5 5.5 0.7 0.7-0.3 1.4-0.8 1.9-1.5 0.5-0.3 1.2-1.2 0.9-1.4q-0.2-0.2-0.4-0.3zm-1.4 1.7q0 0.1 0 0.1c-0.1 0.2-0.2 0.1-0.1-0.1q-0.1 0-0.1 0.1-0.3 0.1-0.6 0.1c-1.5 0.3-3.2-0.2-4.5-0.9-0.9-0.6-2.3-1.6-2.5-2.8q-0.2 0.1-0.5 0c0.1 0 0.3 0 0.5-0.1q0-0.1 0-0.2 0-0.1 0-0.2c0-0.2 0.8 0.3 0.4 0.5q0.4 0 0.8 0.1c0.8 0.2 1.6 0.5 2.3 0.8q2.3 0.9 4.3 2.3 0 0.1 0 0.2 0 0 0 0 0.1 0 0.2 0c-0.1 0-0.1 0-0.2 0.1z"/>
			<path class="s2" d="m208.7 131.8c-1.7-1.3-4.5-2.9-6.6-1.3-0.7 0.5-1.3 1.3-1.3 2.1 0 0.7 0.3 1.3 0.7 1.8 0.2 0.3 1.6-1 1.3-1.4-0.3-0.5-0.6-1-0.6-1.5q0.3-0.1 0.5-0.1c1.1-0.1 2.1 0.3 3.1 0.8 0.9 0.5 2 1.2 2.6 2.1 0.4 0.5 0.6 1 0.6 1.6q0 0.2 0 0.3-0.1 0-0.1 0c-0.4 0-0.8 0.5-1 0.8-0.1 0.1-0.5 0.7-0.2 0.7 0.6 0.1 1.2-0.3 1.6-0.7 0.6-0.5 1.1-1.2 1.1-2 0.2-1.3-0.7-2.4-1.7-3.2z"/>
		</g>
	</g>
	<g id="Vector_layer_4_">
		<g id="Layer_5">
			<path class="s3" d="m132.6 349.5c0 0 9.4 6.1 20-6.5 10.5-12.6 19.8-31 23.4-50.6 3.6-19.6 2.7-21.7 5.1-34.5 2.4-12.8 1.8-17.2 12.5-33.4 10.6-16.2 15.6-22.3 24.2-35.3 8.5-13 18.5-21.9 18.5-21.9 0 0 5.1 3.4 8 6.8 2.9 3.4 3.3 7.5 7.6 4.4 4.3-3.1 12-9.2 14.4-17.2 2.5-8.1 2.1-9.3-2.1-13.4-4.2-4.2-13.1-11.1-20-16.2-7-5.1-12.9-11.1-14.8-11.9-1.8-0.8-4.5-0.9-6.8 1.9-2.4 2.8-6.7 6-15.3 13.3-8.5 7.4-19.1 15.6-26.2 21.2-7.2 5.6-16.3 18-20.8 26-4.4 8-10.6 16.7-15.7 34.1-5.2 17.3-9.8 34.5-12 45.6-2.2 11.2-4.5 18.2-6.3 25.2-1.8 7-4.3 14-4.3 14 0 0-11.3 0.3-16.2 2.1-4.9 1.8-11.2 7.5-8.6 14.8 2.5 7.3 5.3 10.4 11.9 16 6.6 5.5 23.5 15.5 23.5 15.5z"/>
		</g>
		<g>
			<path class="s4" d="m199.1 246.1c0-16.1-4.9-24-22.1-23.6-2-0.4-8.6-0.7-6 2.8 4.2 3.1 10.5 2 14.5 5.8 1.4-1.2 2.7-2.5 4.3-3.5-1.4 1.6-2.8 3.3-3.9 5q0 0 0 0-0.1 0-0.1 0-1.5 2-3.2 3.9-0.1 0.2-0.3 0.4c-5.6 6.6-14.2 9.5-20.5 15.1q0.5 1 1.1 2c7.5-2.4 14-7.3 20.9-11-6 5.1-12.8 10-20.8 11.2q0.1 0.1 0.1 0.2c1.4 0.5 3.7 1.4 5.1 1.6 6.4-2.6 12-6.7 18.1-10-5.1 4.3-10.6 8.5-17.2 10.2 1.6 0.3 3.1 0.6 4.7 0.9 5-2.6 10-5.4 15.2-7.6-1.7-2.3-9.3 6.1-14.5 7.8 5 0.5 9.2-1 13.6-3.2-1.6 1.2-3.4 2.2-5.3 3 5.8-0.4 11-3.1 16.5-4.6 0-2.1 0-4.3-0.2-6.4z"/>
			<path class="s4" d="m180.3 166.3c0.6-0.5 0.4-1.4-0.4-1.7-9.2 3.7-18.6 6.5-27.2 11.4 8-6.6 18.5-9.3 28-13 0.2-0.5 0.2-1.2-0.2-1.7-11 2.9-22.2 5.3-31.2 12.6 7.8-8.8 20.2-11.4 31.3-13.5 0.3-0.9-1-0.8-1.2-1.4-11.7 2.5-24 3.7-33.5 11.8 8.3-10 21.9-10.7 33.8-12.7-1.7-1.8-4.8 0-7 0-0.3 0.3-0.6 0.3-0.8 0.2-15.4 0.6-29.1 8.4-40.4 18.5-9.1 8.6-7.8 23.2-9.9 34.5 14.4-4.6 27-22.7 38.6-32.7q0 0 0 0c5.5-5.9 13.8-7.5 20-12.4z"/>
			<path class="s4" d="m160.4 155.8c-1.3 1.3-2.4 2.7-3.9 3.8 2.8-0.9 5.7-1.4 8.6-1.8 0.5-0.9 1-2.3 0.3-3.2q0 0 0 0c-1.5-1.2-3.9 0-5 1.2z"/>
		</g>
		<g id="Layer_4">
			<g>
				<path class="s0" d="m63.2 590.3c4.1 13.3 23.5 10.8 43.1 5.6 23.9-6.4 34-16.6 34-16.6 0 0 0-2.2 0-4.3-20.3-1.4-36.6-9.6-47.4-17-12.9 8.6-32.5 23.3-29.7 32.3z"/>
				<path class="s0" d="m193.9 558.5c-12.6 8.3-29.7 16.4-48.2 16.6 0 2.1 0 4.1 0 4.1 0 0 10.1 10.3 34 16.7 19.6 5.2 39 7.7 43.1-5.6 2.7-8.8-16-23.1-28.9-31.8z"/>
			</g>
		</g>
		<g>
			<path class="s5" d="m130.8 117c0.7 1.3 1.2 1.1 1.8-0.2q0.1-0.1 0.2-0.2c0.6-0.5 0.8-1.2 1.3-1.7 0.9-1 2.1-1.7 3.2-2.4q0.1-0.1 0.2-0.2 0 0 0 0c0 0.2 0.3 0.4 0.5 0.2q0 0 0-0.1 0 0 0.1 0c0.5-0.7 1-1.3 1.4-2 0.8-0.1 1.7-0.3 2.3-0.8 1.8-2.8-1.5-2.5-3.2-1.5-1.6 0.9-2.6 2.5-4.4 3.2-1.3 0.6-1.4 2.2-2.4 3.2-0.6 0.6-1.6 1.5-1 2.5z"/>
			<path class="s5" d="m143.7 108.9q0.1 0.4 0.5 0.7c0.6 0.5 1.5 0.7 2.2 0.7 0.4 0.4 1.7 3.1 2 2q0 0 0 0c1.3 0.8 2.5 1.5 3.5 2.6 0.5 0.5 0.7 1.2 1.3 1.6q0.1 0.2 0.2 0.3c0.6 1.3 1 1.5 1.8 0.2 0.7-1.3-0.9-2.1-1.5-3.1-0.5-0.7-0.7-1.7-1.4-2.3-1.9-0.6-8.1-7.4-8.6-2.7z"/>
			<path class="s5" d="m137.5 114.6c-0.4 0.5-0.3 0.4-0.6 0.8 3.9 5 8.3 5 12.3 0-0.4-0.4-0.3-0.3-0.7-0.8-3.5 1.4-7.4 1.4-11 0z"/>
			<path class="s5" d="m214.2 276.5c-5.5-35.8-13.9-42.9-15.5-42.2-0.8 0.1 3.5-1.2 1.3 41.6-1.7 33.6 2.5 80.1 12.4 106.2-32.1-32.7-17.8-83.7-23.5-124.9-2.5 0.7-5.1 1.6-7.7 1.8-2 11.6-2.4 23.4-4.9 34.9-3.7 15.5-9.7 31.3-19.1 44.4-8 10.9-18.2 18.4-32.8 6.4q-0.1 0-0.1 0c-0.2 0.6-11 18.7-17.2 26-1.7 2-5.1 0.5-4.7-2.1 0.3-1.7 0.9-3.3 1.5-4.5q0 0 0 0 0.1-0.2 0.2-0.4 0 0 0 0 0.1 0 0.1-0.1c0 0 0.1 0 0.1-0.1q0.1-0.2 0.3-0.5 0 0 0 0 0 0 0 0c0-0.1 0-0.1 0.1-0.2q0 0 0-0.1 0 0 0 0c0.3-0.4 0.6-0.9 0.8-1.3q0.1 0 0.1 0c0.1-0.2 0.1-0.4 0.3-0.5q0 0 0 0 0-0.1 0.1-0.2 0 0 0 0c4.6-6.4 9-12.9 11.5-20.4-2.5-1.7-37.4-24.7-10.7-38.3 0 0 0.1-0.2 0.1 0 0.3-0.2 13.3-1.3 14.6-1.3 10.6-25.4-3.4-59.8-1.2-87.6q0 0 0 0c3.6-1.4 7.4-2.7 11-4.5 0.4 6.9 0.6 13.8 0.8 20.7q3.8 1.2 7.7 1.8c3.2-16.5 9.9-32 18.4-46.4q0 0 0 0 0.9-1.6 1.8-3.1 0 0 0 0c1.2-1.2 2.3-2.3 3.5-3.3q0 0 0 0 0.1-0.1 0.2-0.2 0 0.1-0.1 0.1c3.2-3.4 21.3-9.5 18.8-14.1q0 0 0-0.1 0 0-0.1-0.1c0.6-0.8 0.6-2-0.1-2.7 0.8-1 0.3-2.6-0.9-2.9-0.7-3.7-6.4-2.5-9-2-0.3-5.4-1-10-1.8-15.3q0 0.3 0.1 0.7c-1.1-8.7-2-17.5-4-26 1 0.2 1 2.7 1.5 3.6-1-7.4 1.4-14.1 1.8-21.4-1.3 2.7-0.6 5.9-1.9 8.5-2.9 1.8-2.3 5.4-4.5 7.7-5 4.9 2.1 12-0.9 17.6-2.9 7.6 3 16.5-3.3 23.1-0.2-1.2-0.9-2.5-0.5-3.7q0 0 0 0c0.2-0.2 0.4 0 0.7-0.1 2.8-34.9-31.1-37.8-32.8-10.6-0.7 6.7-7 15.4-0.8 21.3 1.5 4.4-0.7 9-0.5 13.7 0.4 1.2 1.4 3.2 0.3 4.2-4.7-3.2-1.9-11.5-4.4-16.3-0.4-3.9 1.2-7.9-0.5-11.6-0.4-1.8 0.4-3.5 1.2-5.1 3.3-9.4 0.3-19.9 0.6-29.7 0.9-2.8-0.9-4.6-2.2-6.9-1.5-3.4-2.2-7.2-4-10.5q0 0 0 0-0.2-0.5-0.3-0.9c2 18.5-2.2 43.5-2.7 65.8q0-0.5 0-1c-0.4 7.8-0.7 15.6-1 23.3-41.3 15.8-31.5 84-41 120.1q0-0.2 0-0.5c-1.7 14.4-3.9 28.7-5.3 43q0 0 0 0.1c0.2 4.6 7 4.4 9.5 7.4 1.7 50.5 1.4 100.9 0.4 151.4q0 0 0 0c0.1 1.8 0.5 39.2-0.8 47.8 11.8 0.9 22.7 6.9 33.2 12.2q0.3 0.2 0.6 0.4c23.5 13.2 52.1 13.4 75.1-0.4 9.9-5.9 19.6-10.9 26.8-12.9-1.7-55-2-116.6-1.2-173 4.4 4.6 4.8 4.5 10.1 1.2 1.6-1.1 4.1-1.7 4.6-3.7-1.4-7-9.1-96.2-10.2-103.3zm-8.9 27.3c0 0.5 0.1 1 0 1.5-1.4-9.3-1.8-18.8-1.3-28.3 0.4-6.6 0.5-13.3 0.1-20 2.1 15.5 0.8 31.2 1.2 46.8zm4.3 69.7q0.2 0.6 0.4 1.1-0.3-0.5-0.4-1.1zm2.2 5.1q0-0.1-0.1-0.1 0.1 0 0.1 0.1 0 0 0 0zm-86.3-100.5q-0.1 0.2-0.1 0.4 0-0.2 0-0.3 0-0.1 0.1-0.1zm72.4 90.9c0.5 53.8 1.3 107.8-1.2 161.7-4.1-53.4-13.4-109.3 1.2-161.7zm-21.2 24.7c0.4-4.4 0.9-8.8 1.8-13.1 2.6 37.9 5.5 75.9 3 113.8-4.1-33.3-5.9-67.2-4.8-100.7zm-7.3 122.4c0.5-10.5 2.3-20.9 4.5-31.2 4 15.1 8.2 39.5-8.4 48 5.8-3.3 3.2-11.3 3.9-16.8zm-50.1 29.1c12.3 3.6 25.5 0.9 37.8-1.4q0 0 0 0 0 0 0.1 0 0 0 0 0v-0.1h0.1q0 0 0 0 0 0 0 0c6.8-1.9 12.5-6.9 19.5-8.6q-2.6 1.2-5 2.7 0 0 0 0 0 0 0 0-0.1 0-0.1 0c-15 12.7-36.1 15.5-53.8 6.9q0.7 0.2 1.4 0.5zm-15.9-84.7c0.4-26.7 2.3-53.3 4.1-79.9 5 37.5 0.9 76.3-3 113.8q-0.1 0-0.1 0c-0.2-11.3-1.3-22.6-1-33.9zm20.1-272.1c-0.2 0.3-1.8 3.2-3.5 9.4-2.4 9.2-3.2 18.7-2.3 28.1 0.8 8.3 2.4 17.7 4.1 35.1-3.3-21.4-11.6-49.4-3-70.5-18.4 1.9-30.9 25.6-31.7 28.3 8.6-28.9 33.9-34.3 36.4-30.4zm34.9-30.5c1.3-1.9 4.5-4.9 7-3.3q0 0 0 0c0.7 0.9 0.2 2.3-0.3 3.2-2.9 0.4-5.8 0.9-8.6 1.8q1-0.8 1.9-1.7zm-22.9-33.7q0.3-0.2 0.6-0.3-0.6 0.3-1.1 0.6 0.2-0.1 0.5-0.3zm-14.6 85c1-4.3 1.6-8.7 2.2-13.1 1.5-10.5 9.6-20.7 20.2-27.5 12-7.9 27.1-11.5 33.8-11.5 1.2 0 2.5 0 3.3 1 0 0-24.5 1.8-34.5 12.7 10.4-7.7 35.8-15.5 35.7-10-9.3-0.2-26.2 5.5-32.3 13.1 3.4-2.5 8.3-5.3 11.8-7.1q3.8-2 7.9-3.3c5.3-1.7 13.6-3.8 12.7-0.2-3-0.8-6.3 2.1-9.2 2.8-6.9 2.6-14.1 4.9-19.8 9.9 8.9-4.8 18.4-8.3 27.8-11.9 4.6 0.8-3.3 5.1-3.3 5.1q0 0-0.4 0.2c-13 6.4-23.7 12.4-33.8 26.5-4.6 6.3-12.3 11.8-22.7 15.9q0.2-1.2 0.6-2.6zm-2.9 46.1q0 0 0-0.1 0 0.1 0 0.1 0 0 0 0zm-43.3 97.7c-1.5-1.3-3.1-2.4-4.6-3.7 9.4 4.9 18.6 10.2 26.2 17.7 1.6-7.2 6.6-12.4 10.7-18.2 2.1-3.4 3.5-7.1 4.9-10.8q-0.1 0.7-0.2 1.4c-0.7 3.4-2 6.7-3.7 9.8-15.7 27-5.5 23-33.3 3.8zm13.4 16c14.6 52.3 5.3 108.3 1.2 161.7-2.5-53.9-1.7-107.9-1.2-161.7zm13.7 4.2q0 0 0 0 0 0 0 0 0 0 0 0zm-14.7 164.9c1.4 1.3 2.8 2.8 4.3 4.2q-2.2-1.9-4.3-4.2zm24.6 21.9c-5.9-3.1-13.5-10.8-20.2-17.5 33.6 30.9 79.7 19.2 110.4-5.8-2.2 2.8-37.6 51-90.2 23.3z"/>
		</g>
		<g>
			<path class="s6" d="m279.6 473.7h-0.1c-19.7-95.8-36.7-192.5-59.1-287.7 4.9-6.6 10.4-12.7 16.6-18.1 4.5 3.2 6.9 10.4 11.9 12.3 9.6-0.3 26-24.3 17.4-31.4-10.9-10.3-23.9-18.3-35-28.4-7-5.9-14.1 7.3-19.6 10.7-6.6 5.8-13.4 11.2-20.2 16.8-4.5-3.7-9.2-7-14.3-9.8 1.6-19.7 11.3-38.8 7.1-58.8-8.9-45.7-73.7-45.7-82.5-0.1-4.3 20 5.4 39.2 7 58.9-50.2 28.5-48.1 71.1-59.4 121.1-13.3 71.7-29.6 142.8-42.9 214.5 0 0.3-0.1 0.7-0.1 1 18.9 13.5 45.2 25.6 68.4 33.1v0.1q0.6 0 1.2 0.1c1-50.4 1.3-100.8-0.4-151.2-2.5-3-9.3-2.8-9.5-7.4q0-0.1 0-0.1c1.5-14.3 3.6-28.6 5.3-43q0 0.3 0 0.5c9.5-36-0.3-104.3 41.1-120.1 0.6-17.3 1-34.9 3.8-52.1 0.3-5 3-10 2.1-15-1.7-4.2 0.6-10-1.5-14.2-0.1-2.3-0.6-4.5-0.8-6.8q0.1 0.4 0.3 0.9 0 0 0 0c1.8 3.3 2.5 7.1 4 10.5 1.3 2.3 3.1 4.1 2.2 6.9-0.3 9.8 2.8 20.4-0.6 29.7-0.8 1.6-1.6 3.3-1.2 5.1 1.7 3.7 0.2 7.7 0.5 11.6 2.1 4.8 0.3 10.3 3 15 0.7 1.8 1.8 1.7 1.9-0.2-1.8-5.5 1.6-10.9 0.6-16.2-5.8-6.7-1.5-14.1-0.1-21.5 0.7-26.2 35.4-25.6 32.8 10.6-0.2 0-0.5-0.1-0.7 0.1q0 0 0 0c-0.4 1.2 0.3 2.5 0.5 3.7 6.3-6.6 0.4-15.5 3.3-23.2 3-5.5-4.1-12.6 0.9-17.5 2.2-2.3 1.6-5.9 4.5-7.7 1.3-2.6 0.6-5.8 1.9-8.5-0.3 7.3-2.7 14-1.8 21.4-0.5-0.9-0.5-3.4-1.5-3.6 2.8 13.5 4.6 27.2 5.8 41 2.6-0.5 7.1-0.8 8.9 1.2 13.8-11.6 28-22.5 41.1-34.8 1.9-1.4 4.2-4.1 6.7-2.8 6.8 5.8 13.8 11.4 20.9 16.8 12.6 9.6 24.3 14.5 11.9 31.2q0 0 0 0c-1.3 2.1-2.8 4-4.5 5.7-2.6 2.3-5.8 5.2-9.4 4.8-0.4-0.3-0.7-0.7-0.9-1.1q0 0 0 0c-2.7-3.9-5.9-7.3-9.2-10.5q0.3-0.3 0.7-0.6 0 0 0 0c7.8-6.9 17.8-12.2 28.5-11.9-16.9-3.3-31.2 12.1-41.9 23.3-12.6 14.3-20.9 31.7-32.8 46.6-2.5-2-5.6-2.6-8.7-2.9q0 0 0 0c-3.9-0.3-18.8-3.3-13.6 4.7 4.3 3.1 10.1 2.5 14.4 5.5q0 0 0.1 0-0.5 0.4-0.9 0.7 0 0.1 0 0.1c-6.6 7-15.4 11.8-23 17.4q0 0 0 0c-0.6 0.9-0.9 2-0.6 3.2q0 0 0 0c0.3 0.6 0.7 1.1 1.1 1.5q0 0 0 0c5.3 3.9 12.4 4.4 18.8 4.2q-0.1 0-0.1 0c-3.1 29.4-7.2 61.7-28.8 83.8q0 0 0 0c-13.6 15.2-27.2 4.5-11.1-5.9 6.7-3.9 15.5-6.6 19.6-13.8 0 0-11.6 0.5-27.3-18.5-1.5-1.8-0.7-3.5-0.7-3.4v0.1c-0.1 0.1-5.6-0.6-8.8-0.6 4.3-10.9 6.5-22.6 9.5-33.9v0.1c7.6-30.4 13-62.3 31.2-88.6-1.2 1-2.3 2.1-3.5 3.3q0 0 0 0-0.9 1.5-1.8 3.1 0 0 0 0c-8.4 14.4-15.1 29.9-18.4 46.4-3.2-0.5-7.4-1.6-7.4-1.6 1 22.6-3 48.6-10.9 71.2-1.3 0-14.3 1.1-14.6 1.2q0 0.1-0.1 0.1c-12.1 2.5-17.7 19.7 6.5 35.7 2.8 1.9 5.7 3.8 8.5 5.9 4.5 3.3 11.6 8 15.7 8.2 5.8 0.3 11.7-2.6 19.7-13.5 9.4-13.1 15.4-29 19.1-44.4 2.5-11.5 2.9-23.4 4.9-35 2.6-0.2 15.6-3.6 19.4-5.3 0-6 0.7-15.5-2.2-20.5q0 0 0 0 0 0 0 0c1 1.5 1.9 3.2 2.6 4.8 1.6 3.4 2.6 7.1 3.5 10.8 0.1 0.4 0.2 0.8 0.3 1.3h0.1q0 0.1 0 0.2 0 0 0 0c10.3 42.8 11.1 87.1 19.6 130.2-2.1 2.2-5.4 3.1-7.8 4.9-2.8 2.2-5-1.4-7-3-0.6 41.7-0.8 83.7 0.4 125.4 3.2-0.1 57.4-21.4 69.6-33-0.1-0.3-0.2-0.7-0.2-1zm-246.9-14.2c-4.6 0.6-18.3 7.9-19 0.2 3.4-14.2 6-28.8 9.7-43-0.5 42.8-19.9 46.7 16.9 40.5-2.5 0.7-5.1 1.5-7.6 2.3zm30-123.9c-3.2 24.2-2.4 48.6-5.9 72.7q0 0.1 0 0c-0.3-28.7 3.1-57.5 6.9-86-0.3 4.5-0.6 8.9-1 13.3zm44.4-149.4c-13.9 2.5-26.5 10.5-36.3 20.6q0 0 0 0 0 0 0 0c-4.4 5.5-7.5 12-9.9 18.6 1.3-11.6 4.9-23.5 15.3-30.1q0 0 0 0c8.7-6.7 19.9-10.1 30.9-9.1zm26.3-111.4c9.8-7.2 11.4-5.2 20.8 0.9-1.6 0.6-3.4 1-4.6 2.2q0 0-0.1 0-0.2 0.2-0.4 0.5 0 0 0 0c-5 6.6-6.7 16.4-2.4 23.8 0.6 3.5-4.8 4.8-6.8 2q0 0 0 0 0-0.1 0-0.1c-0.3-0.3-0.6-0.7-0.6-1.2 4.6-8.2 3.5-25.6-7.9-26.9q1.1-0.5 2-1.2zm-8.7 37c-2.4-4.3-5.7-11.7-7.7-22.3 4.4-7.6 18.7-14.4 22.3-2.9-2.7-2.4-5.9-5.9-10-4.6-2.2 0.4-12.2 5.5-4.1 2.9 3.5 7.4 8.8 3.2 14.2 2.2 0.8 2.7 0.7 10.5-1.9 14.7-1.4 2.3 1.8 2.7 0.8 4-2.2 2.6-4.5 5-6.3 6.9-2.1 2.2-5.8 1.8-7.3-0.9zm0.6-27q1.1-0.4 2.2-0.9c-0.2 4.4 7.4 4.3 7.2-0.1 1.1 0.8 2.1 1.7 3.1 2.6-0.2 0-0.5 0.2-0.9 0.5-3.6 2.4-8.6 2.7-11.1-1.6-0.2-0.2-0.3-0.3-0.5-0.5zm11 28.3c-0.8 0.5-1.5 1.1-2.1 1.7q0 0.1 0 0.1c-0.9 0.7-2.2 4.5-3.3 2-0.3-1.8 2.5-4.5 3.8-5.8q0 0 0-0.1 0.6-0.4 1.4-0.7c0.2-0.4 0.6-0.8 1.2-1.2q0 0 0 0c1.4-1.3 6.4-3.3 4.6 0.5q0 0 0 0 0 0 0 0-0.3 0.2-0.6 0.3 0 0 0 0c-0.5 0.4-1.1 0.3-1.7 0.4-0.2 0.4-0.4 0.8-0.6 1q0 0.1 0 0.1-0.4 0.5-0.8 1 0 0 0 0 0 0-0.1 0 0 0 0 0 0 0.1 0 0.1 0 0.1-0.1 0.1c-0.1 0-0.2 0-0.3-0.1q0 0 0-0.1-0.1 0-0.1-0.1 0 0 0 0-0.1 0.1-0.2 0.1 0 0 0 0 0 0 0 0 0 0.1 0 0-0.5 0.4-1.1 0.7zm12.9 2.3q-0.7 0.6-1.3 1.3 0 0 0 0c-3.2 4.3-8.4 2.3-11-1.4 0.3-0.4 0.2-0.4 0.5-0.7 3.1 1.1 6.5 1.5 9.6 0.5 0.8-0.3 1.8-0.7 2.4 0.2q-0.1 0-0.2 0.1zm6.3 1.1c-0.3 0.9-0.9 1.8-1.6 0.9-0.7-0.7-1.3-1.8-1.8-2.5q0 0-0.1 0c0-1.4-1-2.5-2.4-2.5h-0.8q0 0 0 0-0.1 0-0.2-0.1c-0.6 1-1.7-1.6-2-1.9q0-0.1-0.1-0.1 0 0 0 0c-0.6 0-1.1-0.1-1.6-0.4q0 0 0 0-0.4-0.1-0.6-0.3c-1.4-4.2 2.9-1.6 4.7-0.4q0 0 0 0c1.8 1.3 4.6 3.2 5.2 5.2 0.6 0.6 1.4 1.2 1.3 2.1zm14.1-26.2c0.2 2.1-4.9 14-8.2 21-1.3 2.6-4.7 3.2-6.8 1.2l-7-7.3c0 0 2.3-1.8 1.1-3.7-2.9-4.5-3-10.6-1.9-14.4 5.3 1.1 10.7 5.2 14.2-2.2 8.3 2.7-1.9-2.5-4.1-2.9-4.1-1.2-7.3 2.2-10 4.6 4.1-11.7 18.4-4.4 22.7 3.4q0 0.2 0 0.3zm-18.1-5.8c0.7 3.9 7.3 3.4 7.2-0.6q1.1 0.5 2.2 0.9c-0.4 0.5-0.8 1-1.2 1.5-1.7 2-4.3 2.8-6.8 2-1.6-0.5-3.4-1.2-4.6-1.9 1-0.9 2.1-1.8 3.2-2.6q0 0.3 0 0.7zm-19.3 263.8c-9.3-6.7-20.5-12.2-28.6-20.5-18.6-21.4 9.1-29.2 26.9-25.6 4.2 6.9 9.9 13.1 16.9 17.2q0 0 0 0c3.6 2.1 7.4 3.6 11.6 4.4-6.7 10.3-29 8.9-26.8 24.5zm67.2-95.9c-0.1 0.1-4.5 3.5-16.8 4.8q2.1-0.8 3.9-2 0 0 0.1 0c0.5-0.3 1.1-0.7 1.6-1.1-3.1 1.5-6.1 2.9-9.4 3.5q0 0-0.1 0c-1.8 0.4-3.7 0.5-5.7 0.2 5.9-1.7 11.3-4.6 16.1-8.3-7.4 2.1-14 10.5-22.3 7.2 7.5-1.1 13.9-5.9 19.6-10.7-6.6 3.5-12.6 8.3-19.8 10.6-1.8-0.8-4.5-0.7-5.4-2.7 0 0.1 0.2 0.1 0.2 0.2 8.7 0.2 16.1-6 22.5-11.1-7.3 3.5-14 10-22.3 10.9q0 0 0 0-0.2 0-0.3 0c-0.5-1.5 1.3-2.6 2.2-3.4 11.8-7.4 17.4-13 19.7-15.7q2.7-3.1 5.6-6l1.1-1.2c-1.6 1-2.9 2.3-4.3 3.5-3.2-2.9-7.7-3.1-11.6-4.3-11-6 8.4-4.5 12-3.5q0 0 0 0 0.7 0.1 1.1 0.2 0.1 0 0.1 0c0.5 0.1 0.8 0.2 1.1 0.2q0 0.1 0 0c1.5 0.6 2.8 1.4 4 2.3q0 0 0 0 0.5 0.4 0.9 0.8 0.1 0.1 0 0.1c2.9 2.6 6.2 7.2 6.2 25.5zm24.4 7.8c-4.2-13.6-6.6-29-17.4-39.2q0 0 0 0c0 0-0.2-0.1-0.2-0.2q-0.8-0.7-1.6-1.3 0 0 0 0 0 0 0 0c-0.9-0.7-2-1.2-3-1.8 2.7 0.6 5.1 2 7.3 3.6q0 0 0 0 0.1 0.1 0.1 0.1 0 0 0 0 0 0 0 0 0 0 0 0c8.3 6 13 15.5 16.5 24.8 10.7 30.6 11.1 63.5 16.6 95.2-5.2-27.2-10.9-54.5-18.3-81.2zm45.8 203c-10.2-2.3-19.8-7.4-27.8-14-4.2-7.3-2.3-17-3.9-25.1-1.8-21.8-7.1-43.1-9.8-64.8 9.2 25.3 12.9 52 15.2 78.7-0.5 11.4 18.8 17.5 26.3 25.2z"/>
		</g>
	</g>
	<g id="Vector_layer_3_">
		<path class="s0" d="m221 143.2q-0.1 0-0.1 0 0 0-0.1 0-0.5 0-1-0.1c-0.1 0.1-0.3 0.1-0.4 0-0.4 0-0.9-0.1-1.2-0.3-0.9-0.1-1.8-0.2-2.7-0.4-0.1 0.3-0.5 0.1-0.6-0.2-0.2-0.1-0.7-0.1-0.7-0.5 0-0.3 0.3-0.3 0.5-0.3-0.1-1.1-0.6-3.9 0.2-4.8-0.4-0.6 1-0.4 1.3-0.5 1.4 0.1 2.7 0.3 4.1 0.4 0.1-0.6 1.1-0.4 1.1 0.2-0.1 0.1-0.1 0.2-0.3 0.2q0 0.2-0.1 0.3-0.1 0-0.1 0 0 0 0 0.1c0.1-0.2 0.2-0.2 0.4-0.2 0.1 0 0.2 0.1 0.2 0.3 0.1 0.2 0.1 0.5 0.1 0.8 0 0.6 0.4 2-0.3 2.3-0.2 0.1-0.5 0-0.6-0.2 0-0.2 0-0.5 0-0.7 0-0.8-0.2-1.6-0.3-2.4-0.9-0.1-1.8 0-2.6-0.1-0.8-0.1-1.5-0.3-2.3-0.1 0.1 0.2 0 0.6-0.3 0.6-0.1 1.1 0 2.2 0.1 3.4 0.1-0.7 0.1-1.3 0.2-2 0.1-0.3 0.1-0.6 0.3-0.8 0.2-0.1 0.4-0.1 0.4 0.1 0.1 0.6 0 1.2-0.1 1.7-0.1 0.6-0.2 1.2-0.4 1.7 1.7 0.3 3.6 0.5 5.3 1 0.3 0.1 0.4 0.5 0 0.5z"/>
		<path class="s0" d="m226.6 143.7c-0.5-0.3-1-0.7-1.5-1.1q-1.3-0.8-2.5-1.7c-0.2-0.2-0.5-0.4-0.8-0.6-0.2-0.2-0.4-0.4-0.5-0.7q0.3 0 0.6 0.1-0.1-0.1-0.2-0.2c-0.1-0.2 0.1-0.4 0.3-0.3 0.5 0.2 0.9 0.7 1.4 1.1 0.8 0.7 1.8 1.4 2.6 2.1 0.4 0.3 0.8 0.5 1.1 0.9 0.1 0.3-0.2 0.5-0.5 0.4z"/>
		<path class="s0" d="m226.7 143.6c-0.2-0.1-0.1-0.4 0.1-0.6 0.1-0.3 0.4-0.6 0.6-0.9 1.1-1.4 2.5-2.5 4.1-3.2 0.2-0.2 0.5-0.3 0.7-0.6q0.1-0.1 0.3-0.1c0.2 0.1 0.3 0.3 0.2 0.5-0.2 0.3-0.4 0.4-0.6 0.5q-0.1 0.2-0.2 0.3c-1.1 0.8-2.2 1.7-3.2 2.6-0.5 0.5-1 0.9-1.5 1.4-0.1 0.2-0.3 0.3-0.5 0.1z"/>
		<path class="s0" d="m238.8 141.4c-1.3-0.1-2.6-0.3-3.7-1q-0.2 0-0.4-0.1c0.5-0.2 1-0.3 1.6-0.2 0.2-0.2 0.5 0 0.7 0q0.9 0.2 1.8 0.3c0-1.5-0.2-3.1-0.7-4.5-0.4-0.1-0.9 0-1.3 0-0.1 0.6-1.8-0.1-2.3-0.2-0.8 0-1.5 0-2.3 0q0 0-0.1-0.1c0 0.9 0.2 1.8 0.2 2.7 0 0.1-0.1 0.2-0.2 0.2-0.2-0.1-0.2-0.5-0.2-0.7 0 0.4-0.1 0.8-0.4 1q0 0 0 0c-0.4-0.6-0.3-1.5-0.4-2.2 0-0.6-0.1-1.1-0.1-1.7 0-0.3 0.4-0.5 0.6-0.3 0.2-0.9 1.1 0 1.7 0.2 0.3 0.2 0.6 0.1 1 0.1 0.8 0.1 1.6 0 2.3 0.4q0.3 0 0.7 0 0.1 0 0.3 0c0.1-0.4 0.6-0.8 0.9-0.4 0.5 1 0.6 2.2 0.8 3.2 0.5 0 0.4 0.9 0.4 1.2 0 0.5 0.1 1.7-0.5 1.8 0 0.2-0.2 0.4-0.4 0.3zm-6.7-6.3q0.1 0 0.1 0 0.2-0.1 0.4-0.1-0.1 0-0.1 0 0 0 0 0-0.2-0.1-0.3-0.2 0 0.1 0 0.1-0.1 0.1-0.1 0.2z"/>
		<path class="s0" d="m229.6 146c-0.4-0.4 0.3-0.8 0.5-1q0.9-1 1.8-1.9c0.8-0.8 1.9-2.7 3.1-2.5 0 0.4-0.3 0.8-0.6 1q-0.8 0.6-1.5 1.3-0.5 0.5-0.9 1c-0.2 0.2-0.4 0.7-0.7 0.5q-0.6 0.6-1.2 1.2c-0.1 0.2-0.3 0.6-0.5 0.4z"/>
		<path class="s0" d="m234.8 150.4c-1.1-0.6-1.6-1.9-2.7-2.6-0.6-0.6-1.3-1.1-1.9-1.7-0.1-0.1-0.2-0.2-0.2-0.3 0-0.1 0.2-0.2 0.3-0.1q0.2 0 0.4 0.1c0.6-1.1 2.3 1.4 2.8 1.9 0.7 0.9 2 1.2 2.6 2.2 0.1 0 0.2 0.1 0.2 0.1 0 0.1-0.1 0.2-0.1 0.2-0.2 0-0.3-0.1-0.4-0.2 0.1 0.7-0.6 0.7-1 0.4 0 0 0 0 0 0z"/>
		<path class="s0" d="m233.5 158.1c-0.2-0.5-0.1-1.2-0.2-1.7 0-0.9 0.2-1.7 0.3-2.6-0.5-0.3-0.9-0.7-1.3-1.2-0.5-0.1-0.8-0.5-1.2-0.7q-0.9-0.8-1.8-1.6c-0.4-0.3-0.8-0.6-1.1-1-0.3-0.2-0.8-0.4-0.6-0.8 0.3-0.4 0.9 0.2 1.2 0.4q1.1 0.7 2.2 1.5 1.1 0.8 2.3 1.6c0.2 0.2 0.2 0.6-0.1 0.7q0.1 0 0.1 0.1 0.3 0.1 0.5 0.3c0.2-0.2 0.4 0.1 0.5 0.3 0.1 0.2 0.2 0.4 0.1 0.6-0.1 0.3 0 0.7 0 1 0.1 0.8 0 1.7 0.2 2.4q0 0 0 0 0.2 0 0.4 0c0.5-0.8 4.3-0.7 5.4-0.9 0.2-1.4 0.3-2.7 0.5-4 0-0.7 0.1-1.4 0-2-0.7 0.1-1.4 0.1-2 0.3-0.3 0-0.6 0-0.9 0q0 0 0 0c-0.5 0-1.9 0.3-1.9-0.5 0-0.1 0-0.2 0-0.2q0.1 0 0.1 0c0.5-0.2 1 0 1.4-0.1 0.6 0 1.2-0.1 1.8 0 0.3-0.2 0.7-0.2 1-0.3 0.4 0 0.8-0.2 1.2-0.1 0.3 0.2 0.3 0.7-0.1 0.8q0 0 0 0-0.2 0-0.4 0c0.3 0.8 0.2 1.7 0.1 2.5 0 1.1-0.1 2.3-0.2 3.4 0.1 0 0.3 0.1 0.3 0.2 0 0.3-0.3 0.4-0.5 0.3q-0.5 0.1-1.1 0.2c0.2 0.1 0.2 0.5-0.1 0.5-0.6 0.1-1.2 0.1-1.8 0.1-0.8 0.1-1.6 0.3-2.5 0.4-0.4 0-0.8 0.2-1.2 0-0.1 0.3-0.5 0.4-0.6 0.1z"/>
		<path class="s0" d="m216.6 157.6c-0.6 0-1.2-0.1-1.6-0.4-0.1-0.1-0.1-0.2 0-0.2 0.1 0 0.2-0.1 0.1 0 0.8-0.1 1.7-0.1 2.5-0.1 0-0.2 0.1-0.3 0.3-0.3q0.5 0 1.1 0.1c1.1 0.1 2.3-0.2 3.5-0.3q0-0.2 0-0.4c-0.2-0.1-0.2-0.2-0.2-0.3 0.2-0.8-0.1-1.6-0.1-2.4-0.6-0.2 0.2-0.8 0.4-1 0.8-0.9 1.7-1.8 2.7-2.6q-0.1 0 0 0.1 0-0.1-0.1 0 0.8-0.7 1.5-1.3c0.1-0.1 0.3-0.4 0.5-0.2 0.2 0.2-0.6 0.8-0.7 1 0.2 0.1 0.2 0.4 0 0.5-0.4 0.3-0.8 0.5-1.1 0.8-0.8 0.7-1.4 1.4-2.1 2.1 0 0.7-0.1 1.4-0.2 2.2q0.1 0.9 0.1 1.8c0.4 0.6-0.4 1.1-0.6 0.4q-0.2 0-0.4 0.1c-0.1 0.1-0.3 0.2-0.4 0.2-1.8 0-3.5 0.2-5.2 0.2z"/>
		<path class="s0" d="m214.9 157.1c0-0.2-0.1-0.5 0-0.8-0.2-0.1-0.2-0.4-0.2-0.6q0.1-0.7 0.2-1.4c0.1-0.8-0.1-4 0.8-4.2-0.3-0.1-0.7-0.4-0.4-0.6 0.2-0.1 0.5-0.1 0.7-0.2 0.8 0.1 1.6 0.2 2.5 0.3q0.4 0.1 0.8 0.1 0.2 0.1 0.2 0.2c0.2 0 0.4 0.1 0.6 0q0-0.1 0-0.2c0.1 0.1 0.2 0.2 0.2 0.4-0.5 0.7-3.1 0.1-3.9 0.1-0.2 0.1-0.4 0.2-0.6 0.2q0 0.1-0.1 0.2 0.2 0 0.2 0.2 0 0.4 0 0.8c0 1.1 0 2.3-0.2 3.4q-0.1 0.7-0.2 1.5c-0.1 0.3-0.2 0.6-0.4 0.7-0.1 0.1-0.2 0-0.2-0.1z"/>
		<path class="s0" d="m219.4 150.5c-0.3-0.4 0.8-1.1 1-1.3 0.8-1.2 1.8-2.1 2.8-3.1-0.9-0.6-1.9-1.2-2.5-2.2-0.2-0.3 0.2-0.6 0.5-0.4-0.3-0.4-0.6-0.8-1-1.1-0.1 0 0 0.2 0 0.3-0.1 0-0.3-0.1-0.3-0.2-0.1-0.3 0.2-0.7 0.5-0.7 0.2 0 0.5 0.2 0.7 0.4 0.5 0.6 1 1.2 1.5 1.8 0.4 0.5 0.8 1.3 1.4 1.6 0.6-0.1 0.8 0.8 0.2 0.9q-0.6 0.9-1.4 1.6c-0.6 0.5-1.3 0.8-1.8 1.4q-0.2 0.4-0.5 0.7c-0.1 0.2-0.4 0.2-0.5 0.1-0.2 0.1-0.4 0.4-0.6 0.2z"/>
		<path class="s0" d="m222.2 144.8c-0.5-0.2-1-0.6-1.5-1q-0.4-0.2-0.9-0.5c-0.3-0.2 0-0.7 0.4-0.6 0.5 0.3 1.1 0.5 1.6 0.9 0.1 0.1 0.3 0.3 0.3 0.5q-0.1 0-0.3 0c0.1 0.1 0.8 0.8 0.4 0.7z"/>
		<path class="s0" d="m227.5 133.4c-0.5-0.3-1.2-0.9-0.9-1.6-0.4 0.3-0.9 0.4-1.3 0.1 0.5-0.5 1.3-0.8 1.8-1.5 0.1-0.1 0.1-0.1 0.1-0.2 0-0.2-0.1-0.4-0.3-0.4-0.3-0.1-0.9 0-0.9-0.4 0-0.5 0.5-0.4 0.8-0.4 1.3 0.1 2.3 1 1.3 2.2-1.1 1.1-0.8 0.7-0.6 2.2z"/>
		<path class="s0" d="m244.7 146.4c0.1-0.4 0.3-0.8 0.6-1.1 0.3-0.4 0.6-0.9 1.1-1.1q-0.2-0.3-0.4-0.5c-0.4 0.5-0.9 1.1-1.3 1.6-0.2 0.3-0.6 0.6-1 0.5-0.1 0-0.2-0.2-0.1-0.3 0.3-0.8 1.1-1.4 1.6-2.1-1.2-0.2-0.8-1.4 0.3-0.9 0.4 0.2 0.9 0.5 1.2 0.9 0.5 0.4 1 1.7-0.2 1.5-0.4 0.2-0.7 0.6-1 1-0.2 0.2-0.4 0.5-0.7 0.7-0.1 0-0.2-0.1-0.1-0.2z"/>
		<path class="s0" d="m246.9 148.4c-0.1-0.7 0.4-1.3 0.8-1.8-0.1 0-0.2-0.1-0.3-0.3q-0.2-0.2-0.4-0.3-0.1 0-0.1 0 0 0 0 0c0.2 0.3-0.1 0.6-0.3 0.8-0.2 0.2-0.6 0.3-0.7 0-0.2-0.5 0.3-1.2 0.6-1.5 0.1-0.4 0.7-0.3 0.5 0.1q0.1 0.1 0.2 0.1c0.2-0.5 0.8-0.2 1.1 0.1 0.3 0.3 0.4 0.9 0.2 1.3-0.3 0.6-1 1.1-1.6 1.5z"/>
		<path class="s0" d="m210.9 149.9c0-0.4 0-0.8 0.1-1.2-0.4 0.4-0.9 0.2-1-0.3-0.4 0.7-1.4 0.4-1-0.5-0.5-0.2-0.5-0.9-0.5-1.3 0.2-0.8 1-1.3 1.8-1.5-0.3-0.3-0.7-0.5-1-0.6-0.3 0.7-0.9 1.3-1.4 1.9-0.5 0.4-0.9 1.1-1.6 1.3-0.4 0.1-0.7-0.2-0.4-0.6 0.2-0.4 0.6-0.6 0.9-0.9 0.6-0.6 1.3-1.2 1.7-2-0.4-0.1-0.9-0.2-1.2-0.5-0.3-0.2-0.2-0.6 0.1-0.7 0.7-0.1 1.6 0.1 1.9 0.7 0.6 0.3 2.3 1 1.6 1.9-0.4 0.2-0.8 0.2-1.1 0.4-0.4 0.1-0.7 0.5-0.7 0.9q0 0.2 0 0.4c0.3-0.2 0.5-0.4 0.7-0.6 0.5-0.2 0.7 0.3 0.4 0.6 0.4 0.1 0.5 0.4 0.5 0.7 0.3-0.3 0.7-0.6 1-0.1 0.3 0.7-0.3 1.4-0.8 2z"/>
		<path class="s0" d="m229.5 165.5c-0.8-0.2-1.5-1.2-1.2-2.1-0.4 0.3-0.9 0.9-1.4 0.7-0.2-0.1-0.2-0.2-0.2-0.3 0-0.3 0.2-0.4 0.4-0.6 0.4-0.7 1-1.3 1.5-1.9-0.3-0.3-0.6-0.5-0.9-0.8-0.5 0.7-2.4 2.9-2.7 1-0.2 0.2-1.1 0.6-1.2 0.1q0-0.1 0.1-0.2c0.2-0.5 0.8-0.8 1.2-1.2 0.5-0.3 0.7-0.8 1.1-1.1q-0.2-0.2-0.4-0.4c-0.3-0.2-0.1-0.6 0.2-0.6 0.8 0.2 2 0.6 2 1.6 0.4 0.4 0.7 0.7 1.2 1.1 0.3 0.1 0.4 0.4 0.3 0.7-0.4 0.4-1 0.8-1.4 1.3 0.3-0.2 0.7-0.4 0.9-0.1 0.8-0.4 1.7-0.1 2.3 0.5 0.1 0.1 0.1 0.1 0.2 0.2-0.1 0.1-0.4 0.2-0.6 0.1-0.6 0.1-1.7-0.4-1.8 0.4 0.1 0.4 0.4 0.7 0.6 0.9 0.2 0.1 0.3 0.2 0.3 0.3 0.1 0.3-0.2 0.5-0.5 0.4zm-3.9-3.8c0.3-0.1 0.5-0.4 0.7-0.6 0.3-0.4 0.6-0.7 0.8-1.2q-0.1 0-0.1-0.1-0.1-0.1-0.2-0.2-0.4 0.6-0.9 1.1c-0.3 0.2-0.4 0.7-0.3 1q0 0 0 0 0 0 0 0z"/>
		<path class="s0" d="m198.4 154.5c-1-0.4-1-1.5-0.4-2.3 0.8-1.2 3.3-2.5 4.4-1.2 2.5 0.7-2.3 4.6-4 3.5zm0.8-0.4c1.2-0.2 2.8-1.2 3.3-2.3 0.1-0.2-0.1-0.3-0.2-0.3q-0.6-0.1-1-0.4c-0.9 0.1-1.8 0.4-2.5 1-0.8 0.7-1.1 2 0.4 2z"/>
		<path class="s0" d="m202 156.9c-0.7-0.1-0.5-1-0.2-1.4 0.4-0.8 1.1-1.2 2-1.4q0.3-0.7 0.4-1.4c0.1-0.2 0.2-0.1 0.3 0 0.3 0.4 0 0.9-0.1 1.3 0.6-0.1 1.8-0.4 2.2 0.2 0 0.2 0 0.4-0.2 0.5 0 0.1-0.2 0.1-0.3 0.1q0 0 0.1-0.1 0-0.1 0-0.2c-0.7 0-1.4 0.1-2.1 0.2-0.5 0.7-1.2 2.3-2.1 2.2zm0.1-0.5c0.5-0.3 0.8-0.9 1.2-1.4-0.6 0.2-1.1 0.8-1.2 1.4z"/>
		<path class="s0" d="m206.7 160.1c0.5-1.3 2-1.8 2.7-2.9-1.5 0.1-3 0.8-4 1.9-0.3 0.2-0.7-0.2-0.5-0.5q0.2-0.2 0.4-0.4c1-0.8 1.9-1.8 2.7-2.7-1.3 0.5-2.4 1.5-3.4 2.3q-0.2 0.3-0.5 0.4c-0.1 0.1-0.2 0.1-0.3 0.1-0.2-0.2 0-0.5 0.1-0.7 0.8-0.9 1.8-1.8 3-2.3 0.5-0.3 2.2-1 1.8 0.2-0.3 0.6-0.8 1-1.3 1.5 1.3-0.3 3.8-0.8 1.9 1.2-0.8 0.7-1.5 1.6-2.6 1.9z"/>
		<path class="s0" d="m207.4 161.3c0.4-0.9 1.1-1.5 1.8-2.1 0.5-0.5 0.9-1.1 1.5-1.3 0-0.1 0.1 0 0.1 0 0.2 0.5-0.1 1-0.5 1.4-0.8 0.8-1.7 1.8-2.9 1.9z"/>
		<path class="s0" d="m211.1 164.3c0.3-1.3 1.5-1.9 2.5-2.6-0.5-0.4-1.2-0.6-1.8-0.7-0.6-0.1-1.3-0.2-1.9 0.1-0.2 0.3-0.2 0.7-0.1 1.1 0.2 0.5 0.7 0.8 1.1 1.2q0.1 0 0.2 0c-0.1 0.3-0.4 0.4-0.7 0.4-0.4 0-0.7-0.3-1-0.6-1.3-1.9-0.1-3.4 2.1-2.9 0.8 0.2 1.6 0.4 2.3 0.9 0.3-0.1 0.7-0.4 1-0.3 0.7 0.4-0.9 1.2-1.2 1.5-0.8 0.6-1.5 1.5-2.5 1.9z"/>
		<path class="s0" d="m223.3 169.7c0-0.3-0.3-0.6-0.5-0.9-0.3-0.5-0.5-1-0.8-1.5-0.3 0.5-0.7 1-1.1 1.4-0.3 0.3-0.7 0.7-1.1 0.9-0.5 0.1-0.5-0.4-0.4-0.8-0.3 0.3-0.6 0.5-1.1 0.5q0.2-0.5 0.5-0.8 1-0.8 1.9-1.5c0.2-0.2 0.5-0.4 0.8-0.2 0.4 0.4-0.3 0.8-0.6 1.1-0.4 0.4-1 0.8-1.2 1.4 0.2 0 0.3-0.2 0.5-0.3q0.8-0.8 1.4-1.7c0.1-0.1 0.1-0.3 0.1-0.4-0.5-0.5-1.3-0.5-1.9-0.7-0.1-0.1-0.3-0.1-0.4-0.3-0.1-0.3 0.1-0.6 0.4-0.6 1.3 0 2.4 0.9 3 1.9 0.5 0.7 1.2 1.7 0.5 2.5z"/>
		<path class="s0" d="m223.3 171.8c-0.5-0.1-0.9-0.4-1.3-0.7-0.3-0.2-0.6-0.5-0.8-0.9-0.4-0.8-0.1-1.9 0.8-2.1 0.8-0.4 1.7-0.3 2.5-0.2 0.8 0 1.5 0.2 2.1 0.6-1.1 0.5-2.4 0-3.5 0.2-0.4 0-0.9 0.1-1.1 0.4q0 0 0 0 0 0 0-0.1c-0.5 1.2 1.2 1.6 1.7 2.3 0.3 0.1 0.2 0.4 0 0.5-0.1 0.1-0.3 0.1-0.4 0z"/>
		<path class="s0" d="m192.6 158.8c-1-0.8-0.1-2.3 0.9-2.6 1.3-0.4 4.3-0.3 3.6 1.7 0.1 0 0.2 0.1 0.2 0.2 0-0.1-0.1-0.1-0.2-0.1 0 0-0.1 0-0.2 0 0 0 0-0.1 0-0.2-0.1-0.3-0.1-0.7-0.5-0.9 0.1 0.6-0.4 1.1-0.8 1.4-0.8 0.7-2 1.2-3 0.5zm1.2-0.5c0.7-0.1 1.3-0.6 1.8-1.1-0.3-0.1-0.5-0.3-0.6-0.5-0.6 0-1.1 0.2-1.6 0.5-0.7 0.5-0.6 1.2 0.4 1.1z"/>
		<path class="s0" d="m195.7 160.8c-1-0.1-0.7-1-0.3-1.6 0.7-0.7 1.6-1.1 2.6-1.2-0.1-0.1-0.2 0-0.2 0 0.1-0.3 0.5-0.2 0.6 0q0.4 0 0.9 0.2c-0.3 0.2-0.6 0.2-0.9 0.3-0.5 1.1-1.5 2.3-2.7 2.3zm0.2-0.5c0.9-0.2 1.5-0.9 1.9-1.6-0.9 0.1-2 0.6-2.3 1.5 0.1 0.1 0.3 0.1 0.4 0.1z"/>
		<path class="s0" d="m197.7 163.2c-1.8-0.4-0.8-2.3 0.3-2.9q0-0.1 0.1-0.2 0.1 0 0.3 0 0 0 0 0 0.1-0.1 0.2-0.1c-0.1-0.1-0.1-0.2-0.2-0.2q0.3 0 0.5 0c0.5-0.1 1.7-0.5 1.9 0.1 0.4-0.3 1-0.2 1.2 0.3 0.2 0.5-0.3 1-0.6 1.4 0.2 0.2 0.6 0.4 0.4 0.8-0.2 0.4-0.8 0-1.1-0.2-0.8 0.6-1.9 1.2-3 1zm0.6-0.6c0.7-0.1 1.3-0.5 1.8-0.8q-0.2-0.2-0.4-0.4-0.2-0.1-0.3-0.2c-0.3 0-0.6-0.2-0.9-0.4-0.9 0.4-1.9 1.9-0.2 1.8zm2.5-1.4c0.3-0.2 0.5-0.5 0.6-0.8-0.2-0.1-0.4-0.1-0.6-0.3 0 0.3-0.2 0.5-0.4 0.7q0.2 0.2 0.4 0.3 0 0.1 0 0.1zm-1-0.9q0.1 0 0.2 0.1 0-0.1 0.1-0.1 0-0.1 0-0.1-0.1 0-0.3 0.1 0 0 0 0z"/>
		<path class="s0" d="m203.9 167c-0.2 0-0.3-0.2-0.4-0.3-0.4 0-0.6-0.3-0.9-0.4-0.7-0.5-1.3-1.1-2-1.7-0.1 0.1-0.3 0.2-0.4 0.1 0-0.1 0-0.2 0-0.3-0.2-0.2-0.5-0.3-0.7-0.6-0.1-0.2 0-0.5 0.3-0.6 0.4-0.1 0.8 0.3 1.1 0.5 0.7-0.5 2.6-1.5 2.7-2.2-0.3-0.1-0.7-0.1-0.8-0.5-0.1-0.3 0.2-0.5 0.4-0.5 0.9 0.1 2 0.7 2 1.7 0 1.2-0.9 2.1-1.6 3q0.1 0.2 0.1 0.3-0.1 0.2-0.2 0.3c0.2 0.1 0.3 0.3 0.3 0.5 0.2 0.1 0.3 0.3 0.3 0.5 0.1 0.2-0.1 0.3-0.2 0.2zm-1.4-1.9c0.5-0.7 2.4-2.2 1.8-3.2-0.7 1-1.8 1.6-2.9 2.3q0.6 0.5 1.1 0.9z"/>
		<path class="s0" d="m209 170.8c0.2-0.5 0.6-1 0.9-1.3 0.4-0.4 1-0.8 1.1-1.4q0 0 0 0c-0.9-0.2-1.9 0.3-2.8 0.6-0.4 0.1-0.7 0.4-1.1 0.3-0.2 0-0.3-0.2-0.2-0.4q0.3-0.3 0.5-0.5c0.6-0.7 1.3-1.2 1.8-2-0.9 0.5-1.6 1.2-2.3 1.8-0.4 0.3-0.9 0.6-1.4 0.5q0 0 0-0.1c0.2-0.3 0.5-0.6 0.8-0.8 0.8-0.5 1.5-1.2 2.4-1.6 0.5-0.2 1-0.3 0.7 0.4-0.3 0.7-1 1.3-1.5 1.9 0.9-0.4 4.7-1.5 3.3 0.7-0.5 0.8-1.3 1.7-2.2 1.9z"/>
		<path class="s0" d="m210.6 171.7c0.3-0.8 0.9-1.3 1.6-1.8 0.3-0.3 0.7-0.5 1.2-0.6q0 0 0 0c0.1 0.5-0.3 0.9-0.6 1.1-0.7 0.5-1.4 1.1-2.2 1.3z"/>
		<path class="s0" d="m213.9 175c-1.9-0.4-1.6-2.3-0.5-3.5 0.4-0.5 1.1-0.8 1.8-0.7q0.1 0 0.1 0-0.2 0.1-0.4 0.3c-0.6 0.4-1.2 0.9-1.5 1.5-0.6 1.1-0.2 1.9 1 2 1.1 0 2.7-1.3 2.7-2.4q0-0.2-0.1-0.2c-0.4-0.2-0.8-0.3-1.1-0.6 0.6-0.2 1.6 0 1.7 0.7 0.1 1.5-2.2 3.3-3.7 2.9z"/>
		<path class="s0" d="m189.2 163.6c-0.7-0.2-0.7-1-0.2-1.5 0.4-0.6 1.2-0.8 1.6-1.4q-0.2-0.1-0.3-0.3-0.1-0.1-0.1-0.2c-1-0.2-1.7 0.9-2.7 0.9q-0.1 0-0.1 0c0.3-0.8 1.4-1.3 2.2-1.4-0.3-0.1-0.6-0.1-0.9 0-0.5 0-0.6-0.7-0.1-0.8 1.8-0.4 3.8 0.7 2.5 2.7-0.5 0.5-1.1 1-1.7 1.4-0.2 0.2-0.2 0.5-0.2 0.6z"/>
		<path class="s0" d="m190.1 164.5c-0.7-0.1-1.3-0.8-1.1-1.5 0.6 0.2 0.8 0.9 1.1 1.5z"/>
		<path class="s0" d="m188.1 163.1c-0.3 0-0.6-0.3-0.7-0.7q0.3 0.1 0.6 0.2c0.2 0 0.4-0.1 0.6 0q0.1 0.1 0.1 0.1c0 0.3-0.4 0.4-0.6 0.4z"/>
		<path class="s0" d="m191.6 165c-0.1 0-0.3-0.1-0.2-0.2 0.6-0.7 1.4-1.3 2.2-2 0.1-0.2 0.3-0.4 0.6-0.5 0.2 0 0.4 0.3 0.3 0.5-0.4 0.5-1 1-1.5 1.4-0.4 0.4-0.8 0.9-1.4 0.8z"/>
		<path class="s0" d="m193 167.2c-1.1-0.2-0.6-1.6-0.4-2.3-0.3 0.3-1.4 1.3-0.8 0.1 0.5-0.8 1.2-1.7 1.8-2.4 0.3-0.3 0.8 0 0.7 0.3q-0.1 0.2-0.2 0.3c-0.5 1-0.9 2-1 3.1 0.6-0.4 0.9-1.1 1.3-1.6 0.3-0.2 0.6-0.5 0.9-0.8 0.2 0.8-0.3 1.6-0.8 2.2-0.4 0.5-0.9 1.1-1.5 1.1z"/>
		<path class="s0" d="m195.8 169.2c-0.1 0-0.1-0.1-0.1-0.1 0.3-0.7 0.5-1.3 0.7-2-0.3 0.4-0.8 0.8-1.4 0.6 0 0-0.2-0.1-0.1-0.2 0.2-0.5 0.6-0.8 1-1.2 0.3-0.3 0.6-0.6 0.9-0.9q-0.2-0.2-0.5-0.4-0.1-0.1-0.1-0.3c0.2-0.4 0.7 0 1 0.1q-0.1-0.2-0.1-0.4 0 0 0 0 0.3 0.1 0.6 0.2c0.9 0.6 1.5 1.4 2.4 2 0.4 0.3 0 0.9-0.5 0.7q-0.6-0.4-1.1-0.8c-0.4 0.7-1 1.4-1.6 2q-0.4 0.3-0.8 0.6c-0.1 0.1-0.2 0.2-0.3 0.1zm0.2-0.3c0.7-0.8 1.3-1.8 1.7-2.8q-0.1-0.1-0.3-0.2 0 0 0-0.1-0.7 1.6-1.4 3.1z"/>
		<path class="s0" d="m199 171.3c-1.1-0.5-1.8-1.9-0.9-3q-0.2-0.1-0.3-0.2c-0.2-0.1 0-0.3 0.1-0.2q0.2 0.1 0.4 0.2c0.5-0.5 1.2-0.7 1.9-0.8 0.3-0.1 0.7-0.2 1.1-0.1 0.3 0.1 0.4 0.4 0.3 0.7-0.4 0.6-1.2 0.8-1.9 0.9 0.3 0.2 0.6 0.4 0.7 0.8-0.6-0.2-1.2-0.5-1.7-0.9-0.5 0.6-0.2 1.4 0.5 1.7 0.2 0.2 0.4 0.5 0.8 0.4 0 0.5-0.6 0.6-1 0.4zm0.2-2.7c0.6 0 1.1-0.3 1.5-0.6-0.6 0.1-1.2 0.2-1.7 0.5 0.1 0 0.2 0.1 0.3 0.1z"/>
		<path class="s0" d="m202.6 174.6c-2.2-0.6-1.7-2.7 0.4-3.1 0.8-0.1 1.6 0 2.3 0.3 0.4 0 0.7 0.1 1 0.4 0.2 0.4 0.5 0.8 0.6 1.3-0.1-0.2-0.3-0.4-0.5-0.6-0.5 1.4-2.3 2.1-3.8 1.7zm1.3-0.5c0.8-0.2 1.9-0.6 2.1-1.5q-0.4-0.2-0.7-0.3c-0.4 0-0.7 0.1-1-0.1q0 0 0.1-0.1c-2.8-0.5-3.9 2-0.5 2 0 0 0 0 0 0z"/>
		<path class="s0" d="m206.5 179.3c-1.8-0.1-1.1-1.9-0.1-2.5 0.7-0.6 1.7-0.8 2.7-0.7 0.2-0.7 0-1.5-0.6-2q0 0 0 0 0 0 0 0c0 0 0.1-0.1 0.2-0.1 1 0 1.2 1.4 1 2.2 0.5 0.1 1 0.2 1.6 0.1 0.4-0.1 0.9-0.3 1.3-0.6 0 0.3-0.2 0.6-0.4 0.9-0.6 0.8-1.8 0.5-2.7 0.3-0.6 1.2-1.7 2.3-3 2.4zm0.1-0.7c1-0.2 1.7-1 2.2-1.8-1.1-0.1-2.5 0.5-2.7 1.6 0.2 0.1 0.3 0.2 0.5 0.2z"/>
		<path class="s0" d="m184.6 170.2c-0.6 0-1.3-0.9-0.7-1.4 0.2-0.2 0.5-0.1 0.7 0-0.1 0.1-0.2 0.1-0.3 0.1q0 0.1 0 0.2 0 0 0 0 0 0 0 0 0 0 0 0c0.4 1.1 2.1-0.4 2.6-0.9 0.2-0.3 0.3-0.6 0.4-0.9 0-0.1 0-0.3 0.1-0.4q0 0 0 0.1 0 0 0 0c0.7 0.3 0.4 0.9 0.1 1.4-0.7 0.8-1.7 1.8-2.9 1.8z"/>
		<path class="s0" d="m189.2 173.4c0.4-0.9 1.2-1.6 1.7-2.4-0.9 0.3-1.6 1-2.6 1.3-0.4 0.1-0.8-0.3-0.7-0.7 0.4-1.1 1.1-2 1.6-2.9-0.5 0.4-1 0.9-1.5 1.4-0.4 0.3-0.8 0.8-1.4 0.8-0.1 0-0.2-0.1-0.2-0.2 0-0.1 0.2-0.2 0.2-0.3 0.8-0.7 1.6-1.5 2.4-2.1 0.3-0.2 0.6-0.5 1-0.4 0.3 0 0.4 0.4 0.3 0.6-0.4 1-1 1.8-1.4 2.8 0.8-0.4 1.5-1.1 2.4-1.2 0.6-0.1 1 0.4 0.8 0.9-0.1 0.3-0.2 0.6-0.4 0.8-0.4 0.7-0.8 1.4-1.6 1.8q-0.2 0.1-0.3 0.1c-0.2 0-0.3-0.1-0.3-0.3z"/>
		<path class="s0" d="m190.9 175.5c-1.5-0.9 0.2-3.1 1.6-3 0.4-0.5 1.6-0.9 2-0.2 0.3 0.9-0.6 1.8-1.1 2.4-0.7 0.6-1.6 1.2-2.5 0.8zm0.8-0.6c0.9-0.1 2.2-1.4 2.4-2.3-0.2-0.3-0.7 0-0.9 0q0.2 0.1 0.3 0.2c-0.5 0.2-1.1 0.4-1.7 0.8-0.4 0.2-1.2 1.5-0.1 1.3z"/>
		<path class="s0" d="m193.6 176.8c-0.3-0.1-0.4-0.5-0.2-0.7 0.4-0.6 1.1-0.7 1.7-0.6 0.2-0.3 0.3-0.5 0.5-0.8q0-0.1 0-0.1c0-0.1 0.1 0 0.1 0 0.4 0.3 0.3 0.9 0 1.2-0.4 0.7-1.3 1.2-2.1 1zm0.4-0.6q0.1 0 0.1 0 0.1 0 0.2-0.1 0 0 0 0 0.3-0.1 0.5-0.3c-0.2 0.1-0.5 0.2-0.8 0.4z"/>
		<path class="s0" d="m196.1 179.5c-1-0.1-1.6-1.2-1-2.1 0.6-0.9 1.8-0.8 2.8-0.8 0-0.5 0-1.1-0.3-1.5-0.1 0.1-0.1 0.1-0.2 0.2q0-0.2 0.1-0.3 0-0.1 0.1-0.1c0.7 0.2 0.7 1.2 0.7 1.7q0.3 0 0.5 0c0.1-0.3 0.6-0.4 0.8-0.2 0.4 0 0.7 0.4 0.4 0.7q-0.1 0.2-0.3 0.2-0.8 0-1.5 0c-0.2 0.9-1 2.2-2.1 2.2zm0.2-0.7c0.6-0.1 1.1-1 1.4-1.6-0.7 0.1-1.3 0-1.9 0.4-0.5 0.5-0.2 1.2 0.5 1.2z"/>
		<path class="s0" d="m200.7 183.4c-0.8-0.6 1-2.1 1.5-2.4-0.3-0.4-0.2-0.8-0.3-1.2 0-0.1-0.2-0.2-0.3-0.2-1.3-0.4-4.4-0.1-2 1.5 0.3 0.1 0.6 0.3 0.8 0.4 0.1 0.1 0.2 0.1 0.3 0.1 0 0.4-0.5 0.5-0.8 0.4-1-0.3-2.5-1.4-1.8-2.5 0.6-1 1.9-0.9 2.8-0.9 1.6 0 2.1 0.6 1.7 2.1 0.3-0.2 0.5-0.5 0.8-0.5 0.3 0.1 0.2 0.4 0 0.5-0.8 0.7-1.5 1.6-2.2 2.3q0.1 0.1 0.1 0.1c-0.2 0.1-0.4 0.4-0.6 0.3z"/>
		<path class="s0" d="m203.3 185.3c-1.9-0.6-1-2.8 0.4-3.3 0.6-0.8 2.4-0.4 2.5 0.8 0 0 0 0.1 0 0.1-0.1 1.3-1.5 2.8-2.9 2.4zm0.7-0.8c0.8-0.1 1.5-0.9 1.6-1.7-0.6-0.1-1.2-0.2-1.7 0-0.9 0.5-1.3 1.7 0.1 1.7z"/>
		<path class="s0" d="m206.3 187.8c-1.2-0.2-2-0.8-1.7-2.2 0.6-1.8 3.1-3.6 4.8-2.1-1.4 0.6-2.6 0.2-3.6 1.8-0.2 0.4-0.6 1.2 0.1 1.3 0.6 0.2 1.2 0.4 1.4 0.9-0.2 0.3-0.6 0.3-1 0.3z"/>
		<path class="s0" d="m180.1 176.6c-0.5-0.2-0.1-0.8 0-1.2-0.2-0.3-0.3-0.8-0.2-1.2-0.5 0.5-0.9 1.2-1.6 1.4-0.1 0-0.2 0-0.2 0-0.1-0.4 0.1-0.8 0.4-1.1q0.6-0.8 1.4-1.5c-0.5-0.7 0.5-1 1-0.8 0.4-0.3 0.9-0.1 0.9 0.4q1.3 0.7 2.4 1.7c0.3 0.1 0.5 0.4 0.3 0.8-0.2 0.3-0.6 0.3-0.9 0.1-0.2-0.3-0.5-0.6-0.8-0.8q-0.6-0.6-1.3-1c0.6 0.8 0.1 1.9-0.5 2.6-0.2 0.2-0.4 0.6-0.9 0.6zm0.4-1.4c0.2-0.4 0.4-0.8 0.3-1.3-0.3 0.4-0.6 0.9-0.3 1.3z"/>
		<path class="s0" d="m182.7 179.4c-0.7-0.1-1-0.8-0.8-1.3 0.1-0.7 0.5-1.3 0.9-1.8 0.4-0.6 0.9-1.8 1.7-1.8 0.7 0.1 1 0.9 0.9 1.6-0.3 0.8-1.2 0.6-1.9 0.5q0 0.1-0.1 0.2 0.7 0.4 1.3 1c-0.6 0.1-1.1-0.4-1.5-0.7-0.3 0.4-0.6 0.8-0.7 1.4q0 0 0.1 0-0.1 0 0 0 0 0 0 0c0.1 0.3 0.6 0.2 0.8 0.4-0.1 0.3-0.4 0.5-0.7 0.5zm1.2-3.3c0.4-0.1 0.8-0.1 0.5-0.6-0.2 0.2-0.3 0.4-0.5 0.6z"/>
		<path class="s0" d="m198.5 190.3c-0.3-0.1-0.3-0.7-0.4-0.9-2.3 1.5-3.5 0-2.4-2.4-0.4 0.2-1.6 1.1-1.9 0.6q0-0.1 0-0.2c0.4-0.4 0.7-0.7 1-1.1 0.2-0.3 0.4-0.6 0.2-0.9-0.4-0.6-1.1-0.8-1.6-1.1 0.1 0.5 0.6 1.9-0.2 2-0.5 0-0.9-0.4-1.2-0.9-0.3-0.6 0.1-1.3 0.6-1.6q0.1-0.1 0.1-0.2c-0.1-0.1-0.3-0.1-0.4-0.2 0-0.2 0.2-0.1 0.3-0.1q0-0.1-0.1-0.2-0.1 0-0.1 0c-1.9 2.2-3.7 2.2-2.6-1.1-0.4 0.4-0.9 1-1.6 0.9 0 0-0.1 0-0.1 0 0.1-0.6 0.4-1 0.9-1.3 0.4-0.4 1.8-1.9 2-0.6-0.1 0.6-0.6 1.2-0.8 1.9-0.1 0.3-0.2 0.8-0.1 1.2q0 0 0.1 0c0.1 0 0.2-0.1 0.4-0.2 0.7-0.5 1.1-1.2 1.6-1.9 0.5-0.4 1 0.3 0.5 0.7 0.3 0.2 0.5 0.4 0.7 0.6 0.3-0.2 0.6-0.2 0.8 0.1 0 0.2 0 0.4-0.2 0.5 2.3 1.3 1.4 2 0.1 3.5 1-0.5 1.8-1.4 2.7-2 0.3-0.2 0.7 0.1 0.6 0.4-0.1 0.4-0.4 0.7-0.6 1-0.4 0.6-0.7 1.4-0.5 2.1 0.1 0.3 0.4 0.1 0.6 0 0.3-0.1 0.7-0.3 1-0.5 0.3-0.1 0.6-0.4 1-0.1 0.5 0.3 0.2 1.1-0.1 1.5-0.1 0.2-0.2 0.3-0.3 0.4q0.1 0.1 0.1 0.1c0 0 0 0-0.1 0zm-5.2-4.2c0.5-0.1 0-1.4-0.1-1.8-0.3 0.2-0.6 0.5-0.6 0.8 0 0.4 0.3 0.9 0.7 1z"/>
		<path class="s0" d="m179.2 185.4c-0.3 0-0.5-0.3-0.7-0.5-0.1-0.2-0.1-0.4-0.1-0.7-3.1 0.1-4.5-2.7-0.7-3.3q1.1-0.1 2.3 0.2c0.8 0 1.8 0.1 2.5 0.7 0.8 1.4-2.4 2.2-3.3 2.4 0 0.5 0.2 0.9 0.6 1.2-0.2 0-0.4 0.1-0.6 0zm-0.7-1.9c0.1-0.6 0.5-1.2 0.9-1.8-0.3 0-0.5 0-0.8 0q0-0.1 0.1-0.2c-0.9 0-2.2 0-2.7 0.9q0 0 0-0.1 0 0.1 0 0.1c0 1 1.7 1.2 2.5 1.1zm0.8-0.1c0.9-0.2 1.9-0.5 2.6-1.2-0.2-0.1-0.4-0.1-0.5-0.2-0.3 0.3-0.7 0.1-0.9 0q-0.1 0-0.2 0-0.1 0-0.2-0.1c-0.4 0.4-0.7 1-0.8 1.5z"/>
		<path class="s0" d="m181.1 186.6c-0.4-0.5 0.4-0.9 0.7-1.3 0.5-0.5 1.5-1.7 2.3-1.4 0.1 0 0.2 0.2 0.2 0.3 0.2 0.1 0.5 0.3 0.6 0.4q-0.1 0-0.3 0-0.2 0-0.3 0.1-0.7 0.6-1.4 1.1c-0.5 0.3-1.3 1.3-1.8 0.8z"/>
		<path class="s0" d="m187.6 190.3c-0.7-0.3-0.9-1.1-0.9-1.8-2 1.3-2.8-0.6-1.5-2.1 0.3-0.3 1.1-1.4 1.5-1 0.1 0.2 0.1 0.3-0.1 0.4-0.5 0.5-1.7 1.5-1.3 2.3q0 0 0 0 0 0 0 0 0 0 0 0c0 0.1 0.1 0.1 0.1 0.1q0 0 0 0 0 0 0 0c0.7-0.1 1.2-0.6 1.6-1.1 0.3-0.2 0.8 0 0.8 0.4 0 0.5-0.4 1-0.2 1.5 0 0.2 0.1 0.4 0.3 0.5 0.6-0.1 1-0.6 1.4-1 0.3-0.3 0.9-1.2 1.2-0.8 0.1 0.1 0.1 0.3 0.1 0.4-0.4 0.9-1.9 2.4-3 2.1z"/>
		<path class="s0" d="m190.1 192.4c-1.6-0.6 0.8-2.8 1.4-3.4q-0.5-0.4-1-0.7c-0.2 0-0.4-0.2-0.2-0.3 0.1-0.2 0.4-0.2 0.5-0.1 1 0.4 1.9 0.8 2.6 1.5q0.4 0.4 0.6 0.9 0 0 0 0c-0.4 0-0.9-0.2-1.2-0.4-0.5 0.7-1.8 2.5-2.7 2.5zm0.2-0.8c0.7-0.5 1.3-1.1 1.7-1.7q0 0-0.1 0 0.2-0.2 0.3-0.4-0.3-0.2-0.6-0.5c-0.4 0.8-1 1.6-1.3 2.6z"/>
		<path class="s0" d="m184.9 196.4c-0.3-0.4-0.3-1-0.4-1.5-0.1-0.8-0.2-1.5-0.6-2.2-0.9-1.8-3.7-3.4-5.6-3.2q-0.5 0-1-0.2c0.2-0.3 0.6-0.5 1-0.6 2-0.1 4.5 1.2 5.7 2.8 1 1.1 1.1 2.6 1.3 4 0.7 0.3 0.3 1.3-0.4 0.9z"/>
		<path class="s0" d="m184.5 195.6c-2.2 0-4.4-0.6-6.1-1.8-0.9-0.7-1.6-1.6-2.1-2.6-0.3-0.7-0.7-1.4-0.7-2.1 0.2-0.9 1.2-0.6 1.6-0.1 0.2 0.2 0.3 0.3 0.5 0.5-0.4-0.2-0.9-0.4-1.3-0.4-0.1 0.2 0 0.5 0.1 0.7q0.2 0.5 0.5 1.1c0.5 0.9 1.1 1.9 2 2.5 1.3 0.7 2.7 1.2 4.1 1.4 0.8 0.2 1.6 0.1 2.3 0.4 0.4 0.3-0.8 0.5-0.9 0.4z"/>
		<path class="s0" d="m176.8 193.4c0.2-1 0.8-1.6 1.5-2.2 0.8-0.7 1.7-1.5 2.8-1.9 0.2 0 0.4 0.3 0.2 0.5-0.1 0.2-0.3 0.2-0.5 0.3-0.7 0.5-1.3 1.1-2 1.7-0.6 0.6-1.2 1.2-2 1.6z"/>
		<path class="s0" d="m175 192.6c-0.5-0.5 0.8-1.7 1.1-2 0.7-0.9 1.5-1.8 2.3-2.6 0.3-0.2 0.6-0.5 1-0.6 0.3-0.1 0.6 0.2 0.6 0.5 0.1 0.4-0.1 0.7-0.4 1q-0.2 0.2-0.6 0.3c0-0.4 0.2-0.7 0.4-1q0-0.1 0-0.1c-0.9 0.7-1.6 1.7-2.3 2.6q-0.6 0.7-1.1 1.4c-0.3 0.2-0.6 0.8-1 0.5z"/>
		<path class="s0" d="m186.4 199.4c-0.4-0.5-0.6-1-0.8-1.7-0.2-0.5-0.5-1.1-0.6-1.7-0.1-0.9 0-1.6 0.8-0.5 1-0.3 2.1 0.2 3.1 0 0.3-0.1 0.7-0.1 0.9 0.2 0.3 0.4-0.1 0.8-0.5 0.8-0.7 0.9-1.4 1.7-2 2.6 0 0.5-0.6 0.7-0.9 0.3zm0.4-1.3q0.6-0.9 1.2-1.7c-0.6-0.2-1.3-0.2-1.9-0.4 0.3 0.7 0.5 1.4 0.7 2.1z"/>
	</g>
</svg>