<svg width="487" height="850" viewBox="0 0 487 850" fill="none" xmlns="http://www.w3.org/2000/svg">
<path d="M148.276 192.228L167.825 223.181L180.858 219.923L192.262 223.181L211.811 239.472L317.704 233.771L339.697 206.075L350.287 180.01L355.174 143.354L345.399 100.997L323.406 70.8585L290.824 49.6799L255.798 41.5343L215.07 46.4217L177.6 65.9711L155.607 89.5934L142.574 120.547L139.316 154.758L148.276 192.228Z" fill="#F8E79F"/>
<path d="M291.638 161.275V140.096L201.222 136.838V161.275H291.638Z" fill="#F8E79F"/>
<path d="M225.57 596.078L225.316 596.443L224.366 596.835C224.834 596.642 225.302 596.45 225.784 596.277L225.839 596.229H225.557C225.564 596.195 225.564 596.14 225.57 596.078Z" fill="#F8E79F"/>
<path d="M273.384 598.872L273.653 599.01L273.384 598.865V598.872Z" fill="#F8E79F"/>
<path d="M292.167 593.786C288.375 595.658 286.159 601.061 284.947 605.445L283.984 604.867C290.054 608.563 296.021 612.403 302.175 615.301C302.863 612.548 305.616 608.418 309.745 609.107C311.122 609.795 311.81 611.86 313.875 611.172C319.216 608.88 323.931 605.961 328.831 603.339L328.349 603.594C327.014 589.925 305.87 583.641 292.167 593.786Z" fill="#F8E79F"/>
<path d="M173.469 604.241L171.074 602.775C175.148 605.266 179.14 607.944 183.786 609.107C187.227 609.107 190.669 607.73 194.11 609.795C194.798 610.483 194.798 612.548 195.486 612.548C202.789 610.483 208.859 605.92 215.033 601.935C213.657 602.85 212.211 603.786 210.787 604.688C203.353 588.087 176.538 586.869 173.469 604.241Z" fill="#F8E79F"/>
<path opacity="0.64" d="M167.715 600.848L168.355 601.185L167.715 600.841V600.848Z" fill="#C2AB4D"/>
<path d="M225.57 596.078C226.08 589.883 226.128 584.439 225.405 581.39C225.357 581.184 225.323 580.998 225.281 580.791C198.494 578.947 179.505 574.17 166.978 569.69C167.082 579.752 167.378 590.751 167.715 600.813L168.355 601.157L168.685 601.35L169.745 601.962C170.193 602.231 170.64 602.499 171.08 602.775L173.476 604.241C176.538 586.869 203.353 588.087 210.793 604.722C212.218 603.786 213.629 602.85 215.04 601.969L215.845 601.453L216.534 601.013C217.077 600.675 217.621 600.324 218.165 600.015L218.433 599.863C218.942 599.56 219.452 599.264 219.961 598.982L220.436 598.735C220.883 598.494 221.338 598.253 221.813 598.046L222.418 597.757C222.838 597.558 223.258 597.358 223.685 597.172L224.373 596.89L225.323 596.498L225.57 596.078Z" fill="#F8E79F"/>
<path opacity="0.64" d="M225.57 596.078C226.08 589.883 226.128 584.439 225.405 581.39C225.357 581.184 225.323 580.998 225.281 580.791C198.494 578.947 179.505 574.17 166.978 569.69C167.082 579.752 167.378 590.751 167.715 600.813L168.355 601.157L168.685 601.35L169.745 601.962C170.193 602.231 170.64 602.499 171.08 602.775L173.476 604.241C176.538 586.869 203.353 588.087 210.793 604.722C212.218 603.786 213.629 602.85 215.04 601.969L215.845 601.453L216.534 601.013C217.077 600.675 217.621 600.324 218.165 600.015L218.433 599.863C218.942 599.56 219.452 599.264 219.961 598.982L220.436 598.735C220.883 598.494 221.338 598.253 221.813 598.046L222.418 597.757C222.838 597.558 223.258 597.358 223.685 597.172L224.373 596.89L225.323 596.498L225.57 596.078Z" fill="#C2AB4D"/>
<path d="M273.549 580.2C273.467 580.585 273.384 580.97 273.288 581.37C272.469 584.873 272.648 591.549 273.384 598.845L273.653 598.989C274.499 599.416 275.339 599.856 276.179 600.311L276.729 600.614L278.677 601.701L279.675 602.279C280.171 602.561 280.659 602.85 281.155 603.146C282.098 603.704 283.041 604.275 283.984 604.846L284.947 605.425C286.159 601.04 288.388 595.637 292.167 593.765C305.87 583.641 327.014 589.925 328.329 603.601L328.81 603.346L330.187 602.61L330.875 602.259C331.316 589.601 331.687 575.292 331.701 563.165C313.387 572.006 293.739 577.761 273.549 580.2Z" fill="#F8E79F"/>
<path opacity="0.64" d="M273.549 580.2C273.467 580.585 273.384 580.97 273.288 581.37C272.469 584.873 272.648 591.549 273.384 598.845L273.653 598.989C274.499 599.416 275.339 599.856 276.179 600.311L276.729 600.614L278.677 601.701L279.675 602.279C280.171 602.561 280.659 602.85 281.155 603.146C282.098 603.704 283.041 604.275 283.984 604.846L284.947 605.425C286.159 601.04 288.388 595.637 292.167 593.765C305.87 583.641 327.014 589.925 328.329 603.601L328.81 603.346L330.187 602.61L330.875 602.259C331.316 589.601 331.687 575.292 331.701 563.165C313.387 572.006 293.739 577.761 273.549 580.2Z" fill="#C2AB4D"/>
<path d="M471.997 206.657C471.914 206.513 471.846 206.368 471.777 206.217C471.777 206.217 471.777 206.175 471.777 206.162C469.423 203.03 467.358 204.407 467.358 204.407C467.358 204.407 469.423 198.9 465.982 196.147C462.54 193.394 463.229 193.394 463.229 193.394C463.229 193.394 462.54 189.265 458.411 189.265C457.258 189.24 456.122 189.553 455.144 190.164C454.166 190.775 453.388 191.659 452.905 192.706C452.905 192.706 446.022 189.953 444.645 194.083C443.269 198.212 438.451 211.978 437.074 214.731C435.698 217.484 434.321 217.484 434.321 212.666C434.321 207.848 432.945 202.342 428.815 202.342C424.686 202.342 423.309 203.03 423.997 209.224C424.686 215.419 421.933 225.743 420.556 231.249C419.18 236.755 421.933 248.456 421.933 248.456C421.933 248.456 419.868 247.079 417.803 250.52C415.738 253.962 412.297 260.156 412.297 262.221C412.28 263.404 412.515 264.577 412.985 265.662C412.985 265.662 378.572 306.958 376.507 307.646C374.738 308.238 367.429 273.536 356.293 252.303C349.059 237.657 342.493 226.115 332.279 220.643C350.108 200.905 359.982 175.255 359.989 148.657C359.989 88.2205 309.745 39.2228 247.801 39.2228C185.857 39.2228 135.614 88.2205 135.614 148.657C135.624 175.801 145.899 201.936 164.377 221.82C164.205 221.944 164.026 222.074 163.854 222.212C154.445 228.31 141.292 244.519 130.817 270.48C124.581 285.904 121.635 296.786 120.252 303.95C117.141 300.612 84.7512 265.593 86.0589 264.286C87.3666 262.978 87.4355 260.156 83.9941 252.585L83.8496 252.275C83.3913 251.674 83.0376 250.999 82.8034 250.28C81.4269 247.891 80.0504 246.749 79.0524 246.191C82.2528 240.988 82.1014 230.987 80.8969 226.775C79.5204 221.957 76.8843 218.199 75.7349 207.848C75.611 206.705 75.4527 205.701 75.2738 204.806C75.1866 203.549 75.1109 202.268 75.0467 200.965C75.0271 200.437 74.9462 199.913 74.8058 199.403C73.0438 197.902 70.9377 197.4 68.2535 198.247C68.0719 198.295 67.8828 198.309 67.696 198.288C67.5996 198.357 67.5102 198.439 67.4207 198.515C67.4207 198.515 65.4088 199.775 65.3262 200.965C64.886 201.686 64.841 202.194 64.7227 203.03C64.0344 208.536 64.7227 212.666 62.6579 212.666C60.5931 212.666 57.1518 201.654 56.0574 192.706C56.0574 192.541 56.0092 192.376 55.9886 192.211C55.9679 192.045 55.9473 191.963 55.9404 191.825C55.8395 191.132 55.7225 190.458 55.5894 189.802C55.259 189.223 54.7222 188.652 54.3712 188.074C52.444 187.462 50.6614 186.126 48.4796 186.794C47.5849 187.069 47.344 186.429 46.8484 185.975C43.6893 183.07 38.7062 183.38 36.4418 186.828C35.4236 188.304 34.2286 189.649 32.8835 190.834C30.6811 192.899 28.8365 195.26 29.6555 198.646C29.7365 198.963 29.7575 199.292 29.7175 199.616C28.8413 200.673 28.0756 201.817 27.4324 203.03C25.5879 206.829 24.4591 210.243 30.6535 230.203C35.2924 245.138 48.0185 253.907 54.1303 257.376C53.442 258.346 52.9671 260.686 55.087 266.323C59.2166 277.335 64.7227 275.27 64.7227 275.27C64.7227 275.27 66.4158 282.752 70.7932 295.712C81.0552 330.022 94.1942 352.095 105.826 365.771C117.458 379.446 127.699 384.732 132.173 385.42C134.064 385.673 135.988 385.509 137.81 384.939L136.991 391.402C136.364 396.116 135.614 401.842 134.788 408.47C128.965 455.273 119.33 546.048 119.811 631.813C120.128 687.81 120.582 717.488 120.988 733.215C128.379 737.241 136.662 739.349 145.078 739.347H176.38C175.788 731.673 174.542 720.943 173.042 709.325C170.936 692.979 168.334 674.953 166.38 661.353C165.829 657.54 165.333 654.078 164.907 651.105C164.563 648.696 164.237 646.39 163.929 644.188C162.801 644.449 161.803 644.649 160.956 644.759C160.108 644.917 159.237 644.917 158.389 644.759C156.489 644.215 155.319 642.694 154.686 640.836C154.073 638.844 153.867 636.749 154.08 634.676C154.236 632.649 154.7 630.657 155.457 628.771C155.766 627.998 156.183 627.272 156.696 626.616C157.123 626.035 157.726 625.608 158.416 625.398L159.827 625.061L161.438 624.682C161.321 623.54 161.224 622.459 161.156 621.447C159.242 620.203 157.404 618.847 155.649 617.387C154.435 616.431 153.369 615.301 152.483 614.035C151.538 612.34 151.279 610.347 151.761 608.467C152.219 606.498 153.038 604.631 154.177 602.961C155.18 601.396 156.455 600.023 157.941 598.907C158.541 598.461 159.218 598.13 159.937 597.929C160.605 597.737 161.322 597.813 161.933 598.143C163.509 599.079 165.485 600.208 167.749 601.433V600.896C167.412 590.833 167.116 579.835 167.013 569.772C179.539 574.253 198.528 579.03 225.316 580.874C225.357 581.081 225.391 581.266 225.44 581.473C226.162 584.522 226.128 589.98 225.605 596.161C225.605 596.223 225.605 596.278 225.605 596.333H225.887C226.392 596.306 226.899 596.36 227.387 596.491C228.025 596.707 228.595 597.087 229.039 597.592C229.615 598.208 230.123 598.884 230.553 599.609C231.657 601.451 232.478 603.449 232.99 605.535C234.07 609.953 233.802 615.294 229.335 618.185C227.518 619.284 225.64 620.281 223.712 621.172C225.801 621.516 227.869 621.975 229.906 622.549C230.613 622.755 231.284 623.069 231.896 623.478C232.409 623.852 232.848 624.318 233.189 624.854C233.508 625.428 233.685 626.07 233.706 626.726C233.749 627.549 233.717 628.374 233.609 629.19C233.331 631.276 232.775 633.315 231.958 635.254C230.34 639.101 227.477 642.997 223.258 643.513C223.568 656.804 223.313 670.934 221.668 680.508C219.755 691.623 217.27 709.669 215.887 726.201C215.501 730.806 215.198 735.287 215.019 739.457H282.215C282.036 736.016 281.781 732.478 281.471 728.831C280.095 712.312 277.548 694.259 275.621 683.15C273.955 673.59 273.694 659.522 274.004 646.273C269.73 645.681 266.839 641.765 265.215 637.931C264.38 635.982 263.813 633.928 263.528 631.826C263.413 630.997 263.381 630.157 263.432 629.321C263.451 628.637 263.637 627.968 263.976 627.373C264.337 626.811 264.804 626.325 265.352 625.942C265.988 625.521 266.684 625.201 267.417 624.992C269.314 624.457 271.239 624.03 273.185 623.712C271.386 622.885 269.63 621.966 267.926 620.959C263.322 618.013 263.067 612.569 264.168 608.123C264.687 606.016 265.525 604.001 266.653 602.148C267.093 601.404 267.615 600.712 268.208 600.084C268.675 599.556 269.274 599.162 269.943 598.941C270.577 598.767 271.24 598.725 271.891 598.817C272.429 598.898 272.955 599.051 273.453 599.272C273.453 599.175 273.453 599.072 273.453 598.976C272.717 591.68 272.538 585.004 273.357 581.5C273.453 581.101 273.536 580.716 273.618 580.33C293.816 577.849 313.464 572.046 331.77 563.158C331.77 575.285 331.384 589.594 330.944 602.252L330.903 603.456C332.912 602.369 334.674 601.391 336.113 600.538C336.765 600.195 337.523 600.114 338.233 600.311C338.976 600.516 339.675 600.854 340.297 601.309C341.816 602.445 343.119 603.844 344.145 605.438C345.316 607.135 346.155 609.038 346.616 611.048C347.114 612.97 346.845 615.012 345.866 616.74C344.959 618.023 343.866 619.164 342.624 620.126C340.87 621.577 339.032 622.921 337.118 624.152C337.042 625.102 336.952 626.1 336.849 627.167L339.774 627.855C340.5 628.072 341.137 628.516 341.591 629.122C342.121 629.788 342.552 630.528 342.872 631.317C343.639 633.22 344.104 635.231 344.248 637.278C344.469 639.376 344.261 641.498 343.636 643.513C342.982 645.385 341.763 646.955 339.781 647.533C338.906 647.701 338.007 647.701 337.131 647.533C336.305 647.43 335.342 647.25 334.261 647.003L333.291 653.748C332.864 656.728 332.355 660.19 331.804 664.003C329.822 677.603 327.193 695.663 325.059 711.968C323.683 722.292 322.554 731.928 321.893 739.361H351.227C359.643 739.363 367.926 737.254 375.316 733.229C375.722 717.502 376.177 687.803 376.493 631.826C377.085 526.061 362.294 412.607 358.241 383.562C361.723 385.276 367.188 385.827 375.805 382.674C396.453 375.103 412.737 340.36 412.737 340.36C423.302 320.2 430.935 298.823 437.66 277.087C437.887 276.358 437.721 275.023 438.637 275.147C442.402 275.704 442.512 272.538 443.455 270.473C444.907 267.376 445.994 264.114 447.247 260.92C447.736 259.681 448.183 258.456 447.873 257.369C445.409 255.338 443.957 255.338 443.957 255.338C443.957 255.338 459.099 246.391 463.917 236.755C468.528 227.539 473.587 210.828 471.997 206.657ZM231.283 146.592C231.265 146.571 231.249 146.548 231.235 146.523L231.297 146.585C232.625 148.32 232.983 149.855 229.92 150.997C230.65 149.345 228.998 147.528 231.283 146.592ZM247.801 401.987C257.065 402.23 266.391 402.301 275.779 402.2C272.889 403.577 270.273 403.721 267.706 403.997C261.078 404.726 254.443 405.27 247.801 405.683V405.642C241.394 405.229 234.986 404.699 228.578 403.997C226.038 403.721 223.395 403.598 220.505 402.2C229.677 402.292 238.776 402.223 247.801 401.994V401.987ZM262.737 146.964L263.68 150.543C260.823 149.552 260.741 149.29 262.737 146.964ZM272.531 150.88C272.799 149.428 273.04 148.127 273.302 146.751C275.924 148.712 275.821 149.345 272.531 150.88ZM218.385 148.974C218.02 147.521 219.128 147.081 220.326 146.441C220.711 147.948 220.291 149.345 221.248 150.811C219.5 150.942 218.695 150.213 218.385 148.974ZM143.185 148.657C143.184 131.813 147.277 115.22 155.112 100.309C162.947 85.3978 174.289 72.6144 188.162 63.0598C202.034 53.5051 218.021 47.4655 234.746 45.461C251.471 43.4565 268.432 45.5473 284.169 51.5533C299.907 57.5593 313.948 67.3004 325.085 79.9379C336.222 92.5754 344.12 107.731 348.099 124.098C352.079 140.466 352.02 157.555 347.929 173.895C343.837 190.235 335.835 205.336 324.612 217.897C323.809 217.727 322.983 217.589 322.134 217.484C316.727 216.755 311.223 217.467 306.18 219.548L281.526 211.978L279.462 205.783C279.462 205.783 284.968 205.783 288.409 203.03C291.85 200.277 291.85 195.459 291.85 195.459C291.85 195.459 300.11 193.394 302.174 185.135C304.239 176.876 302.174 170.682 302.174 170.682C302.174 170.682 313.187 163.111 311.122 150.722C309.057 138.333 304.239 136.957 304.239 136.957C304.239 136.957 311.81 123.88 300.798 111.491C289.786 99.102 279.462 101.167 279.462 101.167C278.891 98.0187 277.416 95.1051 275.215 92.7826C273.015 90.4601 270.185 88.8292 267.073 88.0897C260.379 86.4785 253.335 87.2071 247.113 90.1545C247.113 90.1545 236.101 84.6484 225.089 90.1545C214.076 95.6606 212.7 102.543 212.7 102.543C212.7 102.543 192.052 103.232 189.299 116.997C186.546 130.762 187.922 136.957 187.922 136.957C187.922 136.957 181.728 145.904 182.416 154.163C183.104 162.422 191.364 170.682 191.364 170.682C191.364 170.682 187.922 180.317 191.364 187.2C192.302 189.175 193.644 190.93 195.304 192.353C196.964 193.776 198.904 194.834 200.999 195.459C200.999 195.459 203.064 203.03 209.258 204.407C215.453 205.783 218.206 206.471 218.206 206.471L216.829 211.978L192.74 219.782C185.617 215.653 181.04 215.467 173.469 217.484C172.37 217.771 171.291 218.132 170.241 218.564C152.802 199.462 143.15 174.522 143.185 148.657ZM131.54 280.116C138.133 263.646 146.323 248.132 158.65 235.124C161.302 232.275 164.309 229.779 167.598 227.698C179.333 220.423 190.999 222.88 199.12 234.456C197.744 234.621 197.007 233.617 196.154 233.121C184.268 226.238 173.593 227.147 163.269 236.136C155.009 243.321 149.317 252.448 144.114 261.904C138.209 272.634 133.233 283.826 128.084 294.941C127.568 296.049 127.3 297.322 125.93 298.382C127.237 292.135 129.115 286.02 131.54 280.116ZM125.042 373.94C118.648 370.568 113.583 365.612 109.061 360.072C96.672 344.93 87.8484 327.813 81.2755 309.464C81.022 308.604 80.8174 307.731 80.6629 306.848C86.4512 317.413 92.1638 327.847 98.7505 337.772C104.594 346.568 110.843 355.075 119.178 361.717C131.106 371.222 139.014 371.779 152.084 364.401C147.562 375.2 135.525 379.481 125.042 373.954V373.94Z" fill="#7C6F4E"/>
<path d="M212.7 740.16C212.81 738.281 212.954 736.099 213.133 733.49L213.209 732.389H213.113L213.223 730.841C213.416 728.088 213.65 725.211 213.911 722.203C214.352 715.919 215.164 708.692 216.32 700.708C217.284 693.261 218.385 685.918 219.39 680.06C220.766 671.842 221.331 658.931 220.925 642.729V641.283L222.37 641.249C224.504 641.208 226.431 639.962 228.103 637.546C230.898 633.534 231.806 627.855 231.345 626.231L231.297 626.052L231.187 625.908C230.299 624.676 228.888 624.38 221.551 623.01L220.064 622.735L219.92 620.408L220.808 619.989C223.312 618.863 225.755 617.604 228.124 616.217C230.278 614.84 231.338 612.535 231.276 609.417C231.187 604.64 228.434 599.719 227.023 598.742L226.851 598.618L226.644 598.577C226.475 598.539 226.301 598.521 226.128 598.522C224.896 598.522 223.127 599.664 217.704 603.277L217.587 603.353C214.833 605.17 211.131 607.655 206.134 610.848C202.802 612.931 199.313 614.751 195.7 616.293L194.364 616.878L193.793 615.542C192.864 613.374 191.591 611.936 190.221 611.502C189.519 611.251 188.767 611.174 188.028 611.277C187.29 611.38 186.588 611.661 185.981 612.094L185.293 612.541L184.557 612.218C176.522 608.631 168.686 604.617 161.08 600.194L160.667 599.946L160.22 600.105C159.043 600.511 156.544 602.679 154.92 606.031C153.598 608.784 153.385 611.234 154.349 612.796C155.085 613.994 157.666 616.444 162.697 619.679L163.296 620.071L163.351 620.759C163.427 621.957 163.551 623.361 163.723 625.054L163.847 626.314L161.954 626.761C160.915 627.009 159.951 627.243 159.105 627.449L158.857 627.511L158.664 627.676C157.253 628.888 155.691 634.236 156.42 638.537C156.682 640.072 157.329 641.979 158.946 642.467H159.063C159.205 642.482 159.348 642.482 159.49 642.467C161.093 642.365 162.681 642.091 164.225 641.648L165.788 641.263L166.008 642.853C166.352 645.317 166.696 647.905 167.109 650.637L167.274 651.78C167.667 654.533 168.114 657.664 168.603 661.064L168.644 661.381C171.5 681.217 175.816 711.184 177.853 730.813L178.018 732.41H177.86L177.915 733.497C178.066 736.36 178.238 739.141 178.424 741.756C178.456 742.215 178.484 742.674 178.507 743.133C173.689 752.569 155.016 768.427 142.517 779.136C128.064 791.525 118.428 793.59 116.363 798.408C114.298 803.226 112.234 810.108 125.999 811.485C139.764 812.861 154.218 803.226 170.048 797.031C185.878 790.837 207.903 788.084 212.72 785.331C217.538 782.578 217.538 774.318 214.785 761.93C213.347 755.529 212.844 746.974 212.7 740.16Z" fill="#7C6F4E"/>
<path d="M354.909 781.173C346.134 773.65 335.163 764.848 327.902 757.242C323.215 752.328 320.069 747.916 320.069 744.674C320.07 744.508 320.054 744.342 320.021 744.179C320.228 741.336 320.413 738.315 320.565 735.183L320.606 734.495H320.482L320.579 733.614C322.643 714.012 326.986 684.059 329.87 664.223L329.918 663.886C330.373 660.754 330.793 657.85 331.164 655.262L331.405 653.603C331.804 650.85 332.169 648.283 332.52 645.819L332.644 644.945L333.497 645.151C335.113 645.605 336.771 645.887 338.446 645.991C338.678 646.002 338.909 645.978 339.134 645.922C342.17 645.069 342.424 640.622 342.39 638.757C342.321 634.284 340.566 630.03 339.169 629.686L335.796 628.894L334.757 628.654L334.833 627.965C335.005 626.238 335.129 624.868 335.211 623.65V623.251L335.548 623.03C339.933 620.208 343.161 617.524 344.179 615.914C345.363 614.007 345.012 610.965 343.236 607.772C341.364 604.406 338.611 602.142 337.207 602.142C337.088 602.137 336.968 602.156 336.856 602.197L336.767 602.245C329.016 606.717 321.027 610.763 312.836 614.365L312.43 614.544L312.065 614.296C311.367 613.806 310.562 613.488 309.718 613.369C308.873 613.249 308.012 613.331 307.206 613.608C305.63 614.104 304.205 615.673 303.193 618.006L302.876 618.742L302.14 618.419C298.524 616.891 295.031 615.087 291.692 613.023C286.654 609.836 282.896 607.352 280.15 605.542L279.971 605.425C274.637 601.908 272.641 600.607 271.141 600.607C270.831 600.609 270.523 600.653 270.225 600.737C268.752 601.24 265.937 606.003 265.407 610.697C265.07 613.505 265.407 617.311 268.787 619.486C271.198 620.906 273.692 622.181 276.254 623.306L276.75 623.533L276.667 624.909L275.642 625.095C268.036 626.472 266.453 626.788 265.373 628.44C264.685 629.617 265.27 634.91 267.809 639.356C269.151 641.717 271.485 644.539 274.933 644.614H275.738V645.413C275.449 656.742 275.49 672.427 277.301 682.861C278.319 688.746 279.42 696.076 280.398 703.509C281.554 711.431 282.366 718.617 282.82 724.846V725.031C283.096 728.005 283.337 730.889 283.509 733.607V733.752C283.509 733.896 283.509 734.041 283.509 734.192V734.461C283.571 735.693 283.633 737 283.688 738.356C284.018 746.877 284.025 757.421 282.573 763.953C279.82 776.342 279.82 784.601 284.637 787.354C289.455 790.107 311.48 792.86 327.31 799.054C343.14 805.249 357.594 814.884 371.359 813.508C385.124 812.131 383.059 805.249 380.995 800.431C378.93 795.613 369.363 793.562 354.909 781.173Z" fill="#7C6F4E"/>
<path d="M30.9564 203.133C32.6496 202.3 32.8216 203.966 33.3929 204.744C34.0518 205.784 34.6316 206.872 35.1273 207.999C37.7496 208.839 37.667 211.213 38.1282 213.285C38.7407 217.415 40.4889 221.131 41.9205 224.986C42.6088 226.596 43.125 225.109 43.4829 224.807C48.404 220.739 54.2611 219.005 60.3729 217.814C63.0159 217.298 63.8899 218.282 63.6697 220.89C63.4178 223.258 63.5012 225.649 63.9175 227.993C63.8487 223.864 63.5389 219.404 66.0167 215.143C67.2969 212.934 66.3746 210.002 66.7738 207.407C66.8649 206.155 67.1004 204.917 67.4758 203.718C67.8612 202.686 68.7285 202.135 69.5819 201.543C71.6467 200.112 72.9544 200.724 72.8649 203.161C72.5346 212.321 74.7301 221.056 76.8706 229.838C78.2059 235.344 75.7419 240.671 75.3358 246.122C75.2326 247.451 73.9593 247.877 72.9062 248.311C69.3341 249.825 65.7207 251.25 62.128 252.709C61.8276 252.888 61.4754 252.96 61.1289 252.912C60.7825 252.865 60.4625 252.701 60.2215 252.447C55.2247 247.547 48.7894 244.519 43.7444 239.639C40.014 236.025 37.3022 231.999 35.9051 226.995C34.5285 222.177 33.2208 217.305 31.6034 212.542C30.5572 209.493 29.7244 206.354 30.9564 203.133Z" fill="#F8E79F"/>
<path d="M463.917 212.032C464.729 210.573 465.438 209.052 466.388 207.683C466.911 206.926 467.241 205.246 468.859 206.43C469.919 209.183 469.134 211.833 468.294 214.455C466.587 219.782 464.612 225.013 463.27 230.464C462.251 234.594 459.381 237.65 456.325 240.458C451.246 245.117 445.279 248.559 439.656 252.461C439.409 252.705 439.085 252.856 438.74 252.887C438.395 252.919 438.049 252.829 437.763 252.633C433.75 251.312 429.738 249.983 425.718 248.676C424.596 248.311 423.653 247.919 423.399 246.508C422.201 239.061 420.804 231.751 423.908 224.263C425.973 219.294 426.035 213.774 426.111 208.364C426.111 206.891 425.374 204.661 427.329 204.2C429.173 203.773 430.701 205.287 431.699 206.953C431.936 207.461 432.123 207.992 432.257 208.536C432.215 212.741 432.326 216.795 434.39 220.767C436.008 223.871 435.271 227.47 434.955 230.581C435.54 228.826 435.395 226.693 435.457 224.573C435.567 220.498 436.62 219.507 440.468 220.388C445.974 221.641 451.315 223.231 455.871 226.789C456.284 227.119 456.904 228.854 457.771 227.05C459.546 222.086 461.446 217.183 463.47 212.342L463.917 212.032Z" fill="#F8E79F"/>
<path d="M421.286 251.153C426.393 252.867 431.809 254.663 437.219 256.515C443.978 258.821 443.971 258.841 441.314 265.6C439.188 271.023 439.167 271.106 433.399 269.234C427.845 267.451 422.387 265.462 416.798 263.728C415.16 263.219 414.837 262.647 415.518 261.085C416.764 258.263 417.838 255.359 418.959 252.482C419.317 251.532 419.813 250.857 421.286 251.153Z" fill="#C2AB4D"/>
<path d="M37.1921 212.996L35.1273 207.999C34.9483 205.246 33.4686 202.823 32.8216 200.181C32.3054 198.054 31.7272 195.9 33.792 194.186C36.669 199.919 38.4654 206.079 40.7366 212.081C41.7553 214.751 42.7923 217.417 43.8476 220.078C44.061 220.608 44.3225 221.228 45.0383 221.021C45.8642 220.78 45.8849 220.071 45.7266 219.342C45.3962 217.779 43.5172 216.499 44.8731 214.634C46.0225 213.368 44.8249 212.266 44.5015 211.193C42.6982 205.239 40.6334 199.368 38.837 193.394C38.4516 192.128 37.6601 190.689 38.6099 189.265C41.0188 188.404 41.2322 190.579 41.769 191.818C43.4828 195.803 44.5221 200.022 45.8229 204.166C47.0687 208.199 48.5347 212.156 49.9181 216.148C50.1659 216.837 50.3999 217.917 51.4461 217.573C52.4922 217.229 52.038 216.231 51.804 215.508C50.159 210.642 48.5209 205.776 46.9861 200.883C46.5525 199.54 45.6646 198.129 46.9379 196.712C48.2112 195.294 46.8966 193.959 47.11 192.582C47.4885 190.201 48.1561 188.452 51.0537 189.829C50.5719 190.388 50.2367 191.058 50.0781 191.779C49.9195 192.5 49.9426 193.249 50.1452 193.959C51.7833 200.965 54.2748 207.683 56.6425 214.462C57.0485 215.632 57.7093 216.148 58.9482 215.839C59.9056 215.461 60.9492 215.356 61.9628 215.536C64.8328 216.3 66.1887 215.398 66.2644 212.232C66.3332 209.376 65.2733 206.279 67.4758 203.698C67.4069 208.474 67.1592 213.175 65.6863 217.828C64.3809 222.229 64.1917 226.887 65.1357 231.38C61.6462 227.594 62.9883 222.955 62.7611 218.303C54.6396 219.479 47.0825 221.785 41.1565 228.269C40.3306 226.892 41.6933 225.99 41.418 224.965C40.1103 220.925 38.4722 217.029 37.1921 212.996Z" fill="#C2AB4D"/>
<path d="M458.411 227.119C458.184 228.158 459.368 228.977 458.714 230.485C453.731 225.247 447.378 222.962 440.709 221.372C436.675 220.408 436.297 220.684 436.462 224.738C436.586 227.883 436.187 230.822 434.094 233.458C435.746 226.761 433.193 220.58 431.975 214.248C431.603 212.321 431.286 210.408 432.305 208.57C433.53 210.325 432.952 212.328 432.856 214.166C432.683 217.449 434.005 218.743 437.185 218.295C442.003 218.295 442.092 218.295 443.875 213.567C446.05 207.786 448.479 202.073 449.429 195.899C449.486 195.443 449.638 195.004 449.875 194.611C450.112 194.217 450.429 193.878 450.806 193.614C453.208 194.681 451.996 196.732 452.031 198.391C452.031 199.444 451.026 200.517 452.141 201.536C453.366 203.002 452.375 204.413 451.886 205.707C450.399 209.665 449.133 213.705 447.529 217.628C447.22 218.399 446.497 219.521 447.701 219.995C448.755 220.408 449.312 219.307 449.629 218.467C451.659 213.127 453.462 207.703 455.424 202.335C456.752 198.694 458.177 195.087 459.168 191.322C462.341 192.21 461.494 194.53 460.847 196.539C458.886 202.679 456.773 208.77 454.736 214.889C454.522 215.522 454.426 216.196 454.274 216.85C454.52 217.975 454.456 219.145 454.089 220.236C453.861 221.2 452.423 222.487 454.178 223.093C455.451 223.533 455.692 221.964 456.029 221.076C458.191 215.398 460.765 209.892 463.091 204.282C463.951 202.218 463.889 199.692 466.009 198.226C467.599 199.327 467.558 200.786 467.014 202.417C465.961 205.611 464.949 208.825 463.924 212.053L463.979 212.012C462.183 217.057 459.498 221.785 458.411 227.119Z" fill="#C2AB4D"/>
<path d="M63.9794 256.604C68.2879 254.017 73.1058 252.537 77.6415 250.451C78.8666 249.887 79.4791 250.383 79.9609 251.559C81.2205 254.608 82.5075 257.657 83.946 260.631C84.7994 262.4 84.0424 262.978 82.5213 263.597C77.139 265.777 71.7843 268.03 66.4572 270.356C61.1231 272.682 61.1437 272.731 59.4162 267.066C59.7397 266.584 60.7927 267.582 60.483 266.949C58.5834 262.888 59.7466 259.977 63.4288 257.781C63.6183 257.653 63.7696 257.476 63.8665 257.269C63.9635 257.062 64.0025 256.832 63.9794 256.604Z" fill="#C2AB4D"/>
<path d="M254.842 271.981C254.994 275.432 254.044 278.843 252.131 281.72C249.426 285.705 245.503 285.746 242.708 281.885C238.799 276.475 238.682 267.638 242.447 262.187C245.158 258.27 248.641 258.057 251.738 261.712C254.23 264.671 254.746 268.278 254.842 271.981Z" fill="#C2AB4D"/>
<path d="M30.9564 203.133C30.8876 210.16 34.15 216.389 35.7743 223.003C36.9031 227.546 37.9699 232.102 41.2804 235.723C45.3656 240.365 50.1744 244.316 55.5206 247.423C58.1154 248.868 59.5401 251.415 62.0798 252.716C60.0632 254.237 58.432 254.037 56.3397 252.385C52.3133 249.199 47.8602 246.563 43.9509 243.183C39.3258 239.191 36.0703 234.504 34.7281 228.358C33.5168 222.79 31.4176 217.422 30.041 211.881C29.3459 208.97 28.3617 205.783 30.9564 203.133Z" fill="#C2AB4D"/>
<path d="M437.763 252.633C444.15 248.104 451.067 244.319 456.759 238.833C459.768 236.024 461.916 232.417 462.953 228.434C464.24 223.492 465.94 218.653 467.503 213.78C468.346 211.419 468.799 208.937 468.845 206.43C470.91 208.254 470.538 210.704 469.953 212.81C467.888 220.278 465.775 227.752 463.229 235.069C461.377 240.368 456.669 243.465 452.471 246.769C449.973 248.744 447.109 250.252 444.522 252.124C442.305 253.755 440.144 254.278 437.763 252.633Z" fill="#C2AB4D"/>
<path d="M46.9105 196.76C48.1631 203.278 50.7235 209.383 52.864 215.618C53.4008 217.194 54.0134 218.172 51.8453 219.018C49.34 219.996 49.4846 218.048 49.0923 216.871C46.4425 208.866 43.9234 200.821 41.2254 192.837C40.7643 191.46 40.7505 189.526 38.61 189.292C39.1744 187 41.012 186.856 42.8428 186.911C44.6736 186.966 44.6117 188.652 44.9696 189.918C45.6028 192.203 46.2635 194.482 46.9105 196.76Z" fill="#F8E79F"/>
<path d="M459.147 191.329C460.345 192.795 459.305 194.31 458.886 195.528C456.133 203.491 453.187 211.358 450.262 219.28C449.924 220.195 449.759 221.345 448.493 221.579C446.717 221.875 445.519 220.312 446.18 218.592C448.348 212.975 450.716 207.421 452.12 201.529C453.035 198.425 453.82 195.273 454.873 192.224C455.726 189.953 457.544 190.765 459.147 191.329Z" fill="#F8E79F"/>
<path d="M44.8938 214.6C44.8938 216.307 45.8298 217.642 46.7177 218.922C47.6055 220.202 47.6124 220.829 46.2703 221.675C44.7974 222.57 44.0403 223.485 43.1387 220.773C40.5233 212.893 37.4192 205.212 34.439 197.524C34.0164 196.474 33.8013 195.352 33.8058 194.22C36.2904 191.405 36.8823 191.467 38.1419 194.991C40.4613 201.481 42.65 208.047 44.8938 214.6Z" fill="#F8E79F"/>
<path d="M61.9697 215.542C60.9166 216.513 59.4713 216.492 58.2324 217.002C56.9935 217.511 56.2708 217.112 55.9336 215.866C53.8688 208.226 50.7028 200.91 49.0096 193.153C48.6036 191.267 48.3214 189.712 51.0744 189.877C52.9809 190.476 53.4696 191.976 53.8275 193.766C55.3142 201.461 57.2275 209.031 61.9697 215.542Z" fill="#F8E79F"/>
<path d="M465.982 198.212C463.401 206.939 459.058 214.964 456.036 223.513C455.499 225.041 454.66 225.082 453.497 224.091C452.808 223.478 450.84 223.581 452.327 221.854C453.565 220.409 453.703 218.543 454.247 216.836C457.069 212.149 458.17 206.788 460.152 201.763C460.565 200.71 460.875 199.616 461.322 198.577C462.836 195.101 463.463 195.06 465.982 198.212Z" fill="#F8E79F"/>
<path d="M450.785 193.607C449.697 201.22 446.882 208.295 444.081 215.377C442.085 220.443 442.154 220.47 437.157 218.289C441.693 212.163 443.93 205.108 445.416 197.765C446.022 194.771 447.399 192.899 450.785 193.607Z" fill="#F8E79F"/>
<path d="M63.9794 256.605C64.3098 256.887 65.3559 256.653 64.8466 257.541C64.5174 258.136 64.0257 258.625 63.4288 258.952C60.3798 260.514 59.6433 262.792 61.0198 265.883C61.2333 266.308 61.3518 266.774 61.3673 267.249C61.3827 267.725 61.2947 268.198 61.1093 268.636L59.4162 267.039C56.202 259.757 56.202 259.757 63.6421 256.66C63.7531 256.634 63.8658 256.615 63.9794 256.605Z" fill="#F8E79F"/>
<path d="M322.905 373.933C318.446 373.464 314.129 372.089 310.22 369.893C287.914 358.034 270.748 341.144 259.729 318.204C255.297 308.981 252.413 299.187 248.861 289.641C248.414 288.443 248.118 287.191 246.446 287.211C243.871 287.211 242.22 285.621 240.774 283.804C239.742 282.504 238.93 282.387 237.333 283.171C232.095 285.767 227.063 288.758 222.281 292.119C204.799 304.273 187.379 316.518 169.89 328.666C169.16 329.083 168.576 329.714 168.214 330.473C167.853 331.231 167.731 332.082 167.866 332.912C168.699 343.071 169.243 353.25 170.206 363.395C170.916 371.409 173.358 379.173 177.364 386.149C178.83 388.73 180.689 389.797 183.559 390.176C205.053 392.998 226.61 394.732 244.126 394.553C257.685 394.477 267.073 394.395 276.475 393.748C290.075 392.812 303.627 391.449 317.117 389.481C318.762 389.247 320.186 388.93 321.005 387.189C322.533 383.981 323.979 380.76 325.204 377.408C326.112 374.876 325.169 374.119 322.905 373.933ZM192.898 385.138C183.738 385.723 182.017 385 179.326 377.298C175.678 366.857 174.563 355.962 173.469 345.046C173.145 341.798 172.505 338.535 173.042 334.66C175.499 343.002 177.653 350.862 180.709 358.467C184.151 367.002 188.356 375.034 194.151 382.144C196.181 384.628 194.853 385.014 192.898 385.138Z" fill="#C2AB4D"/>
<path d="M37.1921 212.996C38.8095 216.912 41.0532 220.615 41.3905 224.979C39.2599 221.28 37.8362 217.216 37.1921 212.996Z" fill="#7C6F4E"/>
<path d="M458.411 227.119C458.191 226.885 457.723 226.562 457.785 226.431C459.663 221.544 461.129 216.486 463.979 212.019C462.677 217.24 460.81 222.303 458.411 227.119Z" fill="#7C6F4E"/>
<path d="M250.038 261.78C242.006 264.203 240.258 274.988 246.721 282.311C244.126 281.988 242.591 280.598 241.662 277.61C240.436 273.639 240.499 269.382 241.841 265.449C243.073 261.615 246.68 260.087 250.038 261.78Z" fill="#F8E79F"/>
<path d="M214.765 152.883C217.889 154.328 221.055 155.533 224.573 155.67C232.033 155.952 235.275 153.894 237.994 146.826C239.59 148.478 239.763 150.598 240.059 152.518C241.139 158.857 242.061 165.23 238.888 171.349C238.2 172.615 238.888 173.778 239.728 174.79C243.108 178.92 251.064 178.83 254.416 174.639C255.414 173.379 255.255 172.257 254.65 170.84C251.16 162.725 252.798 154.762 255.558 145.773C257.107 151.499 259.887 154.782 264.953 155.505C269.426 156.088 273.971 155.351 278.03 153.385C279.503 153.42 279.097 154.583 279.118 155.354C279.434 168.135 276.998 180.317 270.948 191.66C269.454 194.461 268.271 197.482 265.875 199.719C263.26 201.743 260.713 203.849 258.022 205.783C249.963 211.502 239.439 210.408 230.643 203.03C226.431 197.076 222.384 190.937 219.631 184.226C217.395 179.091 215.698 173.737 214.565 168.252C213.877 164.439 212.7 160.681 213.189 156.723C213.312 155.292 213.017 153.667 214.765 152.883Z" fill="#F8E79F"/>
<path d="M220.113 123.101C224.93 120.348 230.368 119.364 235.571 117.712C239.267 116.535 243.046 115.496 245.854 112.543C246.315 112.062 246.81 111.367 247.519 112.137C251.897 116.955 258.125 117.01 263.769 118.6C265.621 119.116 267.624 119.165 269.275 120.369C272.455 124.808 274.052 129.929 275.539 135.077C275.738 135.766 276.158 136.977 274.637 137.094C268.748 136.167 262.73 136.481 256.969 138.016C253.624 138.863 251.89 140.845 251.195 144.025C250.087 149.09 250.059 154.232 250.21 159.387C250.321 163.159 250.396 166.958 250.493 170.702C250.555 173.159 249.206 174.212 246.9 174.24C244.594 174.267 243.266 173.152 243.307 170.702C243.41 164.301 243.672 157.893 243.562 151.492C243.369 140.122 241.29 138.071 230.168 136.764C225.491 136.311 220.772 136.608 216.189 137.645C215.308 134.279 217.298 131.519 218.144 128.539C218.667 126.674 219.672 124.987 220.113 123.101Z" fill="#F8E79F"/>
<path d="M230.712 207.159C235.564 209.947 240.499 212.363 246.335 212.363C251.147 212.474 255.865 211.026 259.784 208.233C260.789 207.51 261.911 206.946 262.978 206.313C264.189 211.585 264.802 216.995 266.756 222.108C267.445 223.939 269.083 225.55 268.47 227.814C263.316 230.812 257.751 233.038 251.952 234.422C249.815 234.908 247.587 234.808 245.503 234.132C239.152 232.225 233.008 229.689 227.16 226.562C227 225.647 227.036 224.709 227.264 223.808C228.97 219.178 229.871 214.289 229.927 209.355C229.904 208.955 229.962 208.555 230.097 208.178C230.232 207.8 230.441 207.454 230.712 207.159Z" fill="#F8E79F"/>
<path d="M214.765 152.883C213.388 156.083 213.588 159.6 214.359 162.635C215.735 168.141 217.015 173.696 218.846 179.154C220.271 183.387 222.659 187.131 224.166 191.288C225.365 194.158 227.058 196.795 229.17 199.079C230.251 200.29 230.843 201.474 230.643 203.057C218.887 195.858 213.003 184.646 209.376 171.906C207.097 163.895 206.939 155.677 207.077 147.425C207.026 146.806 207.19 146.189 207.543 145.678C207.896 145.168 208.414 144.795 209.011 144.623C212.418 143.295 215.859 142.104 219.534 141.753C220.223 141.519 220.966 141.065 220.911 142.393C219.638 142.827 218.396 143.347 217.194 143.949C213.12 146.289 213.017 147.198 216.169 150.529C216.141 151.589 212.961 150.721 214.765 152.883Z" fill="#F8E79F"/>
<path d="M265.862 199.733C268.188 193.952 271.705 188.721 273.839 182.85C277.235 173.423 278.657 163.399 278.016 153.399L279.537 152.023C279.537 151.169 278.849 151.334 278.333 151.224C277.927 151.162 277.507 151.114 277.156 151.066C277.005 150.309 277.452 150.109 277.803 149.827C280.666 147.556 280.611 146.475 277.569 144.569C275.133 143.048 272.414 142.504 265.524 142.222C273.157 140.074 279.29 142.662 285.422 144.933C285.793 145.096 286.104 145.37 286.312 145.718C286.519 146.066 286.612 146.471 286.578 146.874C287.521 167.068 283.089 185.245 267.059 199.086C266.688 199.351 266.286 199.568 265.862 199.733Z" fill="#C2AB4D"/>
<path d="M268.449 227.807C265.153 221.014 262.351 214.097 262.943 206.306C263.159 205.918 263.417 205.555 263.714 205.225C266.825 202.472 266.825 202.52 268.704 206.285C271.257 211.383 274.197 216.277 277.5 220.925C278.567 222.439 278.526 223.237 276.812 223.953C273.956 225.089 271.478 227.016 268.449 227.807Z" fill="#C2AB4D"/>
<path d="M274.644 137.094C275.167 132.579 272.317 129.062 270.975 125.112C270.438 123.542 269.805 121.966 269.282 120.369C275.153 121.512 279.537 124.499 282.056 130.122C283.99 134.421 285.429 138.926 286.344 143.55C282.786 139.779 278.808 138.209 274.644 137.094Z" fill="#C2AB4D"/>
<path d="M230.712 207.16C231.175 213.813 229.963 220.476 227.188 226.541C224.731 225.343 221.214 224.745 220.119 222.79C218.936 220.677 222.439 218.66 223.519 216.362C224.944 213.375 226.651 210.511 227.904 207.462C228.84 205.177 229.645 206.01 230.712 207.16Z" fill="#F8E79F"/>
<path d="M220.113 123.101C220.711 123.521 221.131 124.017 220.725 124.788C218.592 128.848 217.346 133.219 216.189 137.624C213.017 138.938 209.926 140.377 207.242 143.97C209.348 134.926 211.144 126.791 220.113 123.101Z" fill="#F8E79F"/>
<path d="M261.801 146.021C265.717 142.366 272.256 142.58 276.475 146.489C271.388 144.878 266.626 144.3 261.801 146.021Z" fill="#7C6F4E"/>
<path d="M231.283 146.592C226.665 143.633 221.936 145.539 217.098 146.406C220.636 143.089 227.553 142.277 231.049 144.706C231.648 145.126 232.99 145.766 231.221 146.53L231.283 146.592Z" fill="#7C6F4E"/>
<path d="M245.048 192.706L241.669 190.531C245.227 190.531 249.178 193.201 251.862 188.088C246.046 189.794 241.008 188.287 235.991 185.534C242.977 181.749 249.88 181.749 256.942 184.502C258.318 185.052 258.607 185.63 257.43 186.608C254.794 188.796 252.495 191.426 249.274 192.857C247.801 194.612 246.425 194.22 245.048 192.706Z" fill="#7C6F4E"/>
<path d="M245.048 192.706C246.425 192.981 247.85 193.36 249.274 192.857C250.355 194.413 251.429 195.975 252.888 198.088C250.382 197.551 249.302 195.583 247.327 195.493C245.2 195.404 243.658 196.457 241.566 198.529C241.862 195.328 244.202 194.454 245.048 192.706Z" fill="#C2AB4D"/>
<path d="M302.622 218.86C296.001 216.722 289.389 214.561 282.786 212.377L281.932 213.196C283.343 218.351 284.686 223.065 284.968 223.657C285.656 225.034 254.684 239.488 247.113 239.488C241.896 239.488 227.539 231.325 219.108 226.245C217.91 225.677 216.775 224.985 215.721 224.18C213.842 223.038 212.7 222.302 212.7 222.302C212.7 222.302 214.118 218.75 215.838 213.85C215.896 213.684 215.906 213.505 215.867 213.334C215.828 213.163 215.743 213.006 215.62 212.881C215.497 212.755 215.341 212.667 215.171 212.625C215 212.584 214.821 212.591 214.654 212.645L193.153 219.776C196.743 221.535 200.077 223.774 203.064 226.431C203.752 227.037 204.441 227.656 205.094 228.296C209.909 232.126 214.445 236.293 218.667 240.768C224.813 247.079 230.898 253.494 238.627 257.974C239.604 258.546 240.478 259.509 242.02 258.663C248.283 255.263 249.274 255.414 254.409 260.617C255.393 261.622 256.102 261.595 257.045 261.023C258.429 260.22 259.767 259.337 261.05 258.38C267.644 253.212 273.364 247.107 279.345 241.27C287.604 233.204 295.808 225.068 306.263 219.741C305.024 219.473 303.792 219.259 302.622 218.86Z" fill="#C2AB4D"/>
<path d="M167.274 487.284C168.176 488.66 160.88 547.707 158.327 562.305C159.332 562.759 163.833 566.572 165.21 567.123C165.898 549.916 173.668 486.857 173.689 487.366L174.308 483.884C165.767 479.245 167.963 481.84 167.274 487.284Z" fill="#7C6F4E"/>
<path d="M202.142 488.447C201.777 499.212 196.87 556.111 192.74 574.006C195.321 574.412 205.046 575.712 207.882 576.07C208.632 566.786 213.25 481.778 212.789 482.549C203.195 478.915 202.479 478.543 202.142 488.447Z" fill="#7C6F4E"/>
<path d="M256.233 493.527C255.221 496.218 252.64 497.477 250.988 499.556C249.199 501.793 247.099 501.332 246.17 499.081C245.241 496.83 243.527 496.266 241.676 495.55C241.557 497.112 241.543 498.68 241.635 500.244L241.573 500.196L240.396 573.909C243.254 573.973 246.191 574.006 249.206 574.006C251.787 574.006 254.306 574.006 256.776 573.916V497.787C256.825 496.817 256.838 495.66 256.852 494.27C256.646 493.974 256.391 493.107 256.233 493.527Z" fill="#7C6F4E"/>
<path d="M293.041 480.222C292.255 480.162 291.465 480.273 290.725 480.547C289.986 480.822 289.315 481.253 288.758 481.812C288.202 482.37 287.773 483.043 287.501 483.783C287.229 484.524 287.121 485.314 287.184 486.1C288.265 502.309 293.743 573.51 293.915 574.005C296.049 573.668 302.931 570.936 304.927 570.564C302.174 560.928 295.292 486.437 295.292 485.907C295.065 478.447 299.607 480.924 293.041 480.222Z" fill="#7C6F4E"/>
<path d="M333.146 487.284C332.493 485.13 335.342 485.013 331.433 485.838C331.097 485.932 330.739 485.9 330.425 485.749C330.112 485.599 329.863 485.339 329.726 485.019C325.686 480.36 324.825 484.427 325.135 487.181C326.787 488.474 333.146 545.098 333.146 560.24C334.97 559.421 339.41 557.274 340.717 556.585C336.588 529.956 331.811 488.516 333.146 487.284Z" fill="#7C6F4E"/>
<path d="M341.406 466.058C340.931 462.809 340.428 459.567 339.843 456.339C339.699 455.534 339.554 454.729 339.403 453.93C338.391 447.289 337.427 443.173 336.574 440.661C334.847 433.372 332.284 426.307 328.934 419.607C327.558 416.854 325.892 415.911 322.74 416.406C294.899 420.8 266.723 422.703 238.544 422.091C216.903 421.703 195.315 419.831 173.93 416.489C171.927 416.165 170.805 416.743 169.8 418.554C167.108 423.479 164.941 428.674 163.337 434.053C161.484 440.294 159.983 446.633 158.843 453.043L159.015 452.182C159.015 452.182 158.327 455.341 157.639 459.54C158.155 456.711 158.568 454.474 158.795 453.242C157.983 457.661 157.294 462.1 156.634 466.546C156.923 464.124 157.288 461.729 157.639 459.54C155.367 472.073 151.128 496.204 152.132 496.204C152.869 496.204 158.292 490.925 167.474 486.41C167.471 486.426 167.471 486.442 167.474 486.458C168.006 486.266 168.512 486.01 168.981 485.694C170.475 485.006 172.058 484.317 173.73 483.732C173.923 483.762 174.114 483.803 174.302 483.856C174.336 483.726 174.37 483.602 174.412 483.478C182.486 480.608 191.095 479.557 199.623 480.401C200.531 480.491 201.426 480.601 202.314 480.725C202.657 481.397 202.786 482.158 202.686 482.906C203.635 482.04 204.846 481.514 206.127 481.413C206.98 481.592 207.82 481.785 208.653 481.998C208.797 482.067 208.949 482.142 209.093 482.225C209.624 482.499 210.219 482.623 210.814 482.583C232.543 488.894 246.122 505.179 248.49 505.179C251.243 505.179 259.502 490.037 291.85 483.154C324.199 476.272 343.47 496.231 345.535 496.231C347.215 496.231 344.338 483.003 341.406 466.058ZM167.343 433.021C168.176 430.289 169.264 427.641 170.592 425.113C172.326 421.899 174.646 419.682 178.768 420.343C180.675 420.653 182.63 420.536 184.543 421.031C186.27 421.458 186.752 421.919 185.403 423.427C175.534 434.329 169.098 447.282 163.833 460.848C162.195 465.074 160.034 469.107 159.015 473.512C160.633 459.705 163.145 446.174 167.309 432.993L167.343 433.021Z" fill="#C2AB4D"/>
</svg>
