<?xml version="1.0" encoding="utf-8"?>
<!-- Generator: Adobe Adobe Illustrator 24.2.0, SVG Export Plug-In . SVG Version: 6.00 Build 0)  -->
<svg version="1.1" xmlns="http://www.w3.org/2000/svg" xmlns:xlink="http://www.w3.org/1999/xlink" x="0px" y="0px" width="870px"
	 height="940px" viewBox="0 0 870 940" style="enable-background:new 0 0 870 940;" xml:space="preserve">
<style type="text/css">
	.st0{fill:#C2AB4D;stroke:#C2AB4D;stroke-width:5;stroke-miterlimit:10;}
	.st1{fill:#2F1B14;}
	.st2{fill:#FFFFFF;}
	.st3{fill:none;stroke:#FFFFFF;stroke-width:4;stroke-miterlimit:10;}
	.st4{fill:#A08A2C;}
	.st5{fill:#C2AB4D;}
	.st6{fill:#EBD373;}
</style>
<g id="Layer_3_copy">
	<g id="Layer_9">
		<g>
			<g>
				<path class="st0" d="M752.87,386.71L494.91,177.67c-13.96-11.32-33.22-17.42-52.89-18.3c0.04-7.6,0.06-15.23,0.08-22.91
					l8.68,0.24l0.16-5.7l0.16-5.69l-8.98-0.25c0.01-7.63,0-15.28-0.03-22.95c7.62,0.07,15.2,0.15,22.21,0.21
					c0.01,5.45,0.11,10.82,0.19,16.12l4.62-0.07l-4.62,0.09l5.77-0.1v-0.01l5.78-0.11c-0.08-5.19-0.17-10.46-0.19-15.81
					c6.17,0.06,11.48,0.1,15.38,0.14l0.06-5.69l0.04-5.7c-4.88-0.04-10.06-0.09-15.39-0.13c0.1-4.36,0.27-8.76,0.57-13.21l0.01-0.76
					h-11.55v0.22c-0.31,4.61-0.48,9.16-0.57,13.63c-7.44-0.06-15-0.13-22.37-0.2c-0.05-7.63-0.13-15.25-0.25-22.87l8.18,0.23
					l0.15-5.69l0.16-5.7l-8.68-0.24c-0.08-4.16-0.17-8.32-0.28-12.46l-5.77,0.15l-5.77,0.13c0.11,3.95,0.19,7.92,0.26,11.88
					l-8.93-0.24l-0.15,5.68l-0.16,5.69l9.45,0.26c0.11,7.67,0.18,15.37,0.24,23.05c-8.76-0.08-16.96-0.17-23.96-0.24v-10.9h-11.55
					v10.77c-6.51-0.08-10.65-0.14-11.32-0.17l-0.49,5.68l-0.49,5.67c0.53,0.04,5.16,0.11,12.3,0.2V112h11.55v-10.25
					c7.17,0.08,15.45,0.16,24.02,0.25c0.03,7.6,0.04,15.18,0.03,22.75l-8.64-0.23l-0.16,5.69l-0.16,5.69l8.94,0.24
					c-0.02,7.8-0.04,15.57-0.08,23.3c-19.14,1.13-37.77,7.2-51.38,18.23L121.13,386.71c-5.8,4.7-6.69,13.2-1.99,18.99
					c4.69,5.79,13.19,6.68,18.99,1.99l41.59-33.7v409.1h513.4V373.05l42.75,34.64c2.5,2.03,5.51,3.01,8.5,3.01
					c3.93,0,7.82-1.71,10.49-5C759.56,399.91,758.67,391.41,752.87,386.71z M470.09,96.65l0.43,0.01v0.02h-0.43
					C470.08,96.67,470.08,96.66,470.09,96.65z M675.12,765.09h-477.4V359.4l198.37-160.76c20.26-16.42,61.56-16.42,81.82,0
					l197.21,159.82V765.09z"/>
			</g>
		</g>
		<g id="Layer_15">
			<path class="st1" d="M214.43,750.78h445.14V365.76L475.69,214.44c-18.89-15.55-57.4-15.55-76.29,0L214.43,366.65V750.78z"/>
		</g>
	</g>
</g>
<g id="Layer_13">
	<g>
		<path class="st2" d="M338.17,424.83c0,6.64,7.14,10.46,7.14,13.94c0,1.49-1.33,2.82-3.65,2.82h-29.22c-2.32,0-3.65-1.33-3.65-2.82
			c0-3.49,7.14-7.3,7.14-13.94v-90.3c-9.3,0-10.29,1.33-13.94,4.48c-3.65,3.15-5.15,4.81-7.47,4.81c-1.83,0-2.99-1.49-2.99-3.49
			v-21.75c0-2.66,1-3.82,3.65-3.82s4.81,1.49,16.6,1.49h30.54c2.66,0,6.97-0.5,10.29-1c2.82-0.33,4.48-0.5,5.48-0.5
			c2.66,0,4.48,1.66,4.48,4.32v20.25c0,2.66-1.83,4.48-4.48,4.48c-2.16,0-3.49-1.33-6.31-4.65c-3.32-3.65-3.32-4.65-13.61-4.65
			V424.83z"/>
		<path class="st2" d="M461.34,390.63c0,0,11.79-56.27,11.79-59.26c0-4.65-5.31-8.8-5.31-12.28c0-1.49,1.33-2.82,3.65-2.82h29.22
			c2.32,0,3.65,1.33,3.65,2.82c0,3.49-6.64,8.13-7.97,14.11l-20.42,93.62c-0.66,3.15,4.65,8.8,4.65,11.95
			c0,1.49-1.33,2.82-3.65,2.82h-27.22c-2.32,0-3.65-1.33-3.65-2.82c0-3.15,4.48-8.8,4.48-11.95l-15.44-56.77l-15.44,56.77
			c0,3.15,4.48,8.8,4.48,11.95c0,1.49-1.33,2.82-3.65,2.82h-27.22c-2.32,0-3.65-1.33-3.65-2.82c0-3.15,4.48-8.8,4.65-11.95
			l-20.42-93.62c-1.33-5.98-7.97-10.62-7.97-14.11c0-1.49,1.33-2.82,3.65-2.82h29.22c2.32,0,3.65,1.33,3.65,2.82
			c0,3.49-5.31,7.64-5.31,12.28c0,2.99,11.79,59.26,11.79,59.26l14.28-59.59c0.66-2.99-4.48-8.8-4.48-11.95
			c0-1.49,1.33-2.82,3.65-2.82h25.56c2.32,0,3.65,1.33,3.65,2.82c0,3.15-5.31,8.96-4.65,11.95L461.34,390.63z"/>
		<path class="st2" d="M509.15,428.15v-98.44c0-8.8,6.97-13.45,15.77-13.45h32.7c9.96,0,16.43,6.97,16.43,14.28v96.78
			c0,6.81-6.31,14.28-16.43,14.28h-32.7C515.95,441.59,509.15,436.78,509.15,428.15z M532.55,423.33h18.09
			c0.66,0,1.16-0.66,1.16-1.16v-86.49c0-0.66-0.5-1.16-1.16-1.16h-18.09c-0.66,0-1.16,0.5-1.16,1.16v86.49
			C531.39,422.67,531.89,423.33,532.55,423.33z"/>
		<path class="st2" d="M331.09,521.85l-17.1,49.47c-0.5,1.66-0.66,2.99-0.66,3.98c0,2.66,3.32,5.31,3.32,8.47
			c0,1.49-1.33,2.82-3.65,2.82h-22.08c-2.32,0-3.65-1.33-3.65-2.82c0-3.15,3.15-5.81,3.32-8.47c0-1-0.17-2.32-0.66-3.98l-16.93-49.3
			v47.81c0,6.64,7.14,10.46,7.14,13.94c0,1.49-1.33,2.82-3.65,2.82h-28.39c-2.32,0-3.65-1.33-3.65-2.82c0-3.49,7.14-7.3,7.14-13.94
			V477.7c0-6.64-7.14-10.46-7.14-13.94c0-1.49,1.33-2.82,3.65-2.82h21.58c5.31,0,6.47,2.16,7.3,4.65l25.07,74.53l24.24-72.54
			c0.83-2.49,2.82-6.64,8.3-6.64h21.41c2.32,0,3.65,1.33,3.65,2.82c0,3.49-7.14,7.3-7.14,13.94v92.13c0,6.64,7.14,10.46,7.14,13.94
			c0,1.49-1.33,2.82-3.65,2.82H327.6c-2.32,0-3.65-1.33-3.65-2.82c0-3.49,7.14-7.3,7.14-13.94V521.85z"/>
		<path class="st2" d="M395.66,569.83c0,6.64,7.14,10.46,7.14,13.94c0,1.49-1.33,2.82-3.65,2.82h-29.22c-2.32,0-3.65-1.33-3.65-2.82
			c0-3.49,7.14-7.3,7.14-13.94v-91.8c0-6.64-7.14-10.46-7.14-13.94c0-1.49,1.33-2.82,3.65-2.82h29.22c2.32,0,3.65,1.33,3.65,2.82
			c0,3.49-7.14,7.3-7.14,13.94V569.83z"/>
		<path class="st2" d="M454.43,569.83c0,6.64,7.14,10.46,7.14,13.94c0,1.49-1.33,2.82-3.65,2.82H428.7c-2.32,0-3.65-1.33-3.65-2.82
			c0-3.49,7.14-7.3,7.14-13.94v-90.3c-9.3,0-10.29,1.33-13.94,4.48c-3.65,3.15-5.15,4.81-7.47,4.81c-1.83,0-2.99-1.49-2.99-3.49
			v-21.75c0-2.66,1-3.82,3.65-3.82s4.81,1.49,16.6,1.49h30.54c2.66,0,6.97-0.5,10.29-1c2.82-0.33,4.48-0.5,5.48-0.5
			c2.66,0,4.48,1.66,4.48,4.32v20.25c0,2.66-1.83,4.48-4.48,4.48c-2.16,0-3.49-1.33-6.31-4.65c-3.32-3.65-3.32-4.65-13.61-4.65
			V569.83z"/>
		<path class="st2" d="M487.46,586.59c-2.32,0-3.65-1.33-3.65-2.82c0-3.49,7.14-7.3,7.14-13.94v-91.8c0-6.64-7.14-10.46-7.14-13.94
			c0-1.49,1.33-2.82,3.65-2.82h58.1c3.98,0,5.64,1.66,5.64,5.64v18.92c0,2.49-0.5,3.32-1.83,4.32c-2.66,1.99-15.6,10.79-17.6,10.79
			c-1.33,0-2.82-1.33-2.82-3.15v-18.26h-13.61c-1.16,0-2.16,1-2.16,1.99v40.67l14.77-9.3c1.49-1,2.99-1.66,4.32-1.66
			c1.99,0,3.15,1.66,3.15,3.49v15.27c0,2.82-0.66,4.15-3.15,5.64l-19.09,12.12v18.59c0,1.16,1,1.99,2.16,1.99h13.61v-10.46
			c0-2.49,0.5-3.32,1.83-4.32c2.66-1.99,15.6-10.79,17.6-10.79c1.33,0,2.82,1.33,2.82,3.15v35.03c0,3.98-1.66,5.64-5.64,5.64H487.46
			z"/>
		<path class="st2" d="M562.66,572.98V542.6c0-2.99,1.99-4.81,4.32-4.81c3.32,0,12.45,6.14,15.11,8.13c1.49,1,2.82,2.49,2.82,6.81
			v15.6H602v-23.07c0-2.16-0.83-3.65-2.99-5.15l-27.39-18.92c-4.81-3.32-8.96-6.81-8.96-14.11v-33.03c0-8.3,6.97-12.78,15.77-12.78
			h27.72c9.96,0,16.43,6.81,16.43,13.61v25.73c0,2.99-1.99,4.98-3.65,4.98c-3.98,0-12.95-6.31-15.77-8.13
			c-1.49-1-2.82-2.49-2.82-6.81v-11.12H584.9v20.42c0,2.32,0.5,3.65,3.15,5.64l27.72,19.09c5.48,3.65,8.47,6.97,8.47,14.11v34.2
			c0,6.81-7.8,13.61-15.77,13.61h-29.38C569.3,586.59,562.66,579.79,562.66,572.98z"/>
	</g>
</g>
<g id="Layer_14">
	<g>
		<path class="st2" d="M254.41,614.96c0-0.44-0.41-0.71-0.78-0.71h-4.79c-0.61,0-0.86,0.24-0.86,0.74v18.62
			c0,0.51,0.25,0.74,0.86,0.74h4.79c0.37,0,0.78-0.27,0.78-0.71v-3.24c0-0.57,0.12-0.81,0.41-0.98c0,0,2.74-1.62,3.15-1.62
			c0.37,0,0.53,0.17,0.53,0.47v6.46c0,1.08-1.23,2.33-3.36,2.33h-8.07c-1.92,0-3.19-0.78-3.19-2.16v-21.19
			c0-1.39,1.27-2.16,3.19-2.16h8.07c2.13,0,3.36,1.25,3.36,2.33v3.31c0,0.57-0.12,0.81-0.41,0.98c0,0-2.74,1.62-3.15,1.62
			c-0.37,0-0.53-0.17-0.53-0.47V614.96z"/>
		<path class="st2" d="M273.04,637.06h-8.07c-1.92,0-3.19-0.78-3.19-2.16v-21.19c0-1.39,1.27-2.16,3.19-2.16h8.07
			c2.13,0,3.36,1.25,3.36,2.33v20.85C276.4,635.81,275.17,637.06,273.04,637.06z M271.53,614.25h-4.79c-0.61,0-0.86,0.24-0.86,0.74
			v18.62c0,0.51,0.25,0.74,0.86,0.74h4.79c0.37,0,0.78-0.27,0.78-0.71v-18.69C272.31,614.52,271.9,614.25,271.53,614.25z"/>
		<path class="st2" d="M292.99,629.79c0,0,5.77-15.41,6.43-17.24c0.25-0.74,0.74-1.01,1.35-1.01h5.08c0.29,0,0.45,0.1,0.45,0.34
			c0,0.44-1.76,1.39-1.76,2.37v20.11c0,0.98,1.76,1.93,1.76,2.37c0,0.24-0.16,0.34-0.45,0.34h-6.51c-0.29,0-0.45-0.1-0.45-0.34
			c0-0.44,1.76-1.39,1.76-2.37v-12.78c0-0.27-0.04-0.47-0.25-0.47s-0.29,0.14-0.41,0.41l-4.75,12.84c-0.08,0.17-0.08,0.3-0.08,0.47
			c0,0.78,0.61,1.52,0.61,1.89c0,0.24-0.16,0.34-0.45,0.34h-5.08c-0.29,0-0.45-0.1-0.45-0.34c0-0.37,0.61-1.12,0.61-1.89
			c0-0.17,0-0.3-0.08-0.47l-4.79-12.91c-0.08-0.24-0.16-0.34-0.37-0.34c-0.21,0-0.25,0.2-0.25,0.47v12.78
			c0,0.98,1.76,1.93,1.76,2.37c0,0.24-0.16,0.34-0.45,0.34h-6.51c-0.29,0-0.45-0.1-0.45-0.34c0-0.44,1.76-1.39,1.76-2.37v-20.11
			c0-0.98-1.76-1.93-1.76-2.37c0-0.24,0.16-0.34,0.45-0.34h5.08c0.61,0,1.11,0.27,1.35,1.01c0.66,1.83,6.43,17.24,6.43,17.24
			s0.08,0.2,0.2,0.2C292.91,630,292.99,629.79,292.99,629.79z"/>
		<path class="st2" d="M321.66,629.79c0,0,5.77-15.41,6.43-17.24c0.25-0.74,0.74-1.01,1.35-1.01h5.08c0.29,0,0.45,0.1,0.45,0.34
			c0,0.44-1.76,1.39-1.76,2.37v20.11c0,0.98,1.76,1.93,1.76,2.37c0,0.24-0.16,0.34-0.45,0.34h-6.51c-0.29,0-0.45-0.1-0.45-0.34
			c0-0.44,1.76-1.39,1.76-2.37v-12.78c0-0.27-0.04-0.47-0.25-0.47s-0.29,0.14-0.41,0.41l-4.75,12.84c-0.08,0.17-0.08,0.3-0.08,0.47
			c0,0.78,0.61,1.52,0.61,1.89c0,0.24-0.16,0.34-0.45,0.34h-5.08c-0.29,0-0.45-0.1-0.45-0.34c0-0.37,0.61-1.12,0.61-1.89
			c0-0.17,0-0.3-0.08-0.47l-4.79-12.91c-0.08-0.24-0.16-0.34-0.37-0.34c-0.2,0-0.25,0.2-0.25,0.47v12.78c0,0.98,1.76,1.93,1.76,2.37
			c0,0.24-0.16,0.34-0.45,0.34h-6.51c-0.29,0-0.45-0.1-0.45-0.34c0-0.44,1.76-1.39,1.76-2.37v-20.11c0-0.98-1.76-1.93-1.76-2.37
			c0-0.24,0.16-0.34,0.45-0.34h5.08c0.61,0,1.11,0.27,1.35,1.01c0.66,1.83,6.43,17.24,6.43,17.24s0.08,0.2,0.2,0.2
			C321.58,630,321.66,629.79,321.66,629.79z"/>
		<path class="st2" d="M352.79,634.73c0,1.08-1.23,2.33-3.36,2.33h-8.07c-1.92,0-3.19-0.78-3.19-2.16v-20.65
			c0-0.98-1.76-1.93-1.76-2.37c0-0.24,0.16-0.34,0.45-0.34h6.72c0.29,0,0.45,0.1,0.45,0.34c0,0.44-1.76,1.39-1.76,2.37v19.37
			c0,0.51,0.25,0.74,0.86,0.74h4.79c0.37,0,0.78-0.27,0.78-0.71v-19.4c0-0.98-1.76-1.93-1.76-2.37c0-0.24,0.16-0.34,0.45-0.34h6.72
			c0.29,0,0.45,0.1,0.45,0.34c0,0.44-1.76,1.39-1.76,2.37V634.73z"/>
		<path class="st2" d="M372.37,637.06c-0.61,0-0.9-0.34-1.35-1.01l-8.72-15.07c-0.2-0.34-0.25-0.44-0.45-0.44
			c-0.16,0-0.21,0.1-0.21,0.37v13.45c0,0.98,1.76,1.93,1.76,2.37c0,0.24-0.16,0.34-0.45,0.34h-6.51c-0.29,0-0.45-0.1-0.45-0.34
			c0-0.44,1.76-1.39,1.76-2.37v-20.11c0-0.98-1.76-1.93-1.76-2.37c0-0.24,0.16-0.34,0.45-0.34h4.67c0.61,0,0.98,0.34,1.35,1.01
			l8.97,16.32c0.08,0.14,0.16,0.27,0.29,0.27c0.12,0,0.12-0.2,0.12-0.2v-14.7c0-0.98-1.76-1.93-1.76-2.37
			c0-0.24,0.16-0.34,0.45-0.34h6.51c0.29,0,0.45,0.1,0.45,0.34c0,0.44-1.76,1.39-1.76,2.37v22.14c0,0.34-0.16,0.68-0.78,0.68H372.37
			z"/>
		<path class="st2" d="M384.99,634.36c0,0.98,1.76,1.93,1.76,2.37c0,0.24-0.16,0.34-0.45,0.34h-6.72c-0.29,0-0.45-0.1-0.45-0.34
			c0-0.44,1.76-1.39,1.76-2.37v-20.11c0-0.98-1.76-1.93-1.76-2.37c0-0.24,0.16-0.34,0.45-0.34h6.72c0.29,0,0.45,0.1,0.45,0.34
			c0,0.44-1.76,1.39-1.76,2.37V634.36z"/>
		<path class="st2" d="M400.63,611.88c1.19,0,2.95-0.34,3.48-0.34c0.29,0,0.41,0.14,0.41,0.37v4.26c0,0.24-0.12,0.37-0.41,0.37
			s-0.53-0.3-1.56-1.28c-0.66-0.64-1.68-0.71-3.36-0.71c-0.41,0-0.7,0.27-0.7,0.57v19.23c0,0.98,1.76,1.93,1.76,2.37
			c0,0.24-0.16,0.34-0.45,0.34h-6.72c-0.29,0-0.45-0.1-0.45-0.34c0-0.44,1.76-1.39,1.76-2.37v-19.23c0-0.3-0.29-0.57-0.7-0.57
			c-1.68,0-2.7,0.07-3.36,0.71c-1.02,0.98-1.27,1.28-1.56,1.28s-0.41-0.14-0.41-0.37v-4.26c0-0.24,0.12-0.37,0.41-0.37
			c0.53,0,2.29,0.34,3.48,0.34H400.63z"/>
		<path class="st2" d="M417.84,634.36c0,0.98,1.76,1.93,1.76,2.37c0,0.24-0.16,0.34-0.45,0.34h-6.72c-0.29,0-0.45-0.1-0.45-0.34
			c0-0.44,1.76-1.39,1.76-2.37v-8.42c0-0.44-6.23-11.56-6.23-11.56c-0.7-1.32-1.97-2.06-1.97-2.5c0-0.24,0.16-0.34,0.45-0.34h6.18
			c0.29,0,0.45,0.1,0.45,0.34c0,0.27-0.61,1.35-0.61,2.16c0,0.47,3.77,7.37,3.77,7.37s3.85-6.9,3.85-7.37
			c0-0.81-0.61-1.89-0.61-2.16c0-0.24,0.16-0.34,0.45-0.34h6.18c0.29,0,0.45,0.1,0.45,0.34c0,0.44-1.27,1.18-1.97,2.5
			c0,0-6.31,11.19-6.31,11.56V634.36z"/>
		<path class="st2" d="M510.82,619.18c0,0.64,0.21,1.12,1.06,1.66l6.84,4.06c1.27,0.74,1.8,1.32,1.8,2.57v7.44
			c0,1.39-1.27,2.16-3.19,2.16h-7.25c-2.13,0-3.36-1.25-3.36-2.33v-6.46c0-0.3,0.16-0.47,0.53-0.47c0.41,0,3.15,1.62,3.15,1.62
			c0.29,0.17,0.41,0.41,0.41,0.98v3.24c0,0.44,0.41,0.71,0.78,0.71h3.97c0.61,0,0.86-0.24,0.86-0.74v-4.8
			c0-0.61-0.29-1.12-1.02-1.55l-6.76-4.02c-1.19-0.71-1.92-1.28-1.92-2.54v-7c0-1.39,1.27-2.16,3.19-2.16h7.25
			c2.13,0,3.36,1.25,3.36,2.33v5.44c0,0.3-0.16,0.47-0.53,0.47c-0.41,0-3.15-1.62-3.15-1.62c-0.29-0.17-0.41-0.41-0.41-0.98v-2.23
			c0-0.44-0.33-0.71-0.78-0.71h-3.97c-0.61,0-0.86,0.24-0.86,0.74V619.18z"/>
		<path class="st2" d="M533.88,614.92c0-0.41-0.33-0.68-0.7-0.68h-4.83c-0.37,0-0.57,0.17-0.57,0.54v10.21l5.2-2.6
			c0.41-0.2,0.66-0.34,0.86-0.34c0.25,0,0.37,0.2,0.37,0.44v2.7c0,0.41-0.29,0.57-0.86,0.88l-5.57,2.77v4.97
			c0,0.34,0.25,0.54,0.61,0.54h4.71c0.37,0,0.78-0.27,0.78-0.71v-2.23c0-0.57,0.12-0.81,0.41-0.98c0,0,2.74-1.45,3.15-1.45
			c0.37,0,0.53,0.17,0.53,0.47v6.66c0,0.61-0.37,0.95-1.23,0.95h-14.38c-0.29,0-0.45-0.1-0.45-0.34c0-0.44,1.76-1.39,1.76-2.37
			v-20.11c0-0.98-1.76-1.93-1.76-2.37c0-0.24,0.16-0.34,0.45-0.34h14.33c0.9,0,1.27,0.34,1.27,0.81v3.82c0,0.57-0.12,0.81-0.41,0.98
			c0,0-2.74,1.62-3.15,1.62c-0.37,0-0.53-0.17-0.53-0.47V614.92z"/>
		<path class="st2" d="M540.02,636.72c0-0.44,1.76-1.39,1.76-2.37v-20.11c0-0.98-1.76-1.93-1.76-2.37c0-0.24,0.16-0.34,0.45-0.34
			h12.57c2.46,0,3.77,0.84,3.77,2.81v8.28c0,0.78-0.45,1.25-1.15,1.69l-2.7,1.55c1.52,3.79,3.48,8.38,3.93,8.92
			c0.94,1.18,1.88,1.49,1.88,1.93c0,0.24-0.16,0.34-0.45,0.34h-6.59c-0.29,0-0.45-0.1-0.45-0.34c0-0.44,0.9-0.64,0.9-1.22
			c0-0.1-0.08-0.3-0.2-0.68c-0.53-1.52-1.8-4.39-2.99-7l-2.62,1.42c-0.37,0.2-0.49,0.51-0.49,0.88v4.23c0,0.98,1.76,1.93,1.76,2.37
			c0,0.24-0.16,0.34-0.45,0.34h-6.72C540.19,637.06,540.02,636.96,540.02,636.72z M545.88,614.92v10.31c0,0.24,0.12,0.37,0.29,0.37
			c0.21,0,0.57-0.2,0.57-0.2l4.71-2.54c0.9-0.54,1.27-0.95,1.27-1.52v-6.05c0-0.78-0.33-1.05-1.27-1.05h-4.87
			C546.21,614.25,545.88,614.52,545.88,614.92z"/>
		<path class="st2" d="M573.77,614.38c0-0.07,0.04-0.1,0.04-0.17c0-0.81-1.43-2.06-1.43-2.33c0-0.24,0.16-0.34,0.45-0.34h6.84
			c0.29,0,0.45,0.1,0.45,0.34c0,0.44-1.56,1.12-1.97,2.5l-6.06,19.98c-0.04,0.1-0.04,0.2-0.04,0.3c0,0.85,0.98,1.66,0.98,2.06
			c0,0.24-0.16,0.34-0.45,0.34h-6.72c-0.29,0-0.45-0.1-0.45-0.34c0-0.41,0.98-1.22,0.98-2.06c0-0.1,0-0.2-0.04-0.3l-6.06-19.98
			c-0.41-1.39-1.97-2.06-1.97-2.5c0-0.24,0.16-0.34,0.45-0.34h6.8c0.29,0,0.45,0.1,0.45,0.34c0,0.27-1.43,1.52-1.43,2.33
			c0,0.07,0.04,0.1,0.04,0.17c0.57,1.99,4.38,15.51,4.38,15.51s0.08,0.2,0.21,0.2s0.2-0.2,0.2-0.2S573.2,616.38,573.77,614.38z"/>
		<path class="st2" d="M587.41,634.36c0,0.98,1.76,1.93,1.76,2.37c0,0.24-0.16,0.34-0.45,0.34h-6.72c-0.29,0-0.45-0.1-0.45-0.34
			c0-0.44,1.76-1.39,1.76-2.37v-20.11c0-0.98-1.76-1.93-1.76-2.37c0-0.24,0.16-0.34,0.45-0.34h6.72c0.29,0,0.45,0.1,0.45,0.34
			c0,0.44-1.76,1.39-1.76,2.37V634.36z"/>
		<path class="st2" d="M602.77,614.96c0-0.44-0.41-0.71-0.78-0.71h-4.79c-0.61,0-0.86,0.24-0.86,0.74v18.62
			c0,0.51,0.25,0.74,0.86,0.74h4.79c0.37,0,0.78-0.27,0.78-0.71v-3.24c0-0.57,0.12-0.81,0.41-0.98c0,0,2.74-1.62,3.15-1.62
			c0.37,0,0.53,0.17,0.53,0.47v6.46c0,1.08-1.23,2.33-3.36,2.33h-8.07c-1.92,0-3.19-0.78-3.19-2.16v-21.19
			c0-1.39,1.27-2.16,3.19-2.16h8.07c2.13,0,3.36,1.25,3.36,2.33v3.31c0,0.57-0.12,0.81-0.41,0.98c0,0-2.74,1.62-3.15,1.62
			c-0.37,0-0.53-0.17-0.53-0.47V614.96z"/>
		<path class="st2" d="M620.88,614.92c0-0.41-0.33-0.68-0.7-0.68h-4.83c-0.37,0-0.57,0.17-0.57,0.54v10.21l5.2-2.6
			c0.41-0.2,0.66-0.34,0.86-0.34c0.25,0,0.37,0.2,0.37,0.44v2.7c0,0.41-0.29,0.57-0.86,0.88l-5.57,2.77v4.97
			c0,0.34,0.25,0.54,0.61,0.54h4.71c0.37,0,0.78-0.27,0.78-0.71v-2.23c0-0.57,0.12-0.81,0.41-0.98c0,0,2.74-1.45,3.15-1.45
			c0.37,0,0.53,0.17,0.53,0.47v6.66c0,0.61-0.37,0.95-1.23,0.95h-14.38c-0.29,0-0.45-0.1-0.45-0.34c0-0.44,1.76-1.39,1.76-2.37
			v-20.11c0-0.98-1.76-1.93-1.76-2.37c0-0.24,0.16-0.34,0.45-0.34h14.33c0.9,0,1.27,0.34,1.27,0.81v3.82c0,0.57-0.12,0.81-0.41,0.98
			c0,0-2.74,1.62-3.15,1.62c-0.37,0-0.53-0.17-0.53-0.47V614.92z"/>
	</g>
	<g>
		<g>
			<g>
				<path class="st2" d="M470.58,601.9c0.27,0.34,0.14-0.05,0.19-0.38L470.58,601.9z"/>
				<path class="st2" d="M470.77,601.52l0.13-0.26C470.83,601.31,470.79,601.41,470.77,601.52z"/>
				<path class="st2" d="M472.23,599.27c-0.14,0.63-0.85,1.04-0.6,1.58c0.22-0.22,0.45-0.5,0.56-0.79
					C472.33,599.79,472.37,599.49,472.23,599.27z"/>
				<path class="st2" d="M471.48,599.87l0.16,0.19c-0.02-0.22-0.02-0.44,0-0.66C471.57,599.56,471.51,599.71,471.48,599.87z"/>
				<path class="st2" d="M471.09,600.11l0.12-0.03c0.07-0.3,0.15-0.6,0.28-0.88C471.32,599.49,471.21,599.81,471.09,600.11z"/>
				<path class="st2" d="M473.86,598.06c-0.15,0.13-0.3,0.26-0.45,0.4c-0.63,0.12,0.03-0.58-0.4-0.5c-0.59,0.54,0.19,0.65-0.51,1.26
					c0.24,0.13,1.06-1.03,1.26-0.53C474.45,598.38,473.63,598.43,473.86,598.06z"/>
				<path class="st2" d="M492.36,621.02c-0.04,0.02-0.06,0.05-0.08,0.07C492.33,621.08,492.39,621.06,492.36,621.02z"/>
				<path class="st2" d="M486.29,630.53c-0.14,0.08-0.26,0.18-0.37,0.28c0.07,0,0.14-0.02,0.22-0.05L486.29,630.53z"/>
				<path class="st2" d="M493.99,614.06c0.09-0.15,0.15-0.29,0.21-0.41C494.11,613.72,494.04,613.84,493.99,614.06z"/>
				<path class="st2" d="M456.65,636.41c0.04,0,0.09,0,0.15-0.02c0,0,0-0.01,0-0.02l-0.17-0.04L456.65,636.41z"/>
				<path class="st2" d="M478.57,639.99c-0.11,0.13-0.21,0.26-0.29,0.39C478.48,640.17,478.55,640.06,478.57,639.99z"/>
				<path class="st2" d="M494.46,610.01c0,0.06-0.01,0.12-0.01,0.17c0.02-0.05,0.04-0.13,0.05-0.21L494.46,610.01
					C494.46,610,494.46,610,494.46,610.01z"/>
				<path class="st2" d="M489.1,628.04c-0.12,0.1-0.23,0.2-0.3,0.29C488.92,628.25,489.01,628.15,489.1,628.04z"/>
				<path class="st2" d="M482.87,597.51c0.16,0.09,0.3,0.09,0.44,0.07C483.22,597.49,483.09,597.44,482.87,597.51z"/>
				<path class="st2" d="M486.23,598.72l-0.02-0.01C486.2,598.77,486.22,598.77,486.23,598.72z"/>
				<path class="st2" d="M488.12,599.96l-0.04-0.02C488.08,600,488.08,600.01,488.12,599.96z"/>
				<path class="st2" d="M483.31,597.58c0.24,0.25,0.13,0.86,0.7,0.35l-0.04-0.11c0.17,0.21,0.57,0.08,0.83,0.16
					c0-0.07-0.01-0.13-0.03-0.18c-0.12-0.06-0.28-0.14-0.54-0.27C483.95,597.3,483.65,597.52,483.31,597.58z"/>
				<path class="st2" d="M492.27,620.93C492.39,620.95,492.46,620.68,492.27,620.93L492.27,620.93z"/>
				<path class="st2" d="M493.22,617.53c-0.05,0.1-0.09,0.21-0.14,0.31C493.15,617.75,493.21,617.66,493.22,617.53z"/>
				<path class="st2" d="M494.21,604.39c0,0.03,0,0.05-0.01,0.07C494.28,604.46,494.25,604.41,494.21,604.39z"/>
				<path class="st2" d="M492.97,618.14l0.12-0.29C493.03,617.93,492.98,618.02,492.97,618.14z"/>
				<path class="st2" d="M494.56,608.43c-0.01,0.02-0.01,0.04-0.01,0.06C494.56,608.47,494.56,608.45,494.56,608.43z"/>
				<path class="st2" d="M454.16,597.99c-0.19,0.06-0.32-0.09-0.51-0.1c-0.17,0.26,0.04,0.22,0.22,0.17
					c0.19-0.03,0.35-0.04,0.08,0.17c0.18-0.01,0.31-0.07,0.44-0.14l-0.3-0.39C453.74,597.87,454.35,597.82,454.16,597.99z"/>
				<path class="st2" d="M455.75,633.28l0.02,0.11c0.12-0.16,0.21-0.13,0.08-0.54c-0.43-0.15-0.51,0.54-1.1,0.18
					c0.09,0.09,0.17,0.25,0.22,0.41C455.06,633.09,455.42,633.17,455.75,633.28z"/>
				<path class="st2" d="M454.97,633.44c0,0.01-0.01,0.02-0.01,0.03c-0.02,0.04-0.03,0.09-0.04,0.13c0.04,0.08,0.08,0.16,0.09,0.23
					C455.04,633.74,455.02,633.59,454.97,633.44z"/>
				<path class="st2" d="M448.25,600.66c-0.07,0.05-0.14,0.09-0.2,0.12C448.19,600.76,448.24,600.72,448.25,600.66z"/>
				<path class="st2" d="M475.23,635.89c0.05-0.12,0.1-0.24,0.14-0.34C475.26,635.7,475.23,635.8,475.23,635.89z"/>
				<path class="st2" d="M458.51,638.6c0.02,0.1,0.06,0.19,0.1,0.29c0.04,0.05,0.07,0.09,0.12,0.15L458.51,638.6z"/>
				<path class="st2" d="M444.77,623.65c0.51-0.06-0.12-0.12-0.11-0.62l-0.42-0.21C444.37,623.16,444.61,623.41,444.77,623.65z"/>
				<path class="st2" d="M454.41,598.12c0-0.01,0-0.03,0-0.04c-0.01,0-0.01,0.01-0.02,0.01L454.41,598.12z"/>
				<path class="st2" d="M438.99,612.38c0.01-0.09,0.01-0.16,0.02-0.24C438.99,612.19,438.98,612.27,438.99,612.38z"/>
				<path class="st2" d="M456.02,635.55l0.76,1.3l-0.13-0.44C456.35,636.35,456.37,635.58,456.02,635.55z"/>
				<path class="st2" d="M446.04,626.12c0.01-0.5,0.2-0.82-0.42-1.38c-0.14-0.07-0.37,0.35-0.42-0.21l0.67,0.18
					c-0.25-0.69-0.67-1.35-1.21-1.68l-0.39-0.77l0.28,0.14c-0.29-0.59-0.38-1.27-1.01-1.55c0.3,0.09,0.91,0.2,0.6-0.33l-0.46-0.32
					c0.04-0.11,0.31,0.04-0.27-0.63c-0.11,0.33-0.56-0.51-0.35-0.88c-0.25,0.25-0.12,0.82-0.43,1.02c-0.27-0.86-0.99-0.21-1.2-1.01
					l0.35-0.08c-0.29-0.59-0.66-0.9-1.06-1.18c0.06-0.01,0.12-0.01,0.18-0.03c-0.25-0.68-0.56-1.21-0.8-1.7
					c-0.24-0.49-0.31-1-0.19-1.54l-0.43-0.68c0.22,0.17,0.24,0.07,0.28-0.28c-0.04-0.57-0.63-1.39-0.75-1.06
					c0.27-1.95-0.44-2.5-0.06-4.66c0.36,0.14,0.3-0.82,0.56-0.39l-0.06-0.66c0,0.1,0.1,0.03,0.15,0c0.15-0.2,0.05-0.33-0.05-0.47
					l0.05,0.06c0.07-0.29,0.19-0.57,0.31-0.84l-0.3-0.12l0.47-0.52c0.26,0.52-0.3,1.35,0.09,1.63c0.07-0.28,0.89-1.08,0.61-2.05
					c0.28-0.49,0.58-0.97,0.87-1.44c0.21,0.02,0.01,0.07,0.34-0.35c0.32-0.32,0.14-0.45,0.45-0.93c-0.06,0.18-0.08,0.27-0.06,0.34
					c0.49-0.51,0.15-0.88,0.33-1.39c-0.25,0.27-0.3,0.63-0.39,0.9c-0.11,0.02-0.08-0.06-0.14-0.05l-0.26,0.81
					c-0.12-0.13,0.1-0.11-0.28,0.24c0.26-0.48,0.35-0.59,0.58-1.15c-0.08-0.41-0.52,0.12-0.49-0.32c1.45-2.73,3.53-4.15,5.54-5.16
					c2.07-0.99,4.07-1.71,6.93-2.54c0.32,0.16,0.9,0.23,1.45,0.41c0.55,0.15,1.09,0.24,1.41,0.17l-0.19-0.12
					c0.88-0.11,0.99,0.64,1.7,0.38c0.25-0.1,0.51-0.22,0.76-0.28c0.3,0.22,1.12,0.54,0.88,0.67c0.62-0.06,1.43,0.79,1.79,0.28
					c0.27,0.15,0.51,0.3,0.73,0.43c0.21,0.16,0.4,0.31,0.59,0.46c0.37,0.31,0.78,0.55,1.24,0.91c-0.08-0.02-0.13,0.02-0.13,0.02
					c0.07,0.33,0.66,0.07,0.71,0.51c-0.21-0.01-0.94-0.58-0.47,0.04c0.35,0.02,0.78,0.35,1.07,0.76c0.29,0.42,0.48,0.86,0.49,1.02
					c0.24,0.17,0.5,0.32,0.77,0.4c0.2,0.38,0.25,1.06-0.21,0.62c0.86,0.85,0.49,1.17,1.11,0.99c0.54,0.49,0.81,1.02,1.02,1.56
					c0.19,0.55,0.42,1.05,0.93,1.56c0.6,2.03,0.8,4.27-0.02,5.82l0.18,0.12c-0.44-0.29-0.87,1.14-1.15,0.55
					c0.27,0.58-0.2,1.38-0.43,1.75l-0.21-0.3c0.51-0.74-0.06-0.25,0.33-1.21c0.01,0.11-0.02,0.18,0.09,0.17
					c0.05-0.27,0.03-0.69,0.08-1.1c0.02-0.21,0.03-0.41,0.05-0.6c-0.02-0.19-0.04-0.36-0.06-0.5l0.24,0.12
					c0.04-0.45-0.15-0.77-0.37-1.05c-0.24-0.28-0.56-0.53-0.71-0.93c0.22-0.73,0.25,0.07,0.74-0.18c-0.09-0.49-0.54-0.54-0.88-0.6
					c-0.33-0.06-0.54-0.12-0.23-0.68l0.13,0.18c-0.29-1.14,0.42,0.39,0.46-0.55c-0.35-0.9-0.55-0.63-0.69-0.37
					c-0.15,0.27-0.34,0.55-0.8-0.1c0.4-0.05,0.34-0.43,0.36-0.89c-0.25-0.02-0.59-0.26-0.96-0.51c-0.37-0.25-0.71-0.54-1.07-0.58
					c0.18-0.04,0.09-0.44-0.25-0.84c0.43,0.07,0.47,0.32,0.8,0.85c0.18-0.03,0.54-0.02,0.54-0.36c-0.42-0.01-0.89-0.39-1.33-0.76
					c-0.45-0.37-0.96-0.66-1.35-0.55c0.31,0.05,0-0.55,0.17-0.7c-0.4,0.03-0.76-0.3-0.94-0.34l0.24,0.39
					c-0.46-0.75-1.67-0.85-2.5-1.22l0.08-0.11c-0.66-0.2-1.28-0.07-1.93-0.37c0.38-0.07,0.21-0.54,0.12-0.76
					c-0.03-0.52,1.56-0.26,0.81-0.85c-0.77,0.03-1.23,0.54-2.11,0.23c-0.32,0.27,0.33,0.54,0.54,0.6c-0.35,0.02-0.75-0.12-1.12-0.23
					c-0.37-0.06-0.71-0.07-0.88,0.13c0.27,0,0.36,0.08,0.33,0.21c-0.01-0.05-0.86,0.74-1.1,0.6c0.14-0.26-0.02-0.15,0.18-0.44
					c-0.35-0.13-0.58,0.02-0.81,0.16c-0.01-0.55,0.87-0.09,0.8-0.78c-0.68-0.04-1.1,0.07-1.45,0.31c-0.34,0.26-0.64,0.57-1.12,0.84
					c-0.48,0.12-0.78,0.27-1.31,0.3c0.05-0.06,0.21-0.09,0.11-0.16c-1.14,0.03-0.6,0.48-1.56,0.44c-0.08,0.34-0.34,0.65-0.67,0.9
					c-0.32,0.26-0.67,0.56-0.97,0.74c0.02-0.11-0.09-0.27-0.05-0.39c-0.25,0.25-0.47,0.52-0.64,0.83c-0.18,0.29-0.36,0.57-0.54,0.85
					c-0.29,0.6-0.7,1.09-1.18,1.61l-0.04-0.06c-0.47,0.73-0.67,1.48-1.15,2.32c0.06-0.24-0.04-0.36-0.14-0.4
					c-0.71,1.13-0.39,2.26-0.71,3.55c-0.14,0.17-0.2,0.47-0.26,0.7c-0.04,0.23-0.12,0.4-0.38,0.33c0.05,1.14,0.59-0.46,0.57,0.62
					l0.02-0.1c0.05,0.17,0.08,0.33,0.11,0.49c0.05,0.16,0.09,0.31,0.12,0.47c0.07,0.31,0.08,0.62,0.13,0.93
					c0.17,0.58,0.25,1.22,0.71,1.68c-0.02,0.33-0.14,0.85,0.25,1.53c0.37,0.09,0.74,0.46,1.11,0.78c0.12,0.35,0.25,0.7,0.49,1.17
					c-0.07-0.73,0.4,0.26,0.6,0.4c-0.44-0.15-0.27,0.31-0.83-0.19c0.42,1.38,1.2,0.28,1.7,1.68l-0.23,0.43
					c-0.06-0.28-0.34-0.42-0.5-0.66c0.06,0.28,0.33,1.15,0.81,1.42c0.3,0.09-0.26-1.14,0.49-0.23c-0.56,0.23,0.5,0.67,0.24,1.42
					c0.25-0.03,0.71,0.29,0.88,0.76c-0.04,0.11-0.1,0.05-0.18,0.04c0.37,0.82,0.57,0,0.98,0.71c-0.07,0.22-0.67-0.18-0.59,0.28
					c0.08,0.74,0.4,0.26,0.63,1.01c0.02-0.28,0.59-0.28,0.87,0.08c-0.23,0.2-0.64,0.44-1.08-0.16c0.01,0.45,0.18,1.14-0.42,0.74
					c0.86,0.59,1.52,1.72,2.44,2.37c-0.07,0.22,0.07,0.51,0.27,0.87c0.46,0.32,1.24,0.17,1.33,0.63c0.3,0.09,0.17-0.26,0.29-0.36
					l0.54,0.56c0.07,0.51-0.73-0.24-0.78,0.15l0.25,0.69c0.5,0.44,0.57-0.22,0.66-0.49c0.07,0.74,0.7,0.57,0.77,1.08
					c-0.62-0.79-0.35,0.81-1.04-0.27l0.15,0.52c-0.23,0.2-0.66-0.46-0.91-0.43c0.31,0.76,0.72,0.74,1.05,1.44
					c-0.51,0.06-0.45-0.82-1.08-0.89c0.24,0.97,0.93,1.32,0.68,1.8c-0.38-0.32-0.34-1.15-0.85-1.09c-0.11,0.33-0.51,0.79,0.15,1.47
					c0.35,0.15,0.23-0.43,0.02-0.78l-0.18,0.04l0.23-0.2c0.12,0.41,0.64,0.86,0.86,1.26c-0.03,0.11-0.01,0.22,0.03,0.32
					c0.03-0.02,0.05-0.05,0.06-0.08c0.01,0.06,0.01,0.12-0.02,0.18c0.25,0.44,0.97,0.79,0.97,1.31l-0.58-0.67
					c-0.27,0.21-0.03,0.77,0.13,1.44c0.27,0.51,0.87,1.6,1.17,1.19l-0.28-0.36c0.64-0.13,0.25,1.12,0.81,0.65
					c0-0.16-0.13-0.25-0.24-0.4c0.36,0.23,0.66-0.02,0.48-0.65l-0.66-0.15c0.09-0.71-0.64-0.73-0.73-1.47
					c0.14-0.05,0.15-0.21,0.29-0.1c0.21,0.59,0.68,1.27,1.07,1.47c-0.38-0.65,0.35-0.18,0.19-0.55c0.57,0.98,0.8,0.08,1.43,1.13
					l-0.63-0.17c0.46,0.99,1.01,0.67,1.5,0.89c0.16,0.37-0.09,1.15,0.44,1.6c0.17,0.94,0.68,0.4,1.12,0.97
					c-0.41,0.11-0.88-0.42-1.18-0.73c0.01,0.05,0.03,0.09,0.06,0.14c-0.03-0.03-0.06-0.06-0.11-0.05c0.06,0.64,1.51,1.31,0.56,1.28
					c-0.49-1.1-1.56-1.54-2.43-2.41c-0.13-0.41-0.44-0.72-0.43-1.03c-0.38,0.07-0.7,0.22-0.74,0.72c0.69,0.44,0.82,0.1,1.4,0.86
					c0.26,0.59,0.87,1.19,1.27,1.65l0.21-0.29c0.56,0.56,1.32,1.86,1.62,1.61c-0.23,0.02-0.16,0.36,0.1,0.6l-0.48-0.22
					c-0.13,0.32,0.45,1.29,0.02,1.14c0.6,0.94,0.9,0.68,1.33,1.71c0.41,0.76,1.66,0.38,2.27,1.74c-0.21,0.44-0.87-0.72-0.89,0.05
					c0.17,0.3,0.35,0.57,0.48,0.7c0.09,0.08,0.19,0.12,0.28,0.13c0.18,0.02,0.37-0.07,0.55-0.21c0.04-0.22,0.21-0.3,0.36-0.53
					c-0.02,0.05-0.03,0.11-0.04,0.18c-0.21,0.34,0.05-0.14-0.21,0.17c-0.06,0.2-0.07,0.34,0.02,0.45c-0.05,0.09-0.11,0.17-0.17,0.24
					c0.04,0.26,0.26-0.05,0.13,0.55c0.12-0.15,0.21-0.33,0.29-0.55c0.06,0.68,0.16,0.05,0.19-0.21c-0.02-0.15-0.03-0.28-0.04-0.41
					l0.05,0.3c0.01-0.38-0.03-0.81-0.03-0.97c0.03,1.01,0.07,0.74,0.18,1.82c-0.01,0.01-0.02,0.05-0.03,0.04
					c-0.02-0.03-0.03-0.05-0.04-0.05c-0.02,0-0.04,0.1-0.02,0.46c0.02,0.04,0.06,0.22,0.11,0.5c0.01,0.07,0.03,0.14,0.04,0.22
					l0.03,0.13c0.03,0.09,0.05,0.18,0.08,0.26l0.02,0.05c-0.03-0.15,0.08-0.29,0.05-0.54c-0.14-0.75-0.27-1.56-0.37-2.43
					c-0.03-0.3,0.04,0.26,0.14,0.78c0.1,0.53,0.24,1.01,0.26,0.88c-0.04,0.61,0.06,0.17,0.16,0.74c0.04-0.44,0.04-0.93,0.03-1.29
					c-0.01-0.37-0.02-0.6,0.05-0.72c0.05,0.1,0.1,0.21,0.15,0.33c-0.09-0.43,0.25,0,0.14-0.5c-0.1-0.19-0.12,0.18-0.25-0.14
					l0.42-0.8c0.21-0.39,0.45-0.76,0.68-1.14c0.45-0.77,0.96-1.47,1.45-2.19c1.01-1.4,2.05-2.74,3.03-3.97
					c0.33,0.38,1.1-0.78,1.57-1.08c0.07-0.35-0.28-0.28-0.4,0.05c0.23-0.66,0.44-0.89,0.86-1.39c0.46,0.09,0.77-0.4,0.97-0.85
					c0.01,0.27,0.42,0.28-0.33,0.8c0.25-0.09-0.28,1.3,0.61,0.41c0.32-1.28,0.96-2.54,1.92-3.57c0.63-0.51,0.71-0.94,1.15-1.04
					l-0.02,0.27c0.36-0.24,0.23-0.47,0.2-0.67c0.47-0.47,0.58,0.13,0.55,0.4c0.96-1.21,0.77-1.92,1.89-3.05
					c0.35-0.15,0.47,0.36,0.93-0.21c1.41-1.84,2.28-3.47,3.95-5.21l0.65-0.27c-0.04-0.27-0.09-0.54-0.14-0.8
					c1.68-1.6,2.68-3.33,3.79-5.46c-0.02,0.25-0.2,0.49-0.1,0.66c0.31-0.74-0.15-1.75,0.24-2.32c-0.15-0.06,0.37,0.13,0.47,0.21
					c0.13-0.9-0.27-1.54-0.21-2.48c0.15-0.1,0.16,0.47,0.42,0.19l0.05-0.58c0.11,0.47,0.41-0.23,0.45-0.07
					c-0.06,0.09-0.16,0.19-0.13,0.35c0.24,0.05,0.39-0.48,0.61-0.77c0.03-0.26-0.14-0.48-0.28-0.28c0.24-0.39,0.19-0.04,0.44-0.01
					c0.2-0.56,0.06-0.65-0.27-0.76c-0.26,0.01-0.26,0.01-0.52,0.35c0.32-0.56,0.5-1.26,0.8-1.63l-0.25-0.35l0.09-0.07
					c-0.13-0.03-0.19-0.04-0.23-0.07l0.01,0.07c-0.09-0.21-0.16-0.43-0.21-0.66c-0.07-0.23-0.14-0.46-0.19-0.7
					c-0.1-0.48-0.15-0.98-0.28-1.49c-0.1-0.51-0.18-1.02-0.38-1.5c-0.17-0.48-0.35-0.97-0.61-1.29c-0.11-0.43-0.27-0.86-0.47-1.28
					c0.36,0.18,0.62,0.56,0.84,0.91c0.19,0.36,0.35,0.68,0.51,0.82c-0.05-0.1-0.08-0.21-0.14-0.3c0.1-0.16,0.13,0.57,0.48,0.54
					l0.09-0.55c-0.07-0.78-0.88-0.06-0.61-0.91c0.52,0.83,0.15-0.48,0.69,0c0.12-0.37-0.38-0.51-0.81-0.66
					c0.13,0.21,0.24,0.42,0.29,0.62c-0.14-0.03-0.25-0.26-0.39-0.46c-0.15-0.2-0.34-0.37-0.57-0.3c-0.06-0.13-0.06-0.22-0.04-0.29
					c-0.1-0.18-0.04-0.35,0.03-0.51c-0.04-0.05-0.09-0.11-0.17-0.18c-0.17,0.18-0.7,0.03-0.92-0.33c-0.06-0.09,0.34,0.02,0.49-0.07
					c-0.24-0.99-0.97-1.48-1.73-2.28c0.26,0.37,0.2,0.76,0.2,0.88c-0.11-0.03-0.21-0.08-0.3-0.15c-0.08,0.08-0.29,0.01-0.45-0.05
					l0.33-0.04c-0.22-0.17-0.45-0.34-0.68-0.3c-0.2,0.09-0.33,0.14-0.46-0.31c0.16,0.05,0.27,0.03,0.37-0.01
					c-0.19-0.16-0.41-0.27-0.66-0.37c0.03-0.1,0.06-0.48-0.32-0.79l-0.11,0.6c-0.66-0.67-0.61-0.54-1.04-0.73
					c-0.14-0.46-0.74-0.56-1.27-0.61c-0.54-0.04-1.01-0.04-1.02-0.37c0.3,0.06,0.59,0.15,0.88,0.23c-0.2-0.53,1.07-0.66,0.8-1.03
					c-0.43,0-0.85,0.02-1.26,0.05c0.92,0.69-1.21,0.42-1.09,1.01c-0.45-0.04-0.72-0.55-1.29-0.22c-0.38-0.14,0.34-0.38-0.12-0.5
					c-0.32,0.06-0.26,0.37-0.72,0.27c0.04-0.06,0.2-0.21,0.12-0.3c-0.51-0.14-0.36,0.24-0.93,0.38l0.12,0.02
					c-0.25,0.35-0.69-0.09-0.83-0.2c-0.48,0.18-0.93,0.4-1.36,0.64c0.12-0.26,0.81-0.63,0.31-0.74c0.21-0.31,0.78-0.27,1.24-0.24
					c0.47,0.04,0.86,0.04,0.8-0.43c-0.48-0.25-1.07,0.41-1.53,0.03c-0.07,0.42-0.74,0.55-1.12,0.83l-0.15-0.1
					c-0.88,0.22,0.2,0.71-0.72,0.9c-0.15-0.08,0.03-0.48-0.51-0.26c-0.07,0.13-0.26,0.28-0.22,0.45l0.16,0
					c0.12,0.1-0.02,0.2-0.24,0.3c-0.21,0.12-0.5,0.22-0.68,0.31c0.1-0.25,0.04-0.51-0.34-0.39c0.66-0.31,0.18-0.96,0.81-1.19
					c-0.17,0.25-0.65,0.79-0.2,0.79c0.55-0.02,0.79-0.61,1.41-0.95l-0.44,0.11c-0.17-0.29,0.07-0.51,0.38-0.73
					c0.31-0.2,0.67-0.41,0.71-0.75c-0.22,0.05-0.38,0.14-0.41,0.04c0.08,0.12,0.74-0.2,1.1-0.23l-0.3,0.36
					c0.56,0.14,0.74,0.06,0.94-0.06c0.2-0.12,0.41-0.3,0.96-0.2c-0.09,0.21-1.58,0.56-0.72,0.68c-0.03-0.33,0.66-0.13,0.74-0.36
					c0.23,0.15,0.46,0.28,0.68,0.45c0.59-0.15,1.31-0.34,1.7-0.45c-0.32,0.21-0.53,0.19-0.87,0.36c0.81-0.1,1.07,0.77,1.7,0.38
					l-0.43-0.21c0.65,0.12,0.9,0.14,1.21,0.06c0.3-0.22-0.19-0.56-0.56-0.7c0.34,0.09,0.96,0.47,1.03,0.16
					c0.28,0.32,0.69,0.27,0.86,0.11c0.54,0.35,0.15,0.27,0.12,0.53c0.53,0.01,1.47,0.66,1.49,0.14c-0.16-0.18-0.87-0.27-0.47-0.48
					c0.06,0.48,0.4-0.06,0.77,0.21c-0.88,0.08,0.72,0.75,0.08,0.81c0.64,0.42,0.88,0.23,1.42,0.41l-0.16,0.28
					c0.27,0.09,0.52,0.23,0.79,0.34c-0.07,0.42-0.64,0.5-0.1,1.06c0.73,0,0.96-0.67,1.87-0.12l-0.44,0.2
					c0.19,0.24,0.95,0.84,1.1,0.57c-0.01-0.3-0.1-0.67-0.37-0.98l0.09,0.1c0.58,0.24-0.36-1.07,0.52-0.25
					c-0.3,0.1-0.15,0.55,0.08,1.05c0.21,0.52,0.5,1.1,0.51,1.46c0.37,0.2,0.96,0.75,1.26,0.84c0.11-0.11-0.11-0.69,0.27-0.61
					c0.1,0.38,0.23,0.67,0.36,0.94c0.14,0.26,0.32,0.48,0.45,0.72c0.14,0.24,0.29,0.48,0.38,0.75c0.07,0.26,0.1,0.56,0.06,0.91
					c-0.06-0.03-0.15,0-0.02,0.35l-0.11,0.21c0.11,0.19,0.25,0.42,0.22,0.63l0.11,1.01c-0.08,0.04,0.09,0.18,0.24,0.34
					c0.01-0.08,0.01-0.17,0.01-0.29l-0.01,0.3c0.11,0.12,0.21,0.25,0.17,0.35c0.36,0.13-0.17,0.76-0.25,1.15
					c0-0.07-0.04-0.18-0.06-0.25c-0.1,0.69,0.61,1.03,0.14,1.69l-0.14,0.09c0.02-0.12,0.03-0.24-0.01-0.27
					c-0.02,0.12-0.03,0.22-0.04,0.31c-0.07,0.3-0.05,0.28-0.01,0.17c-0.03,0.53,0.24,0.45,0.12,1.26l0.21-0.42
					c0,0.21-0.02,0.33-0.05,0.41c0.1,0.5,0.12,1.86-0.3,2.54c0.26,0.79,0.53,0.76,0.33,1.81l-0.35-0.23l-0.45,1.07
					c-0.11-0.19-0.44,0.27-0.74,0.91c0-0.01,0.01-0.02,0.01-0.03c-0.62,0.26-0.55,1.08-0.58,1.41c0.01,0.2,0,0.67-0.15,0.67
					c0.22,0.28-0.06,0.82-0.27,1.34c0.01,0.01,0.02,0,0.03,0.01c-0.04,0.04-0.08,0.1-0.13,0.19c0.04-0.01,0.09-0.02,0.14-0.03
					c-0.39,0.32,0,0.78-0.6,1.15c-0.61,0.65-0.39-0.57-1.07,0.24l-0.07,0.52c-0.14,0.07-0.1-0.01-0.11-0.1
					c-0.18,0.43-0.67,0.53-0.43,0.92c0.64-0.52,0.86-0.6,1.43-1.25c-0.42,0.94-0.12,1.27-0.56,2.02c0.06,0.1,0.14-0.07,0.29-0.14
					c-0.21,0.42-0.64,0.63-0.67,0.35c-0.27,0.32,0.01,0.65-0.31,1.14l0.47,0.37c-0.26,0.77-1.04,1.33-1.54,1.73
					c0.46-0.55,0.46-1.3,0.74-1.7c-1-0.37,0.86-1.85,0.76-2.33c-0.42,0.29-0.02-0.72-0.65-0.02c0.01,0.63-0.33,0.67-0.63,1.15
					c-0.44,0.09-0.14-0.65-0.73,0.21c0.37-0.28,0.14,0.75,0.54,0.03c-0.46,1.35-0.8,1.47-1.42,2.68c0.63-0.94,0.11,0.68,0.69,0.27
					c-0.44-0.21,0.82-1.64-0.2-0.61c0.17-0.3,0.36-0.58,0.52-0.88c0.26,0.06-0.37,1.02,0.41,0.46c-0.33,0.85-0.68,0.94-0.87,1.83
					c-0.14-0.31-0.75,0.36-1.05,0.27c-0.2,0.31-0.17,0.79-0.61,0.94l0.21-0.59c-0.41,0.44-0.69,0.26-1.1,0.59
					c-0.17,0.31-0.03,0.48,0.21,0.47c-0.64,0.58-0.98,1.39-1.72,1.91c0.74-0.76-0.21-0.45,0.37-1.08L484,632
					c-0.47,1.23-1.34,2.95-1.05,3.62c-0.78,1.28-1.34,0.23-1.95,2.03c0.12-0.23-0.42-0.17-0.46-0.36c-0.21,0.2-0.62,0.5-0.73,0.83
					l0.7-0.28c-0.34,0.8-1.35,1.47-1.93,2.15c0.05-0.2-0.31-0.12-0.05-0.61c-0.18-0.16-0.59,0.33-0.8,0.52
					c-0.27,0.63,0.36,0.59,0.01,1.27c-1.87,2.04-3.56,4.16-4.96,6.38c-0.32,0.56-0.68,1.11-0.97,1.68l-0.66,1.28
					c-0.31,0.61-0.54,1.35-0.8,2.06l-0.76,2.14l-0.71,2.38l-1.36,4.57l-0.42-0.66l-0.47-0.78l-0.94-1.56
					c-0.63-1.04-1.25-2.09-1.88-3.13c-0.62-1.04-1.24-2.09-1.86-3.14l-0.92-1.56l-0.45-0.78l-0.25-0.44l0.18-0.09
					c-3.09-4.14-5.68-9.4-8.4-14.19l-0.09,0.12c-0.11-1.89-1.39-0.37-1.49-2.45c-1.34-0.58-1.5-2.5-2.8-3.46l0.17-0.26
					C446.69,628.71,447.13,626.96,446.04,626.12z"/>
				<path class="st2" d="M494.05,604.91l0.03-0.14C493.77,604.52,493.89,604.66,494.05,604.91z"/>
				<path class="st2" d="M494.02,614.16c0.26-0.05,0.43-0.33,0.51-0.63c-0.09,0.02-0.22,0.02-0.34,0.13
					c0.33-0.73,0.23-1.24,0.47-2.1c-0.14,0.05-0.33-0.25-0.25,0.65c0.16-0.17-0.01,0.22-0.18,0.69
					C494.02,613.36,493.82,613.92,494.02,614.16z"/>
				<path class="st2" d="M487.2,599.33L487.2,599.33c-0.05,0.01-0.1,0.02-0.14,0.04L487.2,599.33z"/>
				<path class="st2" d="M490.22,601.88c-0.04-0.11-0.05-0.22,0-0.33C490.32,601.63,490.28,601.75,490.22,601.88z"/>
				<path class="st2" d="M491.95,609.7c-0.03-0.29-0.09-0.69,0.08-0.87C492.08,609.32,491.97,609.57,491.95,609.7z"/>
				<path class="st2" d="M466.31,650.19c0,0.01,0.01,0.02,0.01,0.03c-0.04-0.61,0.09-0.22,0.08-0.64c0.11,0.05,0.11,0.63,0.08,0.94
					C466.47,650.55,466.39,650.41,466.31,650.19z"/>
				<path class="st2" d="M454.32,633.26c0.12,0.09,0.19,0.3,0.26,0.49c-0.06-0.02-0.08,0.06-0.11,0.14
					c-0.01-0.02-0.02-0.05-0.02-0.07c-0.07,0.18-0.35,0.13-0.54,0.2C453.42,633.23,453.73,633.54,454.32,633.26z"/>
				<path class="st2" d="M460.49,639.72c-0.06-0.08-0.09-0.14-0.13-0.19C460.39,639.58,460.43,639.64,460.49,639.72z"/>
				<path class="st2" d="M454.34,633.3c-0.04,0.01,0.02,0.24,0.11,0.53C454.49,633.73,454.47,633.58,454.34,633.3z"/>
				<path class="st2" d="M474.34,596.04l0.22-0.17l-0.58,0.05c-0.72,0.62-0.6,0.88-0.6,1.27c0.49-0.65,1-0.77,1.89-1.18
					C474.96,596,474.65,596.01,474.34,596.04z"/>
				<path class="st2" d="M475.54,597.85c0.1,0.05,0.34,0.2,0.44,0.19l0.03-0.22L475.54,597.85z"/>
				<path class="st2" d="M483.85,598.85l-0.59-0.37C483.02,598.58,483.66,599.11,483.85,598.85z"/>
				<path class="st2" d="M481.35,594.82c-0.15,0.05-0.31,0.12-0.46,0.17c0.37,0.19,0.88,0.26,1,0.04
					C481.36,595.08,481.79,594.88,481.35,594.82z"/>
				<path class="st2" d="M485.49,599.58c0.36-0.24,0.5,0.46,0.8,0.21C486.09,599.79,485.69,599.25,485.49,599.58z"/>
				<path class="st2" d="M486.59,596.03c-0.09-0.45-0.64-0.33-1.11-0.6C485.91,595.59,486.33,596.19,486.59,596.03z"/>
				<path class="st2" d="M489.1,600.76c-0.22,0.18-0.4-0.05-0.62-0.3c0.14,0,0.29-0.05,0.42,0.02c-0.56-0.2-0.57-0.25-0.99-0.43
					c0.23,0.43,0.64,0.93,0.35,1.15C488.65,601.22,489.22,601.22,489.1,600.76z"/>
				<path class="st2" d="M487.76,596.57c-0.34-0.3-0.47-0.67-0.98-0.87c0,0.22,0.06,0.52,0.63,0.78l-0.34,0.18
					C487.46,597.14,487.06,596.18,487.76,596.57z"/>
				<path class="st2" d="M489.81,602.71c0.01-0.09,0-0.17,0-0.25c-0.48-0.23-0.8-0.76-1.27-0.67
					C488.94,602.17,489.49,602.6,489.81,602.71z"/>
				<path class="st2" d="M489.27,598.25l0.34-0.31c-0.47-0.41-0.05,0.15-0.3,0.1c-0.1-0.15-0.3-0.34-0.45-0.35
					C489.46,598.04,488.68,598.02,489.27,598.25z"/>
				<path class="st2" d="M491.13,599.21l0.7,0.48l-0.08-0.82C490.92,598.28,491.52,599.03,491.13,599.21z"/>
				<path class="st2" d="M491.58,600.15l-0.01,0.12c0.41,0.18,0.86,0.35,1.27,0.59C492.19,600.4,492.17,600.36,491.58,600.15z"/>
				<path class="st2" d="M491.26,613.13c0.16,0.15,0.52-0.39,0.26-0.18C491.39,612.81,490.98,613.53,491.26,613.13z"/>
				<path class="st2" d="M495.22,611.05c-0.18,0.32-0.05,1.46,0.02,1.98C495.23,612.43,495.49,610.99,495.22,611.05z"/>
				<path class="st2" d="M495.25,613.23c0-0.04-0.01-0.12-0.01-0.21C495.23,613.11,495.24,613.18,495.25,613.23z"/>
				<path class="st2" d="M486.7,631.34c-0.03,0.04-0.05,0.09-0.06,0.14C486.66,631.44,486.68,631.4,486.7,631.34z"/>
				<path class="st2" d="M486.92,630.91c0.26-0.2,0.57-0.77,0.48-0.99c-0.24,0.45-0.47,0.84-0.7,1.42
					C486.83,631.16,487.12,631.05,486.92,630.91z"/>
				<path class="st2" d="M483.85,634.18c0.07-0.25,0.33-0.44,0.13-0.51C483.84,633.71,483.65,634.2,483.85,634.18z"/>
				<path class="st2" d="M465.82,647.45c-0.01-0.21-0.04-0.11-0.11,0.31C465.77,647.85,465.78,647.55,465.82,647.45z"/>
				<path class="st2" d="M465.63,647.74l0.05-0.2c0.02-0.11,0.04-0.21,0.06-0.31C465.69,647.4,465.66,647.56,465.63,647.74z"/>
				<path class="st2" d="M465.61,646.92c0.02-0.01,0.07-0.04,0.11-0.06C465.68,646.87,465.64,646.88,465.61,646.92z"/>
				<path class="st2" d="M465.73,646.85l-0.02,0.01L465.73,646.85z"/>
				<path class="st2" d="M465.67,646.93l0.11-0.1c-0.02,0.01-0.03,0.02-0.05,0.03C465.74,646.85,465.73,646.87,465.67,646.93z"/>
				<path class="st2" d="M465.31,646.33l-0.08,0.69c0.07,0.06,0.09,0.06,0.11,0.04c0.02-0.01,0.04-0.02,0.05-0.03
					c0.01-0.01,0.03-0.02,0.04-0.05c0-0.04-0.01-0.08-0.01-0.13c-0.01-0.18,0-0.39,0.34-0.26L465.31,646.33z"/>
				<path class="st2" d="M464.21,644.76c-0.15-0.52-1.12-0.82-0.85-1.33c-1-1.13-0.54,0.73-1.59-0.62c0.61,1.51,1.26,0.19,1.76,1.56
					C463.44,643.61,463.99,644.62,464.21,644.76z"/>
				<path class="st2" d="M463.61,645.42c0.26-0.06-0.07-0.64-0.32-0.73C463.37,644.87,463.24,645.34,463.61,645.42z"/>
				<polygon class="st2" points="462.5,642.39 462.43,641.9 462.23,641.89 				"/>
				<path class="st2" d="M461.69,640.87l0.48,0.22C462,641.03,461.67,640.45,461.69,640.87z"/>
				<path class="st2" d="M460.75,638.62c-0.13-0.41-0.91-0.38-0.32,0.3l-0.08-0.18C460.46,638.73,460.42,638.2,460.75,638.62z"/>
				<path class="st2" d="M456.95,634.43c0.14,0.25,0.39,0.5,0.48,0.37l-0.53-0.6L456.95,634.43z"/>
				<path class="st2" d="M455.6,635.39c-0.22,0.44,0.41,0.61,0.57,1.13C455.92,635.98,456.01,636.01,455.6,635.39z"/>
				<path class="st2" d="M456.98,633.36c0.26,0.09,0.33,0.43,0.41,0.61C457.55,633.77,457.21,633.34,456.98,633.36z"/>
				<path class="st2" d="M456.21,632.36c0.01-0.31,0.23-0.07,0.22-0.3c-0.13-0.57-0.45-1.05-0.81-1.2
					c-0.07,0.22-0.38,0.63-0.68,0.55c0.58,0.68,1.47,0.66,1.19,1.33l1,0.25C456.87,632.34,456.43,632.8,456.21,632.36z"/>
				<path class="st2" d="M455.96,634.6l-0.04-0.53c-0.15,0.2-0.37-0.08-0.57-0.26C454.97,634.19,455.8,634.38,455.96,634.6z"/>
				<polygon class="st2" points="453.4,628.36 452.77,627.57 452.92,627.87 				"/>
				<polygon class="st2" points="453.21,627.73 453.33,627.63 452.69,627.12 				"/>
				<polygon class="st2" points="452.82,626.74 452.86,626.85 453.28,627.29 				"/>
				<path class="st2" d="M451.82,624.91l-0.09,0.27c0.18,0.19,0.23,0.75,0.46,0.55C451.99,625.59,451.75,625.13,451.82,624.91z"/>
				<path class="st2" d="M443.4,621.95c0.22,0.08,0.27-0.08,0.33-0.24l-0.47-0.05C443.32,621.72,443.44,621.84,443.4,621.95z"/>
				<path class="st2" d="M443.3,620.6l-0.75-0.41c0.39,0.76,0.74,0.69,1.19,1.29c-0.05-0.34-0.54-0.56-0.65-0.96L443.3,620.6z"/>
				<path class="st2" d="M440.26,604.83c0.24,0.15,0.26-0.03,0.25,0.6c0.07-0.85,0.34-1.54,0.71-2.43
					c-0.23,0.08-0.21-0.71-0.29-0.34l-0.28,1.07l-0.11-0.22C440.04,604.16,440.66,604.1,440.26,604.83z"/>
				<path class="st2" d="M468.74,608.16c-0.14-0.07-0.25,0.05-0.36,0.17C468.58,608.84,468.7,608.06,468.74,608.16z"/>
			</g>
		</g>
	</g>
	<line class="st3" x1="433.79" y1="600.07" x2="206.84" y2="600.06"/>
	<line class="st3" x1="663.68" y1="600.07" x2="502.52" y2="600.07"/>
</g>
<g id="Layer_12">
	<g id="Layer_3">
		<path class="st4" d="M364.31,846.13c0,0-3.94,26.74-20.4,28.03c-16.46,1.28-19.32-6.13-28.76-7.72
			c-9.44-1.59-15.46,9.72-31.29,11.79c-15.83,2.07-23.55-6.77-30.25-13.73c-6.7-6.96-29.63,20.69-57.07-0.39
			s-24.66-34.45-29.84-42.65c-5.18-8.2-28.8-10.85-40.95-19.31c-12.15-8.46-13.27-18.06-12.01-33.42
			c1.26-15.37,7.87-23.65,6.34-32.57c-1.53-8.92-15.18-10.03-26.11-24.04c-10.93-14.01-5.22-15.78-4.85-24.82
			s62.68,40.82,121.59,63.59C307.26,788.21,364.31,846.13,364.31,846.13z"/>
		<g>
			<path class="st5" d="M376.55,791.02l-13.19,59.4c0,0-0.68,1.56-0.68,1.56c-4.3,9.84-10.67,27.66-30.49,20.53
				c-20.31-7.31-21.98-24.39,8.4-100.66c0.12-0.3,0.27-0.59,0.45-0.86c15.14-22.02,44.17-6.58,35.61,19.66
				C376.61,790.78,376.57,790.9,376.55,791.02z"/>
			<g>
				<path class="st4" d="M363.63,846.63C363.63,846.63,363.63,846.63,363.63,846.63C363.62,846.61,363.62,846.62,363.63,846.63z"/>
				<path class="st4" d="M358.89,860.34c-3.54,3.92-9.11,6.5-17.24,3.95c-23.6-7.4-10.93-37.86-2.12-56.46
					c5.81-12.27,18.23-33.25,26.02-46.11c-7.8-3.02-17.6-0.77-24.51,9.28c-0.18,0.26-0.33,0.56-0.45,0.86
					c-30.37,76.26-28.71,93.35-8.4,100.66C347.05,877.86,354.35,869.17,358.89,860.34z"/>
				<path class="st4" d="M363.63,846.63c0.16,0.28,0.26,0.71,0.29,1.25l0.11-0.49C363.81,846.96,363.66,846.69,363.63,846.63z"/>
			</g>
		</g>
		<g>
			<path class="st5" d="M150.32,724.09c-3.44,2.5-7.38,4.08-11.5,4.63c-11.49,1.52-23.39-0.23-33.35-6.43
				c-27.62-15.23-25.54-63.89,7.83-65.62c0.85-0.04,1.7-0.01,2.54,0.05c17.95,1.26,35.89,2.52,53.84,3.78
				c10.88,0.76,18.84,13.33,17.98,25.04C184.85,711.32,163.28,714.66,150.32,724.09z"/>
			<g>
				<path class="st4" d="M187.66,685.54c0.09-1.28,0.08-2.57-0.03-3.85c-4.27,1.58-10.34,3.85-18.91,7.12
					c-23.43,8.94-41.5,29.89-59.09,18.82c-14.21-8.94-22.59-28.2-15.84-41.75c-12.99,15.24-8.89,45.08,11.67,56.41
					c9.96,6.2,21.86,7.95,33.35,6.43c4.12-0.54,8.06-2.13,11.5-4.63C163.28,714.66,184.85,711.32,187.66,685.54z"/>
			</g>
		</g>
		<g>
			<path class="st5" d="M172.97,802.8c-6.09,6.73-15.11,9.77-23.8,7.84c-36.18-8.04-47.49-63.49-8.79-83.26
				c20.23-9.85,38.67-34.23,58.96-49.32c15.78-11.74,32.68-17.87,52.39-7.18c2.99,1.62,5.69,3.8,7.81,6.53
				c8.14,10.42,9.47,26.95,0.16,36.17C230.81,742.2,201.91,770.84,172.97,802.8z"/>
			<g>
				<path class="st4" d="M262.74,682.46c-4.2,7.28-10.39,16.89-19.08,27.98c-19.57,24.98-18.9,17.81-34.74,34.27
					c-15.83,16.46-24.71,35.75-41.21,42.23c-16.51,6.48-50.16,4.11-50.16-20.9c0-6.89,1.82-16.27,2.48-17.79
					c-10.91,24.24,2.23,56.4,29.13,62.38c8.69,1.93,17.71-1.11,23.8-7.84c28.95-31.96,57.84-60.59,86.74-89.23
					C267.62,705.73,267.84,692.62,262.74,682.46z"/>
			</g>
		</g>
		<g>
			<path class="st5" d="M259.38,864.62c-0.51-0.5-1.04-0.97-1.58-1.44c-9.28-8.26-11.63-23.91-5.01-34.63l78.89-127.7
				c0.77-1.24,1.61-2.43,2.57-3.52c7.33-8.33,15.34-6.75,22.51-1.49c15.16,11.13,19.08,32.81,9.41,49.28
				c-18.72,31.88-53.38,91.37-66,116.21C292.49,876.43,279.66,884.34,259.38,864.62z"/>
			<g>
				<path class="st4" d="M356.76,695.83c-7.17-5.26-15.18-6.84-22.51,1.49c-0.95,1.08-1.8,2.27-2.56,3.5c0,0.01-0.01,0.01-0.01,0.02
					c-0.01,0.01-0.04,0.06-0.08,0.14l-78.8,127.56c-6.63,10.73-4.28,26.38,5.01,34.63c0.53,0.47,1.07,0.94,1.58,1.44
					c11.17,10.86,20.08,13.34,27.12,10.85c-12.43-1.44-22.89-10.79-25.61-23.49c-0.73-3.4-0.81-6.56,0.28-8.93
					c4.12-8.86,11.01-16.08,16.14-24.29c11.97-16.76,23.88-33.56,35.91-50.27c4.66-6.47,8.04-15.48,11.61-22.67
					c6.5-13.07,14.33-36.5,27.34-39.59c5.45-1.29,8.78-1.93,10.89-4.45C361.24,699.58,359.14,697.57,356.76,695.83z"/>
			</g>
		</g>
		<g>
			<path class="st5" d="M221.34,867.28c7.73-0.62,14.74-4.96,19.06-11.65l102.86-159.1c22.12-37.12-26.19-74.47-54-41.6
				c-35.94,45.84-71.88,91.68-107.82,137.52C155.6,826.85,185.4,870.18,221.34,867.28z"/>
			<g>
				<path class="st4" d="M348.24,670.61c-1.53,14.55-12.66,37.89-26.94,55.48c-16.22,19.97-32.48,34.1-50.76,61.45
					c-19.52,29.21-9.37,23.66-23.34,47.9c-13.96,24.23-25.67,35.22-51.58,20.84s-20.38-38.99-7.21-56.66
					c13.17-17.67,34.66-29.23,47.08-54.98c13.51-28.02,26.67-36.76,45.49-71.22c7.41-13.57,15.55-22.84,22.7-29.1
					c-5.08,1.96-10,5.4-14.41,10.61c-35.94,45.84-71.88,91.68-107.82,137.52c-25.85,34.4,3.96,77.73,39.89,74.82
					c7.73-0.62,14.74-4.96,19.06-11.65l102.86-159.1C348.6,687.58,349.83,678.61,348.24,670.61z"/>
				<path class="st4" d="M272.07,710.39c8.34,11.97,20.89,20.7,34.71,24.16C291.48,735.31,276.23,725.23,272.07,710.39z"/>
				<path class="st4" d="M270.54,733.4c5.15,2.51,10.29,5.01,15.44,7.52C279.05,741.95,271.68,738.24,270.54,733.4z"/>
			</g>
		</g>
		<g id="Layer_6">
			<path class="st4" d="M205.5,712.54c-2.61-3.51-5.25-7.05-7.03-11.11c-0.31-0.69-0.6-1.38-0.87-2.08
				c0.07,0.52,0.14,1.05,0.23,1.57c1.13,6.69,4.96,12.53,9.38,17.39c2.42,2.7,5.41,4.71,8.25,6.88
				C211.45,720.37,208.76,717.27,205.5,712.54z"/>
			<path class="st4" d="M194.09,704.78c0.76,3.54,2,7.01,3.81,10.12c1.81,2.92,4.17,5.4,6.46,7.91
				C201.11,716.7,197.22,710.97,194.09,704.78z"/>
			<path class="st4" d="M100.1,677.73c0.06-1.3,0.14-2.6,0.23-3.9c-0.32,0.99-0.62,1.98-0.9,2.98c-2.99,10.57-2.1,20.01,3.39,29.5
				C100.13,696.55,99.62,688.33,100.1,677.73z"/>
			<path class="st4" d="M107.61,693.03c-0.69-6.96-1.55-15.04-0.96-21.52c0.24-1.95,0.76-3.86,1.51-5.67
				c-0.58,0.83-1.12,1.71-1.57,2.63c-1.49,2.96-2.01,6.3-2.37,9.59c-0.38,3.49-0.49,7.01-0.32,10.51c0.22,3.48,0.47,7.01,1.35,10.38
				c1.84,6.62,4.74,12.93,8.32,18.72C110.82,709.4,108.2,700.56,107.61,693.03z"/>
			<path class="st4" d="M137.97,666.08c-0.13,0.38-0.26,0.77-0.38,1.16c-2.61,7.68-2.53,16.21,0.14,23.86
				c-0.41-7.74-0.31-15.53,0.13-23.27C137.89,667.25,137.93,666.67,137.97,666.08z"/>
			<path class="st4" d="M131.1,675.76c0.81-3.84,1.38-7.73,2.04-11.6C131.32,667.67,130.7,671.81,131.1,675.76z"/>
			<path class="st4" d="M347.97,765.31c-4.53-2.93-9.18-5.67-13.56-8.85c-2.34-1.76-4.43-3.18-6.3-5.69
				c1.08,2.8,3.13,5.04,5.23,7.06c3.86,3.78,8.76,6.07,13.72,7.86c1.03,0.38,2.07,0.74,3.12,1.09
				C349.44,766.28,348.7,765.8,347.97,765.31z"/>
			<path class="st4" d="M335.1,769.45c-2.36-1.76-4.33-3.19-6.32-5.47c2.58,5.22,7.78,9.13,13.34,10.1
				C339.56,772.94,337.36,771.12,335.1,769.45z"/>
			<path class="st4" d="M354.84,797.63c3.8,5.01,9.89,7.47,15.91,7.68C364.82,802.94,360.54,801.4,354.84,797.63z"/>
			<path class="st4" d="M349.71,806.3c-1.54-0.86-3.09-1.69-4.64-2.52c0.25,0.25,0.5,0.49,0.76,0.74
				c5.95,5.74,13.39,11.32,21.95,9.7C360.76,813.33,356.14,809.79,349.71,806.3z"/>
			<path class="st4" d="M353.25,857.05c-4.72-1.2-9.87-3.03-14.62-1.06c-3,1.67-5.41,4.37-7.51,7.11c2.51-1.88,6.06-4.33,8.24-5.21
				c2.38-0.75,6.67-0.58,10.51-0.26c1.95,0.14,3.91,0.19,5.85-0.02C354.89,857.44,354.07,857.25,353.25,857.05z"/>
			<path class="st4" d="M334.35,866.68c6.1-2,12.59-2.21,18.81-3.68C346.75,862.32,339.77,862.64,334.35,866.68z"/>
			<path class="st4" d="M295.01,870.4c-0.35-3.58-2.3-6.72-4.62-9.29c-1.72-1.86-3.6-3.62-5.76-4.92c-2.83-1.54-5.97-2.31-8.96-3.43
				c-2.98-1.09-6.08-2.21-8.8-3.48c-0.48-0.17-1.68-0.98-0.62-0.1c3.37,2.85,7.18,5.12,11.11,7.02c3.12,1.41,6.3,2.74,8.96,4.99
				c2.27,1.67,6.45,5.46,7.51,8.66c0.5,1.44,1.15,2.98,0.63,4.46C295.25,873.21,295.11,871.69,295.01,870.4z"/>
			<path class="st4" d="M279.11,865.8c-2.31-2.08-4.71-4.05-7.23-5.85c-4.14-2.86-8.17-5.07-11.46-8.71
				c-0.86-1.05-0.05,0.26,0.21,0.78c2.49,4.45,6.53,7.65,10.6,10.46c2.71,1.84,5.51,3.54,8.31,5.22c1.26,0.79,2.44,1.56,3.5,2.57
				C282.01,868.53,280.57,867.12,279.11,865.8z"/>
			<path class="st4" d="M240.42,847.72c-3.65-6.47-9.66-11.05-15.35-15.45c-5.43-4.01-11.91-6.41-18.51-7.26
				c-4.96-0.79-9.97,0.1-14.94-0.41c-0.39-0.05-0.77-0.1-1.16-0.16c0.27,0.11,0.55,0.22,0.82,0.32c4.31,1.6,8.96,1.68,13.37,2.86
				c6.16,1.63,9.83,3.17,15.3,6.45c4.4,2.83,10.46,7.18,13.45,9.55c3.42,2.83,6.37,5.47,7.29,9.31c0.43,1.71,0.54,3.45-0.15,5.24
				C242.55,855.07,241.98,850.89,240.42,847.72z"/>
			<path class="st4" d="M198.31,841.25c-8.83-5.6-17.02-10.63-22.64-18.78c-1.3-1.85-2.49-3.8-3.38-5.9
				c0.24,1.31,0.6,2.59,1.05,3.84c4.12,11.69,14.09,19.74,24.36,25.39c8.17,4.54,17.02,8.63,26.46,8.54
				C214.64,852.18,206.83,846.62,198.31,841.25z"/>
			<path class="st4" d="M160.28,782.94c-1.6-8.56-6.4-14.33-13.56-18.58c-3.1-1.8-6.27-3.46-9.31-5.37
				c-0.72-0.45-1.43-0.9-2.13-1.37c0.28,0.32,0.57,0.63,0.86,0.94c5.75,6.16,11.88,9.27,17.1,15.84c2.53,3.13,5.14,8.63,6.35,13.77
				c0.36,1.9,0.87,3.66,0.09,5.64c0.76-0.94,1-2.18,1.13-3.37C161.06,787.94,160.75,785.41,160.28,782.94z"/>
			<path class="st4" d="M134.98,778.25c-4.66-5.86-9.31-12.24-10.03-19.63c-0.16-1.92-0.3-3.9,0.09-5.8
				c-0.48,0.99-0.75,2.07-0.96,3.15c-3.77,17.18,15.75,35.57,29.13,42.56C146.46,792.47,140.48,785.53,134.98,778.25z"/>
		</g>
		<g id="Layer_5">
			<path class="st6" d="M302.84,673.55c16.54,8.5,20.83,13.52,26.61,23.67c-5.65,23.75-37.36,20.77-43.46-2.86
				c-0.7-2.69,0.85-6.26,1.91-8c1.84-3,4.21-7.68,7.81-11.68c13.68-15.2,30.72,5.5,36.1,16.68
				C324.63,681.89,314.33,672.87,302.84,673.55z"/>
			<path class="st6" d="M364.01,734.16l-1.73-2.62c-4.02-6.09-9.11-11.33-14.99-15.45h0c-0.65-0.7-1.74-0.61-2.29,0.18l-7.98,11.69
				c-1.6,2.59-2.88,5.54-3.68,8.76c-0.67,2.69-1.04,5.61-0.12,7.2c2.3,3.95,11.75,11.59,15.11,13.3c3.69,1.88,7.68,0.58,11.81-8.6
				c0.22-0.48,9.72-18.62,5.82-22.45l-16.15-15.32C367.57,731.4,364.01,734.16,364.01,734.16z"/>
			<path class="st6" d="M216.94,682.19c-25.41,17.46,1.76,56.29,30.52,21.69c-11.16-4.96-18.56-12.12-26.16-21.97
				c9.18,8.46,27.71,19.01,27.71,19.01s-11.54-15.39-19.62-22.62c-2.27-2.03-6.15-0.88-7.85,0.14
				C220.28,679.2,217.99,681.46,216.94,682.19z"/>
			<path class="st6" d="M171.02,666.28c-3.59,12.07-4.77,24.91-3.44,37.47c-2.61-9.5-2.81-19.71-0.57-29.31
				c-3.34,9.03-4.51,18.92-3.35,28.52c-14.25,5.63-14.99-13.4-13.22-23.2C151.38,669.96,162.03,659.53,171.02,666.28z"/>
			<path class="st6" d="M375.92,780.08c-0.39-4.36-0.38-6.61-2.77-9.84c-2.39-3.24-7.37-3.78-9.08,0.07l-6.96,15.64
				c-0.61,1.37-0.31,3,0.75,4.03c3.04,2.94,6.36,5.44,9.86,7.43c1.24,0.71,2.8,0.06,3.28-1.32l4.65-13.56
				c-4.08-2.19-10.68-8.83-10.68-8.83S373.44,776.65,375.92,780.08z"/>
		</g>
	</g>
</g>
<g id="Layer_11">
	<g id="Layer_10">
		<path class="st4" d="M489.82,846.21c0,0,3.94,26.74,20.4,28.03c16.46,1.28,19.32-6.13,28.76-7.72
			c9.44-1.59,15.46,9.72,31.29,11.79c15.83,2.07,23.55-6.77,30.25-13.73c6.7-6.96,29.63,20.69,57.07-0.39
			c27.43-21.07,24.66-34.45,29.84-42.65s28.8-10.85,40.95-19.31c12.15-8.46,13.27-18.06,12.01-33.42
			c-1.26-15.37-7.87-23.65-6.34-32.57c1.53-8.92,15.18-10.03,26.11-24.04s5.22-15.78,4.85-24.82
			c-0.37-9.03-62.68,40.82-121.59,63.59C546.88,788.28,489.82,846.21,489.82,846.21z"/>
		<g>
			<path class="st5" d="M477.59,791.1l13.19,59.4c0,0,0.68,1.56,0.68,1.56c4.3,9.84,10.67,27.66,30.49,20.53
				c20.31-7.31,21.98-24.39-8.4-100.66c-0.12-0.3-0.27-0.59-0.45-0.86c-15.14-22.02-44.17-6.58-35.61,19.66
				C477.53,790.86,477.56,790.98,477.59,791.1z"/>
			<g>
				<path class="st4" d="M490.51,846.71C490.51,846.71,490.51,846.7,490.51,846.71C490.52,846.69,490.51,846.69,490.51,846.71z"/>
				<path class="st4" d="M495.25,860.42c3.54,3.92,9.11,6.5,17.24,3.95c23.6-7.4,10.93-37.86,2.12-56.46
					c-5.81-12.27-18.23-33.25-26.02-46.11c7.8-3.02,17.6-0.77,24.51,9.28c0.18,0.26,0.33,0.56,0.45,0.86
					c30.37,76.26,28.71,93.35,8.4,100.66C507.08,877.94,499.78,869.25,495.25,860.42z"/>
				<path class="st4" d="M490.51,846.71c-0.16,0.28-0.26,0.71-0.29,1.25l-0.11-0.49C490.33,847.04,490.47,846.77,490.51,846.71z"/>
			</g>
		</g>
		<g>
			<path class="st5" d="M703.82,724.17c3.44,2.5,7.38,4.08,11.5,4.63c11.49,1.52,23.39-0.23,33.35-6.43
				c27.62-15.23,25.54-63.89-7.83-65.62c-0.85-0.04-1.7-0.01-2.54,0.05c-17.95,1.26-35.89,2.52-53.84,3.78
				c-10.88,0.76-18.84,13.33-17.98,25.04C669.29,711.4,690.85,714.74,703.82,724.17z"/>
			<g>
				<path class="st4" d="M666.48,685.62c-0.09-1.28-0.08-2.57,0.03-3.85c4.27,1.58,10.34,3.85,18.91,7.12
					c23.43,8.94,41.5,29.89,59.09,18.82c14.21-8.94,22.59-28.2,15.84-41.75c12.99,15.24,8.89,45.08-11.67,56.41
					c-9.96,6.2-21.86,7.95-33.35,6.43c-4.12-0.54-8.06-2.13-11.5-4.63C690.85,714.74,669.29,711.4,666.48,685.62z"/>
			</g>
		</g>
		<g>
			<path class="st5" d="M681.17,802.87c6.09,6.73,15.11,9.77,23.8,7.84c36.18-8.04,47.49-63.49,8.79-83.26
				c-20.23-9.85-38.67-34.23-58.96-49.32c-15.78-11.74-32.68-17.87-52.39-7.18c-2.99,1.62-5.69,3.8-7.81,6.53
				c-8.14,10.42-9.47,26.95-0.16,36.17C623.33,742.28,652.22,770.91,681.17,802.87z"/>
			<g>
				<path class="st4" d="M591.4,682.54c4.2,7.28,10.39,16.89,19.08,27.98c19.57,24.98,18.9,17.81,34.74,34.27
					c15.83,16.46,24.71,35.75,41.21,42.23c16.51,6.48,50.16,4.11,50.16-20.9c0-6.89-1.82-16.27-2.48-17.79
					c10.91,24.24-2.23,56.4-29.13,62.38c-8.69,1.93-17.71-1.11-23.8-7.84c-28.95-31.96-57.84-60.59-86.74-89.23
					C586.52,705.8,586.3,692.69,591.4,682.54z"/>
			</g>
		</g>
		<g>
			<path class="st5" d="M594.75,864.69c0.51-0.5,1.04-0.97,1.58-1.44c9.28-8.26,11.63-23.91,5.01-34.63l-78.89-127.7
				c-0.77-1.24-1.61-2.43-2.57-3.52c-7.33-8.33-15.34-6.75-22.51-1.49c-15.16,11.13-19.08,32.81-9.41,49.28
				c18.72,31.88,53.38,91.37,66,116.21C561.64,876.5,574.48,884.41,594.75,864.69z"/>
			<g>
				<path class="st4" d="M497.37,695.91c7.17-5.26,15.18-6.84,22.51,1.49c0.95,1.08,1.8,2.27,2.56,3.5c0,0.01,0.01,0.01,0.01,0.02
					c0.01,0.01,0.04,0.06,0.08,0.14l78.8,127.56c6.63,10.73,4.28,26.38-5.01,34.63c-0.53,0.47-1.07,0.94-1.58,1.44
					c-11.17,10.86-20.08,13.34-27.12,10.85c12.43-1.44,22.89-10.79,25.61-23.49c0.73-3.4,0.81-6.56-0.28-8.93
					c-4.12-8.86-11.01-16.08-16.14-24.29c-11.97-16.76-23.88-33.56-35.91-50.27c-4.66-6.47-8.04-15.48-11.61-22.67
					c-6.5-13.07-14.33-36.5-27.34-39.59c-5.45-1.29-8.78-1.93-10.89-4.45C492.89,699.66,494.99,697.65,497.37,695.91z"/>
			</g>
		</g>
		<g>
			<path class="st5" d="M632.79,867.35c-7.73-0.62-14.74-4.96-19.06-11.65l-102.86-159.1c-22.12-37.12,26.19-74.47,54-41.6
				c35.94,45.84,71.88,91.68,107.82,137.52C698.53,826.93,668.73,870.25,632.79,867.35z"/>
			<g>
				<path class="st4" d="M505.89,670.69c1.53,14.55,12.66,37.89,26.94,55.48c16.22,19.97,32.48,34.1,50.76,61.45
					c19.52,29.21,9.37,23.66,23.34,47.9c13.96,24.23,25.67,35.22,51.58,20.84c25.91-14.38,20.38-38.99,7.21-56.66
					c-13.17-17.67-34.66-29.23-47.08-54.98c-13.51-28.02-26.67-36.76-45.49-71.22c-7.41-13.57-15.55-22.84-22.7-29.1
					c5.08,1.96,10,5.4,14.41,10.61c35.94,45.84,71.88,91.68,107.82,137.52c25.85,34.4-3.96,77.73-39.89,74.82
					c-7.73-0.62-14.74-4.96-19.06-11.65l-102.86-159.1C505.53,687.65,504.31,678.68,505.89,670.69z"/>
				<path class="st4" d="M582.07,710.47c-8.34,11.97-20.89,20.7-34.71,24.16C562.65,735.39,577.9,725.31,582.07,710.47z"/>
				<path class="st4" d="M583.6,733.47c-5.15,2.51-10.29,5.01-15.44,7.52C575.09,742.03,582.46,738.31,583.6,733.47z"/>
			</g>
		</g>
		<path class="st4" d="M648.63,712.61c2.61-3.51,5.25-7.05,7.03-11.11c0.31-0.69,0.6-1.38,0.87-2.08c-0.07,0.52-0.14,1.05-0.23,1.57
			c-1.13,6.69-4.96,12.53-9.38,17.39c-2.42,2.7-5.41,4.71-8.25,6.88C642.69,720.45,645.38,717.34,648.63,712.61z"/>
		<path class="st4" d="M660.04,704.85c-0.76,3.54-2,7.01-3.81,10.12c-1.81,2.92-4.17,5.4-6.46,7.91
			C653.03,716.77,656.91,711.04,660.04,704.85z"/>
		<path class="st4" d="M754.03,677.81c-0.06-1.3-0.14-2.6-0.23-3.9c0.32,0.99,0.62,1.98,0.9,2.98c2.99,10.57,2.1,20.01-3.39,29.5
			C754.01,696.62,754.52,688.4,754.03,677.81z"/>
		<path class="st4" d="M746.53,693.1c0.69-6.96,1.55-15.04,0.96-21.52c-0.24-1.95-0.76-3.86-1.51-5.67
			c0.58,0.83,1.12,1.71,1.57,2.63c1.49,2.96,2.01,6.3,2.37,9.59c0.38,3.49,0.49,7.01,0.32,10.51c-0.22,3.48-0.47,7.01-1.35,10.38
			c-1.84,6.62-4.74,12.93-8.32,18.72C743.32,709.47,745.94,700.63,746.53,693.1z"/>
		<path class="st4" d="M716.17,666.16c0.13,0.38,0.26,0.77,0.38,1.16c2.61,7.68,2.53,16.21-0.14,23.86
			c0.41-7.74,0.31-15.53-0.13-23.27C716.25,667.32,716.21,666.74,716.17,666.16z"/>
		<path class="st4" d="M723.04,675.83c-0.81-3.84-1.38-7.73-2.04-11.6C722.81,667.75,723.43,671.89,723.04,675.83z"/>
		<path class="st4" d="M506.17,765.39c4.53-2.93,9.18-5.67,13.56-8.85c2.34-1.76,4.43-3.18,6.3-5.69c-1.08,2.8-3.13,5.04-5.23,7.06
			c-3.86,3.78-8.76,6.07-13.72,7.86c-1.03,0.38-2.07,0.74-3.12,1.09C504.7,766.36,505.43,765.87,506.17,765.39z"/>
		<path class="st4" d="M519.03,769.53c2.36-1.76,4.33-3.19,6.32-5.47c-2.58,5.22-7.78,9.13-13.34,10.1
			C514.58,773.02,516.77,771.19,519.03,769.53z"/>
		<path class="st4" d="M499.29,797.71c-3.8,5.01-9.89,7.47-15.91,7.68C489.32,803.01,493.6,801.47,499.29,797.71z"/>
		<path class="st4" d="M504.42,806.38c1.54-0.86,3.09-1.69,4.64-2.52c-0.25,0.25-0.5,0.49-0.76,0.74
			c-5.95,5.74-13.39,11.32-21.95,9.7C493.38,813.41,497.99,809.86,504.42,806.38z"/>
		<path class="st4" d="M500.89,857.12c4.72-1.2,9.87-3.03,14.62-1.06c3,1.67,5.41,4.37,7.51,7.11c-2.51-1.88-6.06-4.33-8.24-5.21
			c-2.38-0.75-6.67-0.58-10.51-0.26c-1.95,0.14-3.91,0.19-5.85-0.02C499.24,857.51,500.07,857.33,500.89,857.12z"/>
		<path class="st4" d="M519.78,866.76c-6.1-2-12.59-2.21-18.81-3.68C507.38,862.39,514.37,862.71,519.78,866.76z"/>
		<path class="st4" d="M559.13,870.47c0.35-3.58,2.3-6.72,4.62-9.29c1.72-1.86,3.6-3.62,5.76-4.92c2.83-1.54,5.97-2.31,8.96-3.43
			c2.98-1.09,6.08-2.21,8.8-3.48c0.48-0.17,1.68-0.98,0.62-0.1c-3.37,2.85-7.18,5.12-11.11,7.02c-3.12,1.41-6.3,2.74-8.96,4.99
			c-2.27,1.67-6.45,5.46-7.51,8.66c-0.5,1.44-1.15,2.98-0.63,4.46C558.89,873.28,559.02,871.77,559.13,870.47z"/>
		<path class="st4" d="M575.03,865.87c2.31-2.08,4.71-4.05,7.23-5.85c4.14-2.86,8.17-5.07,11.46-8.71c0.86-1.05,0.05,0.26-0.21,0.78
			c-2.49,4.45-6.53,7.65-10.6,10.46c-2.71,1.84-5.51,3.54-8.31,5.22c-1.26,0.79-2.44,1.56-3.5,2.57
			C572.13,868.61,573.57,867.2,575.03,865.87z"/>
		<path class="st4" d="M613.71,847.79c3.65-6.47,9.66-11.05,15.35-15.45c5.43-4.01,11.91-6.41,18.51-7.26
			c4.96-0.79,9.97,0.1,14.94-0.41c0.39-0.05,0.77-0.1,1.16-0.16c-0.27,0.11-0.55,0.22-0.82,0.32c-4.31,1.6-8.96,1.68-13.37,2.86
			c-6.16,1.63-9.83,3.17-15.3,6.45c-4.4,2.83-10.46,7.18-13.45,9.55c-3.42,2.83-6.37,5.47-7.29,9.31c-0.43,1.71-0.54,3.45,0.15,5.24
			C611.58,855.15,612.16,850.96,613.71,847.79z"/>
		<path class="st4" d="M655.82,841.33c8.83-5.6,17.02-10.63,22.64-18.78c1.3-1.85,2.49-3.8,3.38-5.9c-0.24,1.31-0.6,2.59-1.05,3.84
			c-4.12,11.69-14.09,19.74-24.36,25.39c-8.17,4.54-17.02,8.63-26.46,8.54C639.5,852.25,647.3,846.69,655.82,841.33z"/>
		<path class="st4" d="M693.86,783.02c1.6-8.56,6.4-14.33,13.56-18.58c3.1-1.8,6.27-3.46,9.31-5.37c0.72-0.45,1.43-0.9,2.13-1.37
			c-0.28,0.32-0.57,0.63-0.86,0.94c-5.75,6.16-11.88,9.27-17.1,15.84c-2.53,3.13-5.14,8.63-6.35,13.77
			c-0.36,1.9-0.87,3.66-0.09,5.64c-0.76-0.94-1-2.18-1.13-3.37C693.07,788.02,693.38,785.48,693.86,783.02z"/>
		<path class="st4" d="M719.16,778.32c4.66-5.86,9.31-12.24,10.03-19.63c0.16-1.92,0.3-3.9-0.09-5.8c0.48,0.99,0.75,2.07,0.96,3.15
			c3.77,17.18-15.75,35.57-29.13,42.56C707.68,792.54,713.66,785.61,719.16,778.32z"/>
		<path class="st6" d="M551.29,673.63c-16.54,8.5-20.83,13.52-26.61,23.67c5.65,23.75,37.36,20.77,43.46-2.86
			c0.7-2.69-0.85-6.26-1.91-8c-1.84-3-4.21-7.68-7.81-11.68c-13.68-15.2-30.72,5.5-36.1,16.68
			C529.5,681.97,539.81,672.95,551.29,673.63z"/>
		<path class="st6" d="M490.12,734.23l1.73-2.62c4.02-6.09,9.11-11.33,14.99-15.45l0,0c0.65-0.7,1.75-0.61,2.29,0.18l7.98,11.69
			c1.6,2.59,2.88,5.54,3.68,8.76c0.67,2.69,1.04,5.61,0.12,7.2c-2.3,3.95-11.75,11.59-15.11,13.3c-3.69,1.88-7.68,0.58-11.81-8.6
			c-0.22-0.48-9.72-18.62-5.82-22.45l16.15-15.32C486.57,731.48,490.12,734.23,490.12,734.23z"/>
		<path class="st6" d="M637.2,682.26c25.41,17.46-1.76,56.29-30.52,21.69c11.16-4.96,18.56-12.12,26.16-21.97
			c-9.18,8.46-27.71,19.01-27.71,19.01s11.54-15.39,19.62-22.62c2.27-2.03,6.15-0.88,7.85,0.14
			C633.85,679.28,636.14,681.54,637.2,682.26z"/>
		<path class="st6" d="M683.12,666.36c3.59,12.07,4.77,24.91,3.44,37.47c2.61-9.5,2.81-19.71,0.57-29.31
			c3.34,9.03,4.51,18.92,3.35,28.52c14.25,5.63,14.99-13.4,13.22-23.2C702.76,670.03,692.11,659.6,683.12,666.36z"/>
		<path class="st6" d="M478.22,780.15c0.39-4.36,0.38-6.61,2.77-9.84c2.39-3.24,7.37-3.78,9.08,0.07l6.96,15.64
			c0.61,1.37,0.31,3-0.75,4.03c-3.04,2.94-6.36,5.44-9.86,7.43c-1.24,0.71-2.8,0.06-3.28-1.32l-4.65-13.56
			c4.08-2.19,10.68-8.83,10.68-8.83S480.7,776.72,478.22,780.15z"/>
	</g>
</g>
</svg>
