<svg width="1262" height="796" viewBox="0 0 1262 796" fill="none" xmlns="http://www.w3.org/2000/svg">
<path d="M-34.6985 719.159C-26.9935 702.406 -13.6472 681.913 -2.67577 666.888C0.766699 662.157 2.01285 666.28 4.51741 663.07C7.05589 659.779 8.71236 656.64 10.6072 653.149C12.3191 649.987 14.2078 646.58 16.6611 643.648C18.3279 641.673 21.0717 646.832 22.726 644.697C31.8132 632.887 37.5293 620.089 45.7309 607.553C86.1651 545.762 123.086 483.522 161.73 419.663C174.486 398.578 193.09 374.814 204.075 351.719C205.34 349.045 200.725 348.427 200.695 347.764C200.391 337.36 206.506 344.194 210.354 339.82C212.647 337.185 214.905 334.436 217.036 331.744C229.805 315.397 240.846 297.114 250.308 279.936C255.083 271.326 242.505 274.848 251.992 269.243C252.648 268.848 255.053 273.485 256.97 271.501C261.213 267.094 267.294 257.034 270.5 253.396C276.733 246.322 277.637 245.06 283.599 238.075C291.774 228.572 305.449 218.424 317.564 210.092C320.027 208.328 314.175 206.354 317.916 203.209C318.77 202.496 319.987 201.658 321.323 200.829C326.232 197.755 333.935 194.402 337.3 193.838C341.758 193.039 341.52 197.204 342.558 197.666C350.688 201.673 361.137 187.825 363.344 187.137C389.321 175.835 421.003 183.003 438.152 188.448C450.048 190.908 458.803 197.047 465.286 202.394C486.686 221.405 499.03 240.207 510.143 258.128C512.891 262.777 515.319 267.21 517.688 271.716C526.66 288.882 532.502 304.731 540.508 321.633C541.576 323.922 545.412 318.977 546.719 321.759C560.584 351.437 571.7 381.526 579.366 412.806C580.126 415.943 574.149 413.757 574.633 416.986C576.908 431.54 578.209 452.845 588.141 464.664C591.734 469.003 596.371 471.969 602.625 473.123C606.145 486.014 610.353 501.792 609.787 514.447C609.442 522.677 602.226 517.077 607.083 525.37C608.183 527.293 611.808 523.279 613.12 526.268C618.602 538.735 621.126 553.33 626.783 565.694C627.956 568.254 631.777 566.488 632.694 567.062C640.179 571.88 633.057 584.974 632.857 587.372C631.646 606.137 636.365 618.567 638.997 635.378C639.589 639.295 644.352 633.812 645.108 637.532C646.292 643.515 647.273 649.943 647.925 655.619C647.877 655.251 647.717 655.105 647.847 655.563C647.968 656.003 648.406 656.968 649.221 658.242C650.844 660.825 653.857 664.423 657.499 668.643C657.804 669.051 657.843 669.205 657.833 669.326C657.822 669.445 657.785 669.548 657.844 669.717C658.038 670.179 657.582 671.436 656.816 672.518C656.089 673.621 655.206 674.627 655.518 675.103C659.589 679.695 665.319 672.209 671.556 676.522C672.961 677.435 670.764 680.963 670.9 681.483C673.141 689.668 680.33 681.568 681.577 681.741C686.279 682.326 690.2 683.835 693.821 685.772C702.36 690.353 709.073 697.334 719.973 699.339C721.824 699.667 719.18 693.592 724.256 694.802C758.311 702.862 793.848 713.356 826.735 725.169C831.847 726.995 827.233 729.889 827.455 730.429C831.212 738.914 836.925 729.997 838.719 730.017C847.941 730.285 855.785 735 863.391 735.542C867.44 735.831 871.403 734.935 875.421 731.554C928.935 746.284 984.053 749.741 1037.24 760.848C1040.45 761.485 1043.51 762.133 1046.71 762.804C1047.44 762.945 1046.01 767.813 1047.46 768.073C1065.03 771.057 1061.85 763.331 1072.64 753.663C1075.3 751.238 1084.5 761.868 1085.46 762.585C1088.52 765.365 1086.26 772.886 1087.25 773.388C1095.82 777.186 1091.96 753.434 1101.75 751.988C1102.08 751.978 1101.45 756.57 1102.36 756.874C1105.18 757.833 1107.48 755.639 1110.34 756.635C1116.72 758.923 1121.95 769.882 1129.25 760.644C1130.05 759.428 1124.64 746.987 1132.68 744.812C1135.17 744.174 1143.41 740.611 1148.53 737.887C1150.09 737.101 1151.41 736.43 1152.29 736.101C1155.98 734.667 1156.31 739.767 1156.63 739.788C1169.23 737.729 1167.29 742.087 1177.92 744.274C1188.83 745.756 1172.99 732.453 1173.01 729.178C1173.01 725.991 1182.27 722.464 1184.96 721.556C1187.65 720.763 1188.18 724.717 1190.17 723.643C1203.22 715.961 1185.22 713.001 1184.88 707.701C1183.52 695.568 1200.37 696.222 1205.97 687.933C1207.43 685.746 1203.4 686.202 1204.07 683.983C1206.67 675.258 1213.19 671.894 1212.82 660.552C1212.79 658.658 1207.02 647.772 1215.11 644.777C1216.27 644.348 1219.15 647.688 1221.22 644.201C1224.33 639.011 1228.4 629.051 1229.13 622.552C1229.68 617.723 1222.08 621.03 1225.73 615.924C1227.37 613.637 1229.35 619.458 1232.13 615.091C1232.35 614.749 1232.57 614.36 1232.8 613.931C1235.46 610.085 1235.32 599.548 1234.63 595.372C1234 590.818 1229.57 593.896 1229.21 593.555C1227.21 591.633 1223.52 583.572 1223.33 582.801C1219.79 566.064 1216.57 548.793 1213.71 531.732C1210.07 510.258 1205.38 489.006 1196.37 468.601C1195.12 465.75 1191.14 469.415 1190.9 468.998C1185.27 459.834 1200.63 463.007 1202.14 454.435C1193.05 459.059 1193.23 454.28 1189.41 447.707C1187.57 444.569 1184.66 447.854 1184.16 447.697C1176.65 444.982 1182.35 438.68 1183.43 437.166C1187.42 431.675 1179.58 430.759 1182.18 427.022C1184.74 423.257 1192.21 426.142 1189.23 419.496C1185.1 419.11 1178.56 427.797 1174.96 423.434C1162.81 408.597 1153.16 376.619 1145.37 359.945C1144.72 358.454 1144.03 357.118 1143.33 355.966C1135.45 343.86 1130.38 341.384 1124.17 334.57C1112.02 322.541 1112.84 332.019 1102.35 328.751C1091.63 325.542 1105.44 313.921 1106.18 309.952C1106.91 305.988 1103.4 308.273 1102.9 305.512C1102.4 302.751 1107.27 302.893 1103.9 299.791C1103.57 299.488 1103.14 299.203 1102.62 298.937C1097.06 295.783 1084.98 296.913 1082.46 299.743C1076.34 306.242 1078.27 316.061 1068.91 309.523C1068.35 309.141 1071.84 305.518 1069.59 304.273C1051.53 294.626 1030.23 289.351 1010.76 281.409C1008.08 280.317 1011.75 275.996 1010.2 275.303C994.007 268.08 998.113 277.851 986.597 284.847C991.606 273.067 988.29 264.34 975.48 261.196C968.324 259.433 967.893 264.152 963.159 266.898C962.771 267.13 962.354 267.347 961.9 267.545C960.122 268.324 955.566 263.305 953.953 265.571C948.647 272.97 951.479 283.5 939.076 276.427C938.536 276.102 941.557 272.092 939.608 271.298C927.092 266.13 923.254 274.28 908.905 271.437C897.651 269.207 879.665 258.369 867.531 253.729C871.908 240.237 859.385 239.79 851.685 247.6C843.772 244.678 834.929 242.375 827.644 238.469C825.117 237.122 828.203 233.833 828.008 233.298C826.735 229.543 824.677 229.056 822.684 229.647C820.19 230.341 817.735 232.606 816.728 232.462C796.607 229.007 784.658 216.308 764.303 213.366C763.63 213.277 757.734 221.344 756.649 212.392C756.629 211.797 764.436 211.2 756.691 206.216C749.421 201.464 739.448 189.338 728.917 181.519C728.055 180.898 727.178 180.321 726.281 179.793C723.507 178.269 711.879 176.385 713.517 167.323C713.761 166.134 716.64 165.388 717.311 163.517C719.559 157.681 709.801 160.761 715.08 152.703C720.39 144.577 722.622 135.15 713.716 125.84C713.462 125.575 705.033 125.028 704.205 121.135C702.866 114.997 703.017 106.05 702.359 99.6802C702.032 96.6132 697.342 99.0302 697.201 98.503C695.832 92.3675 695.428 86.611 695.592 81.1083C695.557 72.6804 701.261 65.0571 707.675 61.5562C714.138 57.7983 721.213 56.1721 728.985 54.5062C731.349 53.9885 735.873 50.4445 740.738 48.2978C745.122 46.2965 750.306 47.4272 752.901 50.0838C760.319 57.686 745.756 78.7121 765.562 78.1782C773.589 78.0677 792.112 51.7017 801.343 71.0332C806.289 71.8139 810.891 72.8849 815.609 74.2368C837.202 80.4193 856.551 91.3513 879.981 93.8157C881.285 93.9621 887.588 86.9996 890.398 87.9978C894.587 89.5022 895.645 94.0054 898.591 95.2003C910.81 100.273 923.328 100.617 935.289 104.916C939.833 106.541 936.99 109.966 942.411 111.905C947.828 113.838 953.104 109.807 959.754 114.635C964.768 118.298 967.066 130.635 974.131 134.202C977.676 123.853 982.734 125.674 992.694 125.769C994.61 125.782 993.873 121.563 994.838 121.382C998.777 120.56 1000.96 124.55 1004.79 123.512C1005.72 123.265 1006.88 119.713 1007.7 119.309C1014.75 115.755 1021.14 126.558 1022.23 128.431C1026.42 135.561 1030.6 131.778 1034.47 135.279C1038.31 138.772 1030.78 139.283 1035.63 142.187C1045.66 148.198 1059.83 151.987 1070.83 155.579C1072.28 156.046 1073.07 155.72 1073.51 155.086C1073.85 154.625 1073.98 153.994 1074.04 153.383C1074.16 152.331 1074.05 151.341 1074.33 151.378C1074.43 151.396 1074.54 151.415 1074.65 151.434C1083.99 153.179 1091.6 160.829 1099.45 152.968C1098.25 179.453 1105.71 152.296 1117.22 161.159C1118.12 161.867 1115.95 173.896 1111.43 174.389C1106.94 174.89 1102.09 169.442 1095.8 170.419C1094.23 170.621 1083.52 179.229 1082.32 179.578C1072.79 182.275 1076.95 164.567 1076.87 163.499C1076.4 159.819 1074.82 158.168 1072.73 157.621C1068.38 156.494 1061.77 160.666 1059.98 160.716C1047.89 161.019 1039.38 155.691 1029.43 155.484C1022.86 155.306 1018.84 166.5 1014.2 164.668C998.999 158.654 998.485 141.119 979.529 150.246C975.476 152.189 974.71 165.561 966.493 152.284C965.975 151.447 960.404 139.91 953.792 144.032C952.963 144.553 951.851 148.172 950.956 148.225C944.978 148.508 942.294 144.507 936.018 144.056C929.74 143.603 922.059 143.455 915.781 140.145C911.969 138.148 908.949 129.814 907.518 127.557C903.567 121.11 895.289 127.068 893.736 120.272C892.15 113.435 901.538 106.734 893.773 100.212C890.512 109.497 886.748 118.898 883.273 128.175C863.844 121.749 845.626 112.745 825.927 107.119C823.457 106.424 824.395 112.247 821.727 111.638C816.084 110.346 810.953 107.964 805.971 105.751C800.97 103.56 796.128 101.529 790.309 100.536C781.197 99.0155 769.968 101.488 760.775 100.329C759.633 94.1548 755.478 91.0381 750.919 89.2848C748.715 88.4262 746.317 87.9116 745.124 87.7465C744.563 87.6594 744.326 87.6999 745.285 87.743C746.064 87.8198 749.286 87.6004 751.044 87.007C751.602 86.8325 751.764 86.6904 751.694 86.5895C748.547 86.6197 747.915 84.2792 745.432 84.06C735.663 82.9567 742.637 91.384 740.939 93.4911C737.923 97.8948 735.665 94.5926 732.294 90.9096C729.253 87.0464 724.349 83.6336 724.275 84.1606C724.256 84.1528 726.571 86.3012 730.074 86.4707C733.529 86.7862 737.393 85.0105 737.832 84.5273C742.29 79.5784 737.392 81.6132 734.817 81.051C734.002 81.2372 733.349 81.6671 733.152 82.6227C731.648 89.9823 729.1 95.5689 733.803 103.336C735.21 105.717 743.5 109.426 739.054 115.044C738.475 115.806 734.563 116.535 734.469 117.068C733.305 126.836 745.394 122.973 750.88 125.313C756.314 127.495 751.873 137.184 750.671 139.907C747.26 146.621 746.737 138.717 746.14 138.828C738.323 140.158 742.166 144.602 744.134 148.656C734.223 155.917 738.95 161.266 746.287 152.83C747.085 151.928 744.155 149.73 744.134 148.656C754.317 145.944 758.87 147.667 758.258 155.825C757.938 157.239 757.454 158.952 756.862 161.021C755.447 166.841 748.561 169.392 758.741 174.744C763.504 177.039 766.823 169.042 771.652 169.57C782.475 170.602 791.047 183.872 802.343 187.472C806.331 188.729 804.457 182.885 807.249 183.59C814.623 185.402 819.592 191.073 827.504 192.099C828.22 192.184 828.272 187.07 830.549 187.836C832.606 188.514 834.543 189.187 836.56 189.918C851.603 195.349 865.168 202.226 881.983 207.436C891.202 210.303 908.527 212.606 918.006 215.811C934.413 221.383 953.295 233.617 968.025 235.428C969.031 235.555 969.915 235.609 970.699 235.603C977.689 235.615 977.255 231.217 981.668 229.252C991.033 224.949 1002.45 239.402 1003.9 241.566C1003.95 241.639 995.422 240.769 999.266 244.232C1000.63 249.862 1003.78 241.561 1003.9 241.566C1004.91 242.979 1021.14 247.999 1024.71 247.928C1026.61 247.872 1026.68 243.186 1027.67 243.247C1051.16 244.989 1073.44 248.458 1099.87 261.105C1100.31 261.388 1097.64 265.813 1098.7 266.418C1104.91 270.065 1111.04 272.447 1117.9 275.404C1123.94 277.302 1130.31 277.827 1137.23 279.862C1149.11 283.312 1157.39 290.972 1158.02 302.995C1166.76 308.619 1175.74 323.756 1179.01 333.538C1179.92 336.052 1181.14 337.662 1182.53 338.725C1185.74 340.525 1190.88 338.539 1191.22 338.845C1206.45 353.317 1206.69 366.304 1214.65 385.093C1218.46 394.083 1227.56 411.074 1232.55 420.49C1236.54 427.879 1236.21 433.405 1240.36 440.069C1240.92 440.966 1244.68 438.41 1244.96 438.645C1252.97 444.862 1241.36 444.789 1240.17 447.125C1235.8 455.572 1233.62 460.458 1240.27 469.662C1241.79 471.742 1258.92 473.855 1261.23 478.111C1264.16 483.579 1258.15 483.048 1261.3 488.737C1261.57 489.227 1264.84 488.108 1265.82 491.949C1267.88 499.94 1269.64 508.381 1271.31 516.945C1273.18 526.722 1275.21 536.653 1277.82 546.562C1278.46 549.034 1283 544.549 1284.01 548.126C1288.08 565.652 1295.19 582.731 1289.35 617.255C1287.22 626.025 1284.39 619.72 1282.93 621.391C1281.03 623.499 1279.69 625.942 1278.62 628.598C1276.52 632.591 1281.02 639.2 1280.87 640.164C1276.21 670.203 1260.54 690.761 1247.89 724.283C1247.4 725.945 1248.67 745.337 1236.68 746.406C1235.84 746.566 1224.32 746.829 1225.46 755.749C1225.5 756.334 1232.27 755.629 1226.76 761.734C1221.36 767.699 1213.97 780.405 1200.93 784.02C1197.06 785.148 1186.49 783.324 1180.17 792.237C1179.68 792.984 1179.17 793.838 1178.69 794.797C1178.88 795.542 1170.01 818.841 1159.91 809.98C1158.3 808.477 1154.85 796.901 1145.71 806.573C1143.89 808.421 1148.68 809.844 1143.4 813.238C1135.12 818.469 1122.8 817.844 1113.11 824.898C1111.42 826.168 1104.47 835.637 1097.43 829.951C1096.34 829.06 1097.78 824.778 1094.45 824.644C1078.83 823.936 1063.25 827.098 1048.29 823.967C1043.1 822.851 1045.88 816.263 1040.58 814.308C1039.05 813.737 1037.07 813.147 1034.85 812.652C1029.53 811.453 1023.13 810.808 1019.08 812.676C1013.37 815.301 1018.58 826.36 1010.2 826.539C973.695 827.144 940.087 815.881 906.02 808.988C900.97 807.953 904.5 812.447 897.002 811.167C883.967 808.941 866.404 806.422 849.201 802.817C829.878 798.783 811.094 793.424 799.684 786.328C782.451 775.569 807.133 776.41 793.479 770.433C786.92 767.564 776.525 777.707 774.773 777.671C757.56 777.456 747.635 769.244 732.654 766.993C729.551 766.525 731.211 772.147 728.59 771.695C719.624 770.191 710.944 765.494 702.489 763.537C698.63 762.651 698.352 766.543 694.917 765.258C687.026 762.334 680.214 758.742 673.312 753.117C673.106 752.952 672.901 752.786 672.697 752.619C672.451 752.417 673.193 751.876 673.905 751.17C674.674 750.379 675.403 749.384 674.738 748.435C674.373 747.935 673.614 747.444 672.311 747.004C662.158 743.523 651.666 736.79 635.937 734.215C633.522 733.776 631.226 735.437 628.404 735.817C625.514 736.038 622.149 735.632 615.436 727.214C613.643 724.624 618.263 720.552 612.855 716.979C611.854 716.466 610.011 716.198 606.648 716.049C605.491 715.943 599.623 715.334 592.559 710.813C585.65 706.618 577.107 696.387 576.975 685.624C576.884 681.663 578.694 672.559 579.82 664.068C580.454 662.609 580.709 661.406 580.216 660.475C579.94 660.003 575.534 662.567 574.7 659.583C571.844 649.193 570.4 637.822 566.709 626.832C565.705 623.877 561.85 629.302 560.516 624.957C556.826 612.936 554.428 597.382 552.724 584.787C552.122 580.207 556.809 582.258 557.149 581.825C562.665 574.776 552.523 574.09 551.518 572.525C545.337 562.599 547.302 553.138 543.15 543.457C542.026 540.827 538.223 544.081 537.669 543.657C532.139 539.172 541.291 540.999 541.052 537.113C540.425 526.302 536.466 515.164 532.504 505.151C531.055 501.516 527.414 507.368 526.168 504.084C524.149 498.839 522.24 493.704 520.33 488.29C515.084 473.427 510.516 458.183 507.279 443.227C506.457 439.39 511.139 440.261 511.734 439.176C515.915 431.642 504.675 427.094 503.217 425.651C496.56 419.043 498.75 414.674 495.386 407.904C479.77 376.736 464.816 335.825 451.638 310.249C450.872 308.793 450.129 307.387 449.408 306.031C441.963 292.091 435.135 279.519 428.773 269.543C425.655 264.624 422.518 260.346 420.647 258.112C419.759 257.008 419.232 256.506 419.92 256.769C420.544 256.991 422.873 258.079 426.065 258.508C411.14 255.316 405.829 254.006 398.612 254.204C397.065 254.257 398.581 259.697 397.35 259.825C387.142 260.796 375.257 263.703 361.414 271.503C353.722 275.871 352.695 276.883 348.575 281.377C347.609 282.49 352.711 284.696 351.328 286.589C348.53 290.476 343.149 296.481 337.586 301.181C334.833 303.539 334.144 297.059 331.421 299.533C325.128 305.246 319.333 313.092 314.93 321.39C313.105 324.874 320.749 322.769 318.026 327.096C308.614 342.225 299.627 357.991 289.826 373.783C280.15 389.393 269.517 405.013 257.257 419.722C255.569 421.741 245.068 418.521 244.126 424.343C246.508 426.174 249.562 427.883 252.238 429.611C226.54 478.363 196.536 524.203 168.971 572.23C167.806 574.261 174.739 573.508 172.511 577.453C159.651 600.242 148.65 623.139 130.628 643.813C128.844 645.874 120.834 639.722 118.29 647.373C117.865 648.699 113.251 659.689 113.684 663.361C113.768 663.881 118.885 664.286 117.16 667.651C111.238 679.097 104.586 690.612 97.4661 701.712C92.3438 709.709 87.0083 717.451 81.4876 724.883C79.3436 727.753 76.8522 722.036 75.2956 724.044C64.1963 738.465 57.9547 757.323 45.4836 770.218C37.1358 778.792 31.7537 770.875 21.384 771.996C19.9316 772.146 16.1153 778.372 11.6792 776.195C0.554494 770.725 -9.44192 761 -21.5065 755.523C-24.0782 754.338 -26.0733 763.623 -29.1993 755.49C-29.3964 754.949 -28.1543 748.32 -29.3418 745.697C-30.1635 743.898 -35.5195 743.183 -36.1575 740.157C-36.7887 737.121 -31.8644 736.95 -32.0209 732.323C-32.1959 727.663 -38.0243 726.417 -34.6985 719.159ZM1186.2 368.161C1184.92 376.129 1200.97 369.097 1193.98 364.632C1193.62 364.425 1186.25 367.755 1186.2 368.161ZM849.626 100.184C844.039 90.3701 835.272 99.5375 839.059 106.949C842.932 114.381 851.317 103.158 849.626 100.184ZM933.2 120.358C925.784 111.661 916.921 134.885 928.308 133.194C928.967 133.103 933.634 120.864 933.2 120.358ZM33.2896 746.078C33.0711 745.993 30.3152 750.426 30.4865 750.59C33.9939 755.687 39.3957 747.01 33.2896 746.078ZM1016.31 139.956C1014.39 135.838 1004.99 136.955 1007.31 142.055C1009.16 146.154 1018.66 145.067 1016.31 139.956ZM1213.81 691.331C1213.53 691.316 1211.73 694.544 1213.08 695.124C1217.47 696.981 1218.5 691.655 1213.81 691.331ZM1155.14 181.637C1154.44 181.418 1153.76 181.183 1153.1 180.933C1133.83 173.697 1129 152.176 1149.45 160.424C1153.35 161.945 1139.1 164.305 1143.69 167.519C1147.76 170.34 1151.94 169.299 1156.22 168.401C1161.05 167.472 1166.22 167.172 1170.05 172.271C1171.34 173.996 1156.01 181.833 1155.09 181.655C1155.11 181.649 1155.12 181.643 1155.14 181.637ZM1169.19 381.053C1169.04 381.248 1171.15 385.922 1171.4 385.905C1177.61 385.894 1173.36 376.484 1169.19 381.053ZM1033.23 767.056C1032.99 766.579 1021.42 765.37 1021.02 765.769C1014.21 774.429 1037.92 776.936 1033.23 767.056ZM867.446 253.308C860.477 257.028 853.832 255.649 851.707 247.615C856.888 249.644 862.208 251.352 867.446 253.308Z" fill="white"/>
</svg>
