<svg width="72" height="71" viewBox="0 0 72 71" fill="none" xmlns="http://www.w3.org/2000/svg">
<path d="M36.0557 14.8205C24.6368 14.8205 15.3541 24.1032 15.3384 35.5221C15.3384 39.4332 16.4378 43.2499 18.5111 46.5327L18.9981 47.318L16.909 54.9515L24.7468 52.894L25.5007 53.3494C28.6735 55.2343 32.3175 56.2395 36.04 56.2395H36.0557C47.4589 56.2395 56.993 46.9567 56.993 35.5378C56.993 30.009 54.6056 24.81 50.6946 20.899C46.7678 16.9723 41.5846 14.8205 36.0557 14.8205ZM48.2286 44.4122C47.7102 45.873 45.2286 47.1923 44.0348 47.3651C42.0558 47.6636 40.5165 47.5065 36.5741 45.8101C30.3384 43.1086 26.2546 36.8258 25.9405 36.4174C25.6264 36.009 23.396 33.0404 23.396 29.9776C23.396 26.9148 24.9981 25.4069 25.5792 24.7786C26.1447 24.1503 26.8201 23.9933 27.2442 23.9933C27.6526 23.9933 28.0766 23.9933 28.4379 24.009C28.8149 24.0247 29.3332 23.8676 29.8358 25.0771C30.3541 26.3179 31.595 29.3807 31.7521 29.6949C31.9091 30.009 32.0191 30.3703 31.7992 30.7787C30.6054 33.1661 29.3332 33.0719 29.9772 34.1713C32.3803 38.3023 34.7835 39.7316 38.4432 41.5693C39.0715 41.8834 39.4327 41.8363 39.794 41.4122C40.1552 41.0038 41.349 39.5902 41.7573 38.9776C42.1657 38.3494 42.5898 38.4593 43.1553 38.6635C43.7207 38.8677 46.7835 40.3756 47.4118 40.6897C48.0401 41.0038 48.4485 41.1609 48.6055 41.4122C48.7469 41.7106 48.7469 42.9672 48.2286 44.4122ZM63.6999 0.558609H8.41162C4.24929 0.558609 0.872314 3.93559 0.872314 8.09791V63.3861C0.872314 67.5485 4.24929 70.9255 8.41162 70.9255H63.6999C67.8622 70.9255 71.2392 67.5485 71.2392 63.3861V8.09791C71.2392 3.93559 67.8622 0.558609 63.6999 0.558609ZM36.04 60.4333C31.862 60.4333 27.7625 59.3809 24.1342 57.4018L10.9247 60.873L14.4588 47.962C12.2755 44.1923 11.1289 39.9044 11.1289 35.5064C11.1446 21.7786 22.3122 10.611 36.04 10.611C42.6997 10.611 48.9511 13.2027 53.6632 17.9147C58.3595 22.6268 61.1868 28.8781 61.1868 35.5378C61.1868 49.2657 49.7678 60.4333 36.04 60.4333Z" fill="white"/>
</svg>
