<svg width="75" height="53" viewBox="0 0 75 53" fill="none" xmlns="http://www.w3.org/2000/svg">
<path d="M73.3222 8.82404C72.4691 5.61172 69.9554 3.08179 66.7639 2.22322C60.979 0.663101 37.7822 0.663101 37.7822 0.663101C37.7822 0.663101 14.5855 0.663101 8.80045 2.22322C5.60891 3.08192 3.09528 5.61172 2.24214 8.82404C0.692078 14.6466 0.692078 26.7947 0.692078 26.7947C0.692078 26.7947 0.692078 38.9429 2.24214 44.7654C3.09528 47.9778 5.60891 50.4023 8.80045 51.2609C14.5855 52.821 37.7822 52.821 37.7822 52.821C37.7822 52.821 60.9788 52.821 66.7639 51.2609C69.9554 50.4023 72.4691 47.9778 73.3222 44.7654C74.8723 38.9429 74.8723 26.7947 74.8723 26.7947C74.8723 26.7947 74.8723 14.6466 73.3222 8.82404ZM30.1955 37.8244V15.7651L49.5834 26.795L30.1955 37.8244Z" fill="white"/>
</svg>
